G04 #@! TF.GenerationSoftware,KiCad,Pcbnew,5.1.9*
G04 #@! TF.CreationDate,2021-04-12T08:18:13-03:00*
G04 #@! TF.ProjectId,Caps,43617073-2e6b-4696-9361-645f70636258,rev?*
G04 #@! TF.SameCoordinates,Original*
G04 #@! TF.FileFunction,Copper,L2,Bot*
G04 #@! TF.FilePolarity,Positive*
%FSLAX46Y46*%
G04 Gerber Fmt 4.6, Leading zero omitted, Abs format (unit mm)*
G04 Created by KiCad (PCBNEW 5.1.9) date 2021-04-12 08:18:13*
%MOMM*%
%LPD*%
G01*
G04 APERTURE LIST*
G04 #@! TA.AperFunction,ViaPad*
%ADD10C,0.400000*%
G04 #@! TD*
G04 #@! TA.AperFunction,Conductor*
%ADD11C,0.254000*%
G04 #@! TD*
G04 #@! TA.AperFunction,Conductor*
%ADD12C,0.100000*%
G04 #@! TD*
G04 APERTURE END LIST*
D10*
X111500000Y-81500000D03*
X112500000Y-81500000D03*
X113500000Y-81500000D03*
X114500000Y-81500000D03*
X115500000Y-81500000D03*
X116500000Y-81500000D03*
X117500000Y-81500000D03*
X118500000Y-81500000D03*
X119500000Y-81500000D03*
X120500000Y-81500000D03*
X112000000Y-82500000D03*
X113000000Y-82500000D03*
X114000000Y-82500000D03*
X115000000Y-82500000D03*
X116000000Y-82500000D03*
X121000000Y-82500000D03*
X111500000Y-83500000D03*
X112500000Y-83500000D03*
X113500000Y-83500000D03*
X114500000Y-83500000D03*
X115500000Y-83500000D03*
X112000000Y-84500000D03*
X113000000Y-84500000D03*
X114000000Y-84500000D03*
X115000000Y-84500000D03*
X116000000Y-84500000D03*
X121000000Y-84500000D03*
X111500000Y-85500000D03*
X112500000Y-85500000D03*
X113500000Y-85500000D03*
X114500000Y-85500000D03*
X115500000Y-85500000D03*
X112000000Y-86500000D03*
X113000000Y-86500000D03*
X114000000Y-86500000D03*
X115000000Y-86500000D03*
X116000000Y-86500000D03*
X117000000Y-86500000D03*
X118000000Y-86500000D03*
X119000000Y-86500000D03*
X120000000Y-86500000D03*
X121000000Y-86500000D03*
X111500000Y-87500000D03*
X112500000Y-87500000D03*
X113500000Y-87500000D03*
X114500000Y-87500000D03*
X115500000Y-87500000D03*
X116500000Y-87500000D03*
X117500000Y-87500000D03*
X118500000Y-87500000D03*
X119500000Y-87500000D03*
X120500000Y-87500000D03*
X112000000Y-88500000D03*
X113000000Y-88500000D03*
X114000000Y-88500000D03*
X115000000Y-88500000D03*
X116000000Y-88500000D03*
X117000000Y-88500000D03*
X118000000Y-88500000D03*
X119000000Y-88500000D03*
X120000000Y-88500000D03*
X121000000Y-88500000D03*
X111500000Y-89500000D03*
X112500000Y-89500000D03*
X113500000Y-89500000D03*
X114500000Y-89500000D03*
X115500000Y-89500000D03*
X116500000Y-89500000D03*
X117500000Y-89500000D03*
X118500000Y-89500000D03*
X119500000Y-89500000D03*
X120500000Y-89500000D03*
X112000000Y-90500000D03*
X113000000Y-90500000D03*
X114000000Y-90500000D03*
X115000000Y-90500000D03*
X116000000Y-90500000D03*
X117000000Y-90500000D03*
X118000000Y-90500000D03*
X119000000Y-90500000D03*
X120000000Y-90500000D03*
X121000000Y-90500000D03*
X111500000Y-91500000D03*
X112500000Y-91500000D03*
X113500000Y-91500000D03*
X114500000Y-91500000D03*
X115500000Y-91500000D03*
X116500000Y-91500000D03*
X117500000Y-91500000D03*
X118500000Y-91500000D03*
X119500000Y-91500000D03*
X120500000Y-91500000D03*
X112000000Y-92500000D03*
X113000000Y-92500000D03*
X114000000Y-92500000D03*
X115000000Y-92500000D03*
X116000000Y-92500000D03*
X117000000Y-92500000D03*
X118000000Y-92500000D03*
X119000000Y-92500000D03*
X120000000Y-92500000D03*
X121000000Y-92500000D03*
X111500000Y-93500000D03*
X112500000Y-93500000D03*
X113500000Y-93500000D03*
X114500000Y-93500000D03*
X115500000Y-93500000D03*
X112000000Y-94500000D03*
X113000000Y-94500000D03*
X114000000Y-94500000D03*
X115000000Y-94500000D03*
X116000000Y-94500000D03*
X121000000Y-94500000D03*
X111500000Y-95500000D03*
X112500000Y-95500000D03*
X113500000Y-95500000D03*
X114500000Y-95500000D03*
X115500000Y-95500000D03*
X112000000Y-96500000D03*
X113000000Y-96500000D03*
X114000000Y-96500000D03*
X115000000Y-96500000D03*
X116000000Y-96500000D03*
X121000000Y-96500000D03*
X111500000Y-97500000D03*
X112500000Y-97500000D03*
X113500000Y-97500000D03*
X114500000Y-97500000D03*
X115500000Y-97500000D03*
X112000000Y-98500000D03*
X113000000Y-98500000D03*
X114000000Y-98500000D03*
X115000000Y-98500000D03*
X116000000Y-98500000D03*
X117000000Y-98500000D03*
X118000000Y-98500000D03*
X119000000Y-98500000D03*
X120000000Y-98500000D03*
X121000000Y-98500000D03*
X111500000Y-99500000D03*
X112500000Y-99500000D03*
X113500000Y-99500000D03*
X114500000Y-99500000D03*
X115500000Y-99500000D03*
X116500000Y-99500000D03*
X117500000Y-99500000D03*
X118500000Y-99500000D03*
X119500000Y-99500000D03*
X120500000Y-99500000D03*
X112000000Y-100500000D03*
X113000000Y-100500000D03*
X114000000Y-100500000D03*
X115000000Y-100500000D03*
X116000000Y-100500000D03*
X117000000Y-100500000D03*
X118000000Y-100500000D03*
X119000000Y-100500000D03*
X120000000Y-100500000D03*
X121000000Y-100500000D03*
X111500000Y-101500000D03*
X112500000Y-101500000D03*
X113500000Y-101500000D03*
X114500000Y-101500000D03*
X115500000Y-101500000D03*
X116500000Y-101500000D03*
X117500000Y-101500000D03*
X118500000Y-101500000D03*
X119500000Y-101500000D03*
X120500000Y-101500000D03*
X112000000Y-102500000D03*
X113000000Y-102500000D03*
X114000000Y-102500000D03*
X115000000Y-102500000D03*
X116000000Y-102500000D03*
X117000000Y-102500000D03*
X118000000Y-102500000D03*
X119000000Y-102500000D03*
X120000000Y-102500000D03*
X121000000Y-102500000D03*
X111500000Y-103500000D03*
X112500000Y-103500000D03*
X113500000Y-103500000D03*
X114500000Y-103500000D03*
X115500000Y-103500000D03*
X116500000Y-103500000D03*
X117500000Y-103500000D03*
X118500000Y-103500000D03*
X119500000Y-103500000D03*
X120500000Y-103500000D03*
X112000000Y-104500000D03*
X113000000Y-104500000D03*
X114000000Y-104500000D03*
X115000000Y-104500000D03*
X116000000Y-104500000D03*
X117000000Y-104500000D03*
X118000000Y-104500000D03*
X119000000Y-104500000D03*
X120000000Y-104500000D03*
X121000000Y-104500000D03*
X111500000Y-105500000D03*
X112500000Y-105500000D03*
X113500000Y-105500000D03*
X114500000Y-105500000D03*
X115500000Y-105500000D03*
X112000000Y-106500000D03*
X113000000Y-106500000D03*
X114000000Y-106500000D03*
X115000000Y-106500000D03*
X116000000Y-106500000D03*
X121000000Y-106500000D03*
X111500000Y-107500000D03*
X112500000Y-107500000D03*
X113500000Y-107500000D03*
X114500000Y-107500000D03*
X115500000Y-107500000D03*
X112000000Y-108500000D03*
X113000000Y-108500000D03*
X114000000Y-108500000D03*
X115000000Y-108500000D03*
X116000000Y-108500000D03*
X121000000Y-108500000D03*
X111500000Y-109500000D03*
X112500000Y-109500000D03*
X113500000Y-109500000D03*
X114500000Y-109500000D03*
X115500000Y-109500000D03*
X112000000Y-110500000D03*
X113000000Y-110500000D03*
X114000000Y-110500000D03*
X115000000Y-110500000D03*
X116000000Y-110500000D03*
X117000000Y-110500000D03*
X118000000Y-110500000D03*
X119000000Y-110500000D03*
X120000000Y-110500000D03*
X121000000Y-110500000D03*
X111500000Y-111500000D03*
X112500000Y-111500000D03*
X113500000Y-111500000D03*
X114500000Y-111500000D03*
X115500000Y-111500000D03*
X116500000Y-111500000D03*
X117500000Y-111500000D03*
X118500000Y-111500000D03*
X119500000Y-111500000D03*
X120500000Y-111500000D03*
X112000000Y-112500000D03*
X113000000Y-112500000D03*
X114000000Y-112500000D03*
X115000000Y-112500000D03*
X116000000Y-112500000D03*
X117000000Y-112500000D03*
X118000000Y-112500000D03*
X119000000Y-112500000D03*
X120000000Y-112500000D03*
X121000000Y-112500000D03*
X111500000Y-113500000D03*
X112500000Y-113500000D03*
X113500000Y-113500000D03*
X114500000Y-113500000D03*
X115500000Y-113500000D03*
X116500000Y-113500000D03*
X117500000Y-113500000D03*
X118500000Y-113500000D03*
X119500000Y-113500000D03*
X120500000Y-113500000D03*
X112000000Y-114500000D03*
X113000000Y-114500000D03*
X114000000Y-114500000D03*
X115000000Y-114500000D03*
X116000000Y-114500000D03*
X117000000Y-114500000D03*
X118000000Y-114500000D03*
X119000000Y-114500000D03*
X120000000Y-114500000D03*
X121000000Y-114500000D03*
X111500000Y-115500000D03*
X112500000Y-115500000D03*
X113500000Y-115500000D03*
X114500000Y-115500000D03*
X115500000Y-115500000D03*
X116500000Y-115500000D03*
X117500000Y-115500000D03*
X118500000Y-115500000D03*
X119500000Y-115500000D03*
X120500000Y-115500000D03*
X112000000Y-116500000D03*
X113000000Y-116500000D03*
X114000000Y-116500000D03*
X115000000Y-116500000D03*
X116000000Y-116500000D03*
X117000000Y-116500000D03*
X118000000Y-116500000D03*
X119000000Y-116500000D03*
X120000000Y-116500000D03*
X121000000Y-116500000D03*
X111500000Y-117500000D03*
X112500000Y-117500000D03*
X113500000Y-117500000D03*
X114500000Y-117500000D03*
X115500000Y-117500000D03*
X112000000Y-118500000D03*
X113000000Y-118500000D03*
X114000000Y-118500000D03*
X115000000Y-118500000D03*
X116000000Y-118500000D03*
X121000000Y-118500000D03*
X111500000Y-119500000D03*
X112500000Y-119500000D03*
X113500000Y-119500000D03*
X114500000Y-119500000D03*
X115500000Y-119500000D03*
X112000000Y-120500000D03*
X113000000Y-120500000D03*
X114000000Y-120500000D03*
X115000000Y-120500000D03*
X116000000Y-120500000D03*
X121000000Y-120500000D03*
X111500000Y-121500000D03*
X112500000Y-121500000D03*
X113500000Y-121500000D03*
X114500000Y-121500000D03*
X115500000Y-121500000D03*
X116500000Y-121500000D03*
X117500000Y-121500000D03*
X118500000Y-121500000D03*
X119500000Y-121500000D03*
X120500000Y-121500000D03*
X121800000Y-87000000D03*
X122800000Y-87000000D03*
X123800000Y-87000000D03*
X124800000Y-87000000D03*
X125800000Y-87000000D03*
X126800000Y-87000000D03*
X127800000Y-87000000D03*
X128800000Y-87000000D03*
X129800000Y-87000000D03*
X130800000Y-87000000D03*
X131800000Y-87000000D03*
X132800000Y-87000000D03*
X133800000Y-87000000D03*
X134800000Y-87000000D03*
X135800000Y-87000000D03*
X136800000Y-87000000D03*
X137800000Y-87000000D03*
X138800000Y-87000000D03*
X139800000Y-87000000D03*
X140800000Y-87000000D03*
X141800000Y-87000000D03*
X142800000Y-87000000D03*
X143800000Y-87000000D03*
X144800000Y-87000000D03*
X145800000Y-87000000D03*
X146800000Y-87000000D03*
X147800000Y-87000000D03*
X148800000Y-87000000D03*
X149800000Y-87000000D03*
X150800000Y-87000000D03*
X151800000Y-87000000D03*
X152800000Y-87000000D03*
X153800000Y-87000000D03*
X154800000Y-87000000D03*
X155800000Y-87000000D03*
X156800000Y-87000000D03*
X157800000Y-87000000D03*
X158800000Y-87000000D03*
X159800000Y-87000000D03*
X160800000Y-87000000D03*
X161800000Y-87000000D03*
X162800000Y-87000000D03*
X163800000Y-87000000D03*
X164800000Y-87000000D03*
X165800000Y-87000000D03*
X166800000Y-87000000D03*
X167800000Y-87000000D03*
X168800000Y-87000000D03*
X121800000Y-93800000D03*
X122800000Y-93800000D03*
X123800000Y-93800000D03*
X124800000Y-93800000D03*
X125800000Y-93800000D03*
X126800000Y-93800000D03*
X127800000Y-93800000D03*
X128800000Y-93800000D03*
X129800000Y-93800000D03*
X130800000Y-93800000D03*
X131800000Y-93800000D03*
X132800000Y-93800000D03*
X133800000Y-93800000D03*
X134800000Y-93800000D03*
X135800000Y-93800000D03*
X136800000Y-93800000D03*
X137800000Y-93800000D03*
X138800000Y-93800000D03*
X139800000Y-93800000D03*
X140800000Y-93800000D03*
X141800000Y-93800000D03*
X142800000Y-93800000D03*
X143800000Y-93800000D03*
X144800000Y-93800000D03*
X145800000Y-93800000D03*
X146800000Y-93800000D03*
X147800000Y-93800000D03*
X148800000Y-93800000D03*
X149800000Y-93800000D03*
X150800000Y-93800000D03*
X151800000Y-93800000D03*
X152800000Y-93800000D03*
X153800000Y-93800000D03*
X154800000Y-93800000D03*
X155800000Y-93800000D03*
X156800000Y-93800000D03*
X157800000Y-93800000D03*
X158800000Y-93800000D03*
X159800000Y-93800000D03*
X160800000Y-93800000D03*
X161800000Y-93800000D03*
X162800000Y-93800000D03*
X163800000Y-93800000D03*
X164800000Y-93800000D03*
X165800000Y-93800000D03*
X166800000Y-93800000D03*
X167800000Y-93800000D03*
X168800000Y-93800000D03*
X121900000Y-100800000D03*
X122900000Y-100800000D03*
X123900000Y-100800000D03*
X124900000Y-100800000D03*
X125900000Y-100800000D03*
X126900000Y-100800000D03*
X127900000Y-100800000D03*
X128900000Y-100800000D03*
X129900000Y-100800000D03*
X130900000Y-100800000D03*
X131900000Y-100800000D03*
X132900000Y-100800000D03*
X133900000Y-100800000D03*
X134900000Y-100800000D03*
X135900000Y-100800000D03*
X136900000Y-100800000D03*
X137900000Y-100800000D03*
X138900000Y-100800000D03*
X139900000Y-100800000D03*
X140900000Y-100800000D03*
X141900000Y-100800000D03*
X142900000Y-100800000D03*
X143900000Y-100800000D03*
X144900000Y-100800000D03*
X145900000Y-100800000D03*
X146900000Y-100800000D03*
X147900000Y-100800000D03*
X148900000Y-100800000D03*
X149900000Y-100800000D03*
X150900000Y-100800000D03*
X151900000Y-100800000D03*
X152900000Y-100800000D03*
X153900000Y-100800000D03*
X154900000Y-100800000D03*
X155900000Y-100800000D03*
X156900000Y-100800000D03*
X157900000Y-100800000D03*
X158900000Y-100800000D03*
X159900000Y-100800000D03*
X160900000Y-100800000D03*
X161900000Y-100800000D03*
X162900000Y-100800000D03*
X163900000Y-100800000D03*
X164900000Y-100800000D03*
X165900000Y-100800000D03*
X166900000Y-100800000D03*
X167900000Y-100800000D03*
X168900000Y-100800000D03*
X121900000Y-107900000D03*
X122900000Y-107900000D03*
X123900000Y-107900000D03*
X124900000Y-107900000D03*
X125900000Y-107900000D03*
X126900000Y-107900000D03*
X127900000Y-107900000D03*
X128900000Y-107900000D03*
X129900000Y-107900000D03*
X130900000Y-107900000D03*
X131900000Y-107900000D03*
X132900000Y-107900000D03*
X133900000Y-107900000D03*
X134900000Y-107900000D03*
X135900000Y-107900000D03*
X136900000Y-107900000D03*
X137900000Y-107900000D03*
X138900000Y-107900000D03*
X139900000Y-107900000D03*
X140900000Y-107900000D03*
X141900000Y-107900000D03*
X142900000Y-107900000D03*
X143900000Y-107900000D03*
X144900000Y-107900000D03*
X145900000Y-107900000D03*
X146900000Y-107900000D03*
X147900000Y-107900000D03*
X148900000Y-107900000D03*
X149900000Y-107900000D03*
X150900000Y-107900000D03*
X151900000Y-107900000D03*
X152900000Y-107900000D03*
X153900000Y-107900000D03*
X154900000Y-107900000D03*
X155900000Y-107900000D03*
X156900000Y-107900000D03*
X157900000Y-107900000D03*
X158900000Y-107900000D03*
X159900000Y-107900000D03*
X160900000Y-107900000D03*
X161900000Y-107900000D03*
X162900000Y-107900000D03*
X163900000Y-107900000D03*
X164900000Y-107900000D03*
X165900000Y-107900000D03*
X166900000Y-107900000D03*
X167900000Y-107900000D03*
X168900000Y-107900000D03*
X121900000Y-114600000D03*
X122900000Y-114600000D03*
X123900000Y-114600000D03*
X124900000Y-114600000D03*
X125900000Y-114600000D03*
X126900000Y-114600000D03*
X127900000Y-114600000D03*
X128900000Y-114600000D03*
X129900000Y-114600000D03*
X130900000Y-114600000D03*
X131900000Y-114600000D03*
X132900000Y-114600000D03*
X133900000Y-114600000D03*
X134900000Y-114600000D03*
X135900000Y-114600000D03*
X136900000Y-114600000D03*
X137900000Y-114600000D03*
X138900000Y-114600000D03*
X139900000Y-114600000D03*
X140900000Y-114600000D03*
X141900000Y-114600000D03*
X142900000Y-114600000D03*
X143900000Y-114600000D03*
X144900000Y-114600000D03*
X145900000Y-114600000D03*
X146900000Y-114600000D03*
X147900000Y-114600000D03*
X148900000Y-114600000D03*
X149900000Y-114600000D03*
X150900000Y-114600000D03*
X151900000Y-114600000D03*
X152900000Y-114600000D03*
X153900000Y-114600000D03*
X154900000Y-114600000D03*
X155900000Y-114600000D03*
X156900000Y-114600000D03*
X157900000Y-114600000D03*
X158900000Y-114600000D03*
X159900000Y-114600000D03*
X160900000Y-114600000D03*
X161900000Y-114600000D03*
X162900000Y-114600000D03*
X163900000Y-114600000D03*
X164900000Y-114600000D03*
X165900000Y-114600000D03*
X166900000Y-114600000D03*
X167900000Y-114600000D03*
X168900000Y-114600000D03*
X121900000Y-121400000D03*
X122900000Y-121400000D03*
X123900000Y-121400000D03*
X124900000Y-121400000D03*
X125900000Y-121400000D03*
X126900000Y-121400000D03*
X127900000Y-121400000D03*
X128900000Y-121400000D03*
X129900000Y-121400000D03*
X130900000Y-121400000D03*
X131900000Y-121400000D03*
X132900000Y-121400000D03*
X133900000Y-121400000D03*
X134900000Y-121400000D03*
X135900000Y-121400000D03*
X136900000Y-121400000D03*
X137900000Y-121400000D03*
X138900000Y-121400000D03*
X139900000Y-121400000D03*
X140900000Y-121400000D03*
X141900000Y-121400000D03*
X142900000Y-121400000D03*
X143900000Y-121400000D03*
X144900000Y-121400000D03*
X145900000Y-121400000D03*
X146900000Y-121400000D03*
X147900000Y-121400000D03*
X148900000Y-121400000D03*
X149900000Y-121400000D03*
X150900000Y-121400000D03*
X151900000Y-121400000D03*
X152900000Y-121400000D03*
X153900000Y-121400000D03*
X154900000Y-121400000D03*
X155900000Y-121400000D03*
X156900000Y-121400000D03*
X157900000Y-121400000D03*
X158900000Y-121400000D03*
X159900000Y-121400000D03*
X160900000Y-121400000D03*
X161900000Y-121400000D03*
X162900000Y-121400000D03*
X163900000Y-121400000D03*
X164900000Y-121400000D03*
X165900000Y-121400000D03*
X166900000Y-121400000D03*
X167900000Y-121400000D03*
X168900000Y-121400000D03*
X184500000Y-81500000D03*
X183500000Y-81500000D03*
X182500000Y-81500000D03*
X181500000Y-81500000D03*
X180500000Y-81500000D03*
X179500000Y-81500000D03*
X178500000Y-81500000D03*
X177500000Y-81500000D03*
X176500000Y-81500000D03*
X175500000Y-81500000D03*
X184000000Y-82500000D03*
X183000000Y-82500000D03*
X182000000Y-82500000D03*
X181000000Y-82500000D03*
X175000000Y-82500000D03*
X184500000Y-83500000D03*
X183500000Y-83500000D03*
X182500000Y-83500000D03*
X181500000Y-83500000D03*
X180500000Y-83500000D03*
X184000000Y-84500000D03*
X183000000Y-84500000D03*
X182000000Y-84500000D03*
X181000000Y-84500000D03*
X175000000Y-84500000D03*
X184500000Y-85500000D03*
X183500000Y-85500000D03*
X182500000Y-85500000D03*
X181500000Y-85500000D03*
X180500000Y-85500000D03*
X184000000Y-86500000D03*
X183000000Y-86500000D03*
X182000000Y-86500000D03*
X181000000Y-86500000D03*
X180000000Y-86500000D03*
X179000000Y-86500000D03*
X178000000Y-86500000D03*
X177000000Y-86500000D03*
X176000000Y-86500000D03*
X175000000Y-86500000D03*
X184500000Y-87500000D03*
X183500000Y-87500000D03*
X182500000Y-87500000D03*
X181500000Y-87500000D03*
X180500000Y-87500000D03*
X179500000Y-87500000D03*
X178500000Y-87500000D03*
X177500000Y-87500000D03*
X176500000Y-87500000D03*
X175500000Y-87500000D03*
X184000000Y-88500000D03*
X183000000Y-88500000D03*
X182000000Y-88500000D03*
X181000000Y-88500000D03*
X180000000Y-88500000D03*
X179000000Y-88500000D03*
X178000000Y-88500000D03*
X177000000Y-88500000D03*
X176000000Y-88500000D03*
X175000000Y-88500000D03*
X184500000Y-89500000D03*
X183500000Y-89500000D03*
X182500000Y-89500000D03*
X181500000Y-89500000D03*
X180500000Y-89500000D03*
X179500000Y-89500000D03*
X178500000Y-89500000D03*
X177500000Y-89500000D03*
X176500000Y-89500000D03*
X175500000Y-89500000D03*
X184000000Y-90500000D03*
X183000000Y-90500000D03*
X182000000Y-90500000D03*
X181000000Y-90500000D03*
X180000000Y-90500000D03*
X179000000Y-90500000D03*
X178000000Y-90500000D03*
X177000000Y-90500000D03*
X176000000Y-90500000D03*
X175000000Y-90500000D03*
X184500000Y-91500000D03*
X183500000Y-91500000D03*
X182500000Y-91500000D03*
X181500000Y-91500000D03*
X180500000Y-91500000D03*
X179500000Y-91500000D03*
X178500000Y-91500000D03*
X177500000Y-91500000D03*
X176500000Y-91500000D03*
X175500000Y-91500000D03*
X184000000Y-92500000D03*
X183000000Y-92500000D03*
X182000000Y-92500000D03*
X181000000Y-92500000D03*
X180000000Y-92500000D03*
X179000000Y-92500000D03*
X178000000Y-92500000D03*
X177000000Y-92500000D03*
X176000000Y-92500000D03*
X175000000Y-92500000D03*
X184500000Y-93500000D03*
X183500000Y-93500000D03*
X182500000Y-93500000D03*
X181500000Y-93500000D03*
X180500000Y-93500000D03*
X184000000Y-94500000D03*
X183000000Y-94500000D03*
X182000000Y-94500000D03*
X181000000Y-94500000D03*
X180000000Y-94500000D03*
X175000000Y-94500000D03*
X184500000Y-95500000D03*
X183500000Y-95500000D03*
X182500000Y-95500000D03*
X181500000Y-95500000D03*
X180500000Y-95500000D03*
X184000000Y-96500000D03*
X183000000Y-96500000D03*
X182000000Y-96500000D03*
X181000000Y-96500000D03*
X180000000Y-96500000D03*
X175000000Y-96500000D03*
X184500000Y-97500000D03*
X183500000Y-97500000D03*
X182500000Y-97500000D03*
X181500000Y-97500000D03*
X180500000Y-97500000D03*
X184000000Y-98500000D03*
X183000000Y-98500000D03*
X182000000Y-98500000D03*
X181000000Y-98500000D03*
X180000000Y-98500000D03*
X179000000Y-98500000D03*
X178000000Y-98500000D03*
X177000000Y-98500000D03*
X176000000Y-98500000D03*
X175000000Y-98500000D03*
X184500000Y-99500000D03*
X183500000Y-99500000D03*
X182500000Y-99500000D03*
X181500000Y-99500000D03*
X180500000Y-99500000D03*
X179500000Y-99500000D03*
X178500000Y-99500000D03*
X177500000Y-99500000D03*
X176500000Y-99500000D03*
X175500000Y-99500000D03*
X184000000Y-100500000D03*
X183000000Y-100500000D03*
X182000000Y-100500000D03*
X181000000Y-100500000D03*
X180000000Y-100500000D03*
X179000000Y-100500000D03*
X178000000Y-100500000D03*
X177000000Y-100500000D03*
X176000000Y-100500000D03*
X175000000Y-100500000D03*
X184500000Y-101500000D03*
X183500000Y-101500000D03*
X182500000Y-101500000D03*
X181500000Y-101500000D03*
X180500000Y-101500000D03*
X179500000Y-101500000D03*
X178500000Y-101500000D03*
X177500000Y-101500000D03*
X176500000Y-101500000D03*
X175500000Y-101500000D03*
X184000000Y-102500000D03*
X183000000Y-102500000D03*
X182000000Y-102500000D03*
X181000000Y-102500000D03*
X180000000Y-102500000D03*
X179000000Y-102500000D03*
X178000000Y-102500000D03*
X177000000Y-102500000D03*
X176000000Y-102500000D03*
X175000000Y-102500000D03*
X184500000Y-103500000D03*
X183500000Y-103500000D03*
X182500000Y-103500000D03*
X181500000Y-103500000D03*
X180500000Y-103500000D03*
X179500000Y-103500000D03*
X178500000Y-103500000D03*
X177500000Y-103500000D03*
X176500000Y-103500000D03*
X175500000Y-103500000D03*
X184000000Y-104500000D03*
X183000000Y-104500000D03*
X182000000Y-104500000D03*
X181000000Y-104500000D03*
X180000000Y-104500000D03*
X179000000Y-104500000D03*
X178000000Y-104500000D03*
X177000000Y-104500000D03*
X176000000Y-104500000D03*
X175000000Y-104500000D03*
X184500000Y-105500000D03*
X183500000Y-105500000D03*
X182500000Y-105500000D03*
X181500000Y-105500000D03*
X180500000Y-105500000D03*
X179500000Y-105500000D03*
X184000000Y-106500000D03*
X183000000Y-106500000D03*
X182000000Y-106500000D03*
X181000000Y-106500000D03*
X180000000Y-106500000D03*
X175000000Y-106500000D03*
X184500000Y-107500000D03*
X183500000Y-107500000D03*
X182500000Y-107500000D03*
X181500000Y-107500000D03*
X180500000Y-107500000D03*
X184000000Y-108500000D03*
X183000000Y-108500000D03*
X182000000Y-108500000D03*
X181000000Y-108500000D03*
X180000000Y-108500000D03*
X175000000Y-108500000D03*
X184500000Y-109500000D03*
X183500000Y-109500000D03*
X182500000Y-109500000D03*
X181500000Y-109500000D03*
X180500000Y-109500000D03*
X179500000Y-109500000D03*
X184000000Y-110500000D03*
X183000000Y-110500000D03*
X182000000Y-110500000D03*
X181000000Y-110500000D03*
X180000000Y-110500000D03*
X179000000Y-110500000D03*
X178000000Y-110500000D03*
X177000000Y-110500000D03*
X176000000Y-110500000D03*
X175000000Y-110500000D03*
X184500000Y-111500000D03*
X183500000Y-111500000D03*
X182500000Y-111500000D03*
X181500000Y-111500000D03*
X180500000Y-111500000D03*
X179500000Y-111500000D03*
X178500000Y-111500000D03*
X177500000Y-111500000D03*
X176500000Y-111500000D03*
X175500000Y-111500000D03*
X184000000Y-112500000D03*
X183000000Y-112500000D03*
X182000000Y-112500000D03*
X181000000Y-112500000D03*
X180000000Y-112500000D03*
X179000000Y-112500000D03*
X178000000Y-112500000D03*
X177000000Y-112500000D03*
X176000000Y-112500000D03*
X175000000Y-112500000D03*
X184500000Y-113500000D03*
X183500000Y-113500000D03*
X182500000Y-113500000D03*
X181500000Y-113500000D03*
X180500000Y-113500000D03*
X179500000Y-113500000D03*
X178500000Y-113500000D03*
X177500000Y-113500000D03*
X176500000Y-113500000D03*
X175500000Y-113500000D03*
X184000000Y-114500000D03*
X183000000Y-114500000D03*
X182000000Y-114500000D03*
X181000000Y-114500000D03*
X180000000Y-114500000D03*
X179000000Y-114500000D03*
X178000000Y-114500000D03*
X177000000Y-114500000D03*
X176000000Y-114500000D03*
X175000000Y-114500000D03*
X184500000Y-115500000D03*
X183500000Y-115500000D03*
X182500000Y-115500000D03*
X181500000Y-115500000D03*
X180500000Y-115500000D03*
X179500000Y-115500000D03*
X178500000Y-115500000D03*
X177500000Y-115500000D03*
X176500000Y-115500000D03*
X175500000Y-115500000D03*
X184000000Y-116500000D03*
X183000000Y-116500000D03*
X182000000Y-116500000D03*
X181000000Y-116500000D03*
X180000000Y-116500000D03*
X179000000Y-116500000D03*
X178000000Y-116500000D03*
X177000000Y-116500000D03*
X176000000Y-116500000D03*
X175000000Y-116500000D03*
X184500000Y-117500000D03*
X183500000Y-117500000D03*
X182500000Y-117500000D03*
X181500000Y-117500000D03*
X180500000Y-117500000D03*
X184000000Y-118500000D03*
X183000000Y-118500000D03*
X182000000Y-118500000D03*
X181000000Y-118500000D03*
X175000000Y-118500000D03*
X184500000Y-119500000D03*
X183500000Y-119500000D03*
X182500000Y-119500000D03*
X181500000Y-119500000D03*
X180500000Y-119500000D03*
X184000000Y-120500000D03*
X183000000Y-120500000D03*
X182000000Y-120500000D03*
X181000000Y-120500000D03*
X180000000Y-120500000D03*
X175000000Y-120500000D03*
X184500000Y-121500000D03*
X183500000Y-121500000D03*
X182500000Y-121500000D03*
X181500000Y-121500000D03*
X180500000Y-121500000D03*
X179500000Y-121500000D03*
X178500000Y-121500000D03*
X177500000Y-121500000D03*
X176500000Y-121500000D03*
X175500000Y-121500000D03*
X180000000Y-118500000D03*
X174500000Y-81500000D03*
X173500000Y-81500000D03*
X172500000Y-81500000D03*
X171500000Y-81500000D03*
X170500000Y-81500000D03*
X169500000Y-81500000D03*
X168500000Y-81500000D03*
X167500000Y-81500000D03*
X166500000Y-81500000D03*
X165500000Y-81500000D03*
X164500000Y-81500000D03*
X163500000Y-81500000D03*
X162500000Y-81500000D03*
X161500000Y-81500000D03*
X160500000Y-81500000D03*
X159500000Y-81500000D03*
X158500000Y-81500000D03*
X157500000Y-81500000D03*
X156500000Y-81500000D03*
X155500000Y-81500000D03*
X154500000Y-81500000D03*
X153500000Y-81500000D03*
X152500000Y-81500000D03*
X151500000Y-81500000D03*
X150500000Y-81500000D03*
X149500000Y-81500000D03*
X148500000Y-81500000D03*
X147500000Y-81500000D03*
X146500000Y-81500000D03*
X145500000Y-81500000D03*
X144500000Y-81500000D03*
X143500000Y-81500000D03*
X142500000Y-81500000D03*
X141500000Y-81500000D03*
X140500000Y-81500000D03*
X139500000Y-81500000D03*
X138500000Y-81500000D03*
X137500000Y-81500000D03*
X136500000Y-81500000D03*
X135500000Y-81500000D03*
X134500000Y-81500000D03*
X133500000Y-81500000D03*
X132500000Y-81500000D03*
X131500000Y-81500000D03*
X130500000Y-81500000D03*
X129500000Y-81500000D03*
X128500000Y-81500000D03*
X127500000Y-81500000D03*
X174000000Y-88500000D03*
X173000000Y-88500000D03*
X172000000Y-88500000D03*
X171000000Y-88500000D03*
X170000000Y-88500000D03*
X169000000Y-88500000D03*
X168000000Y-88500000D03*
X167000000Y-88500000D03*
X166000000Y-88500000D03*
X165000000Y-88500000D03*
X164000000Y-88500000D03*
X163000000Y-88500000D03*
X162000000Y-88500000D03*
X161000000Y-88500000D03*
X160000000Y-88500000D03*
X159000000Y-88500000D03*
X158000000Y-88500000D03*
X157000000Y-88500000D03*
X156000000Y-88500000D03*
X155000000Y-88500000D03*
X154000000Y-88500000D03*
X153000000Y-88500000D03*
X152000000Y-88500000D03*
X151000000Y-88500000D03*
X150000000Y-88500000D03*
X149000000Y-88500000D03*
X148000000Y-88500000D03*
X147000000Y-88500000D03*
X146000000Y-88500000D03*
X145000000Y-88500000D03*
X144000000Y-88500000D03*
X143000000Y-88500000D03*
X142000000Y-88500000D03*
X141000000Y-88500000D03*
X140000000Y-88500000D03*
X139000000Y-88500000D03*
X138000000Y-88500000D03*
X137000000Y-88500000D03*
X136000000Y-88500000D03*
X135000000Y-88500000D03*
X134000000Y-88500000D03*
X133000000Y-88500000D03*
X132000000Y-88500000D03*
X131000000Y-88500000D03*
X130000000Y-88500000D03*
X129000000Y-88500000D03*
X128000000Y-88500000D03*
X127000000Y-88500000D03*
X174000000Y-95300000D03*
X173000000Y-95300000D03*
X172000000Y-95300000D03*
X171000000Y-95300000D03*
X170000000Y-95300000D03*
X169000000Y-95300000D03*
X168000000Y-95300000D03*
X167000000Y-95300000D03*
X166000000Y-95300000D03*
X165000000Y-95300000D03*
X164000000Y-95300000D03*
X163000000Y-95300000D03*
X162000000Y-95300000D03*
X161000000Y-95300000D03*
X160000000Y-95300000D03*
X159000000Y-95300000D03*
X158000000Y-95300000D03*
X157000000Y-95300000D03*
X156000000Y-95300000D03*
X155000000Y-95300000D03*
X154000000Y-95300000D03*
X153000000Y-95300000D03*
X152000000Y-95300000D03*
X151000000Y-95300000D03*
X150000000Y-95300000D03*
X149000000Y-95300000D03*
X148000000Y-95300000D03*
X147000000Y-95300000D03*
X146000000Y-95300000D03*
X145000000Y-95300000D03*
X144000000Y-95300000D03*
X143000000Y-95300000D03*
X142000000Y-95300000D03*
X141000000Y-95300000D03*
X140000000Y-95300000D03*
X139000000Y-95300000D03*
X138000000Y-95300000D03*
X137000000Y-95300000D03*
X136000000Y-95300000D03*
X135000000Y-95300000D03*
X134000000Y-95300000D03*
X133000000Y-95300000D03*
X132000000Y-95300000D03*
X131000000Y-95300000D03*
X130000000Y-95300000D03*
X129000000Y-95300000D03*
X128000000Y-95300000D03*
X127000000Y-95300000D03*
X174000000Y-102200000D03*
X173000000Y-102200000D03*
X172000000Y-102200000D03*
X171000000Y-102200000D03*
X170000000Y-102200000D03*
X169000000Y-102200000D03*
X168000000Y-102200000D03*
X167000000Y-102200000D03*
X166000000Y-102200000D03*
X165000000Y-102200000D03*
X164000000Y-102200000D03*
X163000000Y-102200000D03*
X162000000Y-102200000D03*
X161000000Y-102200000D03*
X160000000Y-102200000D03*
X159000000Y-102200000D03*
X158000000Y-102200000D03*
X157000000Y-102200000D03*
X156000000Y-102200000D03*
X155000000Y-102200000D03*
X154000000Y-102200000D03*
X153000000Y-102200000D03*
X152000000Y-102200000D03*
X151000000Y-102200000D03*
X150000000Y-102200000D03*
X149000000Y-102200000D03*
X148000000Y-102200000D03*
X147000000Y-102200000D03*
X146000000Y-102200000D03*
X145000000Y-102200000D03*
X144000000Y-102200000D03*
X143000000Y-102200000D03*
X142000000Y-102200000D03*
X141000000Y-102200000D03*
X140000000Y-102200000D03*
X139000000Y-102200000D03*
X138000000Y-102200000D03*
X137000000Y-102200000D03*
X136000000Y-102200000D03*
X135000000Y-102200000D03*
X134000000Y-102200000D03*
X133000000Y-102200000D03*
X132000000Y-102200000D03*
X131000000Y-102200000D03*
X130000000Y-102200000D03*
X129000000Y-102200000D03*
X128000000Y-102200000D03*
X127000000Y-102200000D03*
X174000000Y-109200000D03*
X173000000Y-109200000D03*
X172000000Y-109200000D03*
X171000000Y-109200000D03*
X170000000Y-109200000D03*
X169000000Y-109200000D03*
X168000000Y-109200000D03*
X167000000Y-109200000D03*
X166000000Y-109200000D03*
X165000000Y-109200000D03*
X164000000Y-109200000D03*
X163000000Y-109200000D03*
X162000000Y-109200000D03*
X161000000Y-109200000D03*
X160000000Y-109200000D03*
X159000000Y-109200000D03*
X158000000Y-109200000D03*
X157000000Y-109200000D03*
X156000000Y-109200000D03*
X155000000Y-109200000D03*
X154000000Y-109200000D03*
X153000000Y-109200000D03*
X152000000Y-109200000D03*
X151000000Y-109200000D03*
X150000000Y-109200000D03*
X149000000Y-109200000D03*
X148000000Y-109200000D03*
X147000000Y-109200000D03*
X146000000Y-109200000D03*
X145000000Y-109200000D03*
X144000000Y-109200000D03*
X143000000Y-109200000D03*
X142000000Y-109200000D03*
X141000000Y-109200000D03*
X140000000Y-109200000D03*
X139000000Y-109200000D03*
X138000000Y-109200000D03*
X137000000Y-109200000D03*
X136000000Y-109200000D03*
X135000000Y-109200000D03*
X134000000Y-109200000D03*
X133000000Y-109200000D03*
X132000000Y-109200000D03*
X131000000Y-109200000D03*
X130000000Y-109200000D03*
X129000000Y-109200000D03*
X128000000Y-109200000D03*
X127000000Y-109200000D03*
X174000000Y-115900000D03*
X173000000Y-115900000D03*
X172000000Y-115900000D03*
X171000000Y-115900000D03*
X170000000Y-115900000D03*
X169000000Y-115900000D03*
X168000000Y-115900000D03*
X167000000Y-115900000D03*
X166000000Y-115900000D03*
X165000000Y-115900000D03*
X164000000Y-115900000D03*
X163000000Y-115900000D03*
X162000000Y-115900000D03*
X161000000Y-115900000D03*
X160000000Y-115900000D03*
X159000000Y-115900000D03*
X158000000Y-115900000D03*
X157000000Y-115900000D03*
X156000000Y-115900000D03*
X155000000Y-115900000D03*
X154000000Y-115900000D03*
X153000000Y-115900000D03*
X152000000Y-115900000D03*
X151000000Y-115900000D03*
X150000000Y-115900000D03*
X149000000Y-115900000D03*
X148000000Y-115900000D03*
X147000000Y-115900000D03*
X146000000Y-115900000D03*
X145000000Y-115900000D03*
X144000000Y-115900000D03*
X143000000Y-115900000D03*
X142000000Y-115900000D03*
X141000000Y-115900000D03*
X140000000Y-115900000D03*
X139000000Y-115900000D03*
X138000000Y-115900000D03*
X137000000Y-115900000D03*
X136000000Y-115900000D03*
X135000000Y-115900000D03*
X134000000Y-115900000D03*
X133000000Y-115900000D03*
X132000000Y-115900000D03*
X131000000Y-115900000D03*
X130000000Y-115900000D03*
X129000000Y-115900000D03*
X128000000Y-115900000D03*
X127000000Y-115900000D03*
D11*
X125873000Y-84500000D02*
X125875440Y-84524776D01*
X125882667Y-84548601D01*
X125894403Y-84570557D01*
X125910197Y-84589803D01*
X125929443Y-84605597D01*
X125951399Y-84617333D01*
X125975224Y-84624560D01*
X126000000Y-84627000D01*
X169273000Y-84627000D01*
X169273000Y-87273000D01*
X126000000Y-87273000D01*
X125975224Y-87275440D01*
X125951399Y-87282667D01*
X125929443Y-87294403D01*
X125910197Y-87310197D01*
X125894403Y-87329443D01*
X125882667Y-87351399D01*
X125875440Y-87375224D01*
X125873000Y-87400000D01*
X125873000Y-91200000D01*
X125875440Y-91224776D01*
X125882667Y-91248601D01*
X125894403Y-91270557D01*
X125910197Y-91289803D01*
X125929443Y-91305597D01*
X125951399Y-91317333D01*
X125975224Y-91324560D01*
X125999598Y-91326999D01*
X169273000Y-91464098D01*
X169273000Y-94135390D01*
X126000110Y-94098000D01*
X125975331Y-94100419D01*
X125951501Y-94107625D01*
X125929534Y-94119342D01*
X125910275Y-94135120D01*
X125894464Y-94154351D01*
X125882709Y-94176298D01*
X125875462Y-94200116D01*
X125873000Y-94225000D01*
X125873000Y-98300000D01*
X125875440Y-98324776D01*
X125882667Y-98348601D01*
X125894403Y-98370557D01*
X125910197Y-98389803D01*
X125929443Y-98405597D01*
X125951399Y-98417333D01*
X125975224Y-98424560D01*
X126000000Y-98427000D01*
X169273000Y-98427000D01*
X169273000Y-101073000D01*
X126000000Y-101073000D01*
X125975224Y-101075440D01*
X125951399Y-101082667D01*
X125929443Y-101094403D01*
X125910197Y-101110197D01*
X125894403Y-101129443D01*
X125882667Y-101151399D01*
X125875440Y-101175224D01*
X125873000Y-101200000D01*
X125873000Y-105423750D01*
X125875440Y-105448526D01*
X125882667Y-105472351D01*
X125894403Y-105494307D01*
X125910197Y-105513553D01*
X125929443Y-105529347D01*
X125951399Y-105541083D01*
X125975224Y-105548310D01*
X126000104Y-105550750D01*
X169273000Y-105515229D01*
X169273000Y-108084888D01*
X125999987Y-108089250D01*
X125975211Y-108091693D01*
X125951387Y-108098922D01*
X125929432Y-108110660D01*
X125910188Y-108126456D01*
X125894396Y-108145703D01*
X125882662Y-108167661D01*
X125875438Y-108191486D01*
X125873000Y-108216250D01*
X125873000Y-111883750D01*
X125875440Y-111908526D01*
X125882667Y-111932351D01*
X125894403Y-111954307D01*
X125910197Y-111973553D01*
X125929443Y-111989347D01*
X125951399Y-112001083D01*
X125975224Y-112008310D01*
X125999952Y-112010750D01*
X169273000Y-112026952D01*
X169273000Y-114772854D01*
X125950146Y-114723000D01*
X125925367Y-114725412D01*
X125901534Y-114732611D01*
X125879564Y-114744322D01*
X125860301Y-114760094D01*
X125844485Y-114779321D01*
X125832723Y-114801264D01*
X125825469Y-114825080D01*
X125823000Y-114850000D01*
X125823000Y-118750000D01*
X125825440Y-118774776D01*
X125832667Y-118798601D01*
X125844403Y-118820557D01*
X125860197Y-118839803D01*
X125879443Y-118855597D01*
X125901399Y-118867333D01*
X125925224Y-118874560D01*
X125949836Y-118877000D01*
X169273000Y-118933086D01*
X169273000Y-121840000D01*
X111160000Y-121840000D01*
X111160000Y-118779872D01*
X116265000Y-118779872D01*
X116265000Y-119220128D01*
X116350890Y-119651925D01*
X116519369Y-120058669D01*
X116763962Y-120424729D01*
X117075271Y-120736038D01*
X117441331Y-120980631D01*
X117848075Y-121149110D01*
X118279872Y-121235000D01*
X118720128Y-121235000D01*
X119151925Y-121149110D01*
X119558669Y-120980631D01*
X119924729Y-120736038D01*
X120236038Y-120424729D01*
X120480631Y-120058669D01*
X120649110Y-119651925D01*
X120735000Y-119220128D01*
X120735000Y-118779872D01*
X120649110Y-118348075D01*
X120480631Y-117941331D01*
X120236038Y-117575271D01*
X119924729Y-117263962D01*
X119558669Y-117019369D01*
X119151925Y-116850890D01*
X118720128Y-116765000D01*
X118279872Y-116765000D01*
X117848075Y-116850890D01*
X117441331Y-117019369D01*
X117075271Y-117263962D01*
X116763962Y-117575271D01*
X116519369Y-117941331D01*
X116350890Y-118348075D01*
X116265000Y-118779872D01*
X111160000Y-118779872D01*
X111160000Y-107113204D01*
X116265000Y-107113204D01*
X116265000Y-107553460D01*
X116350890Y-107985257D01*
X116519369Y-108392001D01*
X116763962Y-108758061D01*
X117075271Y-109069370D01*
X117441331Y-109313963D01*
X117848075Y-109482442D01*
X118279872Y-109568332D01*
X118720128Y-109568332D01*
X119151925Y-109482442D01*
X119558669Y-109313963D01*
X119924729Y-109069370D01*
X120236038Y-108758061D01*
X120480631Y-108392001D01*
X120649110Y-107985257D01*
X120735000Y-107553460D01*
X120735000Y-107113204D01*
X120649110Y-106681407D01*
X120480631Y-106274663D01*
X120236038Y-105908603D01*
X119924729Y-105597294D01*
X119558669Y-105352701D01*
X119151925Y-105184222D01*
X118720128Y-105098332D01*
X118279872Y-105098332D01*
X117848075Y-105184222D01*
X117441331Y-105352701D01*
X117075271Y-105597294D01*
X116763962Y-105908603D01*
X116519369Y-106274663D01*
X116350890Y-106681407D01*
X116265000Y-107113204D01*
X111160000Y-107113204D01*
X111160000Y-95446538D01*
X116265000Y-95446538D01*
X116265000Y-95886794D01*
X116350890Y-96318591D01*
X116519369Y-96725335D01*
X116763962Y-97091395D01*
X117075271Y-97402704D01*
X117441331Y-97647297D01*
X117848075Y-97815776D01*
X118279872Y-97901666D01*
X118720128Y-97901666D01*
X119151925Y-97815776D01*
X119558669Y-97647297D01*
X119924729Y-97402704D01*
X120236038Y-97091395D01*
X120480631Y-96725335D01*
X120649110Y-96318591D01*
X120735000Y-95886794D01*
X120735000Y-95446538D01*
X120649110Y-95014741D01*
X120480631Y-94607997D01*
X120236038Y-94241937D01*
X119924729Y-93930628D01*
X119558669Y-93686035D01*
X119151925Y-93517556D01*
X118720128Y-93431666D01*
X118279872Y-93431666D01*
X117848075Y-93517556D01*
X117441331Y-93686035D01*
X117075271Y-93930628D01*
X116763962Y-94241937D01*
X116519369Y-94607997D01*
X116350890Y-95014741D01*
X116265000Y-95446538D01*
X111160000Y-95446538D01*
X111160000Y-83779872D01*
X116265000Y-83779872D01*
X116265000Y-84220128D01*
X116350890Y-84651925D01*
X116519369Y-85058669D01*
X116763962Y-85424729D01*
X117075271Y-85736038D01*
X117441331Y-85980631D01*
X117848075Y-86149110D01*
X118279872Y-86235000D01*
X118720128Y-86235000D01*
X119151925Y-86149110D01*
X119558669Y-85980631D01*
X119924729Y-85736038D01*
X120236038Y-85424729D01*
X120480631Y-85058669D01*
X120649110Y-84651925D01*
X120735000Y-84220128D01*
X120735000Y-83779872D01*
X120649110Y-83348075D01*
X120480631Y-82941331D01*
X120236038Y-82575271D01*
X119924729Y-82263962D01*
X119558669Y-82019369D01*
X119151925Y-81850890D01*
X118720128Y-81765000D01*
X118279872Y-81765000D01*
X117848075Y-81850890D01*
X117441331Y-82019369D01*
X117075271Y-82263962D01*
X116763962Y-82575271D01*
X116519369Y-82941331D01*
X116350890Y-83348075D01*
X116265000Y-83779872D01*
X111160000Y-83779872D01*
X111160000Y-81160000D01*
X125873000Y-81160000D01*
X125873000Y-84500000D01*
G04 #@! TA.AperFunction,Conductor*
D12*
G36*
X125873000Y-84500000D02*
G01*
X125875440Y-84524776D01*
X125882667Y-84548601D01*
X125894403Y-84570557D01*
X125910197Y-84589803D01*
X125929443Y-84605597D01*
X125951399Y-84617333D01*
X125975224Y-84624560D01*
X126000000Y-84627000D01*
X169273000Y-84627000D01*
X169273000Y-87273000D01*
X126000000Y-87273000D01*
X125975224Y-87275440D01*
X125951399Y-87282667D01*
X125929443Y-87294403D01*
X125910197Y-87310197D01*
X125894403Y-87329443D01*
X125882667Y-87351399D01*
X125875440Y-87375224D01*
X125873000Y-87400000D01*
X125873000Y-91200000D01*
X125875440Y-91224776D01*
X125882667Y-91248601D01*
X125894403Y-91270557D01*
X125910197Y-91289803D01*
X125929443Y-91305597D01*
X125951399Y-91317333D01*
X125975224Y-91324560D01*
X125999598Y-91326999D01*
X169273000Y-91464098D01*
X169273000Y-94135390D01*
X126000110Y-94098000D01*
X125975331Y-94100419D01*
X125951501Y-94107625D01*
X125929534Y-94119342D01*
X125910275Y-94135120D01*
X125894464Y-94154351D01*
X125882709Y-94176298D01*
X125875462Y-94200116D01*
X125873000Y-94225000D01*
X125873000Y-98300000D01*
X125875440Y-98324776D01*
X125882667Y-98348601D01*
X125894403Y-98370557D01*
X125910197Y-98389803D01*
X125929443Y-98405597D01*
X125951399Y-98417333D01*
X125975224Y-98424560D01*
X126000000Y-98427000D01*
X169273000Y-98427000D01*
X169273000Y-101073000D01*
X126000000Y-101073000D01*
X125975224Y-101075440D01*
X125951399Y-101082667D01*
X125929443Y-101094403D01*
X125910197Y-101110197D01*
X125894403Y-101129443D01*
X125882667Y-101151399D01*
X125875440Y-101175224D01*
X125873000Y-101200000D01*
X125873000Y-105423750D01*
X125875440Y-105448526D01*
X125882667Y-105472351D01*
X125894403Y-105494307D01*
X125910197Y-105513553D01*
X125929443Y-105529347D01*
X125951399Y-105541083D01*
X125975224Y-105548310D01*
X126000104Y-105550750D01*
X169273000Y-105515229D01*
X169273000Y-108084888D01*
X125999987Y-108089250D01*
X125975211Y-108091693D01*
X125951387Y-108098922D01*
X125929432Y-108110660D01*
X125910188Y-108126456D01*
X125894396Y-108145703D01*
X125882662Y-108167661D01*
X125875438Y-108191486D01*
X125873000Y-108216250D01*
X125873000Y-111883750D01*
X125875440Y-111908526D01*
X125882667Y-111932351D01*
X125894403Y-111954307D01*
X125910197Y-111973553D01*
X125929443Y-111989347D01*
X125951399Y-112001083D01*
X125975224Y-112008310D01*
X125999952Y-112010750D01*
X169273000Y-112026952D01*
X169273000Y-114772854D01*
X125950146Y-114723000D01*
X125925367Y-114725412D01*
X125901534Y-114732611D01*
X125879564Y-114744322D01*
X125860301Y-114760094D01*
X125844485Y-114779321D01*
X125832723Y-114801264D01*
X125825469Y-114825080D01*
X125823000Y-114850000D01*
X125823000Y-118750000D01*
X125825440Y-118774776D01*
X125832667Y-118798601D01*
X125844403Y-118820557D01*
X125860197Y-118839803D01*
X125879443Y-118855597D01*
X125901399Y-118867333D01*
X125925224Y-118874560D01*
X125949836Y-118877000D01*
X169273000Y-118933086D01*
X169273000Y-121840000D01*
X111160000Y-121840000D01*
X111160000Y-118779872D01*
X116265000Y-118779872D01*
X116265000Y-119220128D01*
X116350890Y-119651925D01*
X116519369Y-120058669D01*
X116763962Y-120424729D01*
X117075271Y-120736038D01*
X117441331Y-120980631D01*
X117848075Y-121149110D01*
X118279872Y-121235000D01*
X118720128Y-121235000D01*
X119151925Y-121149110D01*
X119558669Y-120980631D01*
X119924729Y-120736038D01*
X120236038Y-120424729D01*
X120480631Y-120058669D01*
X120649110Y-119651925D01*
X120735000Y-119220128D01*
X120735000Y-118779872D01*
X120649110Y-118348075D01*
X120480631Y-117941331D01*
X120236038Y-117575271D01*
X119924729Y-117263962D01*
X119558669Y-117019369D01*
X119151925Y-116850890D01*
X118720128Y-116765000D01*
X118279872Y-116765000D01*
X117848075Y-116850890D01*
X117441331Y-117019369D01*
X117075271Y-117263962D01*
X116763962Y-117575271D01*
X116519369Y-117941331D01*
X116350890Y-118348075D01*
X116265000Y-118779872D01*
X111160000Y-118779872D01*
X111160000Y-107113204D01*
X116265000Y-107113204D01*
X116265000Y-107553460D01*
X116350890Y-107985257D01*
X116519369Y-108392001D01*
X116763962Y-108758061D01*
X117075271Y-109069370D01*
X117441331Y-109313963D01*
X117848075Y-109482442D01*
X118279872Y-109568332D01*
X118720128Y-109568332D01*
X119151925Y-109482442D01*
X119558669Y-109313963D01*
X119924729Y-109069370D01*
X120236038Y-108758061D01*
X120480631Y-108392001D01*
X120649110Y-107985257D01*
X120735000Y-107553460D01*
X120735000Y-107113204D01*
X120649110Y-106681407D01*
X120480631Y-106274663D01*
X120236038Y-105908603D01*
X119924729Y-105597294D01*
X119558669Y-105352701D01*
X119151925Y-105184222D01*
X118720128Y-105098332D01*
X118279872Y-105098332D01*
X117848075Y-105184222D01*
X117441331Y-105352701D01*
X117075271Y-105597294D01*
X116763962Y-105908603D01*
X116519369Y-106274663D01*
X116350890Y-106681407D01*
X116265000Y-107113204D01*
X111160000Y-107113204D01*
X111160000Y-95446538D01*
X116265000Y-95446538D01*
X116265000Y-95886794D01*
X116350890Y-96318591D01*
X116519369Y-96725335D01*
X116763962Y-97091395D01*
X117075271Y-97402704D01*
X117441331Y-97647297D01*
X117848075Y-97815776D01*
X118279872Y-97901666D01*
X118720128Y-97901666D01*
X119151925Y-97815776D01*
X119558669Y-97647297D01*
X119924729Y-97402704D01*
X120236038Y-97091395D01*
X120480631Y-96725335D01*
X120649110Y-96318591D01*
X120735000Y-95886794D01*
X120735000Y-95446538D01*
X120649110Y-95014741D01*
X120480631Y-94607997D01*
X120236038Y-94241937D01*
X119924729Y-93930628D01*
X119558669Y-93686035D01*
X119151925Y-93517556D01*
X118720128Y-93431666D01*
X118279872Y-93431666D01*
X117848075Y-93517556D01*
X117441331Y-93686035D01*
X117075271Y-93930628D01*
X116763962Y-94241937D01*
X116519369Y-94607997D01*
X116350890Y-95014741D01*
X116265000Y-95446538D01*
X111160000Y-95446538D01*
X111160000Y-83779872D01*
X116265000Y-83779872D01*
X116265000Y-84220128D01*
X116350890Y-84651925D01*
X116519369Y-85058669D01*
X116763962Y-85424729D01*
X117075271Y-85736038D01*
X117441331Y-85980631D01*
X117848075Y-86149110D01*
X118279872Y-86235000D01*
X118720128Y-86235000D01*
X119151925Y-86149110D01*
X119558669Y-85980631D01*
X119924729Y-85736038D01*
X120236038Y-85424729D01*
X120480631Y-85058669D01*
X120649110Y-84651925D01*
X120735000Y-84220128D01*
X120735000Y-83779872D01*
X120649110Y-83348075D01*
X120480631Y-82941331D01*
X120236038Y-82575271D01*
X119924729Y-82263962D01*
X119558669Y-82019369D01*
X119151925Y-81850890D01*
X118720128Y-81765000D01*
X118279872Y-81765000D01*
X117848075Y-81850890D01*
X117441331Y-82019369D01*
X117075271Y-82263962D01*
X116763962Y-82575271D01*
X116519369Y-82941331D01*
X116350890Y-83348075D01*
X116265000Y-83779872D01*
X111160000Y-83779872D01*
X111160000Y-81160000D01*
X125873000Y-81160000D01*
X125873000Y-84500000D01*
G37*
G04 #@! TD.AperFunction*
D11*
X184840001Y-121840000D02*
X170127000Y-121840000D01*
X170127000Y-118779872D01*
X175265000Y-118779872D01*
X175265000Y-119220128D01*
X175350890Y-119651925D01*
X175519369Y-120058669D01*
X175763962Y-120424729D01*
X176075271Y-120736038D01*
X176441331Y-120980631D01*
X176848075Y-121149110D01*
X177279872Y-121235000D01*
X177720128Y-121235000D01*
X178151925Y-121149110D01*
X178558669Y-120980631D01*
X178924729Y-120736038D01*
X179236038Y-120424729D01*
X179480631Y-120058669D01*
X179649110Y-119651925D01*
X179735000Y-119220128D01*
X179735000Y-118779872D01*
X179649110Y-118348075D01*
X179480631Y-117941331D01*
X179236038Y-117575271D01*
X178924729Y-117263962D01*
X178558669Y-117019369D01*
X178151925Y-116850890D01*
X177720128Y-116765000D01*
X177279872Y-116765000D01*
X176848075Y-116850890D01*
X176441331Y-117019369D01*
X176075271Y-117263962D01*
X175763962Y-117575271D01*
X175519369Y-117941331D01*
X175350890Y-118348075D01*
X175265000Y-118779872D01*
X170127000Y-118779872D01*
X170127000Y-118115625D01*
X170124560Y-118090849D01*
X170117333Y-118067024D01*
X170105597Y-118045068D01*
X170089803Y-118025822D01*
X170070557Y-118010028D01*
X170048601Y-117998292D01*
X170024776Y-117991065D01*
X170000091Y-117988625D01*
X126727000Y-117957466D01*
X126727000Y-115617680D01*
X169999945Y-115636375D01*
X170024723Y-115633945D01*
X170048550Y-115626729D01*
X170070512Y-115615002D01*
X170089764Y-115599216D01*
X170105566Y-115579978D01*
X170117312Y-115558026D01*
X170124549Y-115534205D01*
X170127000Y-115509375D01*
X170127000Y-111333125D01*
X170124560Y-111308349D01*
X170117333Y-111284524D01*
X170105597Y-111262568D01*
X170089803Y-111243322D01*
X170070557Y-111227528D01*
X170048601Y-111215792D01*
X170024776Y-111208565D01*
X170000194Y-111206125D01*
X126727000Y-111140069D01*
X126727000Y-108852066D01*
X169999934Y-108874500D01*
X170024712Y-108872073D01*
X170048540Y-108864858D01*
X170070503Y-108853133D01*
X170089756Y-108837349D01*
X170105560Y-108818112D01*
X170117307Y-108796162D01*
X170124547Y-108772341D01*
X170127000Y-108747500D01*
X170127000Y-107113204D01*
X175265000Y-107113204D01*
X175265000Y-107553460D01*
X175350890Y-107985257D01*
X175519369Y-108392001D01*
X175763962Y-108758061D01*
X176075271Y-109069370D01*
X176441331Y-109313963D01*
X176848075Y-109482442D01*
X177279872Y-109568332D01*
X177720128Y-109568332D01*
X178151925Y-109482442D01*
X178558669Y-109313963D01*
X178924729Y-109069370D01*
X179236038Y-108758061D01*
X179480631Y-108392001D01*
X179649110Y-107985257D01*
X179735000Y-107553460D01*
X179735000Y-107113204D01*
X179649110Y-106681407D01*
X179480631Y-106274663D01*
X179236038Y-105908603D01*
X178924729Y-105597294D01*
X178558669Y-105352701D01*
X178151925Y-105184222D01*
X177720128Y-105098332D01*
X177279872Y-105098332D01*
X176848075Y-105184222D01*
X176441331Y-105352701D01*
X176075271Y-105597294D01*
X175763962Y-105908603D01*
X175519369Y-106274663D01*
X175350890Y-106681407D01*
X175265000Y-107113204D01*
X170127000Y-107113204D01*
X170127000Y-104752500D01*
X170124560Y-104727724D01*
X170117333Y-104703899D01*
X170105597Y-104681943D01*
X170089803Y-104662697D01*
X170070557Y-104646903D01*
X170048601Y-104635167D01*
X170024776Y-104627940D01*
X169999861Y-104625500D01*
X126727000Y-104672861D01*
X126727000Y-101926854D01*
X170000146Y-101877000D01*
X170024920Y-101874531D01*
X170048736Y-101867277D01*
X170070679Y-101855515D01*
X170089906Y-101839699D01*
X170105678Y-101820436D01*
X170117389Y-101798466D01*
X170124588Y-101774633D01*
X170127000Y-101750000D01*
X170127000Y-97575000D01*
X170124560Y-97550224D01*
X170117333Y-97526399D01*
X170105597Y-97504443D01*
X170089803Y-97485197D01*
X170070557Y-97469403D01*
X170048601Y-97457667D01*
X170024776Y-97450440D01*
X169999854Y-97448000D01*
X126727000Y-97497854D01*
X126727000Y-95446538D01*
X175265000Y-95446538D01*
X175265000Y-95886794D01*
X175350890Y-96318591D01*
X175519369Y-96725335D01*
X175763962Y-97091395D01*
X176075271Y-97402704D01*
X176441331Y-97647297D01*
X176848075Y-97815776D01*
X177279872Y-97901666D01*
X177720128Y-97901666D01*
X178151925Y-97815776D01*
X178558669Y-97647297D01*
X178924729Y-97402704D01*
X179236038Y-97091395D01*
X179480631Y-96725335D01*
X179649110Y-96318591D01*
X179735000Y-95886794D01*
X179735000Y-95446538D01*
X179649110Y-95014741D01*
X179480631Y-94607997D01*
X179236038Y-94241937D01*
X178924729Y-93930628D01*
X178558669Y-93686035D01*
X178151925Y-93517556D01*
X177720128Y-93431666D01*
X177279872Y-93431666D01*
X176848075Y-93517556D01*
X176441331Y-93686035D01*
X176075271Y-93930628D01*
X175763962Y-94241937D01*
X175519369Y-94607997D01*
X175350890Y-95014741D01*
X175265000Y-95446538D01*
X126727000Y-95446538D01*
X126727000Y-94927000D01*
X170000000Y-94927000D01*
X170024776Y-94924560D01*
X170048601Y-94917333D01*
X170070557Y-94905597D01*
X170089803Y-94889803D01*
X170105597Y-94870557D01*
X170117333Y-94848601D01*
X170124560Y-94824776D01*
X170127000Y-94800000D01*
X170127000Y-90587500D01*
X170124560Y-90562724D01*
X170117333Y-90538899D01*
X170105597Y-90516943D01*
X170089803Y-90497697D01*
X170070557Y-90481903D01*
X170048601Y-90470167D01*
X170024776Y-90462940D01*
X169999927Y-90460500D01*
X126727000Y-90485427D01*
X126727000Y-88151927D01*
X170000073Y-88127000D01*
X170024848Y-88124545D01*
X170048668Y-88117305D01*
X170070618Y-88105556D01*
X170089854Y-88089751D01*
X170105637Y-88070497D01*
X170117361Y-88048533D01*
X170124574Y-88024705D01*
X170127000Y-88000000D01*
X170127000Y-83900000D01*
X170124560Y-83875224D01*
X170117333Y-83851399D01*
X170105597Y-83829443D01*
X170089803Y-83810197D01*
X170070557Y-83794403D01*
X170048601Y-83782667D01*
X170039387Y-83779872D01*
X175265000Y-83779872D01*
X175265000Y-84220128D01*
X175350890Y-84651925D01*
X175519369Y-85058669D01*
X175763962Y-85424729D01*
X176075271Y-85736038D01*
X176441331Y-85980631D01*
X176848075Y-86149110D01*
X177279872Y-86235000D01*
X177720128Y-86235000D01*
X178151925Y-86149110D01*
X178558669Y-85980631D01*
X178924729Y-85736038D01*
X179236038Y-85424729D01*
X179480631Y-85058669D01*
X179649110Y-84651925D01*
X179735000Y-84220128D01*
X179735000Y-83779872D01*
X179649110Y-83348075D01*
X179480631Y-82941331D01*
X179236038Y-82575271D01*
X178924729Y-82263962D01*
X178558669Y-82019369D01*
X178151925Y-81850890D01*
X177720128Y-81765000D01*
X177279872Y-81765000D01*
X176848075Y-81850890D01*
X176441331Y-82019369D01*
X176075271Y-82263962D01*
X175763962Y-82575271D01*
X175519369Y-82941331D01*
X175350890Y-83348075D01*
X175265000Y-83779872D01*
X170039387Y-83779872D01*
X170024776Y-83775440D01*
X170000000Y-83773000D01*
X126827000Y-83773000D01*
X126827000Y-81160000D01*
X184840000Y-81160000D01*
X184840001Y-121840000D01*
G04 #@! TA.AperFunction,Conductor*
D12*
G36*
X184840001Y-121840000D02*
G01*
X170127000Y-121840000D01*
X170127000Y-118779872D01*
X175265000Y-118779872D01*
X175265000Y-119220128D01*
X175350890Y-119651925D01*
X175519369Y-120058669D01*
X175763962Y-120424729D01*
X176075271Y-120736038D01*
X176441331Y-120980631D01*
X176848075Y-121149110D01*
X177279872Y-121235000D01*
X177720128Y-121235000D01*
X178151925Y-121149110D01*
X178558669Y-120980631D01*
X178924729Y-120736038D01*
X179236038Y-120424729D01*
X179480631Y-120058669D01*
X179649110Y-119651925D01*
X179735000Y-119220128D01*
X179735000Y-118779872D01*
X179649110Y-118348075D01*
X179480631Y-117941331D01*
X179236038Y-117575271D01*
X178924729Y-117263962D01*
X178558669Y-117019369D01*
X178151925Y-116850890D01*
X177720128Y-116765000D01*
X177279872Y-116765000D01*
X176848075Y-116850890D01*
X176441331Y-117019369D01*
X176075271Y-117263962D01*
X175763962Y-117575271D01*
X175519369Y-117941331D01*
X175350890Y-118348075D01*
X175265000Y-118779872D01*
X170127000Y-118779872D01*
X170127000Y-118115625D01*
X170124560Y-118090849D01*
X170117333Y-118067024D01*
X170105597Y-118045068D01*
X170089803Y-118025822D01*
X170070557Y-118010028D01*
X170048601Y-117998292D01*
X170024776Y-117991065D01*
X170000091Y-117988625D01*
X126727000Y-117957466D01*
X126727000Y-115617680D01*
X169999945Y-115636375D01*
X170024723Y-115633945D01*
X170048550Y-115626729D01*
X170070512Y-115615002D01*
X170089764Y-115599216D01*
X170105566Y-115579978D01*
X170117312Y-115558026D01*
X170124549Y-115534205D01*
X170127000Y-115509375D01*
X170127000Y-111333125D01*
X170124560Y-111308349D01*
X170117333Y-111284524D01*
X170105597Y-111262568D01*
X170089803Y-111243322D01*
X170070557Y-111227528D01*
X170048601Y-111215792D01*
X170024776Y-111208565D01*
X170000194Y-111206125D01*
X126727000Y-111140069D01*
X126727000Y-108852066D01*
X169999934Y-108874500D01*
X170024712Y-108872073D01*
X170048540Y-108864858D01*
X170070503Y-108853133D01*
X170089756Y-108837349D01*
X170105560Y-108818112D01*
X170117307Y-108796162D01*
X170124547Y-108772341D01*
X170127000Y-108747500D01*
X170127000Y-107113204D01*
X175265000Y-107113204D01*
X175265000Y-107553460D01*
X175350890Y-107985257D01*
X175519369Y-108392001D01*
X175763962Y-108758061D01*
X176075271Y-109069370D01*
X176441331Y-109313963D01*
X176848075Y-109482442D01*
X177279872Y-109568332D01*
X177720128Y-109568332D01*
X178151925Y-109482442D01*
X178558669Y-109313963D01*
X178924729Y-109069370D01*
X179236038Y-108758061D01*
X179480631Y-108392001D01*
X179649110Y-107985257D01*
X179735000Y-107553460D01*
X179735000Y-107113204D01*
X179649110Y-106681407D01*
X179480631Y-106274663D01*
X179236038Y-105908603D01*
X178924729Y-105597294D01*
X178558669Y-105352701D01*
X178151925Y-105184222D01*
X177720128Y-105098332D01*
X177279872Y-105098332D01*
X176848075Y-105184222D01*
X176441331Y-105352701D01*
X176075271Y-105597294D01*
X175763962Y-105908603D01*
X175519369Y-106274663D01*
X175350890Y-106681407D01*
X175265000Y-107113204D01*
X170127000Y-107113204D01*
X170127000Y-104752500D01*
X170124560Y-104727724D01*
X170117333Y-104703899D01*
X170105597Y-104681943D01*
X170089803Y-104662697D01*
X170070557Y-104646903D01*
X170048601Y-104635167D01*
X170024776Y-104627940D01*
X169999861Y-104625500D01*
X126727000Y-104672861D01*
X126727000Y-101926854D01*
X170000146Y-101877000D01*
X170024920Y-101874531D01*
X170048736Y-101867277D01*
X170070679Y-101855515D01*
X170089906Y-101839699D01*
X170105678Y-101820436D01*
X170117389Y-101798466D01*
X170124588Y-101774633D01*
X170127000Y-101750000D01*
X170127000Y-97575000D01*
X170124560Y-97550224D01*
X170117333Y-97526399D01*
X170105597Y-97504443D01*
X170089803Y-97485197D01*
X170070557Y-97469403D01*
X170048601Y-97457667D01*
X170024776Y-97450440D01*
X169999854Y-97448000D01*
X126727000Y-97497854D01*
X126727000Y-95446538D01*
X175265000Y-95446538D01*
X175265000Y-95886794D01*
X175350890Y-96318591D01*
X175519369Y-96725335D01*
X175763962Y-97091395D01*
X176075271Y-97402704D01*
X176441331Y-97647297D01*
X176848075Y-97815776D01*
X177279872Y-97901666D01*
X177720128Y-97901666D01*
X178151925Y-97815776D01*
X178558669Y-97647297D01*
X178924729Y-97402704D01*
X179236038Y-97091395D01*
X179480631Y-96725335D01*
X179649110Y-96318591D01*
X179735000Y-95886794D01*
X179735000Y-95446538D01*
X179649110Y-95014741D01*
X179480631Y-94607997D01*
X179236038Y-94241937D01*
X178924729Y-93930628D01*
X178558669Y-93686035D01*
X178151925Y-93517556D01*
X177720128Y-93431666D01*
X177279872Y-93431666D01*
X176848075Y-93517556D01*
X176441331Y-93686035D01*
X176075271Y-93930628D01*
X175763962Y-94241937D01*
X175519369Y-94607997D01*
X175350890Y-95014741D01*
X175265000Y-95446538D01*
X126727000Y-95446538D01*
X126727000Y-94927000D01*
X170000000Y-94927000D01*
X170024776Y-94924560D01*
X170048601Y-94917333D01*
X170070557Y-94905597D01*
X170089803Y-94889803D01*
X170105597Y-94870557D01*
X170117333Y-94848601D01*
X170124560Y-94824776D01*
X170127000Y-94800000D01*
X170127000Y-90587500D01*
X170124560Y-90562724D01*
X170117333Y-90538899D01*
X170105597Y-90516943D01*
X170089803Y-90497697D01*
X170070557Y-90481903D01*
X170048601Y-90470167D01*
X170024776Y-90462940D01*
X169999927Y-90460500D01*
X126727000Y-90485427D01*
X126727000Y-88151927D01*
X170000073Y-88127000D01*
X170024848Y-88124545D01*
X170048668Y-88117305D01*
X170070618Y-88105556D01*
X170089854Y-88089751D01*
X170105637Y-88070497D01*
X170117361Y-88048533D01*
X170124574Y-88024705D01*
X170127000Y-88000000D01*
X170127000Y-83900000D01*
X170124560Y-83875224D01*
X170117333Y-83851399D01*
X170105597Y-83829443D01*
X170089803Y-83810197D01*
X170070557Y-83794403D01*
X170048601Y-83782667D01*
X170039387Y-83779872D01*
X175265000Y-83779872D01*
X175265000Y-84220128D01*
X175350890Y-84651925D01*
X175519369Y-85058669D01*
X175763962Y-85424729D01*
X176075271Y-85736038D01*
X176441331Y-85980631D01*
X176848075Y-86149110D01*
X177279872Y-86235000D01*
X177720128Y-86235000D01*
X178151925Y-86149110D01*
X178558669Y-85980631D01*
X178924729Y-85736038D01*
X179236038Y-85424729D01*
X179480631Y-85058669D01*
X179649110Y-84651925D01*
X179735000Y-84220128D01*
X179735000Y-83779872D01*
X179649110Y-83348075D01*
X179480631Y-82941331D01*
X179236038Y-82575271D01*
X178924729Y-82263962D01*
X178558669Y-82019369D01*
X178151925Y-81850890D01*
X177720128Y-81765000D01*
X177279872Y-81765000D01*
X176848075Y-81850890D01*
X176441331Y-82019369D01*
X176075271Y-82263962D01*
X175763962Y-82575271D01*
X175519369Y-82941331D01*
X175350890Y-83348075D01*
X175265000Y-83779872D01*
X170039387Y-83779872D01*
X170024776Y-83775440D01*
X170000000Y-83773000D01*
X126827000Y-83773000D01*
X126827000Y-81160000D01*
X184840000Y-81160000D01*
X184840001Y-121840000D01*
G37*
G04 #@! TD.AperFunction*
M02*
