G04 #@! TF.GenerationSoftware,KiCad,Pcbnew,5.1.9*
G04 #@! TF.CreationDate,2021-04-12T04:53:29-03:00*
G04 #@! TF.ProjectId,Caps,43617073-2e6b-4696-9361-645f70636258,rev?*
G04 #@! TF.SameCoordinates,Original*
G04 #@! TF.FileFunction,Paste,Top*
G04 #@! TF.FilePolarity,Positive*
%FSLAX46Y46*%
G04 Gerber Fmt 4.6, Leading zero omitted, Abs format (unit mm)*
G04 Created by KiCad (PCBNEW 5.1.9) date 2021-04-12 04:53:29*
%MOMM*%
%LPD*%
G01*
G04 APERTURE LIST*
G04 APERTURE END LIST*
G36*
G01*
X124087517Y-91480000D02*
X124562517Y-91480000D01*
G75*
G02*
X124800017Y-91717500I0J-237500D01*
G01*
X124800017Y-92317500D01*
G75*
G02*
X124562517Y-92555000I-237500J0D01*
G01*
X124087517Y-92555000D01*
G75*
G02*
X123850017Y-92317500I0J237500D01*
G01*
X123850017Y-91717500D01*
G75*
G02*
X124087517Y-91480000I237500J0D01*
G01*
G37*
G36*
G01*
X124087517Y-89755000D02*
X124562517Y-89755000D01*
G75*
G02*
X124800017Y-89992500I0J-237500D01*
G01*
X124800017Y-90592500D01*
G75*
G02*
X124562517Y-90830000I-237500J0D01*
G01*
X124087517Y-90830000D01*
G75*
G02*
X123850017Y-90592500I0J237500D01*
G01*
X123850017Y-89992500D01*
G75*
G02*
X124087517Y-89755000I237500J0D01*
G01*
G37*
G36*
G01*
X122562500Y-91475000D02*
X123037500Y-91475000D01*
G75*
G02*
X123275000Y-91712500I0J-237500D01*
G01*
X123275000Y-92312500D01*
G75*
G02*
X123037500Y-92550000I-237500J0D01*
G01*
X122562500Y-92550000D01*
G75*
G02*
X122325000Y-92312500I0J237500D01*
G01*
X122325000Y-91712500D01*
G75*
G02*
X122562500Y-91475000I237500J0D01*
G01*
G37*
G36*
G01*
X122562500Y-89750000D02*
X123037500Y-89750000D01*
G75*
G02*
X123275000Y-89987500I0J-237500D01*
G01*
X123275000Y-90587500D01*
G75*
G02*
X123037500Y-90825000I-237500J0D01*
G01*
X122562500Y-90825000D01*
G75*
G02*
X122325000Y-90587500I0J237500D01*
G01*
X122325000Y-89987500D01*
G75*
G02*
X122562500Y-89750000I237500J0D01*
G01*
G37*
G36*
G01*
X145275011Y-106045000D02*
X147475017Y-106045000D01*
G75*
G02*
X147725014Y-106294997I0J-249997D01*
G01*
X147725014Y-107120003D01*
G75*
G02*
X147475017Y-107370000I-249997J0D01*
G01*
X145275011Y-107370000D01*
G75*
G02*
X145025014Y-107120003I0J249997D01*
G01*
X145025014Y-106294997D01*
G75*
G02*
X145275011Y-106045000I249997J0D01*
G01*
G37*
G36*
G01*
X145275011Y-102920000D02*
X147475017Y-102920000D01*
G75*
G02*
X147725014Y-103169997I0J-249997D01*
G01*
X147725014Y-103995003D01*
G75*
G02*
X147475017Y-104245000I-249997J0D01*
G01*
X145275011Y-104245000D01*
G75*
G02*
X145025014Y-103995003I0J249997D01*
G01*
X145025014Y-103169997D01*
G75*
G02*
X145275011Y-102920000I249997J0D01*
G01*
G37*
G36*
G01*
X128975013Y-92055000D02*
X131175019Y-92055000D01*
G75*
G02*
X131425016Y-92304997I0J-249997D01*
G01*
X131425016Y-93130003D01*
G75*
G02*
X131175019Y-93380000I-249997J0D01*
G01*
X128975013Y-93380000D01*
G75*
G02*
X128725016Y-93130003I0J249997D01*
G01*
X128725016Y-92304997D01*
G75*
G02*
X128975013Y-92055000I249997J0D01*
G01*
G37*
G36*
G01*
X128975013Y-88930000D02*
X131175019Y-88930000D01*
G75*
G02*
X131425016Y-89179997I0J-249997D01*
G01*
X131425016Y-90005003D01*
G75*
G02*
X131175019Y-90255000I-249997J0D01*
G01*
X128975013Y-90255000D01*
G75*
G02*
X128725016Y-90005003I0J249997D01*
G01*
X128725016Y-89179997D01*
G75*
G02*
X128975013Y-88930000I249997J0D01*
G01*
G37*
G36*
G01*
X142025021Y-106045000D02*
X144225027Y-106045000D01*
G75*
G02*
X144475024Y-106294997I0J-249997D01*
G01*
X144475024Y-107120003D01*
G75*
G02*
X144225027Y-107370000I-249997J0D01*
G01*
X142025021Y-107370000D01*
G75*
G02*
X141775024Y-107120003I0J249997D01*
G01*
X141775024Y-106294997D01*
G75*
G02*
X142025021Y-106045000I249997J0D01*
G01*
G37*
G36*
G01*
X142025021Y-102920000D02*
X144225027Y-102920000D01*
G75*
G02*
X144475024Y-103169997I0J-249997D01*
G01*
X144475024Y-103995003D01*
G75*
G02*
X144225027Y-104245000I-249997J0D01*
G01*
X142025021Y-104245000D01*
G75*
G02*
X141775024Y-103995003I0J249997D01*
G01*
X141775024Y-103169997D01*
G75*
G02*
X142025021Y-102920000I249997J0D01*
G01*
G37*
G36*
G01*
X141975009Y-92055000D02*
X144175015Y-92055000D01*
G75*
G02*
X144425012Y-92304997I0J-249997D01*
G01*
X144425012Y-93130003D01*
G75*
G02*
X144175015Y-93380000I-249997J0D01*
G01*
X141975009Y-93380000D01*
G75*
G02*
X141725012Y-93130003I0J249997D01*
G01*
X141725012Y-92304997D01*
G75*
G02*
X141975009Y-92055000I249997J0D01*
G01*
G37*
G36*
G01*
X141975009Y-88930000D02*
X144175015Y-88930000D01*
G75*
G02*
X144425012Y-89179997I0J-249997D01*
G01*
X144425012Y-90005003D01*
G75*
G02*
X144175015Y-90255000I-249997J0D01*
G01*
X141975009Y-90255000D01*
G75*
G02*
X141725012Y-90005003I0J249997D01*
G01*
X141725012Y-89179997D01*
G75*
G02*
X141975009Y-88930000I249997J0D01*
G01*
G37*
G36*
G01*
X135475011Y-92055000D02*
X137675017Y-92055000D01*
G75*
G02*
X137925014Y-92304997I0J-249997D01*
G01*
X137925014Y-93130003D01*
G75*
G02*
X137675017Y-93380000I-249997J0D01*
G01*
X135475011Y-93380000D01*
G75*
G02*
X135225014Y-93130003I0J249997D01*
G01*
X135225014Y-92304997D01*
G75*
G02*
X135475011Y-92055000I249997J0D01*
G01*
G37*
G36*
G01*
X135475011Y-88930000D02*
X137675017Y-88930000D01*
G75*
G02*
X137925014Y-89179997I0J-249997D01*
G01*
X137925014Y-90005003D01*
G75*
G02*
X137675017Y-90255000I-249997J0D01*
G01*
X135475011Y-90255000D01*
G75*
G02*
X135225014Y-90005003I0J249997D01*
G01*
X135225014Y-89179997D01*
G75*
G02*
X135475011Y-88930000I249997J0D01*
G01*
G37*
G36*
G01*
X135525025Y-106045000D02*
X137725031Y-106045000D01*
G75*
G02*
X137975028Y-106294997I0J-249997D01*
G01*
X137975028Y-107120003D01*
G75*
G02*
X137725031Y-107370000I-249997J0D01*
G01*
X135525025Y-107370000D01*
G75*
G02*
X135275028Y-107120003I0J249997D01*
G01*
X135275028Y-106294997D01*
G75*
G02*
X135525025Y-106045000I249997J0D01*
G01*
G37*
G36*
G01*
X135525025Y-102920000D02*
X137725031Y-102920000D01*
G75*
G02*
X137975028Y-103169997I0J-249997D01*
G01*
X137975028Y-103995003D01*
G75*
G02*
X137725031Y-104245000I-249997J0D01*
G01*
X135525025Y-104245000D01*
G75*
G02*
X135275028Y-103995003I0J249997D01*
G01*
X135275028Y-103169997D01*
G75*
G02*
X135525025Y-102920000I249997J0D01*
G01*
G37*
G36*
G01*
X151725002Y-92055000D02*
X153925008Y-92055000D01*
G75*
G02*
X154175005Y-92304997I0J-249997D01*
G01*
X154175005Y-93130003D01*
G75*
G02*
X153925008Y-93380000I-249997J0D01*
G01*
X151725002Y-93380000D01*
G75*
G02*
X151475005Y-93130003I0J249997D01*
G01*
X151475005Y-92304997D01*
G75*
G02*
X151725002Y-92055000I249997J0D01*
G01*
G37*
G36*
G01*
X151725002Y-88930000D02*
X153925008Y-88930000D01*
G75*
G02*
X154175005Y-89179997I0J-249997D01*
G01*
X154175005Y-90005003D01*
G75*
G02*
X153925008Y-90255000I-249997J0D01*
G01*
X151725002Y-90255000D01*
G75*
G02*
X151475005Y-90005003I0J249997D01*
G01*
X151475005Y-89179997D01*
G75*
G02*
X151725002Y-88930000I249997J0D01*
G01*
G37*
G36*
G01*
X125774997Y-106050000D02*
X127975003Y-106050000D01*
G75*
G02*
X128225000Y-106299997I0J-249997D01*
G01*
X128225000Y-107125003D01*
G75*
G02*
X127975003Y-107375000I-249997J0D01*
G01*
X125774997Y-107375000D01*
G75*
G02*
X125525000Y-107125003I0J249997D01*
G01*
X125525000Y-106299997D01*
G75*
G02*
X125774997Y-106050000I249997J0D01*
G01*
G37*
G36*
G01*
X125774997Y-102925000D02*
X127975003Y-102925000D01*
G75*
G02*
X128225000Y-103174997I0J-249997D01*
G01*
X128225000Y-104000003D01*
G75*
G02*
X127975003Y-104250000I-249997J0D01*
G01*
X125774997Y-104250000D01*
G75*
G02*
X125525000Y-104000003I0J249997D01*
G01*
X125525000Y-103174997D01*
G75*
G02*
X125774997Y-102925000I249997J0D01*
G01*
G37*
G36*
G01*
X125774997Y-92050000D02*
X127975003Y-92050000D01*
G75*
G02*
X128225000Y-92299997I0J-249997D01*
G01*
X128225000Y-93125003D01*
G75*
G02*
X127975003Y-93375000I-249997J0D01*
G01*
X125774997Y-93375000D01*
G75*
G02*
X125525000Y-93125003I0J249997D01*
G01*
X125525000Y-92299997D01*
G75*
G02*
X125774997Y-92050000I249997J0D01*
G01*
G37*
G36*
G01*
X125774997Y-88925000D02*
X127975003Y-88925000D01*
G75*
G02*
X128225000Y-89174997I0J-249997D01*
G01*
X128225000Y-90000003D01*
G75*
G02*
X127975003Y-90250000I-249997J0D01*
G01*
X125774997Y-90250000D01*
G75*
G02*
X125525000Y-90000003I0J249997D01*
G01*
X125525000Y-89174997D01*
G75*
G02*
X125774997Y-88925000I249997J0D01*
G01*
G37*
G36*
G01*
X145225004Y-92055000D02*
X147425010Y-92055000D01*
G75*
G02*
X147675007Y-92304997I0J-249997D01*
G01*
X147675007Y-93130003D01*
G75*
G02*
X147425010Y-93380000I-249997J0D01*
G01*
X145225004Y-93380000D01*
G75*
G02*
X144975007Y-93130003I0J249997D01*
G01*
X144975007Y-92304997D01*
G75*
G02*
X145225004Y-92055000I249997J0D01*
G01*
G37*
G36*
G01*
X145225004Y-88930000D02*
X147425010Y-88930000D01*
G75*
G02*
X147675007Y-89179997I0J-249997D01*
G01*
X147675007Y-90005003D01*
G75*
G02*
X147425010Y-90255000I-249997J0D01*
G01*
X145225004Y-90255000D01*
G75*
G02*
X144975007Y-90005003I0J249997D01*
G01*
X144975007Y-89179997D01*
G75*
G02*
X145225004Y-88930000I249997J0D01*
G01*
G37*
G36*
G01*
X148475003Y-92055000D02*
X150675009Y-92055000D01*
G75*
G02*
X150925006Y-92304997I0J-249997D01*
G01*
X150925006Y-93130003D01*
G75*
G02*
X150675009Y-93380000I-249997J0D01*
G01*
X148475003Y-93380000D01*
G75*
G02*
X148225006Y-93130003I0J249997D01*
G01*
X148225006Y-92304997D01*
G75*
G02*
X148475003Y-92055000I249997J0D01*
G01*
G37*
G36*
G01*
X148475003Y-88930000D02*
X150675009Y-88930000D01*
G75*
G02*
X150925006Y-89179997I0J-249997D01*
G01*
X150925006Y-90005003D01*
G75*
G02*
X150675009Y-90255000I-249997J0D01*
G01*
X148475003Y-90255000D01*
G75*
G02*
X148225006Y-90005003I0J249997D01*
G01*
X148225006Y-89179997D01*
G75*
G02*
X148475003Y-88930000I249997J0D01*
G01*
G37*
G36*
G01*
X129025029Y-106045000D02*
X131225035Y-106045000D01*
G75*
G02*
X131475032Y-106294997I0J-249997D01*
G01*
X131475032Y-107120003D01*
G75*
G02*
X131225035Y-107370000I-249997J0D01*
G01*
X129025029Y-107370000D01*
G75*
G02*
X128775032Y-107120003I0J249997D01*
G01*
X128775032Y-106294997D01*
G75*
G02*
X129025029Y-106045000I249997J0D01*
G01*
G37*
G36*
G01*
X129025029Y-102920000D02*
X131225035Y-102920000D01*
G75*
G02*
X131475032Y-103169997I0J-249997D01*
G01*
X131475032Y-103995003D01*
G75*
G02*
X131225035Y-104245000I-249997J0D01*
G01*
X129025029Y-104245000D01*
G75*
G02*
X128775032Y-103995003I0J249997D01*
G01*
X128775032Y-103169997D01*
G75*
G02*
X129025029Y-102920000I249997J0D01*
G01*
G37*
G36*
G01*
X155025005Y-106045000D02*
X157225011Y-106045000D01*
G75*
G02*
X157475008Y-106294997I0J-249997D01*
G01*
X157475008Y-107120003D01*
G75*
G02*
X157225011Y-107370000I-249997J0D01*
G01*
X155025005Y-107370000D01*
G75*
G02*
X154775008Y-107120003I0J249997D01*
G01*
X154775008Y-106294997D01*
G75*
G02*
X155025005Y-106045000I249997J0D01*
G01*
G37*
G36*
G01*
X155025005Y-102920000D02*
X157225011Y-102920000D01*
G75*
G02*
X157475008Y-103169997I0J-249997D01*
G01*
X157475008Y-103995003D01*
G75*
G02*
X157225011Y-104245000I-249997J0D01*
G01*
X155025005Y-104245000D01*
G75*
G02*
X154775008Y-103995003I0J249997D01*
G01*
X154775008Y-103169997D01*
G75*
G02*
X155025005Y-102920000I249997J0D01*
G01*
G37*
G36*
G01*
X172887500Y-105457500D02*
X173362500Y-105457500D01*
G75*
G02*
X173600000Y-105695000I0J-237500D01*
G01*
X173600000Y-106295000D01*
G75*
G02*
X173362500Y-106532500I-237500J0D01*
G01*
X172887500Y-106532500D01*
G75*
G02*
X172650000Y-106295000I0J237500D01*
G01*
X172650000Y-105695000D01*
G75*
G02*
X172887500Y-105457500I237500J0D01*
G01*
G37*
G36*
G01*
X172887500Y-103732500D02*
X173362500Y-103732500D01*
G75*
G02*
X173600000Y-103970000I0J-237500D01*
G01*
X173600000Y-104570000D01*
G75*
G02*
X173362500Y-104807500I-237500J0D01*
G01*
X172887500Y-104807500D01*
G75*
G02*
X172650000Y-104570000I0J237500D01*
G01*
X172650000Y-103970000D01*
G75*
G02*
X172887500Y-103732500I237500J0D01*
G01*
G37*
G36*
G01*
X171337517Y-91480000D02*
X171812517Y-91480000D01*
G75*
G02*
X172050017Y-91717500I0J-237500D01*
G01*
X172050017Y-92317500D01*
G75*
G02*
X171812517Y-92555000I-237500J0D01*
G01*
X171337517Y-92555000D01*
G75*
G02*
X171100017Y-92317500I0J237500D01*
G01*
X171100017Y-91717500D01*
G75*
G02*
X171337517Y-91480000I237500J0D01*
G01*
G37*
G36*
G01*
X171337517Y-89755000D02*
X171812517Y-89755000D01*
G75*
G02*
X172050017Y-89992500I0J-237500D01*
G01*
X172050017Y-90592500D01*
G75*
G02*
X171812517Y-90830000I-237500J0D01*
G01*
X171337517Y-90830000D01*
G75*
G02*
X171100017Y-90592500I0J237500D01*
G01*
X171100017Y-89992500D01*
G75*
G02*
X171337517Y-89755000I237500J0D01*
G01*
G37*
G36*
G01*
X122637534Y-105470000D02*
X123112534Y-105470000D01*
G75*
G02*
X123350034Y-105707500I0J-237500D01*
G01*
X123350034Y-106307500D01*
G75*
G02*
X123112534Y-106545000I-237500J0D01*
G01*
X122637534Y-106545000D01*
G75*
G02*
X122400034Y-106307500I0J237500D01*
G01*
X122400034Y-105707500D01*
G75*
G02*
X122637534Y-105470000I237500J0D01*
G01*
G37*
G36*
G01*
X122637534Y-103745000D02*
X123112534Y-103745000D01*
G75*
G02*
X123350034Y-103982500I0J-237500D01*
G01*
X123350034Y-104582500D01*
G75*
G02*
X123112534Y-104820000I-237500J0D01*
G01*
X122637534Y-104820000D01*
G75*
G02*
X122400034Y-104582500I0J237500D01*
G01*
X122400034Y-103982500D01*
G75*
G02*
X122637534Y-103745000I237500J0D01*
G01*
G37*
G36*
G01*
X172837517Y-91480000D02*
X173312517Y-91480000D01*
G75*
G02*
X173550017Y-91717500I0J-237500D01*
G01*
X173550017Y-92317500D01*
G75*
G02*
X173312517Y-92555000I-237500J0D01*
G01*
X172837517Y-92555000D01*
G75*
G02*
X172600017Y-92317500I0J237500D01*
G01*
X172600017Y-91717500D01*
G75*
G02*
X172837517Y-91480000I237500J0D01*
G01*
G37*
G36*
G01*
X172837517Y-89755000D02*
X173312517Y-89755000D01*
G75*
G02*
X173550017Y-89992500I0J-237500D01*
G01*
X173550017Y-90592500D01*
G75*
G02*
X173312517Y-90830000I-237500J0D01*
G01*
X172837517Y-90830000D01*
G75*
G02*
X172600017Y-90592500I0J237500D01*
G01*
X172600017Y-89992500D01*
G75*
G02*
X172837517Y-89755000I237500J0D01*
G01*
G37*
G36*
G01*
X161474999Y-92055000D02*
X163675005Y-92055000D01*
G75*
G02*
X163925002Y-92304997I0J-249997D01*
G01*
X163925002Y-93130003D01*
G75*
G02*
X163675005Y-93380000I-249997J0D01*
G01*
X161474999Y-93380000D01*
G75*
G02*
X161225002Y-93130003I0J249997D01*
G01*
X161225002Y-92304997D01*
G75*
G02*
X161474999Y-92055000I249997J0D01*
G01*
G37*
G36*
G01*
X161474999Y-88930000D02*
X163675005Y-88930000D01*
G75*
G02*
X163925002Y-89179997I0J-249997D01*
G01*
X163925002Y-90005003D01*
G75*
G02*
X163675005Y-90255000I-249997J0D01*
G01*
X161474999Y-90255000D01*
G75*
G02*
X161225002Y-90005003I0J249997D01*
G01*
X161225002Y-89179997D01*
G75*
G02*
X161474999Y-88930000I249997J0D01*
G01*
G37*
G36*
G01*
X164774999Y-106045000D02*
X166975005Y-106045000D01*
G75*
G02*
X167225002Y-106294997I0J-249997D01*
G01*
X167225002Y-107120003D01*
G75*
G02*
X166975005Y-107370000I-249997J0D01*
G01*
X164774999Y-107370000D01*
G75*
G02*
X164525002Y-107120003I0J249997D01*
G01*
X164525002Y-106294997D01*
G75*
G02*
X164774999Y-106045000I249997J0D01*
G01*
G37*
G36*
G01*
X164774999Y-102920000D02*
X166975005Y-102920000D01*
G75*
G02*
X167225002Y-103169997I0J-249997D01*
G01*
X167225002Y-103995003D01*
G75*
G02*
X166975005Y-104245000I-249997J0D01*
G01*
X164774999Y-104245000D01*
G75*
G02*
X164525002Y-103995003I0J249997D01*
G01*
X164525002Y-103169997D01*
G75*
G02*
X164774999Y-102920000I249997J0D01*
G01*
G37*
G36*
G01*
X158275003Y-106045000D02*
X160475009Y-106045000D01*
G75*
G02*
X160725006Y-106294997I0J-249997D01*
G01*
X160725006Y-107120003D01*
G75*
G02*
X160475009Y-107370000I-249997J0D01*
G01*
X158275003Y-107370000D01*
G75*
G02*
X158025006Y-107120003I0J249997D01*
G01*
X158025006Y-106294997D01*
G75*
G02*
X158275003Y-106045000I249997J0D01*
G01*
G37*
G36*
G01*
X158275003Y-102920000D02*
X160475009Y-102920000D01*
G75*
G02*
X160725006Y-103169997I0J-249997D01*
G01*
X160725006Y-103995003D01*
G75*
G02*
X160475009Y-104245000I-249997J0D01*
G01*
X158275003Y-104245000D01*
G75*
G02*
X158025006Y-103995003I0J249997D01*
G01*
X158025006Y-103169997D01*
G75*
G02*
X158275003Y-102920000I249997J0D01*
G01*
G37*
G36*
G01*
X154975001Y-92055000D02*
X157175007Y-92055000D01*
G75*
G02*
X157425004Y-92304997I0J-249997D01*
G01*
X157425004Y-93130003D01*
G75*
G02*
X157175007Y-93380000I-249997J0D01*
G01*
X154975001Y-93380000D01*
G75*
G02*
X154725004Y-93130003I0J249997D01*
G01*
X154725004Y-92304997D01*
G75*
G02*
X154975001Y-92055000I249997J0D01*
G01*
G37*
G36*
G01*
X154975001Y-88930000D02*
X157175007Y-88930000D01*
G75*
G02*
X157425004Y-89179997I0J-249997D01*
G01*
X157425004Y-90005003D01*
G75*
G02*
X157175007Y-90255000I-249997J0D01*
G01*
X154975001Y-90255000D01*
G75*
G02*
X154725004Y-90005003I0J249997D01*
G01*
X154725004Y-89179997D01*
G75*
G02*
X154975001Y-88930000I249997J0D01*
G01*
G37*
G36*
G01*
X132275027Y-106045000D02*
X134475033Y-106045000D01*
G75*
G02*
X134725030Y-106294997I0J-249997D01*
G01*
X134725030Y-107120003D01*
G75*
G02*
X134475033Y-107370000I-249997J0D01*
G01*
X132275027Y-107370000D01*
G75*
G02*
X132025030Y-107120003I0J249997D01*
G01*
X132025030Y-106294997D01*
G75*
G02*
X132275027Y-106045000I249997J0D01*
G01*
G37*
G36*
G01*
X132275027Y-102920000D02*
X134475033Y-102920000D01*
G75*
G02*
X134725030Y-103169997I0J-249997D01*
G01*
X134725030Y-103995003D01*
G75*
G02*
X134475033Y-104245000I-249997J0D01*
G01*
X132275027Y-104245000D01*
G75*
G02*
X132025030Y-103995003I0J249997D01*
G01*
X132025030Y-103169997D01*
G75*
G02*
X132275027Y-102920000I249997J0D01*
G01*
G37*
G36*
G01*
X158225000Y-92055000D02*
X160425006Y-92055000D01*
G75*
G02*
X160675003Y-92304997I0J-249997D01*
G01*
X160675003Y-93130003D01*
G75*
G02*
X160425006Y-93380000I-249997J0D01*
G01*
X158225000Y-93380000D01*
G75*
G02*
X157975003Y-93130003I0J249997D01*
G01*
X157975003Y-92304997D01*
G75*
G02*
X158225000Y-92055000I249997J0D01*
G01*
G37*
G36*
G01*
X158225000Y-88930000D02*
X160425006Y-88930000D01*
G75*
G02*
X160675003Y-89179997I0J-249997D01*
G01*
X160675003Y-90005003D01*
G75*
G02*
X160425006Y-90255000I-249997J0D01*
G01*
X158225000Y-90255000D01*
G75*
G02*
X157975003Y-90005003I0J249997D01*
G01*
X157975003Y-89179997D01*
G75*
G02*
X158225000Y-88930000I249997J0D01*
G01*
G37*
G36*
G01*
X161525001Y-106045000D02*
X163725007Y-106045000D01*
G75*
G02*
X163975004Y-106294997I0J-249997D01*
G01*
X163975004Y-107120003D01*
G75*
G02*
X163725007Y-107370000I-249997J0D01*
G01*
X161525001Y-107370000D01*
G75*
G02*
X161275004Y-107120003I0J249997D01*
G01*
X161275004Y-106294997D01*
G75*
G02*
X161525001Y-106045000I249997J0D01*
G01*
G37*
G36*
G01*
X161525001Y-102920000D02*
X163725007Y-102920000D01*
G75*
G02*
X163975004Y-103169997I0J-249997D01*
G01*
X163975004Y-103995003D01*
G75*
G02*
X163725007Y-104245000I-249997J0D01*
G01*
X161525001Y-104245000D01*
G75*
G02*
X161275004Y-103995003I0J249997D01*
G01*
X161275004Y-103169997D01*
G75*
G02*
X161525001Y-102920000I249997J0D01*
G01*
G37*
G36*
G01*
X164724998Y-92055000D02*
X166925004Y-92055000D01*
G75*
G02*
X167175001Y-92304997I0J-249997D01*
G01*
X167175001Y-93130003D01*
G75*
G02*
X166925004Y-93380000I-249997J0D01*
G01*
X164724998Y-93380000D01*
G75*
G02*
X164475001Y-93130003I0J249997D01*
G01*
X164475001Y-92304997D01*
G75*
G02*
X164724998Y-92055000I249997J0D01*
G01*
G37*
G36*
G01*
X164724998Y-88930000D02*
X166925004Y-88930000D01*
G75*
G02*
X167175001Y-89179997I0J-249997D01*
G01*
X167175001Y-90005003D01*
G75*
G02*
X166925004Y-90255000I-249997J0D01*
G01*
X164724998Y-90255000D01*
G75*
G02*
X164475001Y-90005003I0J249997D01*
G01*
X164475001Y-89179997D01*
G75*
G02*
X164724998Y-88930000I249997J0D01*
G01*
G37*
G36*
G01*
X138775023Y-106045000D02*
X140975029Y-106045000D01*
G75*
G02*
X141225026Y-106294997I0J-249997D01*
G01*
X141225026Y-107120003D01*
G75*
G02*
X140975029Y-107370000I-249997J0D01*
G01*
X138775023Y-107370000D01*
G75*
G02*
X138525026Y-107120003I0J249997D01*
G01*
X138525026Y-106294997D01*
G75*
G02*
X138775023Y-106045000I249997J0D01*
G01*
G37*
G36*
G01*
X138775023Y-102920000D02*
X140975029Y-102920000D01*
G75*
G02*
X141225026Y-103169997I0J-249997D01*
G01*
X141225026Y-103995003D01*
G75*
G02*
X140975029Y-104245000I-249997J0D01*
G01*
X138775023Y-104245000D01*
G75*
G02*
X138525026Y-103995003I0J249997D01*
G01*
X138525026Y-103169997D01*
G75*
G02*
X138775023Y-102920000I249997J0D01*
G01*
G37*
G36*
G01*
X168024997Y-106045000D02*
X170225003Y-106045000D01*
G75*
G02*
X170475000Y-106294997I0J-249997D01*
G01*
X170475000Y-107120003D01*
G75*
G02*
X170225003Y-107370000I-249997J0D01*
G01*
X168024997Y-107370000D01*
G75*
G02*
X167775000Y-107120003I0J249997D01*
G01*
X167775000Y-106294997D01*
G75*
G02*
X168024997Y-106045000I249997J0D01*
G01*
G37*
G36*
G01*
X168024997Y-102920000D02*
X170225003Y-102920000D01*
G75*
G02*
X170475000Y-103169997I0J-249997D01*
G01*
X170475000Y-103995003D01*
G75*
G02*
X170225003Y-104245000I-249997J0D01*
G01*
X168024997Y-104245000D01*
G75*
G02*
X167775000Y-103995003I0J249997D01*
G01*
X167775000Y-103169997D01*
G75*
G02*
X168024997Y-102920000I249997J0D01*
G01*
G37*
G36*
G01*
X167974997Y-92055000D02*
X170175003Y-92055000D01*
G75*
G02*
X170425000Y-92304997I0J-249997D01*
G01*
X170425000Y-93130003D01*
G75*
G02*
X170175003Y-93380000I-249997J0D01*
G01*
X167974997Y-93380000D01*
G75*
G02*
X167725000Y-93130003I0J249997D01*
G01*
X167725000Y-92304997D01*
G75*
G02*
X167974997Y-92055000I249997J0D01*
G01*
G37*
G36*
G01*
X167974997Y-88930000D02*
X170175003Y-88930000D01*
G75*
G02*
X170425000Y-89179997I0J-249997D01*
G01*
X170425000Y-90005003D01*
G75*
G02*
X170175003Y-90255000I-249997J0D01*
G01*
X167974997Y-90255000D01*
G75*
G02*
X167725000Y-90005003I0J249997D01*
G01*
X167725000Y-89179997D01*
G75*
G02*
X167974997Y-88930000I249997J0D01*
G01*
G37*
G36*
G01*
X132225012Y-92055000D02*
X134425018Y-92055000D01*
G75*
G02*
X134675015Y-92304997I0J-249997D01*
G01*
X134675015Y-93130003D01*
G75*
G02*
X134425018Y-93380000I-249997J0D01*
G01*
X132225012Y-93380000D01*
G75*
G02*
X131975015Y-93130003I0J249997D01*
G01*
X131975015Y-92304997D01*
G75*
G02*
X132225012Y-92055000I249997J0D01*
G01*
G37*
G36*
G01*
X132225012Y-88930000D02*
X134425018Y-88930000D01*
G75*
G02*
X134675015Y-89179997I0J-249997D01*
G01*
X134675015Y-90005003D01*
G75*
G02*
X134425018Y-90255000I-249997J0D01*
G01*
X132225012Y-90255000D01*
G75*
G02*
X131975015Y-90005003I0J249997D01*
G01*
X131975015Y-89179997D01*
G75*
G02*
X132225012Y-88930000I249997J0D01*
G01*
G37*
G36*
G01*
X148525009Y-106045000D02*
X150725015Y-106045000D01*
G75*
G02*
X150975012Y-106294997I0J-249997D01*
G01*
X150975012Y-107120003D01*
G75*
G02*
X150725015Y-107370000I-249997J0D01*
G01*
X148525009Y-107370000D01*
G75*
G02*
X148275012Y-107120003I0J249997D01*
G01*
X148275012Y-106294997D01*
G75*
G02*
X148525009Y-106045000I249997J0D01*
G01*
G37*
G36*
G01*
X148525009Y-102920000D02*
X150725015Y-102920000D01*
G75*
G02*
X150975012Y-103169997I0J-249997D01*
G01*
X150975012Y-103995003D01*
G75*
G02*
X150725015Y-104245000I-249997J0D01*
G01*
X148525009Y-104245000D01*
G75*
G02*
X148275012Y-103995003I0J249997D01*
G01*
X148275012Y-103169997D01*
G75*
G02*
X148525009Y-102920000I249997J0D01*
G01*
G37*
G36*
G01*
X151775007Y-106045000D02*
X153975013Y-106045000D01*
G75*
G02*
X154225010Y-106294997I0J-249997D01*
G01*
X154225010Y-107120003D01*
G75*
G02*
X153975013Y-107370000I-249997J0D01*
G01*
X151775007Y-107370000D01*
G75*
G02*
X151525010Y-107120003I0J249997D01*
G01*
X151525010Y-106294997D01*
G75*
G02*
X151775007Y-106045000I249997J0D01*
G01*
G37*
G36*
G01*
X151775007Y-102920000D02*
X153975013Y-102920000D01*
G75*
G02*
X154225010Y-103169997I0J-249997D01*
G01*
X154225010Y-103995003D01*
G75*
G02*
X153975013Y-104245000I-249997J0D01*
G01*
X151775007Y-104245000D01*
G75*
G02*
X151525010Y-103995003I0J249997D01*
G01*
X151525010Y-103169997D01*
G75*
G02*
X151775007Y-102920000I249997J0D01*
G01*
G37*
G36*
G01*
X138725010Y-92055000D02*
X140925016Y-92055000D01*
G75*
G02*
X141175013Y-92304997I0J-249997D01*
G01*
X141175013Y-93130003D01*
G75*
G02*
X140925016Y-93380000I-249997J0D01*
G01*
X138725010Y-93380000D01*
G75*
G02*
X138475013Y-93130003I0J249997D01*
G01*
X138475013Y-92304997D01*
G75*
G02*
X138725010Y-92055000I249997J0D01*
G01*
G37*
G36*
G01*
X138725010Y-88930000D02*
X140925016Y-88930000D01*
G75*
G02*
X141175013Y-89179997I0J-249997D01*
G01*
X141175013Y-90005003D01*
G75*
G02*
X140925016Y-90255000I-249997J0D01*
G01*
X138725010Y-90255000D01*
G75*
G02*
X138475013Y-90005003I0J249997D01*
G01*
X138475013Y-89179997D01*
G75*
G02*
X138725010Y-88930000I249997J0D01*
G01*
G37*
G36*
G01*
X124137534Y-105470000D02*
X124612534Y-105470000D01*
G75*
G02*
X124850034Y-105707500I0J-237500D01*
G01*
X124850034Y-106307500D01*
G75*
G02*
X124612534Y-106545000I-237500J0D01*
G01*
X124137534Y-106545000D01*
G75*
G02*
X123900034Y-106307500I0J237500D01*
G01*
X123900034Y-105707500D01*
G75*
G02*
X124137534Y-105470000I237500J0D01*
G01*
G37*
G36*
G01*
X124137534Y-103745000D02*
X124612534Y-103745000D01*
G75*
G02*
X124850034Y-103982500I0J-237500D01*
G01*
X124850034Y-104582500D01*
G75*
G02*
X124612534Y-104820000I-237500J0D01*
G01*
X124137534Y-104820000D01*
G75*
G02*
X123900034Y-104582500I0J237500D01*
G01*
X123900034Y-103982500D01*
G75*
G02*
X124137534Y-103745000I237500J0D01*
G01*
G37*
G36*
G01*
X171387500Y-105457500D02*
X171862500Y-105457500D01*
G75*
G02*
X172100000Y-105695000I0J-237500D01*
G01*
X172100000Y-106295000D01*
G75*
G02*
X171862500Y-106532500I-237500J0D01*
G01*
X171387500Y-106532500D01*
G75*
G02*
X171150000Y-106295000I0J237500D01*
G01*
X171150000Y-105695000D01*
G75*
G02*
X171387500Y-105457500I237500J0D01*
G01*
G37*
G36*
G01*
X171387500Y-103732500D02*
X171862500Y-103732500D01*
G75*
G02*
X172100000Y-103970000I0J-237500D01*
G01*
X172100000Y-104570000D01*
G75*
G02*
X171862500Y-104807500I-237500J0D01*
G01*
X171387500Y-104807500D01*
G75*
G02*
X171150000Y-104570000I0J237500D01*
G01*
X171150000Y-103970000D01*
G75*
G02*
X171387500Y-103732500I237500J0D01*
G01*
G37*
G36*
G01*
X122637500Y-119037500D02*
X123112500Y-119037500D01*
G75*
G02*
X123350000Y-119275000I0J-237500D01*
G01*
X123350000Y-119875000D01*
G75*
G02*
X123112500Y-120112500I-237500J0D01*
G01*
X122637500Y-120112500D01*
G75*
G02*
X122400000Y-119875000I0J237500D01*
G01*
X122400000Y-119275000D01*
G75*
G02*
X122637500Y-119037500I237500J0D01*
G01*
G37*
G36*
G01*
X122637500Y-117312500D02*
X123112500Y-117312500D01*
G75*
G02*
X123350000Y-117550000I0J-237500D01*
G01*
X123350000Y-118150000D01*
G75*
G02*
X123112500Y-118387500I-237500J0D01*
G01*
X122637500Y-118387500D01*
G75*
G02*
X122400000Y-118150000I0J237500D01*
G01*
X122400000Y-117550000D01*
G75*
G02*
X122637500Y-117312500I237500J0D01*
G01*
G37*
G36*
G01*
X172887500Y-119037500D02*
X173362500Y-119037500D01*
G75*
G02*
X173600000Y-119275000I0J-237500D01*
G01*
X173600000Y-119875000D01*
G75*
G02*
X173362500Y-120112500I-237500J0D01*
G01*
X172887500Y-120112500D01*
G75*
G02*
X172650000Y-119875000I0J237500D01*
G01*
X172650000Y-119275000D01*
G75*
G02*
X172887500Y-119037500I237500J0D01*
G01*
G37*
G36*
G01*
X172887500Y-117312500D02*
X173362500Y-117312500D01*
G75*
G02*
X173600000Y-117550000I0J-237500D01*
G01*
X173600000Y-118150000D01*
G75*
G02*
X173362500Y-118387500I-237500J0D01*
G01*
X172887500Y-118387500D01*
G75*
G02*
X172650000Y-118150000I0J237500D01*
G01*
X172650000Y-117550000D01*
G75*
G02*
X172887500Y-117312500I237500J0D01*
G01*
G37*
G36*
G01*
X124137500Y-119037500D02*
X124612500Y-119037500D01*
G75*
G02*
X124850000Y-119275000I0J-237500D01*
G01*
X124850000Y-119875000D01*
G75*
G02*
X124612500Y-120112500I-237500J0D01*
G01*
X124137500Y-120112500D01*
G75*
G02*
X123900000Y-119875000I0J237500D01*
G01*
X123900000Y-119275000D01*
G75*
G02*
X124137500Y-119037500I237500J0D01*
G01*
G37*
G36*
G01*
X124137500Y-117312500D02*
X124612500Y-117312500D01*
G75*
G02*
X124850000Y-117550000I0J-237500D01*
G01*
X124850000Y-118150000D01*
G75*
G02*
X124612500Y-118387500I-237500J0D01*
G01*
X124137500Y-118387500D01*
G75*
G02*
X123900000Y-118150000I0J237500D01*
G01*
X123900000Y-117550000D01*
G75*
G02*
X124137500Y-117312500I237500J0D01*
G01*
G37*
G36*
G01*
X168024997Y-119612500D02*
X170225003Y-119612500D01*
G75*
G02*
X170475000Y-119862497I0J-249997D01*
G01*
X170475000Y-120687503D01*
G75*
G02*
X170225003Y-120937500I-249997J0D01*
G01*
X168024997Y-120937500D01*
G75*
G02*
X167775000Y-120687503I0J249997D01*
G01*
X167775000Y-119862497D01*
G75*
G02*
X168024997Y-119612500I249997J0D01*
G01*
G37*
G36*
G01*
X168024997Y-116487500D02*
X170225003Y-116487500D01*
G75*
G02*
X170475000Y-116737497I0J-249997D01*
G01*
X170475000Y-117562503D01*
G75*
G02*
X170225003Y-117812500I-249997J0D01*
G01*
X168024997Y-117812500D01*
G75*
G02*
X167775000Y-117562503I0J249997D01*
G01*
X167775000Y-116737497D01*
G75*
G02*
X168024997Y-116487500I249997J0D01*
G01*
G37*
G36*
G01*
X138774997Y-119612500D02*
X140975003Y-119612500D01*
G75*
G02*
X141225000Y-119862497I0J-249997D01*
G01*
X141225000Y-120687503D01*
G75*
G02*
X140975003Y-120937500I-249997J0D01*
G01*
X138774997Y-120937500D01*
G75*
G02*
X138525000Y-120687503I0J249997D01*
G01*
X138525000Y-119862497D01*
G75*
G02*
X138774997Y-119612500I249997J0D01*
G01*
G37*
G36*
G01*
X138774997Y-116487500D02*
X140975003Y-116487500D01*
G75*
G02*
X141225000Y-116737497I0J-249997D01*
G01*
X141225000Y-117562503D01*
G75*
G02*
X140975003Y-117812500I-249997J0D01*
G01*
X138774997Y-117812500D01*
G75*
G02*
X138525000Y-117562503I0J249997D01*
G01*
X138525000Y-116737497D01*
G75*
G02*
X138774997Y-116487500I249997J0D01*
G01*
G37*
G36*
G01*
X125774997Y-119612500D02*
X127975003Y-119612500D01*
G75*
G02*
X128225000Y-119862497I0J-249997D01*
G01*
X128225000Y-120687503D01*
G75*
G02*
X127975003Y-120937500I-249997J0D01*
G01*
X125774997Y-120937500D01*
G75*
G02*
X125525000Y-120687503I0J249997D01*
G01*
X125525000Y-119862497D01*
G75*
G02*
X125774997Y-119612500I249997J0D01*
G01*
G37*
G36*
G01*
X125774997Y-116487500D02*
X127975003Y-116487500D01*
G75*
G02*
X128225000Y-116737497I0J-249997D01*
G01*
X128225000Y-117562503D01*
G75*
G02*
X127975003Y-117812500I-249997J0D01*
G01*
X125774997Y-117812500D01*
G75*
G02*
X125525000Y-117562503I0J249997D01*
G01*
X125525000Y-116737497D01*
G75*
G02*
X125774997Y-116487500I249997J0D01*
G01*
G37*
G36*
G01*
X148524997Y-119612500D02*
X150725003Y-119612500D01*
G75*
G02*
X150975000Y-119862497I0J-249997D01*
G01*
X150975000Y-120687503D01*
G75*
G02*
X150725003Y-120937500I-249997J0D01*
G01*
X148524997Y-120937500D01*
G75*
G02*
X148275000Y-120687503I0J249997D01*
G01*
X148275000Y-119862497D01*
G75*
G02*
X148524997Y-119612500I249997J0D01*
G01*
G37*
G36*
G01*
X148524997Y-116487500D02*
X150725003Y-116487500D01*
G75*
G02*
X150975000Y-116737497I0J-249997D01*
G01*
X150975000Y-117562503D01*
G75*
G02*
X150725003Y-117812500I-249997J0D01*
G01*
X148524997Y-117812500D01*
G75*
G02*
X148275000Y-117562503I0J249997D01*
G01*
X148275000Y-116737497D01*
G75*
G02*
X148524997Y-116487500I249997J0D01*
G01*
G37*
G36*
G01*
X129024997Y-119612500D02*
X131225003Y-119612500D01*
G75*
G02*
X131475000Y-119862497I0J-249997D01*
G01*
X131475000Y-120687503D01*
G75*
G02*
X131225003Y-120937500I-249997J0D01*
G01*
X129024997Y-120937500D01*
G75*
G02*
X128775000Y-120687503I0J249997D01*
G01*
X128775000Y-119862497D01*
G75*
G02*
X129024997Y-119612500I249997J0D01*
G01*
G37*
G36*
G01*
X129024997Y-116487500D02*
X131225003Y-116487500D01*
G75*
G02*
X131475000Y-116737497I0J-249997D01*
G01*
X131475000Y-117562503D01*
G75*
G02*
X131225003Y-117812500I-249997J0D01*
G01*
X129024997Y-117812500D01*
G75*
G02*
X128775000Y-117562503I0J249997D01*
G01*
X128775000Y-116737497D01*
G75*
G02*
X129024997Y-116487500I249997J0D01*
G01*
G37*
G36*
G01*
X158274997Y-119612500D02*
X160475003Y-119612500D01*
G75*
G02*
X160725000Y-119862497I0J-249997D01*
G01*
X160725000Y-120687503D01*
G75*
G02*
X160475003Y-120937500I-249997J0D01*
G01*
X158274997Y-120937500D01*
G75*
G02*
X158025000Y-120687503I0J249997D01*
G01*
X158025000Y-119862497D01*
G75*
G02*
X158274997Y-119612500I249997J0D01*
G01*
G37*
G36*
G01*
X158274997Y-116487500D02*
X160475003Y-116487500D01*
G75*
G02*
X160725000Y-116737497I0J-249997D01*
G01*
X160725000Y-117562503D01*
G75*
G02*
X160475003Y-117812500I-249997J0D01*
G01*
X158274997Y-117812500D01*
G75*
G02*
X158025000Y-117562503I0J249997D01*
G01*
X158025000Y-116737497D01*
G75*
G02*
X158274997Y-116487500I249997J0D01*
G01*
G37*
G36*
G01*
X155024997Y-119612500D02*
X157225003Y-119612500D01*
G75*
G02*
X157475000Y-119862497I0J-249997D01*
G01*
X157475000Y-120687503D01*
G75*
G02*
X157225003Y-120937500I-249997J0D01*
G01*
X155024997Y-120937500D01*
G75*
G02*
X154775000Y-120687503I0J249997D01*
G01*
X154775000Y-119862497D01*
G75*
G02*
X155024997Y-119612500I249997J0D01*
G01*
G37*
G36*
G01*
X155024997Y-116487500D02*
X157225003Y-116487500D01*
G75*
G02*
X157475000Y-116737497I0J-249997D01*
G01*
X157475000Y-117562503D01*
G75*
G02*
X157225003Y-117812500I-249997J0D01*
G01*
X155024997Y-117812500D01*
G75*
G02*
X154775000Y-117562503I0J249997D01*
G01*
X154775000Y-116737497D01*
G75*
G02*
X155024997Y-116487500I249997J0D01*
G01*
G37*
G36*
G01*
X145274997Y-119612500D02*
X147475003Y-119612500D01*
G75*
G02*
X147725000Y-119862497I0J-249997D01*
G01*
X147725000Y-120687503D01*
G75*
G02*
X147475003Y-120937500I-249997J0D01*
G01*
X145274997Y-120937500D01*
G75*
G02*
X145025000Y-120687503I0J249997D01*
G01*
X145025000Y-119862497D01*
G75*
G02*
X145274997Y-119612500I249997J0D01*
G01*
G37*
G36*
G01*
X145274997Y-116487500D02*
X147475003Y-116487500D01*
G75*
G02*
X147725000Y-116737497I0J-249997D01*
G01*
X147725000Y-117562503D01*
G75*
G02*
X147475003Y-117812500I-249997J0D01*
G01*
X145274997Y-117812500D01*
G75*
G02*
X145025000Y-117562503I0J249997D01*
G01*
X145025000Y-116737497D01*
G75*
G02*
X145274997Y-116487500I249997J0D01*
G01*
G37*
G36*
G01*
X135524997Y-119612500D02*
X137725003Y-119612500D01*
G75*
G02*
X137975000Y-119862497I0J-249997D01*
G01*
X137975000Y-120687503D01*
G75*
G02*
X137725003Y-120937500I-249997J0D01*
G01*
X135524997Y-120937500D01*
G75*
G02*
X135275000Y-120687503I0J249997D01*
G01*
X135275000Y-119862497D01*
G75*
G02*
X135524997Y-119612500I249997J0D01*
G01*
G37*
G36*
G01*
X135524997Y-116487500D02*
X137725003Y-116487500D01*
G75*
G02*
X137975000Y-116737497I0J-249997D01*
G01*
X137975000Y-117562503D01*
G75*
G02*
X137725003Y-117812500I-249997J0D01*
G01*
X135524997Y-117812500D01*
G75*
G02*
X135275000Y-117562503I0J249997D01*
G01*
X135275000Y-116737497D01*
G75*
G02*
X135524997Y-116487500I249997J0D01*
G01*
G37*
G36*
G01*
X161524997Y-119612500D02*
X163725003Y-119612500D01*
G75*
G02*
X163975000Y-119862497I0J-249997D01*
G01*
X163975000Y-120687503D01*
G75*
G02*
X163725003Y-120937500I-249997J0D01*
G01*
X161524997Y-120937500D01*
G75*
G02*
X161275000Y-120687503I0J249997D01*
G01*
X161275000Y-119862497D01*
G75*
G02*
X161524997Y-119612500I249997J0D01*
G01*
G37*
G36*
G01*
X161524997Y-116487500D02*
X163725003Y-116487500D01*
G75*
G02*
X163975000Y-116737497I0J-249997D01*
G01*
X163975000Y-117562503D01*
G75*
G02*
X163725003Y-117812500I-249997J0D01*
G01*
X161524997Y-117812500D01*
G75*
G02*
X161275000Y-117562503I0J249997D01*
G01*
X161275000Y-116737497D01*
G75*
G02*
X161524997Y-116487500I249997J0D01*
G01*
G37*
G36*
G01*
X142024997Y-119612500D02*
X144225003Y-119612500D01*
G75*
G02*
X144475000Y-119862497I0J-249997D01*
G01*
X144475000Y-120687503D01*
G75*
G02*
X144225003Y-120937500I-249997J0D01*
G01*
X142024997Y-120937500D01*
G75*
G02*
X141775000Y-120687503I0J249997D01*
G01*
X141775000Y-119862497D01*
G75*
G02*
X142024997Y-119612500I249997J0D01*
G01*
G37*
G36*
G01*
X142024997Y-116487500D02*
X144225003Y-116487500D01*
G75*
G02*
X144475000Y-116737497I0J-249997D01*
G01*
X144475000Y-117562503D01*
G75*
G02*
X144225003Y-117812500I-249997J0D01*
G01*
X142024997Y-117812500D01*
G75*
G02*
X141775000Y-117562503I0J249997D01*
G01*
X141775000Y-116737497D01*
G75*
G02*
X142024997Y-116487500I249997J0D01*
G01*
G37*
G36*
G01*
X164774997Y-119612500D02*
X166975003Y-119612500D01*
G75*
G02*
X167225000Y-119862497I0J-249997D01*
G01*
X167225000Y-120687503D01*
G75*
G02*
X166975003Y-120937500I-249997J0D01*
G01*
X164774997Y-120937500D01*
G75*
G02*
X164525000Y-120687503I0J249997D01*
G01*
X164525000Y-119862497D01*
G75*
G02*
X164774997Y-119612500I249997J0D01*
G01*
G37*
G36*
G01*
X164774997Y-116487500D02*
X166975003Y-116487500D01*
G75*
G02*
X167225000Y-116737497I0J-249997D01*
G01*
X167225000Y-117562503D01*
G75*
G02*
X166975003Y-117812500I-249997J0D01*
G01*
X164774997Y-117812500D01*
G75*
G02*
X164525000Y-117562503I0J249997D01*
G01*
X164525000Y-116737497D01*
G75*
G02*
X164774997Y-116487500I249997J0D01*
G01*
G37*
G36*
G01*
X151774997Y-119612500D02*
X153975003Y-119612500D01*
G75*
G02*
X154225000Y-119862497I0J-249997D01*
G01*
X154225000Y-120687503D01*
G75*
G02*
X153975003Y-120937500I-249997J0D01*
G01*
X151774997Y-120937500D01*
G75*
G02*
X151525000Y-120687503I0J249997D01*
G01*
X151525000Y-119862497D01*
G75*
G02*
X151774997Y-119612500I249997J0D01*
G01*
G37*
G36*
G01*
X151774997Y-116487500D02*
X153975003Y-116487500D01*
G75*
G02*
X154225000Y-116737497I0J-249997D01*
G01*
X154225000Y-117562503D01*
G75*
G02*
X153975003Y-117812500I-249997J0D01*
G01*
X151774997Y-117812500D01*
G75*
G02*
X151525000Y-117562503I0J249997D01*
G01*
X151525000Y-116737497D01*
G75*
G02*
X151774997Y-116487500I249997J0D01*
G01*
G37*
G36*
G01*
X132274997Y-119612500D02*
X134475003Y-119612500D01*
G75*
G02*
X134725000Y-119862497I0J-249997D01*
G01*
X134725000Y-120687503D01*
G75*
G02*
X134475003Y-120937500I-249997J0D01*
G01*
X132274997Y-120937500D01*
G75*
G02*
X132025000Y-120687503I0J249997D01*
G01*
X132025000Y-119862497D01*
G75*
G02*
X132274997Y-119612500I249997J0D01*
G01*
G37*
G36*
G01*
X132274997Y-116487500D02*
X134475003Y-116487500D01*
G75*
G02*
X134725000Y-116737497I0J-249997D01*
G01*
X134725000Y-117562503D01*
G75*
G02*
X134475003Y-117812500I-249997J0D01*
G01*
X132274997Y-117812500D01*
G75*
G02*
X132025000Y-117562503I0J249997D01*
G01*
X132025000Y-116737497D01*
G75*
G02*
X132274997Y-116487500I249997J0D01*
G01*
G37*
G36*
G01*
X171387500Y-119037500D02*
X171862500Y-119037500D01*
G75*
G02*
X172100000Y-119275000I0J-237500D01*
G01*
X172100000Y-119875000D01*
G75*
G02*
X171862500Y-120112500I-237500J0D01*
G01*
X171387500Y-120112500D01*
G75*
G02*
X171150000Y-119875000I0J237500D01*
G01*
X171150000Y-119275000D01*
G75*
G02*
X171387500Y-119037500I237500J0D01*
G01*
G37*
G36*
G01*
X171387500Y-117312500D02*
X171862500Y-117312500D01*
G75*
G02*
X172100000Y-117550000I0J-237500D01*
G01*
X172100000Y-118150000D01*
G75*
G02*
X171862500Y-118387500I-237500J0D01*
G01*
X171387500Y-118387500D01*
G75*
G02*
X171150000Y-118150000I0J237500D01*
G01*
X171150000Y-117550000D01*
G75*
G02*
X171387500Y-117312500I237500J0D01*
G01*
G37*
G36*
G01*
X171387500Y-112137500D02*
X171862500Y-112137500D01*
G75*
G02*
X172100000Y-112375000I0J-237500D01*
G01*
X172100000Y-112975000D01*
G75*
G02*
X171862500Y-113212500I-237500J0D01*
G01*
X171387500Y-113212500D01*
G75*
G02*
X171150000Y-112975000I0J237500D01*
G01*
X171150000Y-112375000D01*
G75*
G02*
X171387500Y-112137500I237500J0D01*
G01*
G37*
G36*
G01*
X171387500Y-110412500D02*
X171862500Y-110412500D01*
G75*
G02*
X172100000Y-110650000I0J-237500D01*
G01*
X172100000Y-111250000D01*
G75*
G02*
X171862500Y-111487500I-237500J0D01*
G01*
X171387500Y-111487500D01*
G75*
G02*
X171150000Y-111250000I0J237500D01*
G01*
X171150000Y-110650000D01*
G75*
G02*
X171387500Y-110412500I237500J0D01*
G01*
G37*
G36*
G01*
X122637500Y-112137500D02*
X123112500Y-112137500D01*
G75*
G02*
X123350000Y-112375000I0J-237500D01*
G01*
X123350000Y-112975000D01*
G75*
G02*
X123112500Y-113212500I-237500J0D01*
G01*
X122637500Y-113212500D01*
G75*
G02*
X122400000Y-112975000I0J237500D01*
G01*
X122400000Y-112375000D01*
G75*
G02*
X122637500Y-112137500I237500J0D01*
G01*
G37*
G36*
G01*
X122637500Y-110412500D02*
X123112500Y-110412500D01*
G75*
G02*
X123350000Y-110650000I0J-237500D01*
G01*
X123350000Y-111250000D01*
G75*
G02*
X123112500Y-111487500I-237500J0D01*
G01*
X122637500Y-111487500D01*
G75*
G02*
X122400000Y-111250000I0J237500D01*
G01*
X122400000Y-110650000D01*
G75*
G02*
X122637500Y-110412500I237500J0D01*
G01*
G37*
G36*
G01*
X125774997Y-112712500D02*
X127975003Y-112712500D01*
G75*
G02*
X128225000Y-112962497I0J-249997D01*
G01*
X128225000Y-113787503D01*
G75*
G02*
X127975003Y-114037500I-249997J0D01*
G01*
X125774997Y-114037500D01*
G75*
G02*
X125525000Y-113787503I0J249997D01*
G01*
X125525000Y-112962497D01*
G75*
G02*
X125774997Y-112712500I249997J0D01*
G01*
G37*
G36*
G01*
X125774997Y-109587500D02*
X127975003Y-109587500D01*
G75*
G02*
X128225000Y-109837497I0J-249997D01*
G01*
X128225000Y-110662503D01*
G75*
G02*
X127975003Y-110912500I-249997J0D01*
G01*
X125774997Y-110912500D01*
G75*
G02*
X125525000Y-110662503I0J249997D01*
G01*
X125525000Y-109837497D01*
G75*
G02*
X125774997Y-109587500I249997J0D01*
G01*
G37*
G36*
G01*
X129024997Y-112712500D02*
X131225003Y-112712500D01*
G75*
G02*
X131475000Y-112962497I0J-249997D01*
G01*
X131475000Y-113787503D01*
G75*
G02*
X131225003Y-114037500I-249997J0D01*
G01*
X129024997Y-114037500D01*
G75*
G02*
X128775000Y-113787503I0J249997D01*
G01*
X128775000Y-112962497D01*
G75*
G02*
X129024997Y-112712500I249997J0D01*
G01*
G37*
G36*
G01*
X129024997Y-109587500D02*
X131225003Y-109587500D01*
G75*
G02*
X131475000Y-109837497I0J-249997D01*
G01*
X131475000Y-110662503D01*
G75*
G02*
X131225003Y-110912500I-249997J0D01*
G01*
X129024997Y-110912500D01*
G75*
G02*
X128775000Y-110662503I0J249997D01*
G01*
X128775000Y-109837497D01*
G75*
G02*
X129024997Y-109587500I249997J0D01*
G01*
G37*
G36*
G01*
X132274997Y-112712500D02*
X134475003Y-112712500D01*
G75*
G02*
X134725000Y-112962497I0J-249997D01*
G01*
X134725000Y-113787503D01*
G75*
G02*
X134475003Y-114037500I-249997J0D01*
G01*
X132274997Y-114037500D01*
G75*
G02*
X132025000Y-113787503I0J249997D01*
G01*
X132025000Y-112962497D01*
G75*
G02*
X132274997Y-112712500I249997J0D01*
G01*
G37*
G36*
G01*
X132274997Y-109587500D02*
X134475003Y-109587500D01*
G75*
G02*
X134725000Y-109837497I0J-249997D01*
G01*
X134725000Y-110662503D01*
G75*
G02*
X134475003Y-110912500I-249997J0D01*
G01*
X132274997Y-110912500D01*
G75*
G02*
X132025000Y-110662503I0J249997D01*
G01*
X132025000Y-109837497D01*
G75*
G02*
X132274997Y-109587500I249997J0D01*
G01*
G37*
G36*
G01*
X145274997Y-112712500D02*
X147475003Y-112712500D01*
G75*
G02*
X147725000Y-112962497I0J-249997D01*
G01*
X147725000Y-113787503D01*
G75*
G02*
X147475003Y-114037500I-249997J0D01*
G01*
X145274997Y-114037500D01*
G75*
G02*
X145025000Y-113787503I0J249997D01*
G01*
X145025000Y-112962497D01*
G75*
G02*
X145274997Y-112712500I249997J0D01*
G01*
G37*
G36*
G01*
X145274997Y-109587500D02*
X147475003Y-109587500D01*
G75*
G02*
X147725000Y-109837497I0J-249997D01*
G01*
X147725000Y-110662503D01*
G75*
G02*
X147475003Y-110912500I-249997J0D01*
G01*
X145274997Y-110912500D01*
G75*
G02*
X145025000Y-110662503I0J249997D01*
G01*
X145025000Y-109837497D01*
G75*
G02*
X145274997Y-109587500I249997J0D01*
G01*
G37*
G36*
G01*
X135524997Y-112712500D02*
X137725003Y-112712500D01*
G75*
G02*
X137975000Y-112962497I0J-249997D01*
G01*
X137975000Y-113787503D01*
G75*
G02*
X137725003Y-114037500I-249997J0D01*
G01*
X135524997Y-114037500D01*
G75*
G02*
X135275000Y-113787503I0J249997D01*
G01*
X135275000Y-112962497D01*
G75*
G02*
X135524997Y-112712500I249997J0D01*
G01*
G37*
G36*
G01*
X135524997Y-109587500D02*
X137725003Y-109587500D01*
G75*
G02*
X137975000Y-109837497I0J-249997D01*
G01*
X137975000Y-110662503D01*
G75*
G02*
X137725003Y-110912500I-249997J0D01*
G01*
X135524997Y-110912500D01*
G75*
G02*
X135275000Y-110662503I0J249997D01*
G01*
X135275000Y-109837497D01*
G75*
G02*
X135524997Y-109587500I249997J0D01*
G01*
G37*
G36*
G01*
X168024997Y-112712500D02*
X170225003Y-112712500D01*
G75*
G02*
X170475000Y-112962497I0J-249997D01*
G01*
X170475000Y-113787503D01*
G75*
G02*
X170225003Y-114037500I-249997J0D01*
G01*
X168024997Y-114037500D01*
G75*
G02*
X167775000Y-113787503I0J249997D01*
G01*
X167775000Y-112962497D01*
G75*
G02*
X168024997Y-112712500I249997J0D01*
G01*
G37*
G36*
G01*
X168024997Y-109587500D02*
X170225003Y-109587500D01*
G75*
G02*
X170475000Y-109837497I0J-249997D01*
G01*
X170475000Y-110662503D01*
G75*
G02*
X170225003Y-110912500I-249997J0D01*
G01*
X168024997Y-110912500D01*
G75*
G02*
X167775000Y-110662503I0J249997D01*
G01*
X167775000Y-109837497D01*
G75*
G02*
X168024997Y-109587500I249997J0D01*
G01*
G37*
G36*
G01*
X151774997Y-112712500D02*
X153975003Y-112712500D01*
G75*
G02*
X154225000Y-112962497I0J-249997D01*
G01*
X154225000Y-113787503D01*
G75*
G02*
X153975003Y-114037500I-249997J0D01*
G01*
X151774997Y-114037500D01*
G75*
G02*
X151525000Y-113787503I0J249997D01*
G01*
X151525000Y-112962497D01*
G75*
G02*
X151774997Y-112712500I249997J0D01*
G01*
G37*
G36*
G01*
X151774997Y-109587500D02*
X153975003Y-109587500D01*
G75*
G02*
X154225000Y-109837497I0J-249997D01*
G01*
X154225000Y-110662503D01*
G75*
G02*
X153975003Y-110912500I-249997J0D01*
G01*
X151774997Y-110912500D01*
G75*
G02*
X151525000Y-110662503I0J249997D01*
G01*
X151525000Y-109837497D01*
G75*
G02*
X151774997Y-109587500I249997J0D01*
G01*
G37*
G36*
G01*
X138774997Y-112712500D02*
X140975003Y-112712500D01*
G75*
G02*
X141225000Y-112962497I0J-249997D01*
G01*
X141225000Y-113787503D01*
G75*
G02*
X140975003Y-114037500I-249997J0D01*
G01*
X138774997Y-114037500D01*
G75*
G02*
X138525000Y-113787503I0J249997D01*
G01*
X138525000Y-112962497D01*
G75*
G02*
X138774997Y-112712500I249997J0D01*
G01*
G37*
G36*
G01*
X138774997Y-109587500D02*
X140975003Y-109587500D01*
G75*
G02*
X141225000Y-109837497I0J-249997D01*
G01*
X141225000Y-110662503D01*
G75*
G02*
X140975003Y-110912500I-249997J0D01*
G01*
X138774997Y-110912500D01*
G75*
G02*
X138525000Y-110662503I0J249997D01*
G01*
X138525000Y-109837497D01*
G75*
G02*
X138774997Y-109587500I249997J0D01*
G01*
G37*
G36*
G01*
X158274997Y-112712500D02*
X160475003Y-112712500D01*
G75*
G02*
X160725000Y-112962497I0J-249997D01*
G01*
X160725000Y-113787503D01*
G75*
G02*
X160475003Y-114037500I-249997J0D01*
G01*
X158274997Y-114037500D01*
G75*
G02*
X158025000Y-113787503I0J249997D01*
G01*
X158025000Y-112962497D01*
G75*
G02*
X158274997Y-112712500I249997J0D01*
G01*
G37*
G36*
G01*
X158274997Y-109587500D02*
X160475003Y-109587500D01*
G75*
G02*
X160725000Y-109837497I0J-249997D01*
G01*
X160725000Y-110662503D01*
G75*
G02*
X160475003Y-110912500I-249997J0D01*
G01*
X158274997Y-110912500D01*
G75*
G02*
X158025000Y-110662503I0J249997D01*
G01*
X158025000Y-109837497D01*
G75*
G02*
X158274997Y-109587500I249997J0D01*
G01*
G37*
G36*
G01*
X142024997Y-112712500D02*
X144225003Y-112712500D01*
G75*
G02*
X144475000Y-112962497I0J-249997D01*
G01*
X144475000Y-113787503D01*
G75*
G02*
X144225003Y-114037500I-249997J0D01*
G01*
X142024997Y-114037500D01*
G75*
G02*
X141775000Y-113787503I0J249997D01*
G01*
X141775000Y-112962497D01*
G75*
G02*
X142024997Y-112712500I249997J0D01*
G01*
G37*
G36*
G01*
X142024997Y-109587500D02*
X144225003Y-109587500D01*
G75*
G02*
X144475000Y-109837497I0J-249997D01*
G01*
X144475000Y-110662503D01*
G75*
G02*
X144225003Y-110912500I-249997J0D01*
G01*
X142024997Y-110912500D01*
G75*
G02*
X141775000Y-110662503I0J249997D01*
G01*
X141775000Y-109837497D01*
G75*
G02*
X142024997Y-109587500I249997J0D01*
G01*
G37*
G36*
G01*
X148524997Y-112712500D02*
X150725003Y-112712500D01*
G75*
G02*
X150975000Y-112962497I0J-249997D01*
G01*
X150975000Y-113787503D01*
G75*
G02*
X150725003Y-114037500I-249997J0D01*
G01*
X148524997Y-114037500D01*
G75*
G02*
X148275000Y-113787503I0J249997D01*
G01*
X148275000Y-112962497D01*
G75*
G02*
X148524997Y-112712500I249997J0D01*
G01*
G37*
G36*
G01*
X148524997Y-109587500D02*
X150725003Y-109587500D01*
G75*
G02*
X150975000Y-109837497I0J-249997D01*
G01*
X150975000Y-110662503D01*
G75*
G02*
X150725003Y-110912500I-249997J0D01*
G01*
X148524997Y-110912500D01*
G75*
G02*
X148275000Y-110662503I0J249997D01*
G01*
X148275000Y-109837497D01*
G75*
G02*
X148524997Y-109587500I249997J0D01*
G01*
G37*
G36*
G01*
X161524997Y-112712500D02*
X163725003Y-112712500D01*
G75*
G02*
X163975000Y-112962497I0J-249997D01*
G01*
X163975000Y-113787503D01*
G75*
G02*
X163725003Y-114037500I-249997J0D01*
G01*
X161524997Y-114037500D01*
G75*
G02*
X161275000Y-113787503I0J249997D01*
G01*
X161275000Y-112962497D01*
G75*
G02*
X161524997Y-112712500I249997J0D01*
G01*
G37*
G36*
G01*
X161524997Y-109587500D02*
X163725003Y-109587500D01*
G75*
G02*
X163975000Y-109837497I0J-249997D01*
G01*
X163975000Y-110662503D01*
G75*
G02*
X163725003Y-110912500I-249997J0D01*
G01*
X161524997Y-110912500D01*
G75*
G02*
X161275000Y-110662503I0J249997D01*
G01*
X161275000Y-109837497D01*
G75*
G02*
X161524997Y-109587500I249997J0D01*
G01*
G37*
G36*
G01*
X155024997Y-112712500D02*
X157225003Y-112712500D01*
G75*
G02*
X157475000Y-112962497I0J-249997D01*
G01*
X157475000Y-113787503D01*
G75*
G02*
X157225003Y-114037500I-249997J0D01*
G01*
X155024997Y-114037500D01*
G75*
G02*
X154775000Y-113787503I0J249997D01*
G01*
X154775000Y-112962497D01*
G75*
G02*
X155024997Y-112712500I249997J0D01*
G01*
G37*
G36*
G01*
X155024997Y-109587500D02*
X157225003Y-109587500D01*
G75*
G02*
X157475000Y-109837497I0J-249997D01*
G01*
X157475000Y-110662503D01*
G75*
G02*
X157225003Y-110912500I-249997J0D01*
G01*
X155024997Y-110912500D01*
G75*
G02*
X154775000Y-110662503I0J249997D01*
G01*
X154775000Y-109837497D01*
G75*
G02*
X155024997Y-109587500I249997J0D01*
G01*
G37*
G36*
G01*
X164774997Y-112712500D02*
X166975003Y-112712500D01*
G75*
G02*
X167225000Y-112962497I0J-249997D01*
G01*
X167225000Y-113787503D01*
G75*
G02*
X166975003Y-114037500I-249997J0D01*
G01*
X164774997Y-114037500D01*
G75*
G02*
X164525000Y-113787503I0J249997D01*
G01*
X164525000Y-112962497D01*
G75*
G02*
X164774997Y-112712500I249997J0D01*
G01*
G37*
G36*
G01*
X164774997Y-109587500D02*
X166975003Y-109587500D01*
G75*
G02*
X167225000Y-109837497I0J-249997D01*
G01*
X167225000Y-110662503D01*
G75*
G02*
X166975003Y-110912500I-249997J0D01*
G01*
X164774997Y-110912500D01*
G75*
G02*
X164525000Y-110662503I0J249997D01*
G01*
X164525000Y-109837497D01*
G75*
G02*
X164774997Y-109587500I249997J0D01*
G01*
G37*
G36*
G01*
X172887500Y-112137500D02*
X173362500Y-112137500D01*
G75*
G02*
X173600000Y-112375000I0J-237500D01*
G01*
X173600000Y-112975000D01*
G75*
G02*
X173362500Y-113212500I-237500J0D01*
G01*
X172887500Y-113212500D01*
G75*
G02*
X172650000Y-112975000I0J237500D01*
G01*
X172650000Y-112375000D01*
G75*
G02*
X172887500Y-112137500I237500J0D01*
G01*
G37*
G36*
G01*
X172887500Y-110412500D02*
X173362500Y-110412500D01*
G75*
G02*
X173600000Y-110650000I0J-237500D01*
G01*
X173600000Y-111250000D01*
G75*
G02*
X173362500Y-111487500I-237500J0D01*
G01*
X172887500Y-111487500D01*
G75*
G02*
X172650000Y-111250000I0J237500D01*
G01*
X172650000Y-110650000D01*
G75*
G02*
X172887500Y-110412500I237500J0D01*
G01*
G37*
G36*
G01*
X124137500Y-112137500D02*
X124612500Y-112137500D01*
G75*
G02*
X124850000Y-112375000I0J-237500D01*
G01*
X124850000Y-112975000D01*
G75*
G02*
X124612500Y-113212500I-237500J0D01*
G01*
X124137500Y-113212500D01*
G75*
G02*
X123900000Y-112975000I0J237500D01*
G01*
X123900000Y-112375000D01*
G75*
G02*
X124137500Y-112137500I237500J0D01*
G01*
G37*
G36*
G01*
X124137500Y-110412500D02*
X124612500Y-110412500D01*
G75*
G02*
X124850000Y-110650000I0J-237500D01*
G01*
X124850000Y-111250000D01*
G75*
G02*
X124612500Y-111487500I-237500J0D01*
G01*
X124137500Y-111487500D01*
G75*
G02*
X123900000Y-111250000I0J237500D01*
G01*
X123900000Y-110650000D01*
G75*
G02*
X124137500Y-110412500I237500J0D01*
G01*
G37*
G36*
G01*
X122637500Y-98475000D02*
X123112500Y-98475000D01*
G75*
G02*
X123350000Y-98712500I0J-237500D01*
G01*
X123350000Y-99312500D01*
G75*
G02*
X123112500Y-99550000I-237500J0D01*
G01*
X122637500Y-99550000D01*
G75*
G02*
X122400000Y-99312500I0J237500D01*
G01*
X122400000Y-98712500D01*
G75*
G02*
X122637500Y-98475000I237500J0D01*
G01*
G37*
G36*
G01*
X122637500Y-96750000D02*
X123112500Y-96750000D01*
G75*
G02*
X123350000Y-96987500I0J-237500D01*
G01*
X123350000Y-97587500D01*
G75*
G02*
X123112500Y-97825000I-237500J0D01*
G01*
X122637500Y-97825000D01*
G75*
G02*
X122400000Y-97587500I0J237500D01*
G01*
X122400000Y-96987500D01*
G75*
G02*
X122637500Y-96750000I237500J0D01*
G01*
G37*
G36*
G01*
X124137500Y-98475000D02*
X124612500Y-98475000D01*
G75*
G02*
X124850000Y-98712500I0J-237500D01*
G01*
X124850000Y-99312500D01*
G75*
G02*
X124612500Y-99550000I-237500J0D01*
G01*
X124137500Y-99550000D01*
G75*
G02*
X123900000Y-99312500I0J237500D01*
G01*
X123900000Y-98712500D01*
G75*
G02*
X124137500Y-98475000I237500J0D01*
G01*
G37*
G36*
G01*
X124137500Y-96750000D02*
X124612500Y-96750000D01*
G75*
G02*
X124850000Y-96987500I0J-237500D01*
G01*
X124850000Y-97587500D01*
G75*
G02*
X124612500Y-97825000I-237500J0D01*
G01*
X124137500Y-97825000D01*
G75*
G02*
X123900000Y-97587500I0J237500D01*
G01*
X123900000Y-96987500D01*
G75*
G02*
X124137500Y-96750000I237500J0D01*
G01*
G37*
G36*
G01*
X161524997Y-99050000D02*
X163725003Y-99050000D01*
G75*
G02*
X163975000Y-99299997I0J-249997D01*
G01*
X163975000Y-100125003D01*
G75*
G02*
X163725003Y-100375000I-249997J0D01*
G01*
X161524997Y-100375000D01*
G75*
G02*
X161275000Y-100125003I0J249997D01*
G01*
X161275000Y-99299997D01*
G75*
G02*
X161524997Y-99050000I249997J0D01*
G01*
G37*
G36*
G01*
X161524997Y-95925000D02*
X163725003Y-95925000D01*
G75*
G02*
X163975000Y-96174997I0J-249997D01*
G01*
X163975000Y-97000003D01*
G75*
G02*
X163725003Y-97250000I-249997J0D01*
G01*
X161524997Y-97250000D01*
G75*
G02*
X161275000Y-97000003I0J249997D01*
G01*
X161275000Y-96174997D01*
G75*
G02*
X161524997Y-95925000I249997J0D01*
G01*
G37*
G36*
G01*
X145274997Y-99050000D02*
X147475003Y-99050000D01*
G75*
G02*
X147725000Y-99299997I0J-249997D01*
G01*
X147725000Y-100125003D01*
G75*
G02*
X147475003Y-100375000I-249997J0D01*
G01*
X145274997Y-100375000D01*
G75*
G02*
X145025000Y-100125003I0J249997D01*
G01*
X145025000Y-99299997D01*
G75*
G02*
X145274997Y-99050000I249997J0D01*
G01*
G37*
G36*
G01*
X145274997Y-95925000D02*
X147475003Y-95925000D01*
G75*
G02*
X147725000Y-96174997I0J-249997D01*
G01*
X147725000Y-97000003D01*
G75*
G02*
X147475003Y-97250000I-249997J0D01*
G01*
X145274997Y-97250000D01*
G75*
G02*
X145025000Y-97000003I0J249997D01*
G01*
X145025000Y-96174997D01*
G75*
G02*
X145274997Y-95925000I249997J0D01*
G01*
G37*
G36*
G01*
X132274997Y-99050000D02*
X134475003Y-99050000D01*
G75*
G02*
X134725000Y-99299997I0J-249997D01*
G01*
X134725000Y-100125003D01*
G75*
G02*
X134475003Y-100375000I-249997J0D01*
G01*
X132274997Y-100375000D01*
G75*
G02*
X132025000Y-100125003I0J249997D01*
G01*
X132025000Y-99299997D01*
G75*
G02*
X132274997Y-99050000I249997J0D01*
G01*
G37*
G36*
G01*
X132274997Y-95925000D02*
X134475003Y-95925000D01*
G75*
G02*
X134725000Y-96174997I0J-249997D01*
G01*
X134725000Y-97000003D01*
G75*
G02*
X134475003Y-97250000I-249997J0D01*
G01*
X132274997Y-97250000D01*
G75*
G02*
X132025000Y-97000003I0J249997D01*
G01*
X132025000Y-96174997D01*
G75*
G02*
X132274997Y-95925000I249997J0D01*
G01*
G37*
G36*
G01*
X164774997Y-99050000D02*
X166975003Y-99050000D01*
G75*
G02*
X167225000Y-99299997I0J-249997D01*
G01*
X167225000Y-100125003D01*
G75*
G02*
X166975003Y-100375000I-249997J0D01*
G01*
X164774997Y-100375000D01*
G75*
G02*
X164525000Y-100125003I0J249997D01*
G01*
X164525000Y-99299997D01*
G75*
G02*
X164774997Y-99050000I249997J0D01*
G01*
G37*
G36*
G01*
X164774997Y-95925000D02*
X166975003Y-95925000D01*
G75*
G02*
X167225000Y-96174997I0J-249997D01*
G01*
X167225000Y-97000003D01*
G75*
G02*
X166975003Y-97250000I-249997J0D01*
G01*
X164774997Y-97250000D01*
G75*
G02*
X164525000Y-97000003I0J249997D01*
G01*
X164525000Y-96174997D01*
G75*
G02*
X164774997Y-95925000I249997J0D01*
G01*
G37*
G36*
G01*
X151774997Y-99050000D02*
X153975003Y-99050000D01*
G75*
G02*
X154225000Y-99299997I0J-249997D01*
G01*
X154225000Y-100125003D01*
G75*
G02*
X153975003Y-100375000I-249997J0D01*
G01*
X151774997Y-100375000D01*
G75*
G02*
X151525000Y-100125003I0J249997D01*
G01*
X151525000Y-99299997D01*
G75*
G02*
X151774997Y-99050000I249997J0D01*
G01*
G37*
G36*
G01*
X151774997Y-95925000D02*
X153975003Y-95925000D01*
G75*
G02*
X154225000Y-96174997I0J-249997D01*
G01*
X154225000Y-97000003D01*
G75*
G02*
X153975003Y-97250000I-249997J0D01*
G01*
X151774997Y-97250000D01*
G75*
G02*
X151525000Y-97000003I0J249997D01*
G01*
X151525000Y-96174997D01*
G75*
G02*
X151774997Y-95925000I249997J0D01*
G01*
G37*
G36*
G01*
X138774997Y-99050000D02*
X140975003Y-99050000D01*
G75*
G02*
X141225000Y-99299997I0J-249997D01*
G01*
X141225000Y-100125003D01*
G75*
G02*
X140975003Y-100375000I-249997J0D01*
G01*
X138774997Y-100375000D01*
G75*
G02*
X138525000Y-100125003I0J249997D01*
G01*
X138525000Y-99299997D01*
G75*
G02*
X138774997Y-99050000I249997J0D01*
G01*
G37*
G36*
G01*
X138774997Y-95925000D02*
X140975003Y-95925000D01*
G75*
G02*
X141225000Y-96174997I0J-249997D01*
G01*
X141225000Y-97000003D01*
G75*
G02*
X140975003Y-97250000I-249997J0D01*
G01*
X138774997Y-97250000D01*
G75*
G02*
X138525000Y-97000003I0J249997D01*
G01*
X138525000Y-96174997D01*
G75*
G02*
X138774997Y-95925000I249997J0D01*
G01*
G37*
G36*
G01*
X168024997Y-99050000D02*
X170225003Y-99050000D01*
G75*
G02*
X170475000Y-99299997I0J-249997D01*
G01*
X170475000Y-100125003D01*
G75*
G02*
X170225003Y-100375000I-249997J0D01*
G01*
X168024997Y-100375000D01*
G75*
G02*
X167775000Y-100125003I0J249997D01*
G01*
X167775000Y-99299997D01*
G75*
G02*
X168024997Y-99050000I249997J0D01*
G01*
G37*
G36*
G01*
X168024997Y-95925000D02*
X170225003Y-95925000D01*
G75*
G02*
X170475000Y-96174997I0J-249997D01*
G01*
X170475000Y-97000003D01*
G75*
G02*
X170225003Y-97250000I-249997J0D01*
G01*
X168024997Y-97250000D01*
G75*
G02*
X167775000Y-97000003I0J249997D01*
G01*
X167775000Y-96174997D01*
G75*
G02*
X168024997Y-95925000I249997J0D01*
G01*
G37*
G36*
G01*
X158274997Y-99050000D02*
X160475003Y-99050000D01*
G75*
G02*
X160725000Y-99299997I0J-249997D01*
G01*
X160725000Y-100125003D01*
G75*
G02*
X160475003Y-100375000I-249997J0D01*
G01*
X158274997Y-100375000D01*
G75*
G02*
X158025000Y-100125003I0J249997D01*
G01*
X158025000Y-99299997D01*
G75*
G02*
X158274997Y-99050000I249997J0D01*
G01*
G37*
G36*
G01*
X158274997Y-95925000D02*
X160475003Y-95925000D01*
G75*
G02*
X160725000Y-96174997I0J-249997D01*
G01*
X160725000Y-97000003D01*
G75*
G02*
X160475003Y-97250000I-249997J0D01*
G01*
X158274997Y-97250000D01*
G75*
G02*
X158025000Y-97000003I0J249997D01*
G01*
X158025000Y-96174997D01*
G75*
G02*
X158274997Y-95925000I249997J0D01*
G01*
G37*
G36*
G01*
X129024997Y-99050000D02*
X131225003Y-99050000D01*
G75*
G02*
X131475000Y-99299997I0J-249997D01*
G01*
X131475000Y-100125003D01*
G75*
G02*
X131225003Y-100375000I-249997J0D01*
G01*
X129024997Y-100375000D01*
G75*
G02*
X128775000Y-100125003I0J249997D01*
G01*
X128775000Y-99299997D01*
G75*
G02*
X129024997Y-99050000I249997J0D01*
G01*
G37*
G36*
G01*
X129024997Y-95925000D02*
X131225003Y-95925000D01*
G75*
G02*
X131475000Y-96174997I0J-249997D01*
G01*
X131475000Y-97000003D01*
G75*
G02*
X131225003Y-97250000I-249997J0D01*
G01*
X129024997Y-97250000D01*
G75*
G02*
X128775000Y-97000003I0J249997D01*
G01*
X128775000Y-96174997D01*
G75*
G02*
X129024997Y-95925000I249997J0D01*
G01*
G37*
G36*
G01*
X148524997Y-99050000D02*
X150725003Y-99050000D01*
G75*
G02*
X150975000Y-99299997I0J-249997D01*
G01*
X150975000Y-100125003D01*
G75*
G02*
X150725003Y-100375000I-249997J0D01*
G01*
X148524997Y-100375000D01*
G75*
G02*
X148275000Y-100125003I0J249997D01*
G01*
X148275000Y-99299997D01*
G75*
G02*
X148524997Y-99050000I249997J0D01*
G01*
G37*
G36*
G01*
X148524997Y-95925000D02*
X150725003Y-95925000D01*
G75*
G02*
X150975000Y-96174997I0J-249997D01*
G01*
X150975000Y-97000003D01*
G75*
G02*
X150725003Y-97250000I-249997J0D01*
G01*
X148524997Y-97250000D01*
G75*
G02*
X148275000Y-97000003I0J249997D01*
G01*
X148275000Y-96174997D01*
G75*
G02*
X148524997Y-95925000I249997J0D01*
G01*
G37*
G36*
G01*
X135524997Y-99050000D02*
X137725003Y-99050000D01*
G75*
G02*
X137975000Y-99299997I0J-249997D01*
G01*
X137975000Y-100125003D01*
G75*
G02*
X137725003Y-100375000I-249997J0D01*
G01*
X135524997Y-100375000D01*
G75*
G02*
X135275000Y-100125003I0J249997D01*
G01*
X135275000Y-99299997D01*
G75*
G02*
X135524997Y-99050000I249997J0D01*
G01*
G37*
G36*
G01*
X135524997Y-95925000D02*
X137725003Y-95925000D01*
G75*
G02*
X137975000Y-96174997I0J-249997D01*
G01*
X137975000Y-97000003D01*
G75*
G02*
X137725003Y-97250000I-249997J0D01*
G01*
X135524997Y-97250000D01*
G75*
G02*
X135275000Y-97000003I0J249997D01*
G01*
X135275000Y-96174997D01*
G75*
G02*
X135524997Y-95925000I249997J0D01*
G01*
G37*
G36*
G01*
X155024997Y-99050000D02*
X157225003Y-99050000D01*
G75*
G02*
X157475000Y-99299997I0J-249997D01*
G01*
X157475000Y-100125003D01*
G75*
G02*
X157225003Y-100375000I-249997J0D01*
G01*
X155024997Y-100375000D01*
G75*
G02*
X154775000Y-100125003I0J249997D01*
G01*
X154775000Y-99299997D01*
G75*
G02*
X155024997Y-99050000I249997J0D01*
G01*
G37*
G36*
G01*
X155024997Y-95925000D02*
X157225003Y-95925000D01*
G75*
G02*
X157475000Y-96174997I0J-249997D01*
G01*
X157475000Y-97000003D01*
G75*
G02*
X157225003Y-97250000I-249997J0D01*
G01*
X155024997Y-97250000D01*
G75*
G02*
X154775000Y-97000003I0J249997D01*
G01*
X154775000Y-96174997D01*
G75*
G02*
X155024997Y-95925000I249997J0D01*
G01*
G37*
G36*
G01*
X142024997Y-99050000D02*
X144225003Y-99050000D01*
G75*
G02*
X144475000Y-99299997I0J-249997D01*
G01*
X144475000Y-100125003D01*
G75*
G02*
X144225003Y-100375000I-249997J0D01*
G01*
X142024997Y-100375000D01*
G75*
G02*
X141775000Y-100125003I0J249997D01*
G01*
X141775000Y-99299997D01*
G75*
G02*
X142024997Y-99050000I249997J0D01*
G01*
G37*
G36*
G01*
X142024997Y-95925000D02*
X144225003Y-95925000D01*
G75*
G02*
X144475000Y-96174997I0J-249997D01*
G01*
X144475000Y-97000003D01*
G75*
G02*
X144225003Y-97250000I-249997J0D01*
G01*
X142024997Y-97250000D01*
G75*
G02*
X141775000Y-97000003I0J249997D01*
G01*
X141775000Y-96174997D01*
G75*
G02*
X142024997Y-95925000I249997J0D01*
G01*
G37*
G36*
G01*
X125774997Y-99050000D02*
X127975003Y-99050000D01*
G75*
G02*
X128225000Y-99299997I0J-249997D01*
G01*
X128225000Y-100125003D01*
G75*
G02*
X127975003Y-100375000I-249997J0D01*
G01*
X125774997Y-100375000D01*
G75*
G02*
X125525000Y-100125003I0J249997D01*
G01*
X125525000Y-99299997D01*
G75*
G02*
X125774997Y-99050000I249997J0D01*
G01*
G37*
G36*
G01*
X125774997Y-95925000D02*
X127975003Y-95925000D01*
G75*
G02*
X128225000Y-96174997I0J-249997D01*
G01*
X128225000Y-97000003D01*
G75*
G02*
X127975003Y-97250000I-249997J0D01*
G01*
X125774997Y-97250000D01*
G75*
G02*
X125525000Y-97000003I0J249997D01*
G01*
X125525000Y-96174997D01*
G75*
G02*
X125774997Y-95925000I249997J0D01*
G01*
G37*
G36*
G01*
X171387500Y-98475000D02*
X171862500Y-98475000D01*
G75*
G02*
X172100000Y-98712500I0J-237500D01*
G01*
X172100000Y-99312500D01*
G75*
G02*
X171862500Y-99550000I-237500J0D01*
G01*
X171387500Y-99550000D01*
G75*
G02*
X171150000Y-99312500I0J237500D01*
G01*
X171150000Y-98712500D01*
G75*
G02*
X171387500Y-98475000I237500J0D01*
G01*
G37*
G36*
G01*
X171387500Y-96750000D02*
X171862500Y-96750000D01*
G75*
G02*
X172100000Y-96987500I0J-237500D01*
G01*
X172100000Y-97587500D01*
G75*
G02*
X171862500Y-97825000I-237500J0D01*
G01*
X171387500Y-97825000D01*
G75*
G02*
X171150000Y-97587500I0J237500D01*
G01*
X171150000Y-96987500D01*
G75*
G02*
X171387500Y-96750000I237500J0D01*
G01*
G37*
G36*
G01*
X172887500Y-98475000D02*
X173362500Y-98475000D01*
G75*
G02*
X173600000Y-98712500I0J-237500D01*
G01*
X173600000Y-99312500D01*
G75*
G02*
X173362500Y-99550000I-237500J0D01*
G01*
X172887500Y-99550000D01*
G75*
G02*
X172650000Y-99312500I0J237500D01*
G01*
X172650000Y-98712500D01*
G75*
G02*
X172887500Y-98475000I237500J0D01*
G01*
G37*
G36*
G01*
X172887500Y-96750000D02*
X173362500Y-96750000D01*
G75*
G02*
X173600000Y-96987500I0J-237500D01*
G01*
X173600000Y-97587500D01*
G75*
G02*
X173362500Y-97825000I-237500J0D01*
G01*
X172887500Y-97825000D01*
G75*
G02*
X172650000Y-97587500I0J237500D01*
G01*
X172650000Y-96987500D01*
G75*
G02*
X172887500Y-96750000I237500J0D01*
G01*
G37*
G36*
G01*
X122637500Y-84725000D02*
X123112500Y-84725000D01*
G75*
G02*
X123350000Y-84962500I0J-237500D01*
G01*
X123350000Y-85562500D01*
G75*
G02*
X123112500Y-85800000I-237500J0D01*
G01*
X122637500Y-85800000D01*
G75*
G02*
X122400000Y-85562500I0J237500D01*
G01*
X122400000Y-84962500D01*
G75*
G02*
X122637500Y-84725000I237500J0D01*
G01*
G37*
G36*
G01*
X122637500Y-83000000D02*
X123112500Y-83000000D01*
G75*
G02*
X123350000Y-83237500I0J-237500D01*
G01*
X123350000Y-83837500D01*
G75*
G02*
X123112500Y-84075000I-237500J0D01*
G01*
X122637500Y-84075000D01*
G75*
G02*
X122400000Y-83837500I0J237500D01*
G01*
X122400000Y-83237500D01*
G75*
G02*
X122637500Y-83000000I237500J0D01*
G01*
G37*
G36*
G01*
X124137500Y-84725000D02*
X124612500Y-84725000D01*
G75*
G02*
X124850000Y-84962500I0J-237500D01*
G01*
X124850000Y-85562500D01*
G75*
G02*
X124612500Y-85800000I-237500J0D01*
G01*
X124137500Y-85800000D01*
G75*
G02*
X123900000Y-85562500I0J237500D01*
G01*
X123900000Y-84962500D01*
G75*
G02*
X124137500Y-84725000I237500J0D01*
G01*
G37*
G36*
G01*
X124137500Y-83000000D02*
X124612500Y-83000000D01*
G75*
G02*
X124850000Y-83237500I0J-237500D01*
G01*
X124850000Y-83837500D01*
G75*
G02*
X124612500Y-84075000I-237500J0D01*
G01*
X124137500Y-84075000D01*
G75*
G02*
X123900000Y-83837500I0J237500D01*
G01*
X123900000Y-83237500D01*
G75*
G02*
X124137500Y-83000000I237500J0D01*
G01*
G37*
G36*
G01*
X125774997Y-85300000D02*
X127975003Y-85300000D01*
G75*
G02*
X128225000Y-85549997I0J-249997D01*
G01*
X128225000Y-86375003D01*
G75*
G02*
X127975003Y-86625000I-249997J0D01*
G01*
X125774997Y-86625000D01*
G75*
G02*
X125525000Y-86375003I0J249997D01*
G01*
X125525000Y-85549997D01*
G75*
G02*
X125774997Y-85300000I249997J0D01*
G01*
G37*
G36*
G01*
X125774997Y-82175000D02*
X127975003Y-82175000D01*
G75*
G02*
X128225000Y-82424997I0J-249997D01*
G01*
X128225000Y-83250003D01*
G75*
G02*
X127975003Y-83500000I-249997J0D01*
G01*
X125774997Y-83500000D01*
G75*
G02*
X125525000Y-83250003I0J249997D01*
G01*
X125525000Y-82424997D01*
G75*
G02*
X125774997Y-82175000I249997J0D01*
G01*
G37*
G36*
G01*
X129024997Y-85300000D02*
X131225003Y-85300000D01*
G75*
G02*
X131475000Y-85549997I0J-249997D01*
G01*
X131475000Y-86375003D01*
G75*
G02*
X131225003Y-86625000I-249997J0D01*
G01*
X129024997Y-86625000D01*
G75*
G02*
X128775000Y-86375003I0J249997D01*
G01*
X128775000Y-85549997D01*
G75*
G02*
X129024997Y-85300000I249997J0D01*
G01*
G37*
G36*
G01*
X129024997Y-82175000D02*
X131225003Y-82175000D01*
G75*
G02*
X131475000Y-82424997I0J-249997D01*
G01*
X131475000Y-83250003D01*
G75*
G02*
X131225003Y-83500000I-249997J0D01*
G01*
X129024997Y-83500000D01*
G75*
G02*
X128775000Y-83250003I0J249997D01*
G01*
X128775000Y-82424997D01*
G75*
G02*
X129024997Y-82175000I249997J0D01*
G01*
G37*
G36*
G01*
X132274997Y-85300000D02*
X134475003Y-85300000D01*
G75*
G02*
X134725000Y-85549997I0J-249997D01*
G01*
X134725000Y-86375003D01*
G75*
G02*
X134475003Y-86625000I-249997J0D01*
G01*
X132274997Y-86625000D01*
G75*
G02*
X132025000Y-86375003I0J249997D01*
G01*
X132025000Y-85549997D01*
G75*
G02*
X132274997Y-85300000I249997J0D01*
G01*
G37*
G36*
G01*
X132274997Y-82175000D02*
X134475003Y-82175000D01*
G75*
G02*
X134725000Y-82424997I0J-249997D01*
G01*
X134725000Y-83250003D01*
G75*
G02*
X134475003Y-83500000I-249997J0D01*
G01*
X132274997Y-83500000D01*
G75*
G02*
X132025000Y-83250003I0J249997D01*
G01*
X132025000Y-82424997D01*
G75*
G02*
X132274997Y-82175000I249997J0D01*
G01*
G37*
G36*
G01*
X135524997Y-85300000D02*
X137725003Y-85300000D01*
G75*
G02*
X137975000Y-85549997I0J-249997D01*
G01*
X137975000Y-86375003D01*
G75*
G02*
X137725003Y-86625000I-249997J0D01*
G01*
X135524997Y-86625000D01*
G75*
G02*
X135275000Y-86375003I0J249997D01*
G01*
X135275000Y-85549997D01*
G75*
G02*
X135524997Y-85300000I249997J0D01*
G01*
G37*
G36*
G01*
X135524997Y-82175000D02*
X137725003Y-82175000D01*
G75*
G02*
X137975000Y-82424997I0J-249997D01*
G01*
X137975000Y-83250003D01*
G75*
G02*
X137725003Y-83500000I-249997J0D01*
G01*
X135524997Y-83500000D01*
G75*
G02*
X135275000Y-83250003I0J249997D01*
G01*
X135275000Y-82424997D01*
G75*
G02*
X135524997Y-82175000I249997J0D01*
G01*
G37*
G36*
G01*
X138774997Y-85300000D02*
X140975003Y-85300000D01*
G75*
G02*
X141225000Y-85549997I0J-249997D01*
G01*
X141225000Y-86375003D01*
G75*
G02*
X140975003Y-86625000I-249997J0D01*
G01*
X138774997Y-86625000D01*
G75*
G02*
X138525000Y-86375003I0J249997D01*
G01*
X138525000Y-85549997D01*
G75*
G02*
X138774997Y-85300000I249997J0D01*
G01*
G37*
G36*
G01*
X138774997Y-82175000D02*
X140975003Y-82175000D01*
G75*
G02*
X141225000Y-82424997I0J-249997D01*
G01*
X141225000Y-83250003D01*
G75*
G02*
X140975003Y-83500000I-249997J0D01*
G01*
X138774997Y-83500000D01*
G75*
G02*
X138525000Y-83250003I0J249997D01*
G01*
X138525000Y-82424997D01*
G75*
G02*
X138774997Y-82175000I249997J0D01*
G01*
G37*
G36*
G01*
X142024997Y-85300000D02*
X144225003Y-85300000D01*
G75*
G02*
X144475000Y-85549997I0J-249997D01*
G01*
X144475000Y-86375003D01*
G75*
G02*
X144225003Y-86625000I-249997J0D01*
G01*
X142024997Y-86625000D01*
G75*
G02*
X141775000Y-86375003I0J249997D01*
G01*
X141775000Y-85549997D01*
G75*
G02*
X142024997Y-85300000I249997J0D01*
G01*
G37*
G36*
G01*
X142024997Y-82175000D02*
X144225003Y-82175000D01*
G75*
G02*
X144475000Y-82424997I0J-249997D01*
G01*
X144475000Y-83250003D01*
G75*
G02*
X144225003Y-83500000I-249997J0D01*
G01*
X142024997Y-83500000D01*
G75*
G02*
X141775000Y-83250003I0J249997D01*
G01*
X141775000Y-82424997D01*
G75*
G02*
X142024997Y-82175000I249997J0D01*
G01*
G37*
G36*
G01*
X145274997Y-85300000D02*
X147475003Y-85300000D01*
G75*
G02*
X147725000Y-85549997I0J-249997D01*
G01*
X147725000Y-86375003D01*
G75*
G02*
X147475003Y-86625000I-249997J0D01*
G01*
X145274997Y-86625000D01*
G75*
G02*
X145025000Y-86375003I0J249997D01*
G01*
X145025000Y-85549997D01*
G75*
G02*
X145274997Y-85300000I249997J0D01*
G01*
G37*
G36*
G01*
X145274997Y-82175000D02*
X147475003Y-82175000D01*
G75*
G02*
X147725000Y-82424997I0J-249997D01*
G01*
X147725000Y-83250003D01*
G75*
G02*
X147475003Y-83500000I-249997J0D01*
G01*
X145274997Y-83500000D01*
G75*
G02*
X145025000Y-83250003I0J249997D01*
G01*
X145025000Y-82424997D01*
G75*
G02*
X145274997Y-82175000I249997J0D01*
G01*
G37*
G36*
G01*
X148524997Y-85300000D02*
X150725003Y-85300000D01*
G75*
G02*
X150975000Y-85549997I0J-249997D01*
G01*
X150975000Y-86375003D01*
G75*
G02*
X150725003Y-86625000I-249997J0D01*
G01*
X148524997Y-86625000D01*
G75*
G02*
X148275000Y-86375003I0J249997D01*
G01*
X148275000Y-85549997D01*
G75*
G02*
X148524997Y-85300000I249997J0D01*
G01*
G37*
G36*
G01*
X148524997Y-82175000D02*
X150725003Y-82175000D01*
G75*
G02*
X150975000Y-82424997I0J-249997D01*
G01*
X150975000Y-83250003D01*
G75*
G02*
X150725003Y-83500000I-249997J0D01*
G01*
X148524997Y-83500000D01*
G75*
G02*
X148275000Y-83250003I0J249997D01*
G01*
X148275000Y-82424997D01*
G75*
G02*
X148524997Y-82175000I249997J0D01*
G01*
G37*
G36*
G01*
X151774997Y-85300000D02*
X153975003Y-85300000D01*
G75*
G02*
X154225000Y-85549997I0J-249997D01*
G01*
X154225000Y-86375003D01*
G75*
G02*
X153975003Y-86625000I-249997J0D01*
G01*
X151774997Y-86625000D01*
G75*
G02*
X151525000Y-86375003I0J249997D01*
G01*
X151525000Y-85549997D01*
G75*
G02*
X151774997Y-85300000I249997J0D01*
G01*
G37*
G36*
G01*
X151774997Y-82175000D02*
X153975003Y-82175000D01*
G75*
G02*
X154225000Y-82424997I0J-249997D01*
G01*
X154225000Y-83250003D01*
G75*
G02*
X153975003Y-83500000I-249997J0D01*
G01*
X151774997Y-83500000D01*
G75*
G02*
X151525000Y-83250003I0J249997D01*
G01*
X151525000Y-82424997D01*
G75*
G02*
X151774997Y-82175000I249997J0D01*
G01*
G37*
G36*
G01*
X155024997Y-85300000D02*
X157225003Y-85300000D01*
G75*
G02*
X157475000Y-85549997I0J-249997D01*
G01*
X157475000Y-86375003D01*
G75*
G02*
X157225003Y-86625000I-249997J0D01*
G01*
X155024997Y-86625000D01*
G75*
G02*
X154775000Y-86375003I0J249997D01*
G01*
X154775000Y-85549997D01*
G75*
G02*
X155024997Y-85300000I249997J0D01*
G01*
G37*
G36*
G01*
X155024997Y-82175000D02*
X157225003Y-82175000D01*
G75*
G02*
X157475000Y-82424997I0J-249997D01*
G01*
X157475000Y-83250003D01*
G75*
G02*
X157225003Y-83500000I-249997J0D01*
G01*
X155024997Y-83500000D01*
G75*
G02*
X154775000Y-83250003I0J249997D01*
G01*
X154775000Y-82424997D01*
G75*
G02*
X155024997Y-82175000I249997J0D01*
G01*
G37*
G36*
G01*
X158274997Y-85300000D02*
X160475003Y-85300000D01*
G75*
G02*
X160725000Y-85549997I0J-249997D01*
G01*
X160725000Y-86375003D01*
G75*
G02*
X160475003Y-86625000I-249997J0D01*
G01*
X158274997Y-86625000D01*
G75*
G02*
X158025000Y-86375003I0J249997D01*
G01*
X158025000Y-85549997D01*
G75*
G02*
X158274997Y-85300000I249997J0D01*
G01*
G37*
G36*
G01*
X158274997Y-82175000D02*
X160475003Y-82175000D01*
G75*
G02*
X160725000Y-82424997I0J-249997D01*
G01*
X160725000Y-83250003D01*
G75*
G02*
X160475003Y-83500000I-249997J0D01*
G01*
X158274997Y-83500000D01*
G75*
G02*
X158025000Y-83250003I0J249997D01*
G01*
X158025000Y-82424997D01*
G75*
G02*
X158274997Y-82175000I249997J0D01*
G01*
G37*
G36*
G01*
X161524997Y-85300000D02*
X163725003Y-85300000D01*
G75*
G02*
X163975000Y-85549997I0J-249997D01*
G01*
X163975000Y-86375003D01*
G75*
G02*
X163725003Y-86625000I-249997J0D01*
G01*
X161524997Y-86625000D01*
G75*
G02*
X161275000Y-86375003I0J249997D01*
G01*
X161275000Y-85549997D01*
G75*
G02*
X161524997Y-85300000I249997J0D01*
G01*
G37*
G36*
G01*
X161524997Y-82175000D02*
X163725003Y-82175000D01*
G75*
G02*
X163975000Y-82424997I0J-249997D01*
G01*
X163975000Y-83250003D01*
G75*
G02*
X163725003Y-83500000I-249997J0D01*
G01*
X161524997Y-83500000D01*
G75*
G02*
X161275000Y-83250003I0J249997D01*
G01*
X161275000Y-82424997D01*
G75*
G02*
X161524997Y-82175000I249997J0D01*
G01*
G37*
G36*
G01*
X164774997Y-85300000D02*
X166975003Y-85300000D01*
G75*
G02*
X167225000Y-85549997I0J-249997D01*
G01*
X167225000Y-86375003D01*
G75*
G02*
X166975003Y-86625000I-249997J0D01*
G01*
X164774997Y-86625000D01*
G75*
G02*
X164525000Y-86375003I0J249997D01*
G01*
X164525000Y-85549997D01*
G75*
G02*
X164774997Y-85300000I249997J0D01*
G01*
G37*
G36*
G01*
X164774997Y-82175000D02*
X166975003Y-82175000D01*
G75*
G02*
X167225000Y-82424997I0J-249997D01*
G01*
X167225000Y-83250003D01*
G75*
G02*
X166975003Y-83500000I-249997J0D01*
G01*
X164774997Y-83500000D01*
G75*
G02*
X164525000Y-83250003I0J249997D01*
G01*
X164525000Y-82424997D01*
G75*
G02*
X164774997Y-82175000I249997J0D01*
G01*
G37*
G36*
G01*
X168024997Y-85300000D02*
X170225003Y-85300000D01*
G75*
G02*
X170475000Y-85549997I0J-249997D01*
G01*
X170475000Y-86375003D01*
G75*
G02*
X170225003Y-86625000I-249997J0D01*
G01*
X168024997Y-86625000D01*
G75*
G02*
X167775000Y-86375003I0J249997D01*
G01*
X167775000Y-85549997D01*
G75*
G02*
X168024997Y-85300000I249997J0D01*
G01*
G37*
G36*
G01*
X168024997Y-82175000D02*
X170225003Y-82175000D01*
G75*
G02*
X170475000Y-82424997I0J-249997D01*
G01*
X170475000Y-83250003D01*
G75*
G02*
X170225003Y-83500000I-249997J0D01*
G01*
X168024997Y-83500000D01*
G75*
G02*
X167775000Y-83250003I0J249997D01*
G01*
X167775000Y-82424997D01*
G75*
G02*
X168024997Y-82175000I249997J0D01*
G01*
G37*
G36*
G01*
X172887500Y-84725000D02*
X173362500Y-84725000D01*
G75*
G02*
X173600000Y-84962500I0J-237500D01*
G01*
X173600000Y-85562500D01*
G75*
G02*
X173362500Y-85800000I-237500J0D01*
G01*
X172887500Y-85800000D01*
G75*
G02*
X172650000Y-85562500I0J237500D01*
G01*
X172650000Y-84962500D01*
G75*
G02*
X172887500Y-84725000I237500J0D01*
G01*
G37*
G36*
G01*
X172887500Y-83000000D02*
X173362500Y-83000000D01*
G75*
G02*
X173600000Y-83237500I0J-237500D01*
G01*
X173600000Y-83837500D01*
G75*
G02*
X173362500Y-84075000I-237500J0D01*
G01*
X172887500Y-84075000D01*
G75*
G02*
X172650000Y-83837500I0J237500D01*
G01*
X172650000Y-83237500D01*
G75*
G02*
X172887500Y-83000000I237500J0D01*
G01*
G37*
G36*
G01*
X171387500Y-84725000D02*
X171862500Y-84725000D01*
G75*
G02*
X172100000Y-84962500I0J-237500D01*
G01*
X172100000Y-85562500D01*
G75*
G02*
X171862500Y-85800000I-237500J0D01*
G01*
X171387500Y-85800000D01*
G75*
G02*
X171150000Y-85562500I0J237500D01*
G01*
X171150000Y-84962500D01*
G75*
G02*
X171387500Y-84725000I237500J0D01*
G01*
G37*
G36*
G01*
X171387500Y-83000000D02*
X171862500Y-83000000D01*
G75*
G02*
X172100000Y-83237500I0J-237500D01*
G01*
X172100000Y-83837500D01*
G75*
G02*
X171862500Y-84075000I-237500J0D01*
G01*
X171387500Y-84075000D01*
G75*
G02*
X171150000Y-83837500I0J237500D01*
G01*
X171150000Y-83237500D01*
G75*
G02*
X171387500Y-83000000I237500J0D01*
G01*
G37*
M02*
