G04 #@! TF.GenerationSoftware,KiCad,Pcbnew,5.1.9*
G04 #@! TF.CreationDate,2021-04-12T02:40:48-03:00*
G04 #@! TF.ProjectId,Caps,43617073-2e6b-4696-9361-645f70636258,rev?*
G04 #@! TF.SameCoordinates,Original*
G04 #@! TF.FileFunction,Soldermask,Top*
G04 #@! TF.FilePolarity,Negative*
%FSLAX46Y46*%
G04 Gerber Fmt 4.6, Leading zero omitted, Abs format (unit mm)*
G04 Created by KiCad (PCBNEW 5.1.9) date 2021-04-12 02:40:48*
%MOMM*%
%LPD*%
G01*
G04 APERTURE LIST*
%ADD10C,3.200000*%
G04 APERTURE END LIST*
D10*
X177500000Y-84000000D03*
X118500000Y-84000000D03*
X177500000Y-95666666D03*
X118500000Y-119000000D03*
X177500000Y-107333332D03*
X118500000Y-107333332D03*
X177500000Y-119000000D03*
X118500000Y-95666666D03*
G36*
G01*
X124087517Y-91480000D02*
X124562517Y-91480000D01*
G75*
G02*
X124800017Y-91717500I0J-237500D01*
G01*
X124800017Y-92317500D01*
G75*
G02*
X124562517Y-92555000I-237500J0D01*
G01*
X124087517Y-92555000D01*
G75*
G02*
X123850017Y-92317500I0J237500D01*
G01*
X123850017Y-91717500D01*
G75*
G02*
X124087517Y-91480000I237500J0D01*
G01*
G37*
G36*
G01*
X124087517Y-89755000D02*
X124562517Y-89755000D01*
G75*
G02*
X124800017Y-89992500I0J-237500D01*
G01*
X124800017Y-90592500D01*
G75*
G02*
X124562517Y-90830000I-237500J0D01*
G01*
X124087517Y-90830000D01*
G75*
G02*
X123850017Y-90592500I0J237500D01*
G01*
X123850017Y-89992500D01*
G75*
G02*
X124087517Y-89755000I237500J0D01*
G01*
G37*
G36*
G01*
X122562500Y-91475000D02*
X123037500Y-91475000D01*
G75*
G02*
X123275000Y-91712500I0J-237500D01*
G01*
X123275000Y-92312500D01*
G75*
G02*
X123037500Y-92550000I-237500J0D01*
G01*
X122562500Y-92550000D01*
G75*
G02*
X122325000Y-92312500I0J237500D01*
G01*
X122325000Y-91712500D01*
G75*
G02*
X122562500Y-91475000I237500J0D01*
G01*
G37*
G36*
G01*
X122562500Y-89750000D02*
X123037500Y-89750000D01*
G75*
G02*
X123275000Y-89987500I0J-237500D01*
G01*
X123275000Y-90587500D01*
G75*
G02*
X123037500Y-90825000I-237500J0D01*
G01*
X122562500Y-90825000D01*
G75*
G02*
X122325000Y-90587500I0J237500D01*
G01*
X122325000Y-89987500D01*
G75*
G02*
X122562500Y-89750000I237500J0D01*
G01*
G37*
G36*
G01*
X145275012Y-106045000D02*
X147475016Y-106045000D01*
G75*
G02*
X147725014Y-106294998I0J-249998D01*
G01*
X147725014Y-107120002D01*
G75*
G02*
X147475016Y-107370000I-249998J0D01*
G01*
X145275012Y-107370000D01*
G75*
G02*
X145025014Y-107120002I0J249998D01*
G01*
X145025014Y-106294998D01*
G75*
G02*
X145275012Y-106045000I249998J0D01*
G01*
G37*
G36*
G01*
X145275012Y-102920000D02*
X147475016Y-102920000D01*
G75*
G02*
X147725014Y-103169998I0J-249998D01*
G01*
X147725014Y-103995002D01*
G75*
G02*
X147475016Y-104245000I-249998J0D01*
G01*
X145275012Y-104245000D01*
G75*
G02*
X145025014Y-103995002I0J249998D01*
G01*
X145025014Y-103169998D01*
G75*
G02*
X145275012Y-102920000I249998J0D01*
G01*
G37*
G36*
G01*
X128975014Y-92055000D02*
X131175018Y-92055000D01*
G75*
G02*
X131425016Y-92304998I0J-249998D01*
G01*
X131425016Y-93130002D01*
G75*
G02*
X131175018Y-93380000I-249998J0D01*
G01*
X128975014Y-93380000D01*
G75*
G02*
X128725016Y-93130002I0J249998D01*
G01*
X128725016Y-92304998D01*
G75*
G02*
X128975014Y-92055000I249998J0D01*
G01*
G37*
G36*
G01*
X128975014Y-88930000D02*
X131175018Y-88930000D01*
G75*
G02*
X131425016Y-89179998I0J-249998D01*
G01*
X131425016Y-90005002D01*
G75*
G02*
X131175018Y-90255000I-249998J0D01*
G01*
X128975014Y-90255000D01*
G75*
G02*
X128725016Y-90005002I0J249998D01*
G01*
X128725016Y-89179998D01*
G75*
G02*
X128975014Y-88930000I249998J0D01*
G01*
G37*
G36*
G01*
X142025022Y-106045000D02*
X144225026Y-106045000D01*
G75*
G02*
X144475024Y-106294998I0J-249998D01*
G01*
X144475024Y-107120002D01*
G75*
G02*
X144225026Y-107370000I-249998J0D01*
G01*
X142025022Y-107370000D01*
G75*
G02*
X141775024Y-107120002I0J249998D01*
G01*
X141775024Y-106294998D01*
G75*
G02*
X142025022Y-106045000I249998J0D01*
G01*
G37*
G36*
G01*
X142025022Y-102920000D02*
X144225026Y-102920000D01*
G75*
G02*
X144475024Y-103169998I0J-249998D01*
G01*
X144475024Y-103995002D01*
G75*
G02*
X144225026Y-104245000I-249998J0D01*
G01*
X142025022Y-104245000D01*
G75*
G02*
X141775024Y-103995002I0J249998D01*
G01*
X141775024Y-103169998D01*
G75*
G02*
X142025022Y-102920000I249998J0D01*
G01*
G37*
G36*
G01*
X141975010Y-92055000D02*
X144175014Y-92055000D01*
G75*
G02*
X144425012Y-92304998I0J-249998D01*
G01*
X144425012Y-93130002D01*
G75*
G02*
X144175014Y-93380000I-249998J0D01*
G01*
X141975010Y-93380000D01*
G75*
G02*
X141725012Y-93130002I0J249998D01*
G01*
X141725012Y-92304998D01*
G75*
G02*
X141975010Y-92055000I249998J0D01*
G01*
G37*
G36*
G01*
X141975010Y-88930000D02*
X144175014Y-88930000D01*
G75*
G02*
X144425012Y-89179998I0J-249998D01*
G01*
X144425012Y-90005002D01*
G75*
G02*
X144175014Y-90255000I-249998J0D01*
G01*
X141975010Y-90255000D01*
G75*
G02*
X141725012Y-90005002I0J249998D01*
G01*
X141725012Y-89179998D01*
G75*
G02*
X141975010Y-88930000I249998J0D01*
G01*
G37*
G36*
G01*
X135475012Y-92055000D02*
X137675016Y-92055000D01*
G75*
G02*
X137925014Y-92304998I0J-249998D01*
G01*
X137925014Y-93130002D01*
G75*
G02*
X137675016Y-93380000I-249998J0D01*
G01*
X135475012Y-93380000D01*
G75*
G02*
X135225014Y-93130002I0J249998D01*
G01*
X135225014Y-92304998D01*
G75*
G02*
X135475012Y-92055000I249998J0D01*
G01*
G37*
G36*
G01*
X135475012Y-88930000D02*
X137675016Y-88930000D01*
G75*
G02*
X137925014Y-89179998I0J-249998D01*
G01*
X137925014Y-90005002D01*
G75*
G02*
X137675016Y-90255000I-249998J0D01*
G01*
X135475012Y-90255000D01*
G75*
G02*
X135225014Y-90005002I0J249998D01*
G01*
X135225014Y-89179998D01*
G75*
G02*
X135475012Y-88930000I249998J0D01*
G01*
G37*
G36*
G01*
X135525026Y-106045000D02*
X137725030Y-106045000D01*
G75*
G02*
X137975028Y-106294998I0J-249998D01*
G01*
X137975028Y-107120002D01*
G75*
G02*
X137725030Y-107370000I-249998J0D01*
G01*
X135525026Y-107370000D01*
G75*
G02*
X135275028Y-107120002I0J249998D01*
G01*
X135275028Y-106294998D01*
G75*
G02*
X135525026Y-106045000I249998J0D01*
G01*
G37*
G36*
G01*
X135525026Y-102920000D02*
X137725030Y-102920000D01*
G75*
G02*
X137975028Y-103169998I0J-249998D01*
G01*
X137975028Y-103995002D01*
G75*
G02*
X137725030Y-104245000I-249998J0D01*
G01*
X135525026Y-104245000D01*
G75*
G02*
X135275028Y-103995002I0J249998D01*
G01*
X135275028Y-103169998D01*
G75*
G02*
X135525026Y-102920000I249998J0D01*
G01*
G37*
G36*
G01*
X151725003Y-92055000D02*
X153925007Y-92055000D01*
G75*
G02*
X154175005Y-92304998I0J-249998D01*
G01*
X154175005Y-93130002D01*
G75*
G02*
X153925007Y-93380000I-249998J0D01*
G01*
X151725003Y-93380000D01*
G75*
G02*
X151475005Y-93130002I0J249998D01*
G01*
X151475005Y-92304998D01*
G75*
G02*
X151725003Y-92055000I249998J0D01*
G01*
G37*
G36*
G01*
X151725003Y-88930000D02*
X153925007Y-88930000D01*
G75*
G02*
X154175005Y-89179998I0J-249998D01*
G01*
X154175005Y-90005002D01*
G75*
G02*
X153925007Y-90255000I-249998J0D01*
G01*
X151725003Y-90255000D01*
G75*
G02*
X151475005Y-90005002I0J249998D01*
G01*
X151475005Y-89179998D01*
G75*
G02*
X151725003Y-88930000I249998J0D01*
G01*
G37*
G36*
G01*
X125774998Y-106050000D02*
X127975002Y-106050000D01*
G75*
G02*
X128225000Y-106299998I0J-249998D01*
G01*
X128225000Y-107125002D01*
G75*
G02*
X127975002Y-107375000I-249998J0D01*
G01*
X125774998Y-107375000D01*
G75*
G02*
X125525000Y-107125002I0J249998D01*
G01*
X125525000Y-106299998D01*
G75*
G02*
X125774998Y-106050000I249998J0D01*
G01*
G37*
G36*
G01*
X125774998Y-102925000D02*
X127975002Y-102925000D01*
G75*
G02*
X128225000Y-103174998I0J-249998D01*
G01*
X128225000Y-104000002D01*
G75*
G02*
X127975002Y-104250000I-249998J0D01*
G01*
X125774998Y-104250000D01*
G75*
G02*
X125525000Y-104000002I0J249998D01*
G01*
X125525000Y-103174998D01*
G75*
G02*
X125774998Y-102925000I249998J0D01*
G01*
G37*
G36*
G01*
X125774998Y-92050000D02*
X127975002Y-92050000D01*
G75*
G02*
X128225000Y-92299998I0J-249998D01*
G01*
X128225000Y-93125002D01*
G75*
G02*
X127975002Y-93375000I-249998J0D01*
G01*
X125774998Y-93375000D01*
G75*
G02*
X125525000Y-93125002I0J249998D01*
G01*
X125525000Y-92299998D01*
G75*
G02*
X125774998Y-92050000I249998J0D01*
G01*
G37*
G36*
G01*
X125774998Y-88925000D02*
X127975002Y-88925000D01*
G75*
G02*
X128225000Y-89174998I0J-249998D01*
G01*
X128225000Y-90000002D01*
G75*
G02*
X127975002Y-90250000I-249998J0D01*
G01*
X125774998Y-90250000D01*
G75*
G02*
X125525000Y-90000002I0J249998D01*
G01*
X125525000Y-89174998D01*
G75*
G02*
X125774998Y-88925000I249998J0D01*
G01*
G37*
G36*
G01*
X145225005Y-92055000D02*
X147425009Y-92055000D01*
G75*
G02*
X147675007Y-92304998I0J-249998D01*
G01*
X147675007Y-93130002D01*
G75*
G02*
X147425009Y-93380000I-249998J0D01*
G01*
X145225005Y-93380000D01*
G75*
G02*
X144975007Y-93130002I0J249998D01*
G01*
X144975007Y-92304998D01*
G75*
G02*
X145225005Y-92055000I249998J0D01*
G01*
G37*
G36*
G01*
X145225005Y-88930000D02*
X147425009Y-88930000D01*
G75*
G02*
X147675007Y-89179998I0J-249998D01*
G01*
X147675007Y-90005002D01*
G75*
G02*
X147425009Y-90255000I-249998J0D01*
G01*
X145225005Y-90255000D01*
G75*
G02*
X144975007Y-90005002I0J249998D01*
G01*
X144975007Y-89179998D01*
G75*
G02*
X145225005Y-88930000I249998J0D01*
G01*
G37*
G36*
G01*
X148475004Y-92055000D02*
X150675008Y-92055000D01*
G75*
G02*
X150925006Y-92304998I0J-249998D01*
G01*
X150925006Y-93130002D01*
G75*
G02*
X150675008Y-93380000I-249998J0D01*
G01*
X148475004Y-93380000D01*
G75*
G02*
X148225006Y-93130002I0J249998D01*
G01*
X148225006Y-92304998D01*
G75*
G02*
X148475004Y-92055000I249998J0D01*
G01*
G37*
G36*
G01*
X148475004Y-88930000D02*
X150675008Y-88930000D01*
G75*
G02*
X150925006Y-89179998I0J-249998D01*
G01*
X150925006Y-90005002D01*
G75*
G02*
X150675008Y-90255000I-249998J0D01*
G01*
X148475004Y-90255000D01*
G75*
G02*
X148225006Y-90005002I0J249998D01*
G01*
X148225006Y-89179998D01*
G75*
G02*
X148475004Y-88930000I249998J0D01*
G01*
G37*
G36*
G01*
X129025030Y-106045000D02*
X131225034Y-106045000D01*
G75*
G02*
X131475032Y-106294998I0J-249998D01*
G01*
X131475032Y-107120002D01*
G75*
G02*
X131225034Y-107370000I-249998J0D01*
G01*
X129025030Y-107370000D01*
G75*
G02*
X128775032Y-107120002I0J249998D01*
G01*
X128775032Y-106294998D01*
G75*
G02*
X129025030Y-106045000I249998J0D01*
G01*
G37*
G36*
G01*
X129025030Y-102920000D02*
X131225034Y-102920000D01*
G75*
G02*
X131475032Y-103169998I0J-249998D01*
G01*
X131475032Y-103995002D01*
G75*
G02*
X131225034Y-104245000I-249998J0D01*
G01*
X129025030Y-104245000D01*
G75*
G02*
X128775032Y-103995002I0J249998D01*
G01*
X128775032Y-103169998D01*
G75*
G02*
X129025030Y-102920000I249998J0D01*
G01*
G37*
G36*
G01*
X155025006Y-106045000D02*
X157225010Y-106045000D01*
G75*
G02*
X157475008Y-106294998I0J-249998D01*
G01*
X157475008Y-107120002D01*
G75*
G02*
X157225010Y-107370000I-249998J0D01*
G01*
X155025006Y-107370000D01*
G75*
G02*
X154775008Y-107120002I0J249998D01*
G01*
X154775008Y-106294998D01*
G75*
G02*
X155025006Y-106045000I249998J0D01*
G01*
G37*
G36*
G01*
X155025006Y-102920000D02*
X157225010Y-102920000D01*
G75*
G02*
X157475008Y-103169998I0J-249998D01*
G01*
X157475008Y-103995002D01*
G75*
G02*
X157225010Y-104245000I-249998J0D01*
G01*
X155025006Y-104245000D01*
G75*
G02*
X154775008Y-103995002I0J249998D01*
G01*
X154775008Y-103169998D01*
G75*
G02*
X155025006Y-102920000I249998J0D01*
G01*
G37*
G36*
G01*
X172887500Y-105457500D02*
X173362500Y-105457500D01*
G75*
G02*
X173600000Y-105695000I0J-237500D01*
G01*
X173600000Y-106295000D01*
G75*
G02*
X173362500Y-106532500I-237500J0D01*
G01*
X172887500Y-106532500D01*
G75*
G02*
X172650000Y-106295000I0J237500D01*
G01*
X172650000Y-105695000D01*
G75*
G02*
X172887500Y-105457500I237500J0D01*
G01*
G37*
G36*
G01*
X172887500Y-103732500D02*
X173362500Y-103732500D01*
G75*
G02*
X173600000Y-103970000I0J-237500D01*
G01*
X173600000Y-104570000D01*
G75*
G02*
X173362500Y-104807500I-237500J0D01*
G01*
X172887500Y-104807500D01*
G75*
G02*
X172650000Y-104570000I0J237500D01*
G01*
X172650000Y-103970000D01*
G75*
G02*
X172887500Y-103732500I237500J0D01*
G01*
G37*
G36*
G01*
X171337517Y-91480000D02*
X171812517Y-91480000D01*
G75*
G02*
X172050017Y-91717500I0J-237500D01*
G01*
X172050017Y-92317500D01*
G75*
G02*
X171812517Y-92555000I-237500J0D01*
G01*
X171337517Y-92555000D01*
G75*
G02*
X171100017Y-92317500I0J237500D01*
G01*
X171100017Y-91717500D01*
G75*
G02*
X171337517Y-91480000I237500J0D01*
G01*
G37*
G36*
G01*
X171337517Y-89755000D02*
X171812517Y-89755000D01*
G75*
G02*
X172050017Y-89992500I0J-237500D01*
G01*
X172050017Y-90592500D01*
G75*
G02*
X171812517Y-90830000I-237500J0D01*
G01*
X171337517Y-90830000D01*
G75*
G02*
X171100017Y-90592500I0J237500D01*
G01*
X171100017Y-89992500D01*
G75*
G02*
X171337517Y-89755000I237500J0D01*
G01*
G37*
G36*
G01*
X122637534Y-105470000D02*
X123112534Y-105470000D01*
G75*
G02*
X123350034Y-105707500I0J-237500D01*
G01*
X123350034Y-106307500D01*
G75*
G02*
X123112534Y-106545000I-237500J0D01*
G01*
X122637534Y-106545000D01*
G75*
G02*
X122400034Y-106307500I0J237500D01*
G01*
X122400034Y-105707500D01*
G75*
G02*
X122637534Y-105470000I237500J0D01*
G01*
G37*
G36*
G01*
X122637534Y-103745000D02*
X123112534Y-103745000D01*
G75*
G02*
X123350034Y-103982500I0J-237500D01*
G01*
X123350034Y-104582500D01*
G75*
G02*
X123112534Y-104820000I-237500J0D01*
G01*
X122637534Y-104820000D01*
G75*
G02*
X122400034Y-104582500I0J237500D01*
G01*
X122400034Y-103982500D01*
G75*
G02*
X122637534Y-103745000I237500J0D01*
G01*
G37*
G36*
G01*
X172837517Y-91480000D02*
X173312517Y-91480000D01*
G75*
G02*
X173550017Y-91717500I0J-237500D01*
G01*
X173550017Y-92317500D01*
G75*
G02*
X173312517Y-92555000I-237500J0D01*
G01*
X172837517Y-92555000D01*
G75*
G02*
X172600017Y-92317500I0J237500D01*
G01*
X172600017Y-91717500D01*
G75*
G02*
X172837517Y-91480000I237500J0D01*
G01*
G37*
G36*
G01*
X172837517Y-89755000D02*
X173312517Y-89755000D01*
G75*
G02*
X173550017Y-89992500I0J-237500D01*
G01*
X173550017Y-90592500D01*
G75*
G02*
X173312517Y-90830000I-237500J0D01*
G01*
X172837517Y-90830000D01*
G75*
G02*
X172600017Y-90592500I0J237500D01*
G01*
X172600017Y-89992500D01*
G75*
G02*
X172837517Y-89755000I237500J0D01*
G01*
G37*
G36*
G01*
X161475000Y-92055000D02*
X163675004Y-92055000D01*
G75*
G02*
X163925002Y-92304998I0J-249998D01*
G01*
X163925002Y-93130002D01*
G75*
G02*
X163675004Y-93380000I-249998J0D01*
G01*
X161475000Y-93380000D01*
G75*
G02*
X161225002Y-93130002I0J249998D01*
G01*
X161225002Y-92304998D01*
G75*
G02*
X161475000Y-92055000I249998J0D01*
G01*
G37*
G36*
G01*
X161475000Y-88930000D02*
X163675004Y-88930000D01*
G75*
G02*
X163925002Y-89179998I0J-249998D01*
G01*
X163925002Y-90005002D01*
G75*
G02*
X163675004Y-90255000I-249998J0D01*
G01*
X161475000Y-90255000D01*
G75*
G02*
X161225002Y-90005002I0J249998D01*
G01*
X161225002Y-89179998D01*
G75*
G02*
X161475000Y-88930000I249998J0D01*
G01*
G37*
G36*
G01*
X164775000Y-106045000D02*
X166975004Y-106045000D01*
G75*
G02*
X167225002Y-106294998I0J-249998D01*
G01*
X167225002Y-107120002D01*
G75*
G02*
X166975004Y-107370000I-249998J0D01*
G01*
X164775000Y-107370000D01*
G75*
G02*
X164525002Y-107120002I0J249998D01*
G01*
X164525002Y-106294998D01*
G75*
G02*
X164775000Y-106045000I249998J0D01*
G01*
G37*
G36*
G01*
X164775000Y-102920000D02*
X166975004Y-102920000D01*
G75*
G02*
X167225002Y-103169998I0J-249998D01*
G01*
X167225002Y-103995002D01*
G75*
G02*
X166975004Y-104245000I-249998J0D01*
G01*
X164775000Y-104245000D01*
G75*
G02*
X164525002Y-103995002I0J249998D01*
G01*
X164525002Y-103169998D01*
G75*
G02*
X164775000Y-102920000I249998J0D01*
G01*
G37*
G36*
G01*
X158275004Y-106045000D02*
X160475008Y-106045000D01*
G75*
G02*
X160725006Y-106294998I0J-249998D01*
G01*
X160725006Y-107120002D01*
G75*
G02*
X160475008Y-107370000I-249998J0D01*
G01*
X158275004Y-107370000D01*
G75*
G02*
X158025006Y-107120002I0J249998D01*
G01*
X158025006Y-106294998D01*
G75*
G02*
X158275004Y-106045000I249998J0D01*
G01*
G37*
G36*
G01*
X158275004Y-102920000D02*
X160475008Y-102920000D01*
G75*
G02*
X160725006Y-103169998I0J-249998D01*
G01*
X160725006Y-103995002D01*
G75*
G02*
X160475008Y-104245000I-249998J0D01*
G01*
X158275004Y-104245000D01*
G75*
G02*
X158025006Y-103995002I0J249998D01*
G01*
X158025006Y-103169998D01*
G75*
G02*
X158275004Y-102920000I249998J0D01*
G01*
G37*
G36*
G01*
X154975002Y-92055000D02*
X157175006Y-92055000D01*
G75*
G02*
X157425004Y-92304998I0J-249998D01*
G01*
X157425004Y-93130002D01*
G75*
G02*
X157175006Y-93380000I-249998J0D01*
G01*
X154975002Y-93380000D01*
G75*
G02*
X154725004Y-93130002I0J249998D01*
G01*
X154725004Y-92304998D01*
G75*
G02*
X154975002Y-92055000I249998J0D01*
G01*
G37*
G36*
G01*
X154975002Y-88930000D02*
X157175006Y-88930000D01*
G75*
G02*
X157425004Y-89179998I0J-249998D01*
G01*
X157425004Y-90005002D01*
G75*
G02*
X157175006Y-90255000I-249998J0D01*
G01*
X154975002Y-90255000D01*
G75*
G02*
X154725004Y-90005002I0J249998D01*
G01*
X154725004Y-89179998D01*
G75*
G02*
X154975002Y-88930000I249998J0D01*
G01*
G37*
G36*
G01*
X132275028Y-106045000D02*
X134475032Y-106045000D01*
G75*
G02*
X134725030Y-106294998I0J-249998D01*
G01*
X134725030Y-107120002D01*
G75*
G02*
X134475032Y-107370000I-249998J0D01*
G01*
X132275028Y-107370000D01*
G75*
G02*
X132025030Y-107120002I0J249998D01*
G01*
X132025030Y-106294998D01*
G75*
G02*
X132275028Y-106045000I249998J0D01*
G01*
G37*
G36*
G01*
X132275028Y-102920000D02*
X134475032Y-102920000D01*
G75*
G02*
X134725030Y-103169998I0J-249998D01*
G01*
X134725030Y-103995002D01*
G75*
G02*
X134475032Y-104245000I-249998J0D01*
G01*
X132275028Y-104245000D01*
G75*
G02*
X132025030Y-103995002I0J249998D01*
G01*
X132025030Y-103169998D01*
G75*
G02*
X132275028Y-102920000I249998J0D01*
G01*
G37*
G36*
G01*
X158225001Y-92055000D02*
X160425005Y-92055000D01*
G75*
G02*
X160675003Y-92304998I0J-249998D01*
G01*
X160675003Y-93130002D01*
G75*
G02*
X160425005Y-93380000I-249998J0D01*
G01*
X158225001Y-93380000D01*
G75*
G02*
X157975003Y-93130002I0J249998D01*
G01*
X157975003Y-92304998D01*
G75*
G02*
X158225001Y-92055000I249998J0D01*
G01*
G37*
G36*
G01*
X158225001Y-88930000D02*
X160425005Y-88930000D01*
G75*
G02*
X160675003Y-89179998I0J-249998D01*
G01*
X160675003Y-90005002D01*
G75*
G02*
X160425005Y-90255000I-249998J0D01*
G01*
X158225001Y-90255000D01*
G75*
G02*
X157975003Y-90005002I0J249998D01*
G01*
X157975003Y-89179998D01*
G75*
G02*
X158225001Y-88930000I249998J0D01*
G01*
G37*
G36*
G01*
X161525002Y-106045000D02*
X163725006Y-106045000D01*
G75*
G02*
X163975004Y-106294998I0J-249998D01*
G01*
X163975004Y-107120002D01*
G75*
G02*
X163725006Y-107370000I-249998J0D01*
G01*
X161525002Y-107370000D01*
G75*
G02*
X161275004Y-107120002I0J249998D01*
G01*
X161275004Y-106294998D01*
G75*
G02*
X161525002Y-106045000I249998J0D01*
G01*
G37*
G36*
G01*
X161525002Y-102920000D02*
X163725006Y-102920000D01*
G75*
G02*
X163975004Y-103169998I0J-249998D01*
G01*
X163975004Y-103995002D01*
G75*
G02*
X163725006Y-104245000I-249998J0D01*
G01*
X161525002Y-104245000D01*
G75*
G02*
X161275004Y-103995002I0J249998D01*
G01*
X161275004Y-103169998D01*
G75*
G02*
X161525002Y-102920000I249998J0D01*
G01*
G37*
G36*
G01*
X164724999Y-92055000D02*
X166925003Y-92055000D01*
G75*
G02*
X167175001Y-92304998I0J-249998D01*
G01*
X167175001Y-93130002D01*
G75*
G02*
X166925003Y-93380000I-249998J0D01*
G01*
X164724999Y-93380000D01*
G75*
G02*
X164475001Y-93130002I0J249998D01*
G01*
X164475001Y-92304998D01*
G75*
G02*
X164724999Y-92055000I249998J0D01*
G01*
G37*
G36*
G01*
X164724999Y-88930000D02*
X166925003Y-88930000D01*
G75*
G02*
X167175001Y-89179998I0J-249998D01*
G01*
X167175001Y-90005002D01*
G75*
G02*
X166925003Y-90255000I-249998J0D01*
G01*
X164724999Y-90255000D01*
G75*
G02*
X164475001Y-90005002I0J249998D01*
G01*
X164475001Y-89179998D01*
G75*
G02*
X164724999Y-88930000I249998J0D01*
G01*
G37*
G36*
G01*
X138775024Y-106045000D02*
X140975028Y-106045000D01*
G75*
G02*
X141225026Y-106294998I0J-249998D01*
G01*
X141225026Y-107120002D01*
G75*
G02*
X140975028Y-107370000I-249998J0D01*
G01*
X138775024Y-107370000D01*
G75*
G02*
X138525026Y-107120002I0J249998D01*
G01*
X138525026Y-106294998D01*
G75*
G02*
X138775024Y-106045000I249998J0D01*
G01*
G37*
G36*
G01*
X138775024Y-102920000D02*
X140975028Y-102920000D01*
G75*
G02*
X141225026Y-103169998I0J-249998D01*
G01*
X141225026Y-103995002D01*
G75*
G02*
X140975028Y-104245000I-249998J0D01*
G01*
X138775024Y-104245000D01*
G75*
G02*
X138525026Y-103995002I0J249998D01*
G01*
X138525026Y-103169998D01*
G75*
G02*
X138775024Y-102920000I249998J0D01*
G01*
G37*
G36*
G01*
X168024998Y-106045000D02*
X170225002Y-106045000D01*
G75*
G02*
X170475000Y-106294998I0J-249998D01*
G01*
X170475000Y-107120002D01*
G75*
G02*
X170225002Y-107370000I-249998J0D01*
G01*
X168024998Y-107370000D01*
G75*
G02*
X167775000Y-107120002I0J249998D01*
G01*
X167775000Y-106294998D01*
G75*
G02*
X168024998Y-106045000I249998J0D01*
G01*
G37*
G36*
G01*
X168024998Y-102920000D02*
X170225002Y-102920000D01*
G75*
G02*
X170475000Y-103169998I0J-249998D01*
G01*
X170475000Y-103995002D01*
G75*
G02*
X170225002Y-104245000I-249998J0D01*
G01*
X168024998Y-104245000D01*
G75*
G02*
X167775000Y-103995002I0J249998D01*
G01*
X167775000Y-103169998D01*
G75*
G02*
X168024998Y-102920000I249998J0D01*
G01*
G37*
G36*
G01*
X167974998Y-92055000D02*
X170175002Y-92055000D01*
G75*
G02*
X170425000Y-92304998I0J-249998D01*
G01*
X170425000Y-93130002D01*
G75*
G02*
X170175002Y-93380000I-249998J0D01*
G01*
X167974998Y-93380000D01*
G75*
G02*
X167725000Y-93130002I0J249998D01*
G01*
X167725000Y-92304998D01*
G75*
G02*
X167974998Y-92055000I249998J0D01*
G01*
G37*
G36*
G01*
X167974998Y-88930000D02*
X170175002Y-88930000D01*
G75*
G02*
X170425000Y-89179998I0J-249998D01*
G01*
X170425000Y-90005002D01*
G75*
G02*
X170175002Y-90255000I-249998J0D01*
G01*
X167974998Y-90255000D01*
G75*
G02*
X167725000Y-90005002I0J249998D01*
G01*
X167725000Y-89179998D01*
G75*
G02*
X167974998Y-88930000I249998J0D01*
G01*
G37*
G36*
G01*
X132225013Y-92055000D02*
X134425017Y-92055000D01*
G75*
G02*
X134675015Y-92304998I0J-249998D01*
G01*
X134675015Y-93130002D01*
G75*
G02*
X134425017Y-93380000I-249998J0D01*
G01*
X132225013Y-93380000D01*
G75*
G02*
X131975015Y-93130002I0J249998D01*
G01*
X131975015Y-92304998D01*
G75*
G02*
X132225013Y-92055000I249998J0D01*
G01*
G37*
G36*
G01*
X132225013Y-88930000D02*
X134425017Y-88930000D01*
G75*
G02*
X134675015Y-89179998I0J-249998D01*
G01*
X134675015Y-90005002D01*
G75*
G02*
X134425017Y-90255000I-249998J0D01*
G01*
X132225013Y-90255000D01*
G75*
G02*
X131975015Y-90005002I0J249998D01*
G01*
X131975015Y-89179998D01*
G75*
G02*
X132225013Y-88930000I249998J0D01*
G01*
G37*
G36*
G01*
X148525010Y-106045000D02*
X150725014Y-106045000D01*
G75*
G02*
X150975012Y-106294998I0J-249998D01*
G01*
X150975012Y-107120002D01*
G75*
G02*
X150725014Y-107370000I-249998J0D01*
G01*
X148525010Y-107370000D01*
G75*
G02*
X148275012Y-107120002I0J249998D01*
G01*
X148275012Y-106294998D01*
G75*
G02*
X148525010Y-106045000I249998J0D01*
G01*
G37*
G36*
G01*
X148525010Y-102920000D02*
X150725014Y-102920000D01*
G75*
G02*
X150975012Y-103169998I0J-249998D01*
G01*
X150975012Y-103995002D01*
G75*
G02*
X150725014Y-104245000I-249998J0D01*
G01*
X148525010Y-104245000D01*
G75*
G02*
X148275012Y-103995002I0J249998D01*
G01*
X148275012Y-103169998D01*
G75*
G02*
X148525010Y-102920000I249998J0D01*
G01*
G37*
G36*
G01*
X151775008Y-106045000D02*
X153975012Y-106045000D01*
G75*
G02*
X154225010Y-106294998I0J-249998D01*
G01*
X154225010Y-107120002D01*
G75*
G02*
X153975012Y-107370000I-249998J0D01*
G01*
X151775008Y-107370000D01*
G75*
G02*
X151525010Y-107120002I0J249998D01*
G01*
X151525010Y-106294998D01*
G75*
G02*
X151775008Y-106045000I249998J0D01*
G01*
G37*
G36*
G01*
X151775008Y-102920000D02*
X153975012Y-102920000D01*
G75*
G02*
X154225010Y-103169998I0J-249998D01*
G01*
X154225010Y-103995002D01*
G75*
G02*
X153975012Y-104245000I-249998J0D01*
G01*
X151775008Y-104245000D01*
G75*
G02*
X151525010Y-103995002I0J249998D01*
G01*
X151525010Y-103169998D01*
G75*
G02*
X151775008Y-102920000I249998J0D01*
G01*
G37*
G36*
G01*
X138725011Y-92055000D02*
X140925015Y-92055000D01*
G75*
G02*
X141175013Y-92304998I0J-249998D01*
G01*
X141175013Y-93130002D01*
G75*
G02*
X140925015Y-93380000I-249998J0D01*
G01*
X138725011Y-93380000D01*
G75*
G02*
X138475013Y-93130002I0J249998D01*
G01*
X138475013Y-92304998D01*
G75*
G02*
X138725011Y-92055000I249998J0D01*
G01*
G37*
G36*
G01*
X138725011Y-88930000D02*
X140925015Y-88930000D01*
G75*
G02*
X141175013Y-89179998I0J-249998D01*
G01*
X141175013Y-90005002D01*
G75*
G02*
X140925015Y-90255000I-249998J0D01*
G01*
X138725011Y-90255000D01*
G75*
G02*
X138475013Y-90005002I0J249998D01*
G01*
X138475013Y-89179998D01*
G75*
G02*
X138725011Y-88930000I249998J0D01*
G01*
G37*
G36*
G01*
X124137534Y-105470000D02*
X124612534Y-105470000D01*
G75*
G02*
X124850034Y-105707500I0J-237500D01*
G01*
X124850034Y-106307500D01*
G75*
G02*
X124612534Y-106545000I-237500J0D01*
G01*
X124137534Y-106545000D01*
G75*
G02*
X123900034Y-106307500I0J237500D01*
G01*
X123900034Y-105707500D01*
G75*
G02*
X124137534Y-105470000I237500J0D01*
G01*
G37*
G36*
G01*
X124137534Y-103745000D02*
X124612534Y-103745000D01*
G75*
G02*
X124850034Y-103982500I0J-237500D01*
G01*
X124850034Y-104582500D01*
G75*
G02*
X124612534Y-104820000I-237500J0D01*
G01*
X124137534Y-104820000D01*
G75*
G02*
X123900034Y-104582500I0J237500D01*
G01*
X123900034Y-103982500D01*
G75*
G02*
X124137534Y-103745000I237500J0D01*
G01*
G37*
G36*
G01*
X171387500Y-105457500D02*
X171862500Y-105457500D01*
G75*
G02*
X172100000Y-105695000I0J-237500D01*
G01*
X172100000Y-106295000D01*
G75*
G02*
X171862500Y-106532500I-237500J0D01*
G01*
X171387500Y-106532500D01*
G75*
G02*
X171150000Y-106295000I0J237500D01*
G01*
X171150000Y-105695000D01*
G75*
G02*
X171387500Y-105457500I237500J0D01*
G01*
G37*
G36*
G01*
X171387500Y-103732500D02*
X171862500Y-103732500D01*
G75*
G02*
X172100000Y-103970000I0J-237500D01*
G01*
X172100000Y-104570000D01*
G75*
G02*
X171862500Y-104807500I-237500J0D01*
G01*
X171387500Y-104807500D01*
G75*
G02*
X171150000Y-104570000I0J237500D01*
G01*
X171150000Y-103970000D01*
G75*
G02*
X171387500Y-103732500I237500J0D01*
G01*
G37*
G36*
G01*
X122637500Y-119037500D02*
X123112500Y-119037500D01*
G75*
G02*
X123350000Y-119275000I0J-237500D01*
G01*
X123350000Y-119875000D01*
G75*
G02*
X123112500Y-120112500I-237500J0D01*
G01*
X122637500Y-120112500D01*
G75*
G02*
X122400000Y-119875000I0J237500D01*
G01*
X122400000Y-119275000D01*
G75*
G02*
X122637500Y-119037500I237500J0D01*
G01*
G37*
G36*
G01*
X122637500Y-117312500D02*
X123112500Y-117312500D01*
G75*
G02*
X123350000Y-117550000I0J-237500D01*
G01*
X123350000Y-118150000D01*
G75*
G02*
X123112500Y-118387500I-237500J0D01*
G01*
X122637500Y-118387500D01*
G75*
G02*
X122400000Y-118150000I0J237500D01*
G01*
X122400000Y-117550000D01*
G75*
G02*
X122637500Y-117312500I237500J0D01*
G01*
G37*
G36*
G01*
X172887500Y-119037500D02*
X173362500Y-119037500D01*
G75*
G02*
X173600000Y-119275000I0J-237500D01*
G01*
X173600000Y-119875000D01*
G75*
G02*
X173362500Y-120112500I-237500J0D01*
G01*
X172887500Y-120112500D01*
G75*
G02*
X172650000Y-119875000I0J237500D01*
G01*
X172650000Y-119275000D01*
G75*
G02*
X172887500Y-119037500I237500J0D01*
G01*
G37*
G36*
G01*
X172887500Y-117312500D02*
X173362500Y-117312500D01*
G75*
G02*
X173600000Y-117550000I0J-237500D01*
G01*
X173600000Y-118150000D01*
G75*
G02*
X173362500Y-118387500I-237500J0D01*
G01*
X172887500Y-118387500D01*
G75*
G02*
X172650000Y-118150000I0J237500D01*
G01*
X172650000Y-117550000D01*
G75*
G02*
X172887500Y-117312500I237500J0D01*
G01*
G37*
G36*
G01*
X124137500Y-119037500D02*
X124612500Y-119037500D01*
G75*
G02*
X124850000Y-119275000I0J-237500D01*
G01*
X124850000Y-119875000D01*
G75*
G02*
X124612500Y-120112500I-237500J0D01*
G01*
X124137500Y-120112500D01*
G75*
G02*
X123900000Y-119875000I0J237500D01*
G01*
X123900000Y-119275000D01*
G75*
G02*
X124137500Y-119037500I237500J0D01*
G01*
G37*
G36*
G01*
X124137500Y-117312500D02*
X124612500Y-117312500D01*
G75*
G02*
X124850000Y-117550000I0J-237500D01*
G01*
X124850000Y-118150000D01*
G75*
G02*
X124612500Y-118387500I-237500J0D01*
G01*
X124137500Y-118387500D01*
G75*
G02*
X123900000Y-118150000I0J237500D01*
G01*
X123900000Y-117550000D01*
G75*
G02*
X124137500Y-117312500I237500J0D01*
G01*
G37*
G36*
G01*
X168024998Y-119612500D02*
X170225002Y-119612500D01*
G75*
G02*
X170475000Y-119862498I0J-249998D01*
G01*
X170475000Y-120687502D01*
G75*
G02*
X170225002Y-120937500I-249998J0D01*
G01*
X168024998Y-120937500D01*
G75*
G02*
X167775000Y-120687502I0J249998D01*
G01*
X167775000Y-119862498D01*
G75*
G02*
X168024998Y-119612500I249998J0D01*
G01*
G37*
G36*
G01*
X168024998Y-116487500D02*
X170225002Y-116487500D01*
G75*
G02*
X170475000Y-116737498I0J-249998D01*
G01*
X170475000Y-117562502D01*
G75*
G02*
X170225002Y-117812500I-249998J0D01*
G01*
X168024998Y-117812500D01*
G75*
G02*
X167775000Y-117562502I0J249998D01*
G01*
X167775000Y-116737498D01*
G75*
G02*
X168024998Y-116487500I249998J0D01*
G01*
G37*
G36*
G01*
X138774998Y-119612500D02*
X140975002Y-119612500D01*
G75*
G02*
X141225000Y-119862498I0J-249998D01*
G01*
X141225000Y-120687502D01*
G75*
G02*
X140975002Y-120937500I-249998J0D01*
G01*
X138774998Y-120937500D01*
G75*
G02*
X138525000Y-120687502I0J249998D01*
G01*
X138525000Y-119862498D01*
G75*
G02*
X138774998Y-119612500I249998J0D01*
G01*
G37*
G36*
G01*
X138774998Y-116487500D02*
X140975002Y-116487500D01*
G75*
G02*
X141225000Y-116737498I0J-249998D01*
G01*
X141225000Y-117562502D01*
G75*
G02*
X140975002Y-117812500I-249998J0D01*
G01*
X138774998Y-117812500D01*
G75*
G02*
X138525000Y-117562502I0J249998D01*
G01*
X138525000Y-116737498D01*
G75*
G02*
X138774998Y-116487500I249998J0D01*
G01*
G37*
G36*
G01*
X125774998Y-119612500D02*
X127975002Y-119612500D01*
G75*
G02*
X128225000Y-119862498I0J-249998D01*
G01*
X128225000Y-120687502D01*
G75*
G02*
X127975002Y-120937500I-249998J0D01*
G01*
X125774998Y-120937500D01*
G75*
G02*
X125525000Y-120687502I0J249998D01*
G01*
X125525000Y-119862498D01*
G75*
G02*
X125774998Y-119612500I249998J0D01*
G01*
G37*
G36*
G01*
X125774998Y-116487500D02*
X127975002Y-116487500D01*
G75*
G02*
X128225000Y-116737498I0J-249998D01*
G01*
X128225000Y-117562502D01*
G75*
G02*
X127975002Y-117812500I-249998J0D01*
G01*
X125774998Y-117812500D01*
G75*
G02*
X125525000Y-117562502I0J249998D01*
G01*
X125525000Y-116737498D01*
G75*
G02*
X125774998Y-116487500I249998J0D01*
G01*
G37*
G36*
G01*
X148524998Y-119612500D02*
X150725002Y-119612500D01*
G75*
G02*
X150975000Y-119862498I0J-249998D01*
G01*
X150975000Y-120687502D01*
G75*
G02*
X150725002Y-120937500I-249998J0D01*
G01*
X148524998Y-120937500D01*
G75*
G02*
X148275000Y-120687502I0J249998D01*
G01*
X148275000Y-119862498D01*
G75*
G02*
X148524998Y-119612500I249998J0D01*
G01*
G37*
G36*
G01*
X148524998Y-116487500D02*
X150725002Y-116487500D01*
G75*
G02*
X150975000Y-116737498I0J-249998D01*
G01*
X150975000Y-117562502D01*
G75*
G02*
X150725002Y-117812500I-249998J0D01*
G01*
X148524998Y-117812500D01*
G75*
G02*
X148275000Y-117562502I0J249998D01*
G01*
X148275000Y-116737498D01*
G75*
G02*
X148524998Y-116487500I249998J0D01*
G01*
G37*
G36*
G01*
X129024998Y-119612500D02*
X131225002Y-119612500D01*
G75*
G02*
X131475000Y-119862498I0J-249998D01*
G01*
X131475000Y-120687502D01*
G75*
G02*
X131225002Y-120937500I-249998J0D01*
G01*
X129024998Y-120937500D01*
G75*
G02*
X128775000Y-120687502I0J249998D01*
G01*
X128775000Y-119862498D01*
G75*
G02*
X129024998Y-119612500I249998J0D01*
G01*
G37*
G36*
G01*
X129024998Y-116487500D02*
X131225002Y-116487500D01*
G75*
G02*
X131475000Y-116737498I0J-249998D01*
G01*
X131475000Y-117562502D01*
G75*
G02*
X131225002Y-117812500I-249998J0D01*
G01*
X129024998Y-117812500D01*
G75*
G02*
X128775000Y-117562502I0J249998D01*
G01*
X128775000Y-116737498D01*
G75*
G02*
X129024998Y-116487500I249998J0D01*
G01*
G37*
G36*
G01*
X158274998Y-119612500D02*
X160475002Y-119612500D01*
G75*
G02*
X160725000Y-119862498I0J-249998D01*
G01*
X160725000Y-120687502D01*
G75*
G02*
X160475002Y-120937500I-249998J0D01*
G01*
X158274998Y-120937500D01*
G75*
G02*
X158025000Y-120687502I0J249998D01*
G01*
X158025000Y-119862498D01*
G75*
G02*
X158274998Y-119612500I249998J0D01*
G01*
G37*
G36*
G01*
X158274998Y-116487500D02*
X160475002Y-116487500D01*
G75*
G02*
X160725000Y-116737498I0J-249998D01*
G01*
X160725000Y-117562502D01*
G75*
G02*
X160475002Y-117812500I-249998J0D01*
G01*
X158274998Y-117812500D01*
G75*
G02*
X158025000Y-117562502I0J249998D01*
G01*
X158025000Y-116737498D01*
G75*
G02*
X158274998Y-116487500I249998J0D01*
G01*
G37*
G36*
G01*
X155024998Y-119612500D02*
X157225002Y-119612500D01*
G75*
G02*
X157475000Y-119862498I0J-249998D01*
G01*
X157475000Y-120687502D01*
G75*
G02*
X157225002Y-120937500I-249998J0D01*
G01*
X155024998Y-120937500D01*
G75*
G02*
X154775000Y-120687502I0J249998D01*
G01*
X154775000Y-119862498D01*
G75*
G02*
X155024998Y-119612500I249998J0D01*
G01*
G37*
G36*
G01*
X155024998Y-116487500D02*
X157225002Y-116487500D01*
G75*
G02*
X157475000Y-116737498I0J-249998D01*
G01*
X157475000Y-117562502D01*
G75*
G02*
X157225002Y-117812500I-249998J0D01*
G01*
X155024998Y-117812500D01*
G75*
G02*
X154775000Y-117562502I0J249998D01*
G01*
X154775000Y-116737498D01*
G75*
G02*
X155024998Y-116487500I249998J0D01*
G01*
G37*
G36*
G01*
X145274998Y-119612500D02*
X147475002Y-119612500D01*
G75*
G02*
X147725000Y-119862498I0J-249998D01*
G01*
X147725000Y-120687502D01*
G75*
G02*
X147475002Y-120937500I-249998J0D01*
G01*
X145274998Y-120937500D01*
G75*
G02*
X145025000Y-120687502I0J249998D01*
G01*
X145025000Y-119862498D01*
G75*
G02*
X145274998Y-119612500I249998J0D01*
G01*
G37*
G36*
G01*
X145274998Y-116487500D02*
X147475002Y-116487500D01*
G75*
G02*
X147725000Y-116737498I0J-249998D01*
G01*
X147725000Y-117562502D01*
G75*
G02*
X147475002Y-117812500I-249998J0D01*
G01*
X145274998Y-117812500D01*
G75*
G02*
X145025000Y-117562502I0J249998D01*
G01*
X145025000Y-116737498D01*
G75*
G02*
X145274998Y-116487500I249998J0D01*
G01*
G37*
G36*
G01*
X135524998Y-119612500D02*
X137725002Y-119612500D01*
G75*
G02*
X137975000Y-119862498I0J-249998D01*
G01*
X137975000Y-120687502D01*
G75*
G02*
X137725002Y-120937500I-249998J0D01*
G01*
X135524998Y-120937500D01*
G75*
G02*
X135275000Y-120687502I0J249998D01*
G01*
X135275000Y-119862498D01*
G75*
G02*
X135524998Y-119612500I249998J0D01*
G01*
G37*
G36*
G01*
X135524998Y-116487500D02*
X137725002Y-116487500D01*
G75*
G02*
X137975000Y-116737498I0J-249998D01*
G01*
X137975000Y-117562502D01*
G75*
G02*
X137725002Y-117812500I-249998J0D01*
G01*
X135524998Y-117812500D01*
G75*
G02*
X135275000Y-117562502I0J249998D01*
G01*
X135275000Y-116737498D01*
G75*
G02*
X135524998Y-116487500I249998J0D01*
G01*
G37*
G36*
G01*
X161524998Y-119612500D02*
X163725002Y-119612500D01*
G75*
G02*
X163975000Y-119862498I0J-249998D01*
G01*
X163975000Y-120687502D01*
G75*
G02*
X163725002Y-120937500I-249998J0D01*
G01*
X161524998Y-120937500D01*
G75*
G02*
X161275000Y-120687502I0J249998D01*
G01*
X161275000Y-119862498D01*
G75*
G02*
X161524998Y-119612500I249998J0D01*
G01*
G37*
G36*
G01*
X161524998Y-116487500D02*
X163725002Y-116487500D01*
G75*
G02*
X163975000Y-116737498I0J-249998D01*
G01*
X163975000Y-117562502D01*
G75*
G02*
X163725002Y-117812500I-249998J0D01*
G01*
X161524998Y-117812500D01*
G75*
G02*
X161275000Y-117562502I0J249998D01*
G01*
X161275000Y-116737498D01*
G75*
G02*
X161524998Y-116487500I249998J0D01*
G01*
G37*
G36*
G01*
X142024998Y-119612500D02*
X144225002Y-119612500D01*
G75*
G02*
X144475000Y-119862498I0J-249998D01*
G01*
X144475000Y-120687502D01*
G75*
G02*
X144225002Y-120937500I-249998J0D01*
G01*
X142024998Y-120937500D01*
G75*
G02*
X141775000Y-120687502I0J249998D01*
G01*
X141775000Y-119862498D01*
G75*
G02*
X142024998Y-119612500I249998J0D01*
G01*
G37*
G36*
G01*
X142024998Y-116487500D02*
X144225002Y-116487500D01*
G75*
G02*
X144475000Y-116737498I0J-249998D01*
G01*
X144475000Y-117562502D01*
G75*
G02*
X144225002Y-117812500I-249998J0D01*
G01*
X142024998Y-117812500D01*
G75*
G02*
X141775000Y-117562502I0J249998D01*
G01*
X141775000Y-116737498D01*
G75*
G02*
X142024998Y-116487500I249998J0D01*
G01*
G37*
G36*
G01*
X164774998Y-119612500D02*
X166975002Y-119612500D01*
G75*
G02*
X167225000Y-119862498I0J-249998D01*
G01*
X167225000Y-120687502D01*
G75*
G02*
X166975002Y-120937500I-249998J0D01*
G01*
X164774998Y-120937500D01*
G75*
G02*
X164525000Y-120687502I0J249998D01*
G01*
X164525000Y-119862498D01*
G75*
G02*
X164774998Y-119612500I249998J0D01*
G01*
G37*
G36*
G01*
X164774998Y-116487500D02*
X166975002Y-116487500D01*
G75*
G02*
X167225000Y-116737498I0J-249998D01*
G01*
X167225000Y-117562502D01*
G75*
G02*
X166975002Y-117812500I-249998J0D01*
G01*
X164774998Y-117812500D01*
G75*
G02*
X164525000Y-117562502I0J249998D01*
G01*
X164525000Y-116737498D01*
G75*
G02*
X164774998Y-116487500I249998J0D01*
G01*
G37*
G36*
G01*
X151774998Y-119612500D02*
X153975002Y-119612500D01*
G75*
G02*
X154225000Y-119862498I0J-249998D01*
G01*
X154225000Y-120687502D01*
G75*
G02*
X153975002Y-120937500I-249998J0D01*
G01*
X151774998Y-120937500D01*
G75*
G02*
X151525000Y-120687502I0J249998D01*
G01*
X151525000Y-119862498D01*
G75*
G02*
X151774998Y-119612500I249998J0D01*
G01*
G37*
G36*
G01*
X151774998Y-116487500D02*
X153975002Y-116487500D01*
G75*
G02*
X154225000Y-116737498I0J-249998D01*
G01*
X154225000Y-117562502D01*
G75*
G02*
X153975002Y-117812500I-249998J0D01*
G01*
X151774998Y-117812500D01*
G75*
G02*
X151525000Y-117562502I0J249998D01*
G01*
X151525000Y-116737498D01*
G75*
G02*
X151774998Y-116487500I249998J0D01*
G01*
G37*
G36*
G01*
X132274998Y-119612500D02*
X134475002Y-119612500D01*
G75*
G02*
X134725000Y-119862498I0J-249998D01*
G01*
X134725000Y-120687502D01*
G75*
G02*
X134475002Y-120937500I-249998J0D01*
G01*
X132274998Y-120937500D01*
G75*
G02*
X132025000Y-120687502I0J249998D01*
G01*
X132025000Y-119862498D01*
G75*
G02*
X132274998Y-119612500I249998J0D01*
G01*
G37*
G36*
G01*
X132274998Y-116487500D02*
X134475002Y-116487500D01*
G75*
G02*
X134725000Y-116737498I0J-249998D01*
G01*
X134725000Y-117562502D01*
G75*
G02*
X134475002Y-117812500I-249998J0D01*
G01*
X132274998Y-117812500D01*
G75*
G02*
X132025000Y-117562502I0J249998D01*
G01*
X132025000Y-116737498D01*
G75*
G02*
X132274998Y-116487500I249998J0D01*
G01*
G37*
G36*
G01*
X171387500Y-119037500D02*
X171862500Y-119037500D01*
G75*
G02*
X172100000Y-119275000I0J-237500D01*
G01*
X172100000Y-119875000D01*
G75*
G02*
X171862500Y-120112500I-237500J0D01*
G01*
X171387500Y-120112500D01*
G75*
G02*
X171150000Y-119875000I0J237500D01*
G01*
X171150000Y-119275000D01*
G75*
G02*
X171387500Y-119037500I237500J0D01*
G01*
G37*
G36*
G01*
X171387500Y-117312500D02*
X171862500Y-117312500D01*
G75*
G02*
X172100000Y-117550000I0J-237500D01*
G01*
X172100000Y-118150000D01*
G75*
G02*
X171862500Y-118387500I-237500J0D01*
G01*
X171387500Y-118387500D01*
G75*
G02*
X171150000Y-118150000I0J237500D01*
G01*
X171150000Y-117550000D01*
G75*
G02*
X171387500Y-117312500I237500J0D01*
G01*
G37*
G36*
G01*
X171387500Y-112137500D02*
X171862500Y-112137500D01*
G75*
G02*
X172100000Y-112375000I0J-237500D01*
G01*
X172100000Y-112975000D01*
G75*
G02*
X171862500Y-113212500I-237500J0D01*
G01*
X171387500Y-113212500D01*
G75*
G02*
X171150000Y-112975000I0J237500D01*
G01*
X171150000Y-112375000D01*
G75*
G02*
X171387500Y-112137500I237500J0D01*
G01*
G37*
G36*
G01*
X171387500Y-110412500D02*
X171862500Y-110412500D01*
G75*
G02*
X172100000Y-110650000I0J-237500D01*
G01*
X172100000Y-111250000D01*
G75*
G02*
X171862500Y-111487500I-237500J0D01*
G01*
X171387500Y-111487500D01*
G75*
G02*
X171150000Y-111250000I0J237500D01*
G01*
X171150000Y-110650000D01*
G75*
G02*
X171387500Y-110412500I237500J0D01*
G01*
G37*
G36*
G01*
X122637500Y-112137500D02*
X123112500Y-112137500D01*
G75*
G02*
X123350000Y-112375000I0J-237500D01*
G01*
X123350000Y-112975000D01*
G75*
G02*
X123112500Y-113212500I-237500J0D01*
G01*
X122637500Y-113212500D01*
G75*
G02*
X122400000Y-112975000I0J237500D01*
G01*
X122400000Y-112375000D01*
G75*
G02*
X122637500Y-112137500I237500J0D01*
G01*
G37*
G36*
G01*
X122637500Y-110412500D02*
X123112500Y-110412500D01*
G75*
G02*
X123350000Y-110650000I0J-237500D01*
G01*
X123350000Y-111250000D01*
G75*
G02*
X123112500Y-111487500I-237500J0D01*
G01*
X122637500Y-111487500D01*
G75*
G02*
X122400000Y-111250000I0J237500D01*
G01*
X122400000Y-110650000D01*
G75*
G02*
X122637500Y-110412500I237500J0D01*
G01*
G37*
G36*
G01*
X125774998Y-112712500D02*
X127975002Y-112712500D01*
G75*
G02*
X128225000Y-112962498I0J-249998D01*
G01*
X128225000Y-113787502D01*
G75*
G02*
X127975002Y-114037500I-249998J0D01*
G01*
X125774998Y-114037500D01*
G75*
G02*
X125525000Y-113787502I0J249998D01*
G01*
X125525000Y-112962498D01*
G75*
G02*
X125774998Y-112712500I249998J0D01*
G01*
G37*
G36*
G01*
X125774998Y-109587500D02*
X127975002Y-109587500D01*
G75*
G02*
X128225000Y-109837498I0J-249998D01*
G01*
X128225000Y-110662502D01*
G75*
G02*
X127975002Y-110912500I-249998J0D01*
G01*
X125774998Y-110912500D01*
G75*
G02*
X125525000Y-110662502I0J249998D01*
G01*
X125525000Y-109837498D01*
G75*
G02*
X125774998Y-109587500I249998J0D01*
G01*
G37*
G36*
G01*
X129024998Y-112712500D02*
X131225002Y-112712500D01*
G75*
G02*
X131475000Y-112962498I0J-249998D01*
G01*
X131475000Y-113787502D01*
G75*
G02*
X131225002Y-114037500I-249998J0D01*
G01*
X129024998Y-114037500D01*
G75*
G02*
X128775000Y-113787502I0J249998D01*
G01*
X128775000Y-112962498D01*
G75*
G02*
X129024998Y-112712500I249998J0D01*
G01*
G37*
G36*
G01*
X129024998Y-109587500D02*
X131225002Y-109587500D01*
G75*
G02*
X131475000Y-109837498I0J-249998D01*
G01*
X131475000Y-110662502D01*
G75*
G02*
X131225002Y-110912500I-249998J0D01*
G01*
X129024998Y-110912500D01*
G75*
G02*
X128775000Y-110662502I0J249998D01*
G01*
X128775000Y-109837498D01*
G75*
G02*
X129024998Y-109587500I249998J0D01*
G01*
G37*
G36*
G01*
X132274998Y-112712500D02*
X134475002Y-112712500D01*
G75*
G02*
X134725000Y-112962498I0J-249998D01*
G01*
X134725000Y-113787502D01*
G75*
G02*
X134475002Y-114037500I-249998J0D01*
G01*
X132274998Y-114037500D01*
G75*
G02*
X132025000Y-113787502I0J249998D01*
G01*
X132025000Y-112962498D01*
G75*
G02*
X132274998Y-112712500I249998J0D01*
G01*
G37*
G36*
G01*
X132274998Y-109587500D02*
X134475002Y-109587500D01*
G75*
G02*
X134725000Y-109837498I0J-249998D01*
G01*
X134725000Y-110662502D01*
G75*
G02*
X134475002Y-110912500I-249998J0D01*
G01*
X132274998Y-110912500D01*
G75*
G02*
X132025000Y-110662502I0J249998D01*
G01*
X132025000Y-109837498D01*
G75*
G02*
X132274998Y-109587500I249998J0D01*
G01*
G37*
G36*
G01*
X145274998Y-112712500D02*
X147475002Y-112712500D01*
G75*
G02*
X147725000Y-112962498I0J-249998D01*
G01*
X147725000Y-113787502D01*
G75*
G02*
X147475002Y-114037500I-249998J0D01*
G01*
X145274998Y-114037500D01*
G75*
G02*
X145025000Y-113787502I0J249998D01*
G01*
X145025000Y-112962498D01*
G75*
G02*
X145274998Y-112712500I249998J0D01*
G01*
G37*
G36*
G01*
X145274998Y-109587500D02*
X147475002Y-109587500D01*
G75*
G02*
X147725000Y-109837498I0J-249998D01*
G01*
X147725000Y-110662502D01*
G75*
G02*
X147475002Y-110912500I-249998J0D01*
G01*
X145274998Y-110912500D01*
G75*
G02*
X145025000Y-110662502I0J249998D01*
G01*
X145025000Y-109837498D01*
G75*
G02*
X145274998Y-109587500I249998J0D01*
G01*
G37*
G36*
G01*
X135524998Y-112712500D02*
X137725002Y-112712500D01*
G75*
G02*
X137975000Y-112962498I0J-249998D01*
G01*
X137975000Y-113787502D01*
G75*
G02*
X137725002Y-114037500I-249998J0D01*
G01*
X135524998Y-114037500D01*
G75*
G02*
X135275000Y-113787502I0J249998D01*
G01*
X135275000Y-112962498D01*
G75*
G02*
X135524998Y-112712500I249998J0D01*
G01*
G37*
G36*
G01*
X135524998Y-109587500D02*
X137725002Y-109587500D01*
G75*
G02*
X137975000Y-109837498I0J-249998D01*
G01*
X137975000Y-110662502D01*
G75*
G02*
X137725002Y-110912500I-249998J0D01*
G01*
X135524998Y-110912500D01*
G75*
G02*
X135275000Y-110662502I0J249998D01*
G01*
X135275000Y-109837498D01*
G75*
G02*
X135524998Y-109587500I249998J0D01*
G01*
G37*
G36*
G01*
X168024998Y-112712500D02*
X170225002Y-112712500D01*
G75*
G02*
X170475000Y-112962498I0J-249998D01*
G01*
X170475000Y-113787502D01*
G75*
G02*
X170225002Y-114037500I-249998J0D01*
G01*
X168024998Y-114037500D01*
G75*
G02*
X167775000Y-113787502I0J249998D01*
G01*
X167775000Y-112962498D01*
G75*
G02*
X168024998Y-112712500I249998J0D01*
G01*
G37*
G36*
G01*
X168024998Y-109587500D02*
X170225002Y-109587500D01*
G75*
G02*
X170475000Y-109837498I0J-249998D01*
G01*
X170475000Y-110662502D01*
G75*
G02*
X170225002Y-110912500I-249998J0D01*
G01*
X168024998Y-110912500D01*
G75*
G02*
X167775000Y-110662502I0J249998D01*
G01*
X167775000Y-109837498D01*
G75*
G02*
X168024998Y-109587500I249998J0D01*
G01*
G37*
G36*
G01*
X151774998Y-112712500D02*
X153975002Y-112712500D01*
G75*
G02*
X154225000Y-112962498I0J-249998D01*
G01*
X154225000Y-113787502D01*
G75*
G02*
X153975002Y-114037500I-249998J0D01*
G01*
X151774998Y-114037500D01*
G75*
G02*
X151525000Y-113787502I0J249998D01*
G01*
X151525000Y-112962498D01*
G75*
G02*
X151774998Y-112712500I249998J0D01*
G01*
G37*
G36*
G01*
X151774998Y-109587500D02*
X153975002Y-109587500D01*
G75*
G02*
X154225000Y-109837498I0J-249998D01*
G01*
X154225000Y-110662502D01*
G75*
G02*
X153975002Y-110912500I-249998J0D01*
G01*
X151774998Y-110912500D01*
G75*
G02*
X151525000Y-110662502I0J249998D01*
G01*
X151525000Y-109837498D01*
G75*
G02*
X151774998Y-109587500I249998J0D01*
G01*
G37*
G36*
G01*
X138774998Y-112712500D02*
X140975002Y-112712500D01*
G75*
G02*
X141225000Y-112962498I0J-249998D01*
G01*
X141225000Y-113787502D01*
G75*
G02*
X140975002Y-114037500I-249998J0D01*
G01*
X138774998Y-114037500D01*
G75*
G02*
X138525000Y-113787502I0J249998D01*
G01*
X138525000Y-112962498D01*
G75*
G02*
X138774998Y-112712500I249998J0D01*
G01*
G37*
G36*
G01*
X138774998Y-109587500D02*
X140975002Y-109587500D01*
G75*
G02*
X141225000Y-109837498I0J-249998D01*
G01*
X141225000Y-110662502D01*
G75*
G02*
X140975002Y-110912500I-249998J0D01*
G01*
X138774998Y-110912500D01*
G75*
G02*
X138525000Y-110662502I0J249998D01*
G01*
X138525000Y-109837498D01*
G75*
G02*
X138774998Y-109587500I249998J0D01*
G01*
G37*
G36*
G01*
X158274998Y-112712500D02*
X160475002Y-112712500D01*
G75*
G02*
X160725000Y-112962498I0J-249998D01*
G01*
X160725000Y-113787502D01*
G75*
G02*
X160475002Y-114037500I-249998J0D01*
G01*
X158274998Y-114037500D01*
G75*
G02*
X158025000Y-113787502I0J249998D01*
G01*
X158025000Y-112962498D01*
G75*
G02*
X158274998Y-112712500I249998J0D01*
G01*
G37*
G36*
G01*
X158274998Y-109587500D02*
X160475002Y-109587500D01*
G75*
G02*
X160725000Y-109837498I0J-249998D01*
G01*
X160725000Y-110662502D01*
G75*
G02*
X160475002Y-110912500I-249998J0D01*
G01*
X158274998Y-110912500D01*
G75*
G02*
X158025000Y-110662502I0J249998D01*
G01*
X158025000Y-109837498D01*
G75*
G02*
X158274998Y-109587500I249998J0D01*
G01*
G37*
G36*
G01*
X142024998Y-112712500D02*
X144225002Y-112712500D01*
G75*
G02*
X144475000Y-112962498I0J-249998D01*
G01*
X144475000Y-113787502D01*
G75*
G02*
X144225002Y-114037500I-249998J0D01*
G01*
X142024998Y-114037500D01*
G75*
G02*
X141775000Y-113787502I0J249998D01*
G01*
X141775000Y-112962498D01*
G75*
G02*
X142024998Y-112712500I249998J0D01*
G01*
G37*
G36*
G01*
X142024998Y-109587500D02*
X144225002Y-109587500D01*
G75*
G02*
X144475000Y-109837498I0J-249998D01*
G01*
X144475000Y-110662502D01*
G75*
G02*
X144225002Y-110912500I-249998J0D01*
G01*
X142024998Y-110912500D01*
G75*
G02*
X141775000Y-110662502I0J249998D01*
G01*
X141775000Y-109837498D01*
G75*
G02*
X142024998Y-109587500I249998J0D01*
G01*
G37*
G36*
G01*
X148524998Y-112712500D02*
X150725002Y-112712500D01*
G75*
G02*
X150975000Y-112962498I0J-249998D01*
G01*
X150975000Y-113787502D01*
G75*
G02*
X150725002Y-114037500I-249998J0D01*
G01*
X148524998Y-114037500D01*
G75*
G02*
X148275000Y-113787502I0J249998D01*
G01*
X148275000Y-112962498D01*
G75*
G02*
X148524998Y-112712500I249998J0D01*
G01*
G37*
G36*
G01*
X148524998Y-109587500D02*
X150725002Y-109587500D01*
G75*
G02*
X150975000Y-109837498I0J-249998D01*
G01*
X150975000Y-110662502D01*
G75*
G02*
X150725002Y-110912500I-249998J0D01*
G01*
X148524998Y-110912500D01*
G75*
G02*
X148275000Y-110662502I0J249998D01*
G01*
X148275000Y-109837498D01*
G75*
G02*
X148524998Y-109587500I249998J0D01*
G01*
G37*
G36*
G01*
X161524998Y-112712500D02*
X163725002Y-112712500D01*
G75*
G02*
X163975000Y-112962498I0J-249998D01*
G01*
X163975000Y-113787502D01*
G75*
G02*
X163725002Y-114037500I-249998J0D01*
G01*
X161524998Y-114037500D01*
G75*
G02*
X161275000Y-113787502I0J249998D01*
G01*
X161275000Y-112962498D01*
G75*
G02*
X161524998Y-112712500I249998J0D01*
G01*
G37*
G36*
G01*
X161524998Y-109587500D02*
X163725002Y-109587500D01*
G75*
G02*
X163975000Y-109837498I0J-249998D01*
G01*
X163975000Y-110662502D01*
G75*
G02*
X163725002Y-110912500I-249998J0D01*
G01*
X161524998Y-110912500D01*
G75*
G02*
X161275000Y-110662502I0J249998D01*
G01*
X161275000Y-109837498D01*
G75*
G02*
X161524998Y-109587500I249998J0D01*
G01*
G37*
G36*
G01*
X155024998Y-112712500D02*
X157225002Y-112712500D01*
G75*
G02*
X157475000Y-112962498I0J-249998D01*
G01*
X157475000Y-113787502D01*
G75*
G02*
X157225002Y-114037500I-249998J0D01*
G01*
X155024998Y-114037500D01*
G75*
G02*
X154775000Y-113787502I0J249998D01*
G01*
X154775000Y-112962498D01*
G75*
G02*
X155024998Y-112712500I249998J0D01*
G01*
G37*
G36*
G01*
X155024998Y-109587500D02*
X157225002Y-109587500D01*
G75*
G02*
X157475000Y-109837498I0J-249998D01*
G01*
X157475000Y-110662502D01*
G75*
G02*
X157225002Y-110912500I-249998J0D01*
G01*
X155024998Y-110912500D01*
G75*
G02*
X154775000Y-110662502I0J249998D01*
G01*
X154775000Y-109837498D01*
G75*
G02*
X155024998Y-109587500I249998J0D01*
G01*
G37*
G36*
G01*
X164774998Y-112712500D02*
X166975002Y-112712500D01*
G75*
G02*
X167225000Y-112962498I0J-249998D01*
G01*
X167225000Y-113787502D01*
G75*
G02*
X166975002Y-114037500I-249998J0D01*
G01*
X164774998Y-114037500D01*
G75*
G02*
X164525000Y-113787502I0J249998D01*
G01*
X164525000Y-112962498D01*
G75*
G02*
X164774998Y-112712500I249998J0D01*
G01*
G37*
G36*
G01*
X164774998Y-109587500D02*
X166975002Y-109587500D01*
G75*
G02*
X167225000Y-109837498I0J-249998D01*
G01*
X167225000Y-110662502D01*
G75*
G02*
X166975002Y-110912500I-249998J0D01*
G01*
X164774998Y-110912500D01*
G75*
G02*
X164525000Y-110662502I0J249998D01*
G01*
X164525000Y-109837498D01*
G75*
G02*
X164774998Y-109587500I249998J0D01*
G01*
G37*
G36*
G01*
X172887500Y-112137500D02*
X173362500Y-112137500D01*
G75*
G02*
X173600000Y-112375000I0J-237500D01*
G01*
X173600000Y-112975000D01*
G75*
G02*
X173362500Y-113212500I-237500J0D01*
G01*
X172887500Y-113212500D01*
G75*
G02*
X172650000Y-112975000I0J237500D01*
G01*
X172650000Y-112375000D01*
G75*
G02*
X172887500Y-112137500I237500J0D01*
G01*
G37*
G36*
G01*
X172887500Y-110412500D02*
X173362500Y-110412500D01*
G75*
G02*
X173600000Y-110650000I0J-237500D01*
G01*
X173600000Y-111250000D01*
G75*
G02*
X173362500Y-111487500I-237500J0D01*
G01*
X172887500Y-111487500D01*
G75*
G02*
X172650000Y-111250000I0J237500D01*
G01*
X172650000Y-110650000D01*
G75*
G02*
X172887500Y-110412500I237500J0D01*
G01*
G37*
G36*
G01*
X124137500Y-112137500D02*
X124612500Y-112137500D01*
G75*
G02*
X124850000Y-112375000I0J-237500D01*
G01*
X124850000Y-112975000D01*
G75*
G02*
X124612500Y-113212500I-237500J0D01*
G01*
X124137500Y-113212500D01*
G75*
G02*
X123900000Y-112975000I0J237500D01*
G01*
X123900000Y-112375000D01*
G75*
G02*
X124137500Y-112137500I237500J0D01*
G01*
G37*
G36*
G01*
X124137500Y-110412500D02*
X124612500Y-110412500D01*
G75*
G02*
X124850000Y-110650000I0J-237500D01*
G01*
X124850000Y-111250000D01*
G75*
G02*
X124612500Y-111487500I-237500J0D01*
G01*
X124137500Y-111487500D01*
G75*
G02*
X123900000Y-111250000I0J237500D01*
G01*
X123900000Y-110650000D01*
G75*
G02*
X124137500Y-110412500I237500J0D01*
G01*
G37*
G36*
G01*
X122637500Y-98475000D02*
X123112500Y-98475000D01*
G75*
G02*
X123350000Y-98712500I0J-237500D01*
G01*
X123350000Y-99312500D01*
G75*
G02*
X123112500Y-99550000I-237500J0D01*
G01*
X122637500Y-99550000D01*
G75*
G02*
X122400000Y-99312500I0J237500D01*
G01*
X122400000Y-98712500D01*
G75*
G02*
X122637500Y-98475000I237500J0D01*
G01*
G37*
G36*
G01*
X122637500Y-96750000D02*
X123112500Y-96750000D01*
G75*
G02*
X123350000Y-96987500I0J-237500D01*
G01*
X123350000Y-97587500D01*
G75*
G02*
X123112500Y-97825000I-237500J0D01*
G01*
X122637500Y-97825000D01*
G75*
G02*
X122400000Y-97587500I0J237500D01*
G01*
X122400000Y-96987500D01*
G75*
G02*
X122637500Y-96750000I237500J0D01*
G01*
G37*
G36*
G01*
X124137500Y-98475000D02*
X124612500Y-98475000D01*
G75*
G02*
X124850000Y-98712500I0J-237500D01*
G01*
X124850000Y-99312500D01*
G75*
G02*
X124612500Y-99550000I-237500J0D01*
G01*
X124137500Y-99550000D01*
G75*
G02*
X123900000Y-99312500I0J237500D01*
G01*
X123900000Y-98712500D01*
G75*
G02*
X124137500Y-98475000I237500J0D01*
G01*
G37*
G36*
G01*
X124137500Y-96750000D02*
X124612500Y-96750000D01*
G75*
G02*
X124850000Y-96987500I0J-237500D01*
G01*
X124850000Y-97587500D01*
G75*
G02*
X124612500Y-97825000I-237500J0D01*
G01*
X124137500Y-97825000D01*
G75*
G02*
X123900000Y-97587500I0J237500D01*
G01*
X123900000Y-96987500D01*
G75*
G02*
X124137500Y-96750000I237500J0D01*
G01*
G37*
G36*
G01*
X161524998Y-99050000D02*
X163725002Y-99050000D01*
G75*
G02*
X163975000Y-99299998I0J-249998D01*
G01*
X163975000Y-100125002D01*
G75*
G02*
X163725002Y-100375000I-249998J0D01*
G01*
X161524998Y-100375000D01*
G75*
G02*
X161275000Y-100125002I0J249998D01*
G01*
X161275000Y-99299998D01*
G75*
G02*
X161524998Y-99050000I249998J0D01*
G01*
G37*
G36*
G01*
X161524998Y-95925000D02*
X163725002Y-95925000D01*
G75*
G02*
X163975000Y-96174998I0J-249998D01*
G01*
X163975000Y-97000002D01*
G75*
G02*
X163725002Y-97250000I-249998J0D01*
G01*
X161524998Y-97250000D01*
G75*
G02*
X161275000Y-97000002I0J249998D01*
G01*
X161275000Y-96174998D01*
G75*
G02*
X161524998Y-95925000I249998J0D01*
G01*
G37*
G36*
G01*
X145274998Y-99050000D02*
X147475002Y-99050000D01*
G75*
G02*
X147725000Y-99299998I0J-249998D01*
G01*
X147725000Y-100125002D01*
G75*
G02*
X147475002Y-100375000I-249998J0D01*
G01*
X145274998Y-100375000D01*
G75*
G02*
X145025000Y-100125002I0J249998D01*
G01*
X145025000Y-99299998D01*
G75*
G02*
X145274998Y-99050000I249998J0D01*
G01*
G37*
G36*
G01*
X145274998Y-95925000D02*
X147475002Y-95925000D01*
G75*
G02*
X147725000Y-96174998I0J-249998D01*
G01*
X147725000Y-97000002D01*
G75*
G02*
X147475002Y-97250000I-249998J0D01*
G01*
X145274998Y-97250000D01*
G75*
G02*
X145025000Y-97000002I0J249998D01*
G01*
X145025000Y-96174998D01*
G75*
G02*
X145274998Y-95925000I249998J0D01*
G01*
G37*
G36*
G01*
X132274998Y-99050000D02*
X134475002Y-99050000D01*
G75*
G02*
X134725000Y-99299998I0J-249998D01*
G01*
X134725000Y-100125002D01*
G75*
G02*
X134475002Y-100375000I-249998J0D01*
G01*
X132274998Y-100375000D01*
G75*
G02*
X132025000Y-100125002I0J249998D01*
G01*
X132025000Y-99299998D01*
G75*
G02*
X132274998Y-99050000I249998J0D01*
G01*
G37*
G36*
G01*
X132274998Y-95925000D02*
X134475002Y-95925000D01*
G75*
G02*
X134725000Y-96174998I0J-249998D01*
G01*
X134725000Y-97000002D01*
G75*
G02*
X134475002Y-97250000I-249998J0D01*
G01*
X132274998Y-97250000D01*
G75*
G02*
X132025000Y-97000002I0J249998D01*
G01*
X132025000Y-96174998D01*
G75*
G02*
X132274998Y-95925000I249998J0D01*
G01*
G37*
G36*
G01*
X164774998Y-99050000D02*
X166975002Y-99050000D01*
G75*
G02*
X167225000Y-99299998I0J-249998D01*
G01*
X167225000Y-100125002D01*
G75*
G02*
X166975002Y-100375000I-249998J0D01*
G01*
X164774998Y-100375000D01*
G75*
G02*
X164525000Y-100125002I0J249998D01*
G01*
X164525000Y-99299998D01*
G75*
G02*
X164774998Y-99050000I249998J0D01*
G01*
G37*
G36*
G01*
X164774998Y-95925000D02*
X166975002Y-95925000D01*
G75*
G02*
X167225000Y-96174998I0J-249998D01*
G01*
X167225000Y-97000002D01*
G75*
G02*
X166975002Y-97250000I-249998J0D01*
G01*
X164774998Y-97250000D01*
G75*
G02*
X164525000Y-97000002I0J249998D01*
G01*
X164525000Y-96174998D01*
G75*
G02*
X164774998Y-95925000I249998J0D01*
G01*
G37*
G36*
G01*
X151774998Y-99050000D02*
X153975002Y-99050000D01*
G75*
G02*
X154225000Y-99299998I0J-249998D01*
G01*
X154225000Y-100125002D01*
G75*
G02*
X153975002Y-100375000I-249998J0D01*
G01*
X151774998Y-100375000D01*
G75*
G02*
X151525000Y-100125002I0J249998D01*
G01*
X151525000Y-99299998D01*
G75*
G02*
X151774998Y-99050000I249998J0D01*
G01*
G37*
G36*
G01*
X151774998Y-95925000D02*
X153975002Y-95925000D01*
G75*
G02*
X154225000Y-96174998I0J-249998D01*
G01*
X154225000Y-97000002D01*
G75*
G02*
X153975002Y-97250000I-249998J0D01*
G01*
X151774998Y-97250000D01*
G75*
G02*
X151525000Y-97000002I0J249998D01*
G01*
X151525000Y-96174998D01*
G75*
G02*
X151774998Y-95925000I249998J0D01*
G01*
G37*
G36*
G01*
X138774998Y-99050000D02*
X140975002Y-99050000D01*
G75*
G02*
X141225000Y-99299998I0J-249998D01*
G01*
X141225000Y-100125002D01*
G75*
G02*
X140975002Y-100375000I-249998J0D01*
G01*
X138774998Y-100375000D01*
G75*
G02*
X138525000Y-100125002I0J249998D01*
G01*
X138525000Y-99299998D01*
G75*
G02*
X138774998Y-99050000I249998J0D01*
G01*
G37*
G36*
G01*
X138774998Y-95925000D02*
X140975002Y-95925000D01*
G75*
G02*
X141225000Y-96174998I0J-249998D01*
G01*
X141225000Y-97000002D01*
G75*
G02*
X140975002Y-97250000I-249998J0D01*
G01*
X138774998Y-97250000D01*
G75*
G02*
X138525000Y-97000002I0J249998D01*
G01*
X138525000Y-96174998D01*
G75*
G02*
X138774998Y-95925000I249998J0D01*
G01*
G37*
G36*
G01*
X168024998Y-99050000D02*
X170225002Y-99050000D01*
G75*
G02*
X170475000Y-99299998I0J-249998D01*
G01*
X170475000Y-100125002D01*
G75*
G02*
X170225002Y-100375000I-249998J0D01*
G01*
X168024998Y-100375000D01*
G75*
G02*
X167775000Y-100125002I0J249998D01*
G01*
X167775000Y-99299998D01*
G75*
G02*
X168024998Y-99050000I249998J0D01*
G01*
G37*
G36*
G01*
X168024998Y-95925000D02*
X170225002Y-95925000D01*
G75*
G02*
X170475000Y-96174998I0J-249998D01*
G01*
X170475000Y-97000002D01*
G75*
G02*
X170225002Y-97250000I-249998J0D01*
G01*
X168024998Y-97250000D01*
G75*
G02*
X167775000Y-97000002I0J249998D01*
G01*
X167775000Y-96174998D01*
G75*
G02*
X168024998Y-95925000I249998J0D01*
G01*
G37*
G36*
G01*
X158274998Y-99050000D02*
X160475002Y-99050000D01*
G75*
G02*
X160725000Y-99299998I0J-249998D01*
G01*
X160725000Y-100125002D01*
G75*
G02*
X160475002Y-100375000I-249998J0D01*
G01*
X158274998Y-100375000D01*
G75*
G02*
X158025000Y-100125002I0J249998D01*
G01*
X158025000Y-99299998D01*
G75*
G02*
X158274998Y-99050000I249998J0D01*
G01*
G37*
G36*
G01*
X158274998Y-95925000D02*
X160475002Y-95925000D01*
G75*
G02*
X160725000Y-96174998I0J-249998D01*
G01*
X160725000Y-97000002D01*
G75*
G02*
X160475002Y-97250000I-249998J0D01*
G01*
X158274998Y-97250000D01*
G75*
G02*
X158025000Y-97000002I0J249998D01*
G01*
X158025000Y-96174998D01*
G75*
G02*
X158274998Y-95925000I249998J0D01*
G01*
G37*
G36*
G01*
X129024998Y-99050000D02*
X131225002Y-99050000D01*
G75*
G02*
X131475000Y-99299998I0J-249998D01*
G01*
X131475000Y-100125002D01*
G75*
G02*
X131225002Y-100375000I-249998J0D01*
G01*
X129024998Y-100375000D01*
G75*
G02*
X128775000Y-100125002I0J249998D01*
G01*
X128775000Y-99299998D01*
G75*
G02*
X129024998Y-99050000I249998J0D01*
G01*
G37*
G36*
G01*
X129024998Y-95925000D02*
X131225002Y-95925000D01*
G75*
G02*
X131475000Y-96174998I0J-249998D01*
G01*
X131475000Y-97000002D01*
G75*
G02*
X131225002Y-97250000I-249998J0D01*
G01*
X129024998Y-97250000D01*
G75*
G02*
X128775000Y-97000002I0J249998D01*
G01*
X128775000Y-96174998D01*
G75*
G02*
X129024998Y-95925000I249998J0D01*
G01*
G37*
G36*
G01*
X148524998Y-99050000D02*
X150725002Y-99050000D01*
G75*
G02*
X150975000Y-99299998I0J-249998D01*
G01*
X150975000Y-100125002D01*
G75*
G02*
X150725002Y-100375000I-249998J0D01*
G01*
X148524998Y-100375000D01*
G75*
G02*
X148275000Y-100125002I0J249998D01*
G01*
X148275000Y-99299998D01*
G75*
G02*
X148524998Y-99050000I249998J0D01*
G01*
G37*
G36*
G01*
X148524998Y-95925000D02*
X150725002Y-95925000D01*
G75*
G02*
X150975000Y-96174998I0J-249998D01*
G01*
X150975000Y-97000002D01*
G75*
G02*
X150725002Y-97250000I-249998J0D01*
G01*
X148524998Y-97250000D01*
G75*
G02*
X148275000Y-97000002I0J249998D01*
G01*
X148275000Y-96174998D01*
G75*
G02*
X148524998Y-95925000I249998J0D01*
G01*
G37*
G36*
G01*
X135524998Y-99050000D02*
X137725002Y-99050000D01*
G75*
G02*
X137975000Y-99299998I0J-249998D01*
G01*
X137975000Y-100125002D01*
G75*
G02*
X137725002Y-100375000I-249998J0D01*
G01*
X135524998Y-100375000D01*
G75*
G02*
X135275000Y-100125002I0J249998D01*
G01*
X135275000Y-99299998D01*
G75*
G02*
X135524998Y-99050000I249998J0D01*
G01*
G37*
G36*
G01*
X135524998Y-95925000D02*
X137725002Y-95925000D01*
G75*
G02*
X137975000Y-96174998I0J-249998D01*
G01*
X137975000Y-97000002D01*
G75*
G02*
X137725002Y-97250000I-249998J0D01*
G01*
X135524998Y-97250000D01*
G75*
G02*
X135275000Y-97000002I0J249998D01*
G01*
X135275000Y-96174998D01*
G75*
G02*
X135524998Y-95925000I249998J0D01*
G01*
G37*
G36*
G01*
X155024998Y-99050000D02*
X157225002Y-99050000D01*
G75*
G02*
X157475000Y-99299998I0J-249998D01*
G01*
X157475000Y-100125002D01*
G75*
G02*
X157225002Y-100375000I-249998J0D01*
G01*
X155024998Y-100375000D01*
G75*
G02*
X154775000Y-100125002I0J249998D01*
G01*
X154775000Y-99299998D01*
G75*
G02*
X155024998Y-99050000I249998J0D01*
G01*
G37*
G36*
G01*
X155024998Y-95925000D02*
X157225002Y-95925000D01*
G75*
G02*
X157475000Y-96174998I0J-249998D01*
G01*
X157475000Y-97000002D01*
G75*
G02*
X157225002Y-97250000I-249998J0D01*
G01*
X155024998Y-97250000D01*
G75*
G02*
X154775000Y-97000002I0J249998D01*
G01*
X154775000Y-96174998D01*
G75*
G02*
X155024998Y-95925000I249998J0D01*
G01*
G37*
G36*
G01*
X142024998Y-99050000D02*
X144225002Y-99050000D01*
G75*
G02*
X144475000Y-99299998I0J-249998D01*
G01*
X144475000Y-100125002D01*
G75*
G02*
X144225002Y-100375000I-249998J0D01*
G01*
X142024998Y-100375000D01*
G75*
G02*
X141775000Y-100125002I0J249998D01*
G01*
X141775000Y-99299998D01*
G75*
G02*
X142024998Y-99050000I249998J0D01*
G01*
G37*
G36*
G01*
X142024998Y-95925000D02*
X144225002Y-95925000D01*
G75*
G02*
X144475000Y-96174998I0J-249998D01*
G01*
X144475000Y-97000002D01*
G75*
G02*
X144225002Y-97250000I-249998J0D01*
G01*
X142024998Y-97250000D01*
G75*
G02*
X141775000Y-97000002I0J249998D01*
G01*
X141775000Y-96174998D01*
G75*
G02*
X142024998Y-95925000I249998J0D01*
G01*
G37*
G36*
G01*
X125774998Y-99050000D02*
X127975002Y-99050000D01*
G75*
G02*
X128225000Y-99299998I0J-249998D01*
G01*
X128225000Y-100125002D01*
G75*
G02*
X127975002Y-100375000I-249998J0D01*
G01*
X125774998Y-100375000D01*
G75*
G02*
X125525000Y-100125002I0J249998D01*
G01*
X125525000Y-99299998D01*
G75*
G02*
X125774998Y-99050000I249998J0D01*
G01*
G37*
G36*
G01*
X125774998Y-95925000D02*
X127975002Y-95925000D01*
G75*
G02*
X128225000Y-96174998I0J-249998D01*
G01*
X128225000Y-97000002D01*
G75*
G02*
X127975002Y-97250000I-249998J0D01*
G01*
X125774998Y-97250000D01*
G75*
G02*
X125525000Y-97000002I0J249998D01*
G01*
X125525000Y-96174998D01*
G75*
G02*
X125774998Y-95925000I249998J0D01*
G01*
G37*
G36*
G01*
X171387500Y-98475000D02*
X171862500Y-98475000D01*
G75*
G02*
X172100000Y-98712500I0J-237500D01*
G01*
X172100000Y-99312500D01*
G75*
G02*
X171862500Y-99550000I-237500J0D01*
G01*
X171387500Y-99550000D01*
G75*
G02*
X171150000Y-99312500I0J237500D01*
G01*
X171150000Y-98712500D01*
G75*
G02*
X171387500Y-98475000I237500J0D01*
G01*
G37*
G36*
G01*
X171387500Y-96750000D02*
X171862500Y-96750000D01*
G75*
G02*
X172100000Y-96987500I0J-237500D01*
G01*
X172100000Y-97587500D01*
G75*
G02*
X171862500Y-97825000I-237500J0D01*
G01*
X171387500Y-97825000D01*
G75*
G02*
X171150000Y-97587500I0J237500D01*
G01*
X171150000Y-96987500D01*
G75*
G02*
X171387500Y-96750000I237500J0D01*
G01*
G37*
G36*
G01*
X172887500Y-98475000D02*
X173362500Y-98475000D01*
G75*
G02*
X173600000Y-98712500I0J-237500D01*
G01*
X173600000Y-99312500D01*
G75*
G02*
X173362500Y-99550000I-237500J0D01*
G01*
X172887500Y-99550000D01*
G75*
G02*
X172650000Y-99312500I0J237500D01*
G01*
X172650000Y-98712500D01*
G75*
G02*
X172887500Y-98475000I237500J0D01*
G01*
G37*
G36*
G01*
X172887500Y-96750000D02*
X173362500Y-96750000D01*
G75*
G02*
X173600000Y-96987500I0J-237500D01*
G01*
X173600000Y-97587500D01*
G75*
G02*
X173362500Y-97825000I-237500J0D01*
G01*
X172887500Y-97825000D01*
G75*
G02*
X172650000Y-97587500I0J237500D01*
G01*
X172650000Y-96987500D01*
G75*
G02*
X172887500Y-96750000I237500J0D01*
G01*
G37*
G36*
G01*
X122637500Y-84725000D02*
X123112500Y-84725000D01*
G75*
G02*
X123350000Y-84962500I0J-237500D01*
G01*
X123350000Y-85562500D01*
G75*
G02*
X123112500Y-85800000I-237500J0D01*
G01*
X122637500Y-85800000D01*
G75*
G02*
X122400000Y-85562500I0J237500D01*
G01*
X122400000Y-84962500D01*
G75*
G02*
X122637500Y-84725000I237500J0D01*
G01*
G37*
G36*
G01*
X122637500Y-83000000D02*
X123112500Y-83000000D01*
G75*
G02*
X123350000Y-83237500I0J-237500D01*
G01*
X123350000Y-83837500D01*
G75*
G02*
X123112500Y-84075000I-237500J0D01*
G01*
X122637500Y-84075000D01*
G75*
G02*
X122400000Y-83837500I0J237500D01*
G01*
X122400000Y-83237500D01*
G75*
G02*
X122637500Y-83000000I237500J0D01*
G01*
G37*
G36*
G01*
X124137500Y-84725000D02*
X124612500Y-84725000D01*
G75*
G02*
X124850000Y-84962500I0J-237500D01*
G01*
X124850000Y-85562500D01*
G75*
G02*
X124612500Y-85800000I-237500J0D01*
G01*
X124137500Y-85800000D01*
G75*
G02*
X123900000Y-85562500I0J237500D01*
G01*
X123900000Y-84962500D01*
G75*
G02*
X124137500Y-84725000I237500J0D01*
G01*
G37*
G36*
G01*
X124137500Y-83000000D02*
X124612500Y-83000000D01*
G75*
G02*
X124850000Y-83237500I0J-237500D01*
G01*
X124850000Y-83837500D01*
G75*
G02*
X124612500Y-84075000I-237500J0D01*
G01*
X124137500Y-84075000D01*
G75*
G02*
X123900000Y-83837500I0J237500D01*
G01*
X123900000Y-83237500D01*
G75*
G02*
X124137500Y-83000000I237500J0D01*
G01*
G37*
G36*
G01*
X125774998Y-85300000D02*
X127975002Y-85300000D01*
G75*
G02*
X128225000Y-85549998I0J-249998D01*
G01*
X128225000Y-86375002D01*
G75*
G02*
X127975002Y-86625000I-249998J0D01*
G01*
X125774998Y-86625000D01*
G75*
G02*
X125525000Y-86375002I0J249998D01*
G01*
X125525000Y-85549998D01*
G75*
G02*
X125774998Y-85300000I249998J0D01*
G01*
G37*
G36*
G01*
X125774998Y-82175000D02*
X127975002Y-82175000D01*
G75*
G02*
X128225000Y-82424998I0J-249998D01*
G01*
X128225000Y-83250002D01*
G75*
G02*
X127975002Y-83500000I-249998J0D01*
G01*
X125774998Y-83500000D01*
G75*
G02*
X125525000Y-83250002I0J249998D01*
G01*
X125525000Y-82424998D01*
G75*
G02*
X125774998Y-82175000I249998J0D01*
G01*
G37*
G36*
G01*
X129024998Y-85300000D02*
X131225002Y-85300000D01*
G75*
G02*
X131475000Y-85549998I0J-249998D01*
G01*
X131475000Y-86375002D01*
G75*
G02*
X131225002Y-86625000I-249998J0D01*
G01*
X129024998Y-86625000D01*
G75*
G02*
X128775000Y-86375002I0J249998D01*
G01*
X128775000Y-85549998D01*
G75*
G02*
X129024998Y-85300000I249998J0D01*
G01*
G37*
G36*
G01*
X129024998Y-82175000D02*
X131225002Y-82175000D01*
G75*
G02*
X131475000Y-82424998I0J-249998D01*
G01*
X131475000Y-83250002D01*
G75*
G02*
X131225002Y-83500000I-249998J0D01*
G01*
X129024998Y-83500000D01*
G75*
G02*
X128775000Y-83250002I0J249998D01*
G01*
X128775000Y-82424998D01*
G75*
G02*
X129024998Y-82175000I249998J0D01*
G01*
G37*
G36*
G01*
X132274998Y-85300000D02*
X134475002Y-85300000D01*
G75*
G02*
X134725000Y-85549998I0J-249998D01*
G01*
X134725000Y-86375002D01*
G75*
G02*
X134475002Y-86625000I-249998J0D01*
G01*
X132274998Y-86625000D01*
G75*
G02*
X132025000Y-86375002I0J249998D01*
G01*
X132025000Y-85549998D01*
G75*
G02*
X132274998Y-85300000I249998J0D01*
G01*
G37*
G36*
G01*
X132274998Y-82175000D02*
X134475002Y-82175000D01*
G75*
G02*
X134725000Y-82424998I0J-249998D01*
G01*
X134725000Y-83250002D01*
G75*
G02*
X134475002Y-83500000I-249998J0D01*
G01*
X132274998Y-83500000D01*
G75*
G02*
X132025000Y-83250002I0J249998D01*
G01*
X132025000Y-82424998D01*
G75*
G02*
X132274998Y-82175000I249998J0D01*
G01*
G37*
G36*
G01*
X135524998Y-85300000D02*
X137725002Y-85300000D01*
G75*
G02*
X137975000Y-85549998I0J-249998D01*
G01*
X137975000Y-86375002D01*
G75*
G02*
X137725002Y-86625000I-249998J0D01*
G01*
X135524998Y-86625000D01*
G75*
G02*
X135275000Y-86375002I0J249998D01*
G01*
X135275000Y-85549998D01*
G75*
G02*
X135524998Y-85300000I249998J0D01*
G01*
G37*
G36*
G01*
X135524998Y-82175000D02*
X137725002Y-82175000D01*
G75*
G02*
X137975000Y-82424998I0J-249998D01*
G01*
X137975000Y-83250002D01*
G75*
G02*
X137725002Y-83500000I-249998J0D01*
G01*
X135524998Y-83500000D01*
G75*
G02*
X135275000Y-83250002I0J249998D01*
G01*
X135275000Y-82424998D01*
G75*
G02*
X135524998Y-82175000I249998J0D01*
G01*
G37*
G36*
G01*
X138774998Y-85300000D02*
X140975002Y-85300000D01*
G75*
G02*
X141225000Y-85549998I0J-249998D01*
G01*
X141225000Y-86375002D01*
G75*
G02*
X140975002Y-86625000I-249998J0D01*
G01*
X138774998Y-86625000D01*
G75*
G02*
X138525000Y-86375002I0J249998D01*
G01*
X138525000Y-85549998D01*
G75*
G02*
X138774998Y-85300000I249998J0D01*
G01*
G37*
G36*
G01*
X138774998Y-82175000D02*
X140975002Y-82175000D01*
G75*
G02*
X141225000Y-82424998I0J-249998D01*
G01*
X141225000Y-83250002D01*
G75*
G02*
X140975002Y-83500000I-249998J0D01*
G01*
X138774998Y-83500000D01*
G75*
G02*
X138525000Y-83250002I0J249998D01*
G01*
X138525000Y-82424998D01*
G75*
G02*
X138774998Y-82175000I249998J0D01*
G01*
G37*
G36*
G01*
X142024998Y-85300000D02*
X144225002Y-85300000D01*
G75*
G02*
X144475000Y-85549998I0J-249998D01*
G01*
X144475000Y-86375002D01*
G75*
G02*
X144225002Y-86625000I-249998J0D01*
G01*
X142024998Y-86625000D01*
G75*
G02*
X141775000Y-86375002I0J249998D01*
G01*
X141775000Y-85549998D01*
G75*
G02*
X142024998Y-85300000I249998J0D01*
G01*
G37*
G36*
G01*
X142024998Y-82175000D02*
X144225002Y-82175000D01*
G75*
G02*
X144475000Y-82424998I0J-249998D01*
G01*
X144475000Y-83250002D01*
G75*
G02*
X144225002Y-83500000I-249998J0D01*
G01*
X142024998Y-83500000D01*
G75*
G02*
X141775000Y-83250002I0J249998D01*
G01*
X141775000Y-82424998D01*
G75*
G02*
X142024998Y-82175000I249998J0D01*
G01*
G37*
G36*
G01*
X145274998Y-85300000D02*
X147475002Y-85300000D01*
G75*
G02*
X147725000Y-85549998I0J-249998D01*
G01*
X147725000Y-86375002D01*
G75*
G02*
X147475002Y-86625000I-249998J0D01*
G01*
X145274998Y-86625000D01*
G75*
G02*
X145025000Y-86375002I0J249998D01*
G01*
X145025000Y-85549998D01*
G75*
G02*
X145274998Y-85300000I249998J0D01*
G01*
G37*
G36*
G01*
X145274998Y-82175000D02*
X147475002Y-82175000D01*
G75*
G02*
X147725000Y-82424998I0J-249998D01*
G01*
X147725000Y-83250002D01*
G75*
G02*
X147475002Y-83500000I-249998J0D01*
G01*
X145274998Y-83500000D01*
G75*
G02*
X145025000Y-83250002I0J249998D01*
G01*
X145025000Y-82424998D01*
G75*
G02*
X145274998Y-82175000I249998J0D01*
G01*
G37*
G36*
G01*
X148524998Y-85300000D02*
X150725002Y-85300000D01*
G75*
G02*
X150975000Y-85549998I0J-249998D01*
G01*
X150975000Y-86375002D01*
G75*
G02*
X150725002Y-86625000I-249998J0D01*
G01*
X148524998Y-86625000D01*
G75*
G02*
X148275000Y-86375002I0J249998D01*
G01*
X148275000Y-85549998D01*
G75*
G02*
X148524998Y-85300000I249998J0D01*
G01*
G37*
G36*
G01*
X148524998Y-82175000D02*
X150725002Y-82175000D01*
G75*
G02*
X150975000Y-82424998I0J-249998D01*
G01*
X150975000Y-83250002D01*
G75*
G02*
X150725002Y-83500000I-249998J0D01*
G01*
X148524998Y-83500000D01*
G75*
G02*
X148275000Y-83250002I0J249998D01*
G01*
X148275000Y-82424998D01*
G75*
G02*
X148524998Y-82175000I249998J0D01*
G01*
G37*
G36*
G01*
X151774998Y-85300000D02*
X153975002Y-85300000D01*
G75*
G02*
X154225000Y-85549998I0J-249998D01*
G01*
X154225000Y-86375002D01*
G75*
G02*
X153975002Y-86625000I-249998J0D01*
G01*
X151774998Y-86625000D01*
G75*
G02*
X151525000Y-86375002I0J249998D01*
G01*
X151525000Y-85549998D01*
G75*
G02*
X151774998Y-85300000I249998J0D01*
G01*
G37*
G36*
G01*
X151774998Y-82175000D02*
X153975002Y-82175000D01*
G75*
G02*
X154225000Y-82424998I0J-249998D01*
G01*
X154225000Y-83250002D01*
G75*
G02*
X153975002Y-83500000I-249998J0D01*
G01*
X151774998Y-83500000D01*
G75*
G02*
X151525000Y-83250002I0J249998D01*
G01*
X151525000Y-82424998D01*
G75*
G02*
X151774998Y-82175000I249998J0D01*
G01*
G37*
G36*
G01*
X155024998Y-85300000D02*
X157225002Y-85300000D01*
G75*
G02*
X157475000Y-85549998I0J-249998D01*
G01*
X157475000Y-86375002D01*
G75*
G02*
X157225002Y-86625000I-249998J0D01*
G01*
X155024998Y-86625000D01*
G75*
G02*
X154775000Y-86375002I0J249998D01*
G01*
X154775000Y-85549998D01*
G75*
G02*
X155024998Y-85300000I249998J0D01*
G01*
G37*
G36*
G01*
X155024998Y-82175000D02*
X157225002Y-82175000D01*
G75*
G02*
X157475000Y-82424998I0J-249998D01*
G01*
X157475000Y-83250002D01*
G75*
G02*
X157225002Y-83500000I-249998J0D01*
G01*
X155024998Y-83500000D01*
G75*
G02*
X154775000Y-83250002I0J249998D01*
G01*
X154775000Y-82424998D01*
G75*
G02*
X155024998Y-82175000I249998J0D01*
G01*
G37*
G36*
G01*
X158274998Y-85300000D02*
X160475002Y-85300000D01*
G75*
G02*
X160725000Y-85549998I0J-249998D01*
G01*
X160725000Y-86375002D01*
G75*
G02*
X160475002Y-86625000I-249998J0D01*
G01*
X158274998Y-86625000D01*
G75*
G02*
X158025000Y-86375002I0J249998D01*
G01*
X158025000Y-85549998D01*
G75*
G02*
X158274998Y-85300000I249998J0D01*
G01*
G37*
G36*
G01*
X158274998Y-82175000D02*
X160475002Y-82175000D01*
G75*
G02*
X160725000Y-82424998I0J-249998D01*
G01*
X160725000Y-83250002D01*
G75*
G02*
X160475002Y-83500000I-249998J0D01*
G01*
X158274998Y-83500000D01*
G75*
G02*
X158025000Y-83250002I0J249998D01*
G01*
X158025000Y-82424998D01*
G75*
G02*
X158274998Y-82175000I249998J0D01*
G01*
G37*
G36*
G01*
X161524998Y-85300000D02*
X163725002Y-85300000D01*
G75*
G02*
X163975000Y-85549998I0J-249998D01*
G01*
X163975000Y-86375002D01*
G75*
G02*
X163725002Y-86625000I-249998J0D01*
G01*
X161524998Y-86625000D01*
G75*
G02*
X161275000Y-86375002I0J249998D01*
G01*
X161275000Y-85549998D01*
G75*
G02*
X161524998Y-85300000I249998J0D01*
G01*
G37*
G36*
G01*
X161524998Y-82175000D02*
X163725002Y-82175000D01*
G75*
G02*
X163975000Y-82424998I0J-249998D01*
G01*
X163975000Y-83250002D01*
G75*
G02*
X163725002Y-83500000I-249998J0D01*
G01*
X161524998Y-83500000D01*
G75*
G02*
X161275000Y-83250002I0J249998D01*
G01*
X161275000Y-82424998D01*
G75*
G02*
X161524998Y-82175000I249998J0D01*
G01*
G37*
G36*
G01*
X164774998Y-85300000D02*
X166975002Y-85300000D01*
G75*
G02*
X167225000Y-85549998I0J-249998D01*
G01*
X167225000Y-86375002D01*
G75*
G02*
X166975002Y-86625000I-249998J0D01*
G01*
X164774998Y-86625000D01*
G75*
G02*
X164525000Y-86375002I0J249998D01*
G01*
X164525000Y-85549998D01*
G75*
G02*
X164774998Y-85300000I249998J0D01*
G01*
G37*
G36*
G01*
X164774998Y-82175000D02*
X166975002Y-82175000D01*
G75*
G02*
X167225000Y-82424998I0J-249998D01*
G01*
X167225000Y-83250002D01*
G75*
G02*
X166975002Y-83500000I-249998J0D01*
G01*
X164774998Y-83500000D01*
G75*
G02*
X164525000Y-83250002I0J249998D01*
G01*
X164525000Y-82424998D01*
G75*
G02*
X164774998Y-82175000I249998J0D01*
G01*
G37*
G36*
G01*
X168024998Y-85300000D02*
X170225002Y-85300000D01*
G75*
G02*
X170475000Y-85549998I0J-249998D01*
G01*
X170475000Y-86375002D01*
G75*
G02*
X170225002Y-86625000I-249998J0D01*
G01*
X168024998Y-86625000D01*
G75*
G02*
X167775000Y-86375002I0J249998D01*
G01*
X167775000Y-85549998D01*
G75*
G02*
X168024998Y-85300000I249998J0D01*
G01*
G37*
G36*
G01*
X168024998Y-82175000D02*
X170225002Y-82175000D01*
G75*
G02*
X170475000Y-82424998I0J-249998D01*
G01*
X170475000Y-83250002D01*
G75*
G02*
X170225002Y-83500000I-249998J0D01*
G01*
X168024998Y-83500000D01*
G75*
G02*
X167775000Y-83250002I0J249998D01*
G01*
X167775000Y-82424998D01*
G75*
G02*
X168024998Y-82175000I249998J0D01*
G01*
G37*
G36*
G01*
X172887500Y-84725000D02*
X173362500Y-84725000D01*
G75*
G02*
X173600000Y-84962500I0J-237500D01*
G01*
X173600000Y-85562500D01*
G75*
G02*
X173362500Y-85800000I-237500J0D01*
G01*
X172887500Y-85800000D01*
G75*
G02*
X172650000Y-85562500I0J237500D01*
G01*
X172650000Y-84962500D01*
G75*
G02*
X172887500Y-84725000I237500J0D01*
G01*
G37*
G36*
G01*
X172887500Y-83000000D02*
X173362500Y-83000000D01*
G75*
G02*
X173600000Y-83237500I0J-237500D01*
G01*
X173600000Y-83837500D01*
G75*
G02*
X173362500Y-84075000I-237500J0D01*
G01*
X172887500Y-84075000D01*
G75*
G02*
X172650000Y-83837500I0J237500D01*
G01*
X172650000Y-83237500D01*
G75*
G02*
X172887500Y-83000000I237500J0D01*
G01*
G37*
G36*
G01*
X171387500Y-84725000D02*
X171862500Y-84725000D01*
G75*
G02*
X172100000Y-84962500I0J-237500D01*
G01*
X172100000Y-85562500D01*
G75*
G02*
X171862500Y-85800000I-237500J0D01*
G01*
X171387500Y-85800000D01*
G75*
G02*
X171150000Y-85562500I0J237500D01*
G01*
X171150000Y-84962500D01*
G75*
G02*
X171387500Y-84725000I237500J0D01*
G01*
G37*
G36*
G01*
X171387500Y-83000000D02*
X171862500Y-83000000D01*
G75*
G02*
X172100000Y-83237500I0J-237500D01*
G01*
X172100000Y-83837500D01*
G75*
G02*
X171862500Y-84075000I-237500J0D01*
G01*
X171387500Y-84075000D01*
G75*
G02*
X171150000Y-83837500I0J237500D01*
G01*
X171150000Y-83237500D01*
G75*
G02*
X171387500Y-83000000I237500J0D01*
G01*
G37*
M02*
