G04 #@! TF.GenerationSoftware,KiCad,Pcbnew,5.1.9*
G04 #@! TF.CreationDate,2021-04-12T08:18:13-03:00*
G04 #@! TF.ProjectId,Caps,43617073-2e6b-4696-9361-645f70636258,rev?*
G04 #@! TF.SameCoordinates,Original*
G04 #@! TF.FileFunction,Copper,L1,Top*
G04 #@! TF.FilePolarity,Positive*
%FSLAX46Y46*%
G04 Gerber Fmt 4.6, Leading zero omitted, Abs format (unit mm)*
G04 Created by KiCad (PCBNEW 5.1.9) date 2021-04-12 08:18:13*
%MOMM*%
%LPD*%
G01*
G04 APERTURE LIST*
G04 #@! TA.AperFunction,ViaPad*
%ADD10C,0.400000*%
G04 #@! TD*
G04 #@! TA.AperFunction,Conductor*
%ADD11C,1.000000*%
G04 #@! TD*
G04 #@! TA.AperFunction,Conductor*
%ADD12C,0.254000*%
G04 #@! TD*
G04 #@! TA.AperFunction,Conductor*
%ADD13C,0.100000*%
G04 #@! TD*
G04 APERTURE END LIST*
G04 #@! TA.AperFunction,SMDPad,CuDef*
G36*
G01*
X124087517Y-91480000D02*
X124562517Y-91480000D01*
G75*
G02*
X124800017Y-91717500I0J-237500D01*
G01*
X124800017Y-92317500D01*
G75*
G02*
X124562517Y-92555000I-237500J0D01*
G01*
X124087517Y-92555000D01*
G75*
G02*
X123850017Y-92317500I0J237500D01*
G01*
X123850017Y-91717500D01*
G75*
G02*
X124087517Y-91480000I237500J0D01*
G01*
G37*
G04 #@! TD.AperFunction*
G04 #@! TA.AperFunction,SMDPad,CuDef*
G36*
G01*
X124087517Y-89755000D02*
X124562517Y-89755000D01*
G75*
G02*
X124800017Y-89992500I0J-237500D01*
G01*
X124800017Y-90592500D01*
G75*
G02*
X124562517Y-90830000I-237500J0D01*
G01*
X124087517Y-90830000D01*
G75*
G02*
X123850017Y-90592500I0J237500D01*
G01*
X123850017Y-89992500D01*
G75*
G02*
X124087517Y-89755000I237500J0D01*
G01*
G37*
G04 #@! TD.AperFunction*
G04 #@! TA.AperFunction,SMDPad,CuDef*
G36*
G01*
X122562500Y-91475000D02*
X123037500Y-91475000D01*
G75*
G02*
X123275000Y-91712500I0J-237500D01*
G01*
X123275000Y-92312500D01*
G75*
G02*
X123037500Y-92550000I-237500J0D01*
G01*
X122562500Y-92550000D01*
G75*
G02*
X122325000Y-92312500I0J237500D01*
G01*
X122325000Y-91712500D01*
G75*
G02*
X122562500Y-91475000I237500J0D01*
G01*
G37*
G04 #@! TD.AperFunction*
G04 #@! TA.AperFunction,SMDPad,CuDef*
G36*
G01*
X122562500Y-89750000D02*
X123037500Y-89750000D01*
G75*
G02*
X123275000Y-89987500I0J-237500D01*
G01*
X123275000Y-90587500D01*
G75*
G02*
X123037500Y-90825000I-237500J0D01*
G01*
X122562500Y-90825000D01*
G75*
G02*
X122325000Y-90587500I0J237500D01*
G01*
X122325000Y-89987500D01*
G75*
G02*
X122562500Y-89750000I237500J0D01*
G01*
G37*
G04 #@! TD.AperFunction*
G04 #@! TA.AperFunction,SMDPad,CuDef*
G36*
G01*
X145275011Y-106045000D02*
X147475017Y-106045000D01*
G75*
G02*
X147725014Y-106294997I0J-249997D01*
G01*
X147725014Y-107120003D01*
G75*
G02*
X147475017Y-107370000I-249997J0D01*
G01*
X145275011Y-107370000D01*
G75*
G02*
X145025014Y-107120003I0J249997D01*
G01*
X145025014Y-106294997D01*
G75*
G02*
X145275011Y-106045000I249997J0D01*
G01*
G37*
G04 #@! TD.AperFunction*
G04 #@! TA.AperFunction,SMDPad,CuDef*
G36*
G01*
X145275011Y-102920000D02*
X147475017Y-102920000D01*
G75*
G02*
X147725014Y-103169997I0J-249997D01*
G01*
X147725014Y-103995003D01*
G75*
G02*
X147475017Y-104245000I-249997J0D01*
G01*
X145275011Y-104245000D01*
G75*
G02*
X145025014Y-103995003I0J249997D01*
G01*
X145025014Y-103169997D01*
G75*
G02*
X145275011Y-102920000I249997J0D01*
G01*
G37*
G04 #@! TD.AperFunction*
G04 #@! TA.AperFunction,SMDPad,CuDef*
G36*
G01*
X128975013Y-92055000D02*
X131175019Y-92055000D01*
G75*
G02*
X131425016Y-92304997I0J-249997D01*
G01*
X131425016Y-93130003D01*
G75*
G02*
X131175019Y-93380000I-249997J0D01*
G01*
X128975013Y-93380000D01*
G75*
G02*
X128725016Y-93130003I0J249997D01*
G01*
X128725016Y-92304997D01*
G75*
G02*
X128975013Y-92055000I249997J0D01*
G01*
G37*
G04 #@! TD.AperFunction*
G04 #@! TA.AperFunction,SMDPad,CuDef*
G36*
G01*
X128975013Y-88930000D02*
X131175019Y-88930000D01*
G75*
G02*
X131425016Y-89179997I0J-249997D01*
G01*
X131425016Y-90005003D01*
G75*
G02*
X131175019Y-90255000I-249997J0D01*
G01*
X128975013Y-90255000D01*
G75*
G02*
X128725016Y-90005003I0J249997D01*
G01*
X128725016Y-89179997D01*
G75*
G02*
X128975013Y-88930000I249997J0D01*
G01*
G37*
G04 #@! TD.AperFunction*
G04 #@! TA.AperFunction,SMDPad,CuDef*
G36*
G01*
X142025021Y-106045000D02*
X144225027Y-106045000D01*
G75*
G02*
X144475024Y-106294997I0J-249997D01*
G01*
X144475024Y-107120003D01*
G75*
G02*
X144225027Y-107370000I-249997J0D01*
G01*
X142025021Y-107370000D01*
G75*
G02*
X141775024Y-107120003I0J249997D01*
G01*
X141775024Y-106294997D01*
G75*
G02*
X142025021Y-106045000I249997J0D01*
G01*
G37*
G04 #@! TD.AperFunction*
G04 #@! TA.AperFunction,SMDPad,CuDef*
G36*
G01*
X142025021Y-102920000D02*
X144225027Y-102920000D01*
G75*
G02*
X144475024Y-103169997I0J-249997D01*
G01*
X144475024Y-103995003D01*
G75*
G02*
X144225027Y-104245000I-249997J0D01*
G01*
X142025021Y-104245000D01*
G75*
G02*
X141775024Y-103995003I0J249997D01*
G01*
X141775024Y-103169997D01*
G75*
G02*
X142025021Y-102920000I249997J0D01*
G01*
G37*
G04 #@! TD.AperFunction*
G04 #@! TA.AperFunction,SMDPad,CuDef*
G36*
G01*
X141975009Y-92055000D02*
X144175015Y-92055000D01*
G75*
G02*
X144425012Y-92304997I0J-249997D01*
G01*
X144425012Y-93130003D01*
G75*
G02*
X144175015Y-93380000I-249997J0D01*
G01*
X141975009Y-93380000D01*
G75*
G02*
X141725012Y-93130003I0J249997D01*
G01*
X141725012Y-92304997D01*
G75*
G02*
X141975009Y-92055000I249997J0D01*
G01*
G37*
G04 #@! TD.AperFunction*
G04 #@! TA.AperFunction,SMDPad,CuDef*
G36*
G01*
X141975009Y-88930000D02*
X144175015Y-88930000D01*
G75*
G02*
X144425012Y-89179997I0J-249997D01*
G01*
X144425012Y-90005003D01*
G75*
G02*
X144175015Y-90255000I-249997J0D01*
G01*
X141975009Y-90255000D01*
G75*
G02*
X141725012Y-90005003I0J249997D01*
G01*
X141725012Y-89179997D01*
G75*
G02*
X141975009Y-88930000I249997J0D01*
G01*
G37*
G04 #@! TD.AperFunction*
G04 #@! TA.AperFunction,SMDPad,CuDef*
G36*
G01*
X135475011Y-92055000D02*
X137675017Y-92055000D01*
G75*
G02*
X137925014Y-92304997I0J-249997D01*
G01*
X137925014Y-93130003D01*
G75*
G02*
X137675017Y-93380000I-249997J0D01*
G01*
X135475011Y-93380000D01*
G75*
G02*
X135225014Y-93130003I0J249997D01*
G01*
X135225014Y-92304997D01*
G75*
G02*
X135475011Y-92055000I249997J0D01*
G01*
G37*
G04 #@! TD.AperFunction*
G04 #@! TA.AperFunction,SMDPad,CuDef*
G36*
G01*
X135475011Y-88930000D02*
X137675017Y-88930000D01*
G75*
G02*
X137925014Y-89179997I0J-249997D01*
G01*
X137925014Y-90005003D01*
G75*
G02*
X137675017Y-90255000I-249997J0D01*
G01*
X135475011Y-90255000D01*
G75*
G02*
X135225014Y-90005003I0J249997D01*
G01*
X135225014Y-89179997D01*
G75*
G02*
X135475011Y-88930000I249997J0D01*
G01*
G37*
G04 #@! TD.AperFunction*
G04 #@! TA.AperFunction,SMDPad,CuDef*
G36*
G01*
X135525025Y-106045000D02*
X137725031Y-106045000D01*
G75*
G02*
X137975028Y-106294997I0J-249997D01*
G01*
X137975028Y-107120003D01*
G75*
G02*
X137725031Y-107370000I-249997J0D01*
G01*
X135525025Y-107370000D01*
G75*
G02*
X135275028Y-107120003I0J249997D01*
G01*
X135275028Y-106294997D01*
G75*
G02*
X135525025Y-106045000I249997J0D01*
G01*
G37*
G04 #@! TD.AperFunction*
G04 #@! TA.AperFunction,SMDPad,CuDef*
G36*
G01*
X135525025Y-102920000D02*
X137725031Y-102920000D01*
G75*
G02*
X137975028Y-103169997I0J-249997D01*
G01*
X137975028Y-103995003D01*
G75*
G02*
X137725031Y-104245000I-249997J0D01*
G01*
X135525025Y-104245000D01*
G75*
G02*
X135275028Y-103995003I0J249997D01*
G01*
X135275028Y-103169997D01*
G75*
G02*
X135525025Y-102920000I249997J0D01*
G01*
G37*
G04 #@! TD.AperFunction*
G04 #@! TA.AperFunction,SMDPad,CuDef*
G36*
G01*
X151725002Y-92055000D02*
X153925008Y-92055000D01*
G75*
G02*
X154175005Y-92304997I0J-249997D01*
G01*
X154175005Y-93130003D01*
G75*
G02*
X153925008Y-93380000I-249997J0D01*
G01*
X151725002Y-93380000D01*
G75*
G02*
X151475005Y-93130003I0J249997D01*
G01*
X151475005Y-92304997D01*
G75*
G02*
X151725002Y-92055000I249997J0D01*
G01*
G37*
G04 #@! TD.AperFunction*
G04 #@! TA.AperFunction,SMDPad,CuDef*
G36*
G01*
X151725002Y-88930000D02*
X153925008Y-88930000D01*
G75*
G02*
X154175005Y-89179997I0J-249997D01*
G01*
X154175005Y-90005003D01*
G75*
G02*
X153925008Y-90255000I-249997J0D01*
G01*
X151725002Y-90255000D01*
G75*
G02*
X151475005Y-90005003I0J249997D01*
G01*
X151475005Y-89179997D01*
G75*
G02*
X151725002Y-88930000I249997J0D01*
G01*
G37*
G04 #@! TD.AperFunction*
G04 #@! TA.AperFunction,SMDPad,CuDef*
G36*
G01*
X125774997Y-106050000D02*
X127975003Y-106050000D01*
G75*
G02*
X128225000Y-106299997I0J-249997D01*
G01*
X128225000Y-107125003D01*
G75*
G02*
X127975003Y-107375000I-249997J0D01*
G01*
X125774997Y-107375000D01*
G75*
G02*
X125525000Y-107125003I0J249997D01*
G01*
X125525000Y-106299997D01*
G75*
G02*
X125774997Y-106050000I249997J0D01*
G01*
G37*
G04 #@! TD.AperFunction*
G04 #@! TA.AperFunction,SMDPad,CuDef*
G36*
G01*
X125774997Y-102925000D02*
X127975003Y-102925000D01*
G75*
G02*
X128225000Y-103174997I0J-249997D01*
G01*
X128225000Y-104000003D01*
G75*
G02*
X127975003Y-104250000I-249997J0D01*
G01*
X125774997Y-104250000D01*
G75*
G02*
X125525000Y-104000003I0J249997D01*
G01*
X125525000Y-103174997D01*
G75*
G02*
X125774997Y-102925000I249997J0D01*
G01*
G37*
G04 #@! TD.AperFunction*
G04 #@! TA.AperFunction,SMDPad,CuDef*
G36*
G01*
X125774997Y-92050000D02*
X127975003Y-92050000D01*
G75*
G02*
X128225000Y-92299997I0J-249997D01*
G01*
X128225000Y-93125003D01*
G75*
G02*
X127975003Y-93375000I-249997J0D01*
G01*
X125774997Y-93375000D01*
G75*
G02*
X125525000Y-93125003I0J249997D01*
G01*
X125525000Y-92299997D01*
G75*
G02*
X125774997Y-92050000I249997J0D01*
G01*
G37*
G04 #@! TD.AperFunction*
G04 #@! TA.AperFunction,SMDPad,CuDef*
G36*
G01*
X125774997Y-88925000D02*
X127975003Y-88925000D01*
G75*
G02*
X128225000Y-89174997I0J-249997D01*
G01*
X128225000Y-90000003D01*
G75*
G02*
X127975003Y-90250000I-249997J0D01*
G01*
X125774997Y-90250000D01*
G75*
G02*
X125525000Y-90000003I0J249997D01*
G01*
X125525000Y-89174997D01*
G75*
G02*
X125774997Y-88925000I249997J0D01*
G01*
G37*
G04 #@! TD.AperFunction*
G04 #@! TA.AperFunction,SMDPad,CuDef*
G36*
G01*
X145225004Y-92055000D02*
X147425010Y-92055000D01*
G75*
G02*
X147675007Y-92304997I0J-249997D01*
G01*
X147675007Y-93130003D01*
G75*
G02*
X147425010Y-93380000I-249997J0D01*
G01*
X145225004Y-93380000D01*
G75*
G02*
X144975007Y-93130003I0J249997D01*
G01*
X144975007Y-92304997D01*
G75*
G02*
X145225004Y-92055000I249997J0D01*
G01*
G37*
G04 #@! TD.AperFunction*
G04 #@! TA.AperFunction,SMDPad,CuDef*
G36*
G01*
X145225004Y-88930000D02*
X147425010Y-88930000D01*
G75*
G02*
X147675007Y-89179997I0J-249997D01*
G01*
X147675007Y-90005003D01*
G75*
G02*
X147425010Y-90255000I-249997J0D01*
G01*
X145225004Y-90255000D01*
G75*
G02*
X144975007Y-90005003I0J249997D01*
G01*
X144975007Y-89179997D01*
G75*
G02*
X145225004Y-88930000I249997J0D01*
G01*
G37*
G04 #@! TD.AperFunction*
G04 #@! TA.AperFunction,SMDPad,CuDef*
G36*
G01*
X148475003Y-92055000D02*
X150675009Y-92055000D01*
G75*
G02*
X150925006Y-92304997I0J-249997D01*
G01*
X150925006Y-93130003D01*
G75*
G02*
X150675009Y-93380000I-249997J0D01*
G01*
X148475003Y-93380000D01*
G75*
G02*
X148225006Y-93130003I0J249997D01*
G01*
X148225006Y-92304997D01*
G75*
G02*
X148475003Y-92055000I249997J0D01*
G01*
G37*
G04 #@! TD.AperFunction*
G04 #@! TA.AperFunction,SMDPad,CuDef*
G36*
G01*
X148475003Y-88930000D02*
X150675009Y-88930000D01*
G75*
G02*
X150925006Y-89179997I0J-249997D01*
G01*
X150925006Y-90005003D01*
G75*
G02*
X150675009Y-90255000I-249997J0D01*
G01*
X148475003Y-90255000D01*
G75*
G02*
X148225006Y-90005003I0J249997D01*
G01*
X148225006Y-89179997D01*
G75*
G02*
X148475003Y-88930000I249997J0D01*
G01*
G37*
G04 #@! TD.AperFunction*
G04 #@! TA.AperFunction,SMDPad,CuDef*
G36*
G01*
X129025029Y-106045000D02*
X131225035Y-106045000D01*
G75*
G02*
X131475032Y-106294997I0J-249997D01*
G01*
X131475032Y-107120003D01*
G75*
G02*
X131225035Y-107370000I-249997J0D01*
G01*
X129025029Y-107370000D01*
G75*
G02*
X128775032Y-107120003I0J249997D01*
G01*
X128775032Y-106294997D01*
G75*
G02*
X129025029Y-106045000I249997J0D01*
G01*
G37*
G04 #@! TD.AperFunction*
G04 #@! TA.AperFunction,SMDPad,CuDef*
G36*
G01*
X129025029Y-102920000D02*
X131225035Y-102920000D01*
G75*
G02*
X131475032Y-103169997I0J-249997D01*
G01*
X131475032Y-103995003D01*
G75*
G02*
X131225035Y-104245000I-249997J0D01*
G01*
X129025029Y-104245000D01*
G75*
G02*
X128775032Y-103995003I0J249997D01*
G01*
X128775032Y-103169997D01*
G75*
G02*
X129025029Y-102920000I249997J0D01*
G01*
G37*
G04 #@! TD.AperFunction*
G04 #@! TA.AperFunction,SMDPad,CuDef*
G36*
G01*
X155025005Y-106045000D02*
X157225011Y-106045000D01*
G75*
G02*
X157475008Y-106294997I0J-249997D01*
G01*
X157475008Y-107120003D01*
G75*
G02*
X157225011Y-107370000I-249997J0D01*
G01*
X155025005Y-107370000D01*
G75*
G02*
X154775008Y-107120003I0J249997D01*
G01*
X154775008Y-106294997D01*
G75*
G02*
X155025005Y-106045000I249997J0D01*
G01*
G37*
G04 #@! TD.AperFunction*
G04 #@! TA.AperFunction,SMDPad,CuDef*
G36*
G01*
X155025005Y-102920000D02*
X157225011Y-102920000D01*
G75*
G02*
X157475008Y-103169997I0J-249997D01*
G01*
X157475008Y-103995003D01*
G75*
G02*
X157225011Y-104245000I-249997J0D01*
G01*
X155025005Y-104245000D01*
G75*
G02*
X154775008Y-103995003I0J249997D01*
G01*
X154775008Y-103169997D01*
G75*
G02*
X155025005Y-102920000I249997J0D01*
G01*
G37*
G04 #@! TD.AperFunction*
G04 #@! TA.AperFunction,SMDPad,CuDef*
G36*
G01*
X172887500Y-105457500D02*
X173362500Y-105457500D01*
G75*
G02*
X173600000Y-105695000I0J-237500D01*
G01*
X173600000Y-106295000D01*
G75*
G02*
X173362500Y-106532500I-237500J0D01*
G01*
X172887500Y-106532500D01*
G75*
G02*
X172650000Y-106295000I0J237500D01*
G01*
X172650000Y-105695000D01*
G75*
G02*
X172887500Y-105457500I237500J0D01*
G01*
G37*
G04 #@! TD.AperFunction*
G04 #@! TA.AperFunction,SMDPad,CuDef*
G36*
G01*
X172887500Y-103732500D02*
X173362500Y-103732500D01*
G75*
G02*
X173600000Y-103970000I0J-237500D01*
G01*
X173600000Y-104570000D01*
G75*
G02*
X173362500Y-104807500I-237500J0D01*
G01*
X172887500Y-104807500D01*
G75*
G02*
X172650000Y-104570000I0J237500D01*
G01*
X172650000Y-103970000D01*
G75*
G02*
X172887500Y-103732500I237500J0D01*
G01*
G37*
G04 #@! TD.AperFunction*
G04 #@! TA.AperFunction,SMDPad,CuDef*
G36*
G01*
X171337517Y-91480000D02*
X171812517Y-91480000D01*
G75*
G02*
X172050017Y-91717500I0J-237500D01*
G01*
X172050017Y-92317500D01*
G75*
G02*
X171812517Y-92555000I-237500J0D01*
G01*
X171337517Y-92555000D01*
G75*
G02*
X171100017Y-92317500I0J237500D01*
G01*
X171100017Y-91717500D01*
G75*
G02*
X171337517Y-91480000I237500J0D01*
G01*
G37*
G04 #@! TD.AperFunction*
G04 #@! TA.AperFunction,SMDPad,CuDef*
G36*
G01*
X171337517Y-89755000D02*
X171812517Y-89755000D01*
G75*
G02*
X172050017Y-89992500I0J-237500D01*
G01*
X172050017Y-90592500D01*
G75*
G02*
X171812517Y-90830000I-237500J0D01*
G01*
X171337517Y-90830000D01*
G75*
G02*
X171100017Y-90592500I0J237500D01*
G01*
X171100017Y-89992500D01*
G75*
G02*
X171337517Y-89755000I237500J0D01*
G01*
G37*
G04 #@! TD.AperFunction*
G04 #@! TA.AperFunction,SMDPad,CuDef*
G36*
G01*
X122637534Y-105470000D02*
X123112534Y-105470000D01*
G75*
G02*
X123350034Y-105707500I0J-237500D01*
G01*
X123350034Y-106307500D01*
G75*
G02*
X123112534Y-106545000I-237500J0D01*
G01*
X122637534Y-106545000D01*
G75*
G02*
X122400034Y-106307500I0J237500D01*
G01*
X122400034Y-105707500D01*
G75*
G02*
X122637534Y-105470000I237500J0D01*
G01*
G37*
G04 #@! TD.AperFunction*
G04 #@! TA.AperFunction,SMDPad,CuDef*
G36*
G01*
X122637534Y-103745000D02*
X123112534Y-103745000D01*
G75*
G02*
X123350034Y-103982500I0J-237500D01*
G01*
X123350034Y-104582500D01*
G75*
G02*
X123112534Y-104820000I-237500J0D01*
G01*
X122637534Y-104820000D01*
G75*
G02*
X122400034Y-104582500I0J237500D01*
G01*
X122400034Y-103982500D01*
G75*
G02*
X122637534Y-103745000I237500J0D01*
G01*
G37*
G04 #@! TD.AperFunction*
G04 #@! TA.AperFunction,SMDPad,CuDef*
G36*
G01*
X172837517Y-91480000D02*
X173312517Y-91480000D01*
G75*
G02*
X173550017Y-91717500I0J-237500D01*
G01*
X173550017Y-92317500D01*
G75*
G02*
X173312517Y-92555000I-237500J0D01*
G01*
X172837517Y-92555000D01*
G75*
G02*
X172600017Y-92317500I0J237500D01*
G01*
X172600017Y-91717500D01*
G75*
G02*
X172837517Y-91480000I237500J0D01*
G01*
G37*
G04 #@! TD.AperFunction*
G04 #@! TA.AperFunction,SMDPad,CuDef*
G36*
G01*
X172837517Y-89755000D02*
X173312517Y-89755000D01*
G75*
G02*
X173550017Y-89992500I0J-237500D01*
G01*
X173550017Y-90592500D01*
G75*
G02*
X173312517Y-90830000I-237500J0D01*
G01*
X172837517Y-90830000D01*
G75*
G02*
X172600017Y-90592500I0J237500D01*
G01*
X172600017Y-89992500D01*
G75*
G02*
X172837517Y-89755000I237500J0D01*
G01*
G37*
G04 #@! TD.AperFunction*
G04 #@! TA.AperFunction,SMDPad,CuDef*
G36*
G01*
X161474999Y-92055000D02*
X163675005Y-92055000D01*
G75*
G02*
X163925002Y-92304997I0J-249997D01*
G01*
X163925002Y-93130003D01*
G75*
G02*
X163675005Y-93380000I-249997J0D01*
G01*
X161474999Y-93380000D01*
G75*
G02*
X161225002Y-93130003I0J249997D01*
G01*
X161225002Y-92304997D01*
G75*
G02*
X161474999Y-92055000I249997J0D01*
G01*
G37*
G04 #@! TD.AperFunction*
G04 #@! TA.AperFunction,SMDPad,CuDef*
G36*
G01*
X161474999Y-88930000D02*
X163675005Y-88930000D01*
G75*
G02*
X163925002Y-89179997I0J-249997D01*
G01*
X163925002Y-90005003D01*
G75*
G02*
X163675005Y-90255000I-249997J0D01*
G01*
X161474999Y-90255000D01*
G75*
G02*
X161225002Y-90005003I0J249997D01*
G01*
X161225002Y-89179997D01*
G75*
G02*
X161474999Y-88930000I249997J0D01*
G01*
G37*
G04 #@! TD.AperFunction*
G04 #@! TA.AperFunction,SMDPad,CuDef*
G36*
G01*
X164774999Y-106045000D02*
X166975005Y-106045000D01*
G75*
G02*
X167225002Y-106294997I0J-249997D01*
G01*
X167225002Y-107120003D01*
G75*
G02*
X166975005Y-107370000I-249997J0D01*
G01*
X164774999Y-107370000D01*
G75*
G02*
X164525002Y-107120003I0J249997D01*
G01*
X164525002Y-106294997D01*
G75*
G02*
X164774999Y-106045000I249997J0D01*
G01*
G37*
G04 #@! TD.AperFunction*
G04 #@! TA.AperFunction,SMDPad,CuDef*
G36*
G01*
X164774999Y-102920000D02*
X166975005Y-102920000D01*
G75*
G02*
X167225002Y-103169997I0J-249997D01*
G01*
X167225002Y-103995003D01*
G75*
G02*
X166975005Y-104245000I-249997J0D01*
G01*
X164774999Y-104245000D01*
G75*
G02*
X164525002Y-103995003I0J249997D01*
G01*
X164525002Y-103169997D01*
G75*
G02*
X164774999Y-102920000I249997J0D01*
G01*
G37*
G04 #@! TD.AperFunction*
G04 #@! TA.AperFunction,SMDPad,CuDef*
G36*
G01*
X158275003Y-106045000D02*
X160475009Y-106045000D01*
G75*
G02*
X160725006Y-106294997I0J-249997D01*
G01*
X160725006Y-107120003D01*
G75*
G02*
X160475009Y-107370000I-249997J0D01*
G01*
X158275003Y-107370000D01*
G75*
G02*
X158025006Y-107120003I0J249997D01*
G01*
X158025006Y-106294997D01*
G75*
G02*
X158275003Y-106045000I249997J0D01*
G01*
G37*
G04 #@! TD.AperFunction*
G04 #@! TA.AperFunction,SMDPad,CuDef*
G36*
G01*
X158275003Y-102920000D02*
X160475009Y-102920000D01*
G75*
G02*
X160725006Y-103169997I0J-249997D01*
G01*
X160725006Y-103995003D01*
G75*
G02*
X160475009Y-104245000I-249997J0D01*
G01*
X158275003Y-104245000D01*
G75*
G02*
X158025006Y-103995003I0J249997D01*
G01*
X158025006Y-103169997D01*
G75*
G02*
X158275003Y-102920000I249997J0D01*
G01*
G37*
G04 #@! TD.AperFunction*
G04 #@! TA.AperFunction,SMDPad,CuDef*
G36*
G01*
X154975001Y-92055000D02*
X157175007Y-92055000D01*
G75*
G02*
X157425004Y-92304997I0J-249997D01*
G01*
X157425004Y-93130003D01*
G75*
G02*
X157175007Y-93380000I-249997J0D01*
G01*
X154975001Y-93380000D01*
G75*
G02*
X154725004Y-93130003I0J249997D01*
G01*
X154725004Y-92304997D01*
G75*
G02*
X154975001Y-92055000I249997J0D01*
G01*
G37*
G04 #@! TD.AperFunction*
G04 #@! TA.AperFunction,SMDPad,CuDef*
G36*
G01*
X154975001Y-88930000D02*
X157175007Y-88930000D01*
G75*
G02*
X157425004Y-89179997I0J-249997D01*
G01*
X157425004Y-90005003D01*
G75*
G02*
X157175007Y-90255000I-249997J0D01*
G01*
X154975001Y-90255000D01*
G75*
G02*
X154725004Y-90005003I0J249997D01*
G01*
X154725004Y-89179997D01*
G75*
G02*
X154975001Y-88930000I249997J0D01*
G01*
G37*
G04 #@! TD.AperFunction*
G04 #@! TA.AperFunction,SMDPad,CuDef*
G36*
G01*
X132275027Y-106045000D02*
X134475033Y-106045000D01*
G75*
G02*
X134725030Y-106294997I0J-249997D01*
G01*
X134725030Y-107120003D01*
G75*
G02*
X134475033Y-107370000I-249997J0D01*
G01*
X132275027Y-107370000D01*
G75*
G02*
X132025030Y-107120003I0J249997D01*
G01*
X132025030Y-106294997D01*
G75*
G02*
X132275027Y-106045000I249997J0D01*
G01*
G37*
G04 #@! TD.AperFunction*
G04 #@! TA.AperFunction,SMDPad,CuDef*
G36*
G01*
X132275027Y-102920000D02*
X134475033Y-102920000D01*
G75*
G02*
X134725030Y-103169997I0J-249997D01*
G01*
X134725030Y-103995003D01*
G75*
G02*
X134475033Y-104245000I-249997J0D01*
G01*
X132275027Y-104245000D01*
G75*
G02*
X132025030Y-103995003I0J249997D01*
G01*
X132025030Y-103169997D01*
G75*
G02*
X132275027Y-102920000I249997J0D01*
G01*
G37*
G04 #@! TD.AperFunction*
G04 #@! TA.AperFunction,SMDPad,CuDef*
G36*
G01*
X158225000Y-92055000D02*
X160425006Y-92055000D01*
G75*
G02*
X160675003Y-92304997I0J-249997D01*
G01*
X160675003Y-93130003D01*
G75*
G02*
X160425006Y-93380000I-249997J0D01*
G01*
X158225000Y-93380000D01*
G75*
G02*
X157975003Y-93130003I0J249997D01*
G01*
X157975003Y-92304997D01*
G75*
G02*
X158225000Y-92055000I249997J0D01*
G01*
G37*
G04 #@! TD.AperFunction*
G04 #@! TA.AperFunction,SMDPad,CuDef*
G36*
G01*
X158225000Y-88930000D02*
X160425006Y-88930000D01*
G75*
G02*
X160675003Y-89179997I0J-249997D01*
G01*
X160675003Y-90005003D01*
G75*
G02*
X160425006Y-90255000I-249997J0D01*
G01*
X158225000Y-90255000D01*
G75*
G02*
X157975003Y-90005003I0J249997D01*
G01*
X157975003Y-89179997D01*
G75*
G02*
X158225000Y-88930000I249997J0D01*
G01*
G37*
G04 #@! TD.AperFunction*
G04 #@! TA.AperFunction,SMDPad,CuDef*
G36*
G01*
X161525001Y-106045000D02*
X163725007Y-106045000D01*
G75*
G02*
X163975004Y-106294997I0J-249997D01*
G01*
X163975004Y-107120003D01*
G75*
G02*
X163725007Y-107370000I-249997J0D01*
G01*
X161525001Y-107370000D01*
G75*
G02*
X161275004Y-107120003I0J249997D01*
G01*
X161275004Y-106294997D01*
G75*
G02*
X161525001Y-106045000I249997J0D01*
G01*
G37*
G04 #@! TD.AperFunction*
G04 #@! TA.AperFunction,SMDPad,CuDef*
G36*
G01*
X161525001Y-102920000D02*
X163725007Y-102920000D01*
G75*
G02*
X163975004Y-103169997I0J-249997D01*
G01*
X163975004Y-103995003D01*
G75*
G02*
X163725007Y-104245000I-249997J0D01*
G01*
X161525001Y-104245000D01*
G75*
G02*
X161275004Y-103995003I0J249997D01*
G01*
X161275004Y-103169997D01*
G75*
G02*
X161525001Y-102920000I249997J0D01*
G01*
G37*
G04 #@! TD.AperFunction*
G04 #@! TA.AperFunction,SMDPad,CuDef*
G36*
G01*
X164724998Y-92055000D02*
X166925004Y-92055000D01*
G75*
G02*
X167175001Y-92304997I0J-249997D01*
G01*
X167175001Y-93130003D01*
G75*
G02*
X166925004Y-93380000I-249997J0D01*
G01*
X164724998Y-93380000D01*
G75*
G02*
X164475001Y-93130003I0J249997D01*
G01*
X164475001Y-92304997D01*
G75*
G02*
X164724998Y-92055000I249997J0D01*
G01*
G37*
G04 #@! TD.AperFunction*
G04 #@! TA.AperFunction,SMDPad,CuDef*
G36*
G01*
X164724998Y-88930000D02*
X166925004Y-88930000D01*
G75*
G02*
X167175001Y-89179997I0J-249997D01*
G01*
X167175001Y-90005003D01*
G75*
G02*
X166925004Y-90255000I-249997J0D01*
G01*
X164724998Y-90255000D01*
G75*
G02*
X164475001Y-90005003I0J249997D01*
G01*
X164475001Y-89179997D01*
G75*
G02*
X164724998Y-88930000I249997J0D01*
G01*
G37*
G04 #@! TD.AperFunction*
G04 #@! TA.AperFunction,SMDPad,CuDef*
G36*
G01*
X138775023Y-106045000D02*
X140975029Y-106045000D01*
G75*
G02*
X141225026Y-106294997I0J-249997D01*
G01*
X141225026Y-107120003D01*
G75*
G02*
X140975029Y-107370000I-249997J0D01*
G01*
X138775023Y-107370000D01*
G75*
G02*
X138525026Y-107120003I0J249997D01*
G01*
X138525026Y-106294997D01*
G75*
G02*
X138775023Y-106045000I249997J0D01*
G01*
G37*
G04 #@! TD.AperFunction*
G04 #@! TA.AperFunction,SMDPad,CuDef*
G36*
G01*
X138775023Y-102920000D02*
X140975029Y-102920000D01*
G75*
G02*
X141225026Y-103169997I0J-249997D01*
G01*
X141225026Y-103995003D01*
G75*
G02*
X140975029Y-104245000I-249997J0D01*
G01*
X138775023Y-104245000D01*
G75*
G02*
X138525026Y-103995003I0J249997D01*
G01*
X138525026Y-103169997D01*
G75*
G02*
X138775023Y-102920000I249997J0D01*
G01*
G37*
G04 #@! TD.AperFunction*
G04 #@! TA.AperFunction,SMDPad,CuDef*
G36*
G01*
X168024997Y-106045000D02*
X170225003Y-106045000D01*
G75*
G02*
X170475000Y-106294997I0J-249997D01*
G01*
X170475000Y-107120003D01*
G75*
G02*
X170225003Y-107370000I-249997J0D01*
G01*
X168024997Y-107370000D01*
G75*
G02*
X167775000Y-107120003I0J249997D01*
G01*
X167775000Y-106294997D01*
G75*
G02*
X168024997Y-106045000I249997J0D01*
G01*
G37*
G04 #@! TD.AperFunction*
G04 #@! TA.AperFunction,SMDPad,CuDef*
G36*
G01*
X168024997Y-102920000D02*
X170225003Y-102920000D01*
G75*
G02*
X170475000Y-103169997I0J-249997D01*
G01*
X170475000Y-103995003D01*
G75*
G02*
X170225003Y-104245000I-249997J0D01*
G01*
X168024997Y-104245000D01*
G75*
G02*
X167775000Y-103995003I0J249997D01*
G01*
X167775000Y-103169997D01*
G75*
G02*
X168024997Y-102920000I249997J0D01*
G01*
G37*
G04 #@! TD.AperFunction*
G04 #@! TA.AperFunction,SMDPad,CuDef*
G36*
G01*
X167974997Y-92055000D02*
X170175003Y-92055000D01*
G75*
G02*
X170425000Y-92304997I0J-249997D01*
G01*
X170425000Y-93130003D01*
G75*
G02*
X170175003Y-93380000I-249997J0D01*
G01*
X167974997Y-93380000D01*
G75*
G02*
X167725000Y-93130003I0J249997D01*
G01*
X167725000Y-92304997D01*
G75*
G02*
X167974997Y-92055000I249997J0D01*
G01*
G37*
G04 #@! TD.AperFunction*
G04 #@! TA.AperFunction,SMDPad,CuDef*
G36*
G01*
X167974997Y-88930000D02*
X170175003Y-88930000D01*
G75*
G02*
X170425000Y-89179997I0J-249997D01*
G01*
X170425000Y-90005003D01*
G75*
G02*
X170175003Y-90255000I-249997J0D01*
G01*
X167974997Y-90255000D01*
G75*
G02*
X167725000Y-90005003I0J249997D01*
G01*
X167725000Y-89179997D01*
G75*
G02*
X167974997Y-88930000I249997J0D01*
G01*
G37*
G04 #@! TD.AperFunction*
G04 #@! TA.AperFunction,SMDPad,CuDef*
G36*
G01*
X132225012Y-92055000D02*
X134425018Y-92055000D01*
G75*
G02*
X134675015Y-92304997I0J-249997D01*
G01*
X134675015Y-93130003D01*
G75*
G02*
X134425018Y-93380000I-249997J0D01*
G01*
X132225012Y-93380000D01*
G75*
G02*
X131975015Y-93130003I0J249997D01*
G01*
X131975015Y-92304997D01*
G75*
G02*
X132225012Y-92055000I249997J0D01*
G01*
G37*
G04 #@! TD.AperFunction*
G04 #@! TA.AperFunction,SMDPad,CuDef*
G36*
G01*
X132225012Y-88930000D02*
X134425018Y-88930000D01*
G75*
G02*
X134675015Y-89179997I0J-249997D01*
G01*
X134675015Y-90005003D01*
G75*
G02*
X134425018Y-90255000I-249997J0D01*
G01*
X132225012Y-90255000D01*
G75*
G02*
X131975015Y-90005003I0J249997D01*
G01*
X131975015Y-89179997D01*
G75*
G02*
X132225012Y-88930000I249997J0D01*
G01*
G37*
G04 #@! TD.AperFunction*
G04 #@! TA.AperFunction,SMDPad,CuDef*
G36*
G01*
X148525009Y-106045000D02*
X150725015Y-106045000D01*
G75*
G02*
X150975012Y-106294997I0J-249997D01*
G01*
X150975012Y-107120003D01*
G75*
G02*
X150725015Y-107370000I-249997J0D01*
G01*
X148525009Y-107370000D01*
G75*
G02*
X148275012Y-107120003I0J249997D01*
G01*
X148275012Y-106294997D01*
G75*
G02*
X148525009Y-106045000I249997J0D01*
G01*
G37*
G04 #@! TD.AperFunction*
G04 #@! TA.AperFunction,SMDPad,CuDef*
G36*
G01*
X148525009Y-102920000D02*
X150725015Y-102920000D01*
G75*
G02*
X150975012Y-103169997I0J-249997D01*
G01*
X150975012Y-103995003D01*
G75*
G02*
X150725015Y-104245000I-249997J0D01*
G01*
X148525009Y-104245000D01*
G75*
G02*
X148275012Y-103995003I0J249997D01*
G01*
X148275012Y-103169997D01*
G75*
G02*
X148525009Y-102920000I249997J0D01*
G01*
G37*
G04 #@! TD.AperFunction*
G04 #@! TA.AperFunction,SMDPad,CuDef*
G36*
G01*
X151775007Y-106045000D02*
X153975013Y-106045000D01*
G75*
G02*
X154225010Y-106294997I0J-249997D01*
G01*
X154225010Y-107120003D01*
G75*
G02*
X153975013Y-107370000I-249997J0D01*
G01*
X151775007Y-107370000D01*
G75*
G02*
X151525010Y-107120003I0J249997D01*
G01*
X151525010Y-106294997D01*
G75*
G02*
X151775007Y-106045000I249997J0D01*
G01*
G37*
G04 #@! TD.AperFunction*
G04 #@! TA.AperFunction,SMDPad,CuDef*
G36*
G01*
X151775007Y-102920000D02*
X153975013Y-102920000D01*
G75*
G02*
X154225010Y-103169997I0J-249997D01*
G01*
X154225010Y-103995003D01*
G75*
G02*
X153975013Y-104245000I-249997J0D01*
G01*
X151775007Y-104245000D01*
G75*
G02*
X151525010Y-103995003I0J249997D01*
G01*
X151525010Y-103169997D01*
G75*
G02*
X151775007Y-102920000I249997J0D01*
G01*
G37*
G04 #@! TD.AperFunction*
G04 #@! TA.AperFunction,SMDPad,CuDef*
G36*
G01*
X138725010Y-92055000D02*
X140925016Y-92055000D01*
G75*
G02*
X141175013Y-92304997I0J-249997D01*
G01*
X141175013Y-93130003D01*
G75*
G02*
X140925016Y-93380000I-249997J0D01*
G01*
X138725010Y-93380000D01*
G75*
G02*
X138475013Y-93130003I0J249997D01*
G01*
X138475013Y-92304997D01*
G75*
G02*
X138725010Y-92055000I249997J0D01*
G01*
G37*
G04 #@! TD.AperFunction*
G04 #@! TA.AperFunction,SMDPad,CuDef*
G36*
G01*
X138725010Y-88930000D02*
X140925016Y-88930000D01*
G75*
G02*
X141175013Y-89179997I0J-249997D01*
G01*
X141175013Y-90005003D01*
G75*
G02*
X140925016Y-90255000I-249997J0D01*
G01*
X138725010Y-90255000D01*
G75*
G02*
X138475013Y-90005003I0J249997D01*
G01*
X138475013Y-89179997D01*
G75*
G02*
X138725010Y-88930000I249997J0D01*
G01*
G37*
G04 #@! TD.AperFunction*
G04 #@! TA.AperFunction,SMDPad,CuDef*
G36*
G01*
X124137534Y-105470000D02*
X124612534Y-105470000D01*
G75*
G02*
X124850034Y-105707500I0J-237500D01*
G01*
X124850034Y-106307500D01*
G75*
G02*
X124612534Y-106545000I-237500J0D01*
G01*
X124137534Y-106545000D01*
G75*
G02*
X123900034Y-106307500I0J237500D01*
G01*
X123900034Y-105707500D01*
G75*
G02*
X124137534Y-105470000I237500J0D01*
G01*
G37*
G04 #@! TD.AperFunction*
G04 #@! TA.AperFunction,SMDPad,CuDef*
G36*
G01*
X124137534Y-103745000D02*
X124612534Y-103745000D01*
G75*
G02*
X124850034Y-103982500I0J-237500D01*
G01*
X124850034Y-104582500D01*
G75*
G02*
X124612534Y-104820000I-237500J0D01*
G01*
X124137534Y-104820000D01*
G75*
G02*
X123900034Y-104582500I0J237500D01*
G01*
X123900034Y-103982500D01*
G75*
G02*
X124137534Y-103745000I237500J0D01*
G01*
G37*
G04 #@! TD.AperFunction*
G04 #@! TA.AperFunction,SMDPad,CuDef*
G36*
G01*
X171387500Y-105457500D02*
X171862500Y-105457500D01*
G75*
G02*
X172100000Y-105695000I0J-237500D01*
G01*
X172100000Y-106295000D01*
G75*
G02*
X171862500Y-106532500I-237500J0D01*
G01*
X171387500Y-106532500D01*
G75*
G02*
X171150000Y-106295000I0J237500D01*
G01*
X171150000Y-105695000D01*
G75*
G02*
X171387500Y-105457500I237500J0D01*
G01*
G37*
G04 #@! TD.AperFunction*
G04 #@! TA.AperFunction,SMDPad,CuDef*
G36*
G01*
X171387500Y-103732500D02*
X171862500Y-103732500D01*
G75*
G02*
X172100000Y-103970000I0J-237500D01*
G01*
X172100000Y-104570000D01*
G75*
G02*
X171862500Y-104807500I-237500J0D01*
G01*
X171387500Y-104807500D01*
G75*
G02*
X171150000Y-104570000I0J237500D01*
G01*
X171150000Y-103970000D01*
G75*
G02*
X171387500Y-103732500I237500J0D01*
G01*
G37*
G04 #@! TD.AperFunction*
G04 #@! TA.AperFunction,SMDPad,CuDef*
G36*
G01*
X122637500Y-119037500D02*
X123112500Y-119037500D01*
G75*
G02*
X123350000Y-119275000I0J-237500D01*
G01*
X123350000Y-119875000D01*
G75*
G02*
X123112500Y-120112500I-237500J0D01*
G01*
X122637500Y-120112500D01*
G75*
G02*
X122400000Y-119875000I0J237500D01*
G01*
X122400000Y-119275000D01*
G75*
G02*
X122637500Y-119037500I237500J0D01*
G01*
G37*
G04 #@! TD.AperFunction*
G04 #@! TA.AperFunction,SMDPad,CuDef*
G36*
G01*
X122637500Y-117312500D02*
X123112500Y-117312500D01*
G75*
G02*
X123350000Y-117550000I0J-237500D01*
G01*
X123350000Y-118150000D01*
G75*
G02*
X123112500Y-118387500I-237500J0D01*
G01*
X122637500Y-118387500D01*
G75*
G02*
X122400000Y-118150000I0J237500D01*
G01*
X122400000Y-117550000D01*
G75*
G02*
X122637500Y-117312500I237500J0D01*
G01*
G37*
G04 #@! TD.AperFunction*
G04 #@! TA.AperFunction,SMDPad,CuDef*
G36*
G01*
X172887500Y-119037500D02*
X173362500Y-119037500D01*
G75*
G02*
X173600000Y-119275000I0J-237500D01*
G01*
X173600000Y-119875000D01*
G75*
G02*
X173362500Y-120112500I-237500J0D01*
G01*
X172887500Y-120112500D01*
G75*
G02*
X172650000Y-119875000I0J237500D01*
G01*
X172650000Y-119275000D01*
G75*
G02*
X172887500Y-119037500I237500J0D01*
G01*
G37*
G04 #@! TD.AperFunction*
G04 #@! TA.AperFunction,SMDPad,CuDef*
G36*
G01*
X172887500Y-117312500D02*
X173362500Y-117312500D01*
G75*
G02*
X173600000Y-117550000I0J-237500D01*
G01*
X173600000Y-118150000D01*
G75*
G02*
X173362500Y-118387500I-237500J0D01*
G01*
X172887500Y-118387500D01*
G75*
G02*
X172650000Y-118150000I0J237500D01*
G01*
X172650000Y-117550000D01*
G75*
G02*
X172887500Y-117312500I237500J0D01*
G01*
G37*
G04 #@! TD.AperFunction*
G04 #@! TA.AperFunction,SMDPad,CuDef*
G36*
G01*
X124137500Y-119037500D02*
X124612500Y-119037500D01*
G75*
G02*
X124850000Y-119275000I0J-237500D01*
G01*
X124850000Y-119875000D01*
G75*
G02*
X124612500Y-120112500I-237500J0D01*
G01*
X124137500Y-120112500D01*
G75*
G02*
X123900000Y-119875000I0J237500D01*
G01*
X123900000Y-119275000D01*
G75*
G02*
X124137500Y-119037500I237500J0D01*
G01*
G37*
G04 #@! TD.AperFunction*
G04 #@! TA.AperFunction,SMDPad,CuDef*
G36*
G01*
X124137500Y-117312500D02*
X124612500Y-117312500D01*
G75*
G02*
X124850000Y-117550000I0J-237500D01*
G01*
X124850000Y-118150000D01*
G75*
G02*
X124612500Y-118387500I-237500J0D01*
G01*
X124137500Y-118387500D01*
G75*
G02*
X123900000Y-118150000I0J237500D01*
G01*
X123900000Y-117550000D01*
G75*
G02*
X124137500Y-117312500I237500J0D01*
G01*
G37*
G04 #@! TD.AperFunction*
G04 #@! TA.AperFunction,SMDPad,CuDef*
G36*
G01*
X168024997Y-119612500D02*
X170225003Y-119612500D01*
G75*
G02*
X170475000Y-119862497I0J-249997D01*
G01*
X170475000Y-120687503D01*
G75*
G02*
X170225003Y-120937500I-249997J0D01*
G01*
X168024997Y-120937500D01*
G75*
G02*
X167775000Y-120687503I0J249997D01*
G01*
X167775000Y-119862497D01*
G75*
G02*
X168024997Y-119612500I249997J0D01*
G01*
G37*
G04 #@! TD.AperFunction*
G04 #@! TA.AperFunction,SMDPad,CuDef*
G36*
G01*
X168024997Y-116487500D02*
X170225003Y-116487500D01*
G75*
G02*
X170475000Y-116737497I0J-249997D01*
G01*
X170475000Y-117562503D01*
G75*
G02*
X170225003Y-117812500I-249997J0D01*
G01*
X168024997Y-117812500D01*
G75*
G02*
X167775000Y-117562503I0J249997D01*
G01*
X167775000Y-116737497D01*
G75*
G02*
X168024997Y-116487500I249997J0D01*
G01*
G37*
G04 #@! TD.AperFunction*
G04 #@! TA.AperFunction,SMDPad,CuDef*
G36*
G01*
X138774997Y-119612500D02*
X140975003Y-119612500D01*
G75*
G02*
X141225000Y-119862497I0J-249997D01*
G01*
X141225000Y-120687503D01*
G75*
G02*
X140975003Y-120937500I-249997J0D01*
G01*
X138774997Y-120937500D01*
G75*
G02*
X138525000Y-120687503I0J249997D01*
G01*
X138525000Y-119862497D01*
G75*
G02*
X138774997Y-119612500I249997J0D01*
G01*
G37*
G04 #@! TD.AperFunction*
G04 #@! TA.AperFunction,SMDPad,CuDef*
G36*
G01*
X138774997Y-116487500D02*
X140975003Y-116487500D01*
G75*
G02*
X141225000Y-116737497I0J-249997D01*
G01*
X141225000Y-117562503D01*
G75*
G02*
X140975003Y-117812500I-249997J0D01*
G01*
X138774997Y-117812500D01*
G75*
G02*
X138525000Y-117562503I0J249997D01*
G01*
X138525000Y-116737497D01*
G75*
G02*
X138774997Y-116487500I249997J0D01*
G01*
G37*
G04 #@! TD.AperFunction*
G04 #@! TA.AperFunction,SMDPad,CuDef*
G36*
G01*
X125774997Y-119612500D02*
X127975003Y-119612500D01*
G75*
G02*
X128225000Y-119862497I0J-249997D01*
G01*
X128225000Y-120687503D01*
G75*
G02*
X127975003Y-120937500I-249997J0D01*
G01*
X125774997Y-120937500D01*
G75*
G02*
X125525000Y-120687503I0J249997D01*
G01*
X125525000Y-119862497D01*
G75*
G02*
X125774997Y-119612500I249997J0D01*
G01*
G37*
G04 #@! TD.AperFunction*
G04 #@! TA.AperFunction,SMDPad,CuDef*
G36*
G01*
X125774997Y-116487500D02*
X127975003Y-116487500D01*
G75*
G02*
X128225000Y-116737497I0J-249997D01*
G01*
X128225000Y-117562503D01*
G75*
G02*
X127975003Y-117812500I-249997J0D01*
G01*
X125774997Y-117812500D01*
G75*
G02*
X125525000Y-117562503I0J249997D01*
G01*
X125525000Y-116737497D01*
G75*
G02*
X125774997Y-116487500I249997J0D01*
G01*
G37*
G04 #@! TD.AperFunction*
G04 #@! TA.AperFunction,SMDPad,CuDef*
G36*
G01*
X148524997Y-119612500D02*
X150725003Y-119612500D01*
G75*
G02*
X150975000Y-119862497I0J-249997D01*
G01*
X150975000Y-120687503D01*
G75*
G02*
X150725003Y-120937500I-249997J0D01*
G01*
X148524997Y-120937500D01*
G75*
G02*
X148275000Y-120687503I0J249997D01*
G01*
X148275000Y-119862497D01*
G75*
G02*
X148524997Y-119612500I249997J0D01*
G01*
G37*
G04 #@! TD.AperFunction*
G04 #@! TA.AperFunction,SMDPad,CuDef*
G36*
G01*
X148524997Y-116487500D02*
X150725003Y-116487500D01*
G75*
G02*
X150975000Y-116737497I0J-249997D01*
G01*
X150975000Y-117562503D01*
G75*
G02*
X150725003Y-117812500I-249997J0D01*
G01*
X148524997Y-117812500D01*
G75*
G02*
X148275000Y-117562503I0J249997D01*
G01*
X148275000Y-116737497D01*
G75*
G02*
X148524997Y-116487500I249997J0D01*
G01*
G37*
G04 #@! TD.AperFunction*
G04 #@! TA.AperFunction,SMDPad,CuDef*
G36*
G01*
X129024997Y-119612500D02*
X131225003Y-119612500D01*
G75*
G02*
X131475000Y-119862497I0J-249997D01*
G01*
X131475000Y-120687503D01*
G75*
G02*
X131225003Y-120937500I-249997J0D01*
G01*
X129024997Y-120937500D01*
G75*
G02*
X128775000Y-120687503I0J249997D01*
G01*
X128775000Y-119862497D01*
G75*
G02*
X129024997Y-119612500I249997J0D01*
G01*
G37*
G04 #@! TD.AperFunction*
G04 #@! TA.AperFunction,SMDPad,CuDef*
G36*
G01*
X129024997Y-116487500D02*
X131225003Y-116487500D01*
G75*
G02*
X131475000Y-116737497I0J-249997D01*
G01*
X131475000Y-117562503D01*
G75*
G02*
X131225003Y-117812500I-249997J0D01*
G01*
X129024997Y-117812500D01*
G75*
G02*
X128775000Y-117562503I0J249997D01*
G01*
X128775000Y-116737497D01*
G75*
G02*
X129024997Y-116487500I249997J0D01*
G01*
G37*
G04 #@! TD.AperFunction*
G04 #@! TA.AperFunction,SMDPad,CuDef*
G36*
G01*
X158274997Y-119612500D02*
X160475003Y-119612500D01*
G75*
G02*
X160725000Y-119862497I0J-249997D01*
G01*
X160725000Y-120687503D01*
G75*
G02*
X160475003Y-120937500I-249997J0D01*
G01*
X158274997Y-120937500D01*
G75*
G02*
X158025000Y-120687503I0J249997D01*
G01*
X158025000Y-119862497D01*
G75*
G02*
X158274997Y-119612500I249997J0D01*
G01*
G37*
G04 #@! TD.AperFunction*
G04 #@! TA.AperFunction,SMDPad,CuDef*
G36*
G01*
X158274997Y-116487500D02*
X160475003Y-116487500D01*
G75*
G02*
X160725000Y-116737497I0J-249997D01*
G01*
X160725000Y-117562503D01*
G75*
G02*
X160475003Y-117812500I-249997J0D01*
G01*
X158274997Y-117812500D01*
G75*
G02*
X158025000Y-117562503I0J249997D01*
G01*
X158025000Y-116737497D01*
G75*
G02*
X158274997Y-116487500I249997J0D01*
G01*
G37*
G04 #@! TD.AperFunction*
G04 #@! TA.AperFunction,SMDPad,CuDef*
G36*
G01*
X155024997Y-119612500D02*
X157225003Y-119612500D01*
G75*
G02*
X157475000Y-119862497I0J-249997D01*
G01*
X157475000Y-120687503D01*
G75*
G02*
X157225003Y-120937500I-249997J0D01*
G01*
X155024997Y-120937500D01*
G75*
G02*
X154775000Y-120687503I0J249997D01*
G01*
X154775000Y-119862497D01*
G75*
G02*
X155024997Y-119612500I249997J0D01*
G01*
G37*
G04 #@! TD.AperFunction*
G04 #@! TA.AperFunction,SMDPad,CuDef*
G36*
G01*
X155024997Y-116487500D02*
X157225003Y-116487500D01*
G75*
G02*
X157475000Y-116737497I0J-249997D01*
G01*
X157475000Y-117562503D01*
G75*
G02*
X157225003Y-117812500I-249997J0D01*
G01*
X155024997Y-117812500D01*
G75*
G02*
X154775000Y-117562503I0J249997D01*
G01*
X154775000Y-116737497D01*
G75*
G02*
X155024997Y-116487500I249997J0D01*
G01*
G37*
G04 #@! TD.AperFunction*
G04 #@! TA.AperFunction,SMDPad,CuDef*
G36*
G01*
X145274997Y-119612500D02*
X147475003Y-119612500D01*
G75*
G02*
X147725000Y-119862497I0J-249997D01*
G01*
X147725000Y-120687503D01*
G75*
G02*
X147475003Y-120937500I-249997J0D01*
G01*
X145274997Y-120937500D01*
G75*
G02*
X145025000Y-120687503I0J249997D01*
G01*
X145025000Y-119862497D01*
G75*
G02*
X145274997Y-119612500I249997J0D01*
G01*
G37*
G04 #@! TD.AperFunction*
G04 #@! TA.AperFunction,SMDPad,CuDef*
G36*
G01*
X145274997Y-116487500D02*
X147475003Y-116487500D01*
G75*
G02*
X147725000Y-116737497I0J-249997D01*
G01*
X147725000Y-117562503D01*
G75*
G02*
X147475003Y-117812500I-249997J0D01*
G01*
X145274997Y-117812500D01*
G75*
G02*
X145025000Y-117562503I0J249997D01*
G01*
X145025000Y-116737497D01*
G75*
G02*
X145274997Y-116487500I249997J0D01*
G01*
G37*
G04 #@! TD.AperFunction*
G04 #@! TA.AperFunction,SMDPad,CuDef*
G36*
G01*
X135524997Y-119612500D02*
X137725003Y-119612500D01*
G75*
G02*
X137975000Y-119862497I0J-249997D01*
G01*
X137975000Y-120687503D01*
G75*
G02*
X137725003Y-120937500I-249997J0D01*
G01*
X135524997Y-120937500D01*
G75*
G02*
X135275000Y-120687503I0J249997D01*
G01*
X135275000Y-119862497D01*
G75*
G02*
X135524997Y-119612500I249997J0D01*
G01*
G37*
G04 #@! TD.AperFunction*
G04 #@! TA.AperFunction,SMDPad,CuDef*
G36*
G01*
X135524997Y-116487500D02*
X137725003Y-116487500D01*
G75*
G02*
X137975000Y-116737497I0J-249997D01*
G01*
X137975000Y-117562503D01*
G75*
G02*
X137725003Y-117812500I-249997J0D01*
G01*
X135524997Y-117812500D01*
G75*
G02*
X135275000Y-117562503I0J249997D01*
G01*
X135275000Y-116737497D01*
G75*
G02*
X135524997Y-116487500I249997J0D01*
G01*
G37*
G04 #@! TD.AperFunction*
G04 #@! TA.AperFunction,SMDPad,CuDef*
G36*
G01*
X161524997Y-119612500D02*
X163725003Y-119612500D01*
G75*
G02*
X163975000Y-119862497I0J-249997D01*
G01*
X163975000Y-120687503D01*
G75*
G02*
X163725003Y-120937500I-249997J0D01*
G01*
X161524997Y-120937500D01*
G75*
G02*
X161275000Y-120687503I0J249997D01*
G01*
X161275000Y-119862497D01*
G75*
G02*
X161524997Y-119612500I249997J0D01*
G01*
G37*
G04 #@! TD.AperFunction*
G04 #@! TA.AperFunction,SMDPad,CuDef*
G36*
G01*
X161524997Y-116487500D02*
X163725003Y-116487500D01*
G75*
G02*
X163975000Y-116737497I0J-249997D01*
G01*
X163975000Y-117562503D01*
G75*
G02*
X163725003Y-117812500I-249997J0D01*
G01*
X161524997Y-117812500D01*
G75*
G02*
X161275000Y-117562503I0J249997D01*
G01*
X161275000Y-116737497D01*
G75*
G02*
X161524997Y-116487500I249997J0D01*
G01*
G37*
G04 #@! TD.AperFunction*
G04 #@! TA.AperFunction,SMDPad,CuDef*
G36*
G01*
X142024997Y-119612500D02*
X144225003Y-119612500D01*
G75*
G02*
X144475000Y-119862497I0J-249997D01*
G01*
X144475000Y-120687503D01*
G75*
G02*
X144225003Y-120937500I-249997J0D01*
G01*
X142024997Y-120937500D01*
G75*
G02*
X141775000Y-120687503I0J249997D01*
G01*
X141775000Y-119862497D01*
G75*
G02*
X142024997Y-119612500I249997J0D01*
G01*
G37*
G04 #@! TD.AperFunction*
G04 #@! TA.AperFunction,SMDPad,CuDef*
G36*
G01*
X142024997Y-116487500D02*
X144225003Y-116487500D01*
G75*
G02*
X144475000Y-116737497I0J-249997D01*
G01*
X144475000Y-117562503D01*
G75*
G02*
X144225003Y-117812500I-249997J0D01*
G01*
X142024997Y-117812500D01*
G75*
G02*
X141775000Y-117562503I0J249997D01*
G01*
X141775000Y-116737497D01*
G75*
G02*
X142024997Y-116487500I249997J0D01*
G01*
G37*
G04 #@! TD.AperFunction*
G04 #@! TA.AperFunction,SMDPad,CuDef*
G36*
G01*
X164774997Y-119612500D02*
X166975003Y-119612500D01*
G75*
G02*
X167225000Y-119862497I0J-249997D01*
G01*
X167225000Y-120687503D01*
G75*
G02*
X166975003Y-120937500I-249997J0D01*
G01*
X164774997Y-120937500D01*
G75*
G02*
X164525000Y-120687503I0J249997D01*
G01*
X164525000Y-119862497D01*
G75*
G02*
X164774997Y-119612500I249997J0D01*
G01*
G37*
G04 #@! TD.AperFunction*
G04 #@! TA.AperFunction,SMDPad,CuDef*
G36*
G01*
X164774997Y-116487500D02*
X166975003Y-116487500D01*
G75*
G02*
X167225000Y-116737497I0J-249997D01*
G01*
X167225000Y-117562503D01*
G75*
G02*
X166975003Y-117812500I-249997J0D01*
G01*
X164774997Y-117812500D01*
G75*
G02*
X164525000Y-117562503I0J249997D01*
G01*
X164525000Y-116737497D01*
G75*
G02*
X164774997Y-116487500I249997J0D01*
G01*
G37*
G04 #@! TD.AperFunction*
G04 #@! TA.AperFunction,SMDPad,CuDef*
G36*
G01*
X151774997Y-119612500D02*
X153975003Y-119612500D01*
G75*
G02*
X154225000Y-119862497I0J-249997D01*
G01*
X154225000Y-120687503D01*
G75*
G02*
X153975003Y-120937500I-249997J0D01*
G01*
X151774997Y-120937500D01*
G75*
G02*
X151525000Y-120687503I0J249997D01*
G01*
X151525000Y-119862497D01*
G75*
G02*
X151774997Y-119612500I249997J0D01*
G01*
G37*
G04 #@! TD.AperFunction*
G04 #@! TA.AperFunction,SMDPad,CuDef*
G36*
G01*
X151774997Y-116487500D02*
X153975003Y-116487500D01*
G75*
G02*
X154225000Y-116737497I0J-249997D01*
G01*
X154225000Y-117562503D01*
G75*
G02*
X153975003Y-117812500I-249997J0D01*
G01*
X151774997Y-117812500D01*
G75*
G02*
X151525000Y-117562503I0J249997D01*
G01*
X151525000Y-116737497D01*
G75*
G02*
X151774997Y-116487500I249997J0D01*
G01*
G37*
G04 #@! TD.AperFunction*
G04 #@! TA.AperFunction,SMDPad,CuDef*
G36*
G01*
X132274997Y-119612500D02*
X134475003Y-119612500D01*
G75*
G02*
X134725000Y-119862497I0J-249997D01*
G01*
X134725000Y-120687503D01*
G75*
G02*
X134475003Y-120937500I-249997J0D01*
G01*
X132274997Y-120937500D01*
G75*
G02*
X132025000Y-120687503I0J249997D01*
G01*
X132025000Y-119862497D01*
G75*
G02*
X132274997Y-119612500I249997J0D01*
G01*
G37*
G04 #@! TD.AperFunction*
G04 #@! TA.AperFunction,SMDPad,CuDef*
G36*
G01*
X132274997Y-116487500D02*
X134475003Y-116487500D01*
G75*
G02*
X134725000Y-116737497I0J-249997D01*
G01*
X134725000Y-117562503D01*
G75*
G02*
X134475003Y-117812500I-249997J0D01*
G01*
X132274997Y-117812500D01*
G75*
G02*
X132025000Y-117562503I0J249997D01*
G01*
X132025000Y-116737497D01*
G75*
G02*
X132274997Y-116487500I249997J0D01*
G01*
G37*
G04 #@! TD.AperFunction*
G04 #@! TA.AperFunction,SMDPad,CuDef*
G36*
G01*
X171387500Y-119037500D02*
X171862500Y-119037500D01*
G75*
G02*
X172100000Y-119275000I0J-237500D01*
G01*
X172100000Y-119875000D01*
G75*
G02*
X171862500Y-120112500I-237500J0D01*
G01*
X171387500Y-120112500D01*
G75*
G02*
X171150000Y-119875000I0J237500D01*
G01*
X171150000Y-119275000D01*
G75*
G02*
X171387500Y-119037500I237500J0D01*
G01*
G37*
G04 #@! TD.AperFunction*
G04 #@! TA.AperFunction,SMDPad,CuDef*
G36*
G01*
X171387500Y-117312500D02*
X171862500Y-117312500D01*
G75*
G02*
X172100000Y-117550000I0J-237500D01*
G01*
X172100000Y-118150000D01*
G75*
G02*
X171862500Y-118387500I-237500J0D01*
G01*
X171387500Y-118387500D01*
G75*
G02*
X171150000Y-118150000I0J237500D01*
G01*
X171150000Y-117550000D01*
G75*
G02*
X171387500Y-117312500I237500J0D01*
G01*
G37*
G04 #@! TD.AperFunction*
G04 #@! TA.AperFunction,SMDPad,CuDef*
G36*
G01*
X171387500Y-112137500D02*
X171862500Y-112137500D01*
G75*
G02*
X172100000Y-112375000I0J-237500D01*
G01*
X172100000Y-112975000D01*
G75*
G02*
X171862500Y-113212500I-237500J0D01*
G01*
X171387500Y-113212500D01*
G75*
G02*
X171150000Y-112975000I0J237500D01*
G01*
X171150000Y-112375000D01*
G75*
G02*
X171387500Y-112137500I237500J0D01*
G01*
G37*
G04 #@! TD.AperFunction*
G04 #@! TA.AperFunction,SMDPad,CuDef*
G36*
G01*
X171387500Y-110412500D02*
X171862500Y-110412500D01*
G75*
G02*
X172100000Y-110650000I0J-237500D01*
G01*
X172100000Y-111250000D01*
G75*
G02*
X171862500Y-111487500I-237500J0D01*
G01*
X171387500Y-111487500D01*
G75*
G02*
X171150000Y-111250000I0J237500D01*
G01*
X171150000Y-110650000D01*
G75*
G02*
X171387500Y-110412500I237500J0D01*
G01*
G37*
G04 #@! TD.AperFunction*
G04 #@! TA.AperFunction,SMDPad,CuDef*
G36*
G01*
X122637500Y-112137500D02*
X123112500Y-112137500D01*
G75*
G02*
X123350000Y-112375000I0J-237500D01*
G01*
X123350000Y-112975000D01*
G75*
G02*
X123112500Y-113212500I-237500J0D01*
G01*
X122637500Y-113212500D01*
G75*
G02*
X122400000Y-112975000I0J237500D01*
G01*
X122400000Y-112375000D01*
G75*
G02*
X122637500Y-112137500I237500J0D01*
G01*
G37*
G04 #@! TD.AperFunction*
G04 #@! TA.AperFunction,SMDPad,CuDef*
G36*
G01*
X122637500Y-110412500D02*
X123112500Y-110412500D01*
G75*
G02*
X123350000Y-110650000I0J-237500D01*
G01*
X123350000Y-111250000D01*
G75*
G02*
X123112500Y-111487500I-237500J0D01*
G01*
X122637500Y-111487500D01*
G75*
G02*
X122400000Y-111250000I0J237500D01*
G01*
X122400000Y-110650000D01*
G75*
G02*
X122637500Y-110412500I237500J0D01*
G01*
G37*
G04 #@! TD.AperFunction*
G04 #@! TA.AperFunction,SMDPad,CuDef*
G36*
G01*
X125774997Y-112712500D02*
X127975003Y-112712500D01*
G75*
G02*
X128225000Y-112962497I0J-249997D01*
G01*
X128225000Y-113787503D01*
G75*
G02*
X127975003Y-114037500I-249997J0D01*
G01*
X125774997Y-114037500D01*
G75*
G02*
X125525000Y-113787503I0J249997D01*
G01*
X125525000Y-112962497D01*
G75*
G02*
X125774997Y-112712500I249997J0D01*
G01*
G37*
G04 #@! TD.AperFunction*
G04 #@! TA.AperFunction,SMDPad,CuDef*
G36*
G01*
X125774997Y-109587500D02*
X127975003Y-109587500D01*
G75*
G02*
X128225000Y-109837497I0J-249997D01*
G01*
X128225000Y-110662503D01*
G75*
G02*
X127975003Y-110912500I-249997J0D01*
G01*
X125774997Y-110912500D01*
G75*
G02*
X125525000Y-110662503I0J249997D01*
G01*
X125525000Y-109837497D01*
G75*
G02*
X125774997Y-109587500I249997J0D01*
G01*
G37*
G04 #@! TD.AperFunction*
G04 #@! TA.AperFunction,SMDPad,CuDef*
G36*
G01*
X129024997Y-112712500D02*
X131225003Y-112712500D01*
G75*
G02*
X131475000Y-112962497I0J-249997D01*
G01*
X131475000Y-113787503D01*
G75*
G02*
X131225003Y-114037500I-249997J0D01*
G01*
X129024997Y-114037500D01*
G75*
G02*
X128775000Y-113787503I0J249997D01*
G01*
X128775000Y-112962497D01*
G75*
G02*
X129024997Y-112712500I249997J0D01*
G01*
G37*
G04 #@! TD.AperFunction*
G04 #@! TA.AperFunction,SMDPad,CuDef*
G36*
G01*
X129024997Y-109587500D02*
X131225003Y-109587500D01*
G75*
G02*
X131475000Y-109837497I0J-249997D01*
G01*
X131475000Y-110662503D01*
G75*
G02*
X131225003Y-110912500I-249997J0D01*
G01*
X129024997Y-110912500D01*
G75*
G02*
X128775000Y-110662503I0J249997D01*
G01*
X128775000Y-109837497D01*
G75*
G02*
X129024997Y-109587500I249997J0D01*
G01*
G37*
G04 #@! TD.AperFunction*
G04 #@! TA.AperFunction,SMDPad,CuDef*
G36*
G01*
X132274997Y-112712500D02*
X134475003Y-112712500D01*
G75*
G02*
X134725000Y-112962497I0J-249997D01*
G01*
X134725000Y-113787503D01*
G75*
G02*
X134475003Y-114037500I-249997J0D01*
G01*
X132274997Y-114037500D01*
G75*
G02*
X132025000Y-113787503I0J249997D01*
G01*
X132025000Y-112962497D01*
G75*
G02*
X132274997Y-112712500I249997J0D01*
G01*
G37*
G04 #@! TD.AperFunction*
G04 #@! TA.AperFunction,SMDPad,CuDef*
G36*
G01*
X132274997Y-109587500D02*
X134475003Y-109587500D01*
G75*
G02*
X134725000Y-109837497I0J-249997D01*
G01*
X134725000Y-110662503D01*
G75*
G02*
X134475003Y-110912500I-249997J0D01*
G01*
X132274997Y-110912500D01*
G75*
G02*
X132025000Y-110662503I0J249997D01*
G01*
X132025000Y-109837497D01*
G75*
G02*
X132274997Y-109587500I249997J0D01*
G01*
G37*
G04 #@! TD.AperFunction*
G04 #@! TA.AperFunction,SMDPad,CuDef*
G36*
G01*
X145274997Y-112712500D02*
X147475003Y-112712500D01*
G75*
G02*
X147725000Y-112962497I0J-249997D01*
G01*
X147725000Y-113787503D01*
G75*
G02*
X147475003Y-114037500I-249997J0D01*
G01*
X145274997Y-114037500D01*
G75*
G02*
X145025000Y-113787503I0J249997D01*
G01*
X145025000Y-112962497D01*
G75*
G02*
X145274997Y-112712500I249997J0D01*
G01*
G37*
G04 #@! TD.AperFunction*
G04 #@! TA.AperFunction,SMDPad,CuDef*
G36*
G01*
X145274997Y-109587500D02*
X147475003Y-109587500D01*
G75*
G02*
X147725000Y-109837497I0J-249997D01*
G01*
X147725000Y-110662503D01*
G75*
G02*
X147475003Y-110912500I-249997J0D01*
G01*
X145274997Y-110912500D01*
G75*
G02*
X145025000Y-110662503I0J249997D01*
G01*
X145025000Y-109837497D01*
G75*
G02*
X145274997Y-109587500I249997J0D01*
G01*
G37*
G04 #@! TD.AperFunction*
G04 #@! TA.AperFunction,SMDPad,CuDef*
G36*
G01*
X135524997Y-112712500D02*
X137725003Y-112712500D01*
G75*
G02*
X137975000Y-112962497I0J-249997D01*
G01*
X137975000Y-113787503D01*
G75*
G02*
X137725003Y-114037500I-249997J0D01*
G01*
X135524997Y-114037500D01*
G75*
G02*
X135275000Y-113787503I0J249997D01*
G01*
X135275000Y-112962497D01*
G75*
G02*
X135524997Y-112712500I249997J0D01*
G01*
G37*
G04 #@! TD.AperFunction*
G04 #@! TA.AperFunction,SMDPad,CuDef*
G36*
G01*
X135524997Y-109587500D02*
X137725003Y-109587500D01*
G75*
G02*
X137975000Y-109837497I0J-249997D01*
G01*
X137975000Y-110662503D01*
G75*
G02*
X137725003Y-110912500I-249997J0D01*
G01*
X135524997Y-110912500D01*
G75*
G02*
X135275000Y-110662503I0J249997D01*
G01*
X135275000Y-109837497D01*
G75*
G02*
X135524997Y-109587500I249997J0D01*
G01*
G37*
G04 #@! TD.AperFunction*
G04 #@! TA.AperFunction,SMDPad,CuDef*
G36*
G01*
X168024997Y-112712500D02*
X170225003Y-112712500D01*
G75*
G02*
X170475000Y-112962497I0J-249997D01*
G01*
X170475000Y-113787503D01*
G75*
G02*
X170225003Y-114037500I-249997J0D01*
G01*
X168024997Y-114037500D01*
G75*
G02*
X167775000Y-113787503I0J249997D01*
G01*
X167775000Y-112962497D01*
G75*
G02*
X168024997Y-112712500I249997J0D01*
G01*
G37*
G04 #@! TD.AperFunction*
G04 #@! TA.AperFunction,SMDPad,CuDef*
G36*
G01*
X168024997Y-109587500D02*
X170225003Y-109587500D01*
G75*
G02*
X170475000Y-109837497I0J-249997D01*
G01*
X170475000Y-110662503D01*
G75*
G02*
X170225003Y-110912500I-249997J0D01*
G01*
X168024997Y-110912500D01*
G75*
G02*
X167775000Y-110662503I0J249997D01*
G01*
X167775000Y-109837497D01*
G75*
G02*
X168024997Y-109587500I249997J0D01*
G01*
G37*
G04 #@! TD.AperFunction*
G04 #@! TA.AperFunction,SMDPad,CuDef*
G36*
G01*
X151774997Y-112712500D02*
X153975003Y-112712500D01*
G75*
G02*
X154225000Y-112962497I0J-249997D01*
G01*
X154225000Y-113787503D01*
G75*
G02*
X153975003Y-114037500I-249997J0D01*
G01*
X151774997Y-114037500D01*
G75*
G02*
X151525000Y-113787503I0J249997D01*
G01*
X151525000Y-112962497D01*
G75*
G02*
X151774997Y-112712500I249997J0D01*
G01*
G37*
G04 #@! TD.AperFunction*
G04 #@! TA.AperFunction,SMDPad,CuDef*
G36*
G01*
X151774997Y-109587500D02*
X153975003Y-109587500D01*
G75*
G02*
X154225000Y-109837497I0J-249997D01*
G01*
X154225000Y-110662503D01*
G75*
G02*
X153975003Y-110912500I-249997J0D01*
G01*
X151774997Y-110912500D01*
G75*
G02*
X151525000Y-110662503I0J249997D01*
G01*
X151525000Y-109837497D01*
G75*
G02*
X151774997Y-109587500I249997J0D01*
G01*
G37*
G04 #@! TD.AperFunction*
G04 #@! TA.AperFunction,SMDPad,CuDef*
G36*
G01*
X138774997Y-112712500D02*
X140975003Y-112712500D01*
G75*
G02*
X141225000Y-112962497I0J-249997D01*
G01*
X141225000Y-113787503D01*
G75*
G02*
X140975003Y-114037500I-249997J0D01*
G01*
X138774997Y-114037500D01*
G75*
G02*
X138525000Y-113787503I0J249997D01*
G01*
X138525000Y-112962497D01*
G75*
G02*
X138774997Y-112712500I249997J0D01*
G01*
G37*
G04 #@! TD.AperFunction*
G04 #@! TA.AperFunction,SMDPad,CuDef*
G36*
G01*
X138774997Y-109587500D02*
X140975003Y-109587500D01*
G75*
G02*
X141225000Y-109837497I0J-249997D01*
G01*
X141225000Y-110662503D01*
G75*
G02*
X140975003Y-110912500I-249997J0D01*
G01*
X138774997Y-110912500D01*
G75*
G02*
X138525000Y-110662503I0J249997D01*
G01*
X138525000Y-109837497D01*
G75*
G02*
X138774997Y-109587500I249997J0D01*
G01*
G37*
G04 #@! TD.AperFunction*
G04 #@! TA.AperFunction,SMDPad,CuDef*
G36*
G01*
X158274997Y-112712500D02*
X160475003Y-112712500D01*
G75*
G02*
X160725000Y-112962497I0J-249997D01*
G01*
X160725000Y-113787503D01*
G75*
G02*
X160475003Y-114037500I-249997J0D01*
G01*
X158274997Y-114037500D01*
G75*
G02*
X158025000Y-113787503I0J249997D01*
G01*
X158025000Y-112962497D01*
G75*
G02*
X158274997Y-112712500I249997J0D01*
G01*
G37*
G04 #@! TD.AperFunction*
G04 #@! TA.AperFunction,SMDPad,CuDef*
G36*
G01*
X158274997Y-109587500D02*
X160475003Y-109587500D01*
G75*
G02*
X160725000Y-109837497I0J-249997D01*
G01*
X160725000Y-110662503D01*
G75*
G02*
X160475003Y-110912500I-249997J0D01*
G01*
X158274997Y-110912500D01*
G75*
G02*
X158025000Y-110662503I0J249997D01*
G01*
X158025000Y-109837497D01*
G75*
G02*
X158274997Y-109587500I249997J0D01*
G01*
G37*
G04 #@! TD.AperFunction*
G04 #@! TA.AperFunction,SMDPad,CuDef*
G36*
G01*
X142024997Y-112712500D02*
X144225003Y-112712500D01*
G75*
G02*
X144475000Y-112962497I0J-249997D01*
G01*
X144475000Y-113787503D01*
G75*
G02*
X144225003Y-114037500I-249997J0D01*
G01*
X142024997Y-114037500D01*
G75*
G02*
X141775000Y-113787503I0J249997D01*
G01*
X141775000Y-112962497D01*
G75*
G02*
X142024997Y-112712500I249997J0D01*
G01*
G37*
G04 #@! TD.AperFunction*
G04 #@! TA.AperFunction,SMDPad,CuDef*
G36*
G01*
X142024997Y-109587500D02*
X144225003Y-109587500D01*
G75*
G02*
X144475000Y-109837497I0J-249997D01*
G01*
X144475000Y-110662503D01*
G75*
G02*
X144225003Y-110912500I-249997J0D01*
G01*
X142024997Y-110912500D01*
G75*
G02*
X141775000Y-110662503I0J249997D01*
G01*
X141775000Y-109837497D01*
G75*
G02*
X142024997Y-109587500I249997J0D01*
G01*
G37*
G04 #@! TD.AperFunction*
G04 #@! TA.AperFunction,SMDPad,CuDef*
G36*
G01*
X148524997Y-112712500D02*
X150725003Y-112712500D01*
G75*
G02*
X150975000Y-112962497I0J-249997D01*
G01*
X150975000Y-113787503D01*
G75*
G02*
X150725003Y-114037500I-249997J0D01*
G01*
X148524997Y-114037500D01*
G75*
G02*
X148275000Y-113787503I0J249997D01*
G01*
X148275000Y-112962497D01*
G75*
G02*
X148524997Y-112712500I249997J0D01*
G01*
G37*
G04 #@! TD.AperFunction*
G04 #@! TA.AperFunction,SMDPad,CuDef*
G36*
G01*
X148524997Y-109587500D02*
X150725003Y-109587500D01*
G75*
G02*
X150975000Y-109837497I0J-249997D01*
G01*
X150975000Y-110662503D01*
G75*
G02*
X150725003Y-110912500I-249997J0D01*
G01*
X148524997Y-110912500D01*
G75*
G02*
X148275000Y-110662503I0J249997D01*
G01*
X148275000Y-109837497D01*
G75*
G02*
X148524997Y-109587500I249997J0D01*
G01*
G37*
G04 #@! TD.AperFunction*
G04 #@! TA.AperFunction,SMDPad,CuDef*
G36*
G01*
X161524997Y-112712500D02*
X163725003Y-112712500D01*
G75*
G02*
X163975000Y-112962497I0J-249997D01*
G01*
X163975000Y-113787503D01*
G75*
G02*
X163725003Y-114037500I-249997J0D01*
G01*
X161524997Y-114037500D01*
G75*
G02*
X161275000Y-113787503I0J249997D01*
G01*
X161275000Y-112962497D01*
G75*
G02*
X161524997Y-112712500I249997J0D01*
G01*
G37*
G04 #@! TD.AperFunction*
G04 #@! TA.AperFunction,SMDPad,CuDef*
G36*
G01*
X161524997Y-109587500D02*
X163725003Y-109587500D01*
G75*
G02*
X163975000Y-109837497I0J-249997D01*
G01*
X163975000Y-110662503D01*
G75*
G02*
X163725003Y-110912500I-249997J0D01*
G01*
X161524997Y-110912500D01*
G75*
G02*
X161275000Y-110662503I0J249997D01*
G01*
X161275000Y-109837497D01*
G75*
G02*
X161524997Y-109587500I249997J0D01*
G01*
G37*
G04 #@! TD.AperFunction*
G04 #@! TA.AperFunction,SMDPad,CuDef*
G36*
G01*
X155024997Y-112712500D02*
X157225003Y-112712500D01*
G75*
G02*
X157475000Y-112962497I0J-249997D01*
G01*
X157475000Y-113787503D01*
G75*
G02*
X157225003Y-114037500I-249997J0D01*
G01*
X155024997Y-114037500D01*
G75*
G02*
X154775000Y-113787503I0J249997D01*
G01*
X154775000Y-112962497D01*
G75*
G02*
X155024997Y-112712500I249997J0D01*
G01*
G37*
G04 #@! TD.AperFunction*
G04 #@! TA.AperFunction,SMDPad,CuDef*
G36*
G01*
X155024997Y-109587500D02*
X157225003Y-109587500D01*
G75*
G02*
X157475000Y-109837497I0J-249997D01*
G01*
X157475000Y-110662503D01*
G75*
G02*
X157225003Y-110912500I-249997J0D01*
G01*
X155024997Y-110912500D01*
G75*
G02*
X154775000Y-110662503I0J249997D01*
G01*
X154775000Y-109837497D01*
G75*
G02*
X155024997Y-109587500I249997J0D01*
G01*
G37*
G04 #@! TD.AperFunction*
G04 #@! TA.AperFunction,SMDPad,CuDef*
G36*
G01*
X164774997Y-112712500D02*
X166975003Y-112712500D01*
G75*
G02*
X167225000Y-112962497I0J-249997D01*
G01*
X167225000Y-113787503D01*
G75*
G02*
X166975003Y-114037500I-249997J0D01*
G01*
X164774997Y-114037500D01*
G75*
G02*
X164525000Y-113787503I0J249997D01*
G01*
X164525000Y-112962497D01*
G75*
G02*
X164774997Y-112712500I249997J0D01*
G01*
G37*
G04 #@! TD.AperFunction*
G04 #@! TA.AperFunction,SMDPad,CuDef*
G36*
G01*
X164774997Y-109587500D02*
X166975003Y-109587500D01*
G75*
G02*
X167225000Y-109837497I0J-249997D01*
G01*
X167225000Y-110662503D01*
G75*
G02*
X166975003Y-110912500I-249997J0D01*
G01*
X164774997Y-110912500D01*
G75*
G02*
X164525000Y-110662503I0J249997D01*
G01*
X164525000Y-109837497D01*
G75*
G02*
X164774997Y-109587500I249997J0D01*
G01*
G37*
G04 #@! TD.AperFunction*
G04 #@! TA.AperFunction,SMDPad,CuDef*
G36*
G01*
X172887500Y-112137500D02*
X173362500Y-112137500D01*
G75*
G02*
X173600000Y-112375000I0J-237500D01*
G01*
X173600000Y-112975000D01*
G75*
G02*
X173362500Y-113212500I-237500J0D01*
G01*
X172887500Y-113212500D01*
G75*
G02*
X172650000Y-112975000I0J237500D01*
G01*
X172650000Y-112375000D01*
G75*
G02*
X172887500Y-112137500I237500J0D01*
G01*
G37*
G04 #@! TD.AperFunction*
G04 #@! TA.AperFunction,SMDPad,CuDef*
G36*
G01*
X172887500Y-110412500D02*
X173362500Y-110412500D01*
G75*
G02*
X173600000Y-110650000I0J-237500D01*
G01*
X173600000Y-111250000D01*
G75*
G02*
X173362500Y-111487500I-237500J0D01*
G01*
X172887500Y-111487500D01*
G75*
G02*
X172650000Y-111250000I0J237500D01*
G01*
X172650000Y-110650000D01*
G75*
G02*
X172887500Y-110412500I237500J0D01*
G01*
G37*
G04 #@! TD.AperFunction*
G04 #@! TA.AperFunction,SMDPad,CuDef*
G36*
G01*
X124137500Y-112137500D02*
X124612500Y-112137500D01*
G75*
G02*
X124850000Y-112375000I0J-237500D01*
G01*
X124850000Y-112975000D01*
G75*
G02*
X124612500Y-113212500I-237500J0D01*
G01*
X124137500Y-113212500D01*
G75*
G02*
X123900000Y-112975000I0J237500D01*
G01*
X123900000Y-112375000D01*
G75*
G02*
X124137500Y-112137500I237500J0D01*
G01*
G37*
G04 #@! TD.AperFunction*
G04 #@! TA.AperFunction,SMDPad,CuDef*
G36*
G01*
X124137500Y-110412500D02*
X124612500Y-110412500D01*
G75*
G02*
X124850000Y-110650000I0J-237500D01*
G01*
X124850000Y-111250000D01*
G75*
G02*
X124612500Y-111487500I-237500J0D01*
G01*
X124137500Y-111487500D01*
G75*
G02*
X123900000Y-111250000I0J237500D01*
G01*
X123900000Y-110650000D01*
G75*
G02*
X124137500Y-110412500I237500J0D01*
G01*
G37*
G04 #@! TD.AperFunction*
G04 #@! TA.AperFunction,SMDPad,CuDef*
G36*
G01*
X122637500Y-98475000D02*
X123112500Y-98475000D01*
G75*
G02*
X123350000Y-98712500I0J-237500D01*
G01*
X123350000Y-99312500D01*
G75*
G02*
X123112500Y-99550000I-237500J0D01*
G01*
X122637500Y-99550000D01*
G75*
G02*
X122400000Y-99312500I0J237500D01*
G01*
X122400000Y-98712500D01*
G75*
G02*
X122637500Y-98475000I237500J0D01*
G01*
G37*
G04 #@! TD.AperFunction*
G04 #@! TA.AperFunction,SMDPad,CuDef*
G36*
G01*
X122637500Y-96750000D02*
X123112500Y-96750000D01*
G75*
G02*
X123350000Y-96987500I0J-237500D01*
G01*
X123350000Y-97587500D01*
G75*
G02*
X123112500Y-97825000I-237500J0D01*
G01*
X122637500Y-97825000D01*
G75*
G02*
X122400000Y-97587500I0J237500D01*
G01*
X122400000Y-96987500D01*
G75*
G02*
X122637500Y-96750000I237500J0D01*
G01*
G37*
G04 #@! TD.AperFunction*
G04 #@! TA.AperFunction,SMDPad,CuDef*
G36*
G01*
X124137500Y-98475000D02*
X124612500Y-98475000D01*
G75*
G02*
X124850000Y-98712500I0J-237500D01*
G01*
X124850000Y-99312500D01*
G75*
G02*
X124612500Y-99550000I-237500J0D01*
G01*
X124137500Y-99550000D01*
G75*
G02*
X123900000Y-99312500I0J237500D01*
G01*
X123900000Y-98712500D01*
G75*
G02*
X124137500Y-98475000I237500J0D01*
G01*
G37*
G04 #@! TD.AperFunction*
G04 #@! TA.AperFunction,SMDPad,CuDef*
G36*
G01*
X124137500Y-96750000D02*
X124612500Y-96750000D01*
G75*
G02*
X124850000Y-96987500I0J-237500D01*
G01*
X124850000Y-97587500D01*
G75*
G02*
X124612500Y-97825000I-237500J0D01*
G01*
X124137500Y-97825000D01*
G75*
G02*
X123900000Y-97587500I0J237500D01*
G01*
X123900000Y-96987500D01*
G75*
G02*
X124137500Y-96750000I237500J0D01*
G01*
G37*
G04 #@! TD.AperFunction*
G04 #@! TA.AperFunction,SMDPad,CuDef*
G36*
G01*
X161524997Y-99050000D02*
X163725003Y-99050000D01*
G75*
G02*
X163975000Y-99299997I0J-249997D01*
G01*
X163975000Y-100125003D01*
G75*
G02*
X163725003Y-100375000I-249997J0D01*
G01*
X161524997Y-100375000D01*
G75*
G02*
X161275000Y-100125003I0J249997D01*
G01*
X161275000Y-99299997D01*
G75*
G02*
X161524997Y-99050000I249997J0D01*
G01*
G37*
G04 #@! TD.AperFunction*
G04 #@! TA.AperFunction,SMDPad,CuDef*
G36*
G01*
X161524997Y-95925000D02*
X163725003Y-95925000D01*
G75*
G02*
X163975000Y-96174997I0J-249997D01*
G01*
X163975000Y-97000003D01*
G75*
G02*
X163725003Y-97250000I-249997J0D01*
G01*
X161524997Y-97250000D01*
G75*
G02*
X161275000Y-97000003I0J249997D01*
G01*
X161275000Y-96174997D01*
G75*
G02*
X161524997Y-95925000I249997J0D01*
G01*
G37*
G04 #@! TD.AperFunction*
G04 #@! TA.AperFunction,SMDPad,CuDef*
G36*
G01*
X145274997Y-99050000D02*
X147475003Y-99050000D01*
G75*
G02*
X147725000Y-99299997I0J-249997D01*
G01*
X147725000Y-100125003D01*
G75*
G02*
X147475003Y-100375000I-249997J0D01*
G01*
X145274997Y-100375000D01*
G75*
G02*
X145025000Y-100125003I0J249997D01*
G01*
X145025000Y-99299997D01*
G75*
G02*
X145274997Y-99050000I249997J0D01*
G01*
G37*
G04 #@! TD.AperFunction*
G04 #@! TA.AperFunction,SMDPad,CuDef*
G36*
G01*
X145274997Y-95925000D02*
X147475003Y-95925000D01*
G75*
G02*
X147725000Y-96174997I0J-249997D01*
G01*
X147725000Y-97000003D01*
G75*
G02*
X147475003Y-97250000I-249997J0D01*
G01*
X145274997Y-97250000D01*
G75*
G02*
X145025000Y-97000003I0J249997D01*
G01*
X145025000Y-96174997D01*
G75*
G02*
X145274997Y-95925000I249997J0D01*
G01*
G37*
G04 #@! TD.AperFunction*
G04 #@! TA.AperFunction,SMDPad,CuDef*
G36*
G01*
X132274997Y-99050000D02*
X134475003Y-99050000D01*
G75*
G02*
X134725000Y-99299997I0J-249997D01*
G01*
X134725000Y-100125003D01*
G75*
G02*
X134475003Y-100375000I-249997J0D01*
G01*
X132274997Y-100375000D01*
G75*
G02*
X132025000Y-100125003I0J249997D01*
G01*
X132025000Y-99299997D01*
G75*
G02*
X132274997Y-99050000I249997J0D01*
G01*
G37*
G04 #@! TD.AperFunction*
G04 #@! TA.AperFunction,SMDPad,CuDef*
G36*
G01*
X132274997Y-95925000D02*
X134475003Y-95925000D01*
G75*
G02*
X134725000Y-96174997I0J-249997D01*
G01*
X134725000Y-97000003D01*
G75*
G02*
X134475003Y-97250000I-249997J0D01*
G01*
X132274997Y-97250000D01*
G75*
G02*
X132025000Y-97000003I0J249997D01*
G01*
X132025000Y-96174997D01*
G75*
G02*
X132274997Y-95925000I249997J0D01*
G01*
G37*
G04 #@! TD.AperFunction*
G04 #@! TA.AperFunction,SMDPad,CuDef*
G36*
G01*
X164774997Y-99050000D02*
X166975003Y-99050000D01*
G75*
G02*
X167225000Y-99299997I0J-249997D01*
G01*
X167225000Y-100125003D01*
G75*
G02*
X166975003Y-100375000I-249997J0D01*
G01*
X164774997Y-100375000D01*
G75*
G02*
X164525000Y-100125003I0J249997D01*
G01*
X164525000Y-99299997D01*
G75*
G02*
X164774997Y-99050000I249997J0D01*
G01*
G37*
G04 #@! TD.AperFunction*
G04 #@! TA.AperFunction,SMDPad,CuDef*
G36*
G01*
X164774997Y-95925000D02*
X166975003Y-95925000D01*
G75*
G02*
X167225000Y-96174997I0J-249997D01*
G01*
X167225000Y-97000003D01*
G75*
G02*
X166975003Y-97250000I-249997J0D01*
G01*
X164774997Y-97250000D01*
G75*
G02*
X164525000Y-97000003I0J249997D01*
G01*
X164525000Y-96174997D01*
G75*
G02*
X164774997Y-95925000I249997J0D01*
G01*
G37*
G04 #@! TD.AperFunction*
G04 #@! TA.AperFunction,SMDPad,CuDef*
G36*
G01*
X151774997Y-99050000D02*
X153975003Y-99050000D01*
G75*
G02*
X154225000Y-99299997I0J-249997D01*
G01*
X154225000Y-100125003D01*
G75*
G02*
X153975003Y-100375000I-249997J0D01*
G01*
X151774997Y-100375000D01*
G75*
G02*
X151525000Y-100125003I0J249997D01*
G01*
X151525000Y-99299997D01*
G75*
G02*
X151774997Y-99050000I249997J0D01*
G01*
G37*
G04 #@! TD.AperFunction*
G04 #@! TA.AperFunction,SMDPad,CuDef*
G36*
G01*
X151774997Y-95925000D02*
X153975003Y-95925000D01*
G75*
G02*
X154225000Y-96174997I0J-249997D01*
G01*
X154225000Y-97000003D01*
G75*
G02*
X153975003Y-97250000I-249997J0D01*
G01*
X151774997Y-97250000D01*
G75*
G02*
X151525000Y-97000003I0J249997D01*
G01*
X151525000Y-96174997D01*
G75*
G02*
X151774997Y-95925000I249997J0D01*
G01*
G37*
G04 #@! TD.AperFunction*
G04 #@! TA.AperFunction,SMDPad,CuDef*
G36*
G01*
X138774997Y-99050000D02*
X140975003Y-99050000D01*
G75*
G02*
X141225000Y-99299997I0J-249997D01*
G01*
X141225000Y-100125003D01*
G75*
G02*
X140975003Y-100375000I-249997J0D01*
G01*
X138774997Y-100375000D01*
G75*
G02*
X138525000Y-100125003I0J249997D01*
G01*
X138525000Y-99299997D01*
G75*
G02*
X138774997Y-99050000I249997J0D01*
G01*
G37*
G04 #@! TD.AperFunction*
G04 #@! TA.AperFunction,SMDPad,CuDef*
G36*
G01*
X138774997Y-95925000D02*
X140975003Y-95925000D01*
G75*
G02*
X141225000Y-96174997I0J-249997D01*
G01*
X141225000Y-97000003D01*
G75*
G02*
X140975003Y-97250000I-249997J0D01*
G01*
X138774997Y-97250000D01*
G75*
G02*
X138525000Y-97000003I0J249997D01*
G01*
X138525000Y-96174997D01*
G75*
G02*
X138774997Y-95925000I249997J0D01*
G01*
G37*
G04 #@! TD.AperFunction*
G04 #@! TA.AperFunction,SMDPad,CuDef*
G36*
G01*
X168024997Y-99050000D02*
X170225003Y-99050000D01*
G75*
G02*
X170475000Y-99299997I0J-249997D01*
G01*
X170475000Y-100125003D01*
G75*
G02*
X170225003Y-100375000I-249997J0D01*
G01*
X168024997Y-100375000D01*
G75*
G02*
X167775000Y-100125003I0J249997D01*
G01*
X167775000Y-99299997D01*
G75*
G02*
X168024997Y-99050000I249997J0D01*
G01*
G37*
G04 #@! TD.AperFunction*
G04 #@! TA.AperFunction,SMDPad,CuDef*
G36*
G01*
X168024997Y-95925000D02*
X170225003Y-95925000D01*
G75*
G02*
X170475000Y-96174997I0J-249997D01*
G01*
X170475000Y-97000003D01*
G75*
G02*
X170225003Y-97250000I-249997J0D01*
G01*
X168024997Y-97250000D01*
G75*
G02*
X167775000Y-97000003I0J249997D01*
G01*
X167775000Y-96174997D01*
G75*
G02*
X168024997Y-95925000I249997J0D01*
G01*
G37*
G04 #@! TD.AperFunction*
G04 #@! TA.AperFunction,SMDPad,CuDef*
G36*
G01*
X158274997Y-99050000D02*
X160475003Y-99050000D01*
G75*
G02*
X160725000Y-99299997I0J-249997D01*
G01*
X160725000Y-100125003D01*
G75*
G02*
X160475003Y-100375000I-249997J0D01*
G01*
X158274997Y-100375000D01*
G75*
G02*
X158025000Y-100125003I0J249997D01*
G01*
X158025000Y-99299997D01*
G75*
G02*
X158274997Y-99050000I249997J0D01*
G01*
G37*
G04 #@! TD.AperFunction*
G04 #@! TA.AperFunction,SMDPad,CuDef*
G36*
G01*
X158274997Y-95925000D02*
X160475003Y-95925000D01*
G75*
G02*
X160725000Y-96174997I0J-249997D01*
G01*
X160725000Y-97000003D01*
G75*
G02*
X160475003Y-97250000I-249997J0D01*
G01*
X158274997Y-97250000D01*
G75*
G02*
X158025000Y-97000003I0J249997D01*
G01*
X158025000Y-96174997D01*
G75*
G02*
X158274997Y-95925000I249997J0D01*
G01*
G37*
G04 #@! TD.AperFunction*
G04 #@! TA.AperFunction,SMDPad,CuDef*
G36*
G01*
X129024997Y-99050000D02*
X131225003Y-99050000D01*
G75*
G02*
X131475000Y-99299997I0J-249997D01*
G01*
X131475000Y-100125003D01*
G75*
G02*
X131225003Y-100375000I-249997J0D01*
G01*
X129024997Y-100375000D01*
G75*
G02*
X128775000Y-100125003I0J249997D01*
G01*
X128775000Y-99299997D01*
G75*
G02*
X129024997Y-99050000I249997J0D01*
G01*
G37*
G04 #@! TD.AperFunction*
G04 #@! TA.AperFunction,SMDPad,CuDef*
G36*
G01*
X129024997Y-95925000D02*
X131225003Y-95925000D01*
G75*
G02*
X131475000Y-96174997I0J-249997D01*
G01*
X131475000Y-97000003D01*
G75*
G02*
X131225003Y-97250000I-249997J0D01*
G01*
X129024997Y-97250000D01*
G75*
G02*
X128775000Y-97000003I0J249997D01*
G01*
X128775000Y-96174997D01*
G75*
G02*
X129024997Y-95925000I249997J0D01*
G01*
G37*
G04 #@! TD.AperFunction*
G04 #@! TA.AperFunction,SMDPad,CuDef*
G36*
G01*
X148524997Y-99050000D02*
X150725003Y-99050000D01*
G75*
G02*
X150975000Y-99299997I0J-249997D01*
G01*
X150975000Y-100125003D01*
G75*
G02*
X150725003Y-100375000I-249997J0D01*
G01*
X148524997Y-100375000D01*
G75*
G02*
X148275000Y-100125003I0J249997D01*
G01*
X148275000Y-99299997D01*
G75*
G02*
X148524997Y-99050000I249997J0D01*
G01*
G37*
G04 #@! TD.AperFunction*
G04 #@! TA.AperFunction,SMDPad,CuDef*
G36*
G01*
X148524997Y-95925000D02*
X150725003Y-95925000D01*
G75*
G02*
X150975000Y-96174997I0J-249997D01*
G01*
X150975000Y-97000003D01*
G75*
G02*
X150725003Y-97250000I-249997J0D01*
G01*
X148524997Y-97250000D01*
G75*
G02*
X148275000Y-97000003I0J249997D01*
G01*
X148275000Y-96174997D01*
G75*
G02*
X148524997Y-95925000I249997J0D01*
G01*
G37*
G04 #@! TD.AperFunction*
G04 #@! TA.AperFunction,SMDPad,CuDef*
G36*
G01*
X135524997Y-99050000D02*
X137725003Y-99050000D01*
G75*
G02*
X137975000Y-99299997I0J-249997D01*
G01*
X137975000Y-100125003D01*
G75*
G02*
X137725003Y-100375000I-249997J0D01*
G01*
X135524997Y-100375000D01*
G75*
G02*
X135275000Y-100125003I0J249997D01*
G01*
X135275000Y-99299997D01*
G75*
G02*
X135524997Y-99050000I249997J0D01*
G01*
G37*
G04 #@! TD.AperFunction*
G04 #@! TA.AperFunction,SMDPad,CuDef*
G36*
G01*
X135524997Y-95925000D02*
X137725003Y-95925000D01*
G75*
G02*
X137975000Y-96174997I0J-249997D01*
G01*
X137975000Y-97000003D01*
G75*
G02*
X137725003Y-97250000I-249997J0D01*
G01*
X135524997Y-97250000D01*
G75*
G02*
X135275000Y-97000003I0J249997D01*
G01*
X135275000Y-96174997D01*
G75*
G02*
X135524997Y-95925000I249997J0D01*
G01*
G37*
G04 #@! TD.AperFunction*
G04 #@! TA.AperFunction,SMDPad,CuDef*
G36*
G01*
X155024997Y-99050000D02*
X157225003Y-99050000D01*
G75*
G02*
X157475000Y-99299997I0J-249997D01*
G01*
X157475000Y-100125003D01*
G75*
G02*
X157225003Y-100375000I-249997J0D01*
G01*
X155024997Y-100375000D01*
G75*
G02*
X154775000Y-100125003I0J249997D01*
G01*
X154775000Y-99299997D01*
G75*
G02*
X155024997Y-99050000I249997J0D01*
G01*
G37*
G04 #@! TD.AperFunction*
G04 #@! TA.AperFunction,SMDPad,CuDef*
G36*
G01*
X155024997Y-95925000D02*
X157225003Y-95925000D01*
G75*
G02*
X157475000Y-96174997I0J-249997D01*
G01*
X157475000Y-97000003D01*
G75*
G02*
X157225003Y-97250000I-249997J0D01*
G01*
X155024997Y-97250000D01*
G75*
G02*
X154775000Y-97000003I0J249997D01*
G01*
X154775000Y-96174997D01*
G75*
G02*
X155024997Y-95925000I249997J0D01*
G01*
G37*
G04 #@! TD.AperFunction*
G04 #@! TA.AperFunction,SMDPad,CuDef*
G36*
G01*
X142024997Y-99050000D02*
X144225003Y-99050000D01*
G75*
G02*
X144475000Y-99299997I0J-249997D01*
G01*
X144475000Y-100125003D01*
G75*
G02*
X144225003Y-100375000I-249997J0D01*
G01*
X142024997Y-100375000D01*
G75*
G02*
X141775000Y-100125003I0J249997D01*
G01*
X141775000Y-99299997D01*
G75*
G02*
X142024997Y-99050000I249997J0D01*
G01*
G37*
G04 #@! TD.AperFunction*
G04 #@! TA.AperFunction,SMDPad,CuDef*
G36*
G01*
X142024997Y-95925000D02*
X144225003Y-95925000D01*
G75*
G02*
X144475000Y-96174997I0J-249997D01*
G01*
X144475000Y-97000003D01*
G75*
G02*
X144225003Y-97250000I-249997J0D01*
G01*
X142024997Y-97250000D01*
G75*
G02*
X141775000Y-97000003I0J249997D01*
G01*
X141775000Y-96174997D01*
G75*
G02*
X142024997Y-95925000I249997J0D01*
G01*
G37*
G04 #@! TD.AperFunction*
G04 #@! TA.AperFunction,SMDPad,CuDef*
G36*
G01*
X125774997Y-99050000D02*
X127975003Y-99050000D01*
G75*
G02*
X128225000Y-99299997I0J-249997D01*
G01*
X128225000Y-100125003D01*
G75*
G02*
X127975003Y-100375000I-249997J0D01*
G01*
X125774997Y-100375000D01*
G75*
G02*
X125525000Y-100125003I0J249997D01*
G01*
X125525000Y-99299997D01*
G75*
G02*
X125774997Y-99050000I249997J0D01*
G01*
G37*
G04 #@! TD.AperFunction*
G04 #@! TA.AperFunction,SMDPad,CuDef*
G36*
G01*
X125774997Y-95925000D02*
X127975003Y-95925000D01*
G75*
G02*
X128225000Y-96174997I0J-249997D01*
G01*
X128225000Y-97000003D01*
G75*
G02*
X127975003Y-97250000I-249997J0D01*
G01*
X125774997Y-97250000D01*
G75*
G02*
X125525000Y-97000003I0J249997D01*
G01*
X125525000Y-96174997D01*
G75*
G02*
X125774997Y-95925000I249997J0D01*
G01*
G37*
G04 #@! TD.AperFunction*
G04 #@! TA.AperFunction,SMDPad,CuDef*
G36*
G01*
X171387500Y-98475000D02*
X171862500Y-98475000D01*
G75*
G02*
X172100000Y-98712500I0J-237500D01*
G01*
X172100000Y-99312500D01*
G75*
G02*
X171862500Y-99550000I-237500J0D01*
G01*
X171387500Y-99550000D01*
G75*
G02*
X171150000Y-99312500I0J237500D01*
G01*
X171150000Y-98712500D01*
G75*
G02*
X171387500Y-98475000I237500J0D01*
G01*
G37*
G04 #@! TD.AperFunction*
G04 #@! TA.AperFunction,SMDPad,CuDef*
G36*
G01*
X171387500Y-96750000D02*
X171862500Y-96750000D01*
G75*
G02*
X172100000Y-96987500I0J-237500D01*
G01*
X172100000Y-97587500D01*
G75*
G02*
X171862500Y-97825000I-237500J0D01*
G01*
X171387500Y-97825000D01*
G75*
G02*
X171150000Y-97587500I0J237500D01*
G01*
X171150000Y-96987500D01*
G75*
G02*
X171387500Y-96750000I237500J0D01*
G01*
G37*
G04 #@! TD.AperFunction*
G04 #@! TA.AperFunction,SMDPad,CuDef*
G36*
G01*
X172887500Y-98475000D02*
X173362500Y-98475000D01*
G75*
G02*
X173600000Y-98712500I0J-237500D01*
G01*
X173600000Y-99312500D01*
G75*
G02*
X173362500Y-99550000I-237500J0D01*
G01*
X172887500Y-99550000D01*
G75*
G02*
X172650000Y-99312500I0J237500D01*
G01*
X172650000Y-98712500D01*
G75*
G02*
X172887500Y-98475000I237500J0D01*
G01*
G37*
G04 #@! TD.AperFunction*
G04 #@! TA.AperFunction,SMDPad,CuDef*
G36*
G01*
X172887500Y-96750000D02*
X173362500Y-96750000D01*
G75*
G02*
X173600000Y-96987500I0J-237500D01*
G01*
X173600000Y-97587500D01*
G75*
G02*
X173362500Y-97825000I-237500J0D01*
G01*
X172887500Y-97825000D01*
G75*
G02*
X172650000Y-97587500I0J237500D01*
G01*
X172650000Y-96987500D01*
G75*
G02*
X172887500Y-96750000I237500J0D01*
G01*
G37*
G04 #@! TD.AperFunction*
G04 #@! TA.AperFunction,SMDPad,CuDef*
G36*
G01*
X122637500Y-84725000D02*
X123112500Y-84725000D01*
G75*
G02*
X123350000Y-84962500I0J-237500D01*
G01*
X123350000Y-85562500D01*
G75*
G02*
X123112500Y-85800000I-237500J0D01*
G01*
X122637500Y-85800000D01*
G75*
G02*
X122400000Y-85562500I0J237500D01*
G01*
X122400000Y-84962500D01*
G75*
G02*
X122637500Y-84725000I237500J0D01*
G01*
G37*
G04 #@! TD.AperFunction*
G04 #@! TA.AperFunction,SMDPad,CuDef*
G36*
G01*
X122637500Y-83000000D02*
X123112500Y-83000000D01*
G75*
G02*
X123350000Y-83237500I0J-237500D01*
G01*
X123350000Y-83837500D01*
G75*
G02*
X123112500Y-84075000I-237500J0D01*
G01*
X122637500Y-84075000D01*
G75*
G02*
X122400000Y-83837500I0J237500D01*
G01*
X122400000Y-83237500D01*
G75*
G02*
X122637500Y-83000000I237500J0D01*
G01*
G37*
G04 #@! TD.AperFunction*
G04 #@! TA.AperFunction,SMDPad,CuDef*
G36*
G01*
X124137500Y-84725000D02*
X124612500Y-84725000D01*
G75*
G02*
X124850000Y-84962500I0J-237500D01*
G01*
X124850000Y-85562500D01*
G75*
G02*
X124612500Y-85800000I-237500J0D01*
G01*
X124137500Y-85800000D01*
G75*
G02*
X123900000Y-85562500I0J237500D01*
G01*
X123900000Y-84962500D01*
G75*
G02*
X124137500Y-84725000I237500J0D01*
G01*
G37*
G04 #@! TD.AperFunction*
G04 #@! TA.AperFunction,SMDPad,CuDef*
G36*
G01*
X124137500Y-83000000D02*
X124612500Y-83000000D01*
G75*
G02*
X124850000Y-83237500I0J-237500D01*
G01*
X124850000Y-83837500D01*
G75*
G02*
X124612500Y-84075000I-237500J0D01*
G01*
X124137500Y-84075000D01*
G75*
G02*
X123900000Y-83837500I0J237500D01*
G01*
X123900000Y-83237500D01*
G75*
G02*
X124137500Y-83000000I237500J0D01*
G01*
G37*
G04 #@! TD.AperFunction*
G04 #@! TA.AperFunction,SMDPad,CuDef*
G36*
G01*
X125774997Y-85300000D02*
X127975003Y-85300000D01*
G75*
G02*
X128225000Y-85549997I0J-249997D01*
G01*
X128225000Y-86375003D01*
G75*
G02*
X127975003Y-86625000I-249997J0D01*
G01*
X125774997Y-86625000D01*
G75*
G02*
X125525000Y-86375003I0J249997D01*
G01*
X125525000Y-85549997D01*
G75*
G02*
X125774997Y-85300000I249997J0D01*
G01*
G37*
G04 #@! TD.AperFunction*
G04 #@! TA.AperFunction,SMDPad,CuDef*
G36*
G01*
X125774997Y-82175000D02*
X127975003Y-82175000D01*
G75*
G02*
X128225000Y-82424997I0J-249997D01*
G01*
X128225000Y-83250003D01*
G75*
G02*
X127975003Y-83500000I-249997J0D01*
G01*
X125774997Y-83500000D01*
G75*
G02*
X125525000Y-83250003I0J249997D01*
G01*
X125525000Y-82424997D01*
G75*
G02*
X125774997Y-82175000I249997J0D01*
G01*
G37*
G04 #@! TD.AperFunction*
G04 #@! TA.AperFunction,SMDPad,CuDef*
G36*
G01*
X129024997Y-85300000D02*
X131225003Y-85300000D01*
G75*
G02*
X131475000Y-85549997I0J-249997D01*
G01*
X131475000Y-86375003D01*
G75*
G02*
X131225003Y-86625000I-249997J0D01*
G01*
X129024997Y-86625000D01*
G75*
G02*
X128775000Y-86375003I0J249997D01*
G01*
X128775000Y-85549997D01*
G75*
G02*
X129024997Y-85300000I249997J0D01*
G01*
G37*
G04 #@! TD.AperFunction*
G04 #@! TA.AperFunction,SMDPad,CuDef*
G36*
G01*
X129024997Y-82175000D02*
X131225003Y-82175000D01*
G75*
G02*
X131475000Y-82424997I0J-249997D01*
G01*
X131475000Y-83250003D01*
G75*
G02*
X131225003Y-83500000I-249997J0D01*
G01*
X129024997Y-83500000D01*
G75*
G02*
X128775000Y-83250003I0J249997D01*
G01*
X128775000Y-82424997D01*
G75*
G02*
X129024997Y-82175000I249997J0D01*
G01*
G37*
G04 #@! TD.AperFunction*
G04 #@! TA.AperFunction,SMDPad,CuDef*
G36*
G01*
X132274997Y-85300000D02*
X134475003Y-85300000D01*
G75*
G02*
X134725000Y-85549997I0J-249997D01*
G01*
X134725000Y-86375003D01*
G75*
G02*
X134475003Y-86625000I-249997J0D01*
G01*
X132274997Y-86625000D01*
G75*
G02*
X132025000Y-86375003I0J249997D01*
G01*
X132025000Y-85549997D01*
G75*
G02*
X132274997Y-85300000I249997J0D01*
G01*
G37*
G04 #@! TD.AperFunction*
G04 #@! TA.AperFunction,SMDPad,CuDef*
G36*
G01*
X132274997Y-82175000D02*
X134475003Y-82175000D01*
G75*
G02*
X134725000Y-82424997I0J-249997D01*
G01*
X134725000Y-83250003D01*
G75*
G02*
X134475003Y-83500000I-249997J0D01*
G01*
X132274997Y-83500000D01*
G75*
G02*
X132025000Y-83250003I0J249997D01*
G01*
X132025000Y-82424997D01*
G75*
G02*
X132274997Y-82175000I249997J0D01*
G01*
G37*
G04 #@! TD.AperFunction*
G04 #@! TA.AperFunction,SMDPad,CuDef*
G36*
G01*
X135524997Y-85300000D02*
X137725003Y-85300000D01*
G75*
G02*
X137975000Y-85549997I0J-249997D01*
G01*
X137975000Y-86375003D01*
G75*
G02*
X137725003Y-86625000I-249997J0D01*
G01*
X135524997Y-86625000D01*
G75*
G02*
X135275000Y-86375003I0J249997D01*
G01*
X135275000Y-85549997D01*
G75*
G02*
X135524997Y-85300000I249997J0D01*
G01*
G37*
G04 #@! TD.AperFunction*
G04 #@! TA.AperFunction,SMDPad,CuDef*
G36*
G01*
X135524997Y-82175000D02*
X137725003Y-82175000D01*
G75*
G02*
X137975000Y-82424997I0J-249997D01*
G01*
X137975000Y-83250003D01*
G75*
G02*
X137725003Y-83500000I-249997J0D01*
G01*
X135524997Y-83500000D01*
G75*
G02*
X135275000Y-83250003I0J249997D01*
G01*
X135275000Y-82424997D01*
G75*
G02*
X135524997Y-82175000I249997J0D01*
G01*
G37*
G04 #@! TD.AperFunction*
G04 #@! TA.AperFunction,SMDPad,CuDef*
G36*
G01*
X138774997Y-85300000D02*
X140975003Y-85300000D01*
G75*
G02*
X141225000Y-85549997I0J-249997D01*
G01*
X141225000Y-86375003D01*
G75*
G02*
X140975003Y-86625000I-249997J0D01*
G01*
X138774997Y-86625000D01*
G75*
G02*
X138525000Y-86375003I0J249997D01*
G01*
X138525000Y-85549997D01*
G75*
G02*
X138774997Y-85300000I249997J0D01*
G01*
G37*
G04 #@! TD.AperFunction*
G04 #@! TA.AperFunction,SMDPad,CuDef*
G36*
G01*
X138774997Y-82175000D02*
X140975003Y-82175000D01*
G75*
G02*
X141225000Y-82424997I0J-249997D01*
G01*
X141225000Y-83250003D01*
G75*
G02*
X140975003Y-83500000I-249997J0D01*
G01*
X138774997Y-83500000D01*
G75*
G02*
X138525000Y-83250003I0J249997D01*
G01*
X138525000Y-82424997D01*
G75*
G02*
X138774997Y-82175000I249997J0D01*
G01*
G37*
G04 #@! TD.AperFunction*
G04 #@! TA.AperFunction,SMDPad,CuDef*
G36*
G01*
X142024997Y-85300000D02*
X144225003Y-85300000D01*
G75*
G02*
X144475000Y-85549997I0J-249997D01*
G01*
X144475000Y-86375003D01*
G75*
G02*
X144225003Y-86625000I-249997J0D01*
G01*
X142024997Y-86625000D01*
G75*
G02*
X141775000Y-86375003I0J249997D01*
G01*
X141775000Y-85549997D01*
G75*
G02*
X142024997Y-85300000I249997J0D01*
G01*
G37*
G04 #@! TD.AperFunction*
G04 #@! TA.AperFunction,SMDPad,CuDef*
G36*
G01*
X142024997Y-82175000D02*
X144225003Y-82175000D01*
G75*
G02*
X144475000Y-82424997I0J-249997D01*
G01*
X144475000Y-83250003D01*
G75*
G02*
X144225003Y-83500000I-249997J0D01*
G01*
X142024997Y-83500000D01*
G75*
G02*
X141775000Y-83250003I0J249997D01*
G01*
X141775000Y-82424997D01*
G75*
G02*
X142024997Y-82175000I249997J0D01*
G01*
G37*
G04 #@! TD.AperFunction*
G04 #@! TA.AperFunction,SMDPad,CuDef*
G36*
G01*
X145274997Y-85300000D02*
X147475003Y-85300000D01*
G75*
G02*
X147725000Y-85549997I0J-249997D01*
G01*
X147725000Y-86375003D01*
G75*
G02*
X147475003Y-86625000I-249997J0D01*
G01*
X145274997Y-86625000D01*
G75*
G02*
X145025000Y-86375003I0J249997D01*
G01*
X145025000Y-85549997D01*
G75*
G02*
X145274997Y-85300000I249997J0D01*
G01*
G37*
G04 #@! TD.AperFunction*
G04 #@! TA.AperFunction,SMDPad,CuDef*
G36*
G01*
X145274997Y-82175000D02*
X147475003Y-82175000D01*
G75*
G02*
X147725000Y-82424997I0J-249997D01*
G01*
X147725000Y-83250003D01*
G75*
G02*
X147475003Y-83500000I-249997J0D01*
G01*
X145274997Y-83500000D01*
G75*
G02*
X145025000Y-83250003I0J249997D01*
G01*
X145025000Y-82424997D01*
G75*
G02*
X145274997Y-82175000I249997J0D01*
G01*
G37*
G04 #@! TD.AperFunction*
G04 #@! TA.AperFunction,SMDPad,CuDef*
G36*
G01*
X148524997Y-85300000D02*
X150725003Y-85300000D01*
G75*
G02*
X150975000Y-85549997I0J-249997D01*
G01*
X150975000Y-86375003D01*
G75*
G02*
X150725003Y-86625000I-249997J0D01*
G01*
X148524997Y-86625000D01*
G75*
G02*
X148275000Y-86375003I0J249997D01*
G01*
X148275000Y-85549997D01*
G75*
G02*
X148524997Y-85300000I249997J0D01*
G01*
G37*
G04 #@! TD.AperFunction*
G04 #@! TA.AperFunction,SMDPad,CuDef*
G36*
G01*
X148524997Y-82175000D02*
X150725003Y-82175000D01*
G75*
G02*
X150975000Y-82424997I0J-249997D01*
G01*
X150975000Y-83250003D01*
G75*
G02*
X150725003Y-83500000I-249997J0D01*
G01*
X148524997Y-83500000D01*
G75*
G02*
X148275000Y-83250003I0J249997D01*
G01*
X148275000Y-82424997D01*
G75*
G02*
X148524997Y-82175000I249997J0D01*
G01*
G37*
G04 #@! TD.AperFunction*
G04 #@! TA.AperFunction,SMDPad,CuDef*
G36*
G01*
X151774997Y-85300000D02*
X153975003Y-85300000D01*
G75*
G02*
X154225000Y-85549997I0J-249997D01*
G01*
X154225000Y-86375003D01*
G75*
G02*
X153975003Y-86625000I-249997J0D01*
G01*
X151774997Y-86625000D01*
G75*
G02*
X151525000Y-86375003I0J249997D01*
G01*
X151525000Y-85549997D01*
G75*
G02*
X151774997Y-85300000I249997J0D01*
G01*
G37*
G04 #@! TD.AperFunction*
G04 #@! TA.AperFunction,SMDPad,CuDef*
G36*
G01*
X151774997Y-82175000D02*
X153975003Y-82175000D01*
G75*
G02*
X154225000Y-82424997I0J-249997D01*
G01*
X154225000Y-83250003D01*
G75*
G02*
X153975003Y-83500000I-249997J0D01*
G01*
X151774997Y-83500000D01*
G75*
G02*
X151525000Y-83250003I0J249997D01*
G01*
X151525000Y-82424997D01*
G75*
G02*
X151774997Y-82175000I249997J0D01*
G01*
G37*
G04 #@! TD.AperFunction*
G04 #@! TA.AperFunction,SMDPad,CuDef*
G36*
G01*
X155024997Y-85300000D02*
X157225003Y-85300000D01*
G75*
G02*
X157475000Y-85549997I0J-249997D01*
G01*
X157475000Y-86375003D01*
G75*
G02*
X157225003Y-86625000I-249997J0D01*
G01*
X155024997Y-86625000D01*
G75*
G02*
X154775000Y-86375003I0J249997D01*
G01*
X154775000Y-85549997D01*
G75*
G02*
X155024997Y-85300000I249997J0D01*
G01*
G37*
G04 #@! TD.AperFunction*
G04 #@! TA.AperFunction,SMDPad,CuDef*
G36*
G01*
X155024997Y-82175000D02*
X157225003Y-82175000D01*
G75*
G02*
X157475000Y-82424997I0J-249997D01*
G01*
X157475000Y-83250003D01*
G75*
G02*
X157225003Y-83500000I-249997J0D01*
G01*
X155024997Y-83500000D01*
G75*
G02*
X154775000Y-83250003I0J249997D01*
G01*
X154775000Y-82424997D01*
G75*
G02*
X155024997Y-82175000I249997J0D01*
G01*
G37*
G04 #@! TD.AperFunction*
G04 #@! TA.AperFunction,SMDPad,CuDef*
G36*
G01*
X158274997Y-85300000D02*
X160475003Y-85300000D01*
G75*
G02*
X160725000Y-85549997I0J-249997D01*
G01*
X160725000Y-86375003D01*
G75*
G02*
X160475003Y-86625000I-249997J0D01*
G01*
X158274997Y-86625000D01*
G75*
G02*
X158025000Y-86375003I0J249997D01*
G01*
X158025000Y-85549997D01*
G75*
G02*
X158274997Y-85300000I249997J0D01*
G01*
G37*
G04 #@! TD.AperFunction*
G04 #@! TA.AperFunction,SMDPad,CuDef*
G36*
G01*
X158274997Y-82175000D02*
X160475003Y-82175000D01*
G75*
G02*
X160725000Y-82424997I0J-249997D01*
G01*
X160725000Y-83250003D01*
G75*
G02*
X160475003Y-83500000I-249997J0D01*
G01*
X158274997Y-83500000D01*
G75*
G02*
X158025000Y-83250003I0J249997D01*
G01*
X158025000Y-82424997D01*
G75*
G02*
X158274997Y-82175000I249997J0D01*
G01*
G37*
G04 #@! TD.AperFunction*
G04 #@! TA.AperFunction,SMDPad,CuDef*
G36*
G01*
X161524997Y-85300000D02*
X163725003Y-85300000D01*
G75*
G02*
X163975000Y-85549997I0J-249997D01*
G01*
X163975000Y-86375003D01*
G75*
G02*
X163725003Y-86625000I-249997J0D01*
G01*
X161524997Y-86625000D01*
G75*
G02*
X161275000Y-86375003I0J249997D01*
G01*
X161275000Y-85549997D01*
G75*
G02*
X161524997Y-85300000I249997J0D01*
G01*
G37*
G04 #@! TD.AperFunction*
G04 #@! TA.AperFunction,SMDPad,CuDef*
G36*
G01*
X161524997Y-82175000D02*
X163725003Y-82175000D01*
G75*
G02*
X163975000Y-82424997I0J-249997D01*
G01*
X163975000Y-83250003D01*
G75*
G02*
X163725003Y-83500000I-249997J0D01*
G01*
X161524997Y-83500000D01*
G75*
G02*
X161275000Y-83250003I0J249997D01*
G01*
X161275000Y-82424997D01*
G75*
G02*
X161524997Y-82175000I249997J0D01*
G01*
G37*
G04 #@! TD.AperFunction*
G04 #@! TA.AperFunction,SMDPad,CuDef*
G36*
G01*
X164774997Y-85300000D02*
X166975003Y-85300000D01*
G75*
G02*
X167225000Y-85549997I0J-249997D01*
G01*
X167225000Y-86375003D01*
G75*
G02*
X166975003Y-86625000I-249997J0D01*
G01*
X164774997Y-86625000D01*
G75*
G02*
X164525000Y-86375003I0J249997D01*
G01*
X164525000Y-85549997D01*
G75*
G02*
X164774997Y-85300000I249997J0D01*
G01*
G37*
G04 #@! TD.AperFunction*
G04 #@! TA.AperFunction,SMDPad,CuDef*
G36*
G01*
X164774997Y-82175000D02*
X166975003Y-82175000D01*
G75*
G02*
X167225000Y-82424997I0J-249997D01*
G01*
X167225000Y-83250003D01*
G75*
G02*
X166975003Y-83500000I-249997J0D01*
G01*
X164774997Y-83500000D01*
G75*
G02*
X164525000Y-83250003I0J249997D01*
G01*
X164525000Y-82424997D01*
G75*
G02*
X164774997Y-82175000I249997J0D01*
G01*
G37*
G04 #@! TD.AperFunction*
G04 #@! TA.AperFunction,SMDPad,CuDef*
G36*
G01*
X168024997Y-85300000D02*
X170225003Y-85300000D01*
G75*
G02*
X170475000Y-85549997I0J-249997D01*
G01*
X170475000Y-86375003D01*
G75*
G02*
X170225003Y-86625000I-249997J0D01*
G01*
X168024997Y-86625000D01*
G75*
G02*
X167775000Y-86375003I0J249997D01*
G01*
X167775000Y-85549997D01*
G75*
G02*
X168024997Y-85300000I249997J0D01*
G01*
G37*
G04 #@! TD.AperFunction*
G04 #@! TA.AperFunction,SMDPad,CuDef*
G36*
G01*
X168024997Y-82175000D02*
X170225003Y-82175000D01*
G75*
G02*
X170475000Y-82424997I0J-249997D01*
G01*
X170475000Y-83250003D01*
G75*
G02*
X170225003Y-83500000I-249997J0D01*
G01*
X168024997Y-83500000D01*
G75*
G02*
X167775000Y-83250003I0J249997D01*
G01*
X167775000Y-82424997D01*
G75*
G02*
X168024997Y-82175000I249997J0D01*
G01*
G37*
G04 #@! TD.AperFunction*
G04 #@! TA.AperFunction,SMDPad,CuDef*
G36*
G01*
X172887500Y-84725000D02*
X173362500Y-84725000D01*
G75*
G02*
X173600000Y-84962500I0J-237500D01*
G01*
X173600000Y-85562500D01*
G75*
G02*
X173362500Y-85800000I-237500J0D01*
G01*
X172887500Y-85800000D01*
G75*
G02*
X172650000Y-85562500I0J237500D01*
G01*
X172650000Y-84962500D01*
G75*
G02*
X172887500Y-84725000I237500J0D01*
G01*
G37*
G04 #@! TD.AperFunction*
G04 #@! TA.AperFunction,SMDPad,CuDef*
G36*
G01*
X172887500Y-83000000D02*
X173362500Y-83000000D01*
G75*
G02*
X173600000Y-83237500I0J-237500D01*
G01*
X173600000Y-83837500D01*
G75*
G02*
X173362500Y-84075000I-237500J0D01*
G01*
X172887500Y-84075000D01*
G75*
G02*
X172650000Y-83837500I0J237500D01*
G01*
X172650000Y-83237500D01*
G75*
G02*
X172887500Y-83000000I237500J0D01*
G01*
G37*
G04 #@! TD.AperFunction*
G04 #@! TA.AperFunction,SMDPad,CuDef*
G36*
G01*
X171387500Y-84725000D02*
X171862500Y-84725000D01*
G75*
G02*
X172100000Y-84962500I0J-237500D01*
G01*
X172100000Y-85562500D01*
G75*
G02*
X171862500Y-85800000I-237500J0D01*
G01*
X171387500Y-85800000D01*
G75*
G02*
X171150000Y-85562500I0J237500D01*
G01*
X171150000Y-84962500D01*
G75*
G02*
X171387500Y-84725000I237500J0D01*
G01*
G37*
G04 #@! TD.AperFunction*
G04 #@! TA.AperFunction,SMDPad,CuDef*
G36*
G01*
X171387500Y-83000000D02*
X171862500Y-83000000D01*
G75*
G02*
X172100000Y-83237500I0J-237500D01*
G01*
X172100000Y-83837500D01*
G75*
G02*
X171862500Y-84075000I-237500J0D01*
G01*
X171387500Y-84075000D01*
G75*
G02*
X171150000Y-83837500I0J237500D01*
G01*
X171150000Y-83237500D01*
G75*
G02*
X171387500Y-83000000I237500J0D01*
G01*
G37*
G04 #@! TD.AperFunction*
D10*
X111500000Y-81500000D03*
X112500000Y-81500000D03*
X113500000Y-81500000D03*
X114500000Y-81500000D03*
X115500000Y-81500000D03*
X116500000Y-81500000D03*
X117500000Y-81500000D03*
X118500000Y-81500000D03*
X119500000Y-81500000D03*
X120500000Y-81500000D03*
X112000000Y-82500000D03*
X113000000Y-82500000D03*
X114000000Y-82500000D03*
X115000000Y-82500000D03*
X116000000Y-82500000D03*
X121000000Y-82500000D03*
X111500000Y-83500000D03*
X112500000Y-83500000D03*
X113500000Y-83500000D03*
X114500000Y-83500000D03*
X115500000Y-83500000D03*
X112000000Y-84500000D03*
X113000000Y-84500000D03*
X114000000Y-84500000D03*
X115000000Y-84500000D03*
X116000000Y-84500000D03*
X121000000Y-84500000D03*
X111500000Y-85500000D03*
X112500000Y-85500000D03*
X113500000Y-85500000D03*
X114500000Y-85500000D03*
X115500000Y-85500000D03*
X112000000Y-86500000D03*
X113000000Y-86500000D03*
X114000000Y-86500000D03*
X115000000Y-86500000D03*
X116000000Y-86500000D03*
X117000000Y-86500000D03*
X118000000Y-86500000D03*
X119000000Y-86500000D03*
X120000000Y-86500000D03*
X121000000Y-86500000D03*
X111500000Y-87500000D03*
X112500000Y-87500000D03*
X113500000Y-87500000D03*
X114500000Y-87500000D03*
X115500000Y-87500000D03*
X116500000Y-87500000D03*
X117500000Y-87500000D03*
X118500000Y-87500000D03*
X119500000Y-87500000D03*
X120500000Y-87500000D03*
X112000000Y-88500000D03*
X113000000Y-88500000D03*
X114000000Y-88500000D03*
X115000000Y-88500000D03*
X116000000Y-88500000D03*
X117000000Y-88500000D03*
X118000000Y-88500000D03*
X119000000Y-88500000D03*
X120000000Y-88500000D03*
X121000000Y-88500000D03*
X111500000Y-89500000D03*
X112500000Y-89500000D03*
X113500000Y-89500000D03*
X114500000Y-89500000D03*
X115500000Y-89500000D03*
X116500000Y-89500000D03*
X117500000Y-89500000D03*
X118500000Y-89500000D03*
X119500000Y-89500000D03*
X120500000Y-89500000D03*
X112000000Y-90500000D03*
X113000000Y-90500000D03*
X114000000Y-90500000D03*
X115000000Y-90500000D03*
X116000000Y-90500000D03*
X117000000Y-90500000D03*
X118000000Y-90500000D03*
X119000000Y-90500000D03*
X120000000Y-90500000D03*
X121000000Y-90500000D03*
X111500000Y-91500000D03*
X112500000Y-91500000D03*
X113500000Y-91500000D03*
X114500000Y-91500000D03*
X115500000Y-91500000D03*
X116500000Y-91500000D03*
X117500000Y-91500000D03*
X118500000Y-91500000D03*
X119500000Y-91500000D03*
X120500000Y-91500000D03*
X112000000Y-92500000D03*
X113000000Y-92500000D03*
X114000000Y-92500000D03*
X115000000Y-92500000D03*
X116000000Y-92500000D03*
X117000000Y-92500000D03*
X118000000Y-92500000D03*
X119000000Y-92500000D03*
X120000000Y-92500000D03*
X121000000Y-92500000D03*
X111500000Y-93500000D03*
X112500000Y-93500000D03*
X113500000Y-93500000D03*
X114500000Y-93500000D03*
X115500000Y-93500000D03*
X112000000Y-94500000D03*
X113000000Y-94500000D03*
X114000000Y-94500000D03*
X115000000Y-94500000D03*
X116000000Y-94500000D03*
X121000000Y-94500000D03*
X111500000Y-95500000D03*
X112500000Y-95500000D03*
X113500000Y-95500000D03*
X114500000Y-95500000D03*
X115500000Y-95500000D03*
X112000000Y-96500000D03*
X113000000Y-96500000D03*
X114000000Y-96500000D03*
X115000000Y-96500000D03*
X116000000Y-96500000D03*
X121000000Y-96500000D03*
X111500000Y-97500000D03*
X112500000Y-97500000D03*
X113500000Y-97500000D03*
X114500000Y-97500000D03*
X115500000Y-97500000D03*
X112000000Y-98500000D03*
X113000000Y-98500000D03*
X114000000Y-98500000D03*
X115000000Y-98500000D03*
X116000000Y-98500000D03*
X117000000Y-98500000D03*
X118000000Y-98500000D03*
X119000000Y-98500000D03*
X120000000Y-98500000D03*
X121000000Y-98500000D03*
X111500000Y-99500000D03*
X112500000Y-99500000D03*
X113500000Y-99500000D03*
X114500000Y-99500000D03*
X115500000Y-99500000D03*
X116500000Y-99500000D03*
X117500000Y-99500000D03*
X118500000Y-99500000D03*
X119500000Y-99500000D03*
X120500000Y-99500000D03*
X112000000Y-100500000D03*
X113000000Y-100500000D03*
X114000000Y-100500000D03*
X115000000Y-100500000D03*
X116000000Y-100500000D03*
X117000000Y-100500000D03*
X118000000Y-100500000D03*
X119000000Y-100500000D03*
X120000000Y-100500000D03*
X121000000Y-100500000D03*
X111500000Y-101500000D03*
X112500000Y-101500000D03*
X113500000Y-101500000D03*
X114500000Y-101500000D03*
X115500000Y-101500000D03*
X116500000Y-101500000D03*
X117500000Y-101500000D03*
X118500000Y-101500000D03*
X119500000Y-101500000D03*
X120500000Y-101500000D03*
X112000000Y-102500000D03*
X113000000Y-102500000D03*
X114000000Y-102500000D03*
X115000000Y-102500000D03*
X116000000Y-102500000D03*
X117000000Y-102500000D03*
X118000000Y-102500000D03*
X119000000Y-102500000D03*
X120000000Y-102500000D03*
X121000000Y-102500000D03*
X111500000Y-103500000D03*
X112500000Y-103500000D03*
X113500000Y-103500000D03*
X114500000Y-103500000D03*
X115500000Y-103500000D03*
X116500000Y-103500000D03*
X117500000Y-103500000D03*
X118500000Y-103500000D03*
X119500000Y-103500000D03*
X120500000Y-103500000D03*
X112000000Y-104500000D03*
X113000000Y-104500000D03*
X114000000Y-104500000D03*
X115000000Y-104500000D03*
X116000000Y-104500000D03*
X117000000Y-104500000D03*
X118000000Y-104500000D03*
X119000000Y-104500000D03*
X120000000Y-104500000D03*
X121000000Y-104500000D03*
X111500000Y-105500000D03*
X112500000Y-105500000D03*
X113500000Y-105500000D03*
X114500000Y-105500000D03*
X115500000Y-105500000D03*
X112000000Y-106500000D03*
X113000000Y-106500000D03*
X114000000Y-106500000D03*
X115000000Y-106500000D03*
X116000000Y-106500000D03*
X121000000Y-106500000D03*
X111500000Y-107500000D03*
X112500000Y-107500000D03*
X113500000Y-107500000D03*
X114500000Y-107500000D03*
X115500000Y-107500000D03*
X112000000Y-108500000D03*
X113000000Y-108500000D03*
X114000000Y-108500000D03*
X115000000Y-108500000D03*
X116000000Y-108500000D03*
X121000000Y-108500000D03*
X111500000Y-109500000D03*
X112500000Y-109500000D03*
X113500000Y-109500000D03*
X114500000Y-109500000D03*
X115500000Y-109500000D03*
X112000000Y-110500000D03*
X113000000Y-110500000D03*
X114000000Y-110500000D03*
X115000000Y-110500000D03*
X116000000Y-110500000D03*
X117000000Y-110500000D03*
X118000000Y-110500000D03*
X119000000Y-110500000D03*
X120000000Y-110500000D03*
X121000000Y-110500000D03*
X111500000Y-111500000D03*
X112500000Y-111500000D03*
X113500000Y-111500000D03*
X114500000Y-111500000D03*
X115500000Y-111500000D03*
X116500000Y-111500000D03*
X117500000Y-111500000D03*
X118500000Y-111500000D03*
X119500000Y-111500000D03*
X120500000Y-111500000D03*
X112000000Y-112500000D03*
X113000000Y-112500000D03*
X114000000Y-112500000D03*
X115000000Y-112500000D03*
X116000000Y-112500000D03*
X117000000Y-112500000D03*
X118000000Y-112500000D03*
X119000000Y-112500000D03*
X120000000Y-112500000D03*
X121000000Y-112500000D03*
X111500000Y-113500000D03*
X112500000Y-113500000D03*
X113500000Y-113500000D03*
X114500000Y-113500000D03*
X115500000Y-113500000D03*
X116500000Y-113500000D03*
X117500000Y-113500000D03*
X118500000Y-113500000D03*
X119500000Y-113500000D03*
X120500000Y-113500000D03*
X112000000Y-114500000D03*
X113000000Y-114500000D03*
X114000000Y-114500000D03*
X115000000Y-114500000D03*
X116000000Y-114500000D03*
X117000000Y-114500000D03*
X118000000Y-114500000D03*
X119000000Y-114500000D03*
X120000000Y-114500000D03*
X121000000Y-114500000D03*
X111500000Y-115500000D03*
X112500000Y-115500000D03*
X113500000Y-115500000D03*
X114500000Y-115500000D03*
X115500000Y-115500000D03*
X116500000Y-115500000D03*
X117500000Y-115500000D03*
X118500000Y-115500000D03*
X119500000Y-115500000D03*
X120500000Y-115500000D03*
X112000000Y-116500000D03*
X113000000Y-116500000D03*
X114000000Y-116500000D03*
X115000000Y-116500000D03*
X116000000Y-116500000D03*
X117000000Y-116500000D03*
X118000000Y-116500000D03*
X119000000Y-116500000D03*
X120000000Y-116500000D03*
X121000000Y-116500000D03*
X111500000Y-117500000D03*
X112500000Y-117500000D03*
X113500000Y-117500000D03*
X114500000Y-117500000D03*
X115500000Y-117500000D03*
X112000000Y-118500000D03*
X113000000Y-118500000D03*
X114000000Y-118500000D03*
X115000000Y-118500000D03*
X116000000Y-118500000D03*
X121000000Y-118500000D03*
X111500000Y-119500000D03*
X112500000Y-119500000D03*
X113500000Y-119500000D03*
X114500000Y-119500000D03*
X115500000Y-119500000D03*
X112000000Y-120500000D03*
X113000000Y-120500000D03*
X114000000Y-120500000D03*
X115000000Y-120500000D03*
X116000000Y-120500000D03*
X121000000Y-120500000D03*
X111500000Y-121500000D03*
X112500000Y-121500000D03*
X113500000Y-121500000D03*
X114500000Y-121500000D03*
X115500000Y-121500000D03*
X116500000Y-121500000D03*
X117500000Y-121500000D03*
X118500000Y-121500000D03*
X119500000Y-121500000D03*
X120500000Y-121500000D03*
X121800000Y-87000000D03*
X122800000Y-87000000D03*
X123800000Y-87000000D03*
X124800000Y-87000000D03*
X125800000Y-87000000D03*
X126800000Y-87000000D03*
X127800000Y-87000000D03*
X128800000Y-87000000D03*
X129800000Y-87000000D03*
X130800000Y-87000000D03*
X131800000Y-87000000D03*
X132800000Y-87000000D03*
X133800000Y-87000000D03*
X134800000Y-87000000D03*
X135800000Y-87000000D03*
X136800000Y-87000000D03*
X137800000Y-87000000D03*
X138800000Y-87000000D03*
X139800000Y-87000000D03*
X140800000Y-87000000D03*
X141800000Y-87000000D03*
X142800000Y-87000000D03*
X143800000Y-87000000D03*
X144800000Y-87000000D03*
X145800000Y-87000000D03*
X146800000Y-87000000D03*
X147800000Y-87000000D03*
X148800000Y-87000000D03*
X149800000Y-87000000D03*
X150800000Y-87000000D03*
X151800000Y-87000000D03*
X152800000Y-87000000D03*
X153800000Y-87000000D03*
X154800000Y-87000000D03*
X155800000Y-87000000D03*
X156800000Y-87000000D03*
X157800000Y-87000000D03*
X158800000Y-87000000D03*
X159800000Y-87000000D03*
X160800000Y-87000000D03*
X161800000Y-87000000D03*
X162800000Y-87000000D03*
X163800000Y-87000000D03*
X164800000Y-87000000D03*
X165800000Y-87000000D03*
X166800000Y-87000000D03*
X167800000Y-87000000D03*
X168800000Y-87000000D03*
X121800000Y-93800000D03*
X122800000Y-93800000D03*
X123800000Y-93800000D03*
X124800000Y-93800000D03*
X125800000Y-93800000D03*
X126800000Y-93800000D03*
X127800000Y-93800000D03*
X128800000Y-93800000D03*
X129800000Y-93800000D03*
X130800000Y-93800000D03*
X131800000Y-93800000D03*
X132800000Y-93800000D03*
X133800000Y-93800000D03*
X134800000Y-93800000D03*
X135800000Y-93800000D03*
X136800000Y-93800000D03*
X137800000Y-93800000D03*
X138800000Y-93800000D03*
X139800000Y-93800000D03*
X140800000Y-93800000D03*
X141800000Y-93800000D03*
X142800000Y-93800000D03*
X143800000Y-93800000D03*
X144800000Y-93800000D03*
X145800000Y-93800000D03*
X146800000Y-93800000D03*
X147800000Y-93800000D03*
X148800000Y-93800000D03*
X149800000Y-93800000D03*
X150800000Y-93800000D03*
X151800000Y-93800000D03*
X152800000Y-93800000D03*
X153800000Y-93800000D03*
X154800000Y-93800000D03*
X155800000Y-93800000D03*
X156800000Y-93800000D03*
X157800000Y-93800000D03*
X158800000Y-93800000D03*
X159800000Y-93800000D03*
X160800000Y-93800000D03*
X161800000Y-93800000D03*
X162800000Y-93800000D03*
X163800000Y-93800000D03*
X164800000Y-93800000D03*
X165800000Y-93800000D03*
X166800000Y-93800000D03*
X167800000Y-93800000D03*
X168800000Y-93800000D03*
X121900000Y-100800000D03*
X122900000Y-100800000D03*
X123900000Y-100800000D03*
X124900000Y-100800000D03*
X125900000Y-100800000D03*
X126900000Y-100800000D03*
X127900000Y-100800000D03*
X128900000Y-100800000D03*
X129900000Y-100800000D03*
X130900000Y-100800000D03*
X131900000Y-100800000D03*
X132900000Y-100800000D03*
X133900000Y-100800000D03*
X134900000Y-100800000D03*
X135900000Y-100800000D03*
X136900000Y-100800000D03*
X137900000Y-100800000D03*
X138900000Y-100800000D03*
X139900000Y-100800000D03*
X140900000Y-100800000D03*
X141900000Y-100800000D03*
X142900000Y-100800000D03*
X143900000Y-100800000D03*
X144900000Y-100800000D03*
X145900000Y-100800000D03*
X146900000Y-100800000D03*
X147900000Y-100800000D03*
X148900000Y-100800000D03*
X149900000Y-100800000D03*
X150900000Y-100800000D03*
X151900000Y-100800000D03*
X152900000Y-100800000D03*
X153900000Y-100800000D03*
X154900000Y-100800000D03*
X155900000Y-100800000D03*
X156900000Y-100800000D03*
X157900000Y-100800000D03*
X158900000Y-100800000D03*
X159900000Y-100800000D03*
X160900000Y-100800000D03*
X161900000Y-100800000D03*
X162900000Y-100800000D03*
X163900000Y-100800000D03*
X164900000Y-100800000D03*
X165900000Y-100800000D03*
X166900000Y-100800000D03*
X167900000Y-100800000D03*
X168900000Y-100800000D03*
X121900000Y-107900000D03*
X122900000Y-107900000D03*
X123900000Y-107900000D03*
X124900000Y-107900000D03*
X125900000Y-107900000D03*
X126900000Y-107900000D03*
X127900000Y-107900000D03*
X128900000Y-107900000D03*
X129900000Y-107900000D03*
X130900000Y-107900000D03*
X131900000Y-107900000D03*
X132900000Y-107900000D03*
X133900000Y-107900000D03*
X134900000Y-107900000D03*
X135900000Y-107900000D03*
X136900000Y-107900000D03*
X137900000Y-107900000D03*
X138900000Y-107900000D03*
X139900000Y-107900000D03*
X140900000Y-107900000D03*
X141900000Y-107900000D03*
X142900000Y-107900000D03*
X143900000Y-107900000D03*
X144900000Y-107900000D03*
X145900000Y-107900000D03*
X146900000Y-107900000D03*
X147900000Y-107900000D03*
X148900000Y-107900000D03*
X149900000Y-107900000D03*
X150900000Y-107900000D03*
X151900000Y-107900000D03*
X152900000Y-107900000D03*
X153900000Y-107900000D03*
X154900000Y-107900000D03*
X155900000Y-107900000D03*
X156900000Y-107900000D03*
X157900000Y-107900000D03*
X158900000Y-107900000D03*
X159900000Y-107900000D03*
X160900000Y-107900000D03*
X161900000Y-107900000D03*
X162900000Y-107900000D03*
X163900000Y-107900000D03*
X164900000Y-107900000D03*
X165900000Y-107900000D03*
X166900000Y-107900000D03*
X167900000Y-107900000D03*
X168900000Y-107900000D03*
X121900000Y-114600000D03*
X122900000Y-114600000D03*
X123900000Y-114600000D03*
X124900000Y-114600000D03*
X125900000Y-114600000D03*
X126900000Y-114600000D03*
X127900000Y-114600000D03*
X128900000Y-114600000D03*
X129900000Y-114600000D03*
X130900000Y-114600000D03*
X131900000Y-114600000D03*
X132900000Y-114600000D03*
X133900000Y-114600000D03*
X134900000Y-114600000D03*
X135900000Y-114600000D03*
X136900000Y-114600000D03*
X137900000Y-114600000D03*
X138900000Y-114600000D03*
X139900000Y-114600000D03*
X140900000Y-114600000D03*
X141900000Y-114600000D03*
X142900000Y-114600000D03*
X143900000Y-114600000D03*
X144900000Y-114600000D03*
X145900000Y-114600000D03*
X146900000Y-114600000D03*
X147900000Y-114600000D03*
X148900000Y-114600000D03*
X149900000Y-114600000D03*
X150900000Y-114600000D03*
X151900000Y-114600000D03*
X152900000Y-114600000D03*
X153900000Y-114600000D03*
X154900000Y-114600000D03*
X155900000Y-114600000D03*
X156900000Y-114600000D03*
X157900000Y-114600000D03*
X158900000Y-114600000D03*
X159900000Y-114600000D03*
X160900000Y-114600000D03*
X161900000Y-114600000D03*
X162900000Y-114600000D03*
X163900000Y-114600000D03*
X164900000Y-114600000D03*
X165900000Y-114600000D03*
X166900000Y-114600000D03*
X167900000Y-114600000D03*
X168900000Y-114600000D03*
X121900000Y-121400000D03*
X122900000Y-121400000D03*
X123900000Y-121400000D03*
X124900000Y-121400000D03*
X125900000Y-121400000D03*
X126900000Y-121400000D03*
X127900000Y-121400000D03*
X128900000Y-121400000D03*
X129900000Y-121400000D03*
X130900000Y-121400000D03*
X131900000Y-121400000D03*
X132900000Y-121400000D03*
X133900000Y-121400000D03*
X134900000Y-121400000D03*
X135900000Y-121400000D03*
X136900000Y-121400000D03*
X137900000Y-121400000D03*
X138900000Y-121400000D03*
X139900000Y-121400000D03*
X140900000Y-121400000D03*
X141900000Y-121400000D03*
X142900000Y-121400000D03*
X143900000Y-121400000D03*
X144900000Y-121400000D03*
X145900000Y-121400000D03*
X146900000Y-121400000D03*
X147900000Y-121400000D03*
X148900000Y-121400000D03*
X149900000Y-121400000D03*
X150900000Y-121400000D03*
X151900000Y-121400000D03*
X152900000Y-121400000D03*
X153900000Y-121400000D03*
X154900000Y-121400000D03*
X155900000Y-121400000D03*
X156900000Y-121400000D03*
X157900000Y-121400000D03*
X158900000Y-121400000D03*
X159900000Y-121400000D03*
X160900000Y-121400000D03*
X161900000Y-121400000D03*
X162900000Y-121400000D03*
X163900000Y-121400000D03*
X164900000Y-121400000D03*
X165900000Y-121400000D03*
X166900000Y-121400000D03*
X167900000Y-121400000D03*
X168900000Y-121400000D03*
X184500000Y-81500000D03*
X183500000Y-81500000D03*
X182500000Y-81500000D03*
X181500000Y-81500000D03*
X180500000Y-81500000D03*
X179500000Y-81500000D03*
X178500000Y-81500000D03*
X177500000Y-81500000D03*
X176500000Y-81500000D03*
X175500000Y-81500000D03*
X184000000Y-82500000D03*
X183000000Y-82500000D03*
X182000000Y-82500000D03*
X181000000Y-82500000D03*
X175000000Y-82500000D03*
X184500000Y-83500000D03*
X183500000Y-83500000D03*
X182500000Y-83500000D03*
X181500000Y-83500000D03*
X180500000Y-83500000D03*
X184000000Y-84500000D03*
X183000000Y-84500000D03*
X182000000Y-84500000D03*
X181000000Y-84500000D03*
X175000000Y-84500000D03*
X184500000Y-85500000D03*
X183500000Y-85500000D03*
X182500000Y-85500000D03*
X181500000Y-85500000D03*
X180500000Y-85500000D03*
X184000000Y-86500000D03*
X183000000Y-86500000D03*
X182000000Y-86500000D03*
X181000000Y-86500000D03*
X180000000Y-86500000D03*
X179000000Y-86500000D03*
X178000000Y-86500000D03*
X177000000Y-86500000D03*
X176000000Y-86500000D03*
X175000000Y-86500000D03*
X184500000Y-87500000D03*
X183500000Y-87500000D03*
X182500000Y-87500000D03*
X181500000Y-87500000D03*
X180500000Y-87500000D03*
X179500000Y-87500000D03*
X178500000Y-87500000D03*
X177500000Y-87500000D03*
X176500000Y-87500000D03*
X175500000Y-87500000D03*
X184000000Y-88500000D03*
X183000000Y-88500000D03*
X182000000Y-88500000D03*
X181000000Y-88500000D03*
X180000000Y-88500000D03*
X179000000Y-88500000D03*
X178000000Y-88500000D03*
X177000000Y-88500000D03*
X176000000Y-88500000D03*
X175000000Y-88500000D03*
X184500000Y-89500000D03*
X183500000Y-89500000D03*
X182500000Y-89500000D03*
X181500000Y-89500000D03*
X180500000Y-89500000D03*
X179500000Y-89500000D03*
X178500000Y-89500000D03*
X177500000Y-89500000D03*
X176500000Y-89500000D03*
X175500000Y-89500000D03*
X184000000Y-90500000D03*
X183000000Y-90500000D03*
X182000000Y-90500000D03*
X181000000Y-90500000D03*
X180000000Y-90500000D03*
X179000000Y-90500000D03*
X178000000Y-90500000D03*
X177000000Y-90500000D03*
X176000000Y-90500000D03*
X175000000Y-90500000D03*
X184500000Y-91500000D03*
X183500000Y-91500000D03*
X182500000Y-91500000D03*
X181500000Y-91500000D03*
X180500000Y-91500000D03*
X179500000Y-91500000D03*
X178500000Y-91500000D03*
X177500000Y-91500000D03*
X176500000Y-91500000D03*
X175500000Y-91500000D03*
X184000000Y-92500000D03*
X183000000Y-92500000D03*
X182000000Y-92500000D03*
X181000000Y-92500000D03*
X180000000Y-92500000D03*
X179000000Y-92500000D03*
X178000000Y-92500000D03*
X177000000Y-92500000D03*
X176000000Y-92500000D03*
X175000000Y-92500000D03*
X184500000Y-93500000D03*
X183500000Y-93500000D03*
X182500000Y-93500000D03*
X181500000Y-93500000D03*
X180500000Y-93500000D03*
X184000000Y-94500000D03*
X183000000Y-94500000D03*
X182000000Y-94500000D03*
X181000000Y-94500000D03*
X180000000Y-94500000D03*
X175000000Y-94500000D03*
X184500000Y-95500000D03*
X183500000Y-95500000D03*
X182500000Y-95500000D03*
X181500000Y-95500000D03*
X180500000Y-95500000D03*
X184000000Y-96500000D03*
X183000000Y-96500000D03*
X182000000Y-96500000D03*
X181000000Y-96500000D03*
X180000000Y-96500000D03*
X175000000Y-96500000D03*
X184500000Y-97500000D03*
X183500000Y-97500000D03*
X182500000Y-97500000D03*
X181500000Y-97500000D03*
X180500000Y-97500000D03*
X184000000Y-98500000D03*
X183000000Y-98500000D03*
X182000000Y-98500000D03*
X181000000Y-98500000D03*
X180000000Y-98500000D03*
X179000000Y-98500000D03*
X178000000Y-98500000D03*
X177000000Y-98500000D03*
X176000000Y-98500000D03*
X175000000Y-98500000D03*
X184500000Y-99500000D03*
X183500000Y-99500000D03*
X182500000Y-99500000D03*
X181500000Y-99500000D03*
X180500000Y-99500000D03*
X179500000Y-99500000D03*
X178500000Y-99500000D03*
X177500000Y-99500000D03*
X176500000Y-99500000D03*
X175500000Y-99500000D03*
X184000000Y-100500000D03*
X183000000Y-100500000D03*
X182000000Y-100500000D03*
X181000000Y-100500000D03*
X180000000Y-100500000D03*
X179000000Y-100500000D03*
X178000000Y-100500000D03*
X177000000Y-100500000D03*
X176000000Y-100500000D03*
X175000000Y-100500000D03*
X184500000Y-101500000D03*
X183500000Y-101500000D03*
X182500000Y-101500000D03*
X181500000Y-101500000D03*
X180500000Y-101500000D03*
X179500000Y-101500000D03*
X178500000Y-101500000D03*
X177500000Y-101500000D03*
X176500000Y-101500000D03*
X175500000Y-101500000D03*
X184000000Y-102500000D03*
X183000000Y-102500000D03*
X182000000Y-102500000D03*
X181000000Y-102500000D03*
X180000000Y-102500000D03*
X179000000Y-102500000D03*
X178000000Y-102500000D03*
X177000000Y-102500000D03*
X176000000Y-102500000D03*
X175000000Y-102500000D03*
X184500000Y-103500000D03*
X183500000Y-103500000D03*
X182500000Y-103500000D03*
X181500000Y-103500000D03*
X180500000Y-103500000D03*
X179500000Y-103500000D03*
X178500000Y-103500000D03*
X177500000Y-103500000D03*
X176500000Y-103500000D03*
X175500000Y-103500000D03*
X184000000Y-104500000D03*
X183000000Y-104500000D03*
X182000000Y-104500000D03*
X181000000Y-104500000D03*
X180000000Y-104500000D03*
X179000000Y-104500000D03*
X178000000Y-104500000D03*
X177000000Y-104500000D03*
X176000000Y-104500000D03*
X175000000Y-104500000D03*
X184500000Y-105500000D03*
X183500000Y-105500000D03*
X182500000Y-105500000D03*
X181500000Y-105500000D03*
X180500000Y-105500000D03*
X179500000Y-105500000D03*
X184000000Y-106500000D03*
X183000000Y-106500000D03*
X182000000Y-106500000D03*
X181000000Y-106500000D03*
X180000000Y-106500000D03*
X175000000Y-106500000D03*
X184500000Y-107500000D03*
X183500000Y-107500000D03*
X182500000Y-107500000D03*
X181500000Y-107500000D03*
X180500000Y-107500000D03*
X184000000Y-108500000D03*
X183000000Y-108500000D03*
X182000000Y-108500000D03*
X181000000Y-108500000D03*
X180000000Y-108500000D03*
X175000000Y-108500000D03*
X184500000Y-109500000D03*
X183500000Y-109500000D03*
X182500000Y-109500000D03*
X181500000Y-109500000D03*
X180500000Y-109500000D03*
X179500000Y-109500000D03*
X184000000Y-110500000D03*
X183000000Y-110500000D03*
X182000000Y-110500000D03*
X181000000Y-110500000D03*
X180000000Y-110500000D03*
X179000000Y-110500000D03*
X178000000Y-110500000D03*
X177000000Y-110500000D03*
X176000000Y-110500000D03*
X175000000Y-110500000D03*
X184500000Y-111500000D03*
X183500000Y-111500000D03*
X182500000Y-111500000D03*
X181500000Y-111500000D03*
X180500000Y-111500000D03*
X179500000Y-111500000D03*
X178500000Y-111500000D03*
X177500000Y-111500000D03*
X176500000Y-111500000D03*
X175500000Y-111500000D03*
X184000000Y-112500000D03*
X183000000Y-112500000D03*
X182000000Y-112500000D03*
X181000000Y-112500000D03*
X180000000Y-112500000D03*
X179000000Y-112500000D03*
X178000000Y-112500000D03*
X177000000Y-112500000D03*
X176000000Y-112500000D03*
X175000000Y-112500000D03*
X184500000Y-113500000D03*
X183500000Y-113500000D03*
X182500000Y-113500000D03*
X181500000Y-113500000D03*
X180500000Y-113500000D03*
X179500000Y-113500000D03*
X178500000Y-113500000D03*
X177500000Y-113500000D03*
X176500000Y-113500000D03*
X175500000Y-113500000D03*
X184000000Y-114500000D03*
X183000000Y-114500000D03*
X182000000Y-114500000D03*
X181000000Y-114500000D03*
X180000000Y-114500000D03*
X179000000Y-114500000D03*
X178000000Y-114500000D03*
X177000000Y-114500000D03*
X176000000Y-114500000D03*
X175000000Y-114500000D03*
X184500000Y-115500000D03*
X183500000Y-115500000D03*
X182500000Y-115500000D03*
X181500000Y-115500000D03*
X180500000Y-115500000D03*
X179500000Y-115500000D03*
X178500000Y-115500000D03*
X177500000Y-115500000D03*
X176500000Y-115500000D03*
X175500000Y-115500000D03*
X184000000Y-116500000D03*
X183000000Y-116500000D03*
X182000000Y-116500000D03*
X181000000Y-116500000D03*
X180000000Y-116500000D03*
X179000000Y-116500000D03*
X178000000Y-116500000D03*
X177000000Y-116500000D03*
X176000000Y-116500000D03*
X175000000Y-116500000D03*
X184500000Y-117500000D03*
X183500000Y-117500000D03*
X182500000Y-117500000D03*
X181500000Y-117500000D03*
X180500000Y-117500000D03*
X184000000Y-118500000D03*
X183000000Y-118500000D03*
X182000000Y-118500000D03*
X181000000Y-118500000D03*
X175000000Y-118500000D03*
X184500000Y-119500000D03*
X183500000Y-119500000D03*
X182500000Y-119500000D03*
X181500000Y-119500000D03*
X180500000Y-119500000D03*
X184000000Y-120500000D03*
X183000000Y-120500000D03*
X182000000Y-120500000D03*
X181000000Y-120500000D03*
X180000000Y-120500000D03*
X175000000Y-120500000D03*
X184500000Y-121500000D03*
X183500000Y-121500000D03*
X182500000Y-121500000D03*
X181500000Y-121500000D03*
X180500000Y-121500000D03*
X179500000Y-121500000D03*
X178500000Y-121500000D03*
X177500000Y-121500000D03*
X176500000Y-121500000D03*
X175500000Y-121500000D03*
X180000000Y-118500000D03*
X174500000Y-81500000D03*
X173500000Y-81500000D03*
X172500000Y-81500000D03*
X171500000Y-81500000D03*
X170500000Y-81500000D03*
X169500000Y-81500000D03*
X168500000Y-81500000D03*
X167500000Y-81500000D03*
X166500000Y-81500000D03*
X165500000Y-81500000D03*
X164500000Y-81500000D03*
X163500000Y-81500000D03*
X162500000Y-81500000D03*
X161500000Y-81500000D03*
X160500000Y-81500000D03*
X159500000Y-81500000D03*
X158500000Y-81500000D03*
X157500000Y-81500000D03*
X156500000Y-81500000D03*
X155500000Y-81500000D03*
X154500000Y-81500000D03*
X153500000Y-81500000D03*
X152500000Y-81500000D03*
X151500000Y-81500000D03*
X150500000Y-81500000D03*
X149500000Y-81500000D03*
X148500000Y-81500000D03*
X147500000Y-81500000D03*
X146500000Y-81500000D03*
X145500000Y-81500000D03*
X144500000Y-81500000D03*
X143500000Y-81500000D03*
X142500000Y-81500000D03*
X141500000Y-81500000D03*
X140500000Y-81500000D03*
X139500000Y-81500000D03*
X138500000Y-81500000D03*
X137500000Y-81500000D03*
X136500000Y-81500000D03*
X135500000Y-81500000D03*
X134500000Y-81500000D03*
X133500000Y-81500000D03*
X132500000Y-81500000D03*
X131500000Y-81500000D03*
X130500000Y-81500000D03*
X129500000Y-81500000D03*
X128500000Y-81500000D03*
X127500000Y-81500000D03*
X174000000Y-88500000D03*
X173000000Y-88500000D03*
X172000000Y-88500000D03*
X171000000Y-88500000D03*
X170000000Y-88500000D03*
X169000000Y-88500000D03*
X168000000Y-88500000D03*
X167000000Y-88500000D03*
X166000000Y-88500000D03*
X165000000Y-88500000D03*
X164000000Y-88500000D03*
X163000000Y-88500000D03*
X162000000Y-88500000D03*
X161000000Y-88500000D03*
X160000000Y-88500000D03*
X159000000Y-88500000D03*
X158000000Y-88500000D03*
X157000000Y-88500000D03*
X156000000Y-88500000D03*
X155000000Y-88500000D03*
X154000000Y-88500000D03*
X153000000Y-88500000D03*
X152000000Y-88500000D03*
X151000000Y-88500000D03*
X150000000Y-88500000D03*
X149000000Y-88500000D03*
X148000000Y-88500000D03*
X147000000Y-88500000D03*
X146000000Y-88500000D03*
X145000000Y-88500000D03*
X144000000Y-88500000D03*
X143000000Y-88500000D03*
X142000000Y-88500000D03*
X141000000Y-88500000D03*
X140000000Y-88500000D03*
X139000000Y-88500000D03*
X138000000Y-88500000D03*
X137000000Y-88500000D03*
X136000000Y-88500000D03*
X135000000Y-88500000D03*
X134000000Y-88500000D03*
X133000000Y-88500000D03*
X132000000Y-88500000D03*
X131000000Y-88500000D03*
X130000000Y-88500000D03*
X129000000Y-88500000D03*
X128000000Y-88500000D03*
X127000000Y-88500000D03*
X174000000Y-95300000D03*
X173000000Y-95300000D03*
X172000000Y-95300000D03*
X171000000Y-95300000D03*
X170000000Y-95300000D03*
X169000000Y-95300000D03*
X168000000Y-95300000D03*
X167000000Y-95300000D03*
X166000000Y-95300000D03*
X165000000Y-95300000D03*
X164000000Y-95300000D03*
X163000000Y-95300000D03*
X162000000Y-95300000D03*
X161000000Y-95300000D03*
X160000000Y-95300000D03*
X159000000Y-95300000D03*
X158000000Y-95300000D03*
X157000000Y-95300000D03*
X156000000Y-95300000D03*
X155000000Y-95300000D03*
X154000000Y-95300000D03*
X153000000Y-95300000D03*
X152000000Y-95300000D03*
X151000000Y-95300000D03*
X150000000Y-95300000D03*
X149000000Y-95300000D03*
X148000000Y-95300000D03*
X147000000Y-95300000D03*
X146000000Y-95300000D03*
X145000000Y-95300000D03*
X144000000Y-95300000D03*
X143000000Y-95300000D03*
X142000000Y-95300000D03*
X141000000Y-95300000D03*
X140000000Y-95300000D03*
X139000000Y-95300000D03*
X138000000Y-95300000D03*
X137000000Y-95300000D03*
X136000000Y-95300000D03*
X135000000Y-95300000D03*
X134000000Y-95300000D03*
X133000000Y-95300000D03*
X132000000Y-95300000D03*
X131000000Y-95300000D03*
X130000000Y-95300000D03*
X129000000Y-95300000D03*
X128000000Y-95300000D03*
X127000000Y-95300000D03*
X174000000Y-102200000D03*
X173000000Y-102200000D03*
X172000000Y-102200000D03*
X171000000Y-102200000D03*
X170000000Y-102200000D03*
X169000000Y-102200000D03*
X168000000Y-102200000D03*
X167000000Y-102200000D03*
X166000000Y-102200000D03*
X165000000Y-102200000D03*
X164000000Y-102200000D03*
X163000000Y-102200000D03*
X162000000Y-102200000D03*
X161000000Y-102200000D03*
X160000000Y-102200000D03*
X159000000Y-102200000D03*
X158000000Y-102200000D03*
X157000000Y-102200000D03*
X156000000Y-102200000D03*
X155000000Y-102200000D03*
X154000000Y-102200000D03*
X153000000Y-102200000D03*
X152000000Y-102200000D03*
X151000000Y-102200000D03*
X150000000Y-102200000D03*
X149000000Y-102200000D03*
X148000000Y-102200000D03*
X147000000Y-102200000D03*
X146000000Y-102200000D03*
X145000000Y-102200000D03*
X144000000Y-102200000D03*
X143000000Y-102200000D03*
X142000000Y-102200000D03*
X141000000Y-102200000D03*
X140000000Y-102200000D03*
X139000000Y-102200000D03*
X138000000Y-102200000D03*
X137000000Y-102200000D03*
X136000000Y-102200000D03*
X135000000Y-102200000D03*
X134000000Y-102200000D03*
X133000000Y-102200000D03*
X132000000Y-102200000D03*
X131000000Y-102200000D03*
X130000000Y-102200000D03*
X129000000Y-102200000D03*
X128000000Y-102200000D03*
X127000000Y-102200000D03*
X174000000Y-109200000D03*
X173000000Y-109200000D03*
X172000000Y-109200000D03*
X171000000Y-109200000D03*
X170000000Y-109200000D03*
X169000000Y-109200000D03*
X168000000Y-109200000D03*
X167000000Y-109200000D03*
X166000000Y-109200000D03*
X165000000Y-109200000D03*
X164000000Y-109200000D03*
X163000000Y-109200000D03*
X162000000Y-109200000D03*
X161000000Y-109200000D03*
X160000000Y-109200000D03*
X159000000Y-109200000D03*
X158000000Y-109200000D03*
X157000000Y-109200000D03*
X156000000Y-109200000D03*
X155000000Y-109200000D03*
X154000000Y-109200000D03*
X153000000Y-109200000D03*
X152000000Y-109200000D03*
X151000000Y-109200000D03*
X150000000Y-109200000D03*
X149000000Y-109200000D03*
X148000000Y-109200000D03*
X147000000Y-109200000D03*
X146000000Y-109200000D03*
X145000000Y-109200000D03*
X144000000Y-109200000D03*
X143000000Y-109200000D03*
X142000000Y-109200000D03*
X141000000Y-109200000D03*
X140000000Y-109200000D03*
X139000000Y-109200000D03*
X138000000Y-109200000D03*
X137000000Y-109200000D03*
X136000000Y-109200000D03*
X135000000Y-109200000D03*
X134000000Y-109200000D03*
X133000000Y-109200000D03*
X132000000Y-109200000D03*
X131000000Y-109200000D03*
X130000000Y-109200000D03*
X129000000Y-109200000D03*
X128000000Y-109200000D03*
X127000000Y-109200000D03*
X174000000Y-115900000D03*
X173000000Y-115900000D03*
X172000000Y-115900000D03*
X171000000Y-115900000D03*
X170000000Y-115900000D03*
X169000000Y-115900000D03*
X168000000Y-115900000D03*
X167000000Y-115900000D03*
X166000000Y-115900000D03*
X165000000Y-115900000D03*
X164000000Y-115900000D03*
X163000000Y-115900000D03*
X162000000Y-115900000D03*
X161000000Y-115900000D03*
X160000000Y-115900000D03*
X159000000Y-115900000D03*
X158000000Y-115900000D03*
X157000000Y-115900000D03*
X156000000Y-115900000D03*
X155000000Y-115900000D03*
X154000000Y-115900000D03*
X153000000Y-115900000D03*
X152000000Y-115900000D03*
X151000000Y-115900000D03*
X150000000Y-115900000D03*
X149000000Y-115900000D03*
X148000000Y-115900000D03*
X147000000Y-115900000D03*
X146000000Y-115900000D03*
X145000000Y-115900000D03*
X144000000Y-115900000D03*
X143000000Y-115900000D03*
X142000000Y-115900000D03*
X141000000Y-115900000D03*
X140000000Y-115900000D03*
X139000000Y-115900000D03*
X138000000Y-115900000D03*
X137000000Y-115900000D03*
X136000000Y-115900000D03*
X135000000Y-115900000D03*
X134000000Y-115900000D03*
X133000000Y-115900000D03*
X132000000Y-115900000D03*
X131000000Y-115900000D03*
X130000000Y-115900000D03*
X129000000Y-115900000D03*
X128000000Y-115900000D03*
X127000000Y-115900000D03*
D11*
X171625034Y-106007500D02*
X169825034Y-106007500D01*
X169125034Y-106707500D02*
X170925034Y-106707500D01*
X169825034Y-106007500D02*
X169125034Y-106707500D01*
X170925034Y-106707500D02*
X171625034Y-106007500D01*
X172425034Y-106707500D02*
X172425034Y-106707500D01*
X172375017Y-92717500D02*
X173075017Y-92017500D01*
X171575017Y-92017500D02*
X169775017Y-92017500D01*
X169075017Y-92717500D02*
X170875017Y-92717500D01*
X169775017Y-92017500D02*
X169075017Y-92717500D01*
X170875017Y-92717500D02*
X171575017Y-92017500D01*
X169075017Y-92717500D02*
X172375017Y-92717500D01*
X172375017Y-92717500D02*
X172375017Y-92717500D01*
X169825000Y-85262500D02*
X169125000Y-85962500D01*
X171625000Y-85262500D02*
X169825000Y-85262500D01*
X170925000Y-85962500D02*
X171625000Y-85262500D01*
X169125000Y-85962500D02*
X170925000Y-85962500D01*
X172425000Y-85962500D02*
X172425000Y-85962500D01*
X169125000Y-85962500D02*
X172425000Y-85962500D01*
X172425000Y-99712500D02*
X172425000Y-99712500D01*
X169125000Y-99712500D02*
X172425000Y-99712500D01*
X173125000Y-99012500D02*
X171012500Y-99012500D01*
X171625000Y-99012500D02*
X171012500Y-99012500D01*
X172425000Y-113375000D02*
X173125000Y-112675000D01*
X169125000Y-113375000D02*
X172425000Y-113375000D01*
X172425000Y-120275000D02*
X172512500Y-120187500D01*
X172425000Y-99712500D02*
X173125000Y-99012500D01*
X172425000Y-85962500D02*
X173125000Y-85262500D01*
X172425000Y-113375000D02*
X172425000Y-113375000D01*
X169125000Y-120275000D02*
X172425000Y-120275000D01*
X172512500Y-120187500D02*
X173125000Y-119575000D01*
X169825000Y-119575000D02*
X169125000Y-120275000D01*
X173125000Y-119575000D02*
X169825000Y-119575000D01*
X169825000Y-112675000D02*
X169125000Y-113375000D01*
X173125000Y-112675000D02*
X169825000Y-112675000D01*
X169825000Y-106007500D02*
X169125000Y-106707500D01*
X173125034Y-106007500D02*
X169825000Y-106007500D01*
X172425034Y-106707500D02*
X173125034Y-106007500D01*
X169125034Y-106707500D02*
X172425034Y-106707500D01*
X169825000Y-99012500D02*
X169125000Y-99712500D01*
X171012500Y-99012500D02*
X169825000Y-99012500D01*
X169775000Y-92017500D02*
X169075000Y-92717500D01*
X173075017Y-92017500D02*
X169775000Y-92017500D01*
X173125000Y-85262500D02*
X169825000Y-85262500D01*
X123587534Y-103582500D02*
X123575034Y-103582500D01*
X126875034Y-103582500D02*
X123587534Y-103582500D01*
X126175034Y-104282500D02*
X126875034Y-103582500D01*
X123575034Y-103582500D02*
X122875034Y-104282500D01*
X122875034Y-104282500D02*
X124375034Y-104282500D01*
X124375034Y-104282500D02*
X126175034Y-104282500D01*
X123537517Y-89592500D02*
X123525017Y-89592500D01*
X126825017Y-89592500D02*
X123537517Y-89592500D01*
X126125017Y-90292500D02*
X126825017Y-89592500D01*
X123525017Y-89592500D02*
X122825017Y-90292500D01*
X122825017Y-90292500D02*
X124325017Y-90292500D01*
X124325017Y-90292500D02*
X126125017Y-90292500D01*
X122875000Y-83537500D02*
X124375000Y-83537500D01*
X126175000Y-83537500D02*
X126875000Y-82837500D01*
X124375000Y-83537500D02*
X126175000Y-83537500D01*
X123575000Y-82837500D02*
X122875000Y-83537500D01*
X126875000Y-82837500D02*
X123587500Y-82837500D01*
X123575000Y-117150000D02*
X123575000Y-117150000D01*
X126875000Y-117150000D02*
X123575000Y-117150000D01*
X126175000Y-117850000D02*
X126875000Y-117150000D01*
X122875000Y-117850000D02*
X126175000Y-117850000D01*
X123575000Y-110250000D02*
X123525000Y-110300000D01*
X126875000Y-110250000D02*
X123575000Y-110250000D01*
X122875000Y-110950000D02*
X126175000Y-110950000D01*
X123575000Y-96587500D02*
X123493750Y-96668750D01*
X126875000Y-96587500D02*
X123575000Y-96587500D01*
X126175000Y-97287500D02*
X126875000Y-96587500D01*
X122875000Y-97287500D02*
X126175000Y-97287500D01*
X123525000Y-110300000D02*
X122875000Y-110950000D01*
X123493750Y-96668750D02*
X122875000Y-97287500D01*
X123587500Y-82837500D02*
X123575000Y-82837500D01*
X123575000Y-117150000D02*
X122875000Y-117850000D01*
X126180000Y-104282500D02*
X126875000Y-103587500D01*
X124375034Y-104282500D02*
X126180000Y-104282500D01*
X130045017Y-89480000D02*
X130050017Y-89485000D01*
X126170000Y-90292500D02*
X126875000Y-89587500D01*
X124325017Y-90292500D02*
X126170000Y-90292500D01*
D12*
X125873000Y-81536928D02*
X125774997Y-81536928D01*
X125601743Y-81553992D01*
X125435148Y-81604528D01*
X125281612Y-81686595D01*
X125262232Y-81702500D01*
X123630741Y-81702500D01*
X123574999Y-81697010D01*
X123519257Y-81702500D01*
X123519248Y-81702500D01*
X123352501Y-81718923D01*
X123138553Y-81783824D01*
X122941377Y-81889216D01*
X122768551Y-82031051D01*
X122733004Y-82074365D01*
X122412041Y-82395328D01*
X122302433Y-82428577D01*
X122151058Y-82509488D01*
X122018377Y-82618377D01*
X121909488Y-82751058D01*
X121828577Y-82902433D01*
X121778752Y-83066684D01*
X121761928Y-83237500D01*
X121761928Y-83296854D01*
X121756423Y-83315001D01*
X121734509Y-83537500D01*
X121756423Y-83759999D01*
X121761928Y-83778146D01*
X121761928Y-83837500D01*
X121778752Y-84008316D01*
X121828577Y-84172567D01*
X121909488Y-84323942D01*
X122018377Y-84456623D01*
X122151058Y-84565512D01*
X122302433Y-84646423D01*
X122466684Y-84696248D01*
X122637500Y-84713072D01*
X123112500Y-84713072D01*
X123283316Y-84696248D01*
X123361603Y-84672500D01*
X123888397Y-84672500D01*
X123966684Y-84696248D01*
X124137500Y-84713072D01*
X124612500Y-84713072D01*
X124783316Y-84696248D01*
X124861603Y-84672500D01*
X126119249Y-84672500D01*
X126175000Y-84677991D01*
X126230751Y-84672500D01*
X126230752Y-84672500D01*
X126397499Y-84656077D01*
X126493352Y-84627000D01*
X169273000Y-84627000D01*
X169273000Y-87273000D01*
X126000000Y-87273000D01*
X125975224Y-87275440D01*
X125951399Y-87282667D01*
X125929443Y-87294403D01*
X125910197Y-87310197D01*
X125894403Y-87329443D01*
X125882667Y-87351399D01*
X125875440Y-87375224D01*
X125873000Y-87400000D01*
X125873000Y-88286928D01*
X125774997Y-88286928D01*
X125601743Y-88303992D01*
X125435148Y-88354528D01*
X125281612Y-88436595D01*
X125256139Y-88457500D01*
X123580758Y-88457500D01*
X123525016Y-88452010D01*
X123469274Y-88457500D01*
X123469265Y-88457500D01*
X123302518Y-88473923D01*
X123088570Y-88538824D01*
X122891394Y-88644216D01*
X122718568Y-88786051D01*
X122683021Y-88829365D01*
X122380129Y-89132257D01*
X122227433Y-89178577D01*
X122076058Y-89259488D01*
X121943377Y-89368377D01*
X121834488Y-89501058D01*
X121753577Y-89652433D01*
X121703752Y-89816684D01*
X121686928Y-89987500D01*
X121686928Y-90268112D01*
X121684526Y-90292500D01*
X121686928Y-90316888D01*
X121686928Y-90587500D01*
X121703752Y-90758316D01*
X121753577Y-90922567D01*
X121834488Y-91073942D01*
X121943377Y-91206623D01*
X122076058Y-91315512D01*
X122227433Y-91396423D01*
X122391684Y-91446248D01*
X122562500Y-91463072D01*
X123037500Y-91463072D01*
X123208316Y-91446248D01*
X123270120Y-91427500D01*
X123838414Y-91427500D01*
X123916701Y-91451248D01*
X124087517Y-91468072D01*
X124562517Y-91468072D01*
X124733333Y-91451248D01*
X124811620Y-91427500D01*
X126069266Y-91427500D01*
X126125017Y-91432991D01*
X126147509Y-91430776D01*
X126170000Y-91432991D01*
X126225751Y-91427500D01*
X126225752Y-91427500D01*
X126392499Y-91411077D01*
X126606447Y-91346176D01*
X126638538Y-91329023D01*
X169273000Y-91464098D01*
X169273000Y-94135390D01*
X126000110Y-94098000D01*
X125975331Y-94100419D01*
X125951501Y-94107625D01*
X125929534Y-94119342D01*
X125910275Y-94135120D01*
X125894464Y-94154351D01*
X125882709Y-94176298D01*
X125875462Y-94200116D01*
X125873000Y-94225000D01*
X125873000Y-95286928D01*
X125774997Y-95286928D01*
X125601743Y-95303992D01*
X125435148Y-95354528D01*
X125281612Y-95436595D01*
X125262232Y-95452500D01*
X123630752Y-95452500D01*
X123575000Y-95447009D01*
X123519249Y-95452500D01*
X123519248Y-95452500D01*
X123352501Y-95468923D01*
X123138553Y-95533824D01*
X122941377Y-95639216D01*
X122768551Y-95781051D01*
X122733004Y-95824365D01*
X122730613Y-95826756D01*
X122730607Y-95826761D01*
X122412041Y-96145328D01*
X122302433Y-96178577D01*
X122151058Y-96259488D01*
X122018377Y-96368377D01*
X121909488Y-96501058D01*
X121828577Y-96652433D01*
X121778752Y-96816684D01*
X121761928Y-96987500D01*
X121761928Y-97046854D01*
X121756423Y-97065001D01*
X121734509Y-97287500D01*
X121756423Y-97509999D01*
X121761928Y-97528146D01*
X121761928Y-97587500D01*
X121778752Y-97758316D01*
X121828577Y-97922567D01*
X121909488Y-98073942D01*
X122018377Y-98206623D01*
X122151058Y-98315512D01*
X122302433Y-98396423D01*
X122466684Y-98446248D01*
X122637500Y-98463072D01*
X123112500Y-98463072D01*
X123283316Y-98446248D01*
X123361603Y-98422500D01*
X123888397Y-98422500D01*
X123966684Y-98446248D01*
X124137500Y-98463072D01*
X124612500Y-98463072D01*
X124783316Y-98446248D01*
X124861603Y-98422500D01*
X125968433Y-98422500D01*
X125975224Y-98424560D01*
X126000000Y-98427000D01*
X126164938Y-98427000D01*
X126175000Y-98427991D01*
X126185062Y-98427000D01*
X169273000Y-98427000D01*
X169273000Y-101073000D01*
X126000000Y-101073000D01*
X125975224Y-101075440D01*
X125951399Y-101082667D01*
X125929443Y-101094403D01*
X125910197Y-101110197D01*
X125894403Y-101129443D01*
X125882667Y-101151399D01*
X125875440Y-101175224D01*
X125873000Y-101200000D01*
X125873000Y-102286928D01*
X125774997Y-102286928D01*
X125601743Y-102303992D01*
X125435148Y-102354528D01*
X125281612Y-102436595D01*
X125268324Y-102447500D01*
X123630775Y-102447500D01*
X123575033Y-102442010D01*
X123519291Y-102447500D01*
X123519282Y-102447500D01*
X123352535Y-102463923D01*
X123138587Y-102528824D01*
X122941411Y-102634216D01*
X122768585Y-102776051D01*
X122733038Y-102819365D01*
X122412075Y-103140328D01*
X122302467Y-103173577D01*
X122151092Y-103254488D01*
X122018411Y-103363377D01*
X121909522Y-103496058D01*
X121828611Y-103647433D01*
X121778786Y-103811684D01*
X121761962Y-103982500D01*
X121761962Y-104041854D01*
X121756457Y-104060001D01*
X121734543Y-104282500D01*
X121756457Y-104504999D01*
X121761962Y-104523146D01*
X121761962Y-104582500D01*
X121778786Y-104753316D01*
X121828611Y-104917567D01*
X121909522Y-105068942D01*
X122018411Y-105201623D01*
X122151092Y-105310512D01*
X122302467Y-105391423D01*
X122466718Y-105441248D01*
X122637534Y-105458072D01*
X123112534Y-105458072D01*
X123283350Y-105441248D01*
X123361637Y-105417500D01*
X123888431Y-105417500D01*
X123966718Y-105441248D01*
X124137534Y-105458072D01*
X124612534Y-105458072D01*
X124783350Y-105441248D01*
X124861637Y-105417500D01*
X125873000Y-105417500D01*
X125873000Y-105423750D01*
X125875440Y-105448526D01*
X125882667Y-105472351D01*
X125894403Y-105494307D01*
X125910197Y-105513553D01*
X125929443Y-105529347D01*
X125951399Y-105541083D01*
X125975224Y-105548310D01*
X126000104Y-105550750D01*
X169273000Y-105515229D01*
X169273000Y-108084888D01*
X125999987Y-108089250D01*
X125975211Y-108091693D01*
X125951387Y-108098922D01*
X125929432Y-108110660D01*
X125910188Y-108126456D01*
X125894396Y-108145703D01*
X125882662Y-108167661D01*
X125875438Y-108191486D01*
X125873000Y-108216250D01*
X125873000Y-108949428D01*
X125774997Y-108949428D01*
X125601743Y-108966492D01*
X125435148Y-109017028D01*
X125281612Y-109099095D01*
X125262232Y-109115000D01*
X123630752Y-109115000D01*
X123575000Y-109109509D01*
X123519249Y-109115000D01*
X123519248Y-109115000D01*
X123352501Y-109131423D01*
X123138553Y-109196324D01*
X122941377Y-109301716D01*
X122768551Y-109443551D01*
X122733004Y-109486865D01*
X122412041Y-109807828D01*
X122302433Y-109841077D01*
X122151058Y-109921988D01*
X122018377Y-110030877D01*
X121909488Y-110163558D01*
X121828577Y-110314933D01*
X121778752Y-110479184D01*
X121761928Y-110650000D01*
X121761928Y-110709354D01*
X121756423Y-110727501D01*
X121734509Y-110950000D01*
X121756423Y-111172499D01*
X121761928Y-111190646D01*
X121761928Y-111250000D01*
X121778752Y-111420816D01*
X121828577Y-111585067D01*
X121909488Y-111736442D01*
X122018377Y-111869123D01*
X122151058Y-111978012D01*
X122302433Y-112058923D01*
X122466684Y-112108748D01*
X122637500Y-112125572D01*
X123112500Y-112125572D01*
X123283316Y-112108748D01*
X123361603Y-112085000D01*
X123888397Y-112085000D01*
X123966684Y-112108748D01*
X124137500Y-112125572D01*
X124612500Y-112125572D01*
X124783316Y-112108748D01*
X124861603Y-112085000D01*
X126230752Y-112085000D01*
X126397499Y-112068577D01*
X126587402Y-112010970D01*
X169273000Y-112026952D01*
X169273000Y-114772854D01*
X125950146Y-114723000D01*
X125925367Y-114725412D01*
X125901534Y-114732611D01*
X125879564Y-114744322D01*
X125860301Y-114760094D01*
X125844485Y-114779321D01*
X125832723Y-114801264D01*
X125825469Y-114825080D01*
X125823000Y-114850000D01*
X125823000Y-115849428D01*
X125774997Y-115849428D01*
X125601743Y-115866492D01*
X125435148Y-115917028D01*
X125281612Y-115999095D01*
X125262232Y-116015000D01*
X123630741Y-116015000D01*
X123574999Y-116009510D01*
X123519257Y-116015000D01*
X123519248Y-116015000D01*
X123352501Y-116031423D01*
X123138553Y-116096324D01*
X122941377Y-116201716D01*
X122768551Y-116343551D01*
X122733004Y-116386865D01*
X122412041Y-116707828D01*
X122302433Y-116741077D01*
X122151058Y-116821988D01*
X122018377Y-116930877D01*
X121909488Y-117063558D01*
X121828577Y-117214933D01*
X121778752Y-117379184D01*
X121761928Y-117550000D01*
X121761928Y-117609354D01*
X121756423Y-117627501D01*
X121734509Y-117850000D01*
X121756423Y-118072499D01*
X121761928Y-118090646D01*
X121761928Y-118150000D01*
X121778752Y-118320816D01*
X121828577Y-118485067D01*
X121909488Y-118636442D01*
X122018377Y-118769123D01*
X122151058Y-118878012D01*
X122302433Y-118958923D01*
X122466684Y-119008748D01*
X122637500Y-119025572D01*
X123112500Y-119025572D01*
X123283316Y-119008748D01*
X123361603Y-118985000D01*
X123888397Y-118985000D01*
X123966684Y-119008748D01*
X124137500Y-119025572D01*
X124612500Y-119025572D01*
X124783316Y-119008748D01*
X124861603Y-118985000D01*
X126119249Y-118985000D01*
X126175000Y-118990491D01*
X126230751Y-118985000D01*
X126230752Y-118985000D01*
X126397499Y-118968577D01*
X126611447Y-118903676D01*
X126659635Y-118877919D01*
X169273000Y-118933086D01*
X169273000Y-121840000D01*
X111160000Y-121840000D01*
X111160000Y-118779872D01*
X116265000Y-118779872D01*
X116265000Y-119220128D01*
X116350890Y-119651925D01*
X116519369Y-120058669D01*
X116763962Y-120424729D01*
X117075271Y-120736038D01*
X117441331Y-120980631D01*
X117848075Y-121149110D01*
X118279872Y-121235000D01*
X118720128Y-121235000D01*
X119151925Y-121149110D01*
X119558669Y-120980631D01*
X119924729Y-120736038D01*
X120236038Y-120424729D01*
X120480631Y-120058669D01*
X120649110Y-119651925D01*
X120735000Y-119220128D01*
X120735000Y-118779872D01*
X120649110Y-118348075D01*
X120480631Y-117941331D01*
X120236038Y-117575271D01*
X119924729Y-117263962D01*
X119558669Y-117019369D01*
X119151925Y-116850890D01*
X118720128Y-116765000D01*
X118279872Y-116765000D01*
X117848075Y-116850890D01*
X117441331Y-117019369D01*
X117075271Y-117263962D01*
X116763962Y-117575271D01*
X116519369Y-117941331D01*
X116350890Y-118348075D01*
X116265000Y-118779872D01*
X111160000Y-118779872D01*
X111160000Y-107113204D01*
X116265000Y-107113204D01*
X116265000Y-107553460D01*
X116350890Y-107985257D01*
X116519369Y-108392001D01*
X116763962Y-108758061D01*
X117075271Y-109069370D01*
X117441331Y-109313963D01*
X117848075Y-109482442D01*
X118279872Y-109568332D01*
X118720128Y-109568332D01*
X119151925Y-109482442D01*
X119558669Y-109313963D01*
X119924729Y-109069370D01*
X120236038Y-108758061D01*
X120480631Y-108392001D01*
X120649110Y-107985257D01*
X120735000Y-107553460D01*
X120735000Y-107113204D01*
X120649110Y-106681407D01*
X120480631Y-106274663D01*
X120236038Y-105908603D01*
X119924729Y-105597294D01*
X119558669Y-105352701D01*
X119151925Y-105184222D01*
X118720128Y-105098332D01*
X118279872Y-105098332D01*
X117848075Y-105184222D01*
X117441331Y-105352701D01*
X117075271Y-105597294D01*
X116763962Y-105908603D01*
X116519369Y-106274663D01*
X116350890Y-106681407D01*
X116265000Y-107113204D01*
X111160000Y-107113204D01*
X111160000Y-95446538D01*
X116265000Y-95446538D01*
X116265000Y-95886794D01*
X116350890Y-96318591D01*
X116519369Y-96725335D01*
X116763962Y-97091395D01*
X117075271Y-97402704D01*
X117441331Y-97647297D01*
X117848075Y-97815776D01*
X118279872Y-97901666D01*
X118720128Y-97901666D01*
X119151925Y-97815776D01*
X119558669Y-97647297D01*
X119924729Y-97402704D01*
X120236038Y-97091395D01*
X120480631Y-96725335D01*
X120649110Y-96318591D01*
X120735000Y-95886794D01*
X120735000Y-95446538D01*
X120649110Y-95014741D01*
X120480631Y-94607997D01*
X120236038Y-94241937D01*
X119924729Y-93930628D01*
X119558669Y-93686035D01*
X119151925Y-93517556D01*
X118720128Y-93431666D01*
X118279872Y-93431666D01*
X117848075Y-93517556D01*
X117441331Y-93686035D01*
X117075271Y-93930628D01*
X116763962Y-94241937D01*
X116519369Y-94607997D01*
X116350890Y-95014741D01*
X116265000Y-95446538D01*
X111160000Y-95446538D01*
X111160000Y-83779872D01*
X116265000Y-83779872D01*
X116265000Y-84220128D01*
X116350890Y-84651925D01*
X116519369Y-85058669D01*
X116763962Y-85424729D01*
X117075271Y-85736038D01*
X117441331Y-85980631D01*
X117848075Y-86149110D01*
X118279872Y-86235000D01*
X118720128Y-86235000D01*
X119151925Y-86149110D01*
X119558669Y-85980631D01*
X119924729Y-85736038D01*
X120236038Y-85424729D01*
X120480631Y-85058669D01*
X120649110Y-84651925D01*
X120735000Y-84220128D01*
X120735000Y-83779872D01*
X120649110Y-83348075D01*
X120480631Y-82941331D01*
X120236038Y-82575271D01*
X119924729Y-82263962D01*
X119558669Y-82019369D01*
X119151925Y-81850890D01*
X118720128Y-81765000D01*
X118279872Y-81765000D01*
X117848075Y-81850890D01*
X117441331Y-82019369D01*
X117075271Y-82263962D01*
X116763962Y-82575271D01*
X116519369Y-82941331D01*
X116350890Y-83348075D01*
X116265000Y-83779872D01*
X111160000Y-83779872D01*
X111160000Y-81160000D01*
X125873000Y-81160000D01*
X125873000Y-81536928D01*
G04 #@! TA.AperFunction,Conductor*
D13*
G36*
X125873000Y-81536928D02*
G01*
X125774997Y-81536928D01*
X125601743Y-81553992D01*
X125435148Y-81604528D01*
X125281612Y-81686595D01*
X125262232Y-81702500D01*
X123630741Y-81702500D01*
X123574999Y-81697010D01*
X123519257Y-81702500D01*
X123519248Y-81702500D01*
X123352501Y-81718923D01*
X123138553Y-81783824D01*
X122941377Y-81889216D01*
X122768551Y-82031051D01*
X122733004Y-82074365D01*
X122412041Y-82395328D01*
X122302433Y-82428577D01*
X122151058Y-82509488D01*
X122018377Y-82618377D01*
X121909488Y-82751058D01*
X121828577Y-82902433D01*
X121778752Y-83066684D01*
X121761928Y-83237500D01*
X121761928Y-83296854D01*
X121756423Y-83315001D01*
X121734509Y-83537500D01*
X121756423Y-83759999D01*
X121761928Y-83778146D01*
X121761928Y-83837500D01*
X121778752Y-84008316D01*
X121828577Y-84172567D01*
X121909488Y-84323942D01*
X122018377Y-84456623D01*
X122151058Y-84565512D01*
X122302433Y-84646423D01*
X122466684Y-84696248D01*
X122637500Y-84713072D01*
X123112500Y-84713072D01*
X123283316Y-84696248D01*
X123361603Y-84672500D01*
X123888397Y-84672500D01*
X123966684Y-84696248D01*
X124137500Y-84713072D01*
X124612500Y-84713072D01*
X124783316Y-84696248D01*
X124861603Y-84672500D01*
X126119249Y-84672500D01*
X126175000Y-84677991D01*
X126230751Y-84672500D01*
X126230752Y-84672500D01*
X126397499Y-84656077D01*
X126493352Y-84627000D01*
X169273000Y-84627000D01*
X169273000Y-87273000D01*
X126000000Y-87273000D01*
X125975224Y-87275440D01*
X125951399Y-87282667D01*
X125929443Y-87294403D01*
X125910197Y-87310197D01*
X125894403Y-87329443D01*
X125882667Y-87351399D01*
X125875440Y-87375224D01*
X125873000Y-87400000D01*
X125873000Y-88286928D01*
X125774997Y-88286928D01*
X125601743Y-88303992D01*
X125435148Y-88354528D01*
X125281612Y-88436595D01*
X125256139Y-88457500D01*
X123580758Y-88457500D01*
X123525016Y-88452010D01*
X123469274Y-88457500D01*
X123469265Y-88457500D01*
X123302518Y-88473923D01*
X123088570Y-88538824D01*
X122891394Y-88644216D01*
X122718568Y-88786051D01*
X122683021Y-88829365D01*
X122380129Y-89132257D01*
X122227433Y-89178577D01*
X122076058Y-89259488D01*
X121943377Y-89368377D01*
X121834488Y-89501058D01*
X121753577Y-89652433D01*
X121703752Y-89816684D01*
X121686928Y-89987500D01*
X121686928Y-90268112D01*
X121684526Y-90292500D01*
X121686928Y-90316888D01*
X121686928Y-90587500D01*
X121703752Y-90758316D01*
X121753577Y-90922567D01*
X121834488Y-91073942D01*
X121943377Y-91206623D01*
X122076058Y-91315512D01*
X122227433Y-91396423D01*
X122391684Y-91446248D01*
X122562500Y-91463072D01*
X123037500Y-91463072D01*
X123208316Y-91446248D01*
X123270120Y-91427500D01*
X123838414Y-91427500D01*
X123916701Y-91451248D01*
X124087517Y-91468072D01*
X124562517Y-91468072D01*
X124733333Y-91451248D01*
X124811620Y-91427500D01*
X126069266Y-91427500D01*
X126125017Y-91432991D01*
X126147509Y-91430776D01*
X126170000Y-91432991D01*
X126225751Y-91427500D01*
X126225752Y-91427500D01*
X126392499Y-91411077D01*
X126606447Y-91346176D01*
X126638538Y-91329023D01*
X169273000Y-91464098D01*
X169273000Y-94135390D01*
X126000110Y-94098000D01*
X125975331Y-94100419D01*
X125951501Y-94107625D01*
X125929534Y-94119342D01*
X125910275Y-94135120D01*
X125894464Y-94154351D01*
X125882709Y-94176298D01*
X125875462Y-94200116D01*
X125873000Y-94225000D01*
X125873000Y-95286928D01*
X125774997Y-95286928D01*
X125601743Y-95303992D01*
X125435148Y-95354528D01*
X125281612Y-95436595D01*
X125262232Y-95452500D01*
X123630752Y-95452500D01*
X123575000Y-95447009D01*
X123519249Y-95452500D01*
X123519248Y-95452500D01*
X123352501Y-95468923D01*
X123138553Y-95533824D01*
X122941377Y-95639216D01*
X122768551Y-95781051D01*
X122733004Y-95824365D01*
X122730613Y-95826756D01*
X122730607Y-95826761D01*
X122412041Y-96145328D01*
X122302433Y-96178577D01*
X122151058Y-96259488D01*
X122018377Y-96368377D01*
X121909488Y-96501058D01*
X121828577Y-96652433D01*
X121778752Y-96816684D01*
X121761928Y-96987500D01*
X121761928Y-97046854D01*
X121756423Y-97065001D01*
X121734509Y-97287500D01*
X121756423Y-97509999D01*
X121761928Y-97528146D01*
X121761928Y-97587500D01*
X121778752Y-97758316D01*
X121828577Y-97922567D01*
X121909488Y-98073942D01*
X122018377Y-98206623D01*
X122151058Y-98315512D01*
X122302433Y-98396423D01*
X122466684Y-98446248D01*
X122637500Y-98463072D01*
X123112500Y-98463072D01*
X123283316Y-98446248D01*
X123361603Y-98422500D01*
X123888397Y-98422500D01*
X123966684Y-98446248D01*
X124137500Y-98463072D01*
X124612500Y-98463072D01*
X124783316Y-98446248D01*
X124861603Y-98422500D01*
X125968433Y-98422500D01*
X125975224Y-98424560D01*
X126000000Y-98427000D01*
X126164938Y-98427000D01*
X126175000Y-98427991D01*
X126185062Y-98427000D01*
X169273000Y-98427000D01*
X169273000Y-101073000D01*
X126000000Y-101073000D01*
X125975224Y-101075440D01*
X125951399Y-101082667D01*
X125929443Y-101094403D01*
X125910197Y-101110197D01*
X125894403Y-101129443D01*
X125882667Y-101151399D01*
X125875440Y-101175224D01*
X125873000Y-101200000D01*
X125873000Y-102286928D01*
X125774997Y-102286928D01*
X125601743Y-102303992D01*
X125435148Y-102354528D01*
X125281612Y-102436595D01*
X125268324Y-102447500D01*
X123630775Y-102447500D01*
X123575033Y-102442010D01*
X123519291Y-102447500D01*
X123519282Y-102447500D01*
X123352535Y-102463923D01*
X123138587Y-102528824D01*
X122941411Y-102634216D01*
X122768585Y-102776051D01*
X122733038Y-102819365D01*
X122412075Y-103140328D01*
X122302467Y-103173577D01*
X122151092Y-103254488D01*
X122018411Y-103363377D01*
X121909522Y-103496058D01*
X121828611Y-103647433D01*
X121778786Y-103811684D01*
X121761962Y-103982500D01*
X121761962Y-104041854D01*
X121756457Y-104060001D01*
X121734543Y-104282500D01*
X121756457Y-104504999D01*
X121761962Y-104523146D01*
X121761962Y-104582500D01*
X121778786Y-104753316D01*
X121828611Y-104917567D01*
X121909522Y-105068942D01*
X122018411Y-105201623D01*
X122151092Y-105310512D01*
X122302467Y-105391423D01*
X122466718Y-105441248D01*
X122637534Y-105458072D01*
X123112534Y-105458072D01*
X123283350Y-105441248D01*
X123361637Y-105417500D01*
X123888431Y-105417500D01*
X123966718Y-105441248D01*
X124137534Y-105458072D01*
X124612534Y-105458072D01*
X124783350Y-105441248D01*
X124861637Y-105417500D01*
X125873000Y-105417500D01*
X125873000Y-105423750D01*
X125875440Y-105448526D01*
X125882667Y-105472351D01*
X125894403Y-105494307D01*
X125910197Y-105513553D01*
X125929443Y-105529347D01*
X125951399Y-105541083D01*
X125975224Y-105548310D01*
X126000104Y-105550750D01*
X169273000Y-105515229D01*
X169273000Y-108084888D01*
X125999987Y-108089250D01*
X125975211Y-108091693D01*
X125951387Y-108098922D01*
X125929432Y-108110660D01*
X125910188Y-108126456D01*
X125894396Y-108145703D01*
X125882662Y-108167661D01*
X125875438Y-108191486D01*
X125873000Y-108216250D01*
X125873000Y-108949428D01*
X125774997Y-108949428D01*
X125601743Y-108966492D01*
X125435148Y-109017028D01*
X125281612Y-109099095D01*
X125262232Y-109115000D01*
X123630752Y-109115000D01*
X123575000Y-109109509D01*
X123519249Y-109115000D01*
X123519248Y-109115000D01*
X123352501Y-109131423D01*
X123138553Y-109196324D01*
X122941377Y-109301716D01*
X122768551Y-109443551D01*
X122733004Y-109486865D01*
X122412041Y-109807828D01*
X122302433Y-109841077D01*
X122151058Y-109921988D01*
X122018377Y-110030877D01*
X121909488Y-110163558D01*
X121828577Y-110314933D01*
X121778752Y-110479184D01*
X121761928Y-110650000D01*
X121761928Y-110709354D01*
X121756423Y-110727501D01*
X121734509Y-110950000D01*
X121756423Y-111172499D01*
X121761928Y-111190646D01*
X121761928Y-111250000D01*
X121778752Y-111420816D01*
X121828577Y-111585067D01*
X121909488Y-111736442D01*
X122018377Y-111869123D01*
X122151058Y-111978012D01*
X122302433Y-112058923D01*
X122466684Y-112108748D01*
X122637500Y-112125572D01*
X123112500Y-112125572D01*
X123283316Y-112108748D01*
X123361603Y-112085000D01*
X123888397Y-112085000D01*
X123966684Y-112108748D01*
X124137500Y-112125572D01*
X124612500Y-112125572D01*
X124783316Y-112108748D01*
X124861603Y-112085000D01*
X126230752Y-112085000D01*
X126397499Y-112068577D01*
X126587402Y-112010970D01*
X169273000Y-112026952D01*
X169273000Y-114772854D01*
X125950146Y-114723000D01*
X125925367Y-114725412D01*
X125901534Y-114732611D01*
X125879564Y-114744322D01*
X125860301Y-114760094D01*
X125844485Y-114779321D01*
X125832723Y-114801264D01*
X125825469Y-114825080D01*
X125823000Y-114850000D01*
X125823000Y-115849428D01*
X125774997Y-115849428D01*
X125601743Y-115866492D01*
X125435148Y-115917028D01*
X125281612Y-115999095D01*
X125262232Y-116015000D01*
X123630741Y-116015000D01*
X123574999Y-116009510D01*
X123519257Y-116015000D01*
X123519248Y-116015000D01*
X123352501Y-116031423D01*
X123138553Y-116096324D01*
X122941377Y-116201716D01*
X122768551Y-116343551D01*
X122733004Y-116386865D01*
X122412041Y-116707828D01*
X122302433Y-116741077D01*
X122151058Y-116821988D01*
X122018377Y-116930877D01*
X121909488Y-117063558D01*
X121828577Y-117214933D01*
X121778752Y-117379184D01*
X121761928Y-117550000D01*
X121761928Y-117609354D01*
X121756423Y-117627501D01*
X121734509Y-117850000D01*
X121756423Y-118072499D01*
X121761928Y-118090646D01*
X121761928Y-118150000D01*
X121778752Y-118320816D01*
X121828577Y-118485067D01*
X121909488Y-118636442D01*
X122018377Y-118769123D01*
X122151058Y-118878012D01*
X122302433Y-118958923D01*
X122466684Y-119008748D01*
X122637500Y-119025572D01*
X123112500Y-119025572D01*
X123283316Y-119008748D01*
X123361603Y-118985000D01*
X123888397Y-118985000D01*
X123966684Y-119008748D01*
X124137500Y-119025572D01*
X124612500Y-119025572D01*
X124783316Y-119008748D01*
X124861603Y-118985000D01*
X126119249Y-118985000D01*
X126175000Y-118990491D01*
X126230751Y-118985000D01*
X126230752Y-118985000D01*
X126397499Y-118968577D01*
X126611447Y-118903676D01*
X126659635Y-118877919D01*
X169273000Y-118933086D01*
X169273000Y-121840000D01*
X111160000Y-121840000D01*
X111160000Y-118779872D01*
X116265000Y-118779872D01*
X116265000Y-119220128D01*
X116350890Y-119651925D01*
X116519369Y-120058669D01*
X116763962Y-120424729D01*
X117075271Y-120736038D01*
X117441331Y-120980631D01*
X117848075Y-121149110D01*
X118279872Y-121235000D01*
X118720128Y-121235000D01*
X119151925Y-121149110D01*
X119558669Y-120980631D01*
X119924729Y-120736038D01*
X120236038Y-120424729D01*
X120480631Y-120058669D01*
X120649110Y-119651925D01*
X120735000Y-119220128D01*
X120735000Y-118779872D01*
X120649110Y-118348075D01*
X120480631Y-117941331D01*
X120236038Y-117575271D01*
X119924729Y-117263962D01*
X119558669Y-117019369D01*
X119151925Y-116850890D01*
X118720128Y-116765000D01*
X118279872Y-116765000D01*
X117848075Y-116850890D01*
X117441331Y-117019369D01*
X117075271Y-117263962D01*
X116763962Y-117575271D01*
X116519369Y-117941331D01*
X116350890Y-118348075D01*
X116265000Y-118779872D01*
X111160000Y-118779872D01*
X111160000Y-107113204D01*
X116265000Y-107113204D01*
X116265000Y-107553460D01*
X116350890Y-107985257D01*
X116519369Y-108392001D01*
X116763962Y-108758061D01*
X117075271Y-109069370D01*
X117441331Y-109313963D01*
X117848075Y-109482442D01*
X118279872Y-109568332D01*
X118720128Y-109568332D01*
X119151925Y-109482442D01*
X119558669Y-109313963D01*
X119924729Y-109069370D01*
X120236038Y-108758061D01*
X120480631Y-108392001D01*
X120649110Y-107985257D01*
X120735000Y-107553460D01*
X120735000Y-107113204D01*
X120649110Y-106681407D01*
X120480631Y-106274663D01*
X120236038Y-105908603D01*
X119924729Y-105597294D01*
X119558669Y-105352701D01*
X119151925Y-105184222D01*
X118720128Y-105098332D01*
X118279872Y-105098332D01*
X117848075Y-105184222D01*
X117441331Y-105352701D01*
X117075271Y-105597294D01*
X116763962Y-105908603D01*
X116519369Y-106274663D01*
X116350890Y-106681407D01*
X116265000Y-107113204D01*
X111160000Y-107113204D01*
X111160000Y-95446538D01*
X116265000Y-95446538D01*
X116265000Y-95886794D01*
X116350890Y-96318591D01*
X116519369Y-96725335D01*
X116763962Y-97091395D01*
X117075271Y-97402704D01*
X117441331Y-97647297D01*
X117848075Y-97815776D01*
X118279872Y-97901666D01*
X118720128Y-97901666D01*
X119151925Y-97815776D01*
X119558669Y-97647297D01*
X119924729Y-97402704D01*
X120236038Y-97091395D01*
X120480631Y-96725335D01*
X120649110Y-96318591D01*
X120735000Y-95886794D01*
X120735000Y-95446538D01*
X120649110Y-95014741D01*
X120480631Y-94607997D01*
X120236038Y-94241937D01*
X119924729Y-93930628D01*
X119558669Y-93686035D01*
X119151925Y-93517556D01*
X118720128Y-93431666D01*
X118279872Y-93431666D01*
X117848075Y-93517556D01*
X117441331Y-93686035D01*
X117075271Y-93930628D01*
X116763962Y-94241937D01*
X116519369Y-94607997D01*
X116350890Y-95014741D01*
X116265000Y-95446538D01*
X111160000Y-95446538D01*
X111160000Y-83779872D01*
X116265000Y-83779872D01*
X116265000Y-84220128D01*
X116350890Y-84651925D01*
X116519369Y-85058669D01*
X116763962Y-85424729D01*
X117075271Y-85736038D01*
X117441331Y-85980631D01*
X117848075Y-86149110D01*
X118279872Y-86235000D01*
X118720128Y-86235000D01*
X119151925Y-86149110D01*
X119558669Y-85980631D01*
X119924729Y-85736038D01*
X120236038Y-85424729D01*
X120480631Y-85058669D01*
X120649110Y-84651925D01*
X120735000Y-84220128D01*
X120735000Y-83779872D01*
X120649110Y-83348075D01*
X120480631Y-82941331D01*
X120236038Y-82575271D01*
X119924729Y-82263962D01*
X119558669Y-82019369D01*
X119151925Y-81850890D01*
X118720128Y-81765000D01*
X118279872Y-81765000D01*
X117848075Y-81850890D01*
X117441331Y-82019369D01*
X117075271Y-82263962D01*
X116763962Y-82575271D01*
X116519369Y-82941331D01*
X116350890Y-83348075D01*
X116265000Y-83779872D01*
X111160000Y-83779872D01*
X111160000Y-81160000D01*
X125873000Y-81160000D01*
X125873000Y-81536928D01*
G37*
G04 #@! TD.AperFunction*
D12*
X184840001Y-121840000D02*
X170127000Y-121840000D01*
X170127000Y-121575572D01*
X170225003Y-121575572D01*
X170398257Y-121558508D01*
X170564852Y-121507972D01*
X170718388Y-121425905D01*
X170737768Y-121410000D01*
X172369249Y-121410000D01*
X172425000Y-121415491D01*
X172480751Y-121410000D01*
X172480752Y-121410000D01*
X172647499Y-121393577D01*
X172861447Y-121328676D01*
X173058623Y-121223284D01*
X173231449Y-121081449D01*
X173266994Y-121038138D01*
X173354489Y-120950643D01*
X173354494Y-120950637D01*
X173587959Y-120717172D01*
X173697567Y-120683923D01*
X173848942Y-120603012D01*
X173981623Y-120494123D01*
X174090512Y-120361442D01*
X174171423Y-120210067D01*
X174221248Y-120045816D01*
X174238072Y-119875000D01*
X174238072Y-119815646D01*
X174243577Y-119797499D01*
X174265491Y-119575000D01*
X174243577Y-119352501D01*
X174238072Y-119334354D01*
X174238072Y-119275000D01*
X174221248Y-119104184D01*
X174171423Y-118939933D01*
X174090512Y-118788558D01*
X174083384Y-118779872D01*
X175265000Y-118779872D01*
X175265000Y-119220128D01*
X175350890Y-119651925D01*
X175519369Y-120058669D01*
X175763962Y-120424729D01*
X176075271Y-120736038D01*
X176441331Y-120980631D01*
X176848075Y-121149110D01*
X177279872Y-121235000D01*
X177720128Y-121235000D01*
X178151925Y-121149110D01*
X178558669Y-120980631D01*
X178924729Y-120736038D01*
X179236038Y-120424729D01*
X179480631Y-120058669D01*
X179649110Y-119651925D01*
X179735000Y-119220128D01*
X179735000Y-118779872D01*
X179649110Y-118348075D01*
X179480631Y-117941331D01*
X179236038Y-117575271D01*
X178924729Y-117263962D01*
X178558669Y-117019369D01*
X178151925Y-116850890D01*
X177720128Y-116765000D01*
X177279872Y-116765000D01*
X176848075Y-116850890D01*
X176441331Y-117019369D01*
X176075271Y-117263962D01*
X175763962Y-117575271D01*
X175519369Y-117941331D01*
X175350890Y-118348075D01*
X175265000Y-118779872D01*
X174083384Y-118779872D01*
X173981623Y-118655877D01*
X173848942Y-118546988D01*
X173697567Y-118466077D01*
X173533316Y-118416252D01*
X173362500Y-118399428D01*
X172887500Y-118399428D01*
X172716684Y-118416252D01*
X172638397Y-118440000D01*
X172111603Y-118440000D01*
X172033316Y-118416252D01*
X171862500Y-118399428D01*
X171387500Y-118399428D01*
X171216684Y-118416252D01*
X171138397Y-118440000D01*
X170127000Y-118440000D01*
X170127000Y-118115625D01*
X170124560Y-118090849D01*
X170117333Y-118067024D01*
X170105597Y-118045068D01*
X170089803Y-118025822D01*
X170070557Y-118010028D01*
X170048601Y-117998292D01*
X170024776Y-117991065D01*
X170000091Y-117988625D01*
X126727000Y-117957466D01*
X126727000Y-115617680D01*
X169999945Y-115636375D01*
X170024723Y-115633945D01*
X170048550Y-115626729D01*
X170070512Y-115615002D01*
X170089764Y-115599216D01*
X170105566Y-115579978D01*
X170117312Y-115558026D01*
X170124549Y-115534205D01*
X170127000Y-115509375D01*
X170127000Y-114675572D01*
X170225003Y-114675572D01*
X170398257Y-114658508D01*
X170564852Y-114607972D01*
X170718388Y-114525905D01*
X170737768Y-114510000D01*
X172369249Y-114510000D01*
X172425000Y-114515491D01*
X172480751Y-114510000D01*
X172480752Y-114510000D01*
X172647499Y-114493577D01*
X172861447Y-114428676D01*
X173058623Y-114323284D01*
X173231449Y-114181449D01*
X173266996Y-114138135D01*
X173587959Y-113817172D01*
X173697567Y-113783923D01*
X173848942Y-113703012D01*
X173981623Y-113594123D01*
X174090512Y-113461442D01*
X174171423Y-113310067D01*
X174221248Y-113145816D01*
X174238072Y-112975000D01*
X174238072Y-112915646D01*
X174243577Y-112897499D01*
X174265491Y-112675000D01*
X174243577Y-112452501D01*
X174238072Y-112434354D01*
X174238072Y-112375000D01*
X174221248Y-112204184D01*
X174171423Y-112039933D01*
X174090512Y-111888558D01*
X173981623Y-111755877D01*
X173848942Y-111646988D01*
X173697567Y-111566077D01*
X173533316Y-111516252D01*
X173362500Y-111499428D01*
X172887500Y-111499428D01*
X172716684Y-111516252D01*
X172638397Y-111540000D01*
X172111603Y-111540000D01*
X172033316Y-111516252D01*
X171862500Y-111499428D01*
X171387500Y-111499428D01*
X171216684Y-111516252D01*
X171138397Y-111540000D01*
X170127000Y-111540000D01*
X170127000Y-111333125D01*
X170124560Y-111308349D01*
X170117333Y-111284524D01*
X170105597Y-111262568D01*
X170089803Y-111243322D01*
X170070557Y-111227528D01*
X170048601Y-111215792D01*
X170024776Y-111208565D01*
X170000194Y-111206125D01*
X126727000Y-111140069D01*
X126727000Y-108852066D01*
X169999934Y-108874500D01*
X170024712Y-108872073D01*
X170048540Y-108864858D01*
X170070503Y-108853133D01*
X170089756Y-108837349D01*
X170105560Y-108818112D01*
X170117307Y-108796162D01*
X170124547Y-108772341D01*
X170127000Y-108747500D01*
X170127000Y-108008072D01*
X170225003Y-108008072D01*
X170398257Y-107991008D01*
X170564852Y-107940472D01*
X170718388Y-107858405D01*
X170737768Y-107842500D01*
X170869283Y-107842500D01*
X170925034Y-107847991D01*
X170980785Y-107842500D01*
X172369283Y-107842500D01*
X172425034Y-107847991D01*
X172480785Y-107842500D01*
X172480786Y-107842500D01*
X172647533Y-107826077D01*
X172861481Y-107761176D01*
X173058657Y-107655784D01*
X173231483Y-107513949D01*
X173267030Y-107470635D01*
X173605950Y-107131715D01*
X173666971Y-107113204D01*
X175265000Y-107113204D01*
X175265000Y-107553460D01*
X175350890Y-107985257D01*
X175519369Y-108392001D01*
X175763962Y-108758061D01*
X176075271Y-109069370D01*
X176441331Y-109313963D01*
X176848075Y-109482442D01*
X177279872Y-109568332D01*
X177720128Y-109568332D01*
X178151925Y-109482442D01*
X178558669Y-109313963D01*
X178924729Y-109069370D01*
X179236038Y-108758061D01*
X179480631Y-108392001D01*
X179649110Y-107985257D01*
X179735000Y-107553460D01*
X179735000Y-107113204D01*
X179649110Y-106681407D01*
X179480631Y-106274663D01*
X179236038Y-105908603D01*
X178924729Y-105597294D01*
X178558669Y-105352701D01*
X178151925Y-105184222D01*
X177720128Y-105098332D01*
X177279872Y-105098332D01*
X176848075Y-105184222D01*
X176441331Y-105352701D01*
X176075271Y-105597294D01*
X175763962Y-105908603D01*
X175519369Y-106274663D01*
X175350890Y-106681407D01*
X175265000Y-107113204D01*
X173666971Y-107113204D01*
X173697567Y-107103923D01*
X173848942Y-107023012D01*
X173981623Y-106914123D01*
X174090512Y-106781442D01*
X174171423Y-106630067D01*
X174221248Y-106465816D01*
X174238072Y-106295000D01*
X174238072Y-106248258D01*
X174243611Y-106229999D01*
X174265525Y-106007500D01*
X174243611Y-105785001D01*
X174238072Y-105766742D01*
X174238072Y-105695000D01*
X174221248Y-105524184D01*
X174171423Y-105359933D01*
X174090512Y-105208558D01*
X173981623Y-105075877D01*
X173848942Y-104966988D01*
X173697567Y-104886077D01*
X173533316Y-104836252D01*
X173362500Y-104819428D01*
X172887500Y-104819428D01*
X172716684Y-104836252D01*
X172597190Y-104872500D01*
X172152810Y-104872500D01*
X172033316Y-104836252D01*
X171862500Y-104819428D01*
X171387500Y-104819428D01*
X171216684Y-104836252D01*
X171097190Y-104872500D01*
X170127000Y-104872500D01*
X170127000Y-104752500D01*
X170124560Y-104727724D01*
X170117333Y-104703899D01*
X170105597Y-104681943D01*
X170089803Y-104662697D01*
X170070557Y-104646903D01*
X170048601Y-104635167D01*
X170024776Y-104627940D01*
X169999861Y-104625500D01*
X126727000Y-104672861D01*
X126727000Y-101926854D01*
X170000146Y-101877000D01*
X170024920Y-101874531D01*
X170048736Y-101867277D01*
X170070679Y-101855515D01*
X170089906Y-101839699D01*
X170105678Y-101820436D01*
X170117389Y-101798466D01*
X170124588Y-101774633D01*
X170127000Y-101750000D01*
X170127000Y-101013072D01*
X170225003Y-101013072D01*
X170398257Y-100996008D01*
X170564852Y-100945472D01*
X170718388Y-100863405D01*
X170737768Y-100847500D01*
X172369249Y-100847500D01*
X172425000Y-100852991D01*
X172480751Y-100847500D01*
X172480752Y-100847500D01*
X172647499Y-100831077D01*
X172861447Y-100766176D01*
X173058623Y-100660784D01*
X173231449Y-100518949D01*
X173266996Y-100475635D01*
X173587959Y-100154672D01*
X173697567Y-100121423D01*
X173848942Y-100040512D01*
X173981623Y-99931623D01*
X174090512Y-99798942D01*
X174171423Y-99647567D01*
X174221248Y-99483316D01*
X174238072Y-99312500D01*
X174238072Y-99253146D01*
X174243577Y-99234999D01*
X174265491Y-99012500D01*
X174243577Y-98790001D01*
X174238072Y-98771854D01*
X174238072Y-98712500D01*
X174221248Y-98541684D01*
X174171423Y-98377433D01*
X174090512Y-98226058D01*
X173981623Y-98093377D01*
X173848942Y-97984488D01*
X173697567Y-97903577D01*
X173533316Y-97853752D01*
X173362500Y-97836928D01*
X172887500Y-97836928D01*
X172716684Y-97853752D01*
X172638397Y-97877500D01*
X172111603Y-97877500D01*
X172033316Y-97853752D01*
X171862500Y-97836928D01*
X171387500Y-97836928D01*
X171216684Y-97853752D01*
X171138397Y-97877500D01*
X170127000Y-97877500D01*
X170127000Y-97575000D01*
X170124560Y-97550224D01*
X170117333Y-97526399D01*
X170105597Y-97504443D01*
X170089803Y-97485197D01*
X170070557Y-97469403D01*
X170048601Y-97457667D01*
X170024776Y-97450440D01*
X169999854Y-97448000D01*
X126727000Y-97497854D01*
X126727000Y-95446538D01*
X175265000Y-95446538D01*
X175265000Y-95886794D01*
X175350890Y-96318591D01*
X175519369Y-96725335D01*
X175763962Y-97091395D01*
X176075271Y-97402704D01*
X176441331Y-97647297D01*
X176848075Y-97815776D01*
X177279872Y-97901666D01*
X177720128Y-97901666D01*
X178151925Y-97815776D01*
X178558669Y-97647297D01*
X178924729Y-97402704D01*
X179236038Y-97091395D01*
X179480631Y-96725335D01*
X179649110Y-96318591D01*
X179735000Y-95886794D01*
X179735000Y-95446538D01*
X179649110Y-95014741D01*
X179480631Y-94607997D01*
X179236038Y-94241937D01*
X178924729Y-93930628D01*
X178558669Y-93686035D01*
X178151925Y-93517556D01*
X177720128Y-93431666D01*
X177279872Y-93431666D01*
X176848075Y-93517556D01*
X176441331Y-93686035D01*
X176075271Y-93930628D01*
X175763962Y-94241937D01*
X175519369Y-94607997D01*
X175350890Y-95014741D01*
X175265000Y-95446538D01*
X126727000Y-95446538D01*
X126727000Y-94927000D01*
X170000000Y-94927000D01*
X170024776Y-94924560D01*
X170048601Y-94917333D01*
X170070557Y-94905597D01*
X170089803Y-94889803D01*
X170105597Y-94870557D01*
X170117333Y-94848601D01*
X170124560Y-94824776D01*
X170127000Y-94800000D01*
X170127000Y-94018072D01*
X170175003Y-94018072D01*
X170348257Y-94001008D01*
X170514852Y-93950472D01*
X170668388Y-93868405D01*
X170687768Y-93852500D01*
X170819266Y-93852500D01*
X170875017Y-93857991D01*
X170930768Y-93852500D01*
X172319266Y-93852500D01*
X172375017Y-93857991D01*
X172430768Y-93852500D01*
X172430769Y-93852500D01*
X172597516Y-93836077D01*
X172811464Y-93771176D01*
X173008640Y-93665784D01*
X173181466Y-93523949D01*
X173217013Y-93480635D01*
X173537976Y-93159672D01*
X173647584Y-93126423D01*
X173798959Y-93045512D01*
X173931640Y-92936623D01*
X174040529Y-92803942D01*
X174121440Y-92652567D01*
X174171265Y-92488316D01*
X174188089Y-92317500D01*
X174188089Y-92258146D01*
X174193594Y-92239999D01*
X174215508Y-92017500D01*
X174193594Y-91795001D01*
X174188089Y-91776854D01*
X174188089Y-91717500D01*
X174171265Y-91546684D01*
X174121440Y-91382433D01*
X174040529Y-91231058D01*
X173931640Y-91098377D01*
X173798959Y-90989488D01*
X173647584Y-90908577D01*
X173483333Y-90858752D01*
X173312517Y-90841928D01*
X172837517Y-90841928D01*
X172666701Y-90858752D01*
X172588414Y-90882500D01*
X172061620Y-90882500D01*
X171983333Y-90858752D01*
X171812517Y-90841928D01*
X171337517Y-90841928D01*
X171166701Y-90858752D01*
X171088414Y-90882500D01*
X170127000Y-90882500D01*
X170127000Y-90587500D01*
X170124560Y-90562724D01*
X170117333Y-90538899D01*
X170105597Y-90516943D01*
X170089803Y-90497697D01*
X170070557Y-90481903D01*
X170048601Y-90470167D01*
X170024776Y-90462940D01*
X169999927Y-90460500D01*
X126727000Y-90485427D01*
X126727000Y-88151927D01*
X170000073Y-88127000D01*
X170024848Y-88124545D01*
X170048668Y-88117305D01*
X170070618Y-88105556D01*
X170089854Y-88089751D01*
X170105637Y-88070497D01*
X170117361Y-88048533D01*
X170124574Y-88024705D01*
X170127000Y-88000000D01*
X170127000Y-87263072D01*
X170225003Y-87263072D01*
X170398257Y-87246008D01*
X170564852Y-87195472D01*
X170718388Y-87113405D01*
X170737768Y-87097500D01*
X170869249Y-87097500D01*
X170925000Y-87102991D01*
X170980751Y-87097500D01*
X172369249Y-87097500D01*
X172425000Y-87102991D01*
X172480751Y-87097500D01*
X172480752Y-87097500D01*
X172647499Y-87081077D01*
X172861447Y-87016176D01*
X173058623Y-86910784D01*
X173231449Y-86768949D01*
X173266996Y-86725635D01*
X173587959Y-86404672D01*
X173697567Y-86371423D01*
X173848942Y-86290512D01*
X173981623Y-86181623D01*
X174090512Y-86048942D01*
X174171423Y-85897567D01*
X174221248Y-85733316D01*
X174238072Y-85562500D01*
X174238072Y-85503146D01*
X174243577Y-85484999D01*
X174265491Y-85262500D01*
X174243577Y-85040001D01*
X174238072Y-85021854D01*
X174238072Y-84962500D01*
X174221248Y-84791684D01*
X174171423Y-84627433D01*
X174090512Y-84476058D01*
X173981623Y-84343377D01*
X173848942Y-84234488D01*
X173697567Y-84153577D01*
X173533316Y-84103752D01*
X173362500Y-84086928D01*
X172887500Y-84086928D01*
X172716684Y-84103752D01*
X172638397Y-84127500D01*
X172111603Y-84127500D01*
X172033316Y-84103752D01*
X171862500Y-84086928D01*
X171387500Y-84086928D01*
X171216684Y-84103752D01*
X171138397Y-84127500D01*
X170127000Y-84127500D01*
X170127000Y-83900000D01*
X170124560Y-83875224D01*
X170117333Y-83851399D01*
X170105597Y-83829443D01*
X170089803Y-83810197D01*
X170070557Y-83794403D01*
X170048601Y-83782667D01*
X170039387Y-83779872D01*
X175265000Y-83779872D01*
X175265000Y-84220128D01*
X175350890Y-84651925D01*
X175519369Y-85058669D01*
X175763962Y-85424729D01*
X176075271Y-85736038D01*
X176441331Y-85980631D01*
X176848075Y-86149110D01*
X177279872Y-86235000D01*
X177720128Y-86235000D01*
X178151925Y-86149110D01*
X178558669Y-85980631D01*
X178924729Y-85736038D01*
X179236038Y-85424729D01*
X179480631Y-85058669D01*
X179649110Y-84651925D01*
X179735000Y-84220128D01*
X179735000Y-83779872D01*
X179649110Y-83348075D01*
X179480631Y-82941331D01*
X179236038Y-82575271D01*
X178924729Y-82263962D01*
X178558669Y-82019369D01*
X178151925Y-81850890D01*
X177720128Y-81765000D01*
X177279872Y-81765000D01*
X176848075Y-81850890D01*
X176441331Y-82019369D01*
X176075271Y-82263962D01*
X175763962Y-82575271D01*
X175519369Y-82941331D01*
X175350890Y-83348075D01*
X175265000Y-83779872D01*
X170039387Y-83779872D01*
X170024776Y-83775440D01*
X170000000Y-83773000D01*
X126827000Y-83773000D01*
X126827000Y-81160000D01*
X184840000Y-81160000D01*
X184840001Y-121840000D01*
G04 #@! TA.AperFunction,Conductor*
D13*
G36*
X184840001Y-121840000D02*
G01*
X170127000Y-121840000D01*
X170127000Y-121575572D01*
X170225003Y-121575572D01*
X170398257Y-121558508D01*
X170564852Y-121507972D01*
X170718388Y-121425905D01*
X170737768Y-121410000D01*
X172369249Y-121410000D01*
X172425000Y-121415491D01*
X172480751Y-121410000D01*
X172480752Y-121410000D01*
X172647499Y-121393577D01*
X172861447Y-121328676D01*
X173058623Y-121223284D01*
X173231449Y-121081449D01*
X173266994Y-121038138D01*
X173354489Y-120950643D01*
X173354494Y-120950637D01*
X173587959Y-120717172D01*
X173697567Y-120683923D01*
X173848942Y-120603012D01*
X173981623Y-120494123D01*
X174090512Y-120361442D01*
X174171423Y-120210067D01*
X174221248Y-120045816D01*
X174238072Y-119875000D01*
X174238072Y-119815646D01*
X174243577Y-119797499D01*
X174265491Y-119575000D01*
X174243577Y-119352501D01*
X174238072Y-119334354D01*
X174238072Y-119275000D01*
X174221248Y-119104184D01*
X174171423Y-118939933D01*
X174090512Y-118788558D01*
X174083384Y-118779872D01*
X175265000Y-118779872D01*
X175265000Y-119220128D01*
X175350890Y-119651925D01*
X175519369Y-120058669D01*
X175763962Y-120424729D01*
X176075271Y-120736038D01*
X176441331Y-120980631D01*
X176848075Y-121149110D01*
X177279872Y-121235000D01*
X177720128Y-121235000D01*
X178151925Y-121149110D01*
X178558669Y-120980631D01*
X178924729Y-120736038D01*
X179236038Y-120424729D01*
X179480631Y-120058669D01*
X179649110Y-119651925D01*
X179735000Y-119220128D01*
X179735000Y-118779872D01*
X179649110Y-118348075D01*
X179480631Y-117941331D01*
X179236038Y-117575271D01*
X178924729Y-117263962D01*
X178558669Y-117019369D01*
X178151925Y-116850890D01*
X177720128Y-116765000D01*
X177279872Y-116765000D01*
X176848075Y-116850890D01*
X176441331Y-117019369D01*
X176075271Y-117263962D01*
X175763962Y-117575271D01*
X175519369Y-117941331D01*
X175350890Y-118348075D01*
X175265000Y-118779872D01*
X174083384Y-118779872D01*
X173981623Y-118655877D01*
X173848942Y-118546988D01*
X173697567Y-118466077D01*
X173533316Y-118416252D01*
X173362500Y-118399428D01*
X172887500Y-118399428D01*
X172716684Y-118416252D01*
X172638397Y-118440000D01*
X172111603Y-118440000D01*
X172033316Y-118416252D01*
X171862500Y-118399428D01*
X171387500Y-118399428D01*
X171216684Y-118416252D01*
X171138397Y-118440000D01*
X170127000Y-118440000D01*
X170127000Y-118115625D01*
X170124560Y-118090849D01*
X170117333Y-118067024D01*
X170105597Y-118045068D01*
X170089803Y-118025822D01*
X170070557Y-118010028D01*
X170048601Y-117998292D01*
X170024776Y-117991065D01*
X170000091Y-117988625D01*
X126727000Y-117957466D01*
X126727000Y-115617680D01*
X169999945Y-115636375D01*
X170024723Y-115633945D01*
X170048550Y-115626729D01*
X170070512Y-115615002D01*
X170089764Y-115599216D01*
X170105566Y-115579978D01*
X170117312Y-115558026D01*
X170124549Y-115534205D01*
X170127000Y-115509375D01*
X170127000Y-114675572D01*
X170225003Y-114675572D01*
X170398257Y-114658508D01*
X170564852Y-114607972D01*
X170718388Y-114525905D01*
X170737768Y-114510000D01*
X172369249Y-114510000D01*
X172425000Y-114515491D01*
X172480751Y-114510000D01*
X172480752Y-114510000D01*
X172647499Y-114493577D01*
X172861447Y-114428676D01*
X173058623Y-114323284D01*
X173231449Y-114181449D01*
X173266996Y-114138135D01*
X173587959Y-113817172D01*
X173697567Y-113783923D01*
X173848942Y-113703012D01*
X173981623Y-113594123D01*
X174090512Y-113461442D01*
X174171423Y-113310067D01*
X174221248Y-113145816D01*
X174238072Y-112975000D01*
X174238072Y-112915646D01*
X174243577Y-112897499D01*
X174265491Y-112675000D01*
X174243577Y-112452501D01*
X174238072Y-112434354D01*
X174238072Y-112375000D01*
X174221248Y-112204184D01*
X174171423Y-112039933D01*
X174090512Y-111888558D01*
X173981623Y-111755877D01*
X173848942Y-111646988D01*
X173697567Y-111566077D01*
X173533316Y-111516252D01*
X173362500Y-111499428D01*
X172887500Y-111499428D01*
X172716684Y-111516252D01*
X172638397Y-111540000D01*
X172111603Y-111540000D01*
X172033316Y-111516252D01*
X171862500Y-111499428D01*
X171387500Y-111499428D01*
X171216684Y-111516252D01*
X171138397Y-111540000D01*
X170127000Y-111540000D01*
X170127000Y-111333125D01*
X170124560Y-111308349D01*
X170117333Y-111284524D01*
X170105597Y-111262568D01*
X170089803Y-111243322D01*
X170070557Y-111227528D01*
X170048601Y-111215792D01*
X170024776Y-111208565D01*
X170000194Y-111206125D01*
X126727000Y-111140069D01*
X126727000Y-108852066D01*
X169999934Y-108874500D01*
X170024712Y-108872073D01*
X170048540Y-108864858D01*
X170070503Y-108853133D01*
X170089756Y-108837349D01*
X170105560Y-108818112D01*
X170117307Y-108796162D01*
X170124547Y-108772341D01*
X170127000Y-108747500D01*
X170127000Y-108008072D01*
X170225003Y-108008072D01*
X170398257Y-107991008D01*
X170564852Y-107940472D01*
X170718388Y-107858405D01*
X170737768Y-107842500D01*
X170869283Y-107842500D01*
X170925034Y-107847991D01*
X170980785Y-107842500D01*
X172369283Y-107842500D01*
X172425034Y-107847991D01*
X172480785Y-107842500D01*
X172480786Y-107842500D01*
X172647533Y-107826077D01*
X172861481Y-107761176D01*
X173058657Y-107655784D01*
X173231483Y-107513949D01*
X173267030Y-107470635D01*
X173605950Y-107131715D01*
X173666971Y-107113204D01*
X175265000Y-107113204D01*
X175265000Y-107553460D01*
X175350890Y-107985257D01*
X175519369Y-108392001D01*
X175763962Y-108758061D01*
X176075271Y-109069370D01*
X176441331Y-109313963D01*
X176848075Y-109482442D01*
X177279872Y-109568332D01*
X177720128Y-109568332D01*
X178151925Y-109482442D01*
X178558669Y-109313963D01*
X178924729Y-109069370D01*
X179236038Y-108758061D01*
X179480631Y-108392001D01*
X179649110Y-107985257D01*
X179735000Y-107553460D01*
X179735000Y-107113204D01*
X179649110Y-106681407D01*
X179480631Y-106274663D01*
X179236038Y-105908603D01*
X178924729Y-105597294D01*
X178558669Y-105352701D01*
X178151925Y-105184222D01*
X177720128Y-105098332D01*
X177279872Y-105098332D01*
X176848075Y-105184222D01*
X176441331Y-105352701D01*
X176075271Y-105597294D01*
X175763962Y-105908603D01*
X175519369Y-106274663D01*
X175350890Y-106681407D01*
X175265000Y-107113204D01*
X173666971Y-107113204D01*
X173697567Y-107103923D01*
X173848942Y-107023012D01*
X173981623Y-106914123D01*
X174090512Y-106781442D01*
X174171423Y-106630067D01*
X174221248Y-106465816D01*
X174238072Y-106295000D01*
X174238072Y-106248258D01*
X174243611Y-106229999D01*
X174265525Y-106007500D01*
X174243611Y-105785001D01*
X174238072Y-105766742D01*
X174238072Y-105695000D01*
X174221248Y-105524184D01*
X174171423Y-105359933D01*
X174090512Y-105208558D01*
X173981623Y-105075877D01*
X173848942Y-104966988D01*
X173697567Y-104886077D01*
X173533316Y-104836252D01*
X173362500Y-104819428D01*
X172887500Y-104819428D01*
X172716684Y-104836252D01*
X172597190Y-104872500D01*
X172152810Y-104872500D01*
X172033316Y-104836252D01*
X171862500Y-104819428D01*
X171387500Y-104819428D01*
X171216684Y-104836252D01*
X171097190Y-104872500D01*
X170127000Y-104872500D01*
X170127000Y-104752500D01*
X170124560Y-104727724D01*
X170117333Y-104703899D01*
X170105597Y-104681943D01*
X170089803Y-104662697D01*
X170070557Y-104646903D01*
X170048601Y-104635167D01*
X170024776Y-104627940D01*
X169999861Y-104625500D01*
X126727000Y-104672861D01*
X126727000Y-101926854D01*
X170000146Y-101877000D01*
X170024920Y-101874531D01*
X170048736Y-101867277D01*
X170070679Y-101855515D01*
X170089906Y-101839699D01*
X170105678Y-101820436D01*
X170117389Y-101798466D01*
X170124588Y-101774633D01*
X170127000Y-101750000D01*
X170127000Y-101013072D01*
X170225003Y-101013072D01*
X170398257Y-100996008D01*
X170564852Y-100945472D01*
X170718388Y-100863405D01*
X170737768Y-100847500D01*
X172369249Y-100847500D01*
X172425000Y-100852991D01*
X172480751Y-100847500D01*
X172480752Y-100847500D01*
X172647499Y-100831077D01*
X172861447Y-100766176D01*
X173058623Y-100660784D01*
X173231449Y-100518949D01*
X173266996Y-100475635D01*
X173587959Y-100154672D01*
X173697567Y-100121423D01*
X173848942Y-100040512D01*
X173981623Y-99931623D01*
X174090512Y-99798942D01*
X174171423Y-99647567D01*
X174221248Y-99483316D01*
X174238072Y-99312500D01*
X174238072Y-99253146D01*
X174243577Y-99234999D01*
X174265491Y-99012500D01*
X174243577Y-98790001D01*
X174238072Y-98771854D01*
X174238072Y-98712500D01*
X174221248Y-98541684D01*
X174171423Y-98377433D01*
X174090512Y-98226058D01*
X173981623Y-98093377D01*
X173848942Y-97984488D01*
X173697567Y-97903577D01*
X173533316Y-97853752D01*
X173362500Y-97836928D01*
X172887500Y-97836928D01*
X172716684Y-97853752D01*
X172638397Y-97877500D01*
X172111603Y-97877500D01*
X172033316Y-97853752D01*
X171862500Y-97836928D01*
X171387500Y-97836928D01*
X171216684Y-97853752D01*
X171138397Y-97877500D01*
X170127000Y-97877500D01*
X170127000Y-97575000D01*
X170124560Y-97550224D01*
X170117333Y-97526399D01*
X170105597Y-97504443D01*
X170089803Y-97485197D01*
X170070557Y-97469403D01*
X170048601Y-97457667D01*
X170024776Y-97450440D01*
X169999854Y-97448000D01*
X126727000Y-97497854D01*
X126727000Y-95446538D01*
X175265000Y-95446538D01*
X175265000Y-95886794D01*
X175350890Y-96318591D01*
X175519369Y-96725335D01*
X175763962Y-97091395D01*
X176075271Y-97402704D01*
X176441331Y-97647297D01*
X176848075Y-97815776D01*
X177279872Y-97901666D01*
X177720128Y-97901666D01*
X178151925Y-97815776D01*
X178558669Y-97647297D01*
X178924729Y-97402704D01*
X179236038Y-97091395D01*
X179480631Y-96725335D01*
X179649110Y-96318591D01*
X179735000Y-95886794D01*
X179735000Y-95446538D01*
X179649110Y-95014741D01*
X179480631Y-94607997D01*
X179236038Y-94241937D01*
X178924729Y-93930628D01*
X178558669Y-93686035D01*
X178151925Y-93517556D01*
X177720128Y-93431666D01*
X177279872Y-93431666D01*
X176848075Y-93517556D01*
X176441331Y-93686035D01*
X176075271Y-93930628D01*
X175763962Y-94241937D01*
X175519369Y-94607997D01*
X175350890Y-95014741D01*
X175265000Y-95446538D01*
X126727000Y-95446538D01*
X126727000Y-94927000D01*
X170000000Y-94927000D01*
X170024776Y-94924560D01*
X170048601Y-94917333D01*
X170070557Y-94905597D01*
X170089803Y-94889803D01*
X170105597Y-94870557D01*
X170117333Y-94848601D01*
X170124560Y-94824776D01*
X170127000Y-94800000D01*
X170127000Y-94018072D01*
X170175003Y-94018072D01*
X170348257Y-94001008D01*
X170514852Y-93950472D01*
X170668388Y-93868405D01*
X170687768Y-93852500D01*
X170819266Y-93852500D01*
X170875017Y-93857991D01*
X170930768Y-93852500D01*
X172319266Y-93852500D01*
X172375017Y-93857991D01*
X172430768Y-93852500D01*
X172430769Y-93852500D01*
X172597516Y-93836077D01*
X172811464Y-93771176D01*
X173008640Y-93665784D01*
X173181466Y-93523949D01*
X173217013Y-93480635D01*
X173537976Y-93159672D01*
X173647584Y-93126423D01*
X173798959Y-93045512D01*
X173931640Y-92936623D01*
X174040529Y-92803942D01*
X174121440Y-92652567D01*
X174171265Y-92488316D01*
X174188089Y-92317500D01*
X174188089Y-92258146D01*
X174193594Y-92239999D01*
X174215508Y-92017500D01*
X174193594Y-91795001D01*
X174188089Y-91776854D01*
X174188089Y-91717500D01*
X174171265Y-91546684D01*
X174121440Y-91382433D01*
X174040529Y-91231058D01*
X173931640Y-91098377D01*
X173798959Y-90989488D01*
X173647584Y-90908577D01*
X173483333Y-90858752D01*
X173312517Y-90841928D01*
X172837517Y-90841928D01*
X172666701Y-90858752D01*
X172588414Y-90882500D01*
X172061620Y-90882500D01*
X171983333Y-90858752D01*
X171812517Y-90841928D01*
X171337517Y-90841928D01*
X171166701Y-90858752D01*
X171088414Y-90882500D01*
X170127000Y-90882500D01*
X170127000Y-90587500D01*
X170124560Y-90562724D01*
X170117333Y-90538899D01*
X170105597Y-90516943D01*
X170089803Y-90497697D01*
X170070557Y-90481903D01*
X170048601Y-90470167D01*
X170024776Y-90462940D01*
X169999927Y-90460500D01*
X126727000Y-90485427D01*
X126727000Y-88151927D01*
X170000073Y-88127000D01*
X170024848Y-88124545D01*
X170048668Y-88117305D01*
X170070618Y-88105556D01*
X170089854Y-88089751D01*
X170105637Y-88070497D01*
X170117361Y-88048533D01*
X170124574Y-88024705D01*
X170127000Y-88000000D01*
X170127000Y-87263072D01*
X170225003Y-87263072D01*
X170398257Y-87246008D01*
X170564852Y-87195472D01*
X170718388Y-87113405D01*
X170737768Y-87097500D01*
X170869249Y-87097500D01*
X170925000Y-87102991D01*
X170980751Y-87097500D01*
X172369249Y-87097500D01*
X172425000Y-87102991D01*
X172480751Y-87097500D01*
X172480752Y-87097500D01*
X172647499Y-87081077D01*
X172861447Y-87016176D01*
X173058623Y-86910784D01*
X173231449Y-86768949D01*
X173266996Y-86725635D01*
X173587959Y-86404672D01*
X173697567Y-86371423D01*
X173848942Y-86290512D01*
X173981623Y-86181623D01*
X174090512Y-86048942D01*
X174171423Y-85897567D01*
X174221248Y-85733316D01*
X174238072Y-85562500D01*
X174238072Y-85503146D01*
X174243577Y-85484999D01*
X174265491Y-85262500D01*
X174243577Y-85040001D01*
X174238072Y-85021854D01*
X174238072Y-84962500D01*
X174221248Y-84791684D01*
X174171423Y-84627433D01*
X174090512Y-84476058D01*
X173981623Y-84343377D01*
X173848942Y-84234488D01*
X173697567Y-84153577D01*
X173533316Y-84103752D01*
X173362500Y-84086928D01*
X172887500Y-84086928D01*
X172716684Y-84103752D01*
X172638397Y-84127500D01*
X172111603Y-84127500D01*
X172033316Y-84103752D01*
X171862500Y-84086928D01*
X171387500Y-84086928D01*
X171216684Y-84103752D01*
X171138397Y-84127500D01*
X170127000Y-84127500D01*
X170127000Y-83900000D01*
X170124560Y-83875224D01*
X170117333Y-83851399D01*
X170105597Y-83829443D01*
X170089803Y-83810197D01*
X170070557Y-83794403D01*
X170048601Y-83782667D01*
X170039387Y-83779872D01*
X175265000Y-83779872D01*
X175265000Y-84220128D01*
X175350890Y-84651925D01*
X175519369Y-85058669D01*
X175763962Y-85424729D01*
X176075271Y-85736038D01*
X176441331Y-85980631D01*
X176848075Y-86149110D01*
X177279872Y-86235000D01*
X177720128Y-86235000D01*
X178151925Y-86149110D01*
X178558669Y-85980631D01*
X178924729Y-85736038D01*
X179236038Y-85424729D01*
X179480631Y-85058669D01*
X179649110Y-84651925D01*
X179735000Y-84220128D01*
X179735000Y-83779872D01*
X179649110Y-83348075D01*
X179480631Y-82941331D01*
X179236038Y-82575271D01*
X178924729Y-82263962D01*
X178558669Y-82019369D01*
X178151925Y-81850890D01*
X177720128Y-81765000D01*
X177279872Y-81765000D01*
X176848075Y-81850890D01*
X176441331Y-82019369D01*
X176075271Y-82263962D01*
X175763962Y-82575271D01*
X175519369Y-82941331D01*
X175350890Y-83348075D01*
X175265000Y-83779872D01*
X170039387Y-83779872D01*
X170024776Y-83775440D01*
X170000000Y-83773000D01*
X126827000Y-83773000D01*
X126827000Y-81160000D01*
X184840000Y-81160000D01*
X184840001Y-121840000D01*
G37*
G04 #@! TD.AperFunction*
M02*
