M48
; DRILL file {KiCad 5.1.9} date Mon Apr 12 04:53:28 2021
; FORMAT={-:-/ absolute / metric / decimal}
; #@! TF.CreationDate,2021-04-12T04:53:28-03:00
; #@! TF.GenerationSoftware,Kicad,Pcbnew,5.1.9
; #@! TF.FileFunction,Plated,1,2,PTH
FMAT,2
METRIC
T1C0.300
%
G90
G05
T1
X111.5Y-81.5
X111.5Y-83.5
X111.5Y-85.5
X111.5Y-87.5
X111.5Y-89.5
X111.5Y-91.5
X111.5Y-93.5
X111.5Y-95.5
X111.5Y-97.5
X111.5Y-99.5
X111.5Y-101.5
X111.5Y-103.5
X111.5Y-105.5
X111.5Y-107.5
X111.5Y-109.5
X111.5Y-111.5
X111.5Y-113.5
X111.5Y-115.5
X111.5Y-117.5
X111.5Y-119.5
X111.5Y-121.5
X112.0Y-82.5
X112.0Y-84.5
X112.0Y-86.5
X112.0Y-88.5
X112.0Y-90.5
X112.0Y-92.5
X112.0Y-94.5
X112.0Y-96.5
X112.0Y-98.5
X112.0Y-100.5
X112.0Y-102.5
X112.0Y-104.5
X112.0Y-106.5
X112.0Y-108.5
X112.0Y-110.5
X112.0Y-112.5
X112.0Y-114.5
X112.0Y-116.5
X112.0Y-118.5
X112.0Y-120.5
X112.5Y-81.5
X112.5Y-83.5
X112.5Y-85.5
X112.5Y-87.5
X112.5Y-89.5
X112.5Y-91.5
X112.5Y-93.5
X112.5Y-95.5
X112.5Y-97.5
X112.5Y-99.5
X112.5Y-101.5
X112.5Y-103.5
X112.5Y-105.5
X112.5Y-107.5
X112.5Y-109.5
X112.5Y-111.5
X112.5Y-113.5
X112.5Y-115.5
X112.5Y-117.5
X112.5Y-119.5
X112.5Y-121.5
X113.0Y-82.5
X113.0Y-84.5
X113.0Y-86.5
X113.0Y-88.5
X113.0Y-90.5
X113.0Y-92.5
X113.0Y-94.5
X113.0Y-96.5
X113.0Y-98.5
X113.0Y-100.5
X113.0Y-102.5
X113.0Y-104.5
X113.0Y-106.5
X113.0Y-108.5
X113.0Y-110.5
X113.0Y-112.5
X113.0Y-114.5
X113.0Y-116.5
X113.0Y-118.5
X113.0Y-120.5
X113.5Y-81.5
X113.5Y-83.5
X113.5Y-85.5
X113.5Y-87.5
X113.5Y-89.5
X113.5Y-91.5
X113.5Y-93.5
X113.5Y-95.5
X113.5Y-97.5
X113.5Y-99.5
X113.5Y-101.5
X113.5Y-103.5
X113.5Y-105.5
X113.5Y-107.5
X113.5Y-109.5
X113.5Y-111.5
X113.5Y-113.5
X113.5Y-115.5
X113.5Y-117.5
X113.5Y-119.5
X113.5Y-121.5
X114.0Y-82.5
X114.0Y-84.5
X114.0Y-86.5
X114.0Y-88.5
X114.0Y-90.5
X114.0Y-92.5
X114.0Y-94.5
X114.0Y-96.5
X114.0Y-98.5
X114.0Y-100.5
X114.0Y-102.5
X114.0Y-104.5
X114.0Y-106.5
X114.0Y-108.5
X114.0Y-110.5
X114.0Y-112.5
X114.0Y-114.5
X114.0Y-116.5
X114.0Y-118.5
X114.0Y-120.5
X114.5Y-81.5
X114.5Y-83.5
X114.5Y-85.5
X114.5Y-87.5
X114.5Y-89.5
X114.5Y-91.5
X114.5Y-93.5
X114.5Y-95.5
X114.5Y-97.5
X114.5Y-99.5
X114.5Y-101.5
X114.5Y-103.5
X114.5Y-105.5
X114.5Y-107.5
X114.5Y-109.5
X114.5Y-111.5
X114.5Y-113.5
X114.5Y-115.5
X114.5Y-117.5
X114.5Y-119.5
X114.5Y-121.5
X115.0Y-82.5
X115.0Y-84.5
X115.0Y-86.5
X115.0Y-88.5
X115.0Y-90.5
X115.0Y-92.5
X115.0Y-94.5
X115.0Y-96.5
X115.0Y-98.5
X115.0Y-100.5
X115.0Y-102.5
X115.0Y-104.5
X115.0Y-106.5
X115.0Y-108.5
X115.0Y-110.5
X115.0Y-112.5
X115.0Y-114.5
X115.0Y-116.5
X115.0Y-118.5
X115.0Y-120.5
X115.5Y-81.5
X115.5Y-83.5
X115.5Y-85.5
X115.5Y-87.5
X115.5Y-89.5
X115.5Y-91.5
X115.5Y-93.5
X115.5Y-95.5
X115.5Y-97.5
X115.5Y-99.5
X115.5Y-101.5
X115.5Y-103.5
X115.5Y-105.5
X115.5Y-107.5
X115.5Y-109.5
X115.5Y-111.5
X115.5Y-113.5
X115.5Y-115.5
X115.5Y-117.5
X115.5Y-119.5
X115.5Y-121.5
X116.0Y-82.5
X116.0Y-84.5
X116.0Y-86.5
X116.0Y-88.5
X116.0Y-90.5
X116.0Y-92.5
X116.0Y-94.5
X116.0Y-96.5
X116.0Y-98.5
X116.0Y-100.5
X116.0Y-102.5
X116.0Y-104.5
X116.0Y-106.5
X116.0Y-108.5
X116.0Y-110.5
X116.0Y-112.5
X116.0Y-114.5
X116.0Y-116.5
X116.0Y-118.5
X116.0Y-120.5
X116.5Y-81.5
X116.5Y-87.5
X116.5Y-89.5
X116.5Y-91.5
X116.5Y-99.5
X116.5Y-101.5
X116.5Y-103.5
X116.5Y-111.5
X116.5Y-113.5
X116.5Y-115.5
X116.5Y-121.5
X117.0Y-86.5
X117.0Y-88.5
X117.0Y-90.5
X117.0Y-92.5
X117.0Y-98.5
X117.0Y-100.5
X117.0Y-102.5
X117.0Y-104.5
X117.0Y-110.5
X117.0Y-112.5
X117.0Y-114.5
X117.0Y-116.5
X117.5Y-81.5
X117.5Y-87.5
X117.5Y-89.5
X117.5Y-91.5
X117.5Y-99.5
X117.5Y-101.5
X117.5Y-103.5
X117.5Y-111.5
X117.5Y-113.5
X117.5Y-115.5
X117.5Y-121.5
X118.0Y-86.5
X118.0Y-88.5
X118.0Y-90.5
X118.0Y-92.5
X118.0Y-98.5
X118.0Y-100.5
X118.0Y-102.5
X118.0Y-104.5
X118.0Y-110.5
X118.0Y-112.5
X118.0Y-114.5
X118.0Y-116.5
X118.5Y-81.5
X118.5Y-87.5
X118.5Y-89.5
X118.5Y-91.5
X118.5Y-99.5
X118.5Y-101.5
X118.5Y-103.5
X118.5Y-111.5
X118.5Y-113.5
X118.5Y-115.5
X118.5Y-121.5
X119.0Y-86.5
X119.0Y-88.5
X119.0Y-90.5
X119.0Y-92.5
X119.0Y-98.5
X119.0Y-100.5
X119.0Y-102.5
X119.0Y-104.5
X119.0Y-110.5
X119.0Y-112.5
X119.0Y-114.5
X119.0Y-116.5
X119.5Y-81.5
X119.5Y-87.5
X119.5Y-89.5
X119.5Y-91.5
X119.5Y-99.5
X119.5Y-101.5
X119.5Y-103.5
X119.5Y-111.5
X119.5Y-113.5
X119.5Y-115.5
X119.5Y-121.5
X120.0Y-86.5
X120.0Y-88.5
X120.0Y-90.5
X120.0Y-92.5
X120.0Y-98.5
X120.0Y-100.5
X120.0Y-102.5
X120.0Y-104.5
X120.0Y-110.5
X120.0Y-112.5
X120.0Y-114.5
X120.0Y-116.5
X120.5Y-81.5
X120.5Y-87.5
X120.5Y-89.5
X120.5Y-91.5
X120.5Y-99.5
X120.5Y-101.5
X120.5Y-103.5
X120.5Y-111.5
X120.5Y-113.5
X120.5Y-115.5
X120.5Y-121.5
X121.0Y-82.5
X121.0Y-84.5
X121.0Y-86.5
X121.0Y-88.5
X121.0Y-90.5
X121.0Y-92.5
X121.0Y-94.5
X121.0Y-96.5
X121.0Y-98.5
X121.0Y-100.5
X121.0Y-102.5
X121.0Y-104.5
X121.0Y-106.5
X121.0Y-108.5
X121.0Y-110.5
X121.0Y-112.5
X121.0Y-114.5
X121.0Y-116.5
X121.0Y-118.5
X121.0Y-120.5
X121.8Y-87.0
X121.8Y-93.8
X121.9Y-100.8
X121.9Y-107.9
X121.9Y-114.6
X121.9Y-121.4
X122.8Y-87.0
X122.8Y-93.8
X122.9Y-100.8
X122.9Y-107.9
X122.9Y-114.6
X122.9Y-121.4
X123.8Y-87.0
X123.8Y-93.8
X123.9Y-100.8
X123.9Y-107.9
X123.9Y-114.6
X123.9Y-121.4
X124.8Y-87.0
X124.8Y-93.8
X124.9Y-100.8
X124.9Y-107.9
X124.9Y-114.6
X124.9Y-121.4
X125.8Y-87.0
X125.8Y-93.8
X125.9Y-100.8
X125.9Y-107.9
X125.9Y-114.6
X125.9Y-121.4
X126.8Y-87.0
X126.8Y-93.8
X126.9Y-100.8
X126.9Y-107.9
X126.9Y-114.6
X126.9Y-121.4
X127.0Y-88.5
X127.0Y-95.3
X127.0Y-102.2
X127.0Y-109.2
X127.0Y-115.9
X127.5Y-81.5
X127.8Y-87.0
X127.8Y-93.8
X127.9Y-100.8
X127.9Y-107.9
X127.9Y-114.6
X127.9Y-121.4
X128.0Y-88.5
X128.0Y-95.3
X128.0Y-102.2
X128.0Y-109.2
X128.0Y-115.9
X128.5Y-81.5
X128.8Y-87.0
X128.8Y-93.8
X128.9Y-100.8
X128.9Y-107.9
X128.9Y-114.6
X128.9Y-121.4
X129.0Y-88.5
X129.0Y-95.3
X129.0Y-102.2
X129.0Y-109.2
X129.0Y-115.9
X129.5Y-81.5
X129.8Y-87.0
X129.8Y-93.8
X129.9Y-100.8
X129.9Y-107.9
X129.9Y-114.6
X129.9Y-121.4
X130.0Y-88.5
X130.0Y-95.3
X130.0Y-102.2
X130.0Y-109.2
X130.0Y-115.9
X130.5Y-81.5
X130.8Y-87.0
X130.8Y-93.8
X130.9Y-100.8
X130.9Y-107.9
X130.9Y-114.6
X130.9Y-121.4
X131.0Y-88.5
X131.0Y-95.3
X131.0Y-102.2
X131.0Y-109.2
X131.0Y-115.9
X131.5Y-81.5
X131.8Y-87.0
X131.8Y-93.8
X131.9Y-100.8
X131.9Y-107.9
X131.9Y-114.6
X131.9Y-121.4
X132.0Y-88.5
X132.0Y-95.3
X132.0Y-102.2
X132.0Y-109.2
X132.0Y-115.9
X132.5Y-81.5
X132.8Y-87.0
X132.8Y-93.8
X132.9Y-100.8
X132.9Y-107.9
X132.9Y-114.6
X132.9Y-121.4
X133.0Y-88.5
X133.0Y-95.3
X133.0Y-102.2
X133.0Y-109.2
X133.0Y-115.9
X133.5Y-81.5
X133.8Y-87.0
X133.8Y-93.8
X133.9Y-100.8
X133.9Y-107.9
X133.9Y-114.6
X133.9Y-121.4
X134.0Y-88.5
X134.0Y-95.3
X134.0Y-102.2
X134.0Y-109.2
X134.0Y-115.9
X134.5Y-81.5
X134.8Y-87.0
X134.8Y-93.8
X134.9Y-100.8
X134.9Y-107.9
X134.9Y-114.6
X134.9Y-121.4
X135.0Y-88.5
X135.0Y-95.3
X135.0Y-102.2
X135.0Y-109.2
X135.0Y-115.9
X135.5Y-81.5
X135.8Y-87.0
X135.8Y-93.8
X135.9Y-100.8
X135.9Y-107.9
X135.9Y-114.6
X135.9Y-121.4
X136.0Y-88.5
X136.0Y-95.3
X136.0Y-102.2
X136.0Y-109.2
X136.0Y-115.9
X136.5Y-81.5
X136.8Y-87.0
X136.8Y-93.8
X136.9Y-100.8
X136.9Y-107.9
X136.9Y-114.6
X136.9Y-121.4
X137.0Y-88.5
X137.0Y-95.3
X137.0Y-102.2
X137.0Y-109.2
X137.0Y-115.9
X137.5Y-81.5
X137.8Y-87.0
X137.8Y-93.8
X137.9Y-100.8
X137.9Y-107.9
X137.9Y-114.6
X137.9Y-121.4
X138.0Y-88.5
X138.0Y-95.3
X138.0Y-102.2
X138.0Y-109.2
X138.0Y-115.9
X138.5Y-81.5
X138.8Y-87.0
X138.8Y-93.8
X138.9Y-100.8
X138.9Y-107.9
X138.9Y-114.6
X138.9Y-121.4
X139.0Y-88.5
X139.0Y-95.3
X139.0Y-102.2
X139.0Y-109.2
X139.0Y-115.9
X139.5Y-81.5
X139.8Y-87.0
X139.8Y-93.8
X139.9Y-100.8
X139.9Y-107.9
X139.9Y-114.6
X139.9Y-121.4
X140.0Y-88.5
X140.0Y-95.3
X140.0Y-102.2
X140.0Y-109.2
X140.0Y-115.9
X140.5Y-81.5
X140.8Y-87.0
X140.8Y-93.8
X140.9Y-100.8
X140.9Y-107.9
X140.9Y-114.6
X140.9Y-121.4
X141.0Y-88.5
X141.0Y-95.3
X141.0Y-102.2
X141.0Y-109.2
X141.0Y-115.9
X141.5Y-81.5
X141.8Y-87.0
X141.8Y-93.8
X141.9Y-100.8
X141.9Y-107.9
X141.9Y-114.6
X141.9Y-121.4
X142.0Y-88.5
X142.0Y-95.3
X142.0Y-102.2
X142.0Y-109.2
X142.0Y-115.9
X142.5Y-81.5
X142.8Y-87.0
X142.8Y-93.8
X142.9Y-100.8
X142.9Y-107.9
X142.9Y-114.6
X142.9Y-121.4
X143.0Y-88.5
X143.0Y-95.3
X143.0Y-102.2
X143.0Y-109.2
X143.0Y-115.9
X143.5Y-81.5
X143.8Y-87.0
X143.8Y-93.8
X143.9Y-100.8
X143.9Y-107.9
X143.9Y-114.6
X143.9Y-121.4
X144.0Y-88.5
X144.0Y-95.3
X144.0Y-102.2
X144.0Y-109.2
X144.0Y-115.9
X144.5Y-81.5
X144.8Y-87.0
X144.8Y-93.8
X144.9Y-100.8
X144.9Y-107.9
X144.9Y-114.6
X144.9Y-121.4
X145.0Y-88.5
X145.0Y-95.3
X145.0Y-102.2
X145.0Y-109.2
X145.0Y-115.9
X145.5Y-81.5
X145.8Y-87.0
X145.8Y-93.8
X145.9Y-100.8
X145.9Y-107.9
X145.9Y-114.6
X145.9Y-121.4
X146.0Y-88.5
X146.0Y-95.3
X146.0Y-102.2
X146.0Y-109.2
X146.0Y-115.9
X146.5Y-81.5
X146.8Y-87.0
X146.8Y-93.8
X146.9Y-100.8
X146.9Y-107.9
X146.9Y-114.6
X146.9Y-121.4
X147.0Y-88.5
X147.0Y-95.3
X147.0Y-102.2
X147.0Y-109.2
X147.0Y-115.9
X147.5Y-81.5
X147.8Y-87.0
X147.8Y-93.8
X147.9Y-100.8
X147.9Y-107.9
X147.9Y-114.6
X147.9Y-121.4
X148.0Y-88.5
X148.0Y-95.3
X148.0Y-102.2
X148.0Y-109.2
X148.0Y-115.9
X148.5Y-81.5
X148.8Y-87.0
X148.8Y-93.8
X148.9Y-100.8
X148.9Y-107.9
X148.9Y-114.6
X148.9Y-121.4
X149.0Y-88.5
X149.0Y-95.3
X149.0Y-102.2
X149.0Y-109.2
X149.0Y-115.9
X149.5Y-81.5
X149.8Y-87.0
X149.8Y-93.8
X149.9Y-100.8
X149.9Y-107.9
X149.9Y-114.6
X149.9Y-121.4
X150.0Y-88.5
X150.0Y-95.3
X150.0Y-102.2
X150.0Y-109.2
X150.0Y-115.9
X150.5Y-81.5
X150.8Y-87.0
X150.8Y-93.8
X150.9Y-100.8
X150.9Y-107.9
X150.9Y-114.6
X150.9Y-121.4
X151.0Y-88.5
X151.0Y-95.3
X151.0Y-102.2
X151.0Y-109.2
X151.0Y-115.9
X151.5Y-81.5
X151.8Y-87.0
X151.8Y-93.8
X151.9Y-100.8
X151.9Y-107.9
X151.9Y-114.6
X151.9Y-121.4
X152.0Y-88.5
X152.0Y-95.3
X152.0Y-102.2
X152.0Y-109.2
X152.0Y-115.9
X152.5Y-81.5
X152.8Y-87.0
X152.8Y-93.8
X152.9Y-100.8
X152.9Y-107.9
X152.9Y-114.6
X152.9Y-121.4
X153.0Y-88.5
X153.0Y-95.3
X153.0Y-102.2
X153.0Y-109.2
X153.0Y-115.9
X153.5Y-81.5
X153.8Y-87.0
X153.8Y-93.8
X153.9Y-100.8
X153.9Y-107.9
X153.9Y-114.6
X153.9Y-121.4
X154.0Y-88.5
X154.0Y-95.3
X154.0Y-102.2
X154.0Y-109.2
X154.0Y-115.9
X154.5Y-81.5
X154.8Y-87.0
X154.8Y-93.8
X154.9Y-100.8
X154.9Y-107.9
X154.9Y-114.6
X154.9Y-121.4
X155.0Y-88.5
X155.0Y-95.3
X155.0Y-102.2
X155.0Y-109.2
X155.0Y-115.9
X155.5Y-81.5
X155.8Y-87.0
X155.8Y-93.8
X155.9Y-100.8
X155.9Y-107.9
X155.9Y-114.6
X155.9Y-121.4
X156.0Y-88.5
X156.0Y-95.3
X156.0Y-102.2
X156.0Y-109.2
X156.0Y-115.9
X156.5Y-81.5
X156.8Y-87.0
X156.8Y-93.8
X156.9Y-100.8
X156.9Y-107.9
X156.9Y-114.6
X156.9Y-121.4
X157.0Y-88.5
X157.0Y-95.3
X157.0Y-102.2
X157.0Y-109.2
X157.0Y-115.9
X157.5Y-81.5
X157.8Y-87.0
X157.8Y-93.8
X157.9Y-100.8
X157.9Y-107.9
X157.9Y-114.6
X157.9Y-121.4
X158.0Y-88.5
X158.0Y-95.3
X158.0Y-102.2
X158.0Y-109.2
X158.0Y-115.9
X158.5Y-81.5
X158.8Y-87.0
X158.8Y-93.8
X158.9Y-100.8
X158.9Y-107.9
X158.9Y-114.6
X158.9Y-121.4
X159.0Y-88.5
X159.0Y-95.3
X159.0Y-102.2
X159.0Y-109.2
X159.0Y-115.9
X159.5Y-81.5
X159.8Y-87.0
X159.8Y-93.8
X159.9Y-100.8
X159.9Y-107.9
X159.9Y-114.6
X159.9Y-121.4
X160.0Y-88.5
X160.0Y-95.3
X160.0Y-102.2
X160.0Y-109.2
X160.0Y-115.9
X160.5Y-81.5
X160.8Y-87.0
X160.8Y-93.8
X160.9Y-100.8
X160.9Y-107.9
X160.9Y-114.6
X160.9Y-121.4
X161.0Y-88.5
X161.0Y-95.3
X161.0Y-102.2
X161.0Y-109.2
X161.0Y-115.9
X161.5Y-81.5
X161.8Y-87.0
X161.8Y-93.8
X161.9Y-100.8
X161.9Y-107.9
X161.9Y-114.6
X161.9Y-121.4
X162.0Y-88.5
X162.0Y-95.3
X162.0Y-102.2
X162.0Y-109.2
X162.0Y-115.9
X162.5Y-81.5
X162.8Y-87.0
X162.8Y-93.8
X162.9Y-100.8
X162.9Y-107.9
X162.9Y-114.6
X162.9Y-121.4
X163.0Y-88.5
X163.0Y-95.3
X163.0Y-102.2
X163.0Y-109.2
X163.0Y-115.9
X163.5Y-81.5
X163.8Y-87.0
X163.8Y-93.8
X163.9Y-100.8
X163.9Y-107.9
X163.9Y-114.6
X163.9Y-121.4
X164.0Y-88.5
X164.0Y-95.3
X164.0Y-102.2
X164.0Y-109.2
X164.0Y-115.9
X164.5Y-81.5
X164.8Y-87.0
X164.8Y-93.8
X164.9Y-100.8
X164.9Y-107.9
X164.9Y-114.6
X164.9Y-121.4
X165.0Y-88.5
X165.0Y-95.3
X165.0Y-102.2
X165.0Y-109.2
X165.0Y-115.9
X165.5Y-81.5
X165.8Y-87.0
X165.8Y-93.8
X165.9Y-100.8
X165.9Y-107.9
X165.9Y-114.6
X165.9Y-121.4
X166.0Y-88.5
X166.0Y-95.3
X166.0Y-102.2
X166.0Y-109.2
X166.0Y-115.9
X166.5Y-81.5
X166.8Y-87.0
X166.8Y-93.8
X166.9Y-100.8
X166.9Y-107.9
X166.9Y-114.6
X166.9Y-121.4
X167.0Y-88.5
X167.0Y-95.3
X167.0Y-102.2
X167.0Y-109.2
X167.0Y-115.9
X167.5Y-81.5
X167.8Y-87.0
X167.8Y-93.8
X167.9Y-100.8
X167.9Y-107.9
X167.9Y-114.6
X167.9Y-121.4
X168.0Y-88.5
X168.0Y-95.3
X168.0Y-102.2
X168.0Y-109.2
X168.0Y-115.9
X168.5Y-81.5
X168.8Y-87.0
X168.8Y-93.8
X168.9Y-100.8
X168.9Y-107.9
X168.9Y-114.6
X168.9Y-121.4
X169.0Y-88.5
X169.0Y-95.3
X169.0Y-102.2
X169.0Y-109.2
X169.0Y-115.9
X169.5Y-81.5
X170.0Y-88.5
X170.0Y-95.3
X170.0Y-102.2
X170.0Y-109.2
X170.0Y-115.9
X170.5Y-81.5
X171.0Y-88.5
X171.0Y-95.3
X171.0Y-102.2
X171.0Y-109.2
X171.0Y-115.9
X171.5Y-81.5
X172.0Y-88.5
X172.0Y-95.3
X172.0Y-102.2
X172.0Y-109.2
X172.0Y-115.9
X172.5Y-81.5
X173.0Y-88.5
X173.0Y-95.3
X173.0Y-102.2
X173.0Y-109.2
X173.0Y-115.9
X173.5Y-81.5
X174.0Y-88.5
X174.0Y-95.3
X174.0Y-102.2
X174.0Y-109.2
X174.0Y-115.9
X174.5Y-81.5
X175.0Y-82.5
X175.0Y-84.5
X175.0Y-86.5
X175.0Y-88.5
X175.0Y-90.5
X175.0Y-92.5
X175.0Y-94.5
X175.0Y-96.5
X175.0Y-98.5
X175.0Y-100.5
X175.0Y-102.5
X175.0Y-104.5
X175.0Y-106.5
X175.0Y-108.5
X175.0Y-110.5
X175.0Y-112.5
X175.0Y-114.5
X175.0Y-116.5
X175.0Y-118.5
X175.0Y-120.5
X175.5Y-81.5
X175.5Y-87.5
X175.5Y-89.5
X175.5Y-91.5
X175.5Y-99.5
X175.5Y-101.5
X175.5Y-103.5
X175.5Y-111.5
X175.5Y-113.5
X175.5Y-115.5
X175.5Y-121.5
X176.0Y-86.5
X176.0Y-88.5
X176.0Y-90.5
X176.0Y-92.5
X176.0Y-98.5
X176.0Y-100.5
X176.0Y-102.5
X176.0Y-104.5
X176.0Y-110.5
X176.0Y-112.5
X176.0Y-114.5
X176.0Y-116.5
X176.5Y-81.5
X176.5Y-87.5
X176.5Y-89.5
X176.5Y-91.5
X176.5Y-99.5
X176.5Y-101.5
X176.5Y-103.5
X176.5Y-111.5
X176.5Y-113.5
X176.5Y-115.5
X176.5Y-121.5
X177.0Y-86.5
X177.0Y-88.5
X177.0Y-90.5
X177.0Y-92.5
X177.0Y-98.5
X177.0Y-100.5
X177.0Y-102.5
X177.0Y-104.5
X177.0Y-110.5
X177.0Y-112.5
X177.0Y-114.5
X177.0Y-116.5
X177.5Y-81.5
X177.5Y-87.5
X177.5Y-89.5
X177.5Y-91.5
X177.5Y-99.5
X177.5Y-101.5
X177.5Y-103.5
X177.5Y-111.5
X177.5Y-113.5
X177.5Y-115.5
X177.5Y-121.5
X178.0Y-86.5
X178.0Y-88.5
X178.0Y-90.5
X178.0Y-92.5
X178.0Y-98.5
X178.0Y-100.5
X178.0Y-102.5
X178.0Y-104.5
X178.0Y-110.5
X178.0Y-112.5
X178.0Y-114.5
X178.0Y-116.5
X178.5Y-81.5
X178.5Y-87.5
X178.5Y-89.5
X178.5Y-91.5
X178.5Y-99.5
X178.5Y-101.5
X178.5Y-103.5
X178.5Y-111.5
X178.5Y-113.5
X178.5Y-115.5
X178.5Y-121.5
X179.0Y-86.5
X179.0Y-88.5
X179.0Y-90.5
X179.0Y-92.5
X179.0Y-98.5
X179.0Y-100.5
X179.0Y-102.5
X179.0Y-104.5
X179.0Y-110.5
X179.0Y-112.5
X179.0Y-114.5
X179.0Y-116.5
X179.5Y-81.5
X179.5Y-87.5
X179.5Y-89.5
X179.5Y-91.5
X179.5Y-99.5
X179.5Y-101.5
X179.5Y-103.5
X179.5Y-105.5
X179.5Y-109.5
X179.5Y-111.5
X179.5Y-113.5
X179.5Y-115.5
X179.5Y-121.5
X180.0Y-86.5
X180.0Y-88.5
X180.0Y-90.5
X180.0Y-92.5
X180.0Y-94.5
X180.0Y-96.5
X180.0Y-98.5
X180.0Y-100.5
X180.0Y-102.5
X180.0Y-104.5
X180.0Y-106.5
X180.0Y-108.5
X180.0Y-110.5
X180.0Y-112.5
X180.0Y-114.5
X180.0Y-116.5
X180.0Y-118.5
X180.0Y-120.5
X180.5Y-81.5
X180.5Y-83.5
X180.5Y-85.5
X180.5Y-87.5
X180.5Y-89.5
X180.5Y-91.5
X180.5Y-93.5
X180.5Y-95.5
X180.5Y-97.5
X180.5Y-99.5
X180.5Y-101.5
X180.5Y-103.5
X180.5Y-105.5
X180.5Y-107.5
X180.5Y-109.5
X180.5Y-111.5
X180.5Y-113.5
X180.5Y-115.5
X180.5Y-117.5
X180.5Y-119.5
X180.5Y-121.5
X181.0Y-82.5
X181.0Y-84.5
X181.0Y-86.5
X181.0Y-88.5
X181.0Y-90.5
X181.0Y-92.5
X181.0Y-94.5
X181.0Y-96.5
X181.0Y-98.5
X181.0Y-100.5
X181.0Y-102.5
X181.0Y-104.5
X181.0Y-106.5
X181.0Y-108.5
X181.0Y-110.5
X181.0Y-112.5
X181.0Y-114.5
X181.0Y-116.5
X181.0Y-118.5
X181.0Y-120.5
X181.5Y-81.5
X181.5Y-83.5
X181.5Y-85.5
X181.5Y-87.5
X181.5Y-89.5
X181.5Y-91.5
X181.5Y-93.5
X181.5Y-95.5
X181.5Y-97.5
X181.5Y-99.5
X181.5Y-101.5
X181.5Y-103.5
X181.5Y-105.5
X181.5Y-107.5
X181.5Y-109.5
X181.5Y-111.5
X181.5Y-113.5
X181.5Y-115.5
X181.5Y-117.5
X181.5Y-119.5
X181.5Y-121.5
X182.0Y-82.5
X182.0Y-84.5
X182.0Y-86.5
X182.0Y-88.5
X182.0Y-90.5
X182.0Y-92.5
X182.0Y-94.5
X182.0Y-96.5
X182.0Y-98.5
X182.0Y-100.5
X182.0Y-102.5
X182.0Y-104.5
X182.0Y-106.5
X182.0Y-108.5
X182.0Y-110.5
X182.0Y-112.5
X182.0Y-114.5
X182.0Y-116.5
X182.0Y-118.5
X182.0Y-120.5
X182.5Y-81.5
X182.5Y-83.5
X182.5Y-85.5
X182.5Y-87.5
X182.5Y-89.5
X182.5Y-91.5
X182.5Y-93.5
X182.5Y-95.5
X182.5Y-97.5
X182.5Y-99.5
X182.5Y-101.5
X182.5Y-103.5
X182.5Y-105.5
X182.5Y-107.5
X182.5Y-109.5
X182.5Y-111.5
X182.5Y-113.5
X182.5Y-115.5
X182.5Y-117.5
X182.5Y-119.5
X182.5Y-121.5
X183.0Y-82.5
X183.0Y-84.5
X183.0Y-86.5
X183.0Y-88.5
X183.0Y-90.5
X183.0Y-92.5
X183.0Y-94.5
X183.0Y-96.5
X183.0Y-98.5
X183.0Y-100.5
X183.0Y-102.5
X183.0Y-104.5
X183.0Y-106.5
X183.0Y-108.5
X183.0Y-110.5
X183.0Y-112.5
X183.0Y-114.5
X183.0Y-116.5
X183.0Y-118.5
X183.0Y-120.5
X183.5Y-81.5
X183.5Y-83.5
X183.5Y-85.5
X183.5Y-87.5
X183.5Y-89.5
X183.5Y-91.5
X183.5Y-93.5
X183.5Y-95.5
X183.5Y-97.5
X183.5Y-99.5
X183.5Y-101.5
X183.5Y-103.5
X183.5Y-105.5
X183.5Y-107.5
X183.5Y-109.5
X183.5Y-111.5
X183.5Y-113.5
X183.5Y-115.5
X183.5Y-117.5
X183.5Y-119.5
X183.5Y-121.5
X184.0Y-82.5
X184.0Y-84.5
X184.0Y-86.5
X184.0Y-88.5
X184.0Y-90.5
X184.0Y-92.5
X184.0Y-94.5
X184.0Y-96.5
X184.0Y-98.5
X184.0Y-100.5
X184.0Y-102.5
X184.0Y-104.5
X184.0Y-106.5
X184.0Y-108.5
X184.0Y-110.5
X184.0Y-112.5
X184.0Y-114.5
X184.0Y-116.5
X184.0Y-118.5
X184.0Y-120.5
X184.5Y-81.5
X184.5Y-83.5
X184.5Y-85.5
X184.5Y-87.5
X184.5Y-89.5
X184.5Y-91.5
X184.5Y-93.5
X184.5Y-95.5
X184.5Y-97.5
X184.5Y-99.5
X184.5Y-101.5
X184.5Y-103.5
X184.5Y-105.5
X184.5Y-107.5
X184.5Y-109.5
X184.5Y-111.5
X184.5Y-113.5
X184.5Y-115.5
X184.5Y-117.5
X184.5Y-119.5
X184.5Y-121.5
T0
M30
