%FSLAX45Y45*%
G04 Gerber Fmt 4.5, Leading zero omitted, Abs format (unit mm)*
G04 Created by KiCad (PCBNEW 5.1.9) date 2021-04-12 02:40:45*
%MOMM*%
%LPD*%
G01*
G04 APERTURE LIST*
%TA.AperFunction,Profile*%
%ADD10C,0.050000*%
%TD*%
%ADD11C,0.200000*%
%ADD12C,0.300000*%
G04 APERTURE END LIST*
D10*
X11050000Y-8050000D02*
X18550000Y-8050000D01*
X11050000Y-12250000D02*
X11050000Y-8050000D01*
X18550000Y-12250000D02*
X11050000Y-12250000D01*
X18550000Y-8050000D02*
X18550000Y-12250000D01*
D11*
X11690000Y-8240000D02*
X12010000Y-8560000D01*
X12010000Y-8240000D02*
X11690000Y-8560000D01*
X11690000Y-9406667D02*
X12010000Y-9726667D01*
X12010000Y-9406667D02*
X11690000Y-9726667D01*
X11690000Y-10573333D02*
X12010000Y-10893333D01*
X12010000Y-10573333D02*
X11690000Y-10893333D01*
X11690000Y-11740000D02*
X12010000Y-12060000D01*
X12010000Y-11740000D02*
X11690000Y-12060000D01*
X17590000Y-8240000D02*
X17910000Y-8560000D01*
X17910000Y-8240000D02*
X17590000Y-8560000D01*
X17590000Y-9406667D02*
X17910000Y-9726667D01*
X17910000Y-9406667D02*
X17590000Y-9726667D01*
X17590000Y-10573333D02*
X17910000Y-10893333D01*
X17910000Y-10573333D02*
X17590000Y-10893333D01*
X17590000Y-11740000D02*
X17910000Y-12060000D01*
X17910000Y-11740000D02*
X17590000Y-12060000D01*
D12*
X11333928Y-12718214D02*
X11333928Y-12418214D01*
X11405357Y-12418214D01*
X11448214Y-12432500D01*
X11476786Y-12461071D01*
X11491071Y-12489643D01*
X11505357Y-12546786D01*
X11505357Y-12589643D01*
X11491071Y-12646786D01*
X11476786Y-12675357D01*
X11448214Y-12703929D01*
X11405357Y-12718214D01*
X11333928Y-12718214D01*
X11633928Y-12718214D02*
X11633928Y-12518214D01*
X11633928Y-12575357D02*
X11648214Y-12546786D01*
X11662500Y-12532500D01*
X11691071Y-12518214D01*
X11719643Y-12518214D01*
X11819643Y-12718214D02*
X11819643Y-12518214D01*
X11819643Y-12418214D02*
X11805357Y-12432500D01*
X11819643Y-12446786D01*
X11833928Y-12432500D01*
X11819643Y-12418214D01*
X11819643Y-12446786D01*
X12005357Y-12718214D02*
X11976786Y-12703929D01*
X11962500Y-12675357D01*
X11962500Y-12418214D01*
X12162500Y-12718214D02*
X12133928Y-12703929D01*
X12119643Y-12675357D01*
X12119643Y-12418214D01*
X12505357Y-12718214D02*
X12505357Y-12418214D01*
X12605357Y-12632500D01*
X12705357Y-12418214D01*
X12705357Y-12718214D01*
X12976786Y-12718214D02*
X12976786Y-12561071D01*
X12962500Y-12532500D01*
X12933928Y-12518214D01*
X12876786Y-12518214D01*
X12848214Y-12532500D01*
X12976786Y-12703929D02*
X12948214Y-12718214D01*
X12876786Y-12718214D01*
X12848214Y-12703929D01*
X12833928Y-12675357D01*
X12833928Y-12646786D01*
X12848214Y-12618214D01*
X12876786Y-12603929D01*
X12948214Y-12603929D01*
X12976786Y-12589643D01*
X13119643Y-12518214D02*
X13119643Y-12818214D01*
X13119643Y-12532500D02*
X13148214Y-12518214D01*
X13205357Y-12518214D01*
X13233928Y-12532500D01*
X13248214Y-12546786D01*
X13262500Y-12575357D01*
X13262500Y-12661071D01*
X13248214Y-12689643D01*
X13233928Y-12703929D01*
X13205357Y-12718214D01*
X13148214Y-12718214D01*
X13119643Y-12703929D01*
X13391071Y-12689643D02*
X13405357Y-12703929D01*
X13391071Y-12718214D01*
X13376786Y-12703929D01*
X13391071Y-12689643D01*
X13391071Y-12718214D01*
X13391071Y-12532500D02*
X13405357Y-12546786D01*
X13391071Y-12561071D01*
X13376786Y-12546786D01*
X13391071Y-12532500D01*
X13391071Y-12561071D01*
X10727500Y-13052500D02*
X11047500Y-13372500D01*
X11047500Y-13052500D02*
X10727500Y-13372500D01*
X11305357Y-13048214D02*
X11491071Y-13048214D01*
X11391071Y-13162500D01*
X11433928Y-13162500D01*
X11462500Y-13176786D01*
X11476786Y-13191071D01*
X11491071Y-13219643D01*
X11491071Y-13291071D01*
X11476786Y-13319643D01*
X11462500Y-13333929D01*
X11433928Y-13348214D01*
X11348214Y-13348214D01*
X11319643Y-13333929D01*
X11305357Y-13319643D01*
X11619643Y-13319643D02*
X11633928Y-13333929D01*
X11619643Y-13348214D01*
X11605357Y-13333929D01*
X11619643Y-13319643D01*
X11619643Y-13348214D01*
X11748214Y-13076786D02*
X11762500Y-13062500D01*
X11791071Y-13048214D01*
X11862500Y-13048214D01*
X11891071Y-13062500D01*
X11905357Y-13076786D01*
X11919643Y-13105357D01*
X11919643Y-13133929D01*
X11905357Y-13176786D01*
X11733928Y-13348214D01*
X11919643Y-13348214D01*
X12105357Y-13048214D02*
X12133928Y-13048214D01*
X12162500Y-13062500D01*
X12176786Y-13076786D01*
X12191071Y-13105357D01*
X12205357Y-13162500D01*
X12205357Y-13233929D01*
X12191071Y-13291071D01*
X12176786Y-13319643D01*
X12162500Y-13333929D01*
X12133928Y-13348214D01*
X12105357Y-13348214D01*
X12076786Y-13333929D01*
X12062500Y-13319643D01*
X12048214Y-13291071D01*
X12033928Y-13233929D01*
X12033928Y-13162500D01*
X12048214Y-13105357D01*
X12062500Y-13076786D01*
X12076786Y-13062500D01*
X12105357Y-13048214D01*
X12333928Y-13348214D02*
X12333928Y-13148214D01*
X12333928Y-13176786D02*
X12348214Y-13162500D01*
X12376786Y-13148214D01*
X12419643Y-13148214D01*
X12448214Y-13162500D01*
X12462500Y-13191071D01*
X12462500Y-13348214D01*
X12462500Y-13191071D02*
X12476786Y-13162500D01*
X12505357Y-13148214D01*
X12548214Y-13148214D01*
X12576786Y-13162500D01*
X12591071Y-13191071D01*
X12591071Y-13348214D01*
X12733928Y-13348214D02*
X12733928Y-13148214D01*
X12733928Y-13176786D02*
X12748214Y-13162500D01*
X12776786Y-13148214D01*
X12819643Y-13148214D01*
X12848214Y-13162500D01*
X12862500Y-13191071D01*
X12862500Y-13348214D01*
X12862500Y-13191071D02*
X12876786Y-13162500D01*
X12905357Y-13148214D01*
X12948214Y-13148214D01*
X12976786Y-13162500D01*
X12991071Y-13191071D01*
X12991071Y-13348214D01*
X13576786Y-13033929D02*
X13319643Y-13419643D01*
X13962500Y-13048214D02*
X13991071Y-13048214D01*
X14019643Y-13062500D01*
X14033928Y-13076786D01*
X14048214Y-13105357D01*
X14062500Y-13162500D01*
X14062500Y-13233929D01*
X14048214Y-13291071D01*
X14033928Y-13319643D01*
X14019643Y-13333929D01*
X13991071Y-13348214D01*
X13962500Y-13348214D01*
X13933928Y-13333929D01*
X13919643Y-13319643D01*
X13905357Y-13291071D01*
X13891071Y-13233929D01*
X13891071Y-13162500D01*
X13905357Y-13105357D01*
X13919643Y-13076786D01*
X13933928Y-13062500D01*
X13962500Y-13048214D01*
X14191071Y-13319643D02*
X14205357Y-13333929D01*
X14191071Y-13348214D01*
X14176786Y-13333929D01*
X14191071Y-13319643D01*
X14191071Y-13348214D01*
X14491071Y-13348214D02*
X14319643Y-13348214D01*
X14405357Y-13348214D02*
X14405357Y-13048214D01*
X14376786Y-13091071D01*
X14348214Y-13119643D01*
X14319643Y-13133929D01*
X14605357Y-13076786D02*
X14619643Y-13062500D01*
X14648214Y-13048214D01*
X14719643Y-13048214D01*
X14748214Y-13062500D01*
X14762500Y-13076786D01*
X14776786Y-13105357D01*
X14776786Y-13133929D01*
X14762500Y-13176786D01*
X14591071Y-13348214D01*
X14776786Y-13348214D01*
X15033928Y-13048214D02*
X14976786Y-13048214D01*
X14948214Y-13062500D01*
X14933928Y-13076786D01*
X14905357Y-13119643D01*
X14891071Y-13176786D01*
X14891071Y-13291071D01*
X14905357Y-13319643D01*
X14919643Y-13333929D01*
X14948214Y-13348214D01*
X15005357Y-13348214D01*
X15033928Y-13333929D01*
X15048214Y-13319643D01*
X15062500Y-13291071D01*
X15062500Y-13219643D01*
X15048214Y-13191071D01*
X15033928Y-13176786D01*
X15005357Y-13162500D01*
X14948214Y-13162500D01*
X14919643Y-13176786D01*
X14905357Y-13191071D01*
X14891071Y-13219643D01*
X15176786Y-13048214D02*
X15176786Y-13105357D01*
X15291071Y-13048214D02*
X15291071Y-13105357D01*
X15733928Y-13462500D02*
X15719643Y-13448214D01*
X15691071Y-13405357D01*
X15676786Y-13376786D01*
X15662500Y-13333929D01*
X15648214Y-13262500D01*
X15648214Y-13205357D01*
X15662500Y-13133929D01*
X15676786Y-13091071D01*
X15691071Y-13062500D01*
X15719643Y-13019643D01*
X15733928Y-13005357D01*
X15891071Y-13176786D02*
X15862500Y-13162500D01*
X15848214Y-13148214D01*
X15833928Y-13119643D01*
X15833928Y-13105357D01*
X15848214Y-13076786D01*
X15862500Y-13062500D01*
X15891071Y-13048214D01*
X15948214Y-13048214D01*
X15976786Y-13062500D01*
X15991071Y-13076786D01*
X16005357Y-13105357D01*
X16005357Y-13119643D01*
X15991071Y-13148214D01*
X15976786Y-13162500D01*
X15948214Y-13176786D01*
X15891071Y-13176786D01*
X15862500Y-13191071D01*
X15848214Y-13205357D01*
X15833928Y-13233929D01*
X15833928Y-13291071D01*
X15848214Y-13319643D01*
X15862500Y-13333929D01*
X15891071Y-13348214D01*
X15948214Y-13348214D01*
X15976786Y-13333929D01*
X15991071Y-13319643D01*
X16005357Y-13291071D01*
X16005357Y-13233929D01*
X15991071Y-13205357D01*
X15976786Y-13191071D01*
X15948214Y-13176786D01*
X16362500Y-13348214D02*
X16362500Y-13048214D01*
X16491071Y-13348214D02*
X16491071Y-13191071D01*
X16476786Y-13162500D01*
X16448214Y-13148214D01*
X16405357Y-13148214D01*
X16376786Y-13162500D01*
X16362500Y-13176786D01*
X16676786Y-13348214D02*
X16648214Y-13333929D01*
X16633928Y-13319643D01*
X16619643Y-13291071D01*
X16619643Y-13205357D01*
X16633928Y-13176786D01*
X16648214Y-13162500D01*
X16676786Y-13148214D01*
X16719643Y-13148214D01*
X16748214Y-13162500D01*
X16762500Y-13176786D01*
X16776786Y-13205357D01*
X16776786Y-13291071D01*
X16762500Y-13319643D01*
X16748214Y-13333929D01*
X16719643Y-13348214D01*
X16676786Y-13348214D01*
X16948214Y-13348214D02*
X16919643Y-13333929D01*
X16905357Y-13305357D01*
X16905357Y-13048214D01*
X17176786Y-13333929D02*
X17148214Y-13348214D01*
X17091071Y-13348214D01*
X17062500Y-13333929D01*
X17048214Y-13305357D01*
X17048214Y-13191071D01*
X17062500Y-13162500D01*
X17091071Y-13148214D01*
X17148214Y-13148214D01*
X17176786Y-13162500D01*
X17191071Y-13191071D01*
X17191071Y-13219643D01*
X17048214Y-13248214D01*
X17305357Y-13333929D02*
X17333928Y-13348214D01*
X17391071Y-13348214D01*
X17419643Y-13333929D01*
X17433928Y-13305357D01*
X17433928Y-13291071D01*
X17419643Y-13262500D01*
X17391071Y-13248214D01*
X17348214Y-13248214D01*
X17319643Y-13233929D01*
X17305357Y-13205357D01*
X17305357Y-13191071D01*
X17319643Y-13162500D01*
X17348214Y-13148214D01*
X17391071Y-13148214D01*
X17419643Y-13162500D01*
X17533928Y-13462500D02*
X17548214Y-13448214D01*
X17576786Y-13405357D01*
X17591071Y-13376786D01*
X17605357Y-13333929D01*
X17619643Y-13262500D01*
X17619643Y-13205357D01*
X17605357Y-13133929D01*
X17591071Y-13091071D01*
X17576786Y-13062500D01*
X17548214Y-13019643D01*
X17533928Y-13005357D01*
X18076786Y-13462500D02*
X18062500Y-13448214D01*
X18033928Y-13405357D01*
X18019643Y-13376786D01*
X18005357Y-13333929D01*
X17991071Y-13262500D01*
X17991071Y-13205357D01*
X18005357Y-13133929D01*
X18019643Y-13091071D01*
X18033928Y-13062500D01*
X18062500Y-13019643D01*
X18076786Y-13005357D01*
X18191071Y-13148214D02*
X18191071Y-13348214D01*
X18191071Y-13176786D02*
X18205357Y-13162500D01*
X18233928Y-13148214D01*
X18276786Y-13148214D01*
X18305357Y-13162500D01*
X18319643Y-13191071D01*
X18319643Y-13348214D01*
X18505357Y-13348214D02*
X18476786Y-13333929D01*
X18462500Y-13319643D01*
X18448214Y-13291071D01*
X18448214Y-13205357D01*
X18462500Y-13176786D01*
X18476786Y-13162500D01*
X18505357Y-13148214D01*
X18548214Y-13148214D01*
X18576786Y-13162500D01*
X18591071Y-13176786D01*
X18605357Y-13205357D01*
X18605357Y-13291071D01*
X18591071Y-13319643D01*
X18576786Y-13333929D01*
X18548214Y-13348214D01*
X18505357Y-13348214D01*
X18691071Y-13148214D02*
X18805357Y-13148214D01*
X18733928Y-13048214D02*
X18733928Y-13305357D01*
X18748214Y-13333929D01*
X18776786Y-13348214D01*
X18805357Y-13348214D01*
X19133928Y-13148214D02*
X19133928Y-13448214D01*
X19133928Y-13162500D02*
X19162500Y-13148214D01*
X19219643Y-13148214D01*
X19248214Y-13162500D01*
X19262500Y-13176786D01*
X19276786Y-13205357D01*
X19276786Y-13291071D01*
X19262500Y-13319643D01*
X19248214Y-13333929D01*
X19219643Y-13348214D01*
X19162500Y-13348214D01*
X19133928Y-13333929D01*
X19448214Y-13348214D02*
X19419643Y-13333929D01*
X19405357Y-13305357D01*
X19405357Y-13048214D01*
X19691071Y-13348214D02*
X19691071Y-13191071D01*
X19676786Y-13162500D01*
X19648214Y-13148214D01*
X19591071Y-13148214D01*
X19562500Y-13162500D01*
X19691071Y-13333929D02*
X19662500Y-13348214D01*
X19591071Y-13348214D01*
X19562500Y-13333929D01*
X19548214Y-13305357D01*
X19548214Y-13276786D01*
X19562500Y-13248214D01*
X19591071Y-13233929D01*
X19662500Y-13233929D01*
X19691071Y-13219643D01*
X19791071Y-13148214D02*
X19905357Y-13148214D01*
X19833928Y-13048214D02*
X19833928Y-13305357D01*
X19848214Y-13333929D01*
X19876786Y-13348214D01*
X19905357Y-13348214D01*
X20119643Y-13333929D02*
X20091071Y-13348214D01*
X20033928Y-13348214D01*
X20005357Y-13333929D01*
X19991071Y-13305357D01*
X19991071Y-13191071D01*
X20005357Y-13162500D01*
X20033928Y-13148214D01*
X20091071Y-13148214D01*
X20119643Y-13162500D01*
X20133928Y-13191071D01*
X20133928Y-13219643D01*
X19991071Y-13248214D01*
X20391071Y-13348214D02*
X20391071Y-13048214D01*
X20391071Y-13333929D02*
X20362500Y-13348214D01*
X20305357Y-13348214D01*
X20276786Y-13333929D01*
X20262500Y-13319643D01*
X20248214Y-13291071D01*
X20248214Y-13205357D01*
X20262500Y-13176786D01*
X20276786Y-13162500D01*
X20305357Y-13148214D01*
X20362500Y-13148214D01*
X20391071Y-13162500D01*
X20505357Y-13462500D02*
X20519643Y-13448214D01*
X20548214Y-13405357D01*
X20562500Y-13376786D01*
X20576786Y-13333929D01*
X20591071Y-13262500D01*
X20591071Y-13205357D01*
X20576786Y-13133929D01*
X20562500Y-13091071D01*
X20548214Y-13062500D01*
X20519643Y-13019643D01*
X20505357Y-13005357D01*
M02*
