%FSLAX45Y45*%
G04 Gerber Fmt 4.5, Leading zero omitted, Abs format (unit mm)*
G04 Created by KiCad (PCBNEW 5.1.9) date 2021-04-12 04:53:28*
%MOMM*%
%LPD*%
G01*
G04 APERTURE LIST*
%TA.AperFunction,Profile*%
%ADD10C,0.050000*%
%TD*%
%ADD11C,0.200000*%
%ADD12C,0.300000*%
G04 APERTURE END LIST*
D10*
X11050000Y-8050000D02*
X18550000Y-8050000D01*
X11050000Y-12250000D02*
X11050000Y-8050000D01*
X18550000Y-12250000D02*
X11050000Y-12250000D01*
X18550000Y-8050000D02*
X18550000Y-12250000D01*
D11*
X11690000Y-8240000D02*
X12010000Y-8560000D01*
X12010000Y-8240000D02*
X11690000Y-8560000D01*
X11690000Y-9406667D02*
X12010000Y-9726667D01*
X12010000Y-9406667D02*
X11690000Y-9726667D01*
X11690000Y-10573333D02*
X12010000Y-10893333D01*
X12010000Y-10573333D02*
X11690000Y-10893333D01*
X11690000Y-11740000D02*
X12010000Y-12060000D01*
X12010000Y-11740000D02*
X11690000Y-12060000D01*
X17590000Y-8240000D02*
X17910000Y-8560000D01*
X17910000Y-8240000D02*
X17590000Y-8560000D01*
X17590000Y-9406667D02*
X17910000Y-9726667D01*
X17910000Y-9406667D02*
X17590000Y-9726667D01*
X17590000Y-10573333D02*
X17910000Y-10893333D01*
X17910000Y-10573333D02*
X17590000Y-10893333D01*
X17590000Y-11740000D02*
X17910000Y-12060000D01*
X17910000Y-11740000D02*
X17590000Y-12060000D01*
D12*
X11086429Y-12718214D02*
X11086429Y-12418214D01*
X11157857Y-12418214D01*
X11200714Y-12432500D01*
X11229286Y-12461071D01*
X11243571Y-12489643D01*
X11257857Y-12546786D01*
X11257857Y-12589643D01*
X11243571Y-12646786D01*
X11229286Y-12675357D01*
X11200714Y-12703929D01*
X11157857Y-12718214D01*
X11086429Y-12718214D01*
X11386428Y-12718214D02*
X11386428Y-12518214D01*
X11386428Y-12575357D02*
X11400714Y-12546786D01*
X11415000Y-12532500D01*
X11443571Y-12518214D01*
X11472143Y-12518214D01*
X11572143Y-12718214D02*
X11572143Y-12518214D01*
X11572143Y-12418214D02*
X11557857Y-12432500D01*
X11572143Y-12446786D01*
X11586428Y-12432500D01*
X11572143Y-12418214D01*
X11572143Y-12446786D01*
X11757857Y-12718214D02*
X11729286Y-12703929D01*
X11715000Y-12675357D01*
X11715000Y-12418214D01*
X11915000Y-12718214D02*
X11886428Y-12703929D01*
X11872143Y-12675357D01*
X11872143Y-12418214D01*
X12257857Y-12718214D02*
X12257857Y-12418214D01*
X12357857Y-12632500D01*
X12457857Y-12418214D01*
X12457857Y-12718214D01*
X12729286Y-12718214D02*
X12729286Y-12561071D01*
X12715000Y-12532500D01*
X12686428Y-12518214D01*
X12629286Y-12518214D01*
X12600714Y-12532500D01*
X12729286Y-12703929D02*
X12700714Y-12718214D01*
X12629286Y-12718214D01*
X12600714Y-12703929D01*
X12586428Y-12675357D01*
X12586428Y-12646786D01*
X12600714Y-12618214D01*
X12629286Y-12603929D01*
X12700714Y-12603929D01*
X12729286Y-12589643D01*
X12872143Y-12518214D02*
X12872143Y-12818214D01*
X12872143Y-12532500D02*
X12900714Y-12518214D01*
X12957857Y-12518214D01*
X12986428Y-12532500D01*
X13000714Y-12546786D01*
X13015000Y-12575357D01*
X13015000Y-12661071D01*
X13000714Y-12689643D01*
X12986428Y-12703929D01*
X12957857Y-12718214D01*
X12900714Y-12718214D01*
X12872143Y-12703929D01*
X13143571Y-12689643D02*
X13157857Y-12703929D01*
X13143571Y-12718214D01*
X13129286Y-12703929D01*
X13143571Y-12689643D01*
X13143571Y-12718214D01*
X13143571Y-12532500D02*
X13157857Y-12546786D01*
X13143571Y-12561071D01*
X13129286Y-12546786D01*
X13143571Y-12532500D01*
X13143571Y-12561071D01*
X10480000Y-13052500D02*
X10800000Y-13372500D01*
X10800000Y-13052500D02*
X10480000Y-13372500D01*
X11057857Y-13048214D02*
X11243571Y-13048214D01*
X11143571Y-13162500D01*
X11186428Y-13162500D01*
X11215000Y-13176786D01*
X11229286Y-13191071D01*
X11243571Y-13219643D01*
X11243571Y-13291071D01*
X11229286Y-13319643D01*
X11215000Y-13333929D01*
X11186428Y-13348214D01*
X11100714Y-13348214D01*
X11072143Y-13333929D01*
X11057857Y-13319643D01*
X11372143Y-13319643D02*
X11386428Y-13333929D01*
X11372143Y-13348214D01*
X11357857Y-13333929D01*
X11372143Y-13319643D01*
X11372143Y-13348214D01*
X11500714Y-13076786D02*
X11515000Y-13062500D01*
X11543571Y-13048214D01*
X11615000Y-13048214D01*
X11643571Y-13062500D01*
X11657857Y-13076786D01*
X11672143Y-13105357D01*
X11672143Y-13133929D01*
X11657857Y-13176786D01*
X11486428Y-13348214D01*
X11672143Y-13348214D01*
X11857857Y-13048214D02*
X11886428Y-13048214D01*
X11915000Y-13062500D01*
X11929286Y-13076786D01*
X11943571Y-13105357D01*
X11957857Y-13162500D01*
X11957857Y-13233929D01*
X11943571Y-13291071D01*
X11929286Y-13319643D01*
X11915000Y-13333929D01*
X11886428Y-13348214D01*
X11857857Y-13348214D01*
X11829286Y-13333929D01*
X11815000Y-13319643D01*
X11800714Y-13291071D01*
X11786428Y-13233929D01*
X11786428Y-13162500D01*
X11800714Y-13105357D01*
X11815000Y-13076786D01*
X11829286Y-13062500D01*
X11857857Y-13048214D01*
X12086428Y-13348214D02*
X12086428Y-13148214D01*
X12086428Y-13176786D02*
X12100714Y-13162500D01*
X12129286Y-13148214D01*
X12172143Y-13148214D01*
X12200714Y-13162500D01*
X12215000Y-13191071D01*
X12215000Y-13348214D01*
X12215000Y-13191071D02*
X12229286Y-13162500D01*
X12257857Y-13148214D01*
X12300714Y-13148214D01*
X12329286Y-13162500D01*
X12343571Y-13191071D01*
X12343571Y-13348214D01*
X12486428Y-13348214D02*
X12486428Y-13148214D01*
X12486428Y-13176786D02*
X12500714Y-13162500D01*
X12529286Y-13148214D01*
X12572143Y-13148214D01*
X12600714Y-13162500D01*
X12615000Y-13191071D01*
X12615000Y-13348214D01*
X12615000Y-13191071D02*
X12629286Y-13162500D01*
X12657857Y-13148214D01*
X12700714Y-13148214D01*
X12729286Y-13162500D01*
X12743571Y-13191071D01*
X12743571Y-13348214D01*
X13329286Y-13033929D02*
X13072143Y-13419643D01*
X13715000Y-13048214D02*
X13743571Y-13048214D01*
X13772143Y-13062500D01*
X13786428Y-13076786D01*
X13800714Y-13105357D01*
X13815000Y-13162500D01*
X13815000Y-13233929D01*
X13800714Y-13291071D01*
X13786428Y-13319643D01*
X13772143Y-13333929D01*
X13743571Y-13348214D01*
X13715000Y-13348214D01*
X13686428Y-13333929D01*
X13672143Y-13319643D01*
X13657857Y-13291071D01*
X13643571Y-13233929D01*
X13643571Y-13162500D01*
X13657857Y-13105357D01*
X13672143Y-13076786D01*
X13686428Y-13062500D01*
X13715000Y-13048214D01*
X13943571Y-13319643D02*
X13957857Y-13333929D01*
X13943571Y-13348214D01*
X13929286Y-13333929D01*
X13943571Y-13319643D01*
X13943571Y-13348214D01*
X14243571Y-13348214D02*
X14072143Y-13348214D01*
X14157857Y-13348214D02*
X14157857Y-13048214D01*
X14129286Y-13091071D01*
X14100714Y-13119643D01*
X14072143Y-13133929D01*
X14357857Y-13076786D02*
X14372143Y-13062500D01*
X14400714Y-13048214D01*
X14472143Y-13048214D01*
X14500714Y-13062500D01*
X14515000Y-13076786D01*
X14529286Y-13105357D01*
X14529286Y-13133929D01*
X14515000Y-13176786D01*
X14343571Y-13348214D01*
X14529286Y-13348214D01*
X14786428Y-13048214D02*
X14729286Y-13048214D01*
X14700714Y-13062500D01*
X14686428Y-13076786D01*
X14657857Y-13119643D01*
X14643571Y-13176786D01*
X14643571Y-13291071D01*
X14657857Y-13319643D01*
X14672143Y-13333929D01*
X14700714Y-13348214D01*
X14757857Y-13348214D01*
X14786428Y-13333929D01*
X14800714Y-13319643D01*
X14815000Y-13291071D01*
X14815000Y-13219643D01*
X14800714Y-13191071D01*
X14786428Y-13176786D01*
X14757857Y-13162500D01*
X14700714Y-13162500D01*
X14672143Y-13176786D01*
X14657857Y-13191071D01*
X14643571Y-13219643D01*
X14929286Y-13048214D02*
X14929286Y-13105357D01*
X15043571Y-13048214D02*
X15043571Y-13105357D01*
X15486428Y-13462500D02*
X15472143Y-13448214D01*
X15443571Y-13405357D01*
X15429286Y-13376786D01*
X15415000Y-13333929D01*
X15400714Y-13262500D01*
X15400714Y-13205357D01*
X15415000Y-13133929D01*
X15429286Y-13091071D01*
X15443571Y-13062500D01*
X15472143Y-13019643D01*
X15486428Y-13005357D01*
X15643571Y-13176786D02*
X15615000Y-13162500D01*
X15600714Y-13148214D01*
X15586428Y-13119643D01*
X15586428Y-13105357D01*
X15600714Y-13076786D01*
X15615000Y-13062500D01*
X15643571Y-13048214D01*
X15700714Y-13048214D01*
X15729286Y-13062500D01*
X15743571Y-13076786D01*
X15757857Y-13105357D01*
X15757857Y-13119643D01*
X15743571Y-13148214D01*
X15729286Y-13162500D01*
X15700714Y-13176786D01*
X15643571Y-13176786D01*
X15615000Y-13191071D01*
X15600714Y-13205357D01*
X15586428Y-13233929D01*
X15586428Y-13291071D01*
X15600714Y-13319643D01*
X15615000Y-13333929D01*
X15643571Y-13348214D01*
X15700714Y-13348214D01*
X15729286Y-13333929D01*
X15743571Y-13319643D01*
X15757857Y-13291071D01*
X15757857Y-13233929D01*
X15743571Y-13205357D01*
X15729286Y-13191071D01*
X15700714Y-13176786D01*
X16115000Y-13348214D02*
X16115000Y-13048214D01*
X16243571Y-13348214D02*
X16243571Y-13191071D01*
X16229286Y-13162500D01*
X16200714Y-13148214D01*
X16157857Y-13148214D01*
X16129286Y-13162500D01*
X16115000Y-13176786D01*
X16429286Y-13348214D02*
X16400714Y-13333929D01*
X16386428Y-13319643D01*
X16372143Y-13291071D01*
X16372143Y-13205357D01*
X16386428Y-13176786D01*
X16400714Y-13162500D01*
X16429286Y-13148214D01*
X16472143Y-13148214D01*
X16500714Y-13162500D01*
X16515000Y-13176786D01*
X16529286Y-13205357D01*
X16529286Y-13291071D01*
X16515000Y-13319643D01*
X16500714Y-13333929D01*
X16472143Y-13348214D01*
X16429286Y-13348214D01*
X16700714Y-13348214D02*
X16672143Y-13333929D01*
X16657857Y-13305357D01*
X16657857Y-13048214D01*
X16929286Y-13333929D02*
X16900714Y-13348214D01*
X16843571Y-13348214D01*
X16815000Y-13333929D01*
X16800714Y-13305357D01*
X16800714Y-13191071D01*
X16815000Y-13162500D01*
X16843571Y-13148214D01*
X16900714Y-13148214D01*
X16929286Y-13162500D01*
X16943571Y-13191071D01*
X16943571Y-13219643D01*
X16800714Y-13248214D01*
X17057857Y-13333929D02*
X17086429Y-13348214D01*
X17143571Y-13348214D01*
X17172143Y-13333929D01*
X17186429Y-13305357D01*
X17186429Y-13291071D01*
X17172143Y-13262500D01*
X17143571Y-13248214D01*
X17100714Y-13248214D01*
X17072143Y-13233929D01*
X17057857Y-13205357D01*
X17057857Y-13191071D01*
X17072143Y-13162500D01*
X17100714Y-13148214D01*
X17143571Y-13148214D01*
X17172143Y-13162500D01*
X17286429Y-13462500D02*
X17300714Y-13448214D01*
X17329286Y-13405357D01*
X17343571Y-13376786D01*
X17357857Y-13333929D01*
X17372143Y-13262500D01*
X17372143Y-13205357D01*
X17357857Y-13133929D01*
X17343571Y-13091071D01*
X17329286Y-13062500D01*
X17300714Y-13019643D01*
X17286429Y-13005357D01*
X17829286Y-13462500D02*
X17815000Y-13448214D01*
X17786429Y-13405357D01*
X17772143Y-13376786D01*
X17757857Y-13333929D01*
X17743571Y-13262500D01*
X17743571Y-13205357D01*
X17757857Y-13133929D01*
X17772143Y-13091071D01*
X17786429Y-13062500D01*
X17815000Y-13019643D01*
X17829286Y-13005357D01*
X17943571Y-13148214D02*
X17943571Y-13348214D01*
X17943571Y-13176786D02*
X17957857Y-13162500D01*
X17986429Y-13148214D01*
X18029286Y-13148214D01*
X18057857Y-13162500D01*
X18072143Y-13191071D01*
X18072143Y-13348214D01*
X18257857Y-13348214D02*
X18229286Y-13333929D01*
X18215000Y-13319643D01*
X18200714Y-13291071D01*
X18200714Y-13205357D01*
X18215000Y-13176786D01*
X18229286Y-13162500D01*
X18257857Y-13148214D01*
X18300714Y-13148214D01*
X18329286Y-13162500D01*
X18343571Y-13176786D01*
X18357857Y-13205357D01*
X18357857Y-13291071D01*
X18343571Y-13319643D01*
X18329286Y-13333929D01*
X18300714Y-13348214D01*
X18257857Y-13348214D01*
X18443571Y-13148214D02*
X18557857Y-13148214D01*
X18486429Y-13048214D02*
X18486429Y-13305357D01*
X18500714Y-13333929D01*
X18529286Y-13348214D01*
X18557857Y-13348214D01*
X18886429Y-13148214D02*
X18886429Y-13448214D01*
X18886429Y-13162500D02*
X18915000Y-13148214D01*
X18972143Y-13148214D01*
X19000714Y-13162500D01*
X19015000Y-13176786D01*
X19029286Y-13205357D01*
X19029286Y-13291071D01*
X19015000Y-13319643D01*
X19000714Y-13333929D01*
X18972143Y-13348214D01*
X18915000Y-13348214D01*
X18886429Y-13333929D01*
X19200714Y-13348214D02*
X19172143Y-13333929D01*
X19157857Y-13305357D01*
X19157857Y-13048214D01*
X19443571Y-13348214D02*
X19443571Y-13191071D01*
X19429286Y-13162500D01*
X19400714Y-13148214D01*
X19343571Y-13148214D01*
X19315000Y-13162500D01*
X19443571Y-13333929D02*
X19415000Y-13348214D01*
X19343571Y-13348214D01*
X19315000Y-13333929D01*
X19300714Y-13305357D01*
X19300714Y-13276786D01*
X19315000Y-13248214D01*
X19343571Y-13233929D01*
X19415000Y-13233929D01*
X19443571Y-13219643D01*
X19543571Y-13148214D02*
X19657857Y-13148214D01*
X19586429Y-13048214D02*
X19586429Y-13305357D01*
X19600714Y-13333929D01*
X19629286Y-13348214D01*
X19657857Y-13348214D01*
X19872143Y-13333929D02*
X19843571Y-13348214D01*
X19786429Y-13348214D01*
X19757857Y-13333929D01*
X19743571Y-13305357D01*
X19743571Y-13191071D01*
X19757857Y-13162500D01*
X19786429Y-13148214D01*
X19843571Y-13148214D01*
X19872143Y-13162500D01*
X19886429Y-13191071D01*
X19886429Y-13219643D01*
X19743571Y-13248214D01*
X20143571Y-13348214D02*
X20143571Y-13048214D01*
X20143571Y-13333929D02*
X20115000Y-13348214D01*
X20057857Y-13348214D01*
X20029286Y-13333929D01*
X20015000Y-13319643D01*
X20000714Y-13291071D01*
X20000714Y-13205357D01*
X20015000Y-13176786D01*
X20029286Y-13162500D01*
X20057857Y-13148214D01*
X20115000Y-13148214D01*
X20143571Y-13162500D01*
X20257857Y-13462500D02*
X20272143Y-13448214D01*
X20300714Y-13405357D01*
X20315000Y-13376786D01*
X20329286Y-13333929D01*
X20343571Y-13262500D01*
X20343571Y-13205357D01*
X20329286Y-13133929D01*
X20315000Y-13091071D01*
X20300714Y-13062500D01*
X20272143Y-13019643D01*
X20257857Y-13005357D01*
M02*
