%TF.GenerationSoftware,KiCad,Pcbnew,5.1.9*%
%TF.CreationDate,2021-04-12T01:52:26-03:00*%
%TF.ProjectId,Switches,53776974-6368-4657-932e-6b696361645f,rev?*%
%TF.SameCoordinates,Original*%
%TF.FileFunction,Legend,Top*%
%TF.FilePolarity,Positive*%
%FSLAX46Y46*%
G04 Gerber Fmt 4.6, Leading zero omitted, Abs format (unit mm)*
G04 Created by KiCad (PCBNEW 5.1.9) date 2021-04-12 01:52:26*
%MOMM*%
%LPD*%
G01*
G04 APERTURE LIST*
%ADD10C,0.120000*%
%ADD11C,0.150000*%
G04 APERTURE END LIST*
D10*
%TO.C,Q112*%
X206860000Y-119850000D02*
X206860000Y-109680000D01*
X196740000Y-109680000D02*
X196740000Y-121250000D01*
%TO.C,Q111*%
X195185000Y-119850000D02*
X195185000Y-109680000D01*
X185065000Y-109680000D02*
X185065000Y-121250000D01*
%TO.C,Q110*%
X183510000Y-119850000D02*
X183510000Y-109680000D01*
X173390000Y-109680000D02*
X173390000Y-121250000D01*
%TO.C,Q109*%
X151110000Y-119850000D02*
X151110000Y-109680000D01*
X140990000Y-109680000D02*
X140990000Y-121250000D01*
%TO.C,Q108*%
X139435000Y-119850000D02*
X139435000Y-109680000D01*
X129315000Y-109680000D02*
X129315000Y-121250000D01*
%TO.C,Q107*%
X127760000Y-119850000D02*
X127760000Y-109680000D01*
X117640000Y-109680000D02*
X117640000Y-121250000D01*
%TO.C,Q106*%
X206860000Y-92650000D02*
X206860000Y-82480000D01*
X196740000Y-82480000D02*
X196740000Y-94050000D01*
%TO.C,Q105*%
X195185000Y-92650000D02*
X195185000Y-82480000D01*
X185065000Y-82480000D02*
X185065000Y-94050000D01*
%TO.C,Q104*%
X183510000Y-92650000D02*
X183510000Y-82480000D01*
X173390000Y-82480000D02*
X173390000Y-94050000D01*
%TO.C,Q103*%
X151110000Y-92650000D02*
X151110000Y-82480000D01*
X140990000Y-82480000D02*
X140990000Y-94050000D01*
%TO.C,Q102*%
X139435000Y-92650000D02*
X139435000Y-82480000D01*
X129315000Y-82480000D02*
X129315000Y-94050000D01*
%TO.C,Q101*%
X127760000Y-92650000D02*
X127760000Y-82480000D01*
X117640000Y-82480000D02*
X117640000Y-94050000D01*
%TO.C,Rsn108*%
X213575000Y-113476263D02*
X213575000Y-114923737D01*
X210865000Y-113476263D02*
X210865000Y-114923737D01*
%TO.C,Rsn107*%
X210355000Y-113476263D02*
X210355000Y-114923737D01*
X207645000Y-113476263D02*
X207645000Y-114923737D01*
%TO.C,Rsn106*%
X113655000Y-113326263D02*
X113655000Y-114773737D01*
X110945000Y-113326263D02*
X110945000Y-114773737D01*
%TO.C,Rsn105*%
X116855000Y-113326263D02*
X116855000Y-114773737D01*
X114145000Y-113326263D02*
X114145000Y-114773737D01*
%TO.C,Rsn104*%
X213555000Y-84876263D02*
X213555000Y-86323737D01*
X210845000Y-84876263D02*
X210845000Y-86323737D01*
%TO.C,Rsn102*%
X113655000Y-84876263D02*
X113655000Y-86323737D01*
X110945000Y-84876263D02*
X110945000Y-86323737D01*
%TO.C,Rsn101*%
X116855000Y-84876263D02*
X116855000Y-86323737D01*
X114145000Y-84876263D02*
X114145000Y-86323737D01*
%TO.C,Dsn108*%
X216400000Y-116450000D02*
X218400000Y-116450000D01*
X218400000Y-116450000D02*
X218400000Y-112600000D01*
X216400000Y-116450000D02*
X216400000Y-112600000D01*
%TO.C,Dsn107*%
X214050000Y-116450000D02*
X216050000Y-116450000D01*
X216050000Y-116450000D02*
X216050000Y-112600000D01*
X214050000Y-116450000D02*
X214050000Y-112600000D01*
%TO.C,Dsn106*%
X108450000Y-116350000D02*
X110450000Y-116350000D01*
X110450000Y-116350000D02*
X110450000Y-112500000D01*
X108450000Y-116350000D02*
X108450000Y-112500000D01*
%TO.C,Dsn105*%
X106100000Y-116350000D02*
X108100000Y-116350000D01*
X108100000Y-116350000D02*
X108100000Y-112500000D01*
X106100000Y-116350000D02*
X106100000Y-112500000D01*
%TO.C,Dsn104*%
X216500000Y-87800000D02*
X218500000Y-87800000D01*
X218500000Y-87800000D02*
X218500000Y-83950000D01*
X216500000Y-87800000D02*
X216500000Y-83950000D01*
%TO.C,Dsn103*%
X214100000Y-87800000D02*
X216100000Y-87800000D01*
X216100000Y-87800000D02*
X216100000Y-83950000D01*
X214100000Y-87800000D02*
X214100000Y-83950000D01*
%TO.C,Dsn102*%
X108500000Y-87750000D02*
X110500000Y-87750000D01*
X110500000Y-87750000D02*
X110500000Y-83900000D01*
X108500000Y-87750000D02*
X108500000Y-83900000D01*
%TO.C,Dsn101*%
X106150000Y-87750000D02*
X108150000Y-87750000D01*
X108150000Y-87750000D02*
X108150000Y-83900000D01*
X106150000Y-87750000D02*
X106150000Y-83900000D01*
%TO.C,Csn108*%
X210360000Y-118488748D02*
X210360000Y-119911252D01*
X207640000Y-118488748D02*
X207640000Y-119911252D01*
%TO.C,Csn107*%
X213610000Y-118488748D02*
X213610000Y-119911252D01*
X210890000Y-118488748D02*
X210890000Y-119911252D01*
%TO.C,Csn106*%
X113610000Y-118388748D02*
X113610000Y-119811252D01*
X110890000Y-118388748D02*
X110890000Y-119811252D01*
%TO.C,Csn105*%
X116860000Y-118388748D02*
X116860000Y-119811252D01*
X114140000Y-118388748D02*
X114140000Y-119811252D01*
%TO.C,Csn104*%
X213560000Y-89888748D02*
X213560000Y-91311252D01*
X210840000Y-89888748D02*
X210840000Y-91311252D01*
%TO.C,Csn102*%
X113660000Y-89888748D02*
X113660000Y-91311252D01*
X110940000Y-89888748D02*
X110940000Y-91311252D01*
%TO.C,Csn101*%
X116910000Y-89888748D02*
X116910000Y-91311252D01*
X114190000Y-89888748D02*
X114190000Y-91311252D01*
%TO.C,U102*%
X167212500Y-104705000D02*
X170662500Y-104705000D01*
X167212500Y-104705000D02*
X165262500Y-104705000D01*
X167212500Y-99585000D02*
X169162500Y-99585000D01*
X167212500Y-99585000D02*
X165262500Y-99585000D01*
%TO.C,U101*%
X157250000Y-99640000D02*
X153800000Y-99640000D01*
X157250000Y-99640000D02*
X159200000Y-99640000D01*
X157250000Y-104760000D02*
X155300000Y-104760000D01*
X157250000Y-104760000D02*
X159200000Y-104760000D01*
%TO.C,TH101*%
X172485000Y-115552064D02*
X172485000Y-115097936D01*
X171015000Y-115552064D02*
X171015000Y-115097936D01*
%TO.C,C111*%
X168936252Y-106810000D02*
X168413748Y-106810000D01*
X168936252Y-108280000D02*
X168413748Y-108280000D01*
%TO.C,C110*%
X167901248Y-111605000D02*
X169323752Y-111605000D01*
X167901248Y-108885000D02*
X169323752Y-108885000D01*
%TO.C,C122*%
X165702500Y-95633748D02*
X165702500Y-97056252D01*
X168422500Y-95633748D02*
X168422500Y-97056252D01*
%TO.C,C134*%
X170360000Y-115446267D02*
X170360000Y-115153733D01*
X169340000Y-115446267D02*
X169340000Y-115153733D01*
%TO.C,R117*%
X166995276Y-116647500D02*
X167504724Y-116647500D01*
X166995276Y-115602500D02*
X167504724Y-115602500D01*
%TO.C,D118*%
X159350000Y-108700000D02*
X159350000Y-106150000D01*
X161050000Y-108700000D02*
X161050000Y-106150000D01*
X159350000Y-108700000D02*
X161050000Y-108700000D01*
%TO.C,R137*%
X172585000Y-97599724D02*
X172585000Y-97090276D01*
X171540000Y-97599724D02*
X171540000Y-97090276D01*
%TO.C,R136*%
X151877500Y-106745276D02*
X151877500Y-107254724D01*
X152922500Y-106745276D02*
X152922500Y-107254724D01*
%TO.C,D114*%
X165112500Y-95645000D02*
X165112500Y-98195000D01*
X163412500Y-95645000D02*
X163412500Y-98195000D01*
X165112500Y-95645000D02*
X163412500Y-95645000D01*
%TO.C,D111*%
X169062500Y-99145000D02*
X169062500Y-95295000D01*
X171062500Y-99145000D02*
X171062500Y-95295000D01*
X169062500Y-99145000D02*
X171062500Y-99145000D01*
%TO.C,D110*%
X173262500Y-103300000D02*
X173262500Y-107150000D01*
X171262500Y-103300000D02*
X171262500Y-107150000D01*
X173262500Y-103300000D02*
X171262500Y-103300000D01*
%TO.C,D103*%
X155400000Y-105200000D02*
X155400000Y-109050000D01*
X153400000Y-105200000D02*
X153400000Y-109050000D01*
X155400000Y-105200000D02*
X153400000Y-105200000D01*
%TO.C,D102*%
X151200000Y-101000000D02*
X151200000Y-97150000D01*
X153200000Y-101000000D02*
X153200000Y-97150000D01*
X151200000Y-101000000D02*
X153200000Y-101000000D01*
%TO.C,C196*%
X168683767Y-105235000D02*
X168391233Y-105235000D01*
X168683767Y-106255000D02*
X168391233Y-106255000D01*
%TO.C,C195*%
X155791233Y-99110000D02*
X156083767Y-99110000D01*
X155791233Y-98090000D02*
X156083767Y-98090000D01*
%TO.C,C131*%
X153783767Y-84890000D02*
X153491233Y-84890000D01*
X153783767Y-85910000D02*
X153491233Y-85910000D01*
%TO.C,R123*%
X170545276Y-83222500D02*
X171054724Y-83222500D01*
X170545276Y-82177500D02*
X171054724Y-82177500D01*
%TO.C,R122*%
X170545276Y-89522500D02*
X171054724Y-89522500D01*
X170545276Y-88477500D02*
X171054724Y-88477500D01*
%TO.C,R121*%
X153854724Y-86577500D02*
X153345276Y-86577500D01*
X153854724Y-87622500D02*
X153345276Y-87622500D01*
%TO.C,R120*%
X171054724Y-80577500D02*
X170545276Y-80577500D01*
X171054724Y-81622500D02*
X170545276Y-81622500D01*
%TO.C,R119*%
X171054724Y-90077500D02*
X170545276Y-90077500D01*
X171054724Y-91122500D02*
X170545276Y-91122500D01*
%TO.C,R118*%
X153332776Y-89322500D02*
X153842224Y-89322500D01*
X153332776Y-88277500D02*
X153842224Y-88277500D01*
%TO.C,C133*%
X170616233Y-84810000D02*
X170908767Y-84810000D01*
X170616233Y-83790000D02*
X170908767Y-83790000D01*
%TO.C,C132*%
X170616233Y-87810000D02*
X170908767Y-87810000D01*
X170616233Y-86790000D02*
X170908767Y-86790000D01*
%TO.C,C108*%
X155538748Y-97535000D02*
X156061252Y-97535000D01*
X155538748Y-96065000D02*
X156061252Y-96065000D01*
%TO.C,C107*%
X156548752Y-92840000D02*
X155126248Y-92840000D01*
X156548752Y-95560000D02*
X155126248Y-95560000D01*
%TO.C,Csn103*%
X207540000Y-89888748D02*
X207540000Y-91311252D01*
X210260000Y-89888748D02*
X210260000Y-91311252D01*
%TO.C,J105*%
X168595000Y-83285000D02*
X168660000Y-83285000D01*
X168595000Y-86815000D02*
X168660000Y-86815000D01*
X155840000Y-83285000D02*
X155905000Y-83285000D01*
X155840000Y-86815000D02*
X155905000Y-86815000D01*
X155905000Y-88140000D02*
X155905000Y-86815000D01*
X168660000Y-86815000D02*
X168660000Y-83285000D01*
X155840000Y-86815000D02*
X155840000Y-83285000D01*
%TO.C,C109*%
X158760000Y-108711252D02*
X158760000Y-107288748D01*
X156040000Y-108711252D02*
X156040000Y-107288748D01*
%TO.C,Rsn103*%
X207545000Y-84876263D02*
X207545000Y-86323737D01*
X210255000Y-84876263D02*
X210255000Y-86323737D01*
%TO.C,Q112*%
D11*
X196347619Y-115697619D02*
X196300000Y-115792857D01*
X196204761Y-115888095D01*
X196061904Y-116030952D01*
X196014285Y-116126190D01*
X196014285Y-116221428D01*
X196252380Y-116173809D02*
X196204761Y-116269047D01*
X196109523Y-116364285D01*
X195919047Y-116411904D01*
X195585714Y-116411904D01*
X195395238Y-116364285D01*
X195300000Y-116269047D01*
X195252380Y-116173809D01*
X195252380Y-115983333D01*
X195300000Y-115888095D01*
X195395238Y-115792857D01*
X195585714Y-115745238D01*
X195919047Y-115745238D01*
X196109523Y-115792857D01*
X196204761Y-115888095D01*
X196252380Y-115983333D01*
X196252380Y-116173809D01*
X196252380Y-114792857D02*
X196252380Y-115364285D01*
X196252380Y-115078571D02*
X195252380Y-115078571D01*
X195395238Y-115173809D01*
X195490476Y-115269047D01*
X195538095Y-115364285D01*
X196252380Y-113840476D02*
X196252380Y-114411904D01*
X196252380Y-114126190D02*
X195252380Y-114126190D01*
X195395238Y-114221428D01*
X195490476Y-114316666D01*
X195538095Y-114411904D01*
X195347619Y-113459523D02*
X195300000Y-113411904D01*
X195252380Y-113316666D01*
X195252380Y-113078571D01*
X195300000Y-112983333D01*
X195347619Y-112935714D01*
X195442857Y-112888095D01*
X195538095Y-112888095D01*
X195680952Y-112935714D01*
X196252380Y-113507142D01*
X196252380Y-112888095D01*
%TO.C,Q111*%
X184672619Y-115697619D02*
X184625000Y-115792857D01*
X184529761Y-115888095D01*
X184386904Y-116030952D01*
X184339285Y-116126190D01*
X184339285Y-116221428D01*
X184577380Y-116173809D02*
X184529761Y-116269047D01*
X184434523Y-116364285D01*
X184244047Y-116411904D01*
X183910714Y-116411904D01*
X183720238Y-116364285D01*
X183625000Y-116269047D01*
X183577380Y-116173809D01*
X183577380Y-115983333D01*
X183625000Y-115888095D01*
X183720238Y-115792857D01*
X183910714Y-115745238D01*
X184244047Y-115745238D01*
X184434523Y-115792857D01*
X184529761Y-115888095D01*
X184577380Y-115983333D01*
X184577380Y-116173809D01*
X184577380Y-114792857D02*
X184577380Y-115364285D01*
X184577380Y-115078571D02*
X183577380Y-115078571D01*
X183720238Y-115173809D01*
X183815476Y-115269047D01*
X183863095Y-115364285D01*
X184577380Y-113840476D02*
X184577380Y-114411904D01*
X184577380Y-114126190D02*
X183577380Y-114126190D01*
X183720238Y-114221428D01*
X183815476Y-114316666D01*
X183863095Y-114411904D01*
X184577380Y-112888095D02*
X184577380Y-113459523D01*
X184577380Y-113173809D02*
X183577380Y-113173809D01*
X183720238Y-113269047D01*
X183815476Y-113364285D01*
X183863095Y-113459523D01*
%TO.C,Q110*%
X172997619Y-115697619D02*
X172950000Y-115792857D01*
X172854761Y-115888095D01*
X172711904Y-116030952D01*
X172664285Y-116126190D01*
X172664285Y-116221428D01*
X172902380Y-116173809D02*
X172854761Y-116269047D01*
X172759523Y-116364285D01*
X172569047Y-116411904D01*
X172235714Y-116411904D01*
X172045238Y-116364285D01*
X171950000Y-116269047D01*
X171902380Y-116173809D01*
X171902380Y-115983333D01*
X171950000Y-115888095D01*
X172045238Y-115792857D01*
X172235714Y-115745238D01*
X172569047Y-115745238D01*
X172759523Y-115792857D01*
X172854761Y-115888095D01*
X172902380Y-115983333D01*
X172902380Y-116173809D01*
X172902380Y-114792857D02*
X172902380Y-115364285D01*
X172902380Y-115078571D02*
X171902380Y-115078571D01*
X172045238Y-115173809D01*
X172140476Y-115269047D01*
X172188095Y-115364285D01*
X172902380Y-113840476D02*
X172902380Y-114411904D01*
X172902380Y-114126190D02*
X171902380Y-114126190D01*
X172045238Y-114221428D01*
X172140476Y-114316666D01*
X172188095Y-114411904D01*
X171902380Y-113221428D02*
X171902380Y-113126190D01*
X171950000Y-113030952D01*
X171997619Y-112983333D01*
X172092857Y-112935714D01*
X172283333Y-112888095D01*
X172521428Y-112888095D01*
X172711904Y-112935714D01*
X172807142Y-112983333D01*
X172854761Y-113030952D01*
X172902380Y-113126190D01*
X172902380Y-113221428D01*
X172854761Y-113316666D01*
X172807142Y-113364285D01*
X172711904Y-113411904D01*
X172521428Y-113459523D01*
X172283333Y-113459523D01*
X172092857Y-113411904D01*
X171997619Y-113364285D01*
X171950000Y-113316666D01*
X171902380Y-113221428D01*
%TO.C,Q109*%
X140597619Y-115697619D02*
X140550000Y-115792857D01*
X140454761Y-115888095D01*
X140311904Y-116030952D01*
X140264285Y-116126190D01*
X140264285Y-116221428D01*
X140502380Y-116173809D02*
X140454761Y-116269047D01*
X140359523Y-116364285D01*
X140169047Y-116411904D01*
X139835714Y-116411904D01*
X139645238Y-116364285D01*
X139550000Y-116269047D01*
X139502380Y-116173809D01*
X139502380Y-115983333D01*
X139550000Y-115888095D01*
X139645238Y-115792857D01*
X139835714Y-115745238D01*
X140169047Y-115745238D01*
X140359523Y-115792857D01*
X140454761Y-115888095D01*
X140502380Y-115983333D01*
X140502380Y-116173809D01*
X140502380Y-114792857D02*
X140502380Y-115364285D01*
X140502380Y-115078571D02*
X139502380Y-115078571D01*
X139645238Y-115173809D01*
X139740476Y-115269047D01*
X139788095Y-115364285D01*
X139502380Y-114173809D02*
X139502380Y-114078571D01*
X139550000Y-113983333D01*
X139597619Y-113935714D01*
X139692857Y-113888095D01*
X139883333Y-113840476D01*
X140121428Y-113840476D01*
X140311904Y-113888095D01*
X140407142Y-113935714D01*
X140454761Y-113983333D01*
X140502380Y-114078571D01*
X140502380Y-114173809D01*
X140454761Y-114269047D01*
X140407142Y-114316666D01*
X140311904Y-114364285D01*
X140121428Y-114411904D01*
X139883333Y-114411904D01*
X139692857Y-114364285D01*
X139597619Y-114316666D01*
X139550000Y-114269047D01*
X139502380Y-114173809D01*
X140502380Y-113364285D02*
X140502380Y-113173809D01*
X140454761Y-113078571D01*
X140407142Y-113030952D01*
X140264285Y-112935714D01*
X140073809Y-112888095D01*
X139692857Y-112888095D01*
X139597619Y-112935714D01*
X139550000Y-112983333D01*
X139502380Y-113078571D01*
X139502380Y-113269047D01*
X139550000Y-113364285D01*
X139597619Y-113411904D01*
X139692857Y-113459523D01*
X139930952Y-113459523D01*
X140026190Y-113411904D01*
X140073809Y-113364285D01*
X140121428Y-113269047D01*
X140121428Y-113078571D01*
X140073809Y-112983333D01*
X140026190Y-112935714D01*
X139930952Y-112888095D01*
%TO.C,Q108*%
X128922619Y-115697619D02*
X128875000Y-115792857D01*
X128779761Y-115888095D01*
X128636904Y-116030952D01*
X128589285Y-116126190D01*
X128589285Y-116221428D01*
X128827380Y-116173809D02*
X128779761Y-116269047D01*
X128684523Y-116364285D01*
X128494047Y-116411904D01*
X128160714Y-116411904D01*
X127970238Y-116364285D01*
X127875000Y-116269047D01*
X127827380Y-116173809D01*
X127827380Y-115983333D01*
X127875000Y-115888095D01*
X127970238Y-115792857D01*
X128160714Y-115745238D01*
X128494047Y-115745238D01*
X128684523Y-115792857D01*
X128779761Y-115888095D01*
X128827380Y-115983333D01*
X128827380Y-116173809D01*
X128827380Y-114792857D02*
X128827380Y-115364285D01*
X128827380Y-115078571D02*
X127827380Y-115078571D01*
X127970238Y-115173809D01*
X128065476Y-115269047D01*
X128113095Y-115364285D01*
X127827380Y-114173809D02*
X127827380Y-114078571D01*
X127875000Y-113983333D01*
X127922619Y-113935714D01*
X128017857Y-113888095D01*
X128208333Y-113840476D01*
X128446428Y-113840476D01*
X128636904Y-113888095D01*
X128732142Y-113935714D01*
X128779761Y-113983333D01*
X128827380Y-114078571D01*
X128827380Y-114173809D01*
X128779761Y-114269047D01*
X128732142Y-114316666D01*
X128636904Y-114364285D01*
X128446428Y-114411904D01*
X128208333Y-114411904D01*
X128017857Y-114364285D01*
X127922619Y-114316666D01*
X127875000Y-114269047D01*
X127827380Y-114173809D01*
X128255952Y-113269047D02*
X128208333Y-113364285D01*
X128160714Y-113411904D01*
X128065476Y-113459523D01*
X128017857Y-113459523D01*
X127922619Y-113411904D01*
X127875000Y-113364285D01*
X127827380Y-113269047D01*
X127827380Y-113078571D01*
X127875000Y-112983333D01*
X127922619Y-112935714D01*
X128017857Y-112888095D01*
X128065476Y-112888095D01*
X128160714Y-112935714D01*
X128208333Y-112983333D01*
X128255952Y-113078571D01*
X128255952Y-113269047D01*
X128303571Y-113364285D01*
X128351190Y-113411904D01*
X128446428Y-113459523D01*
X128636904Y-113459523D01*
X128732142Y-113411904D01*
X128779761Y-113364285D01*
X128827380Y-113269047D01*
X128827380Y-113078571D01*
X128779761Y-112983333D01*
X128732142Y-112935714D01*
X128636904Y-112888095D01*
X128446428Y-112888095D01*
X128351190Y-112935714D01*
X128303571Y-112983333D01*
X128255952Y-113078571D01*
%TO.C,Q107*%
X117247619Y-115697619D02*
X117200000Y-115792857D01*
X117104761Y-115888095D01*
X116961904Y-116030952D01*
X116914285Y-116126190D01*
X116914285Y-116221428D01*
X117152380Y-116173809D02*
X117104761Y-116269047D01*
X117009523Y-116364285D01*
X116819047Y-116411904D01*
X116485714Y-116411904D01*
X116295238Y-116364285D01*
X116200000Y-116269047D01*
X116152380Y-116173809D01*
X116152380Y-115983333D01*
X116200000Y-115888095D01*
X116295238Y-115792857D01*
X116485714Y-115745238D01*
X116819047Y-115745238D01*
X117009523Y-115792857D01*
X117104761Y-115888095D01*
X117152380Y-115983333D01*
X117152380Y-116173809D01*
X117152380Y-114792857D02*
X117152380Y-115364285D01*
X117152380Y-115078571D02*
X116152380Y-115078571D01*
X116295238Y-115173809D01*
X116390476Y-115269047D01*
X116438095Y-115364285D01*
X116152380Y-114173809D02*
X116152380Y-114078571D01*
X116200000Y-113983333D01*
X116247619Y-113935714D01*
X116342857Y-113888095D01*
X116533333Y-113840476D01*
X116771428Y-113840476D01*
X116961904Y-113888095D01*
X117057142Y-113935714D01*
X117104761Y-113983333D01*
X117152380Y-114078571D01*
X117152380Y-114173809D01*
X117104761Y-114269047D01*
X117057142Y-114316666D01*
X116961904Y-114364285D01*
X116771428Y-114411904D01*
X116533333Y-114411904D01*
X116342857Y-114364285D01*
X116247619Y-114316666D01*
X116200000Y-114269047D01*
X116152380Y-114173809D01*
X116152380Y-113507142D02*
X116152380Y-112840476D01*
X117152380Y-113269047D01*
%TO.C,Q106*%
X196347619Y-88497619D02*
X196300000Y-88592857D01*
X196204761Y-88688095D01*
X196061904Y-88830952D01*
X196014285Y-88926190D01*
X196014285Y-89021428D01*
X196252380Y-88973809D02*
X196204761Y-89069047D01*
X196109523Y-89164285D01*
X195919047Y-89211904D01*
X195585714Y-89211904D01*
X195395238Y-89164285D01*
X195300000Y-89069047D01*
X195252380Y-88973809D01*
X195252380Y-88783333D01*
X195300000Y-88688095D01*
X195395238Y-88592857D01*
X195585714Y-88545238D01*
X195919047Y-88545238D01*
X196109523Y-88592857D01*
X196204761Y-88688095D01*
X196252380Y-88783333D01*
X196252380Y-88973809D01*
X196252380Y-87592857D02*
X196252380Y-88164285D01*
X196252380Y-87878571D02*
X195252380Y-87878571D01*
X195395238Y-87973809D01*
X195490476Y-88069047D01*
X195538095Y-88164285D01*
X195252380Y-86973809D02*
X195252380Y-86878571D01*
X195300000Y-86783333D01*
X195347619Y-86735714D01*
X195442857Y-86688095D01*
X195633333Y-86640476D01*
X195871428Y-86640476D01*
X196061904Y-86688095D01*
X196157142Y-86735714D01*
X196204761Y-86783333D01*
X196252380Y-86878571D01*
X196252380Y-86973809D01*
X196204761Y-87069047D01*
X196157142Y-87116666D01*
X196061904Y-87164285D01*
X195871428Y-87211904D01*
X195633333Y-87211904D01*
X195442857Y-87164285D01*
X195347619Y-87116666D01*
X195300000Y-87069047D01*
X195252380Y-86973809D01*
X195252380Y-85783333D02*
X195252380Y-85973809D01*
X195300000Y-86069047D01*
X195347619Y-86116666D01*
X195490476Y-86211904D01*
X195680952Y-86259523D01*
X196061904Y-86259523D01*
X196157142Y-86211904D01*
X196204761Y-86164285D01*
X196252380Y-86069047D01*
X196252380Y-85878571D01*
X196204761Y-85783333D01*
X196157142Y-85735714D01*
X196061904Y-85688095D01*
X195823809Y-85688095D01*
X195728571Y-85735714D01*
X195680952Y-85783333D01*
X195633333Y-85878571D01*
X195633333Y-86069047D01*
X195680952Y-86164285D01*
X195728571Y-86211904D01*
X195823809Y-86259523D01*
%TO.C,Q105*%
X184672619Y-88497619D02*
X184625000Y-88592857D01*
X184529761Y-88688095D01*
X184386904Y-88830952D01*
X184339285Y-88926190D01*
X184339285Y-89021428D01*
X184577380Y-88973809D02*
X184529761Y-89069047D01*
X184434523Y-89164285D01*
X184244047Y-89211904D01*
X183910714Y-89211904D01*
X183720238Y-89164285D01*
X183625000Y-89069047D01*
X183577380Y-88973809D01*
X183577380Y-88783333D01*
X183625000Y-88688095D01*
X183720238Y-88592857D01*
X183910714Y-88545238D01*
X184244047Y-88545238D01*
X184434523Y-88592857D01*
X184529761Y-88688095D01*
X184577380Y-88783333D01*
X184577380Y-88973809D01*
X184577380Y-87592857D02*
X184577380Y-88164285D01*
X184577380Y-87878571D02*
X183577380Y-87878571D01*
X183720238Y-87973809D01*
X183815476Y-88069047D01*
X183863095Y-88164285D01*
X183577380Y-86973809D02*
X183577380Y-86878571D01*
X183625000Y-86783333D01*
X183672619Y-86735714D01*
X183767857Y-86688095D01*
X183958333Y-86640476D01*
X184196428Y-86640476D01*
X184386904Y-86688095D01*
X184482142Y-86735714D01*
X184529761Y-86783333D01*
X184577380Y-86878571D01*
X184577380Y-86973809D01*
X184529761Y-87069047D01*
X184482142Y-87116666D01*
X184386904Y-87164285D01*
X184196428Y-87211904D01*
X183958333Y-87211904D01*
X183767857Y-87164285D01*
X183672619Y-87116666D01*
X183625000Y-87069047D01*
X183577380Y-86973809D01*
X183577380Y-85735714D02*
X183577380Y-86211904D01*
X184053571Y-86259523D01*
X184005952Y-86211904D01*
X183958333Y-86116666D01*
X183958333Y-85878571D01*
X184005952Y-85783333D01*
X184053571Y-85735714D01*
X184148809Y-85688095D01*
X184386904Y-85688095D01*
X184482142Y-85735714D01*
X184529761Y-85783333D01*
X184577380Y-85878571D01*
X184577380Y-86116666D01*
X184529761Y-86211904D01*
X184482142Y-86259523D01*
%TO.C,Q104*%
X172997619Y-88497619D02*
X172950000Y-88592857D01*
X172854761Y-88688095D01*
X172711904Y-88830952D01*
X172664285Y-88926190D01*
X172664285Y-89021428D01*
X172902380Y-88973809D02*
X172854761Y-89069047D01*
X172759523Y-89164285D01*
X172569047Y-89211904D01*
X172235714Y-89211904D01*
X172045238Y-89164285D01*
X171950000Y-89069047D01*
X171902380Y-88973809D01*
X171902380Y-88783333D01*
X171950000Y-88688095D01*
X172045238Y-88592857D01*
X172235714Y-88545238D01*
X172569047Y-88545238D01*
X172759523Y-88592857D01*
X172854761Y-88688095D01*
X172902380Y-88783333D01*
X172902380Y-88973809D01*
X172902380Y-87592857D02*
X172902380Y-88164285D01*
X172902380Y-87878571D02*
X171902380Y-87878571D01*
X172045238Y-87973809D01*
X172140476Y-88069047D01*
X172188095Y-88164285D01*
X171902380Y-86973809D02*
X171902380Y-86878571D01*
X171950000Y-86783333D01*
X171997619Y-86735714D01*
X172092857Y-86688095D01*
X172283333Y-86640476D01*
X172521428Y-86640476D01*
X172711904Y-86688095D01*
X172807142Y-86735714D01*
X172854761Y-86783333D01*
X172902380Y-86878571D01*
X172902380Y-86973809D01*
X172854761Y-87069047D01*
X172807142Y-87116666D01*
X172711904Y-87164285D01*
X172521428Y-87211904D01*
X172283333Y-87211904D01*
X172092857Y-87164285D01*
X171997619Y-87116666D01*
X171950000Y-87069047D01*
X171902380Y-86973809D01*
X172235714Y-85783333D02*
X172902380Y-85783333D01*
X171854761Y-86021428D02*
X172569047Y-86259523D01*
X172569047Y-85640476D01*
%TO.C,Q103*%
X140597619Y-88497619D02*
X140550000Y-88592857D01*
X140454761Y-88688095D01*
X140311904Y-88830952D01*
X140264285Y-88926190D01*
X140264285Y-89021428D01*
X140502380Y-88973809D02*
X140454761Y-89069047D01*
X140359523Y-89164285D01*
X140169047Y-89211904D01*
X139835714Y-89211904D01*
X139645238Y-89164285D01*
X139550000Y-89069047D01*
X139502380Y-88973809D01*
X139502380Y-88783333D01*
X139550000Y-88688095D01*
X139645238Y-88592857D01*
X139835714Y-88545238D01*
X140169047Y-88545238D01*
X140359523Y-88592857D01*
X140454761Y-88688095D01*
X140502380Y-88783333D01*
X140502380Y-88973809D01*
X140502380Y-87592857D02*
X140502380Y-88164285D01*
X140502380Y-87878571D02*
X139502380Y-87878571D01*
X139645238Y-87973809D01*
X139740476Y-88069047D01*
X139788095Y-88164285D01*
X139502380Y-86973809D02*
X139502380Y-86878571D01*
X139550000Y-86783333D01*
X139597619Y-86735714D01*
X139692857Y-86688095D01*
X139883333Y-86640476D01*
X140121428Y-86640476D01*
X140311904Y-86688095D01*
X140407142Y-86735714D01*
X140454761Y-86783333D01*
X140502380Y-86878571D01*
X140502380Y-86973809D01*
X140454761Y-87069047D01*
X140407142Y-87116666D01*
X140311904Y-87164285D01*
X140121428Y-87211904D01*
X139883333Y-87211904D01*
X139692857Y-87164285D01*
X139597619Y-87116666D01*
X139550000Y-87069047D01*
X139502380Y-86973809D01*
X139502380Y-86307142D02*
X139502380Y-85688095D01*
X139883333Y-86021428D01*
X139883333Y-85878571D01*
X139930952Y-85783333D01*
X139978571Y-85735714D01*
X140073809Y-85688095D01*
X140311904Y-85688095D01*
X140407142Y-85735714D01*
X140454761Y-85783333D01*
X140502380Y-85878571D01*
X140502380Y-86164285D01*
X140454761Y-86259523D01*
X140407142Y-86307142D01*
%TO.C,Q102*%
X128922619Y-88497619D02*
X128875000Y-88592857D01*
X128779761Y-88688095D01*
X128636904Y-88830952D01*
X128589285Y-88926190D01*
X128589285Y-89021428D01*
X128827380Y-88973809D02*
X128779761Y-89069047D01*
X128684523Y-89164285D01*
X128494047Y-89211904D01*
X128160714Y-89211904D01*
X127970238Y-89164285D01*
X127875000Y-89069047D01*
X127827380Y-88973809D01*
X127827380Y-88783333D01*
X127875000Y-88688095D01*
X127970238Y-88592857D01*
X128160714Y-88545238D01*
X128494047Y-88545238D01*
X128684523Y-88592857D01*
X128779761Y-88688095D01*
X128827380Y-88783333D01*
X128827380Y-88973809D01*
X128827380Y-87592857D02*
X128827380Y-88164285D01*
X128827380Y-87878571D02*
X127827380Y-87878571D01*
X127970238Y-87973809D01*
X128065476Y-88069047D01*
X128113095Y-88164285D01*
X127827380Y-86973809D02*
X127827380Y-86878571D01*
X127875000Y-86783333D01*
X127922619Y-86735714D01*
X128017857Y-86688095D01*
X128208333Y-86640476D01*
X128446428Y-86640476D01*
X128636904Y-86688095D01*
X128732142Y-86735714D01*
X128779761Y-86783333D01*
X128827380Y-86878571D01*
X128827380Y-86973809D01*
X128779761Y-87069047D01*
X128732142Y-87116666D01*
X128636904Y-87164285D01*
X128446428Y-87211904D01*
X128208333Y-87211904D01*
X128017857Y-87164285D01*
X127922619Y-87116666D01*
X127875000Y-87069047D01*
X127827380Y-86973809D01*
X127922619Y-86259523D02*
X127875000Y-86211904D01*
X127827380Y-86116666D01*
X127827380Y-85878571D01*
X127875000Y-85783333D01*
X127922619Y-85735714D01*
X128017857Y-85688095D01*
X128113095Y-85688095D01*
X128255952Y-85735714D01*
X128827380Y-86307142D01*
X128827380Y-85688095D01*
%TO.C,Q101*%
X117247619Y-88497619D02*
X117200000Y-88592857D01*
X117104761Y-88688095D01*
X116961904Y-88830952D01*
X116914285Y-88926190D01*
X116914285Y-89021428D01*
X117152380Y-88973809D02*
X117104761Y-89069047D01*
X117009523Y-89164285D01*
X116819047Y-89211904D01*
X116485714Y-89211904D01*
X116295238Y-89164285D01*
X116200000Y-89069047D01*
X116152380Y-88973809D01*
X116152380Y-88783333D01*
X116200000Y-88688095D01*
X116295238Y-88592857D01*
X116485714Y-88545238D01*
X116819047Y-88545238D01*
X117009523Y-88592857D01*
X117104761Y-88688095D01*
X117152380Y-88783333D01*
X117152380Y-88973809D01*
X117152380Y-87592857D02*
X117152380Y-88164285D01*
X117152380Y-87878571D02*
X116152380Y-87878571D01*
X116295238Y-87973809D01*
X116390476Y-88069047D01*
X116438095Y-88164285D01*
X116152380Y-86973809D02*
X116152380Y-86878571D01*
X116200000Y-86783333D01*
X116247619Y-86735714D01*
X116342857Y-86688095D01*
X116533333Y-86640476D01*
X116771428Y-86640476D01*
X116961904Y-86688095D01*
X117057142Y-86735714D01*
X117104761Y-86783333D01*
X117152380Y-86878571D01*
X117152380Y-86973809D01*
X117104761Y-87069047D01*
X117057142Y-87116666D01*
X116961904Y-87164285D01*
X116771428Y-87211904D01*
X116533333Y-87211904D01*
X116342857Y-87164285D01*
X116247619Y-87116666D01*
X116200000Y-87069047D01*
X116152380Y-86973809D01*
X117152380Y-85688095D02*
X117152380Y-86259523D01*
X117152380Y-85973809D02*
X116152380Y-85973809D01*
X116295238Y-86069047D01*
X116390476Y-86164285D01*
X116438095Y-86259523D01*
%TO.C,Rsn108*%
X214952380Y-116176190D02*
X214476190Y-116509523D01*
X214952380Y-116747619D02*
X213952380Y-116747619D01*
X213952380Y-116366666D01*
X214000000Y-116271428D01*
X214047619Y-116223809D01*
X214142857Y-116176190D01*
X214285714Y-116176190D01*
X214380952Y-116223809D01*
X214428571Y-116271428D01*
X214476190Y-116366666D01*
X214476190Y-116747619D01*
X214904761Y-115795238D02*
X214952380Y-115700000D01*
X214952380Y-115509523D01*
X214904761Y-115414285D01*
X214809523Y-115366666D01*
X214761904Y-115366666D01*
X214666666Y-115414285D01*
X214619047Y-115509523D01*
X214619047Y-115652380D01*
X214571428Y-115747619D01*
X214476190Y-115795238D01*
X214428571Y-115795238D01*
X214333333Y-115747619D01*
X214285714Y-115652380D01*
X214285714Y-115509523D01*
X214333333Y-115414285D01*
X214285714Y-114938095D02*
X214952380Y-114938095D01*
X214380952Y-114938095D02*
X214333333Y-114890476D01*
X214285714Y-114795238D01*
X214285714Y-114652380D01*
X214333333Y-114557142D01*
X214428571Y-114509523D01*
X214952380Y-114509523D01*
X214952380Y-113509523D02*
X214952380Y-114080952D01*
X214952380Y-113795238D02*
X213952380Y-113795238D01*
X214095238Y-113890476D01*
X214190476Y-113985714D01*
X214238095Y-114080952D01*
X213952380Y-112890476D02*
X213952380Y-112795238D01*
X214000000Y-112700000D01*
X214047619Y-112652380D01*
X214142857Y-112604761D01*
X214333333Y-112557142D01*
X214571428Y-112557142D01*
X214761904Y-112604761D01*
X214857142Y-112652380D01*
X214904761Y-112700000D01*
X214952380Y-112795238D01*
X214952380Y-112890476D01*
X214904761Y-112985714D01*
X214857142Y-113033333D01*
X214761904Y-113080952D01*
X214571428Y-113128571D01*
X214333333Y-113128571D01*
X214142857Y-113080952D01*
X214047619Y-113033333D01*
X214000000Y-112985714D01*
X213952380Y-112890476D01*
X214380952Y-111985714D02*
X214333333Y-112080952D01*
X214285714Y-112128571D01*
X214190476Y-112176190D01*
X214142857Y-112176190D01*
X214047619Y-112128571D01*
X214000000Y-112080952D01*
X213952380Y-111985714D01*
X213952380Y-111795238D01*
X214000000Y-111700000D01*
X214047619Y-111652380D01*
X214142857Y-111604761D01*
X214190476Y-111604761D01*
X214285714Y-111652380D01*
X214333333Y-111700000D01*
X214380952Y-111795238D01*
X214380952Y-111985714D01*
X214428571Y-112080952D01*
X214476190Y-112128571D01*
X214571428Y-112176190D01*
X214761904Y-112176190D01*
X214857142Y-112128571D01*
X214904761Y-112080952D01*
X214952380Y-111985714D01*
X214952380Y-111795238D01*
X214904761Y-111700000D01*
X214857142Y-111652380D01*
X214761904Y-111604761D01*
X214571428Y-111604761D01*
X214476190Y-111652380D01*
X214428571Y-111700000D01*
X214380952Y-111795238D01*
%TO.C,Rsn107*%
X211732380Y-116176190D02*
X211256190Y-116509523D01*
X211732380Y-116747619D02*
X210732380Y-116747619D01*
X210732380Y-116366666D01*
X210780000Y-116271428D01*
X210827619Y-116223809D01*
X210922857Y-116176190D01*
X211065714Y-116176190D01*
X211160952Y-116223809D01*
X211208571Y-116271428D01*
X211256190Y-116366666D01*
X211256190Y-116747619D01*
X211684761Y-115795238D02*
X211732380Y-115700000D01*
X211732380Y-115509523D01*
X211684761Y-115414285D01*
X211589523Y-115366666D01*
X211541904Y-115366666D01*
X211446666Y-115414285D01*
X211399047Y-115509523D01*
X211399047Y-115652380D01*
X211351428Y-115747619D01*
X211256190Y-115795238D01*
X211208571Y-115795238D01*
X211113333Y-115747619D01*
X211065714Y-115652380D01*
X211065714Y-115509523D01*
X211113333Y-115414285D01*
X211065714Y-114938095D02*
X211732380Y-114938095D01*
X211160952Y-114938095D02*
X211113333Y-114890476D01*
X211065714Y-114795238D01*
X211065714Y-114652380D01*
X211113333Y-114557142D01*
X211208571Y-114509523D01*
X211732380Y-114509523D01*
X211732380Y-113509523D02*
X211732380Y-114080952D01*
X211732380Y-113795238D02*
X210732380Y-113795238D01*
X210875238Y-113890476D01*
X210970476Y-113985714D01*
X211018095Y-114080952D01*
X210732380Y-112890476D02*
X210732380Y-112795238D01*
X210780000Y-112700000D01*
X210827619Y-112652380D01*
X210922857Y-112604761D01*
X211113333Y-112557142D01*
X211351428Y-112557142D01*
X211541904Y-112604761D01*
X211637142Y-112652380D01*
X211684761Y-112700000D01*
X211732380Y-112795238D01*
X211732380Y-112890476D01*
X211684761Y-112985714D01*
X211637142Y-113033333D01*
X211541904Y-113080952D01*
X211351428Y-113128571D01*
X211113333Y-113128571D01*
X210922857Y-113080952D01*
X210827619Y-113033333D01*
X210780000Y-112985714D01*
X210732380Y-112890476D01*
X210732380Y-112223809D02*
X210732380Y-111557142D01*
X211732380Y-111985714D01*
%TO.C,Rsn106*%
X115032380Y-116026190D02*
X114556190Y-116359523D01*
X115032380Y-116597619D02*
X114032380Y-116597619D01*
X114032380Y-116216666D01*
X114080000Y-116121428D01*
X114127619Y-116073809D01*
X114222857Y-116026190D01*
X114365714Y-116026190D01*
X114460952Y-116073809D01*
X114508571Y-116121428D01*
X114556190Y-116216666D01*
X114556190Y-116597619D01*
X114984761Y-115645238D02*
X115032380Y-115550000D01*
X115032380Y-115359523D01*
X114984761Y-115264285D01*
X114889523Y-115216666D01*
X114841904Y-115216666D01*
X114746666Y-115264285D01*
X114699047Y-115359523D01*
X114699047Y-115502380D01*
X114651428Y-115597619D01*
X114556190Y-115645238D01*
X114508571Y-115645238D01*
X114413333Y-115597619D01*
X114365714Y-115502380D01*
X114365714Y-115359523D01*
X114413333Y-115264285D01*
X114365714Y-114788095D02*
X115032380Y-114788095D01*
X114460952Y-114788095D02*
X114413333Y-114740476D01*
X114365714Y-114645238D01*
X114365714Y-114502380D01*
X114413333Y-114407142D01*
X114508571Y-114359523D01*
X115032380Y-114359523D01*
X115032380Y-113359523D02*
X115032380Y-113930952D01*
X115032380Y-113645238D02*
X114032380Y-113645238D01*
X114175238Y-113740476D01*
X114270476Y-113835714D01*
X114318095Y-113930952D01*
X114032380Y-112740476D02*
X114032380Y-112645238D01*
X114080000Y-112550000D01*
X114127619Y-112502380D01*
X114222857Y-112454761D01*
X114413333Y-112407142D01*
X114651428Y-112407142D01*
X114841904Y-112454761D01*
X114937142Y-112502380D01*
X114984761Y-112550000D01*
X115032380Y-112645238D01*
X115032380Y-112740476D01*
X114984761Y-112835714D01*
X114937142Y-112883333D01*
X114841904Y-112930952D01*
X114651428Y-112978571D01*
X114413333Y-112978571D01*
X114222857Y-112930952D01*
X114127619Y-112883333D01*
X114080000Y-112835714D01*
X114032380Y-112740476D01*
X114032380Y-111550000D02*
X114032380Y-111740476D01*
X114080000Y-111835714D01*
X114127619Y-111883333D01*
X114270476Y-111978571D01*
X114460952Y-112026190D01*
X114841904Y-112026190D01*
X114937142Y-111978571D01*
X114984761Y-111930952D01*
X115032380Y-111835714D01*
X115032380Y-111645238D01*
X114984761Y-111550000D01*
X114937142Y-111502380D01*
X114841904Y-111454761D01*
X114603809Y-111454761D01*
X114508571Y-111502380D01*
X114460952Y-111550000D01*
X114413333Y-111645238D01*
X114413333Y-111835714D01*
X114460952Y-111930952D01*
X114508571Y-111978571D01*
X114603809Y-112026190D01*
%TO.C,Rsn105*%
X118232380Y-116026190D02*
X117756190Y-116359523D01*
X118232380Y-116597619D02*
X117232380Y-116597619D01*
X117232380Y-116216666D01*
X117280000Y-116121428D01*
X117327619Y-116073809D01*
X117422857Y-116026190D01*
X117565714Y-116026190D01*
X117660952Y-116073809D01*
X117708571Y-116121428D01*
X117756190Y-116216666D01*
X117756190Y-116597619D01*
X118184761Y-115645238D02*
X118232380Y-115550000D01*
X118232380Y-115359523D01*
X118184761Y-115264285D01*
X118089523Y-115216666D01*
X118041904Y-115216666D01*
X117946666Y-115264285D01*
X117899047Y-115359523D01*
X117899047Y-115502380D01*
X117851428Y-115597619D01*
X117756190Y-115645238D01*
X117708571Y-115645238D01*
X117613333Y-115597619D01*
X117565714Y-115502380D01*
X117565714Y-115359523D01*
X117613333Y-115264285D01*
X117565714Y-114788095D02*
X118232380Y-114788095D01*
X117660952Y-114788095D02*
X117613333Y-114740476D01*
X117565714Y-114645238D01*
X117565714Y-114502380D01*
X117613333Y-114407142D01*
X117708571Y-114359523D01*
X118232380Y-114359523D01*
X118232380Y-113359523D02*
X118232380Y-113930952D01*
X118232380Y-113645238D02*
X117232380Y-113645238D01*
X117375238Y-113740476D01*
X117470476Y-113835714D01*
X117518095Y-113930952D01*
X117232380Y-112740476D02*
X117232380Y-112645238D01*
X117280000Y-112550000D01*
X117327619Y-112502380D01*
X117422857Y-112454761D01*
X117613333Y-112407142D01*
X117851428Y-112407142D01*
X118041904Y-112454761D01*
X118137142Y-112502380D01*
X118184761Y-112550000D01*
X118232380Y-112645238D01*
X118232380Y-112740476D01*
X118184761Y-112835714D01*
X118137142Y-112883333D01*
X118041904Y-112930952D01*
X117851428Y-112978571D01*
X117613333Y-112978571D01*
X117422857Y-112930952D01*
X117327619Y-112883333D01*
X117280000Y-112835714D01*
X117232380Y-112740476D01*
X117232380Y-111502380D02*
X117232380Y-111978571D01*
X117708571Y-112026190D01*
X117660952Y-111978571D01*
X117613333Y-111883333D01*
X117613333Y-111645238D01*
X117660952Y-111550000D01*
X117708571Y-111502380D01*
X117803809Y-111454761D01*
X118041904Y-111454761D01*
X118137142Y-111502380D01*
X118184761Y-111550000D01*
X118232380Y-111645238D01*
X118232380Y-111883333D01*
X118184761Y-111978571D01*
X118137142Y-112026190D01*
%TO.C,Rsn104*%
X214932380Y-87576190D02*
X214456190Y-87909523D01*
X214932380Y-88147619D02*
X213932380Y-88147619D01*
X213932380Y-87766666D01*
X213980000Y-87671428D01*
X214027619Y-87623809D01*
X214122857Y-87576190D01*
X214265714Y-87576190D01*
X214360952Y-87623809D01*
X214408571Y-87671428D01*
X214456190Y-87766666D01*
X214456190Y-88147619D01*
X214884761Y-87195238D02*
X214932380Y-87100000D01*
X214932380Y-86909523D01*
X214884761Y-86814285D01*
X214789523Y-86766666D01*
X214741904Y-86766666D01*
X214646666Y-86814285D01*
X214599047Y-86909523D01*
X214599047Y-87052380D01*
X214551428Y-87147619D01*
X214456190Y-87195238D01*
X214408571Y-87195238D01*
X214313333Y-87147619D01*
X214265714Y-87052380D01*
X214265714Y-86909523D01*
X214313333Y-86814285D01*
X214265714Y-86338095D02*
X214932380Y-86338095D01*
X214360952Y-86338095D02*
X214313333Y-86290476D01*
X214265714Y-86195238D01*
X214265714Y-86052380D01*
X214313333Y-85957142D01*
X214408571Y-85909523D01*
X214932380Y-85909523D01*
X214932380Y-84909523D02*
X214932380Y-85480952D01*
X214932380Y-85195238D02*
X213932380Y-85195238D01*
X214075238Y-85290476D01*
X214170476Y-85385714D01*
X214218095Y-85480952D01*
X213932380Y-84290476D02*
X213932380Y-84195238D01*
X213980000Y-84100000D01*
X214027619Y-84052380D01*
X214122857Y-84004761D01*
X214313333Y-83957142D01*
X214551428Y-83957142D01*
X214741904Y-84004761D01*
X214837142Y-84052380D01*
X214884761Y-84100000D01*
X214932380Y-84195238D01*
X214932380Y-84290476D01*
X214884761Y-84385714D01*
X214837142Y-84433333D01*
X214741904Y-84480952D01*
X214551428Y-84528571D01*
X214313333Y-84528571D01*
X214122857Y-84480952D01*
X214027619Y-84433333D01*
X213980000Y-84385714D01*
X213932380Y-84290476D01*
X214265714Y-83100000D02*
X214932380Y-83100000D01*
X213884761Y-83338095D02*
X214599047Y-83576190D01*
X214599047Y-82957142D01*
%TO.C,Rsn102*%
X115032380Y-87576190D02*
X114556190Y-87909523D01*
X115032380Y-88147619D02*
X114032380Y-88147619D01*
X114032380Y-87766666D01*
X114080000Y-87671428D01*
X114127619Y-87623809D01*
X114222857Y-87576190D01*
X114365714Y-87576190D01*
X114460952Y-87623809D01*
X114508571Y-87671428D01*
X114556190Y-87766666D01*
X114556190Y-88147619D01*
X114984761Y-87195238D02*
X115032380Y-87100000D01*
X115032380Y-86909523D01*
X114984761Y-86814285D01*
X114889523Y-86766666D01*
X114841904Y-86766666D01*
X114746666Y-86814285D01*
X114699047Y-86909523D01*
X114699047Y-87052380D01*
X114651428Y-87147619D01*
X114556190Y-87195238D01*
X114508571Y-87195238D01*
X114413333Y-87147619D01*
X114365714Y-87052380D01*
X114365714Y-86909523D01*
X114413333Y-86814285D01*
X114365714Y-86338095D02*
X115032380Y-86338095D01*
X114460952Y-86338095D02*
X114413333Y-86290476D01*
X114365714Y-86195238D01*
X114365714Y-86052380D01*
X114413333Y-85957142D01*
X114508571Y-85909523D01*
X115032380Y-85909523D01*
X115032380Y-84909523D02*
X115032380Y-85480952D01*
X115032380Y-85195238D02*
X114032380Y-85195238D01*
X114175238Y-85290476D01*
X114270476Y-85385714D01*
X114318095Y-85480952D01*
X114032380Y-84290476D02*
X114032380Y-84195238D01*
X114080000Y-84100000D01*
X114127619Y-84052380D01*
X114222857Y-84004761D01*
X114413333Y-83957142D01*
X114651428Y-83957142D01*
X114841904Y-84004761D01*
X114937142Y-84052380D01*
X114984761Y-84100000D01*
X115032380Y-84195238D01*
X115032380Y-84290476D01*
X114984761Y-84385714D01*
X114937142Y-84433333D01*
X114841904Y-84480952D01*
X114651428Y-84528571D01*
X114413333Y-84528571D01*
X114222857Y-84480952D01*
X114127619Y-84433333D01*
X114080000Y-84385714D01*
X114032380Y-84290476D01*
X114127619Y-83576190D02*
X114080000Y-83528571D01*
X114032380Y-83433333D01*
X114032380Y-83195238D01*
X114080000Y-83100000D01*
X114127619Y-83052380D01*
X114222857Y-83004761D01*
X114318095Y-83004761D01*
X114460952Y-83052380D01*
X115032380Y-83623809D01*
X115032380Y-83004761D01*
%TO.C,Rsn101*%
X118232380Y-87576190D02*
X117756190Y-87909523D01*
X118232380Y-88147619D02*
X117232380Y-88147619D01*
X117232380Y-87766666D01*
X117280000Y-87671428D01*
X117327619Y-87623809D01*
X117422857Y-87576190D01*
X117565714Y-87576190D01*
X117660952Y-87623809D01*
X117708571Y-87671428D01*
X117756190Y-87766666D01*
X117756190Y-88147619D01*
X118184761Y-87195238D02*
X118232380Y-87100000D01*
X118232380Y-86909523D01*
X118184761Y-86814285D01*
X118089523Y-86766666D01*
X118041904Y-86766666D01*
X117946666Y-86814285D01*
X117899047Y-86909523D01*
X117899047Y-87052380D01*
X117851428Y-87147619D01*
X117756190Y-87195238D01*
X117708571Y-87195238D01*
X117613333Y-87147619D01*
X117565714Y-87052380D01*
X117565714Y-86909523D01*
X117613333Y-86814285D01*
X117565714Y-86338095D02*
X118232380Y-86338095D01*
X117660952Y-86338095D02*
X117613333Y-86290476D01*
X117565714Y-86195238D01*
X117565714Y-86052380D01*
X117613333Y-85957142D01*
X117708571Y-85909523D01*
X118232380Y-85909523D01*
X118232380Y-84909523D02*
X118232380Y-85480952D01*
X118232380Y-85195238D02*
X117232380Y-85195238D01*
X117375238Y-85290476D01*
X117470476Y-85385714D01*
X117518095Y-85480952D01*
X117232380Y-84290476D02*
X117232380Y-84195238D01*
X117280000Y-84100000D01*
X117327619Y-84052380D01*
X117422857Y-84004761D01*
X117613333Y-83957142D01*
X117851428Y-83957142D01*
X118041904Y-84004761D01*
X118137142Y-84052380D01*
X118184761Y-84100000D01*
X118232380Y-84195238D01*
X118232380Y-84290476D01*
X118184761Y-84385714D01*
X118137142Y-84433333D01*
X118041904Y-84480952D01*
X117851428Y-84528571D01*
X117613333Y-84528571D01*
X117422857Y-84480952D01*
X117327619Y-84433333D01*
X117280000Y-84385714D01*
X117232380Y-84290476D01*
X118232380Y-83004761D02*
X118232380Y-83576190D01*
X118232380Y-83290476D02*
X117232380Y-83290476D01*
X117375238Y-83385714D01*
X117470476Y-83480952D01*
X117518095Y-83576190D01*
%TO.C,Dsn108*%
X215947380Y-116924619D02*
X214947380Y-116924619D01*
X214947380Y-116686523D01*
X214995000Y-116543666D01*
X215090238Y-116448428D01*
X215185476Y-116400809D01*
X215375952Y-116353190D01*
X215518809Y-116353190D01*
X215709285Y-116400809D01*
X215804523Y-116448428D01*
X215899761Y-116543666D01*
X215947380Y-116686523D01*
X215947380Y-116924619D01*
X215899761Y-115972238D02*
X215947380Y-115877000D01*
X215947380Y-115686523D01*
X215899761Y-115591285D01*
X215804523Y-115543666D01*
X215756904Y-115543666D01*
X215661666Y-115591285D01*
X215614047Y-115686523D01*
X215614047Y-115829380D01*
X215566428Y-115924619D01*
X215471190Y-115972238D01*
X215423571Y-115972238D01*
X215328333Y-115924619D01*
X215280714Y-115829380D01*
X215280714Y-115686523D01*
X215328333Y-115591285D01*
X215280714Y-115115095D02*
X215947380Y-115115095D01*
X215375952Y-115115095D02*
X215328333Y-115067476D01*
X215280714Y-114972238D01*
X215280714Y-114829380D01*
X215328333Y-114734142D01*
X215423571Y-114686523D01*
X215947380Y-114686523D01*
X215947380Y-113686523D02*
X215947380Y-114257952D01*
X215947380Y-113972238D02*
X214947380Y-113972238D01*
X215090238Y-114067476D01*
X215185476Y-114162714D01*
X215233095Y-114257952D01*
X214947380Y-113067476D02*
X214947380Y-112972238D01*
X214995000Y-112877000D01*
X215042619Y-112829380D01*
X215137857Y-112781761D01*
X215328333Y-112734142D01*
X215566428Y-112734142D01*
X215756904Y-112781761D01*
X215852142Y-112829380D01*
X215899761Y-112877000D01*
X215947380Y-112972238D01*
X215947380Y-113067476D01*
X215899761Y-113162714D01*
X215852142Y-113210333D01*
X215756904Y-113257952D01*
X215566428Y-113305571D01*
X215328333Y-113305571D01*
X215137857Y-113257952D01*
X215042619Y-113210333D01*
X214995000Y-113162714D01*
X214947380Y-113067476D01*
X215375952Y-112162714D02*
X215328333Y-112257952D01*
X215280714Y-112305571D01*
X215185476Y-112353190D01*
X215137857Y-112353190D01*
X215042619Y-112305571D01*
X214995000Y-112257952D01*
X214947380Y-112162714D01*
X214947380Y-111972238D01*
X214995000Y-111877000D01*
X215042619Y-111829380D01*
X215137857Y-111781761D01*
X215185476Y-111781761D01*
X215280714Y-111829380D01*
X215328333Y-111877000D01*
X215375952Y-111972238D01*
X215375952Y-112162714D01*
X215423571Y-112257952D01*
X215471190Y-112305571D01*
X215566428Y-112353190D01*
X215756904Y-112353190D01*
X215852142Y-112305571D01*
X215899761Y-112257952D01*
X215947380Y-112162714D01*
X215947380Y-111972238D01*
X215899761Y-111877000D01*
X215852142Y-111829380D01*
X215756904Y-111781761D01*
X215566428Y-111781761D01*
X215471190Y-111829380D01*
X215423571Y-111877000D01*
X215375952Y-111972238D01*
%TO.C,Dsn107*%
X213597380Y-116924619D02*
X212597380Y-116924619D01*
X212597380Y-116686523D01*
X212645000Y-116543666D01*
X212740238Y-116448428D01*
X212835476Y-116400809D01*
X213025952Y-116353190D01*
X213168809Y-116353190D01*
X213359285Y-116400809D01*
X213454523Y-116448428D01*
X213549761Y-116543666D01*
X213597380Y-116686523D01*
X213597380Y-116924619D01*
X213549761Y-115972238D02*
X213597380Y-115877000D01*
X213597380Y-115686523D01*
X213549761Y-115591285D01*
X213454523Y-115543666D01*
X213406904Y-115543666D01*
X213311666Y-115591285D01*
X213264047Y-115686523D01*
X213264047Y-115829380D01*
X213216428Y-115924619D01*
X213121190Y-115972238D01*
X213073571Y-115972238D01*
X212978333Y-115924619D01*
X212930714Y-115829380D01*
X212930714Y-115686523D01*
X212978333Y-115591285D01*
X212930714Y-115115095D02*
X213597380Y-115115095D01*
X213025952Y-115115095D02*
X212978333Y-115067476D01*
X212930714Y-114972238D01*
X212930714Y-114829380D01*
X212978333Y-114734142D01*
X213073571Y-114686523D01*
X213597380Y-114686523D01*
X213597380Y-113686523D02*
X213597380Y-114257952D01*
X213597380Y-113972238D02*
X212597380Y-113972238D01*
X212740238Y-114067476D01*
X212835476Y-114162714D01*
X212883095Y-114257952D01*
X212597380Y-113067476D02*
X212597380Y-112972238D01*
X212645000Y-112877000D01*
X212692619Y-112829380D01*
X212787857Y-112781761D01*
X212978333Y-112734142D01*
X213216428Y-112734142D01*
X213406904Y-112781761D01*
X213502142Y-112829380D01*
X213549761Y-112877000D01*
X213597380Y-112972238D01*
X213597380Y-113067476D01*
X213549761Y-113162714D01*
X213502142Y-113210333D01*
X213406904Y-113257952D01*
X213216428Y-113305571D01*
X212978333Y-113305571D01*
X212787857Y-113257952D01*
X212692619Y-113210333D01*
X212645000Y-113162714D01*
X212597380Y-113067476D01*
X212597380Y-112400809D02*
X212597380Y-111734142D01*
X213597380Y-112162714D01*
%TO.C,Dsn106*%
X107997380Y-116824619D02*
X106997380Y-116824619D01*
X106997380Y-116586523D01*
X107045000Y-116443666D01*
X107140238Y-116348428D01*
X107235476Y-116300809D01*
X107425952Y-116253190D01*
X107568809Y-116253190D01*
X107759285Y-116300809D01*
X107854523Y-116348428D01*
X107949761Y-116443666D01*
X107997380Y-116586523D01*
X107997380Y-116824619D01*
X107949761Y-115872238D02*
X107997380Y-115777000D01*
X107997380Y-115586523D01*
X107949761Y-115491285D01*
X107854523Y-115443666D01*
X107806904Y-115443666D01*
X107711666Y-115491285D01*
X107664047Y-115586523D01*
X107664047Y-115729380D01*
X107616428Y-115824619D01*
X107521190Y-115872238D01*
X107473571Y-115872238D01*
X107378333Y-115824619D01*
X107330714Y-115729380D01*
X107330714Y-115586523D01*
X107378333Y-115491285D01*
X107330714Y-115015095D02*
X107997380Y-115015095D01*
X107425952Y-115015095D02*
X107378333Y-114967476D01*
X107330714Y-114872238D01*
X107330714Y-114729380D01*
X107378333Y-114634142D01*
X107473571Y-114586523D01*
X107997380Y-114586523D01*
X107997380Y-113586523D02*
X107997380Y-114157952D01*
X107997380Y-113872238D02*
X106997380Y-113872238D01*
X107140238Y-113967476D01*
X107235476Y-114062714D01*
X107283095Y-114157952D01*
X106997380Y-112967476D02*
X106997380Y-112872238D01*
X107045000Y-112777000D01*
X107092619Y-112729380D01*
X107187857Y-112681761D01*
X107378333Y-112634142D01*
X107616428Y-112634142D01*
X107806904Y-112681761D01*
X107902142Y-112729380D01*
X107949761Y-112777000D01*
X107997380Y-112872238D01*
X107997380Y-112967476D01*
X107949761Y-113062714D01*
X107902142Y-113110333D01*
X107806904Y-113157952D01*
X107616428Y-113205571D01*
X107378333Y-113205571D01*
X107187857Y-113157952D01*
X107092619Y-113110333D01*
X107045000Y-113062714D01*
X106997380Y-112967476D01*
X106997380Y-111777000D02*
X106997380Y-111967476D01*
X107045000Y-112062714D01*
X107092619Y-112110333D01*
X107235476Y-112205571D01*
X107425952Y-112253190D01*
X107806904Y-112253190D01*
X107902142Y-112205571D01*
X107949761Y-112157952D01*
X107997380Y-112062714D01*
X107997380Y-111872238D01*
X107949761Y-111777000D01*
X107902142Y-111729380D01*
X107806904Y-111681761D01*
X107568809Y-111681761D01*
X107473571Y-111729380D01*
X107425952Y-111777000D01*
X107378333Y-111872238D01*
X107378333Y-112062714D01*
X107425952Y-112157952D01*
X107473571Y-112205571D01*
X107568809Y-112253190D01*
%TO.C,Dsn105*%
X105647380Y-116824619D02*
X104647380Y-116824619D01*
X104647380Y-116586523D01*
X104695000Y-116443666D01*
X104790238Y-116348428D01*
X104885476Y-116300809D01*
X105075952Y-116253190D01*
X105218809Y-116253190D01*
X105409285Y-116300809D01*
X105504523Y-116348428D01*
X105599761Y-116443666D01*
X105647380Y-116586523D01*
X105647380Y-116824619D01*
X105599761Y-115872238D02*
X105647380Y-115777000D01*
X105647380Y-115586523D01*
X105599761Y-115491285D01*
X105504523Y-115443666D01*
X105456904Y-115443666D01*
X105361666Y-115491285D01*
X105314047Y-115586523D01*
X105314047Y-115729380D01*
X105266428Y-115824619D01*
X105171190Y-115872238D01*
X105123571Y-115872238D01*
X105028333Y-115824619D01*
X104980714Y-115729380D01*
X104980714Y-115586523D01*
X105028333Y-115491285D01*
X104980714Y-115015095D02*
X105647380Y-115015095D01*
X105075952Y-115015095D02*
X105028333Y-114967476D01*
X104980714Y-114872238D01*
X104980714Y-114729380D01*
X105028333Y-114634142D01*
X105123571Y-114586523D01*
X105647380Y-114586523D01*
X105647380Y-113586523D02*
X105647380Y-114157952D01*
X105647380Y-113872238D02*
X104647380Y-113872238D01*
X104790238Y-113967476D01*
X104885476Y-114062714D01*
X104933095Y-114157952D01*
X104647380Y-112967476D02*
X104647380Y-112872238D01*
X104695000Y-112777000D01*
X104742619Y-112729380D01*
X104837857Y-112681761D01*
X105028333Y-112634142D01*
X105266428Y-112634142D01*
X105456904Y-112681761D01*
X105552142Y-112729380D01*
X105599761Y-112777000D01*
X105647380Y-112872238D01*
X105647380Y-112967476D01*
X105599761Y-113062714D01*
X105552142Y-113110333D01*
X105456904Y-113157952D01*
X105266428Y-113205571D01*
X105028333Y-113205571D01*
X104837857Y-113157952D01*
X104742619Y-113110333D01*
X104695000Y-113062714D01*
X104647380Y-112967476D01*
X104647380Y-111729380D02*
X104647380Y-112205571D01*
X105123571Y-112253190D01*
X105075952Y-112205571D01*
X105028333Y-112110333D01*
X105028333Y-111872238D01*
X105075952Y-111777000D01*
X105123571Y-111729380D01*
X105218809Y-111681761D01*
X105456904Y-111681761D01*
X105552142Y-111729380D01*
X105599761Y-111777000D01*
X105647380Y-111872238D01*
X105647380Y-112110333D01*
X105599761Y-112205571D01*
X105552142Y-112253190D01*
%TO.C,Dsn104*%
X216047380Y-88274619D02*
X215047380Y-88274619D01*
X215047380Y-88036523D01*
X215095000Y-87893666D01*
X215190238Y-87798428D01*
X215285476Y-87750809D01*
X215475952Y-87703190D01*
X215618809Y-87703190D01*
X215809285Y-87750809D01*
X215904523Y-87798428D01*
X215999761Y-87893666D01*
X216047380Y-88036523D01*
X216047380Y-88274619D01*
X215999761Y-87322238D02*
X216047380Y-87227000D01*
X216047380Y-87036523D01*
X215999761Y-86941285D01*
X215904523Y-86893666D01*
X215856904Y-86893666D01*
X215761666Y-86941285D01*
X215714047Y-87036523D01*
X215714047Y-87179380D01*
X215666428Y-87274619D01*
X215571190Y-87322238D01*
X215523571Y-87322238D01*
X215428333Y-87274619D01*
X215380714Y-87179380D01*
X215380714Y-87036523D01*
X215428333Y-86941285D01*
X215380714Y-86465095D02*
X216047380Y-86465095D01*
X215475952Y-86465095D02*
X215428333Y-86417476D01*
X215380714Y-86322238D01*
X215380714Y-86179380D01*
X215428333Y-86084142D01*
X215523571Y-86036523D01*
X216047380Y-86036523D01*
X216047380Y-85036523D02*
X216047380Y-85607952D01*
X216047380Y-85322238D02*
X215047380Y-85322238D01*
X215190238Y-85417476D01*
X215285476Y-85512714D01*
X215333095Y-85607952D01*
X215047380Y-84417476D02*
X215047380Y-84322238D01*
X215095000Y-84227000D01*
X215142619Y-84179380D01*
X215237857Y-84131761D01*
X215428333Y-84084142D01*
X215666428Y-84084142D01*
X215856904Y-84131761D01*
X215952142Y-84179380D01*
X215999761Y-84227000D01*
X216047380Y-84322238D01*
X216047380Y-84417476D01*
X215999761Y-84512714D01*
X215952142Y-84560333D01*
X215856904Y-84607952D01*
X215666428Y-84655571D01*
X215428333Y-84655571D01*
X215237857Y-84607952D01*
X215142619Y-84560333D01*
X215095000Y-84512714D01*
X215047380Y-84417476D01*
X215380714Y-83227000D02*
X216047380Y-83227000D01*
X214999761Y-83465095D02*
X215714047Y-83703190D01*
X215714047Y-83084142D01*
%TO.C,Dsn103*%
X213647380Y-88274619D02*
X212647380Y-88274619D01*
X212647380Y-88036523D01*
X212695000Y-87893666D01*
X212790238Y-87798428D01*
X212885476Y-87750809D01*
X213075952Y-87703190D01*
X213218809Y-87703190D01*
X213409285Y-87750809D01*
X213504523Y-87798428D01*
X213599761Y-87893666D01*
X213647380Y-88036523D01*
X213647380Y-88274619D01*
X213599761Y-87322238D02*
X213647380Y-87227000D01*
X213647380Y-87036523D01*
X213599761Y-86941285D01*
X213504523Y-86893666D01*
X213456904Y-86893666D01*
X213361666Y-86941285D01*
X213314047Y-87036523D01*
X213314047Y-87179380D01*
X213266428Y-87274619D01*
X213171190Y-87322238D01*
X213123571Y-87322238D01*
X213028333Y-87274619D01*
X212980714Y-87179380D01*
X212980714Y-87036523D01*
X213028333Y-86941285D01*
X212980714Y-86465095D02*
X213647380Y-86465095D01*
X213075952Y-86465095D02*
X213028333Y-86417476D01*
X212980714Y-86322238D01*
X212980714Y-86179380D01*
X213028333Y-86084142D01*
X213123571Y-86036523D01*
X213647380Y-86036523D01*
X213647380Y-85036523D02*
X213647380Y-85607952D01*
X213647380Y-85322238D02*
X212647380Y-85322238D01*
X212790238Y-85417476D01*
X212885476Y-85512714D01*
X212933095Y-85607952D01*
X212647380Y-84417476D02*
X212647380Y-84322238D01*
X212695000Y-84227000D01*
X212742619Y-84179380D01*
X212837857Y-84131761D01*
X213028333Y-84084142D01*
X213266428Y-84084142D01*
X213456904Y-84131761D01*
X213552142Y-84179380D01*
X213599761Y-84227000D01*
X213647380Y-84322238D01*
X213647380Y-84417476D01*
X213599761Y-84512714D01*
X213552142Y-84560333D01*
X213456904Y-84607952D01*
X213266428Y-84655571D01*
X213028333Y-84655571D01*
X212837857Y-84607952D01*
X212742619Y-84560333D01*
X212695000Y-84512714D01*
X212647380Y-84417476D01*
X212647380Y-83750809D02*
X212647380Y-83131761D01*
X213028333Y-83465095D01*
X213028333Y-83322238D01*
X213075952Y-83227000D01*
X213123571Y-83179380D01*
X213218809Y-83131761D01*
X213456904Y-83131761D01*
X213552142Y-83179380D01*
X213599761Y-83227000D01*
X213647380Y-83322238D01*
X213647380Y-83607952D01*
X213599761Y-83703190D01*
X213552142Y-83750809D01*
%TO.C,Dsn102*%
X108047380Y-88224619D02*
X107047380Y-88224619D01*
X107047380Y-87986523D01*
X107095000Y-87843666D01*
X107190238Y-87748428D01*
X107285476Y-87700809D01*
X107475952Y-87653190D01*
X107618809Y-87653190D01*
X107809285Y-87700809D01*
X107904523Y-87748428D01*
X107999761Y-87843666D01*
X108047380Y-87986523D01*
X108047380Y-88224619D01*
X107999761Y-87272238D02*
X108047380Y-87177000D01*
X108047380Y-86986523D01*
X107999761Y-86891285D01*
X107904523Y-86843666D01*
X107856904Y-86843666D01*
X107761666Y-86891285D01*
X107714047Y-86986523D01*
X107714047Y-87129380D01*
X107666428Y-87224619D01*
X107571190Y-87272238D01*
X107523571Y-87272238D01*
X107428333Y-87224619D01*
X107380714Y-87129380D01*
X107380714Y-86986523D01*
X107428333Y-86891285D01*
X107380714Y-86415095D02*
X108047380Y-86415095D01*
X107475952Y-86415095D02*
X107428333Y-86367476D01*
X107380714Y-86272238D01*
X107380714Y-86129380D01*
X107428333Y-86034142D01*
X107523571Y-85986523D01*
X108047380Y-85986523D01*
X108047380Y-84986523D02*
X108047380Y-85557952D01*
X108047380Y-85272238D02*
X107047380Y-85272238D01*
X107190238Y-85367476D01*
X107285476Y-85462714D01*
X107333095Y-85557952D01*
X107047380Y-84367476D02*
X107047380Y-84272238D01*
X107095000Y-84177000D01*
X107142619Y-84129380D01*
X107237857Y-84081761D01*
X107428333Y-84034142D01*
X107666428Y-84034142D01*
X107856904Y-84081761D01*
X107952142Y-84129380D01*
X107999761Y-84177000D01*
X108047380Y-84272238D01*
X108047380Y-84367476D01*
X107999761Y-84462714D01*
X107952142Y-84510333D01*
X107856904Y-84557952D01*
X107666428Y-84605571D01*
X107428333Y-84605571D01*
X107237857Y-84557952D01*
X107142619Y-84510333D01*
X107095000Y-84462714D01*
X107047380Y-84367476D01*
X107142619Y-83653190D02*
X107095000Y-83605571D01*
X107047380Y-83510333D01*
X107047380Y-83272238D01*
X107095000Y-83177000D01*
X107142619Y-83129380D01*
X107237857Y-83081761D01*
X107333095Y-83081761D01*
X107475952Y-83129380D01*
X108047380Y-83700809D01*
X108047380Y-83081761D01*
%TO.C,Dsn101*%
X105697380Y-88224619D02*
X104697380Y-88224619D01*
X104697380Y-87986523D01*
X104745000Y-87843666D01*
X104840238Y-87748428D01*
X104935476Y-87700809D01*
X105125952Y-87653190D01*
X105268809Y-87653190D01*
X105459285Y-87700809D01*
X105554523Y-87748428D01*
X105649761Y-87843666D01*
X105697380Y-87986523D01*
X105697380Y-88224619D01*
X105649761Y-87272238D02*
X105697380Y-87177000D01*
X105697380Y-86986523D01*
X105649761Y-86891285D01*
X105554523Y-86843666D01*
X105506904Y-86843666D01*
X105411666Y-86891285D01*
X105364047Y-86986523D01*
X105364047Y-87129380D01*
X105316428Y-87224619D01*
X105221190Y-87272238D01*
X105173571Y-87272238D01*
X105078333Y-87224619D01*
X105030714Y-87129380D01*
X105030714Y-86986523D01*
X105078333Y-86891285D01*
X105030714Y-86415095D02*
X105697380Y-86415095D01*
X105125952Y-86415095D02*
X105078333Y-86367476D01*
X105030714Y-86272238D01*
X105030714Y-86129380D01*
X105078333Y-86034142D01*
X105173571Y-85986523D01*
X105697380Y-85986523D01*
X105697380Y-84986523D02*
X105697380Y-85557952D01*
X105697380Y-85272238D02*
X104697380Y-85272238D01*
X104840238Y-85367476D01*
X104935476Y-85462714D01*
X104983095Y-85557952D01*
X104697380Y-84367476D02*
X104697380Y-84272238D01*
X104745000Y-84177000D01*
X104792619Y-84129380D01*
X104887857Y-84081761D01*
X105078333Y-84034142D01*
X105316428Y-84034142D01*
X105506904Y-84081761D01*
X105602142Y-84129380D01*
X105649761Y-84177000D01*
X105697380Y-84272238D01*
X105697380Y-84367476D01*
X105649761Y-84462714D01*
X105602142Y-84510333D01*
X105506904Y-84557952D01*
X105316428Y-84605571D01*
X105078333Y-84605571D01*
X104887857Y-84557952D01*
X104792619Y-84510333D01*
X104745000Y-84462714D01*
X104697380Y-84367476D01*
X105697380Y-83081761D02*
X105697380Y-83653190D01*
X105697380Y-83367476D02*
X104697380Y-83367476D01*
X104840238Y-83462714D01*
X104935476Y-83557952D01*
X104983095Y-83653190D01*
%TO.C,Csn108*%
X211657142Y-121176190D02*
X211704761Y-121223809D01*
X211752380Y-121366666D01*
X211752380Y-121461904D01*
X211704761Y-121604761D01*
X211609523Y-121700000D01*
X211514285Y-121747619D01*
X211323809Y-121795238D01*
X211180952Y-121795238D01*
X210990476Y-121747619D01*
X210895238Y-121700000D01*
X210800000Y-121604761D01*
X210752380Y-121461904D01*
X210752380Y-121366666D01*
X210800000Y-121223809D01*
X210847619Y-121176190D01*
X211704761Y-120795238D02*
X211752380Y-120700000D01*
X211752380Y-120509523D01*
X211704761Y-120414285D01*
X211609523Y-120366666D01*
X211561904Y-120366666D01*
X211466666Y-120414285D01*
X211419047Y-120509523D01*
X211419047Y-120652380D01*
X211371428Y-120747619D01*
X211276190Y-120795238D01*
X211228571Y-120795238D01*
X211133333Y-120747619D01*
X211085714Y-120652380D01*
X211085714Y-120509523D01*
X211133333Y-120414285D01*
X211085714Y-119938095D02*
X211752380Y-119938095D01*
X211180952Y-119938095D02*
X211133333Y-119890476D01*
X211085714Y-119795238D01*
X211085714Y-119652380D01*
X211133333Y-119557142D01*
X211228571Y-119509523D01*
X211752380Y-119509523D01*
X211752380Y-118509523D02*
X211752380Y-119080952D01*
X211752380Y-118795238D02*
X210752380Y-118795238D01*
X210895238Y-118890476D01*
X210990476Y-118985714D01*
X211038095Y-119080952D01*
X210752380Y-117890476D02*
X210752380Y-117795238D01*
X210800000Y-117700000D01*
X210847619Y-117652380D01*
X210942857Y-117604761D01*
X211133333Y-117557142D01*
X211371428Y-117557142D01*
X211561904Y-117604761D01*
X211657142Y-117652380D01*
X211704761Y-117700000D01*
X211752380Y-117795238D01*
X211752380Y-117890476D01*
X211704761Y-117985714D01*
X211657142Y-118033333D01*
X211561904Y-118080952D01*
X211371428Y-118128571D01*
X211133333Y-118128571D01*
X210942857Y-118080952D01*
X210847619Y-118033333D01*
X210800000Y-117985714D01*
X210752380Y-117890476D01*
X211180952Y-116985714D02*
X211133333Y-117080952D01*
X211085714Y-117128571D01*
X210990476Y-117176190D01*
X210942857Y-117176190D01*
X210847619Y-117128571D01*
X210800000Y-117080952D01*
X210752380Y-116985714D01*
X210752380Y-116795238D01*
X210800000Y-116700000D01*
X210847619Y-116652380D01*
X210942857Y-116604761D01*
X210990476Y-116604761D01*
X211085714Y-116652380D01*
X211133333Y-116700000D01*
X211180952Y-116795238D01*
X211180952Y-116985714D01*
X211228571Y-117080952D01*
X211276190Y-117128571D01*
X211371428Y-117176190D01*
X211561904Y-117176190D01*
X211657142Y-117128571D01*
X211704761Y-117080952D01*
X211752380Y-116985714D01*
X211752380Y-116795238D01*
X211704761Y-116700000D01*
X211657142Y-116652380D01*
X211561904Y-116604761D01*
X211371428Y-116604761D01*
X211276190Y-116652380D01*
X211228571Y-116700000D01*
X211180952Y-116795238D01*
%TO.C,Csn107*%
X214907142Y-121176190D02*
X214954761Y-121223809D01*
X215002380Y-121366666D01*
X215002380Y-121461904D01*
X214954761Y-121604761D01*
X214859523Y-121700000D01*
X214764285Y-121747619D01*
X214573809Y-121795238D01*
X214430952Y-121795238D01*
X214240476Y-121747619D01*
X214145238Y-121700000D01*
X214050000Y-121604761D01*
X214002380Y-121461904D01*
X214002380Y-121366666D01*
X214050000Y-121223809D01*
X214097619Y-121176190D01*
X214954761Y-120795238D02*
X215002380Y-120700000D01*
X215002380Y-120509523D01*
X214954761Y-120414285D01*
X214859523Y-120366666D01*
X214811904Y-120366666D01*
X214716666Y-120414285D01*
X214669047Y-120509523D01*
X214669047Y-120652380D01*
X214621428Y-120747619D01*
X214526190Y-120795238D01*
X214478571Y-120795238D01*
X214383333Y-120747619D01*
X214335714Y-120652380D01*
X214335714Y-120509523D01*
X214383333Y-120414285D01*
X214335714Y-119938095D02*
X215002380Y-119938095D01*
X214430952Y-119938095D02*
X214383333Y-119890476D01*
X214335714Y-119795238D01*
X214335714Y-119652380D01*
X214383333Y-119557142D01*
X214478571Y-119509523D01*
X215002380Y-119509523D01*
X215002380Y-118509523D02*
X215002380Y-119080952D01*
X215002380Y-118795238D02*
X214002380Y-118795238D01*
X214145238Y-118890476D01*
X214240476Y-118985714D01*
X214288095Y-119080952D01*
X214002380Y-117890476D02*
X214002380Y-117795238D01*
X214050000Y-117700000D01*
X214097619Y-117652380D01*
X214192857Y-117604761D01*
X214383333Y-117557142D01*
X214621428Y-117557142D01*
X214811904Y-117604761D01*
X214907142Y-117652380D01*
X214954761Y-117700000D01*
X215002380Y-117795238D01*
X215002380Y-117890476D01*
X214954761Y-117985714D01*
X214907142Y-118033333D01*
X214811904Y-118080952D01*
X214621428Y-118128571D01*
X214383333Y-118128571D01*
X214192857Y-118080952D01*
X214097619Y-118033333D01*
X214050000Y-117985714D01*
X214002380Y-117890476D01*
X214002380Y-117223809D02*
X214002380Y-116557142D01*
X215002380Y-116985714D01*
%TO.C,Csn106*%
X114907142Y-121076190D02*
X114954761Y-121123809D01*
X115002380Y-121266666D01*
X115002380Y-121361904D01*
X114954761Y-121504761D01*
X114859523Y-121600000D01*
X114764285Y-121647619D01*
X114573809Y-121695238D01*
X114430952Y-121695238D01*
X114240476Y-121647619D01*
X114145238Y-121600000D01*
X114050000Y-121504761D01*
X114002380Y-121361904D01*
X114002380Y-121266666D01*
X114050000Y-121123809D01*
X114097619Y-121076190D01*
X114954761Y-120695238D02*
X115002380Y-120600000D01*
X115002380Y-120409523D01*
X114954761Y-120314285D01*
X114859523Y-120266666D01*
X114811904Y-120266666D01*
X114716666Y-120314285D01*
X114669047Y-120409523D01*
X114669047Y-120552380D01*
X114621428Y-120647619D01*
X114526190Y-120695238D01*
X114478571Y-120695238D01*
X114383333Y-120647619D01*
X114335714Y-120552380D01*
X114335714Y-120409523D01*
X114383333Y-120314285D01*
X114335714Y-119838095D02*
X115002380Y-119838095D01*
X114430952Y-119838095D02*
X114383333Y-119790476D01*
X114335714Y-119695238D01*
X114335714Y-119552380D01*
X114383333Y-119457142D01*
X114478571Y-119409523D01*
X115002380Y-119409523D01*
X115002380Y-118409523D02*
X115002380Y-118980952D01*
X115002380Y-118695238D02*
X114002380Y-118695238D01*
X114145238Y-118790476D01*
X114240476Y-118885714D01*
X114288095Y-118980952D01*
X114002380Y-117790476D02*
X114002380Y-117695238D01*
X114050000Y-117600000D01*
X114097619Y-117552380D01*
X114192857Y-117504761D01*
X114383333Y-117457142D01*
X114621428Y-117457142D01*
X114811904Y-117504761D01*
X114907142Y-117552380D01*
X114954761Y-117600000D01*
X115002380Y-117695238D01*
X115002380Y-117790476D01*
X114954761Y-117885714D01*
X114907142Y-117933333D01*
X114811904Y-117980952D01*
X114621428Y-118028571D01*
X114383333Y-118028571D01*
X114192857Y-117980952D01*
X114097619Y-117933333D01*
X114050000Y-117885714D01*
X114002380Y-117790476D01*
X114002380Y-116600000D02*
X114002380Y-116790476D01*
X114050000Y-116885714D01*
X114097619Y-116933333D01*
X114240476Y-117028571D01*
X114430952Y-117076190D01*
X114811904Y-117076190D01*
X114907142Y-117028571D01*
X114954761Y-116980952D01*
X115002380Y-116885714D01*
X115002380Y-116695238D01*
X114954761Y-116600000D01*
X114907142Y-116552380D01*
X114811904Y-116504761D01*
X114573809Y-116504761D01*
X114478571Y-116552380D01*
X114430952Y-116600000D01*
X114383333Y-116695238D01*
X114383333Y-116885714D01*
X114430952Y-116980952D01*
X114478571Y-117028571D01*
X114573809Y-117076190D01*
%TO.C,Csn105*%
X118157142Y-121076190D02*
X118204761Y-121123809D01*
X118252380Y-121266666D01*
X118252380Y-121361904D01*
X118204761Y-121504761D01*
X118109523Y-121600000D01*
X118014285Y-121647619D01*
X117823809Y-121695238D01*
X117680952Y-121695238D01*
X117490476Y-121647619D01*
X117395238Y-121600000D01*
X117300000Y-121504761D01*
X117252380Y-121361904D01*
X117252380Y-121266666D01*
X117300000Y-121123809D01*
X117347619Y-121076190D01*
X118204761Y-120695238D02*
X118252380Y-120600000D01*
X118252380Y-120409523D01*
X118204761Y-120314285D01*
X118109523Y-120266666D01*
X118061904Y-120266666D01*
X117966666Y-120314285D01*
X117919047Y-120409523D01*
X117919047Y-120552380D01*
X117871428Y-120647619D01*
X117776190Y-120695238D01*
X117728571Y-120695238D01*
X117633333Y-120647619D01*
X117585714Y-120552380D01*
X117585714Y-120409523D01*
X117633333Y-120314285D01*
X117585714Y-119838095D02*
X118252380Y-119838095D01*
X117680952Y-119838095D02*
X117633333Y-119790476D01*
X117585714Y-119695238D01*
X117585714Y-119552380D01*
X117633333Y-119457142D01*
X117728571Y-119409523D01*
X118252380Y-119409523D01*
X118252380Y-118409523D02*
X118252380Y-118980952D01*
X118252380Y-118695238D02*
X117252380Y-118695238D01*
X117395238Y-118790476D01*
X117490476Y-118885714D01*
X117538095Y-118980952D01*
X117252380Y-117790476D02*
X117252380Y-117695238D01*
X117300000Y-117600000D01*
X117347619Y-117552380D01*
X117442857Y-117504761D01*
X117633333Y-117457142D01*
X117871428Y-117457142D01*
X118061904Y-117504761D01*
X118157142Y-117552380D01*
X118204761Y-117600000D01*
X118252380Y-117695238D01*
X118252380Y-117790476D01*
X118204761Y-117885714D01*
X118157142Y-117933333D01*
X118061904Y-117980952D01*
X117871428Y-118028571D01*
X117633333Y-118028571D01*
X117442857Y-117980952D01*
X117347619Y-117933333D01*
X117300000Y-117885714D01*
X117252380Y-117790476D01*
X117252380Y-116552380D02*
X117252380Y-117028571D01*
X117728571Y-117076190D01*
X117680952Y-117028571D01*
X117633333Y-116933333D01*
X117633333Y-116695238D01*
X117680952Y-116600000D01*
X117728571Y-116552380D01*
X117823809Y-116504761D01*
X118061904Y-116504761D01*
X118157142Y-116552380D01*
X118204761Y-116600000D01*
X118252380Y-116695238D01*
X118252380Y-116933333D01*
X118204761Y-117028571D01*
X118157142Y-117076190D01*
%TO.C,Csn104*%
X214857142Y-92576190D02*
X214904761Y-92623809D01*
X214952380Y-92766666D01*
X214952380Y-92861904D01*
X214904761Y-93004761D01*
X214809523Y-93100000D01*
X214714285Y-93147619D01*
X214523809Y-93195238D01*
X214380952Y-93195238D01*
X214190476Y-93147619D01*
X214095238Y-93100000D01*
X214000000Y-93004761D01*
X213952380Y-92861904D01*
X213952380Y-92766666D01*
X214000000Y-92623809D01*
X214047619Y-92576190D01*
X214904761Y-92195238D02*
X214952380Y-92100000D01*
X214952380Y-91909523D01*
X214904761Y-91814285D01*
X214809523Y-91766666D01*
X214761904Y-91766666D01*
X214666666Y-91814285D01*
X214619047Y-91909523D01*
X214619047Y-92052380D01*
X214571428Y-92147619D01*
X214476190Y-92195238D01*
X214428571Y-92195238D01*
X214333333Y-92147619D01*
X214285714Y-92052380D01*
X214285714Y-91909523D01*
X214333333Y-91814285D01*
X214285714Y-91338095D02*
X214952380Y-91338095D01*
X214380952Y-91338095D02*
X214333333Y-91290476D01*
X214285714Y-91195238D01*
X214285714Y-91052380D01*
X214333333Y-90957142D01*
X214428571Y-90909523D01*
X214952380Y-90909523D01*
X214952380Y-89909523D02*
X214952380Y-90480952D01*
X214952380Y-90195238D02*
X213952380Y-90195238D01*
X214095238Y-90290476D01*
X214190476Y-90385714D01*
X214238095Y-90480952D01*
X213952380Y-89290476D02*
X213952380Y-89195238D01*
X214000000Y-89100000D01*
X214047619Y-89052380D01*
X214142857Y-89004761D01*
X214333333Y-88957142D01*
X214571428Y-88957142D01*
X214761904Y-89004761D01*
X214857142Y-89052380D01*
X214904761Y-89100000D01*
X214952380Y-89195238D01*
X214952380Y-89290476D01*
X214904761Y-89385714D01*
X214857142Y-89433333D01*
X214761904Y-89480952D01*
X214571428Y-89528571D01*
X214333333Y-89528571D01*
X214142857Y-89480952D01*
X214047619Y-89433333D01*
X214000000Y-89385714D01*
X213952380Y-89290476D01*
X214285714Y-88100000D02*
X214952380Y-88100000D01*
X213904761Y-88338095D02*
X214619047Y-88576190D01*
X214619047Y-87957142D01*
%TO.C,Csn102*%
X114957142Y-92576190D02*
X115004761Y-92623809D01*
X115052380Y-92766666D01*
X115052380Y-92861904D01*
X115004761Y-93004761D01*
X114909523Y-93100000D01*
X114814285Y-93147619D01*
X114623809Y-93195238D01*
X114480952Y-93195238D01*
X114290476Y-93147619D01*
X114195238Y-93100000D01*
X114100000Y-93004761D01*
X114052380Y-92861904D01*
X114052380Y-92766666D01*
X114100000Y-92623809D01*
X114147619Y-92576190D01*
X115004761Y-92195238D02*
X115052380Y-92100000D01*
X115052380Y-91909523D01*
X115004761Y-91814285D01*
X114909523Y-91766666D01*
X114861904Y-91766666D01*
X114766666Y-91814285D01*
X114719047Y-91909523D01*
X114719047Y-92052380D01*
X114671428Y-92147619D01*
X114576190Y-92195238D01*
X114528571Y-92195238D01*
X114433333Y-92147619D01*
X114385714Y-92052380D01*
X114385714Y-91909523D01*
X114433333Y-91814285D01*
X114385714Y-91338095D02*
X115052380Y-91338095D01*
X114480952Y-91338095D02*
X114433333Y-91290476D01*
X114385714Y-91195238D01*
X114385714Y-91052380D01*
X114433333Y-90957142D01*
X114528571Y-90909523D01*
X115052380Y-90909523D01*
X115052380Y-89909523D02*
X115052380Y-90480952D01*
X115052380Y-90195238D02*
X114052380Y-90195238D01*
X114195238Y-90290476D01*
X114290476Y-90385714D01*
X114338095Y-90480952D01*
X114052380Y-89290476D02*
X114052380Y-89195238D01*
X114100000Y-89100000D01*
X114147619Y-89052380D01*
X114242857Y-89004761D01*
X114433333Y-88957142D01*
X114671428Y-88957142D01*
X114861904Y-89004761D01*
X114957142Y-89052380D01*
X115004761Y-89100000D01*
X115052380Y-89195238D01*
X115052380Y-89290476D01*
X115004761Y-89385714D01*
X114957142Y-89433333D01*
X114861904Y-89480952D01*
X114671428Y-89528571D01*
X114433333Y-89528571D01*
X114242857Y-89480952D01*
X114147619Y-89433333D01*
X114100000Y-89385714D01*
X114052380Y-89290476D01*
X114147619Y-88576190D02*
X114100000Y-88528571D01*
X114052380Y-88433333D01*
X114052380Y-88195238D01*
X114100000Y-88100000D01*
X114147619Y-88052380D01*
X114242857Y-88004761D01*
X114338095Y-88004761D01*
X114480952Y-88052380D01*
X115052380Y-88623809D01*
X115052380Y-88004761D01*
%TO.C,Csn101*%
X118207142Y-92576190D02*
X118254761Y-92623809D01*
X118302380Y-92766666D01*
X118302380Y-92861904D01*
X118254761Y-93004761D01*
X118159523Y-93100000D01*
X118064285Y-93147619D01*
X117873809Y-93195238D01*
X117730952Y-93195238D01*
X117540476Y-93147619D01*
X117445238Y-93100000D01*
X117350000Y-93004761D01*
X117302380Y-92861904D01*
X117302380Y-92766666D01*
X117350000Y-92623809D01*
X117397619Y-92576190D01*
X118254761Y-92195238D02*
X118302380Y-92100000D01*
X118302380Y-91909523D01*
X118254761Y-91814285D01*
X118159523Y-91766666D01*
X118111904Y-91766666D01*
X118016666Y-91814285D01*
X117969047Y-91909523D01*
X117969047Y-92052380D01*
X117921428Y-92147619D01*
X117826190Y-92195238D01*
X117778571Y-92195238D01*
X117683333Y-92147619D01*
X117635714Y-92052380D01*
X117635714Y-91909523D01*
X117683333Y-91814285D01*
X117635714Y-91338095D02*
X118302380Y-91338095D01*
X117730952Y-91338095D02*
X117683333Y-91290476D01*
X117635714Y-91195238D01*
X117635714Y-91052380D01*
X117683333Y-90957142D01*
X117778571Y-90909523D01*
X118302380Y-90909523D01*
X118302380Y-89909523D02*
X118302380Y-90480952D01*
X118302380Y-90195238D02*
X117302380Y-90195238D01*
X117445238Y-90290476D01*
X117540476Y-90385714D01*
X117588095Y-90480952D01*
X117302380Y-89290476D02*
X117302380Y-89195238D01*
X117350000Y-89100000D01*
X117397619Y-89052380D01*
X117492857Y-89004761D01*
X117683333Y-88957142D01*
X117921428Y-88957142D01*
X118111904Y-89004761D01*
X118207142Y-89052380D01*
X118254761Y-89100000D01*
X118302380Y-89195238D01*
X118302380Y-89290476D01*
X118254761Y-89385714D01*
X118207142Y-89433333D01*
X118111904Y-89480952D01*
X117921428Y-89528571D01*
X117683333Y-89528571D01*
X117492857Y-89480952D01*
X117397619Y-89433333D01*
X117350000Y-89385714D01*
X117302380Y-89290476D01*
X118302380Y-88004761D02*
X118302380Y-88576190D01*
X118302380Y-88290476D02*
X117302380Y-88290476D01*
X117445238Y-88385714D01*
X117540476Y-88480952D01*
X117588095Y-88576190D01*
%TO.C,J102*%
X160964285Y-73752380D02*
X160964285Y-74466666D01*
X160916666Y-74609523D01*
X160821428Y-74704761D01*
X160678571Y-74752380D01*
X160583333Y-74752380D01*
X161964285Y-74752380D02*
X161392857Y-74752380D01*
X161678571Y-74752380D02*
X161678571Y-73752380D01*
X161583333Y-73895238D01*
X161488095Y-73990476D01*
X161392857Y-74038095D01*
X162583333Y-73752380D02*
X162678571Y-73752380D01*
X162773809Y-73800000D01*
X162821428Y-73847619D01*
X162869047Y-73942857D01*
X162916666Y-74133333D01*
X162916666Y-74371428D01*
X162869047Y-74561904D01*
X162821428Y-74657142D01*
X162773809Y-74704761D01*
X162678571Y-74752380D01*
X162583333Y-74752380D01*
X162488095Y-74704761D01*
X162440476Y-74657142D01*
X162392857Y-74561904D01*
X162345238Y-74371428D01*
X162345238Y-74133333D01*
X162392857Y-73942857D01*
X162440476Y-73847619D01*
X162488095Y-73800000D01*
X162583333Y-73752380D01*
X163297619Y-73847619D02*
X163345238Y-73800000D01*
X163440476Y-73752380D01*
X163678571Y-73752380D01*
X163773809Y-73800000D01*
X163821428Y-73847619D01*
X163869047Y-73942857D01*
X163869047Y-74038095D01*
X163821428Y-74180952D01*
X163250000Y-74752380D01*
X163869047Y-74752380D01*
%TO.C,J101*%
X160964285Y-127252380D02*
X160964285Y-127966666D01*
X160916666Y-128109523D01*
X160821428Y-128204761D01*
X160678571Y-128252380D01*
X160583333Y-128252380D01*
X161964285Y-128252380D02*
X161392857Y-128252380D01*
X161678571Y-128252380D02*
X161678571Y-127252380D01*
X161583333Y-127395238D01*
X161488095Y-127490476D01*
X161392857Y-127538095D01*
X162583333Y-127252380D02*
X162678571Y-127252380D01*
X162773809Y-127300000D01*
X162821428Y-127347619D01*
X162869047Y-127442857D01*
X162916666Y-127633333D01*
X162916666Y-127871428D01*
X162869047Y-128061904D01*
X162821428Y-128157142D01*
X162773809Y-128204761D01*
X162678571Y-128252380D01*
X162583333Y-128252380D01*
X162488095Y-128204761D01*
X162440476Y-128157142D01*
X162392857Y-128061904D01*
X162345238Y-127871428D01*
X162345238Y-127633333D01*
X162392857Y-127442857D01*
X162440476Y-127347619D01*
X162488095Y-127300000D01*
X162583333Y-127252380D01*
X163869047Y-128252380D02*
X163297619Y-128252380D01*
X163583333Y-128252380D02*
X163583333Y-127252380D01*
X163488095Y-127395238D01*
X163392857Y-127490476D01*
X163297619Y-127538095D01*
%TO.C,J103*%
X124914285Y-99402380D02*
X124914285Y-100116666D01*
X124866666Y-100259523D01*
X124771428Y-100354761D01*
X124628571Y-100402380D01*
X124533333Y-100402380D01*
X125914285Y-100402380D02*
X125342857Y-100402380D01*
X125628571Y-100402380D02*
X125628571Y-99402380D01*
X125533333Y-99545238D01*
X125438095Y-99640476D01*
X125342857Y-99688095D01*
X126533333Y-99402380D02*
X126628571Y-99402380D01*
X126723809Y-99450000D01*
X126771428Y-99497619D01*
X126819047Y-99592857D01*
X126866666Y-99783333D01*
X126866666Y-100021428D01*
X126819047Y-100211904D01*
X126771428Y-100307142D01*
X126723809Y-100354761D01*
X126628571Y-100402380D01*
X126533333Y-100402380D01*
X126438095Y-100354761D01*
X126390476Y-100307142D01*
X126342857Y-100211904D01*
X126295238Y-100021428D01*
X126295238Y-99783333D01*
X126342857Y-99592857D01*
X126390476Y-99497619D01*
X126438095Y-99450000D01*
X126533333Y-99402380D01*
X127200000Y-99402380D02*
X127819047Y-99402380D01*
X127485714Y-99783333D01*
X127628571Y-99783333D01*
X127723809Y-99830952D01*
X127771428Y-99878571D01*
X127819047Y-99973809D01*
X127819047Y-100211904D01*
X127771428Y-100307142D01*
X127723809Y-100354761D01*
X127628571Y-100402380D01*
X127342857Y-100402380D01*
X127247619Y-100354761D01*
X127200000Y-100307142D01*
%TO.C,J104*%
X197014285Y-99402380D02*
X197014285Y-100116666D01*
X196966666Y-100259523D01*
X196871428Y-100354761D01*
X196728571Y-100402380D01*
X196633333Y-100402380D01*
X198014285Y-100402380D02*
X197442857Y-100402380D01*
X197728571Y-100402380D02*
X197728571Y-99402380D01*
X197633333Y-99545238D01*
X197538095Y-99640476D01*
X197442857Y-99688095D01*
X198633333Y-99402380D02*
X198728571Y-99402380D01*
X198823809Y-99450000D01*
X198871428Y-99497619D01*
X198919047Y-99592857D01*
X198966666Y-99783333D01*
X198966666Y-100021428D01*
X198919047Y-100211904D01*
X198871428Y-100307142D01*
X198823809Y-100354761D01*
X198728571Y-100402380D01*
X198633333Y-100402380D01*
X198538095Y-100354761D01*
X198490476Y-100307142D01*
X198442857Y-100211904D01*
X198395238Y-100021428D01*
X198395238Y-99783333D01*
X198442857Y-99592857D01*
X198490476Y-99497619D01*
X198538095Y-99450000D01*
X198633333Y-99402380D01*
X199823809Y-99735714D02*
X199823809Y-100402380D01*
X199585714Y-99354761D02*
X199347619Y-100069047D01*
X199966666Y-100069047D01*
%TO.C,U102*%
X165498214Y-104997380D02*
X165498214Y-105806904D01*
X165545833Y-105902142D01*
X165593452Y-105949761D01*
X165688690Y-105997380D01*
X165879166Y-105997380D01*
X165974404Y-105949761D01*
X166022023Y-105902142D01*
X166069642Y-105806904D01*
X166069642Y-104997380D01*
X167069642Y-105997380D02*
X166498214Y-105997380D01*
X166783928Y-105997380D02*
X166783928Y-104997380D01*
X166688690Y-105140238D01*
X166593452Y-105235476D01*
X166498214Y-105283095D01*
X167688690Y-104997380D02*
X167783928Y-104997380D01*
X167879166Y-105045000D01*
X167926785Y-105092619D01*
X167974404Y-105187857D01*
X168022023Y-105378333D01*
X168022023Y-105616428D01*
X167974404Y-105806904D01*
X167926785Y-105902142D01*
X167879166Y-105949761D01*
X167783928Y-105997380D01*
X167688690Y-105997380D01*
X167593452Y-105949761D01*
X167545833Y-105902142D01*
X167498214Y-105806904D01*
X167450595Y-105616428D01*
X167450595Y-105378333D01*
X167498214Y-105187857D01*
X167545833Y-105092619D01*
X167593452Y-105045000D01*
X167688690Y-104997380D01*
X168402976Y-105092619D02*
X168450595Y-105045000D01*
X168545833Y-104997380D01*
X168783928Y-104997380D01*
X168879166Y-105045000D01*
X168926785Y-105092619D01*
X168974404Y-105187857D01*
X168974404Y-105283095D01*
X168926785Y-105425952D01*
X168355357Y-105997380D01*
X168974404Y-105997380D01*
%TO.C,U101*%
X155535714Y-98252380D02*
X155535714Y-99061904D01*
X155583333Y-99157142D01*
X155630952Y-99204761D01*
X155726190Y-99252380D01*
X155916666Y-99252380D01*
X156011904Y-99204761D01*
X156059523Y-99157142D01*
X156107142Y-99061904D01*
X156107142Y-98252380D01*
X157107142Y-99252380D02*
X156535714Y-99252380D01*
X156821428Y-99252380D02*
X156821428Y-98252380D01*
X156726190Y-98395238D01*
X156630952Y-98490476D01*
X156535714Y-98538095D01*
X157726190Y-98252380D02*
X157821428Y-98252380D01*
X157916666Y-98300000D01*
X157964285Y-98347619D01*
X158011904Y-98442857D01*
X158059523Y-98633333D01*
X158059523Y-98871428D01*
X158011904Y-99061904D01*
X157964285Y-99157142D01*
X157916666Y-99204761D01*
X157821428Y-99252380D01*
X157726190Y-99252380D01*
X157630952Y-99204761D01*
X157583333Y-99157142D01*
X157535714Y-99061904D01*
X157488095Y-98871428D01*
X157488095Y-98633333D01*
X157535714Y-98442857D01*
X157583333Y-98347619D01*
X157630952Y-98300000D01*
X157726190Y-98252380D01*
X159011904Y-99252380D02*
X158440476Y-99252380D01*
X158726190Y-99252380D02*
X158726190Y-98252380D01*
X158630952Y-98395238D01*
X158535714Y-98490476D01*
X158440476Y-98538095D01*
%TO.C,TH101*%
X169552380Y-117563095D02*
X169552380Y-116991666D01*
X170552380Y-117277380D02*
X169552380Y-117277380D01*
X170552380Y-116658333D02*
X169552380Y-116658333D01*
X170028571Y-116658333D02*
X170028571Y-116086904D01*
X170552380Y-116086904D02*
X169552380Y-116086904D01*
X170552380Y-115086904D02*
X170552380Y-115658333D01*
X170552380Y-115372619D02*
X169552380Y-115372619D01*
X169695238Y-115467857D01*
X169790476Y-115563095D01*
X169838095Y-115658333D01*
X169552380Y-114467857D02*
X169552380Y-114372619D01*
X169600000Y-114277380D01*
X169647619Y-114229761D01*
X169742857Y-114182142D01*
X169933333Y-114134523D01*
X170171428Y-114134523D01*
X170361904Y-114182142D01*
X170457142Y-114229761D01*
X170504761Y-114277380D01*
X170552380Y-114372619D01*
X170552380Y-114467857D01*
X170504761Y-114563095D01*
X170457142Y-114610714D01*
X170361904Y-114658333D01*
X170171428Y-114705952D01*
X169933333Y-114705952D01*
X169742857Y-114658333D01*
X169647619Y-114610714D01*
X169600000Y-114563095D01*
X169552380Y-114467857D01*
X170552380Y-113182142D02*
X170552380Y-113753571D01*
X170552380Y-113467857D02*
X169552380Y-113467857D01*
X169695238Y-113563095D01*
X169790476Y-113658333D01*
X169838095Y-113753571D01*
%TO.C,C111*%
X167555952Y-109582142D02*
X167508333Y-109629761D01*
X167365476Y-109677380D01*
X167270238Y-109677380D01*
X167127380Y-109629761D01*
X167032142Y-109534523D01*
X166984523Y-109439285D01*
X166936904Y-109248809D01*
X166936904Y-109105952D01*
X166984523Y-108915476D01*
X167032142Y-108820238D01*
X167127380Y-108725000D01*
X167270238Y-108677380D01*
X167365476Y-108677380D01*
X167508333Y-108725000D01*
X167555952Y-108772619D01*
X168508333Y-109677380D02*
X167936904Y-109677380D01*
X168222619Y-109677380D02*
X168222619Y-108677380D01*
X168127380Y-108820238D01*
X168032142Y-108915476D01*
X167936904Y-108963095D01*
X169460714Y-109677380D02*
X168889285Y-109677380D01*
X169175000Y-109677380D02*
X169175000Y-108677380D01*
X169079761Y-108820238D01*
X168984523Y-108915476D01*
X168889285Y-108963095D01*
X170413095Y-109677380D02*
X169841666Y-109677380D01*
X170127380Y-109677380D02*
X170127380Y-108677380D01*
X170032142Y-108820238D01*
X169936904Y-108915476D01*
X169841666Y-108963095D01*
%TO.C,C110*%
X167493452Y-108302142D02*
X167445833Y-108349761D01*
X167302976Y-108397380D01*
X167207738Y-108397380D01*
X167064880Y-108349761D01*
X166969642Y-108254523D01*
X166922023Y-108159285D01*
X166874404Y-107968809D01*
X166874404Y-107825952D01*
X166922023Y-107635476D01*
X166969642Y-107540238D01*
X167064880Y-107445000D01*
X167207738Y-107397380D01*
X167302976Y-107397380D01*
X167445833Y-107445000D01*
X167493452Y-107492619D01*
X168445833Y-108397380D02*
X167874404Y-108397380D01*
X168160119Y-108397380D02*
X168160119Y-107397380D01*
X168064880Y-107540238D01*
X167969642Y-107635476D01*
X167874404Y-107683095D01*
X169398214Y-108397380D02*
X168826785Y-108397380D01*
X169112500Y-108397380D02*
X169112500Y-107397380D01*
X169017261Y-107540238D01*
X168922023Y-107635476D01*
X168826785Y-107683095D01*
X170017261Y-107397380D02*
X170112500Y-107397380D01*
X170207738Y-107445000D01*
X170255357Y-107492619D01*
X170302976Y-107587857D01*
X170350595Y-107778333D01*
X170350595Y-108016428D01*
X170302976Y-108206904D01*
X170255357Y-108302142D01*
X170207738Y-108349761D01*
X170112500Y-108397380D01*
X170017261Y-108397380D01*
X169922023Y-108349761D01*
X169874404Y-108302142D01*
X169826785Y-108206904D01*
X169779166Y-108016428D01*
X169779166Y-107778333D01*
X169826785Y-107587857D01*
X169874404Y-107492619D01*
X169922023Y-107445000D01*
X170017261Y-107397380D01*
%TO.C,C122*%
X169719642Y-97464047D02*
X169767261Y-97511666D01*
X169814880Y-97654523D01*
X169814880Y-97749761D01*
X169767261Y-97892619D01*
X169672023Y-97987857D01*
X169576785Y-98035476D01*
X169386309Y-98083095D01*
X169243452Y-98083095D01*
X169052976Y-98035476D01*
X168957738Y-97987857D01*
X168862500Y-97892619D01*
X168814880Y-97749761D01*
X168814880Y-97654523D01*
X168862500Y-97511666D01*
X168910119Y-97464047D01*
X169814880Y-96511666D02*
X169814880Y-97083095D01*
X169814880Y-96797380D02*
X168814880Y-96797380D01*
X168957738Y-96892619D01*
X169052976Y-96987857D01*
X169100595Y-97083095D01*
X168910119Y-96130714D02*
X168862500Y-96083095D01*
X168814880Y-95987857D01*
X168814880Y-95749761D01*
X168862500Y-95654523D01*
X168910119Y-95606904D01*
X169005357Y-95559285D01*
X169100595Y-95559285D01*
X169243452Y-95606904D01*
X169814880Y-96178333D01*
X169814880Y-95559285D01*
X168910119Y-95178333D02*
X168862500Y-95130714D01*
X168814880Y-95035476D01*
X168814880Y-94797380D01*
X168862500Y-94702142D01*
X168910119Y-94654523D01*
X169005357Y-94606904D01*
X169100595Y-94606904D01*
X169243452Y-94654523D01*
X169814880Y-95225952D01*
X169814880Y-94606904D01*
%TO.C,C134*%
X168777142Y-116419047D02*
X168824761Y-116466666D01*
X168872380Y-116609523D01*
X168872380Y-116704761D01*
X168824761Y-116847619D01*
X168729523Y-116942857D01*
X168634285Y-116990476D01*
X168443809Y-117038095D01*
X168300952Y-117038095D01*
X168110476Y-116990476D01*
X168015238Y-116942857D01*
X167920000Y-116847619D01*
X167872380Y-116704761D01*
X167872380Y-116609523D01*
X167920000Y-116466666D01*
X167967619Y-116419047D01*
X168872380Y-115466666D02*
X168872380Y-116038095D01*
X168872380Y-115752380D02*
X167872380Y-115752380D01*
X168015238Y-115847619D01*
X168110476Y-115942857D01*
X168158095Y-116038095D01*
X167872380Y-115133333D02*
X167872380Y-114514285D01*
X168253333Y-114847619D01*
X168253333Y-114704761D01*
X168300952Y-114609523D01*
X168348571Y-114561904D01*
X168443809Y-114514285D01*
X168681904Y-114514285D01*
X168777142Y-114561904D01*
X168824761Y-114609523D01*
X168872380Y-114704761D01*
X168872380Y-114990476D01*
X168824761Y-115085714D01*
X168777142Y-115133333D01*
X168205714Y-113657142D02*
X168872380Y-113657142D01*
X167824761Y-113895238D02*
X168539047Y-114133333D01*
X168539047Y-113514285D01*
%TO.C,R117*%
X166130952Y-115147380D02*
X165797619Y-114671190D01*
X165559523Y-115147380D02*
X165559523Y-114147380D01*
X165940476Y-114147380D01*
X166035714Y-114195000D01*
X166083333Y-114242619D01*
X166130952Y-114337857D01*
X166130952Y-114480714D01*
X166083333Y-114575952D01*
X166035714Y-114623571D01*
X165940476Y-114671190D01*
X165559523Y-114671190D01*
X167083333Y-115147380D02*
X166511904Y-115147380D01*
X166797619Y-115147380D02*
X166797619Y-114147380D01*
X166702380Y-114290238D01*
X166607142Y-114385476D01*
X166511904Y-114433095D01*
X168035714Y-115147380D02*
X167464285Y-115147380D01*
X167750000Y-115147380D02*
X167750000Y-114147380D01*
X167654761Y-114290238D01*
X167559523Y-114385476D01*
X167464285Y-114433095D01*
X168369047Y-114147380D02*
X169035714Y-114147380D01*
X168607142Y-115147380D01*
%TO.C,D118*%
X158802380Y-108890476D02*
X157802380Y-108890476D01*
X157802380Y-108652380D01*
X157850000Y-108509523D01*
X157945238Y-108414285D01*
X158040476Y-108366666D01*
X158230952Y-108319047D01*
X158373809Y-108319047D01*
X158564285Y-108366666D01*
X158659523Y-108414285D01*
X158754761Y-108509523D01*
X158802380Y-108652380D01*
X158802380Y-108890476D01*
X158802380Y-107366666D02*
X158802380Y-107938095D01*
X158802380Y-107652380D02*
X157802380Y-107652380D01*
X157945238Y-107747619D01*
X158040476Y-107842857D01*
X158088095Y-107938095D01*
X158802380Y-106414285D02*
X158802380Y-106985714D01*
X158802380Y-106700000D02*
X157802380Y-106700000D01*
X157945238Y-106795238D01*
X158040476Y-106890476D01*
X158088095Y-106985714D01*
X158230952Y-105842857D02*
X158183333Y-105938095D01*
X158135714Y-105985714D01*
X158040476Y-106033333D01*
X157992857Y-106033333D01*
X157897619Y-105985714D01*
X157850000Y-105938095D01*
X157802380Y-105842857D01*
X157802380Y-105652380D01*
X157850000Y-105557142D01*
X157897619Y-105509523D01*
X157992857Y-105461904D01*
X158040476Y-105461904D01*
X158135714Y-105509523D01*
X158183333Y-105557142D01*
X158230952Y-105652380D01*
X158230952Y-105842857D01*
X158278571Y-105938095D01*
X158326190Y-105985714D01*
X158421428Y-106033333D01*
X158611904Y-106033333D01*
X158707142Y-105985714D01*
X158754761Y-105938095D01*
X158802380Y-105842857D01*
X158802380Y-105652380D01*
X158754761Y-105557142D01*
X158707142Y-105509523D01*
X158611904Y-105461904D01*
X158421428Y-105461904D01*
X158326190Y-105509523D01*
X158278571Y-105557142D01*
X158230952Y-105652380D01*
%TO.C,R137*%
X171084880Y-98464047D02*
X170608690Y-98797380D01*
X171084880Y-99035476D02*
X170084880Y-99035476D01*
X170084880Y-98654523D01*
X170132500Y-98559285D01*
X170180119Y-98511666D01*
X170275357Y-98464047D01*
X170418214Y-98464047D01*
X170513452Y-98511666D01*
X170561071Y-98559285D01*
X170608690Y-98654523D01*
X170608690Y-99035476D01*
X171084880Y-97511666D02*
X171084880Y-98083095D01*
X171084880Y-97797380D02*
X170084880Y-97797380D01*
X170227738Y-97892619D01*
X170322976Y-97987857D01*
X170370595Y-98083095D01*
X170084880Y-97178333D02*
X170084880Y-96559285D01*
X170465833Y-96892619D01*
X170465833Y-96749761D01*
X170513452Y-96654523D01*
X170561071Y-96606904D01*
X170656309Y-96559285D01*
X170894404Y-96559285D01*
X170989642Y-96606904D01*
X171037261Y-96654523D01*
X171084880Y-96749761D01*
X171084880Y-97035476D01*
X171037261Y-97130714D01*
X170989642Y-97178333D01*
X170084880Y-96225952D02*
X170084880Y-95559285D01*
X171084880Y-95987857D01*
%TO.C,R136*%
X154282380Y-108119047D02*
X153806190Y-108452380D01*
X154282380Y-108690476D02*
X153282380Y-108690476D01*
X153282380Y-108309523D01*
X153330000Y-108214285D01*
X153377619Y-108166666D01*
X153472857Y-108119047D01*
X153615714Y-108119047D01*
X153710952Y-108166666D01*
X153758571Y-108214285D01*
X153806190Y-108309523D01*
X153806190Y-108690476D01*
X154282380Y-107166666D02*
X154282380Y-107738095D01*
X154282380Y-107452380D02*
X153282380Y-107452380D01*
X153425238Y-107547619D01*
X153520476Y-107642857D01*
X153568095Y-107738095D01*
X153282380Y-106833333D02*
X153282380Y-106214285D01*
X153663333Y-106547619D01*
X153663333Y-106404761D01*
X153710952Y-106309523D01*
X153758571Y-106261904D01*
X153853809Y-106214285D01*
X154091904Y-106214285D01*
X154187142Y-106261904D01*
X154234761Y-106309523D01*
X154282380Y-106404761D01*
X154282380Y-106690476D01*
X154234761Y-106785714D01*
X154187142Y-106833333D01*
X153282380Y-105357142D02*
X153282380Y-105547619D01*
X153330000Y-105642857D01*
X153377619Y-105690476D01*
X153520476Y-105785714D01*
X153710952Y-105833333D01*
X154091904Y-105833333D01*
X154187142Y-105785714D01*
X154234761Y-105738095D01*
X154282380Y-105642857D01*
X154282380Y-105452380D01*
X154234761Y-105357142D01*
X154187142Y-105309523D01*
X154091904Y-105261904D01*
X153853809Y-105261904D01*
X153758571Y-105309523D01*
X153710952Y-105357142D01*
X153663333Y-105452380D01*
X153663333Y-105642857D01*
X153710952Y-105738095D01*
X153758571Y-105785714D01*
X153853809Y-105833333D01*
%TO.C,D114*%
X166564880Y-98835476D02*
X165564880Y-98835476D01*
X165564880Y-98597380D01*
X165612500Y-98454523D01*
X165707738Y-98359285D01*
X165802976Y-98311666D01*
X165993452Y-98264047D01*
X166136309Y-98264047D01*
X166326785Y-98311666D01*
X166422023Y-98359285D01*
X166517261Y-98454523D01*
X166564880Y-98597380D01*
X166564880Y-98835476D01*
X166564880Y-97311666D02*
X166564880Y-97883095D01*
X166564880Y-97597380D02*
X165564880Y-97597380D01*
X165707738Y-97692619D01*
X165802976Y-97787857D01*
X165850595Y-97883095D01*
X166564880Y-96359285D02*
X166564880Y-96930714D01*
X166564880Y-96645000D02*
X165564880Y-96645000D01*
X165707738Y-96740238D01*
X165802976Y-96835476D01*
X165850595Y-96930714D01*
X165898214Y-95502142D02*
X166564880Y-95502142D01*
X165517261Y-95740238D02*
X166231547Y-95978333D01*
X166231547Y-95359285D01*
%TO.C,D111*%
X168609880Y-98762476D02*
X167609880Y-98762476D01*
X167609880Y-98524380D01*
X167657500Y-98381523D01*
X167752738Y-98286285D01*
X167847976Y-98238666D01*
X168038452Y-98191047D01*
X168181309Y-98191047D01*
X168371785Y-98238666D01*
X168467023Y-98286285D01*
X168562261Y-98381523D01*
X168609880Y-98524380D01*
X168609880Y-98762476D01*
X168609880Y-97238666D02*
X168609880Y-97810095D01*
X168609880Y-97524380D02*
X167609880Y-97524380D01*
X167752738Y-97619619D01*
X167847976Y-97714857D01*
X167895595Y-97810095D01*
X168609880Y-96286285D02*
X168609880Y-96857714D01*
X168609880Y-96572000D02*
X167609880Y-96572000D01*
X167752738Y-96667238D01*
X167847976Y-96762476D01*
X167895595Y-96857714D01*
X168609880Y-95333904D02*
X168609880Y-95905333D01*
X168609880Y-95619619D02*
X167609880Y-95619619D01*
X167752738Y-95714857D01*
X167847976Y-95810095D01*
X167895595Y-95905333D01*
%TO.C,D110*%
X174619880Y-107063476D02*
X173619880Y-107063476D01*
X173619880Y-106825380D01*
X173667500Y-106682523D01*
X173762738Y-106587285D01*
X173857976Y-106539666D01*
X174048452Y-106492047D01*
X174191309Y-106492047D01*
X174381785Y-106539666D01*
X174477023Y-106587285D01*
X174572261Y-106682523D01*
X174619880Y-106825380D01*
X174619880Y-107063476D01*
X174619880Y-105539666D02*
X174619880Y-106111095D01*
X174619880Y-105825380D02*
X173619880Y-105825380D01*
X173762738Y-105920619D01*
X173857976Y-106015857D01*
X173905595Y-106111095D01*
X174619880Y-104587285D02*
X174619880Y-105158714D01*
X174619880Y-104873000D02*
X173619880Y-104873000D01*
X173762738Y-104968238D01*
X173857976Y-105063476D01*
X173905595Y-105158714D01*
X173619880Y-103968238D02*
X173619880Y-103873000D01*
X173667500Y-103777761D01*
X173715119Y-103730142D01*
X173810357Y-103682523D01*
X174000833Y-103634904D01*
X174238928Y-103634904D01*
X174429404Y-103682523D01*
X174524642Y-103730142D01*
X174572261Y-103777761D01*
X174619880Y-103873000D01*
X174619880Y-103968238D01*
X174572261Y-104063476D01*
X174524642Y-104111095D01*
X174429404Y-104158714D01*
X174238928Y-104206333D01*
X174000833Y-104206333D01*
X173810357Y-104158714D01*
X173715119Y-104111095D01*
X173667500Y-104063476D01*
X173619880Y-103968238D01*
%TO.C,D103*%
X156757380Y-108963476D02*
X155757380Y-108963476D01*
X155757380Y-108725380D01*
X155805000Y-108582523D01*
X155900238Y-108487285D01*
X155995476Y-108439666D01*
X156185952Y-108392047D01*
X156328809Y-108392047D01*
X156519285Y-108439666D01*
X156614523Y-108487285D01*
X156709761Y-108582523D01*
X156757380Y-108725380D01*
X156757380Y-108963476D01*
X156757380Y-107439666D02*
X156757380Y-108011095D01*
X156757380Y-107725380D02*
X155757380Y-107725380D01*
X155900238Y-107820619D01*
X155995476Y-107915857D01*
X156043095Y-108011095D01*
X155757380Y-106820619D02*
X155757380Y-106725380D01*
X155805000Y-106630142D01*
X155852619Y-106582523D01*
X155947857Y-106534904D01*
X156138333Y-106487285D01*
X156376428Y-106487285D01*
X156566904Y-106534904D01*
X156662142Y-106582523D01*
X156709761Y-106630142D01*
X156757380Y-106725380D01*
X156757380Y-106820619D01*
X156709761Y-106915857D01*
X156662142Y-106963476D01*
X156566904Y-107011095D01*
X156376428Y-107058714D01*
X156138333Y-107058714D01*
X155947857Y-107011095D01*
X155852619Y-106963476D01*
X155805000Y-106915857D01*
X155757380Y-106820619D01*
X155757380Y-106153952D02*
X155757380Y-105534904D01*
X156138333Y-105868238D01*
X156138333Y-105725380D01*
X156185952Y-105630142D01*
X156233571Y-105582523D01*
X156328809Y-105534904D01*
X156566904Y-105534904D01*
X156662142Y-105582523D01*
X156709761Y-105630142D01*
X156757380Y-105725380D01*
X156757380Y-106011095D01*
X156709761Y-106106333D01*
X156662142Y-106153952D01*
%TO.C,D102*%
X150747380Y-100617476D02*
X149747380Y-100617476D01*
X149747380Y-100379380D01*
X149795000Y-100236523D01*
X149890238Y-100141285D01*
X149985476Y-100093666D01*
X150175952Y-100046047D01*
X150318809Y-100046047D01*
X150509285Y-100093666D01*
X150604523Y-100141285D01*
X150699761Y-100236523D01*
X150747380Y-100379380D01*
X150747380Y-100617476D01*
X150747380Y-99093666D02*
X150747380Y-99665095D01*
X150747380Y-99379380D02*
X149747380Y-99379380D01*
X149890238Y-99474619D01*
X149985476Y-99569857D01*
X150033095Y-99665095D01*
X149747380Y-98474619D02*
X149747380Y-98379380D01*
X149795000Y-98284142D01*
X149842619Y-98236523D01*
X149937857Y-98188904D01*
X150128333Y-98141285D01*
X150366428Y-98141285D01*
X150556904Y-98188904D01*
X150652142Y-98236523D01*
X150699761Y-98284142D01*
X150747380Y-98379380D01*
X150747380Y-98474619D01*
X150699761Y-98569857D01*
X150652142Y-98617476D01*
X150556904Y-98665095D01*
X150366428Y-98712714D01*
X150128333Y-98712714D01*
X149937857Y-98665095D01*
X149842619Y-98617476D01*
X149795000Y-98569857D01*
X149747380Y-98474619D01*
X149842619Y-97760333D02*
X149795000Y-97712714D01*
X149747380Y-97617476D01*
X149747380Y-97379380D01*
X149795000Y-97284142D01*
X149842619Y-97236523D01*
X149937857Y-97188904D01*
X150033095Y-97188904D01*
X150175952Y-97236523D01*
X150747380Y-97807952D01*
X150747380Y-97188904D01*
%TO.C,C196*%
X167418452Y-107532142D02*
X167370833Y-107579761D01*
X167227976Y-107627380D01*
X167132738Y-107627380D01*
X166989880Y-107579761D01*
X166894642Y-107484523D01*
X166847023Y-107389285D01*
X166799404Y-107198809D01*
X166799404Y-107055952D01*
X166847023Y-106865476D01*
X166894642Y-106770238D01*
X166989880Y-106675000D01*
X167132738Y-106627380D01*
X167227976Y-106627380D01*
X167370833Y-106675000D01*
X167418452Y-106722619D01*
X168370833Y-107627380D02*
X167799404Y-107627380D01*
X168085119Y-107627380D02*
X168085119Y-106627380D01*
X167989880Y-106770238D01*
X167894642Y-106865476D01*
X167799404Y-106913095D01*
X168847023Y-107627380D02*
X169037500Y-107627380D01*
X169132738Y-107579761D01*
X169180357Y-107532142D01*
X169275595Y-107389285D01*
X169323214Y-107198809D01*
X169323214Y-106817857D01*
X169275595Y-106722619D01*
X169227976Y-106675000D01*
X169132738Y-106627380D01*
X168942261Y-106627380D01*
X168847023Y-106675000D01*
X168799404Y-106722619D01*
X168751785Y-106817857D01*
X168751785Y-107055952D01*
X168799404Y-107151190D01*
X168847023Y-107198809D01*
X168942261Y-107246428D01*
X169132738Y-107246428D01*
X169227976Y-107198809D01*
X169275595Y-107151190D01*
X169323214Y-107055952D01*
X170180357Y-106627380D02*
X169989880Y-106627380D01*
X169894642Y-106675000D01*
X169847023Y-106722619D01*
X169751785Y-106865476D01*
X169704166Y-107055952D01*
X169704166Y-107436904D01*
X169751785Y-107532142D01*
X169799404Y-107579761D01*
X169894642Y-107627380D01*
X170085119Y-107627380D01*
X170180357Y-107579761D01*
X170227976Y-107532142D01*
X170275595Y-107436904D01*
X170275595Y-107198809D01*
X170227976Y-107103571D01*
X170180357Y-107055952D01*
X170085119Y-107008333D01*
X169894642Y-107008333D01*
X169799404Y-107055952D01*
X169751785Y-107103571D01*
X169704166Y-107198809D01*
%TO.C,C195*%
X154818452Y-97527142D02*
X154770833Y-97574761D01*
X154627976Y-97622380D01*
X154532738Y-97622380D01*
X154389880Y-97574761D01*
X154294642Y-97479523D01*
X154247023Y-97384285D01*
X154199404Y-97193809D01*
X154199404Y-97050952D01*
X154247023Y-96860476D01*
X154294642Y-96765238D01*
X154389880Y-96670000D01*
X154532738Y-96622380D01*
X154627976Y-96622380D01*
X154770833Y-96670000D01*
X154818452Y-96717619D01*
X155770833Y-97622380D02*
X155199404Y-97622380D01*
X155485119Y-97622380D02*
X155485119Y-96622380D01*
X155389880Y-96765238D01*
X155294642Y-96860476D01*
X155199404Y-96908095D01*
X156247023Y-97622380D02*
X156437500Y-97622380D01*
X156532738Y-97574761D01*
X156580357Y-97527142D01*
X156675595Y-97384285D01*
X156723214Y-97193809D01*
X156723214Y-96812857D01*
X156675595Y-96717619D01*
X156627976Y-96670000D01*
X156532738Y-96622380D01*
X156342261Y-96622380D01*
X156247023Y-96670000D01*
X156199404Y-96717619D01*
X156151785Y-96812857D01*
X156151785Y-97050952D01*
X156199404Y-97146190D01*
X156247023Y-97193809D01*
X156342261Y-97241428D01*
X156532738Y-97241428D01*
X156627976Y-97193809D01*
X156675595Y-97146190D01*
X156723214Y-97050952D01*
X157627976Y-96622380D02*
X157151785Y-96622380D01*
X157104166Y-97098571D01*
X157151785Y-97050952D01*
X157247023Y-97003333D01*
X157485119Y-97003333D01*
X157580357Y-97050952D01*
X157627976Y-97098571D01*
X157675595Y-97193809D01*
X157675595Y-97431904D01*
X157627976Y-97527142D01*
X157580357Y-97574761D01*
X157485119Y-97622380D01*
X157247023Y-97622380D01*
X157151785Y-97574761D01*
X157104166Y-97527142D01*
%TO.C,C131*%
X152518452Y-87187142D02*
X152470833Y-87234761D01*
X152327976Y-87282380D01*
X152232738Y-87282380D01*
X152089880Y-87234761D01*
X151994642Y-87139523D01*
X151947023Y-87044285D01*
X151899404Y-86853809D01*
X151899404Y-86710952D01*
X151947023Y-86520476D01*
X151994642Y-86425238D01*
X152089880Y-86330000D01*
X152232738Y-86282380D01*
X152327976Y-86282380D01*
X152470833Y-86330000D01*
X152518452Y-86377619D01*
X153470833Y-87282380D02*
X152899404Y-87282380D01*
X153185119Y-87282380D02*
X153185119Y-86282380D01*
X153089880Y-86425238D01*
X152994642Y-86520476D01*
X152899404Y-86568095D01*
X153804166Y-86282380D02*
X154423214Y-86282380D01*
X154089880Y-86663333D01*
X154232738Y-86663333D01*
X154327976Y-86710952D01*
X154375595Y-86758571D01*
X154423214Y-86853809D01*
X154423214Y-87091904D01*
X154375595Y-87187142D01*
X154327976Y-87234761D01*
X154232738Y-87282380D01*
X153947023Y-87282380D01*
X153851785Y-87234761D01*
X153804166Y-87187142D01*
X155375595Y-87282380D02*
X154804166Y-87282380D01*
X155089880Y-87282380D02*
X155089880Y-86282380D01*
X154994642Y-86425238D01*
X154899404Y-86520476D01*
X154804166Y-86568095D01*
%TO.C,R123*%
X169680952Y-81722380D02*
X169347619Y-81246190D01*
X169109523Y-81722380D02*
X169109523Y-80722380D01*
X169490476Y-80722380D01*
X169585714Y-80770000D01*
X169633333Y-80817619D01*
X169680952Y-80912857D01*
X169680952Y-81055714D01*
X169633333Y-81150952D01*
X169585714Y-81198571D01*
X169490476Y-81246190D01*
X169109523Y-81246190D01*
X170633333Y-81722380D02*
X170061904Y-81722380D01*
X170347619Y-81722380D02*
X170347619Y-80722380D01*
X170252380Y-80865238D01*
X170157142Y-80960476D01*
X170061904Y-81008095D01*
X171014285Y-80817619D02*
X171061904Y-80770000D01*
X171157142Y-80722380D01*
X171395238Y-80722380D01*
X171490476Y-80770000D01*
X171538095Y-80817619D01*
X171585714Y-80912857D01*
X171585714Y-81008095D01*
X171538095Y-81150952D01*
X170966666Y-81722380D01*
X171585714Y-81722380D01*
X171919047Y-80722380D02*
X172538095Y-80722380D01*
X172204761Y-81103333D01*
X172347619Y-81103333D01*
X172442857Y-81150952D01*
X172490476Y-81198571D01*
X172538095Y-81293809D01*
X172538095Y-81531904D01*
X172490476Y-81627142D01*
X172442857Y-81674761D01*
X172347619Y-81722380D01*
X172061904Y-81722380D01*
X171966666Y-81674761D01*
X171919047Y-81627142D01*
%TO.C,R122*%
X169680952Y-88022380D02*
X169347619Y-87546190D01*
X169109523Y-88022380D02*
X169109523Y-87022380D01*
X169490476Y-87022380D01*
X169585714Y-87070000D01*
X169633333Y-87117619D01*
X169680952Y-87212857D01*
X169680952Y-87355714D01*
X169633333Y-87450952D01*
X169585714Y-87498571D01*
X169490476Y-87546190D01*
X169109523Y-87546190D01*
X170633333Y-88022380D02*
X170061904Y-88022380D01*
X170347619Y-88022380D02*
X170347619Y-87022380D01*
X170252380Y-87165238D01*
X170157142Y-87260476D01*
X170061904Y-87308095D01*
X171014285Y-87117619D02*
X171061904Y-87070000D01*
X171157142Y-87022380D01*
X171395238Y-87022380D01*
X171490476Y-87070000D01*
X171538095Y-87117619D01*
X171585714Y-87212857D01*
X171585714Y-87308095D01*
X171538095Y-87450952D01*
X170966666Y-88022380D01*
X171585714Y-88022380D01*
X171966666Y-87117619D02*
X172014285Y-87070000D01*
X172109523Y-87022380D01*
X172347619Y-87022380D01*
X172442857Y-87070000D01*
X172490476Y-87117619D01*
X172538095Y-87212857D01*
X172538095Y-87308095D01*
X172490476Y-87450952D01*
X171919047Y-88022380D01*
X172538095Y-88022380D01*
%TO.C,R121*%
X152480952Y-88982380D02*
X152147619Y-88506190D01*
X151909523Y-88982380D02*
X151909523Y-87982380D01*
X152290476Y-87982380D01*
X152385714Y-88030000D01*
X152433333Y-88077619D01*
X152480952Y-88172857D01*
X152480952Y-88315714D01*
X152433333Y-88410952D01*
X152385714Y-88458571D01*
X152290476Y-88506190D01*
X151909523Y-88506190D01*
X153433333Y-88982380D02*
X152861904Y-88982380D01*
X153147619Y-88982380D02*
X153147619Y-87982380D01*
X153052380Y-88125238D01*
X152957142Y-88220476D01*
X152861904Y-88268095D01*
X153814285Y-88077619D02*
X153861904Y-88030000D01*
X153957142Y-87982380D01*
X154195238Y-87982380D01*
X154290476Y-88030000D01*
X154338095Y-88077619D01*
X154385714Y-88172857D01*
X154385714Y-88268095D01*
X154338095Y-88410952D01*
X153766666Y-88982380D01*
X154385714Y-88982380D01*
X155338095Y-88982380D02*
X154766666Y-88982380D01*
X155052380Y-88982380D02*
X155052380Y-87982380D01*
X154957142Y-88125238D01*
X154861904Y-88220476D01*
X154766666Y-88268095D01*
%TO.C,R120*%
X169680952Y-82982380D02*
X169347619Y-82506190D01*
X169109523Y-82982380D02*
X169109523Y-81982380D01*
X169490476Y-81982380D01*
X169585714Y-82030000D01*
X169633333Y-82077619D01*
X169680952Y-82172857D01*
X169680952Y-82315714D01*
X169633333Y-82410952D01*
X169585714Y-82458571D01*
X169490476Y-82506190D01*
X169109523Y-82506190D01*
X170633333Y-82982380D02*
X170061904Y-82982380D01*
X170347619Y-82982380D02*
X170347619Y-81982380D01*
X170252380Y-82125238D01*
X170157142Y-82220476D01*
X170061904Y-82268095D01*
X171014285Y-82077619D02*
X171061904Y-82030000D01*
X171157142Y-81982380D01*
X171395238Y-81982380D01*
X171490476Y-82030000D01*
X171538095Y-82077619D01*
X171585714Y-82172857D01*
X171585714Y-82268095D01*
X171538095Y-82410952D01*
X170966666Y-82982380D01*
X171585714Y-82982380D01*
X172204761Y-81982380D02*
X172300000Y-81982380D01*
X172395238Y-82030000D01*
X172442857Y-82077619D01*
X172490476Y-82172857D01*
X172538095Y-82363333D01*
X172538095Y-82601428D01*
X172490476Y-82791904D01*
X172442857Y-82887142D01*
X172395238Y-82934761D01*
X172300000Y-82982380D01*
X172204761Y-82982380D01*
X172109523Y-82934761D01*
X172061904Y-82887142D01*
X172014285Y-82791904D01*
X171966666Y-82601428D01*
X171966666Y-82363333D01*
X172014285Y-82172857D01*
X172061904Y-82077619D01*
X172109523Y-82030000D01*
X172204761Y-81982380D01*
%TO.C,R119*%
X169680952Y-92482380D02*
X169347619Y-92006190D01*
X169109523Y-92482380D02*
X169109523Y-91482380D01*
X169490476Y-91482380D01*
X169585714Y-91530000D01*
X169633333Y-91577619D01*
X169680952Y-91672857D01*
X169680952Y-91815714D01*
X169633333Y-91910952D01*
X169585714Y-91958571D01*
X169490476Y-92006190D01*
X169109523Y-92006190D01*
X170633333Y-92482380D02*
X170061904Y-92482380D01*
X170347619Y-92482380D02*
X170347619Y-91482380D01*
X170252380Y-91625238D01*
X170157142Y-91720476D01*
X170061904Y-91768095D01*
X171585714Y-92482380D02*
X171014285Y-92482380D01*
X171300000Y-92482380D02*
X171300000Y-91482380D01*
X171204761Y-91625238D01*
X171109523Y-91720476D01*
X171014285Y-91768095D01*
X172061904Y-92482380D02*
X172252380Y-92482380D01*
X172347619Y-92434761D01*
X172395238Y-92387142D01*
X172490476Y-92244285D01*
X172538095Y-92053809D01*
X172538095Y-91672857D01*
X172490476Y-91577619D01*
X172442857Y-91530000D01*
X172347619Y-91482380D01*
X172157142Y-91482380D01*
X172061904Y-91530000D01*
X172014285Y-91577619D01*
X171966666Y-91672857D01*
X171966666Y-91910952D01*
X172014285Y-92006190D01*
X172061904Y-92053809D01*
X172157142Y-92101428D01*
X172347619Y-92101428D01*
X172442857Y-92053809D01*
X172490476Y-92006190D01*
X172538095Y-91910952D01*
%TO.C,R118*%
X152468452Y-87822380D02*
X152135119Y-87346190D01*
X151897023Y-87822380D02*
X151897023Y-86822380D01*
X152277976Y-86822380D01*
X152373214Y-86870000D01*
X152420833Y-86917619D01*
X152468452Y-87012857D01*
X152468452Y-87155714D01*
X152420833Y-87250952D01*
X152373214Y-87298571D01*
X152277976Y-87346190D01*
X151897023Y-87346190D01*
X153420833Y-87822380D02*
X152849404Y-87822380D01*
X153135119Y-87822380D02*
X153135119Y-86822380D01*
X153039880Y-86965238D01*
X152944642Y-87060476D01*
X152849404Y-87108095D01*
X154373214Y-87822380D02*
X153801785Y-87822380D01*
X154087500Y-87822380D02*
X154087500Y-86822380D01*
X153992261Y-86965238D01*
X153897023Y-87060476D01*
X153801785Y-87108095D01*
X154944642Y-87250952D02*
X154849404Y-87203333D01*
X154801785Y-87155714D01*
X154754166Y-87060476D01*
X154754166Y-87012857D01*
X154801785Y-86917619D01*
X154849404Y-86870000D01*
X154944642Y-86822380D01*
X155135119Y-86822380D01*
X155230357Y-86870000D01*
X155277976Y-86917619D01*
X155325595Y-87012857D01*
X155325595Y-87060476D01*
X155277976Y-87155714D01*
X155230357Y-87203333D01*
X155135119Y-87250952D01*
X154944642Y-87250952D01*
X154849404Y-87298571D01*
X154801785Y-87346190D01*
X154754166Y-87441428D01*
X154754166Y-87631904D01*
X154801785Y-87727142D01*
X154849404Y-87774761D01*
X154944642Y-87822380D01*
X155135119Y-87822380D01*
X155230357Y-87774761D01*
X155277976Y-87727142D01*
X155325595Y-87631904D01*
X155325595Y-87441428D01*
X155277976Y-87346190D01*
X155230357Y-87298571D01*
X155135119Y-87250952D01*
%TO.C,C133*%
X169643452Y-83227142D02*
X169595833Y-83274761D01*
X169452976Y-83322380D01*
X169357738Y-83322380D01*
X169214880Y-83274761D01*
X169119642Y-83179523D01*
X169072023Y-83084285D01*
X169024404Y-82893809D01*
X169024404Y-82750952D01*
X169072023Y-82560476D01*
X169119642Y-82465238D01*
X169214880Y-82370000D01*
X169357738Y-82322380D01*
X169452976Y-82322380D01*
X169595833Y-82370000D01*
X169643452Y-82417619D01*
X170595833Y-83322380D02*
X170024404Y-83322380D01*
X170310119Y-83322380D02*
X170310119Y-82322380D01*
X170214880Y-82465238D01*
X170119642Y-82560476D01*
X170024404Y-82608095D01*
X170929166Y-82322380D02*
X171548214Y-82322380D01*
X171214880Y-82703333D01*
X171357738Y-82703333D01*
X171452976Y-82750952D01*
X171500595Y-82798571D01*
X171548214Y-82893809D01*
X171548214Y-83131904D01*
X171500595Y-83227142D01*
X171452976Y-83274761D01*
X171357738Y-83322380D01*
X171072023Y-83322380D01*
X170976785Y-83274761D01*
X170929166Y-83227142D01*
X171881547Y-82322380D02*
X172500595Y-82322380D01*
X172167261Y-82703333D01*
X172310119Y-82703333D01*
X172405357Y-82750952D01*
X172452976Y-82798571D01*
X172500595Y-82893809D01*
X172500595Y-83131904D01*
X172452976Y-83227142D01*
X172405357Y-83274761D01*
X172310119Y-83322380D01*
X172024404Y-83322380D01*
X171929166Y-83274761D01*
X171881547Y-83227142D01*
%TO.C,C132*%
X169643452Y-86227142D02*
X169595833Y-86274761D01*
X169452976Y-86322380D01*
X169357738Y-86322380D01*
X169214880Y-86274761D01*
X169119642Y-86179523D01*
X169072023Y-86084285D01*
X169024404Y-85893809D01*
X169024404Y-85750952D01*
X169072023Y-85560476D01*
X169119642Y-85465238D01*
X169214880Y-85370000D01*
X169357738Y-85322380D01*
X169452976Y-85322380D01*
X169595833Y-85370000D01*
X169643452Y-85417619D01*
X170595833Y-86322380D02*
X170024404Y-86322380D01*
X170310119Y-86322380D02*
X170310119Y-85322380D01*
X170214880Y-85465238D01*
X170119642Y-85560476D01*
X170024404Y-85608095D01*
X170929166Y-85322380D02*
X171548214Y-85322380D01*
X171214880Y-85703333D01*
X171357738Y-85703333D01*
X171452976Y-85750952D01*
X171500595Y-85798571D01*
X171548214Y-85893809D01*
X171548214Y-86131904D01*
X171500595Y-86227142D01*
X171452976Y-86274761D01*
X171357738Y-86322380D01*
X171072023Y-86322380D01*
X170976785Y-86274761D01*
X170929166Y-86227142D01*
X171929166Y-85417619D02*
X171976785Y-85370000D01*
X172072023Y-85322380D01*
X172310119Y-85322380D01*
X172405357Y-85370000D01*
X172452976Y-85417619D01*
X172500595Y-85512857D01*
X172500595Y-85608095D01*
X172452976Y-85750952D01*
X171881547Y-86322380D01*
X172500595Y-86322380D01*
%TO.C,C108*%
X154680952Y-95477142D02*
X154633333Y-95524761D01*
X154490476Y-95572380D01*
X154395238Y-95572380D01*
X154252380Y-95524761D01*
X154157142Y-95429523D01*
X154109523Y-95334285D01*
X154061904Y-95143809D01*
X154061904Y-95000952D01*
X154109523Y-94810476D01*
X154157142Y-94715238D01*
X154252380Y-94620000D01*
X154395238Y-94572380D01*
X154490476Y-94572380D01*
X154633333Y-94620000D01*
X154680952Y-94667619D01*
X155633333Y-95572380D02*
X155061904Y-95572380D01*
X155347619Y-95572380D02*
X155347619Y-94572380D01*
X155252380Y-94715238D01*
X155157142Y-94810476D01*
X155061904Y-94858095D01*
X156252380Y-94572380D02*
X156347619Y-94572380D01*
X156442857Y-94620000D01*
X156490476Y-94667619D01*
X156538095Y-94762857D01*
X156585714Y-94953333D01*
X156585714Y-95191428D01*
X156538095Y-95381904D01*
X156490476Y-95477142D01*
X156442857Y-95524761D01*
X156347619Y-95572380D01*
X156252380Y-95572380D01*
X156157142Y-95524761D01*
X156109523Y-95477142D01*
X156061904Y-95381904D01*
X156014285Y-95191428D01*
X156014285Y-94953333D01*
X156061904Y-94762857D01*
X156109523Y-94667619D01*
X156157142Y-94620000D01*
X156252380Y-94572380D01*
X157157142Y-95000952D02*
X157061904Y-94953333D01*
X157014285Y-94905714D01*
X156966666Y-94810476D01*
X156966666Y-94762857D01*
X157014285Y-94667619D01*
X157061904Y-94620000D01*
X157157142Y-94572380D01*
X157347619Y-94572380D01*
X157442857Y-94620000D01*
X157490476Y-94667619D01*
X157538095Y-94762857D01*
X157538095Y-94810476D01*
X157490476Y-94905714D01*
X157442857Y-94953333D01*
X157347619Y-95000952D01*
X157157142Y-95000952D01*
X157061904Y-95048571D01*
X157014285Y-95096190D01*
X156966666Y-95191428D01*
X156966666Y-95381904D01*
X157014285Y-95477142D01*
X157061904Y-95524761D01*
X157157142Y-95572380D01*
X157347619Y-95572380D01*
X157442857Y-95524761D01*
X157490476Y-95477142D01*
X157538095Y-95381904D01*
X157538095Y-95191428D01*
X157490476Y-95096190D01*
X157442857Y-95048571D01*
X157347619Y-95000952D01*
%TO.C,C107*%
X154718452Y-96857142D02*
X154670833Y-96904761D01*
X154527976Y-96952380D01*
X154432738Y-96952380D01*
X154289880Y-96904761D01*
X154194642Y-96809523D01*
X154147023Y-96714285D01*
X154099404Y-96523809D01*
X154099404Y-96380952D01*
X154147023Y-96190476D01*
X154194642Y-96095238D01*
X154289880Y-96000000D01*
X154432738Y-95952380D01*
X154527976Y-95952380D01*
X154670833Y-96000000D01*
X154718452Y-96047619D01*
X155670833Y-96952380D02*
X155099404Y-96952380D01*
X155385119Y-96952380D02*
X155385119Y-95952380D01*
X155289880Y-96095238D01*
X155194642Y-96190476D01*
X155099404Y-96238095D01*
X156289880Y-95952380D02*
X156385119Y-95952380D01*
X156480357Y-96000000D01*
X156527976Y-96047619D01*
X156575595Y-96142857D01*
X156623214Y-96333333D01*
X156623214Y-96571428D01*
X156575595Y-96761904D01*
X156527976Y-96857142D01*
X156480357Y-96904761D01*
X156385119Y-96952380D01*
X156289880Y-96952380D01*
X156194642Y-96904761D01*
X156147023Y-96857142D01*
X156099404Y-96761904D01*
X156051785Y-96571428D01*
X156051785Y-96333333D01*
X156099404Y-96142857D01*
X156147023Y-96047619D01*
X156194642Y-96000000D01*
X156289880Y-95952380D01*
X156956547Y-95952380D02*
X157623214Y-95952380D01*
X157194642Y-96952380D01*
%TO.C,Csn103*%
X211557142Y-92576190D02*
X211604761Y-92623809D01*
X211652380Y-92766666D01*
X211652380Y-92861904D01*
X211604761Y-93004761D01*
X211509523Y-93100000D01*
X211414285Y-93147619D01*
X211223809Y-93195238D01*
X211080952Y-93195238D01*
X210890476Y-93147619D01*
X210795238Y-93100000D01*
X210700000Y-93004761D01*
X210652380Y-92861904D01*
X210652380Y-92766666D01*
X210700000Y-92623809D01*
X210747619Y-92576190D01*
X211604761Y-92195238D02*
X211652380Y-92100000D01*
X211652380Y-91909523D01*
X211604761Y-91814285D01*
X211509523Y-91766666D01*
X211461904Y-91766666D01*
X211366666Y-91814285D01*
X211319047Y-91909523D01*
X211319047Y-92052380D01*
X211271428Y-92147619D01*
X211176190Y-92195238D01*
X211128571Y-92195238D01*
X211033333Y-92147619D01*
X210985714Y-92052380D01*
X210985714Y-91909523D01*
X211033333Y-91814285D01*
X210985714Y-91338095D02*
X211652380Y-91338095D01*
X211080952Y-91338095D02*
X211033333Y-91290476D01*
X210985714Y-91195238D01*
X210985714Y-91052380D01*
X211033333Y-90957142D01*
X211128571Y-90909523D01*
X211652380Y-90909523D01*
X211652380Y-89909523D02*
X211652380Y-90480952D01*
X211652380Y-90195238D02*
X210652380Y-90195238D01*
X210795238Y-90290476D01*
X210890476Y-90385714D01*
X210938095Y-90480952D01*
X210652380Y-89290476D02*
X210652380Y-89195238D01*
X210700000Y-89100000D01*
X210747619Y-89052380D01*
X210842857Y-89004761D01*
X211033333Y-88957142D01*
X211271428Y-88957142D01*
X211461904Y-89004761D01*
X211557142Y-89052380D01*
X211604761Y-89100000D01*
X211652380Y-89195238D01*
X211652380Y-89290476D01*
X211604761Y-89385714D01*
X211557142Y-89433333D01*
X211461904Y-89480952D01*
X211271428Y-89528571D01*
X211033333Y-89528571D01*
X210842857Y-89480952D01*
X210747619Y-89433333D01*
X210700000Y-89385714D01*
X210652380Y-89290476D01*
X210652380Y-88623809D02*
X210652380Y-88004761D01*
X211033333Y-88338095D01*
X211033333Y-88195238D01*
X211080952Y-88100000D01*
X211128571Y-88052380D01*
X211223809Y-88004761D01*
X211461904Y-88004761D01*
X211557142Y-88052380D01*
X211604761Y-88100000D01*
X211652380Y-88195238D01*
X211652380Y-88480952D01*
X211604761Y-88576190D01*
X211557142Y-88623809D01*
%TO.C,J105*%
X154292380Y-86335714D02*
X155006666Y-86335714D01*
X155149523Y-86383333D01*
X155244761Y-86478571D01*
X155292380Y-86621428D01*
X155292380Y-86716666D01*
X155292380Y-85335714D02*
X155292380Y-85907142D01*
X155292380Y-85621428D02*
X154292380Y-85621428D01*
X154435238Y-85716666D01*
X154530476Y-85811904D01*
X154578095Y-85907142D01*
X154292380Y-84716666D02*
X154292380Y-84621428D01*
X154340000Y-84526190D01*
X154387619Y-84478571D01*
X154482857Y-84430952D01*
X154673333Y-84383333D01*
X154911428Y-84383333D01*
X155101904Y-84430952D01*
X155197142Y-84478571D01*
X155244761Y-84526190D01*
X155292380Y-84621428D01*
X155292380Y-84716666D01*
X155244761Y-84811904D01*
X155197142Y-84859523D01*
X155101904Y-84907142D01*
X154911428Y-84954761D01*
X154673333Y-84954761D01*
X154482857Y-84907142D01*
X154387619Y-84859523D01*
X154340000Y-84811904D01*
X154292380Y-84716666D01*
X154292380Y-83478571D02*
X154292380Y-83954761D01*
X154768571Y-84002380D01*
X154720952Y-83954761D01*
X154673333Y-83859523D01*
X154673333Y-83621428D01*
X154720952Y-83526190D01*
X154768571Y-83478571D01*
X154863809Y-83430952D01*
X155101904Y-83430952D01*
X155197142Y-83478571D01*
X155244761Y-83526190D01*
X155292380Y-83621428D01*
X155292380Y-83859523D01*
X155244761Y-83954761D01*
X155197142Y-84002380D01*
%TO.C,C109*%
X155457142Y-109119047D02*
X155504761Y-109166666D01*
X155552380Y-109309523D01*
X155552380Y-109404761D01*
X155504761Y-109547619D01*
X155409523Y-109642857D01*
X155314285Y-109690476D01*
X155123809Y-109738095D01*
X154980952Y-109738095D01*
X154790476Y-109690476D01*
X154695238Y-109642857D01*
X154600000Y-109547619D01*
X154552380Y-109404761D01*
X154552380Y-109309523D01*
X154600000Y-109166666D01*
X154647619Y-109119047D01*
X155552380Y-108166666D02*
X155552380Y-108738095D01*
X155552380Y-108452380D02*
X154552380Y-108452380D01*
X154695238Y-108547619D01*
X154790476Y-108642857D01*
X154838095Y-108738095D01*
X154552380Y-107547619D02*
X154552380Y-107452380D01*
X154600000Y-107357142D01*
X154647619Y-107309523D01*
X154742857Y-107261904D01*
X154933333Y-107214285D01*
X155171428Y-107214285D01*
X155361904Y-107261904D01*
X155457142Y-107309523D01*
X155504761Y-107357142D01*
X155552380Y-107452380D01*
X155552380Y-107547619D01*
X155504761Y-107642857D01*
X155457142Y-107690476D01*
X155361904Y-107738095D01*
X155171428Y-107785714D01*
X154933333Y-107785714D01*
X154742857Y-107738095D01*
X154647619Y-107690476D01*
X154600000Y-107642857D01*
X154552380Y-107547619D01*
X155552380Y-106738095D02*
X155552380Y-106547619D01*
X155504761Y-106452380D01*
X155457142Y-106404761D01*
X155314285Y-106309523D01*
X155123809Y-106261904D01*
X154742857Y-106261904D01*
X154647619Y-106309523D01*
X154600000Y-106357142D01*
X154552380Y-106452380D01*
X154552380Y-106642857D01*
X154600000Y-106738095D01*
X154647619Y-106785714D01*
X154742857Y-106833333D01*
X154980952Y-106833333D01*
X155076190Y-106785714D01*
X155123809Y-106738095D01*
X155171428Y-106642857D01*
X155171428Y-106452380D01*
X155123809Y-106357142D01*
X155076190Y-106309523D01*
X154980952Y-106261904D01*
%TO.C,Rsn103*%
X211632380Y-87576190D02*
X211156190Y-87909523D01*
X211632380Y-88147619D02*
X210632380Y-88147619D01*
X210632380Y-87766666D01*
X210680000Y-87671428D01*
X210727619Y-87623809D01*
X210822857Y-87576190D01*
X210965714Y-87576190D01*
X211060952Y-87623809D01*
X211108571Y-87671428D01*
X211156190Y-87766666D01*
X211156190Y-88147619D01*
X211584761Y-87195238D02*
X211632380Y-87100000D01*
X211632380Y-86909523D01*
X211584761Y-86814285D01*
X211489523Y-86766666D01*
X211441904Y-86766666D01*
X211346666Y-86814285D01*
X211299047Y-86909523D01*
X211299047Y-87052380D01*
X211251428Y-87147619D01*
X211156190Y-87195238D01*
X211108571Y-87195238D01*
X211013333Y-87147619D01*
X210965714Y-87052380D01*
X210965714Y-86909523D01*
X211013333Y-86814285D01*
X210965714Y-86338095D02*
X211632380Y-86338095D01*
X211060952Y-86338095D02*
X211013333Y-86290476D01*
X210965714Y-86195238D01*
X210965714Y-86052380D01*
X211013333Y-85957142D01*
X211108571Y-85909523D01*
X211632380Y-85909523D01*
X211632380Y-84909523D02*
X211632380Y-85480952D01*
X211632380Y-85195238D02*
X210632380Y-85195238D01*
X210775238Y-85290476D01*
X210870476Y-85385714D01*
X210918095Y-85480952D01*
X210632380Y-84290476D02*
X210632380Y-84195238D01*
X210680000Y-84100000D01*
X210727619Y-84052380D01*
X210822857Y-84004761D01*
X211013333Y-83957142D01*
X211251428Y-83957142D01*
X211441904Y-84004761D01*
X211537142Y-84052380D01*
X211584761Y-84100000D01*
X211632380Y-84195238D01*
X211632380Y-84290476D01*
X211584761Y-84385714D01*
X211537142Y-84433333D01*
X211441904Y-84480952D01*
X211251428Y-84528571D01*
X211013333Y-84528571D01*
X210822857Y-84480952D01*
X210727619Y-84433333D01*
X210680000Y-84385714D01*
X210632380Y-84290476D01*
X210632380Y-83623809D02*
X210632380Y-83004761D01*
X211013333Y-83338095D01*
X211013333Y-83195238D01*
X211060952Y-83100000D01*
X211108571Y-83052380D01*
X211203809Y-83004761D01*
X211441904Y-83004761D01*
X211537142Y-83052380D01*
X211584761Y-83100000D01*
X211632380Y-83195238D01*
X211632380Y-83480952D01*
X211584761Y-83576190D01*
X211537142Y-83623809D01*
%TD*%
M02*
