%TF.GenerationSoftware,KiCad,Pcbnew,5.1.9*%
%TF.CreationDate,2021-04-12T00:54:04-03:00*%
%TF.ProjectId,Switches,53776974-6368-4657-932e-6b696361645f,rev?*%
%TF.SameCoordinates,Original*%
%TF.FileFunction,Legend,Bot*%
%TF.FilePolarity,Positive*%
%FSLAX46Y46*%
G04 Gerber Fmt 4.6, Leading zero omitted, Abs format (unit mm)*
G04 Created by KiCad (PCBNEW 5.1.9) date 2021-04-12 00:54:04*
%MOMM*%
%LPD*%
G01*
G04 APERTURE LIST*
%ADD10C,0.120000*%
%ADD11C,0.150000*%
G04 APERTURE END LIST*
D10*
%TO.C,D117*%
X200500000Y-121000000D02*
X204350000Y-121000000D01*
X200500000Y-119000000D02*
X204350000Y-119000000D01*
X200500000Y-121000000D02*
X200500000Y-119000000D01*
%TO.C,D116*%
X188825000Y-121000000D02*
X192675000Y-121000000D01*
X188825000Y-119000000D02*
X192675000Y-119000000D01*
X188825000Y-121000000D02*
X188825000Y-119000000D01*
%TO.C,D115*%
X177150000Y-121000000D02*
X181000000Y-121000000D01*
X177150000Y-119000000D02*
X181000000Y-119000000D01*
X177150000Y-121000000D02*
X177150000Y-119000000D01*
%TO.C,D113*%
X200500000Y-93800000D02*
X204350000Y-93800000D01*
X200500000Y-91800000D02*
X204350000Y-91800000D01*
X200500000Y-93800000D02*
X200500000Y-91800000D01*
%TO.C,D112*%
X188825000Y-93800000D02*
X192675000Y-93800000D01*
X188825000Y-91800000D02*
X192675000Y-91800000D01*
X188825000Y-93800000D02*
X188825000Y-91800000D01*
%TO.C,D109*%
X177150000Y-93800000D02*
X181000000Y-93800000D01*
X177150000Y-91800000D02*
X181000000Y-91800000D01*
X177150000Y-93800000D02*
X177150000Y-91800000D01*
%TO.C,D108*%
X144750000Y-121000000D02*
X148600000Y-121000000D01*
X144750000Y-119000000D02*
X148600000Y-119000000D01*
X144750000Y-121000000D02*
X144750000Y-119000000D01*
%TO.C,D107*%
X133075000Y-121000000D02*
X136925000Y-121000000D01*
X133075000Y-119000000D02*
X136925000Y-119000000D01*
X133075000Y-121000000D02*
X133075000Y-119000000D01*
%TO.C,D106*%
X121400000Y-121000000D02*
X125250000Y-121000000D01*
X121400000Y-119000000D02*
X125250000Y-119000000D01*
X121400000Y-121000000D02*
X121400000Y-119000000D01*
%TO.C,D105*%
X144750000Y-93800000D02*
X148600000Y-93800000D01*
X144750000Y-91800000D02*
X148600000Y-91800000D01*
X144750000Y-93800000D02*
X144750000Y-91800000D01*
%TO.C,D104*%
X133075000Y-93800000D02*
X136925000Y-93800000D01*
X133075000Y-91800000D02*
X136925000Y-91800000D01*
X133075000Y-93800000D02*
X133075000Y-91800000D01*
%TO.C,D101*%
X121400000Y-93800000D02*
X125250000Y-93800000D01*
X121400000Y-91800000D02*
X125250000Y-91800000D01*
X121400000Y-93800000D02*
X121400000Y-91800000D01*
%TO.C,R135*%
X205377500Y-119454724D02*
X205377500Y-118945276D01*
X206422500Y-119454724D02*
X206422500Y-118945276D01*
%TO.C,R134*%
X193702500Y-119454724D02*
X193702500Y-118945276D01*
X194747500Y-119454724D02*
X194747500Y-118945276D01*
%TO.C,R133*%
X182027500Y-119454724D02*
X182027500Y-118945276D01*
X183072500Y-119454724D02*
X183072500Y-118945276D01*
%TO.C,R132*%
X205377500Y-92254724D02*
X205377500Y-91745276D01*
X206422500Y-92254724D02*
X206422500Y-91745276D01*
%TO.C,R131*%
X193702500Y-92254724D02*
X193702500Y-91745276D01*
X194747500Y-92254724D02*
X194747500Y-91745276D01*
%TO.C,R130*%
X182027500Y-92254724D02*
X182027500Y-91745276D01*
X183072500Y-92254724D02*
X183072500Y-91745276D01*
%TO.C,R129*%
X149627500Y-119454724D02*
X149627500Y-118945276D01*
X150672500Y-119454724D02*
X150672500Y-118945276D01*
%TO.C,R128*%
X137952500Y-119454724D02*
X137952500Y-118945276D01*
X138997500Y-119454724D02*
X138997500Y-118945276D01*
%TO.C,R127*%
X126277500Y-119454724D02*
X126277500Y-118945276D01*
X127322500Y-119454724D02*
X127322500Y-118945276D01*
%TO.C,R126*%
X149627500Y-92254724D02*
X149627500Y-91745276D01*
X150672500Y-92254724D02*
X150672500Y-91745276D01*
%TO.C,R125*%
X137952500Y-92254724D02*
X137952500Y-91745276D01*
X138997500Y-92254724D02*
X138997500Y-91745276D01*
%TO.C,R124*%
X126277500Y-92254724D02*
X126277500Y-91745276D01*
X127322500Y-92254724D02*
X127322500Y-91745276D01*
%TO.C,R114*%
X174772936Y-119165000D02*
X175227064Y-119165000D01*
X174772936Y-120635000D02*
X175227064Y-120635000D01*
%TO.C,R113*%
X198122936Y-91965000D02*
X198577064Y-91965000D01*
X198122936Y-93435000D02*
X198577064Y-93435000D01*
%TO.C,R115*%
X186422936Y-119165000D02*
X186877064Y-119165000D01*
X186422936Y-120635000D02*
X186877064Y-120635000D01*
%TO.C,R116*%
X198122936Y-119165000D02*
X198577064Y-119165000D01*
X198122936Y-120635000D02*
X198577064Y-120635000D01*
%TO.C,R103*%
X119022936Y-91965000D02*
X119477064Y-91965000D01*
X119022936Y-93435000D02*
X119477064Y-93435000D01*
%TO.C,R107*%
X130697936Y-119165000D02*
X131152064Y-119165000D01*
X130697936Y-120635000D02*
X131152064Y-120635000D01*
%TO.C,R104*%
X130697936Y-91965000D02*
X131152064Y-91965000D01*
X130697936Y-93435000D02*
X131152064Y-93435000D01*
%TO.C,R105*%
X142372936Y-91965000D02*
X142827064Y-91965000D01*
X142372936Y-93435000D02*
X142827064Y-93435000D01*
%TO.C,R112*%
X186447936Y-91965000D02*
X186902064Y-91965000D01*
X186447936Y-93435000D02*
X186902064Y-93435000D01*
%TO.C,R108*%
X142372936Y-119165000D02*
X142827064Y-119165000D01*
X142372936Y-120635000D02*
X142827064Y-120635000D01*
%TO.C,R106*%
X119022936Y-119165000D02*
X119477064Y-119165000D01*
X119022936Y-120635000D02*
X119477064Y-120635000D01*
%TO.C,R111*%
X174772936Y-91965000D02*
X175227064Y-91965000D01*
X174772936Y-93435000D02*
X175227064Y-93435000D01*
%TO.C,D117*%
D11*
X204263476Y-122357380D02*
X204263476Y-121357380D01*
X204025380Y-121357380D01*
X203882523Y-121405000D01*
X203787285Y-121500238D01*
X203739666Y-121595476D01*
X203692047Y-121785952D01*
X203692047Y-121928809D01*
X203739666Y-122119285D01*
X203787285Y-122214523D01*
X203882523Y-122309761D01*
X204025380Y-122357380D01*
X204263476Y-122357380D01*
X202739666Y-122357380D02*
X203311095Y-122357380D01*
X203025380Y-122357380D02*
X203025380Y-121357380D01*
X203120619Y-121500238D01*
X203215857Y-121595476D01*
X203311095Y-121643095D01*
X201787285Y-122357380D02*
X202358714Y-122357380D01*
X202073000Y-122357380D02*
X202073000Y-121357380D01*
X202168238Y-121500238D01*
X202263476Y-121595476D01*
X202358714Y-121643095D01*
X201453952Y-121357380D02*
X200787285Y-121357380D01*
X201215857Y-122357380D01*
%TO.C,D116*%
X192588476Y-122357380D02*
X192588476Y-121357380D01*
X192350380Y-121357380D01*
X192207523Y-121405000D01*
X192112285Y-121500238D01*
X192064666Y-121595476D01*
X192017047Y-121785952D01*
X192017047Y-121928809D01*
X192064666Y-122119285D01*
X192112285Y-122214523D01*
X192207523Y-122309761D01*
X192350380Y-122357380D01*
X192588476Y-122357380D01*
X191064666Y-122357380D02*
X191636095Y-122357380D01*
X191350380Y-122357380D02*
X191350380Y-121357380D01*
X191445619Y-121500238D01*
X191540857Y-121595476D01*
X191636095Y-121643095D01*
X190112285Y-122357380D02*
X190683714Y-122357380D01*
X190398000Y-122357380D02*
X190398000Y-121357380D01*
X190493238Y-121500238D01*
X190588476Y-121595476D01*
X190683714Y-121643095D01*
X189255142Y-121357380D02*
X189445619Y-121357380D01*
X189540857Y-121405000D01*
X189588476Y-121452619D01*
X189683714Y-121595476D01*
X189731333Y-121785952D01*
X189731333Y-122166904D01*
X189683714Y-122262142D01*
X189636095Y-122309761D01*
X189540857Y-122357380D01*
X189350380Y-122357380D01*
X189255142Y-122309761D01*
X189207523Y-122262142D01*
X189159904Y-122166904D01*
X189159904Y-121928809D01*
X189207523Y-121833571D01*
X189255142Y-121785952D01*
X189350380Y-121738333D01*
X189540857Y-121738333D01*
X189636095Y-121785952D01*
X189683714Y-121833571D01*
X189731333Y-121928809D01*
%TO.C,D115*%
X180913476Y-122357380D02*
X180913476Y-121357380D01*
X180675380Y-121357380D01*
X180532523Y-121405000D01*
X180437285Y-121500238D01*
X180389666Y-121595476D01*
X180342047Y-121785952D01*
X180342047Y-121928809D01*
X180389666Y-122119285D01*
X180437285Y-122214523D01*
X180532523Y-122309761D01*
X180675380Y-122357380D01*
X180913476Y-122357380D01*
X179389666Y-122357380D02*
X179961095Y-122357380D01*
X179675380Y-122357380D02*
X179675380Y-121357380D01*
X179770619Y-121500238D01*
X179865857Y-121595476D01*
X179961095Y-121643095D01*
X178437285Y-122357380D02*
X179008714Y-122357380D01*
X178723000Y-122357380D02*
X178723000Y-121357380D01*
X178818238Y-121500238D01*
X178913476Y-121595476D01*
X179008714Y-121643095D01*
X177532523Y-121357380D02*
X178008714Y-121357380D01*
X178056333Y-121833571D01*
X178008714Y-121785952D01*
X177913476Y-121738333D01*
X177675380Y-121738333D01*
X177580142Y-121785952D01*
X177532523Y-121833571D01*
X177484904Y-121928809D01*
X177484904Y-122166904D01*
X177532523Y-122262142D01*
X177580142Y-122309761D01*
X177675380Y-122357380D01*
X177913476Y-122357380D01*
X178008714Y-122309761D01*
X178056333Y-122262142D01*
%TO.C,D113*%
X204263476Y-95157380D02*
X204263476Y-94157380D01*
X204025380Y-94157380D01*
X203882523Y-94205000D01*
X203787285Y-94300238D01*
X203739666Y-94395476D01*
X203692047Y-94585952D01*
X203692047Y-94728809D01*
X203739666Y-94919285D01*
X203787285Y-95014523D01*
X203882523Y-95109761D01*
X204025380Y-95157380D01*
X204263476Y-95157380D01*
X202739666Y-95157380D02*
X203311095Y-95157380D01*
X203025380Y-95157380D02*
X203025380Y-94157380D01*
X203120619Y-94300238D01*
X203215857Y-94395476D01*
X203311095Y-94443095D01*
X201787285Y-95157380D02*
X202358714Y-95157380D01*
X202073000Y-95157380D02*
X202073000Y-94157380D01*
X202168238Y-94300238D01*
X202263476Y-94395476D01*
X202358714Y-94443095D01*
X201453952Y-94157380D02*
X200834904Y-94157380D01*
X201168238Y-94538333D01*
X201025380Y-94538333D01*
X200930142Y-94585952D01*
X200882523Y-94633571D01*
X200834904Y-94728809D01*
X200834904Y-94966904D01*
X200882523Y-95062142D01*
X200930142Y-95109761D01*
X201025380Y-95157380D01*
X201311095Y-95157380D01*
X201406333Y-95109761D01*
X201453952Y-95062142D01*
%TO.C,D112*%
X192588476Y-95157380D02*
X192588476Y-94157380D01*
X192350380Y-94157380D01*
X192207523Y-94205000D01*
X192112285Y-94300238D01*
X192064666Y-94395476D01*
X192017047Y-94585952D01*
X192017047Y-94728809D01*
X192064666Y-94919285D01*
X192112285Y-95014523D01*
X192207523Y-95109761D01*
X192350380Y-95157380D01*
X192588476Y-95157380D01*
X191064666Y-95157380D02*
X191636095Y-95157380D01*
X191350380Y-95157380D02*
X191350380Y-94157380D01*
X191445619Y-94300238D01*
X191540857Y-94395476D01*
X191636095Y-94443095D01*
X190112285Y-95157380D02*
X190683714Y-95157380D01*
X190398000Y-95157380D02*
X190398000Y-94157380D01*
X190493238Y-94300238D01*
X190588476Y-94395476D01*
X190683714Y-94443095D01*
X189731333Y-94252619D02*
X189683714Y-94205000D01*
X189588476Y-94157380D01*
X189350380Y-94157380D01*
X189255142Y-94205000D01*
X189207523Y-94252619D01*
X189159904Y-94347857D01*
X189159904Y-94443095D01*
X189207523Y-94585952D01*
X189778952Y-95157380D01*
X189159904Y-95157380D01*
%TO.C,D109*%
X180913476Y-95157380D02*
X180913476Y-94157380D01*
X180675380Y-94157380D01*
X180532523Y-94205000D01*
X180437285Y-94300238D01*
X180389666Y-94395476D01*
X180342047Y-94585952D01*
X180342047Y-94728809D01*
X180389666Y-94919285D01*
X180437285Y-95014523D01*
X180532523Y-95109761D01*
X180675380Y-95157380D01*
X180913476Y-95157380D01*
X179389666Y-95157380D02*
X179961095Y-95157380D01*
X179675380Y-95157380D02*
X179675380Y-94157380D01*
X179770619Y-94300238D01*
X179865857Y-94395476D01*
X179961095Y-94443095D01*
X178770619Y-94157380D02*
X178675380Y-94157380D01*
X178580142Y-94205000D01*
X178532523Y-94252619D01*
X178484904Y-94347857D01*
X178437285Y-94538333D01*
X178437285Y-94776428D01*
X178484904Y-94966904D01*
X178532523Y-95062142D01*
X178580142Y-95109761D01*
X178675380Y-95157380D01*
X178770619Y-95157380D01*
X178865857Y-95109761D01*
X178913476Y-95062142D01*
X178961095Y-94966904D01*
X179008714Y-94776428D01*
X179008714Y-94538333D01*
X178961095Y-94347857D01*
X178913476Y-94252619D01*
X178865857Y-94205000D01*
X178770619Y-94157380D01*
X177961095Y-95157380D02*
X177770619Y-95157380D01*
X177675380Y-95109761D01*
X177627761Y-95062142D01*
X177532523Y-94919285D01*
X177484904Y-94728809D01*
X177484904Y-94347857D01*
X177532523Y-94252619D01*
X177580142Y-94205000D01*
X177675380Y-94157380D01*
X177865857Y-94157380D01*
X177961095Y-94205000D01*
X178008714Y-94252619D01*
X178056333Y-94347857D01*
X178056333Y-94585952D01*
X178008714Y-94681190D01*
X177961095Y-94728809D01*
X177865857Y-94776428D01*
X177675380Y-94776428D01*
X177580142Y-94728809D01*
X177532523Y-94681190D01*
X177484904Y-94585952D01*
%TO.C,D108*%
X148513476Y-122357380D02*
X148513476Y-121357380D01*
X148275380Y-121357380D01*
X148132523Y-121405000D01*
X148037285Y-121500238D01*
X147989666Y-121595476D01*
X147942047Y-121785952D01*
X147942047Y-121928809D01*
X147989666Y-122119285D01*
X148037285Y-122214523D01*
X148132523Y-122309761D01*
X148275380Y-122357380D01*
X148513476Y-122357380D01*
X146989666Y-122357380D02*
X147561095Y-122357380D01*
X147275380Y-122357380D02*
X147275380Y-121357380D01*
X147370619Y-121500238D01*
X147465857Y-121595476D01*
X147561095Y-121643095D01*
X146370619Y-121357380D02*
X146275380Y-121357380D01*
X146180142Y-121405000D01*
X146132523Y-121452619D01*
X146084904Y-121547857D01*
X146037285Y-121738333D01*
X146037285Y-121976428D01*
X146084904Y-122166904D01*
X146132523Y-122262142D01*
X146180142Y-122309761D01*
X146275380Y-122357380D01*
X146370619Y-122357380D01*
X146465857Y-122309761D01*
X146513476Y-122262142D01*
X146561095Y-122166904D01*
X146608714Y-121976428D01*
X146608714Y-121738333D01*
X146561095Y-121547857D01*
X146513476Y-121452619D01*
X146465857Y-121405000D01*
X146370619Y-121357380D01*
X145465857Y-121785952D02*
X145561095Y-121738333D01*
X145608714Y-121690714D01*
X145656333Y-121595476D01*
X145656333Y-121547857D01*
X145608714Y-121452619D01*
X145561095Y-121405000D01*
X145465857Y-121357380D01*
X145275380Y-121357380D01*
X145180142Y-121405000D01*
X145132523Y-121452619D01*
X145084904Y-121547857D01*
X145084904Y-121595476D01*
X145132523Y-121690714D01*
X145180142Y-121738333D01*
X145275380Y-121785952D01*
X145465857Y-121785952D01*
X145561095Y-121833571D01*
X145608714Y-121881190D01*
X145656333Y-121976428D01*
X145656333Y-122166904D01*
X145608714Y-122262142D01*
X145561095Y-122309761D01*
X145465857Y-122357380D01*
X145275380Y-122357380D01*
X145180142Y-122309761D01*
X145132523Y-122262142D01*
X145084904Y-122166904D01*
X145084904Y-121976428D01*
X145132523Y-121881190D01*
X145180142Y-121833571D01*
X145275380Y-121785952D01*
%TO.C,D107*%
X136838476Y-122357380D02*
X136838476Y-121357380D01*
X136600380Y-121357380D01*
X136457523Y-121405000D01*
X136362285Y-121500238D01*
X136314666Y-121595476D01*
X136267047Y-121785952D01*
X136267047Y-121928809D01*
X136314666Y-122119285D01*
X136362285Y-122214523D01*
X136457523Y-122309761D01*
X136600380Y-122357380D01*
X136838476Y-122357380D01*
X135314666Y-122357380D02*
X135886095Y-122357380D01*
X135600380Y-122357380D02*
X135600380Y-121357380D01*
X135695619Y-121500238D01*
X135790857Y-121595476D01*
X135886095Y-121643095D01*
X134695619Y-121357380D02*
X134600380Y-121357380D01*
X134505142Y-121405000D01*
X134457523Y-121452619D01*
X134409904Y-121547857D01*
X134362285Y-121738333D01*
X134362285Y-121976428D01*
X134409904Y-122166904D01*
X134457523Y-122262142D01*
X134505142Y-122309761D01*
X134600380Y-122357380D01*
X134695619Y-122357380D01*
X134790857Y-122309761D01*
X134838476Y-122262142D01*
X134886095Y-122166904D01*
X134933714Y-121976428D01*
X134933714Y-121738333D01*
X134886095Y-121547857D01*
X134838476Y-121452619D01*
X134790857Y-121405000D01*
X134695619Y-121357380D01*
X134028952Y-121357380D02*
X133362285Y-121357380D01*
X133790857Y-122357380D01*
%TO.C,D106*%
X125163476Y-122357380D02*
X125163476Y-121357380D01*
X124925380Y-121357380D01*
X124782523Y-121405000D01*
X124687285Y-121500238D01*
X124639666Y-121595476D01*
X124592047Y-121785952D01*
X124592047Y-121928809D01*
X124639666Y-122119285D01*
X124687285Y-122214523D01*
X124782523Y-122309761D01*
X124925380Y-122357380D01*
X125163476Y-122357380D01*
X123639666Y-122357380D02*
X124211095Y-122357380D01*
X123925380Y-122357380D02*
X123925380Y-121357380D01*
X124020619Y-121500238D01*
X124115857Y-121595476D01*
X124211095Y-121643095D01*
X123020619Y-121357380D02*
X122925380Y-121357380D01*
X122830142Y-121405000D01*
X122782523Y-121452619D01*
X122734904Y-121547857D01*
X122687285Y-121738333D01*
X122687285Y-121976428D01*
X122734904Y-122166904D01*
X122782523Y-122262142D01*
X122830142Y-122309761D01*
X122925380Y-122357380D01*
X123020619Y-122357380D01*
X123115857Y-122309761D01*
X123163476Y-122262142D01*
X123211095Y-122166904D01*
X123258714Y-121976428D01*
X123258714Y-121738333D01*
X123211095Y-121547857D01*
X123163476Y-121452619D01*
X123115857Y-121405000D01*
X123020619Y-121357380D01*
X121830142Y-121357380D02*
X122020619Y-121357380D01*
X122115857Y-121405000D01*
X122163476Y-121452619D01*
X122258714Y-121595476D01*
X122306333Y-121785952D01*
X122306333Y-122166904D01*
X122258714Y-122262142D01*
X122211095Y-122309761D01*
X122115857Y-122357380D01*
X121925380Y-122357380D01*
X121830142Y-122309761D01*
X121782523Y-122262142D01*
X121734904Y-122166904D01*
X121734904Y-121928809D01*
X121782523Y-121833571D01*
X121830142Y-121785952D01*
X121925380Y-121738333D01*
X122115857Y-121738333D01*
X122211095Y-121785952D01*
X122258714Y-121833571D01*
X122306333Y-121928809D01*
%TO.C,D105*%
X148513476Y-95157380D02*
X148513476Y-94157380D01*
X148275380Y-94157380D01*
X148132523Y-94205000D01*
X148037285Y-94300238D01*
X147989666Y-94395476D01*
X147942047Y-94585952D01*
X147942047Y-94728809D01*
X147989666Y-94919285D01*
X148037285Y-95014523D01*
X148132523Y-95109761D01*
X148275380Y-95157380D01*
X148513476Y-95157380D01*
X146989666Y-95157380D02*
X147561095Y-95157380D01*
X147275380Y-95157380D02*
X147275380Y-94157380D01*
X147370619Y-94300238D01*
X147465857Y-94395476D01*
X147561095Y-94443095D01*
X146370619Y-94157380D02*
X146275380Y-94157380D01*
X146180142Y-94205000D01*
X146132523Y-94252619D01*
X146084904Y-94347857D01*
X146037285Y-94538333D01*
X146037285Y-94776428D01*
X146084904Y-94966904D01*
X146132523Y-95062142D01*
X146180142Y-95109761D01*
X146275380Y-95157380D01*
X146370619Y-95157380D01*
X146465857Y-95109761D01*
X146513476Y-95062142D01*
X146561095Y-94966904D01*
X146608714Y-94776428D01*
X146608714Y-94538333D01*
X146561095Y-94347857D01*
X146513476Y-94252619D01*
X146465857Y-94205000D01*
X146370619Y-94157380D01*
X145132523Y-94157380D02*
X145608714Y-94157380D01*
X145656333Y-94633571D01*
X145608714Y-94585952D01*
X145513476Y-94538333D01*
X145275380Y-94538333D01*
X145180142Y-94585952D01*
X145132523Y-94633571D01*
X145084904Y-94728809D01*
X145084904Y-94966904D01*
X145132523Y-95062142D01*
X145180142Y-95109761D01*
X145275380Y-95157380D01*
X145513476Y-95157380D01*
X145608714Y-95109761D01*
X145656333Y-95062142D01*
%TO.C,D104*%
X136838476Y-95157380D02*
X136838476Y-94157380D01*
X136600380Y-94157380D01*
X136457523Y-94205000D01*
X136362285Y-94300238D01*
X136314666Y-94395476D01*
X136267047Y-94585952D01*
X136267047Y-94728809D01*
X136314666Y-94919285D01*
X136362285Y-95014523D01*
X136457523Y-95109761D01*
X136600380Y-95157380D01*
X136838476Y-95157380D01*
X135314666Y-95157380D02*
X135886095Y-95157380D01*
X135600380Y-95157380D02*
X135600380Y-94157380D01*
X135695619Y-94300238D01*
X135790857Y-94395476D01*
X135886095Y-94443095D01*
X134695619Y-94157380D02*
X134600380Y-94157380D01*
X134505142Y-94205000D01*
X134457523Y-94252619D01*
X134409904Y-94347857D01*
X134362285Y-94538333D01*
X134362285Y-94776428D01*
X134409904Y-94966904D01*
X134457523Y-95062142D01*
X134505142Y-95109761D01*
X134600380Y-95157380D01*
X134695619Y-95157380D01*
X134790857Y-95109761D01*
X134838476Y-95062142D01*
X134886095Y-94966904D01*
X134933714Y-94776428D01*
X134933714Y-94538333D01*
X134886095Y-94347857D01*
X134838476Y-94252619D01*
X134790857Y-94205000D01*
X134695619Y-94157380D01*
X133505142Y-94490714D02*
X133505142Y-95157380D01*
X133743238Y-94109761D02*
X133981333Y-94824047D01*
X133362285Y-94824047D01*
%TO.C,D101*%
X125163476Y-95157380D02*
X125163476Y-94157380D01*
X124925380Y-94157380D01*
X124782523Y-94205000D01*
X124687285Y-94300238D01*
X124639666Y-94395476D01*
X124592047Y-94585952D01*
X124592047Y-94728809D01*
X124639666Y-94919285D01*
X124687285Y-95014523D01*
X124782523Y-95109761D01*
X124925380Y-95157380D01*
X125163476Y-95157380D01*
X123639666Y-95157380D02*
X124211095Y-95157380D01*
X123925380Y-95157380D02*
X123925380Y-94157380D01*
X124020619Y-94300238D01*
X124115857Y-94395476D01*
X124211095Y-94443095D01*
X123020619Y-94157380D02*
X122925380Y-94157380D01*
X122830142Y-94205000D01*
X122782523Y-94252619D01*
X122734904Y-94347857D01*
X122687285Y-94538333D01*
X122687285Y-94776428D01*
X122734904Y-94966904D01*
X122782523Y-95062142D01*
X122830142Y-95109761D01*
X122925380Y-95157380D01*
X123020619Y-95157380D01*
X123115857Y-95109761D01*
X123163476Y-95062142D01*
X123211095Y-94966904D01*
X123258714Y-94776428D01*
X123258714Y-94538333D01*
X123211095Y-94347857D01*
X123163476Y-94252619D01*
X123115857Y-94205000D01*
X123020619Y-94157380D01*
X121734904Y-95157380D02*
X122306333Y-95157380D01*
X122020619Y-95157380D02*
X122020619Y-94157380D01*
X122115857Y-94300238D01*
X122211095Y-94395476D01*
X122306333Y-94443095D01*
%TO.C,R135*%
X207782380Y-118080952D02*
X207306190Y-117747619D01*
X207782380Y-117509523D02*
X206782380Y-117509523D01*
X206782380Y-117890476D01*
X206830000Y-117985714D01*
X206877619Y-118033333D01*
X206972857Y-118080952D01*
X207115714Y-118080952D01*
X207210952Y-118033333D01*
X207258571Y-117985714D01*
X207306190Y-117890476D01*
X207306190Y-117509523D01*
X207782380Y-119033333D02*
X207782380Y-118461904D01*
X207782380Y-118747619D02*
X206782380Y-118747619D01*
X206925238Y-118652380D01*
X207020476Y-118557142D01*
X207068095Y-118461904D01*
X206782380Y-119366666D02*
X206782380Y-119985714D01*
X207163333Y-119652380D01*
X207163333Y-119795238D01*
X207210952Y-119890476D01*
X207258571Y-119938095D01*
X207353809Y-119985714D01*
X207591904Y-119985714D01*
X207687142Y-119938095D01*
X207734761Y-119890476D01*
X207782380Y-119795238D01*
X207782380Y-119509523D01*
X207734761Y-119414285D01*
X207687142Y-119366666D01*
X206782380Y-120890476D02*
X206782380Y-120414285D01*
X207258571Y-120366666D01*
X207210952Y-120414285D01*
X207163333Y-120509523D01*
X207163333Y-120747619D01*
X207210952Y-120842857D01*
X207258571Y-120890476D01*
X207353809Y-120938095D01*
X207591904Y-120938095D01*
X207687142Y-120890476D01*
X207734761Y-120842857D01*
X207782380Y-120747619D01*
X207782380Y-120509523D01*
X207734761Y-120414285D01*
X207687142Y-120366666D01*
%TO.C,R134*%
X196107380Y-118080952D02*
X195631190Y-117747619D01*
X196107380Y-117509523D02*
X195107380Y-117509523D01*
X195107380Y-117890476D01*
X195155000Y-117985714D01*
X195202619Y-118033333D01*
X195297857Y-118080952D01*
X195440714Y-118080952D01*
X195535952Y-118033333D01*
X195583571Y-117985714D01*
X195631190Y-117890476D01*
X195631190Y-117509523D01*
X196107380Y-119033333D02*
X196107380Y-118461904D01*
X196107380Y-118747619D02*
X195107380Y-118747619D01*
X195250238Y-118652380D01*
X195345476Y-118557142D01*
X195393095Y-118461904D01*
X195107380Y-119366666D02*
X195107380Y-119985714D01*
X195488333Y-119652380D01*
X195488333Y-119795238D01*
X195535952Y-119890476D01*
X195583571Y-119938095D01*
X195678809Y-119985714D01*
X195916904Y-119985714D01*
X196012142Y-119938095D01*
X196059761Y-119890476D01*
X196107380Y-119795238D01*
X196107380Y-119509523D01*
X196059761Y-119414285D01*
X196012142Y-119366666D01*
X195440714Y-120842857D02*
X196107380Y-120842857D01*
X195059761Y-120604761D02*
X195774047Y-120366666D01*
X195774047Y-120985714D01*
%TO.C,R133*%
X184432380Y-118080952D02*
X183956190Y-117747619D01*
X184432380Y-117509523D02*
X183432380Y-117509523D01*
X183432380Y-117890476D01*
X183480000Y-117985714D01*
X183527619Y-118033333D01*
X183622857Y-118080952D01*
X183765714Y-118080952D01*
X183860952Y-118033333D01*
X183908571Y-117985714D01*
X183956190Y-117890476D01*
X183956190Y-117509523D01*
X184432380Y-119033333D02*
X184432380Y-118461904D01*
X184432380Y-118747619D02*
X183432380Y-118747619D01*
X183575238Y-118652380D01*
X183670476Y-118557142D01*
X183718095Y-118461904D01*
X183432380Y-119366666D02*
X183432380Y-119985714D01*
X183813333Y-119652380D01*
X183813333Y-119795238D01*
X183860952Y-119890476D01*
X183908571Y-119938095D01*
X184003809Y-119985714D01*
X184241904Y-119985714D01*
X184337142Y-119938095D01*
X184384761Y-119890476D01*
X184432380Y-119795238D01*
X184432380Y-119509523D01*
X184384761Y-119414285D01*
X184337142Y-119366666D01*
X183432380Y-120319047D02*
X183432380Y-120938095D01*
X183813333Y-120604761D01*
X183813333Y-120747619D01*
X183860952Y-120842857D01*
X183908571Y-120890476D01*
X184003809Y-120938095D01*
X184241904Y-120938095D01*
X184337142Y-120890476D01*
X184384761Y-120842857D01*
X184432380Y-120747619D01*
X184432380Y-120461904D01*
X184384761Y-120366666D01*
X184337142Y-120319047D01*
%TO.C,R132*%
X207782380Y-90880952D02*
X207306190Y-90547619D01*
X207782380Y-90309523D02*
X206782380Y-90309523D01*
X206782380Y-90690476D01*
X206830000Y-90785714D01*
X206877619Y-90833333D01*
X206972857Y-90880952D01*
X207115714Y-90880952D01*
X207210952Y-90833333D01*
X207258571Y-90785714D01*
X207306190Y-90690476D01*
X207306190Y-90309523D01*
X207782380Y-91833333D02*
X207782380Y-91261904D01*
X207782380Y-91547619D02*
X206782380Y-91547619D01*
X206925238Y-91452380D01*
X207020476Y-91357142D01*
X207068095Y-91261904D01*
X206782380Y-92166666D02*
X206782380Y-92785714D01*
X207163333Y-92452380D01*
X207163333Y-92595238D01*
X207210952Y-92690476D01*
X207258571Y-92738095D01*
X207353809Y-92785714D01*
X207591904Y-92785714D01*
X207687142Y-92738095D01*
X207734761Y-92690476D01*
X207782380Y-92595238D01*
X207782380Y-92309523D01*
X207734761Y-92214285D01*
X207687142Y-92166666D01*
X206877619Y-93166666D02*
X206830000Y-93214285D01*
X206782380Y-93309523D01*
X206782380Y-93547619D01*
X206830000Y-93642857D01*
X206877619Y-93690476D01*
X206972857Y-93738095D01*
X207068095Y-93738095D01*
X207210952Y-93690476D01*
X207782380Y-93119047D01*
X207782380Y-93738095D01*
%TO.C,R131*%
X196107380Y-90880952D02*
X195631190Y-90547619D01*
X196107380Y-90309523D02*
X195107380Y-90309523D01*
X195107380Y-90690476D01*
X195155000Y-90785714D01*
X195202619Y-90833333D01*
X195297857Y-90880952D01*
X195440714Y-90880952D01*
X195535952Y-90833333D01*
X195583571Y-90785714D01*
X195631190Y-90690476D01*
X195631190Y-90309523D01*
X196107380Y-91833333D02*
X196107380Y-91261904D01*
X196107380Y-91547619D02*
X195107380Y-91547619D01*
X195250238Y-91452380D01*
X195345476Y-91357142D01*
X195393095Y-91261904D01*
X195107380Y-92166666D02*
X195107380Y-92785714D01*
X195488333Y-92452380D01*
X195488333Y-92595238D01*
X195535952Y-92690476D01*
X195583571Y-92738095D01*
X195678809Y-92785714D01*
X195916904Y-92785714D01*
X196012142Y-92738095D01*
X196059761Y-92690476D01*
X196107380Y-92595238D01*
X196107380Y-92309523D01*
X196059761Y-92214285D01*
X196012142Y-92166666D01*
X196107380Y-93738095D02*
X196107380Y-93166666D01*
X196107380Y-93452380D02*
X195107380Y-93452380D01*
X195250238Y-93357142D01*
X195345476Y-93261904D01*
X195393095Y-93166666D01*
%TO.C,R130*%
X184432380Y-90880952D02*
X183956190Y-90547619D01*
X184432380Y-90309523D02*
X183432380Y-90309523D01*
X183432380Y-90690476D01*
X183480000Y-90785714D01*
X183527619Y-90833333D01*
X183622857Y-90880952D01*
X183765714Y-90880952D01*
X183860952Y-90833333D01*
X183908571Y-90785714D01*
X183956190Y-90690476D01*
X183956190Y-90309523D01*
X184432380Y-91833333D02*
X184432380Y-91261904D01*
X184432380Y-91547619D02*
X183432380Y-91547619D01*
X183575238Y-91452380D01*
X183670476Y-91357142D01*
X183718095Y-91261904D01*
X183432380Y-92166666D02*
X183432380Y-92785714D01*
X183813333Y-92452380D01*
X183813333Y-92595238D01*
X183860952Y-92690476D01*
X183908571Y-92738095D01*
X184003809Y-92785714D01*
X184241904Y-92785714D01*
X184337142Y-92738095D01*
X184384761Y-92690476D01*
X184432380Y-92595238D01*
X184432380Y-92309523D01*
X184384761Y-92214285D01*
X184337142Y-92166666D01*
X183432380Y-93404761D02*
X183432380Y-93500000D01*
X183480000Y-93595238D01*
X183527619Y-93642857D01*
X183622857Y-93690476D01*
X183813333Y-93738095D01*
X184051428Y-93738095D01*
X184241904Y-93690476D01*
X184337142Y-93642857D01*
X184384761Y-93595238D01*
X184432380Y-93500000D01*
X184432380Y-93404761D01*
X184384761Y-93309523D01*
X184337142Y-93261904D01*
X184241904Y-93214285D01*
X184051428Y-93166666D01*
X183813333Y-93166666D01*
X183622857Y-93214285D01*
X183527619Y-93261904D01*
X183480000Y-93309523D01*
X183432380Y-93404761D01*
%TO.C,R129*%
X152032380Y-118080952D02*
X151556190Y-117747619D01*
X152032380Y-117509523D02*
X151032380Y-117509523D01*
X151032380Y-117890476D01*
X151080000Y-117985714D01*
X151127619Y-118033333D01*
X151222857Y-118080952D01*
X151365714Y-118080952D01*
X151460952Y-118033333D01*
X151508571Y-117985714D01*
X151556190Y-117890476D01*
X151556190Y-117509523D01*
X152032380Y-119033333D02*
X152032380Y-118461904D01*
X152032380Y-118747619D02*
X151032380Y-118747619D01*
X151175238Y-118652380D01*
X151270476Y-118557142D01*
X151318095Y-118461904D01*
X151127619Y-119414285D02*
X151080000Y-119461904D01*
X151032380Y-119557142D01*
X151032380Y-119795238D01*
X151080000Y-119890476D01*
X151127619Y-119938095D01*
X151222857Y-119985714D01*
X151318095Y-119985714D01*
X151460952Y-119938095D01*
X152032380Y-119366666D01*
X152032380Y-119985714D01*
X152032380Y-120461904D02*
X152032380Y-120652380D01*
X151984761Y-120747619D01*
X151937142Y-120795238D01*
X151794285Y-120890476D01*
X151603809Y-120938095D01*
X151222857Y-120938095D01*
X151127619Y-120890476D01*
X151080000Y-120842857D01*
X151032380Y-120747619D01*
X151032380Y-120557142D01*
X151080000Y-120461904D01*
X151127619Y-120414285D01*
X151222857Y-120366666D01*
X151460952Y-120366666D01*
X151556190Y-120414285D01*
X151603809Y-120461904D01*
X151651428Y-120557142D01*
X151651428Y-120747619D01*
X151603809Y-120842857D01*
X151556190Y-120890476D01*
X151460952Y-120938095D01*
%TO.C,R128*%
X140357380Y-118080952D02*
X139881190Y-117747619D01*
X140357380Y-117509523D02*
X139357380Y-117509523D01*
X139357380Y-117890476D01*
X139405000Y-117985714D01*
X139452619Y-118033333D01*
X139547857Y-118080952D01*
X139690714Y-118080952D01*
X139785952Y-118033333D01*
X139833571Y-117985714D01*
X139881190Y-117890476D01*
X139881190Y-117509523D01*
X140357380Y-119033333D02*
X140357380Y-118461904D01*
X140357380Y-118747619D02*
X139357380Y-118747619D01*
X139500238Y-118652380D01*
X139595476Y-118557142D01*
X139643095Y-118461904D01*
X139452619Y-119414285D02*
X139405000Y-119461904D01*
X139357380Y-119557142D01*
X139357380Y-119795238D01*
X139405000Y-119890476D01*
X139452619Y-119938095D01*
X139547857Y-119985714D01*
X139643095Y-119985714D01*
X139785952Y-119938095D01*
X140357380Y-119366666D01*
X140357380Y-119985714D01*
X139785952Y-120557142D02*
X139738333Y-120461904D01*
X139690714Y-120414285D01*
X139595476Y-120366666D01*
X139547857Y-120366666D01*
X139452619Y-120414285D01*
X139405000Y-120461904D01*
X139357380Y-120557142D01*
X139357380Y-120747619D01*
X139405000Y-120842857D01*
X139452619Y-120890476D01*
X139547857Y-120938095D01*
X139595476Y-120938095D01*
X139690714Y-120890476D01*
X139738333Y-120842857D01*
X139785952Y-120747619D01*
X139785952Y-120557142D01*
X139833571Y-120461904D01*
X139881190Y-120414285D01*
X139976428Y-120366666D01*
X140166904Y-120366666D01*
X140262142Y-120414285D01*
X140309761Y-120461904D01*
X140357380Y-120557142D01*
X140357380Y-120747619D01*
X140309761Y-120842857D01*
X140262142Y-120890476D01*
X140166904Y-120938095D01*
X139976428Y-120938095D01*
X139881190Y-120890476D01*
X139833571Y-120842857D01*
X139785952Y-120747619D01*
%TO.C,R127*%
X128682380Y-118080952D02*
X128206190Y-117747619D01*
X128682380Y-117509523D02*
X127682380Y-117509523D01*
X127682380Y-117890476D01*
X127730000Y-117985714D01*
X127777619Y-118033333D01*
X127872857Y-118080952D01*
X128015714Y-118080952D01*
X128110952Y-118033333D01*
X128158571Y-117985714D01*
X128206190Y-117890476D01*
X128206190Y-117509523D01*
X128682380Y-119033333D02*
X128682380Y-118461904D01*
X128682380Y-118747619D02*
X127682380Y-118747619D01*
X127825238Y-118652380D01*
X127920476Y-118557142D01*
X127968095Y-118461904D01*
X127777619Y-119414285D02*
X127730000Y-119461904D01*
X127682380Y-119557142D01*
X127682380Y-119795238D01*
X127730000Y-119890476D01*
X127777619Y-119938095D01*
X127872857Y-119985714D01*
X127968095Y-119985714D01*
X128110952Y-119938095D01*
X128682380Y-119366666D01*
X128682380Y-119985714D01*
X127682380Y-120319047D02*
X127682380Y-120985714D01*
X128682380Y-120557142D01*
%TO.C,R126*%
X152032380Y-90880952D02*
X151556190Y-90547619D01*
X152032380Y-90309523D02*
X151032380Y-90309523D01*
X151032380Y-90690476D01*
X151080000Y-90785714D01*
X151127619Y-90833333D01*
X151222857Y-90880952D01*
X151365714Y-90880952D01*
X151460952Y-90833333D01*
X151508571Y-90785714D01*
X151556190Y-90690476D01*
X151556190Y-90309523D01*
X152032380Y-91833333D02*
X152032380Y-91261904D01*
X152032380Y-91547619D02*
X151032380Y-91547619D01*
X151175238Y-91452380D01*
X151270476Y-91357142D01*
X151318095Y-91261904D01*
X151127619Y-92214285D02*
X151080000Y-92261904D01*
X151032380Y-92357142D01*
X151032380Y-92595238D01*
X151080000Y-92690476D01*
X151127619Y-92738095D01*
X151222857Y-92785714D01*
X151318095Y-92785714D01*
X151460952Y-92738095D01*
X152032380Y-92166666D01*
X152032380Y-92785714D01*
X151032380Y-93642857D02*
X151032380Y-93452380D01*
X151080000Y-93357142D01*
X151127619Y-93309523D01*
X151270476Y-93214285D01*
X151460952Y-93166666D01*
X151841904Y-93166666D01*
X151937142Y-93214285D01*
X151984761Y-93261904D01*
X152032380Y-93357142D01*
X152032380Y-93547619D01*
X151984761Y-93642857D01*
X151937142Y-93690476D01*
X151841904Y-93738095D01*
X151603809Y-93738095D01*
X151508571Y-93690476D01*
X151460952Y-93642857D01*
X151413333Y-93547619D01*
X151413333Y-93357142D01*
X151460952Y-93261904D01*
X151508571Y-93214285D01*
X151603809Y-93166666D01*
%TO.C,R125*%
X140357380Y-90880952D02*
X139881190Y-90547619D01*
X140357380Y-90309523D02*
X139357380Y-90309523D01*
X139357380Y-90690476D01*
X139405000Y-90785714D01*
X139452619Y-90833333D01*
X139547857Y-90880952D01*
X139690714Y-90880952D01*
X139785952Y-90833333D01*
X139833571Y-90785714D01*
X139881190Y-90690476D01*
X139881190Y-90309523D01*
X140357380Y-91833333D02*
X140357380Y-91261904D01*
X140357380Y-91547619D02*
X139357380Y-91547619D01*
X139500238Y-91452380D01*
X139595476Y-91357142D01*
X139643095Y-91261904D01*
X139452619Y-92214285D02*
X139405000Y-92261904D01*
X139357380Y-92357142D01*
X139357380Y-92595238D01*
X139405000Y-92690476D01*
X139452619Y-92738095D01*
X139547857Y-92785714D01*
X139643095Y-92785714D01*
X139785952Y-92738095D01*
X140357380Y-92166666D01*
X140357380Y-92785714D01*
X139357380Y-93690476D02*
X139357380Y-93214285D01*
X139833571Y-93166666D01*
X139785952Y-93214285D01*
X139738333Y-93309523D01*
X139738333Y-93547619D01*
X139785952Y-93642857D01*
X139833571Y-93690476D01*
X139928809Y-93738095D01*
X140166904Y-93738095D01*
X140262142Y-93690476D01*
X140309761Y-93642857D01*
X140357380Y-93547619D01*
X140357380Y-93309523D01*
X140309761Y-93214285D01*
X140262142Y-93166666D01*
%TO.C,R124*%
X128682380Y-90880952D02*
X128206190Y-90547619D01*
X128682380Y-90309523D02*
X127682380Y-90309523D01*
X127682380Y-90690476D01*
X127730000Y-90785714D01*
X127777619Y-90833333D01*
X127872857Y-90880952D01*
X128015714Y-90880952D01*
X128110952Y-90833333D01*
X128158571Y-90785714D01*
X128206190Y-90690476D01*
X128206190Y-90309523D01*
X128682380Y-91833333D02*
X128682380Y-91261904D01*
X128682380Y-91547619D02*
X127682380Y-91547619D01*
X127825238Y-91452380D01*
X127920476Y-91357142D01*
X127968095Y-91261904D01*
X127777619Y-92214285D02*
X127730000Y-92261904D01*
X127682380Y-92357142D01*
X127682380Y-92595238D01*
X127730000Y-92690476D01*
X127777619Y-92738095D01*
X127872857Y-92785714D01*
X127968095Y-92785714D01*
X128110952Y-92738095D01*
X128682380Y-92166666D01*
X128682380Y-92785714D01*
X128015714Y-93642857D02*
X128682380Y-93642857D01*
X127634761Y-93404761D02*
X128349047Y-93166666D01*
X128349047Y-93785714D01*
%TO.C,R114*%
X176119047Y-122002380D02*
X176452380Y-121526190D01*
X176690476Y-122002380D02*
X176690476Y-121002380D01*
X176309523Y-121002380D01*
X176214285Y-121050000D01*
X176166666Y-121097619D01*
X176119047Y-121192857D01*
X176119047Y-121335714D01*
X176166666Y-121430952D01*
X176214285Y-121478571D01*
X176309523Y-121526190D01*
X176690476Y-121526190D01*
X175166666Y-122002380D02*
X175738095Y-122002380D01*
X175452380Y-122002380D02*
X175452380Y-121002380D01*
X175547619Y-121145238D01*
X175642857Y-121240476D01*
X175738095Y-121288095D01*
X174214285Y-122002380D02*
X174785714Y-122002380D01*
X174500000Y-122002380D02*
X174500000Y-121002380D01*
X174595238Y-121145238D01*
X174690476Y-121240476D01*
X174785714Y-121288095D01*
X173357142Y-121335714D02*
X173357142Y-122002380D01*
X173595238Y-120954761D02*
X173833333Y-121669047D01*
X173214285Y-121669047D01*
%TO.C,R113*%
X199469047Y-94802380D02*
X199802380Y-94326190D01*
X200040476Y-94802380D02*
X200040476Y-93802380D01*
X199659523Y-93802380D01*
X199564285Y-93850000D01*
X199516666Y-93897619D01*
X199469047Y-93992857D01*
X199469047Y-94135714D01*
X199516666Y-94230952D01*
X199564285Y-94278571D01*
X199659523Y-94326190D01*
X200040476Y-94326190D01*
X198516666Y-94802380D02*
X199088095Y-94802380D01*
X198802380Y-94802380D02*
X198802380Y-93802380D01*
X198897619Y-93945238D01*
X198992857Y-94040476D01*
X199088095Y-94088095D01*
X197564285Y-94802380D02*
X198135714Y-94802380D01*
X197850000Y-94802380D02*
X197850000Y-93802380D01*
X197945238Y-93945238D01*
X198040476Y-94040476D01*
X198135714Y-94088095D01*
X197230952Y-93802380D02*
X196611904Y-93802380D01*
X196945238Y-94183333D01*
X196802380Y-94183333D01*
X196707142Y-94230952D01*
X196659523Y-94278571D01*
X196611904Y-94373809D01*
X196611904Y-94611904D01*
X196659523Y-94707142D01*
X196707142Y-94754761D01*
X196802380Y-94802380D01*
X197088095Y-94802380D01*
X197183333Y-94754761D01*
X197230952Y-94707142D01*
%TO.C,R115*%
X187769047Y-122002380D02*
X188102380Y-121526190D01*
X188340476Y-122002380D02*
X188340476Y-121002380D01*
X187959523Y-121002380D01*
X187864285Y-121050000D01*
X187816666Y-121097619D01*
X187769047Y-121192857D01*
X187769047Y-121335714D01*
X187816666Y-121430952D01*
X187864285Y-121478571D01*
X187959523Y-121526190D01*
X188340476Y-121526190D01*
X186816666Y-122002380D02*
X187388095Y-122002380D01*
X187102380Y-122002380D02*
X187102380Y-121002380D01*
X187197619Y-121145238D01*
X187292857Y-121240476D01*
X187388095Y-121288095D01*
X185864285Y-122002380D02*
X186435714Y-122002380D01*
X186150000Y-122002380D02*
X186150000Y-121002380D01*
X186245238Y-121145238D01*
X186340476Y-121240476D01*
X186435714Y-121288095D01*
X184959523Y-121002380D02*
X185435714Y-121002380D01*
X185483333Y-121478571D01*
X185435714Y-121430952D01*
X185340476Y-121383333D01*
X185102380Y-121383333D01*
X185007142Y-121430952D01*
X184959523Y-121478571D01*
X184911904Y-121573809D01*
X184911904Y-121811904D01*
X184959523Y-121907142D01*
X185007142Y-121954761D01*
X185102380Y-122002380D01*
X185340476Y-122002380D01*
X185435714Y-121954761D01*
X185483333Y-121907142D01*
%TO.C,R116*%
X199469047Y-122002380D02*
X199802380Y-121526190D01*
X200040476Y-122002380D02*
X200040476Y-121002380D01*
X199659523Y-121002380D01*
X199564285Y-121050000D01*
X199516666Y-121097619D01*
X199469047Y-121192857D01*
X199469047Y-121335714D01*
X199516666Y-121430952D01*
X199564285Y-121478571D01*
X199659523Y-121526190D01*
X200040476Y-121526190D01*
X198516666Y-122002380D02*
X199088095Y-122002380D01*
X198802380Y-122002380D02*
X198802380Y-121002380D01*
X198897619Y-121145238D01*
X198992857Y-121240476D01*
X199088095Y-121288095D01*
X197564285Y-122002380D02*
X198135714Y-122002380D01*
X197850000Y-122002380D02*
X197850000Y-121002380D01*
X197945238Y-121145238D01*
X198040476Y-121240476D01*
X198135714Y-121288095D01*
X196707142Y-121002380D02*
X196897619Y-121002380D01*
X196992857Y-121050000D01*
X197040476Y-121097619D01*
X197135714Y-121240476D01*
X197183333Y-121430952D01*
X197183333Y-121811904D01*
X197135714Y-121907142D01*
X197088095Y-121954761D01*
X196992857Y-122002380D01*
X196802380Y-122002380D01*
X196707142Y-121954761D01*
X196659523Y-121907142D01*
X196611904Y-121811904D01*
X196611904Y-121573809D01*
X196659523Y-121478571D01*
X196707142Y-121430952D01*
X196802380Y-121383333D01*
X196992857Y-121383333D01*
X197088095Y-121430952D01*
X197135714Y-121478571D01*
X197183333Y-121573809D01*
%TO.C,R103*%
X120369047Y-94802380D02*
X120702380Y-94326190D01*
X120940476Y-94802380D02*
X120940476Y-93802380D01*
X120559523Y-93802380D01*
X120464285Y-93850000D01*
X120416666Y-93897619D01*
X120369047Y-93992857D01*
X120369047Y-94135714D01*
X120416666Y-94230952D01*
X120464285Y-94278571D01*
X120559523Y-94326190D01*
X120940476Y-94326190D01*
X119416666Y-94802380D02*
X119988095Y-94802380D01*
X119702380Y-94802380D02*
X119702380Y-93802380D01*
X119797619Y-93945238D01*
X119892857Y-94040476D01*
X119988095Y-94088095D01*
X118797619Y-93802380D02*
X118702380Y-93802380D01*
X118607142Y-93850000D01*
X118559523Y-93897619D01*
X118511904Y-93992857D01*
X118464285Y-94183333D01*
X118464285Y-94421428D01*
X118511904Y-94611904D01*
X118559523Y-94707142D01*
X118607142Y-94754761D01*
X118702380Y-94802380D01*
X118797619Y-94802380D01*
X118892857Y-94754761D01*
X118940476Y-94707142D01*
X118988095Y-94611904D01*
X119035714Y-94421428D01*
X119035714Y-94183333D01*
X118988095Y-93992857D01*
X118940476Y-93897619D01*
X118892857Y-93850000D01*
X118797619Y-93802380D01*
X118130952Y-93802380D02*
X117511904Y-93802380D01*
X117845238Y-94183333D01*
X117702380Y-94183333D01*
X117607142Y-94230952D01*
X117559523Y-94278571D01*
X117511904Y-94373809D01*
X117511904Y-94611904D01*
X117559523Y-94707142D01*
X117607142Y-94754761D01*
X117702380Y-94802380D01*
X117988095Y-94802380D01*
X118083333Y-94754761D01*
X118130952Y-94707142D01*
%TO.C,R107*%
X132044047Y-122002380D02*
X132377380Y-121526190D01*
X132615476Y-122002380D02*
X132615476Y-121002380D01*
X132234523Y-121002380D01*
X132139285Y-121050000D01*
X132091666Y-121097619D01*
X132044047Y-121192857D01*
X132044047Y-121335714D01*
X132091666Y-121430952D01*
X132139285Y-121478571D01*
X132234523Y-121526190D01*
X132615476Y-121526190D01*
X131091666Y-122002380D02*
X131663095Y-122002380D01*
X131377380Y-122002380D02*
X131377380Y-121002380D01*
X131472619Y-121145238D01*
X131567857Y-121240476D01*
X131663095Y-121288095D01*
X130472619Y-121002380D02*
X130377380Y-121002380D01*
X130282142Y-121050000D01*
X130234523Y-121097619D01*
X130186904Y-121192857D01*
X130139285Y-121383333D01*
X130139285Y-121621428D01*
X130186904Y-121811904D01*
X130234523Y-121907142D01*
X130282142Y-121954761D01*
X130377380Y-122002380D01*
X130472619Y-122002380D01*
X130567857Y-121954761D01*
X130615476Y-121907142D01*
X130663095Y-121811904D01*
X130710714Y-121621428D01*
X130710714Y-121383333D01*
X130663095Y-121192857D01*
X130615476Y-121097619D01*
X130567857Y-121050000D01*
X130472619Y-121002380D01*
X129805952Y-121002380D02*
X129139285Y-121002380D01*
X129567857Y-122002380D01*
%TO.C,R104*%
X132044047Y-94802380D02*
X132377380Y-94326190D01*
X132615476Y-94802380D02*
X132615476Y-93802380D01*
X132234523Y-93802380D01*
X132139285Y-93850000D01*
X132091666Y-93897619D01*
X132044047Y-93992857D01*
X132044047Y-94135714D01*
X132091666Y-94230952D01*
X132139285Y-94278571D01*
X132234523Y-94326190D01*
X132615476Y-94326190D01*
X131091666Y-94802380D02*
X131663095Y-94802380D01*
X131377380Y-94802380D02*
X131377380Y-93802380D01*
X131472619Y-93945238D01*
X131567857Y-94040476D01*
X131663095Y-94088095D01*
X130472619Y-93802380D02*
X130377380Y-93802380D01*
X130282142Y-93850000D01*
X130234523Y-93897619D01*
X130186904Y-93992857D01*
X130139285Y-94183333D01*
X130139285Y-94421428D01*
X130186904Y-94611904D01*
X130234523Y-94707142D01*
X130282142Y-94754761D01*
X130377380Y-94802380D01*
X130472619Y-94802380D01*
X130567857Y-94754761D01*
X130615476Y-94707142D01*
X130663095Y-94611904D01*
X130710714Y-94421428D01*
X130710714Y-94183333D01*
X130663095Y-93992857D01*
X130615476Y-93897619D01*
X130567857Y-93850000D01*
X130472619Y-93802380D01*
X129282142Y-94135714D02*
X129282142Y-94802380D01*
X129520238Y-93754761D02*
X129758333Y-94469047D01*
X129139285Y-94469047D01*
%TO.C,R105*%
X143719047Y-94802380D02*
X144052380Y-94326190D01*
X144290476Y-94802380D02*
X144290476Y-93802380D01*
X143909523Y-93802380D01*
X143814285Y-93850000D01*
X143766666Y-93897619D01*
X143719047Y-93992857D01*
X143719047Y-94135714D01*
X143766666Y-94230952D01*
X143814285Y-94278571D01*
X143909523Y-94326190D01*
X144290476Y-94326190D01*
X142766666Y-94802380D02*
X143338095Y-94802380D01*
X143052380Y-94802380D02*
X143052380Y-93802380D01*
X143147619Y-93945238D01*
X143242857Y-94040476D01*
X143338095Y-94088095D01*
X142147619Y-93802380D02*
X142052380Y-93802380D01*
X141957142Y-93850000D01*
X141909523Y-93897619D01*
X141861904Y-93992857D01*
X141814285Y-94183333D01*
X141814285Y-94421428D01*
X141861904Y-94611904D01*
X141909523Y-94707142D01*
X141957142Y-94754761D01*
X142052380Y-94802380D01*
X142147619Y-94802380D01*
X142242857Y-94754761D01*
X142290476Y-94707142D01*
X142338095Y-94611904D01*
X142385714Y-94421428D01*
X142385714Y-94183333D01*
X142338095Y-93992857D01*
X142290476Y-93897619D01*
X142242857Y-93850000D01*
X142147619Y-93802380D01*
X140909523Y-93802380D02*
X141385714Y-93802380D01*
X141433333Y-94278571D01*
X141385714Y-94230952D01*
X141290476Y-94183333D01*
X141052380Y-94183333D01*
X140957142Y-94230952D01*
X140909523Y-94278571D01*
X140861904Y-94373809D01*
X140861904Y-94611904D01*
X140909523Y-94707142D01*
X140957142Y-94754761D01*
X141052380Y-94802380D01*
X141290476Y-94802380D01*
X141385714Y-94754761D01*
X141433333Y-94707142D01*
%TO.C,R112*%
X187794047Y-94802380D02*
X188127380Y-94326190D01*
X188365476Y-94802380D02*
X188365476Y-93802380D01*
X187984523Y-93802380D01*
X187889285Y-93850000D01*
X187841666Y-93897619D01*
X187794047Y-93992857D01*
X187794047Y-94135714D01*
X187841666Y-94230952D01*
X187889285Y-94278571D01*
X187984523Y-94326190D01*
X188365476Y-94326190D01*
X186841666Y-94802380D02*
X187413095Y-94802380D01*
X187127380Y-94802380D02*
X187127380Y-93802380D01*
X187222619Y-93945238D01*
X187317857Y-94040476D01*
X187413095Y-94088095D01*
X185889285Y-94802380D02*
X186460714Y-94802380D01*
X186175000Y-94802380D02*
X186175000Y-93802380D01*
X186270238Y-93945238D01*
X186365476Y-94040476D01*
X186460714Y-94088095D01*
X185508333Y-93897619D02*
X185460714Y-93850000D01*
X185365476Y-93802380D01*
X185127380Y-93802380D01*
X185032142Y-93850000D01*
X184984523Y-93897619D01*
X184936904Y-93992857D01*
X184936904Y-94088095D01*
X184984523Y-94230952D01*
X185555952Y-94802380D01*
X184936904Y-94802380D01*
%TO.C,R108*%
X143719047Y-122002380D02*
X144052380Y-121526190D01*
X144290476Y-122002380D02*
X144290476Y-121002380D01*
X143909523Y-121002380D01*
X143814285Y-121050000D01*
X143766666Y-121097619D01*
X143719047Y-121192857D01*
X143719047Y-121335714D01*
X143766666Y-121430952D01*
X143814285Y-121478571D01*
X143909523Y-121526190D01*
X144290476Y-121526190D01*
X142766666Y-122002380D02*
X143338095Y-122002380D01*
X143052380Y-122002380D02*
X143052380Y-121002380D01*
X143147619Y-121145238D01*
X143242857Y-121240476D01*
X143338095Y-121288095D01*
X142147619Y-121002380D02*
X142052380Y-121002380D01*
X141957142Y-121050000D01*
X141909523Y-121097619D01*
X141861904Y-121192857D01*
X141814285Y-121383333D01*
X141814285Y-121621428D01*
X141861904Y-121811904D01*
X141909523Y-121907142D01*
X141957142Y-121954761D01*
X142052380Y-122002380D01*
X142147619Y-122002380D01*
X142242857Y-121954761D01*
X142290476Y-121907142D01*
X142338095Y-121811904D01*
X142385714Y-121621428D01*
X142385714Y-121383333D01*
X142338095Y-121192857D01*
X142290476Y-121097619D01*
X142242857Y-121050000D01*
X142147619Y-121002380D01*
X141242857Y-121430952D02*
X141338095Y-121383333D01*
X141385714Y-121335714D01*
X141433333Y-121240476D01*
X141433333Y-121192857D01*
X141385714Y-121097619D01*
X141338095Y-121050000D01*
X141242857Y-121002380D01*
X141052380Y-121002380D01*
X140957142Y-121050000D01*
X140909523Y-121097619D01*
X140861904Y-121192857D01*
X140861904Y-121240476D01*
X140909523Y-121335714D01*
X140957142Y-121383333D01*
X141052380Y-121430952D01*
X141242857Y-121430952D01*
X141338095Y-121478571D01*
X141385714Y-121526190D01*
X141433333Y-121621428D01*
X141433333Y-121811904D01*
X141385714Y-121907142D01*
X141338095Y-121954761D01*
X141242857Y-122002380D01*
X141052380Y-122002380D01*
X140957142Y-121954761D01*
X140909523Y-121907142D01*
X140861904Y-121811904D01*
X140861904Y-121621428D01*
X140909523Y-121526190D01*
X140957142Y-121478571D01*
X141052380Y-121430952D01*
%TO.C,R106*%
X120369047Y-122002380D02*
X120702380Y-121526190D01*
X120940476Y-122002380D02*
X120940476Y-121002380D01*
X120559523Y-121002380D01*
X120464285Y-121050000D01*
X120416666Y-121097619D01*
X120369047Y-121192857D01*
X120369047Y-121335714D01*
X120416666Y-121430952D01*
X120464285Y-121478571D01*
X120559523Y-121526190D01*
X120940476Y-121526190D01*
X119416666Y-122002380D02*
X119988095Y-122002380D01*
X119702380Y-122002380D02*
X119702380Y-121002380D01*
X119797619Y-121145238D01*
X119892857Y-121240476D01*
X119988095Y-121288095D01*
X118797619Y-121002380D02*
X118702380Y-121002380D01*
X118607142Y-121050000D01*
X118559523Y-121097619D01*
X118511904Y-121192857D01*
X118464285Y-121383333D01*
X118464285Y-121621428D01*
X118511904Y-121811904D01*
X118559523Y-121907142D01*
X118607142Y-121954761D01*
X118702380Y-122002380D01*
X118797619Y-122002380D01*
X118892857Y-121954761D01*
X118940476Y-121907142D01*
X118988095Y-121811904D01*
X119035714Y-121621428D01*
X119035714Y-121383333D01*
X118988095Y-121192857D01*
X118940476Y-121097619D01*
X118892857Y-121050000D01*
X118797619Y-121002380D01*
X117607142Y-121002380D02*
X117797619Y-121002380D01*
X117892857Y-121050000D01*
X117940476Y-121097619D01*
X118035714Y-121240476D01*
X118083333Y-121430952D01*
X118083333Y-121811904D01*
X118035714Y-121907142D01*
X117988095Y-121954761D01*
X117892857Y-122002380D01*
X117702380Y-122002380D01*
X117607142Y-121954761D01*
X117559523Y-121907142D01*
X117511904Y-121811904D01*
X117511904Y-121573809D01*
X117559523Y-121478571D01*
X117607142Y-121430952D01*
X117702380Y-121383333D01*
X117892857Y-121383333D01*
X117988095Y-121430952D01*
X118035714Y-121478571D01*
X118083333Y-121573809D01*
%TO.C,R111*%
X176119047Y-94802380D02*
X176452380Y-94326190D01*
X176690476Y-94802380D02*
X176690476Y-93802380D01*
X176309523Y-93802380D01*
X176214285Y-93850000D01*
X176166666Y-93897619D01*
X176119047Y-93992857D01*
X176119047Y-94135714D01*
X176166666Y-94230952D01*
X176214285Y-94278571D01*
X176309523Y-94326190D01*
X176690476Y-94326190D01*
X175166666Y-94802380D02*
X175738095Y-94802380D01*
X175452380Y-94802380D02*
X175452380Y-93802380D01*
X175547619Y-93945238D01*
X175642857Y-94040476D01*
X175738095Y-94088095D01*
X174214285Y-94802380D02*
X174785714Y-94802380D01*
X174500000Y-94802380D02*
X174500000Y-93802380D01*
X174595238Y-93945238D01*
X174690476Y-94040476D01*
X174785714Y-94088095D01*
X173261904Y-94802380D02*
X173833333Y-94802380D01*
X173547619Y-94802380D02*
X173547619Y-93802380D01*
X173642857Y-93945238D01*
X173738095Y-94040476D01*
X173833333Y-94088095D01*
%TD*%
M02*
