M48
INCH,TZ
T1C0.0079
T2C0.0118
T3C0.1260
%
G90
G05
T1
X61634Y-39843
X61634Y-40236
X61634Y-40630
X62185Y-39843
X62185Y-40236
X62185Y-40630
X65556Y-39821
X65556Y-40215
X65556Y-40608
X66107Y-39821
X66107Y-40215
X66107Y-40608
T2
X40650Y-26673
X40650Y-29823
X40650Y-30610
X40650Y-38287
X40650Y-39075
X40650Y-39862
X40650Y-40650
X40650Y-41437
X40650Y-48917
X40650Y-49705
X40650Y-52854
X40846Y-29429
X40846Y-30217
X40846Y-37894
X40846Y-38681
X40846Y-39469
X40846Y-40256
X40846Y-41043
X40846Y-41831
X40846Y-49311
X40846Y-50098
X41043Y-26673
X41043Y-29823
X41043Y-30610
X41043Y-38287
X41043Y-39075
X41043Y-39862
X41043Y-40650
X41043Y-41437
X41043Y-48917
X41043Y-49705
X41043Y-52854
X41240Y-29429
X41240Y-30217
X41240Y-37894
X41240Y-38681
X41240Y-39469
X41240Y-40256
X41240Y-41043
X41240Y-41831
X41240Y-49311
X41240Y-50098
X41437Y-26673
X41437Y-29823
X41437Y-30610
X41437Y-38287
X41437Y-39075
X41437Y-39862
X41437Y-40650
X41437Y-41437
X41437Y-48917
X41437Y-49705
X41437Y-52854
X41634Y-29429
X41634Y-30217
X41634Y-37894
X41634Y-38681
X41634Y-39469
X41634Y-40256
X41634Y-41043
X41634Y-41831
X41634Y-49311
X41634Y-50098
X41831Y-26673
X41831Y-29823
X41831Y-30610
X41831Y-38287
X41831Y-39075
X41831Y-39862
X41831Y-40650
X41831Y-41437
X41831Y-48917
X41831Y-49705
X41831Y-52854
X42028Y-29429
X42028Y-30217
X42028Y-37894
X42028Y-38681
X42028Y-39469
X42028Y-40256
X42028Y-41043
X42028Y-41831
X42028Y-49311
X42028Y-50098
X42224Y-26673
X42224Y-29823
X42224Y-30610
X42224Y-38287
X42224Y-39075
X42224Y-39862
X42224Y-40650
X42224Y-41437
X42224Y-48917
X42224Y-49705
X42224Y-52854
X42421Y-27067
X42421Y-29429
X42421Y-30217
X42421Y-37894
X42421Y-38681
X42421Y-39469
X42421Y-40256
X42421Y-41043
X42421Y-41831
X42421Y-49311
X42421Y-50098
X42421Y-52461
X42618Y-26673
X42618Y-27461
X42618Y-28248
X42618Y-29035
X42618Y-29823
X42618Y-30610
X42618Y-38287
X42618Y-39075
X42618Y-39862
X42618Y-40650
X42618Y-41437
X42618Y-48917
X42618Y-49705
X42618Y-50492
X42618Y-51280
X42618Y-52067
X42618Y-52854
X42815Y-27067
X42815Y-27854
X42815Y-28642
X42815Y-29429
X42815Y-30217
X42815Y-37894
X42815Y-38681
X42815Y-39469
X42815Y-40256
X42815Y-41043
X42815Y-41831
X42815Y-49311
X42815Y-50098
X42815Y-50886
X42815Y-51673
X42815Y-52461
X43012Y-26673
X43012Y-27461
X43012Y-28248
X43012Y-29035
X43012Y-29823
X43012Y-30610
X43012Y-38287
X43012Y-39075
X43012Y-39862
X43012Y-40650
X43012Y-41437
X43012Y-48917
X43012Y-49705
X43012Y-50492
X43012Y-51280
X43012Y-52067
X43012Y-52854
X43209Y-27067
X43209Y-27854
X43209Y-28642
X43209Y-29429
X43209Y-30217
X43209Y-37894
X43209Y-38681
X43209Y-39469
X43209Y-40256
X43209Y-41043
X43209Y-41831
X43209Y-49311
X43209Y-50098
X43209Y-50886
X43209Y-51673
X43209Y-52461
X43406Y-26673
X43406Y-27461
X43406Y-28248
X43406Y-29035
X43406Y-29823
X43406Y-30610
X43406Y-38287
X43406Y-39075
X43406Y-39862
X43406Y-40650
X43406Y-41437
X43406Y-48917
X43406Y-49705
X43406Y-50492
X43406Y-51280
X43406Y-52067
X43406Y-52854
X43602Y-27067
X43602Y-27854
X43602Y-28642
X43602Y-29429
X43602Y-30217
X43602Y-37894
X43602Y-38681
X43602Y-39469
X43602Y-40256
X43602Y-41043
X43602Y-41831
X43602Y-49311
X43602Y-50098
X43602Y-50886
X43602Y-51673
X43602Y-52461
X43799Y-26673
X43799Y-27461
X43799Y-28248
X43799Y-29035
X43799Y-29823
X43799Y-30610
X43799Y-38287
X43799Y-39075
X43799Y-39862
X43799Y-40650
X43799Y-41437
X43799Y-48917
X43799Y-49705
X43799Y-50492
X43799Y-51280
X43799Y-52067
X43799Y-52854
X43996Y-27067
X43996Y-27854
X43996Y-28642
X43996Y-29429
X43996Y-30217
X43996Y-37894
X43996Y-38681
X43996Y-39469
X43996Y-40256
X43996Y-41043
X43996Y-41831
X43996Y-49311
X43996Y-50098
X43996Y-50886
X43996Y-51673
X43996Y-52461
X44193Y-26673
X44193Y-27461
X44193Y-28248
X44193Y-29035
X44193Y-29823
X44193Y-30610
X44193Y-38287
X44193Y-39075
X44193Y-39862
X44193Y-40650
X44193Y-41437
X44193Y-48917
X44193Y-49705
X44193Y-50492
X44193Y-51280
X44193Y-52067
X44193Y-52854
X44390Y-27067
X44390Y-27854
X44390Y-28642
X44390Y-29429
X44390Y-30217
X44390Y-37894
X44390Y-38681
X44390Y-39469
X44390Y-40256
X44390Y-41043
X44390Y-41831
X44390Y-49311
X44390Y-50098
X44390Y-50886
X44390Y-51673
X44390Y-52461
X44587Y-26673
X44587Y-27461
X44587Y-28248
X44587Y-29035
X44587Y-29823
X44587Y-30610
X44587Y-38287
X44587Y-39075
X44587Y-39862
X44587Y-40650
X44587Y-41437
X44587Y-48917
X44587Y-49705
X44587Y-50492
X44587Y-51280
X44587Y-52067
X44587Y-52854
X44783Y-27067
X44783Y-27854
X44783Y-28642
X44783Y-29429
X44783Y-30217
X44783Y-37894
X44783Y-38681
X44783Y-39469
X44783Y-40256
X44783Y-41043
X44783Y-41831
X44783Y-49311
X44783Y-50098
X44783Y-50886
X44783Y-51673
X44783Y-52461
X44980Y-26673
X44980Y-27461
X44980Y-28248
X44980Y-29035
X44980Y-29823
X44980Y-30610
X44980Y-38287
X44980Y-39075
X44980Y-39862
X44980Y-40650
X44980Y-41437
X44980Y-48917
X44980Y-49705
X44980Y-50492
X44980Y-51280
X44980Y-52067
X44980Y-52854
X45177Y-27067
X45177Y-27854
X45177Y-28642
X45177Y-29429
X45177Y-30217
X45177Y-37894
X45177Y-38681
X45177Y-39469
X45177Y-40256
X45177Y-41043
X45177Y-41831
X45177Y-49311
X45177Y-50098
X45177Y-50886
X45177Y-51673
X45177Y-52461
X45374Y-26673
X45374Y-29035
X45374Y-29823
X45374Y-30610
X45374Y-38287
X45374Y-39075
X45374Y-39862
X45374Y-40650
X45374Y-41437
X45374Y-48917
X45374Y-49705
X45374Y-50492
X45374Y-52854
X45571Y-29429
X45571Y-30217
X45571Y-37894
X45571Y-38681
X45571Y-39469
X45571Y-40256
X45571Y-41043
X45571Y-41831
X45571Y-49311
X45571Y-50098
X45768Y-26673
X45768Y-29823
X45768Y-30610
X45768Y-38287
X45768Y-39075
X45768Y-39862
X45768Y-40650
X45768Y-41437
X45768Y-48917
X45768Y-49705
X45768Y-52854
X45965Y-29429
X45965Y-30217
X45965Y-37894
X45965Y-38681
X45965Y-39469
X45965Y-40256
X45965Y-41043
X45965Y-41831
X45965Y-49311
X45965Y-50098
X46142Y-36772
X46161Y-26673
X46161Y-29823
X46161Y-30610
X46161Y-38287
X46161Y-39075
X46161Y-39862
X46161Y-40650
X46161Y-41437
X46161Y-42224
X46161Y-48917
X46161Y-49705
X46161Y-52854
X46299Y-46752
X46339Y-31909
X46339Y-32303
X46339Y-42618
X46339Y-43012
X46358Y-29429
X46358Y-30217
X46358Y-37894
X46358Y-38681
X46358Y-39469
X46358Y-40256
X46358Y-41043
X46358Y-41831
X46358Y-49311
X46358Y-50098
X46535Y-32106
X46535Y-33681
X46535Y-34075
X46535Y-34469
X46535Y-34862
X46535Y-42815
X46535Y-44390
X46535Y-44783
X46535Y-45177
X46535Y-45571
X46555Y-26673
X46555Y-29823
X46555Y-30610
X46555Y-38287
X46555Y-39075
X46555Y-39862
X46555Y-40650
X46555Y-41437
X46555Y-42224
X46555Y-48917
X46555Y-49705
X46555Y-52854
X46732Y-31909
X46732Y-32303
X46732Y-32697
X46732Y-33091
X46732Y-33484
X46732Y-33878
X46732Y-34272
X46732Y-34665
X46732Y-42618
X46732Y-43012
X46732Y-43406
X46732Y-43799
X46732Y-44193
X46732Y-44587
X46732Y-44980
X46732Y-45374
X46752Y-29429
X46752Y-30217
X46752Y-37894
X46752Y-38681
X46752Y-39469
X46752Y-40256
X46752Y-41043
X46752Y-41831
X46752Y-49311
X46752Y-50098
X46929Y-32106
X46929Y-32500
X46929Y-32894
X46929Y-33287
X46929Y-33681
X46929Y-34075
X46929Y-34469
X46929Y-34862
X46929Y-42815
X46929Y-43209
X46929Y-43602
X46929Y-43996
X46929Y-44390
X46929Y-44783
X46929Y-45177
X46929Y-45571
X46949Y-26673
X46949Y-29823
X46949Y-30610
X46949Y-38287
X46949Y-39075
X46949Y-39862
X46949Y-40650
X46949Y-41437
X46949Y-42224
X46949Y-48917
X46949Y-49705
X46949Y-52854
X47126Y-31909
X47126Y-32303
X47126Y-32697
X47126Y-33091
X47126Y-33484
X47126Y-33878
X47126Y-34272
X47126Y-34665
X47126Y-42618
X47126Y-43012
X47126Y-43406
X47126Y-43799
X47126Y-44193
X47126Y-44587
X47126Y-44980
X47126Y-45374
X47146Y-27067
X47146Y-27854
X47146Y-28642
X47146Y-29429
X47146Y-30217
X47146Y-37894
X47146Y-38681
X47146Y-39469
X47146Y-40256
X47146Y-41043
X47146Y-41831
X47146Y-49311
X47146Y-50098
X47146Y-50886
X47146Y-51673
X47146Y-52461
X47323Y-32106
X47323Y-32500
X47323Y-32894
X47323Y-33287
X47323Y-33681
X47323Y-34075
X47323Y-34469
X47323Y-34862
X47323Y-42815
X47323Y-43209
X47323Y-43602
X47323Y-43996
X47323Y-44390
X47323Y-44783
X47323Y-45177
X47323Y-45571
X47343Y-26673
X47343Y-27461
X47343Y-28248
X47343Y-29035
X47343Y-29823
X47343Y-30610
X47343Y-38287
X47343Y-39075
X47343Y-39862
X47343Y-40650
X47343Y-41437
X47343Y-42224
X47343Y-48917
X47343Y-49705
X47343Y-50492
X47343Y-51280
X47343Y-52067
X47343Y-52854
X47520Y-31909
X47520Y-32303
X47520Y-32697
X47520Y-33091
X47520Y-33484
X47520Y-33878
X47520Y-34272
X47520Y-34665
X47520Y-42618
X47520Y-43012
X47520Y-43406
X47520Y-43799
X47520Y-44193
X47520Y-44587
X47520Y-44980
X47520Y-45374
X47539Y-27067
X47539Y-27854
X47539Y-28642
X47539Y-29429
X47539Y-30217
X47539Y-37894
X47539Y-38681
X47539Y-39469
X47539Y-40256
X47539Y-41043
X47539Y-41831
X47539Y-49311
X47539Y-50098
X47539Y-50886
X47539Y-51673
X47539Y-52461
X47717Y-32106
X47717Y-32500
X47717Y-32894
X47717Y-33287
X47717Y-33681
X47717Y-34075
X47717Y-34469
X47717Y-34862
X47717Y-42815
X47717Y-43209
X47717Y-43602
X47717Y-43996
X47717Y-44390
X47717Y-44783
X47717Y-45177
X47717Y-45571
X47736Y-26673
X47736Y-27461
X47736Y-28248
X47736Y-29035
X47736Y-29823
X47736Y-30610
X47736Y-38287
X47736Y-39075
X47736Y-39862
X47736Y-40650
X47736Y-41437
X47736Y-42224
X47736Y-48917
X47736Y-49705
X47736Y-50492
X47736Y-51280
X47736Y-52067
X47736Y-52854
X47913Y-31909
X47913Y-32303
X47913Y-32697
X47913Y-33091
X47913Y-33484
X47913Y-33878
X47913Y-34272
X47913Y-34665
X47913Y-42618
X47913Y-43012
X47913Y-43406
X47913Y-43799
X47913Y-44193
X47913Y-44587
X47913Y-44980
X47913Y-45374
X47933Y-27067
X47933Y-27854
X47933Y-28642
X47933Y-29429
X47933Y-30217
X47933Y-37894
X47933Y-38681
X47933Y-39469
X47933Y-40256
X47933Y-41043
X47933Y-41831
X47933Y-49311
X47933Y-50098
X47933Y-50886
X47933Y-51673
X47933Y-52461
X48110Y-32106
X48110Y-32500
X48110Y-32894
X48110Y-33287
X48110Y-33681
X48110Y-34075
X48110Y-34469
X48110Y-34862
X48110Y-42815
X48110Y-43209
X48110Y-43602
X48110Y-43996
X48110Y-44390
X48110Y-44783
X48110Y-45177
X48110Y-45571
X48130Y-26673
X48130Y-27461
X48130Y-28248
X48130Y-29035
X48130Y-29823
X48130Y-30610
X48130Y-38287
X48130Y-39075
X48130Y-39862
X48130Y-40650
X48130Y-41437
X48130Y-42224
X48130Y-48917
X48130Y-49705
X48130Y-50492
X48130Y-51280
X48130Y-52067
X48130Y-52854
X48307Y-31909
X48307Y-32303
X48307Y-32697
X48307Y-33091
X48307Y-33484
X48307Y-33878
X48307Y-34272
X48307Y-34665
X48307Y-42618
X48307Y-43012
X48307Y-43406
X48307Y-43799
X48307Y-44193
X48307Y-44587
X48307Y-44980
X48307Y-45374
X48327Y-27067
X48327Y-27854
X48327Y-28642
X48327Y-29429
X48327Y-30217
X48327Y-37894
X48327Y-38681
X48327Y-39469
X48327Y-40256
X48327Y-41043
X48327Y-41831
X48327Y-49311
X48327Y-50098
X48327Y-50886
X48327Y-51673
X48327Y-52461
X48504Y-32106
X48504Y-32500
X48504Y-32894
X48504Y-33287
X48504Y-33681
X48504Y-34075
X48504Y-34469
X48504Y-34862
X48504Y-42815
X48504Y-43209
X48504Y-43602
X48504Y-43996
X48504Y-44390
X48504Y-44783
X48504Y-45177
X48504Y-45571
X48524Y-26673
X48524Y-27461
X48524Y-28248
X48524Y-29035
X48524Y-29823
X48524Y-30610
X48524Y-38287
X48524Y-39075
X48524Y-39862
X48524Y-40650
X48524Y-41437
X48524Y-42224
X48524Y-48917
X48524Y-49705
X48524Y-50492
X48524Y-51280
X48524Y-52067
X48524Y-52854
X48544Y-36102
X48544Y-46810
X48701Y-31909
X48701Y-32303
X48701Y-32697
X48701Y-33091
X48701Y-33484
X48701Y-33878
X48701Y-34272
X48701Y-34665
X48701Y-42618
X48701Y-43012
X48701Y-43406
X48701Y-43799
X48701Y-44193
X48701Y-44587
X48701Y-44980
X48701Y-45374
X48720Y-27067
X48720Y-27854
X48720Y-28642
X48720Y-29429
X48720Y-30217
X48720Y-37894
X48720Y-38681
X48720Y-39469
X48720Y-40256
X48720Y-41043
X48720Y-41831
X48720Y-49311
X48720Y-50098
X48720Y-50886
X48720Y-51673
X48720Y-52461
X48898Y-32106
X48898Y-32500
X48898Y-32894
X48898Y-33287
X48898Y-33681
X48898Y-34075
X48898Y-34469
X48898Y-34862
X48898Y-42815
X48898Y-43209
X48898Y-43602
X48898Y-43996
X48898Y-44390
X48898Y-44783
X48898Y-45177
X48898Y-45571
X48917Y-26673
X48917Y-27461
X48917Y-28248
X48917Y-29035
X48917Y-29823
X48917Y-30610
X48917Y-38287
X48917Y-39075
X48917Y-39862
X48917Y-40650
X48917Y-41437
X48917Y-42224
X48917Y-48917
X48917Y-49705
X48917Y-50492
X48917Y-51280
X48917Y-52067
X48917Y-52854
X49094Y-31909
X49094Y-32303
X49094Y-32697
X49094Y-33091
X49094Y-33484
X49094Y-33878
X49094Y-34272
X49094Y-34665
X49094Y-42618
X49094Y-43012
X49094Y-43406
X49094Y-43799
X49094Y-44193
X49094Y-44587
X49094Y-44980
X49094Y-45374
X49114Y-27067
X49114Y-27854
X49114Y-28642
X49114Y-29429
X49114Y-30217
X49114Y-37894
X49114Y-38681
X49114Y-39469
X49114Y-40256
X49114Y-41043
X49114Y-41831
X49114Y-49311
X49114Y-50098
X49114Y-50886
X49114Y-51673
X49114Y-52461
X49291Y-32106
X49291Y-32500
X49291Y-32894
X49291Y-33287
X49291Y-33681
X49291Y-34075
X49291Y-34469
X49291Y-34862
X49291Y-42815
X49291Y-43209
X49291Y-43602
X49291Y-43996
X49291Y-44390
X49291Y-44783
X49291Y-45177
X49291Y-45571
X49311Y-26673
X49311Y-27461
X49311Y-28248
X49311Y-29035
X49311Y-29823
X49311Y-30610
X49311Y-38287
X49311Y-39075
X49311Y-39862
X49311Y-40650
X49311Y-41437
X49311Y-42224
X49311Y-48917
X49311Y-49705
X49311Y-50492
X49311Y-51280
X49311Y-52067
X49311Y-52854
X49488Y-31909
X49488Y-32303
X49488Y-32697
X49488Y-33091
X49488Y-33484
X49488Y-33878
X49488Y-34272
X49488Y-34665
X49488Y-42618
X49488Y-43012
X49488Y-43406
X49488Y-43799
X49488Y-44193
X49488Y-44587
X49488Y-44980
X49488Y-45374
X49508Y-27067
X49508Y-27854
X49508Y-28642
X49508Y-29429
X49508Y-30217
X49508Y-37894
X49508Y-38681
X49508Y-39469
X49508Y-40256
X49508Y-41043
X49508Y-41831
X49508Y-49311
X49508Y-50098
X49508Y-50886
X49508Y-51673
X49508Y-52461
X49685Y-32106
X49685Y-32500
X49685Y-32894
X49685Y-33287
X49685Y-33681
X49685Y-34075
X49685Y-34469
X49685Y-34862
X49685Y-42815
X49685Y-43209
X49685Y-43602
X49685Y-43996
X49685Y-44390
X49685Y-44783
X49685Y-45177
X49685Y-45571
X49705Y-26673
X49705Y-27461
X49705Y-28248
X49705Y-29035
X49705Y-29823
X49705Y-30610
X49705Y-38287
X49705Y-39075
X49705Y-39862
X49705Y-40650
X49705Y-41437
X49705Y-42224
X49705Y-48917
X49705Y-49705
X49705Y-50492
X49705Y-51280
X49705Y-52067
X49705Y-52854
X49882Y-31909
X49882Y-32303
X49882Y-32697
X49882Y-33091
X49882Y-33484
X49882Y-33878
X49882Y-34272
X49882Y-34665
X49882Y-42618
X49882Y-43012
X49882Y-43406
X49882Y-43799
X49882Y-44193
X49882Y-44587
X49882Y-44980
X49882Y-45374
X49902Y-27067
X49902Y-29429
X49902Y-30217
X49902Y-37894
X49902Y-38681
X49902Y-39469
X49902Y-40256
X49902Y-41043
X49902Y-41831
X49902Y-49311
X49902Y-50098
X49902Y-52461
X50079Y-32106
X50079Y-33681
X50079Y-34075
X50079Y-34469
X50079Y-34862
X50079Y-42815
X50079Y-44390
X50079Y-44783
X50079Y-45177
X50079Y-45571
X50098Y-26673
X50098Y-29823
X50098Y-30610
X50098Y-38287
X50098Y-39075
X50098Y-39862
X50098Y-40650
X50098Y-41437
X50098Y-42224
X50098Y-48917
X50098Y-49705
X50098Y-52854
X50276Y-31909
X50276Y-32303
X50276Y-42618
X50276Y-43012
X50295Y-29429
X50295Y-30217
X50295Y-37894
X50295Y-38681
X50295Y-39469
X50295Y-40256
X50295Y-41043
X50295Y-41831
X50295Y-49311
X50295Y-50098
X50492Y-26673
X50492Y-29823
X50492Y-30610
X50492Y-38287
X50492Y-39075
X50492Y-39862
X50492Y-40650
X50492Y-41437
X50492Y-42224
X50492Y-48917
X50492Y-49705
X50492Y-52854
X50689Y-29429
X50689Y-30217
X50689Y-37894
X50689Y-38681
X50689Y-39469
X50689Y-40256
X50689Y-41043
X50689Y-41831
X50689Y-49311
X50689Y-50098
X50758Y-36496
X50758Y-47205
X50886Y-26673
X50886Y-29823
X50886Y-30610
X50886Y-38287
X50886Y-39075
X50886Y-39862
X50886Y-40650
X50886Y-41437
X50886Y-42224
X50886Y-48917
X50886Y-49705
X50886Y-52854
X50935Y-31909
X50935Y-32303
X50935Y-42618
X50935Y-43012
X51083Y-29429
X51083Y-30217
X51083Y-37894
X51083Y-38681
X51083Y-39469
X51083Y-40256
X51083Y-41043
X51083Y-41831
X51083Y-49311
X51083Y-50098
X51132Y-32106
X51132Y-33681
X51132Y-34075
X51132Y-34469
X51132Y-34862
X51132Y-42815
X51132Y-44390
X51132Y-44783
X51132Y-45177
X51132Y-45571
X51280Y-26673
X51280Y-29823
X51280Y-30610
X51280Y-38287
X51280Y-39075
X51280Y-39862
X51280Y-40650
X51280Y-41437
X51280Y-42224
X51280Y-48917
X51280Y-49705
X51280Y-52854
X51329Y-31909
X51329Y-32303
X51329Y-32697
X51329Y-33091
X51329Y-33484
X51329Y-33878
X51329Y-34272
X51329Y-34665
X51329Y-42618
X51329Y-43012
X51329Y-43406
X51329Y-43799
X51329Y-44193
X51329Y-44587
X51329Y-44980
X51329Y-45374
X51476Y-27067
X51476Y-29429
X51476Y-30217
X51476Y-37894
X51476Y-38681
X51476Y-39469
X51476Y-40256
X51476Y-41043
X51476Y-41831
X51476Y-49311
X51476Y-50098
X51476Y-52461
X51526Y-32106
X51526Y-32500
X51526Y-32894
X51526Y-33287
X51526Y-33681
X51526Y-34075
X51526Y-34469
X51526Y-34862
X51526Y-42815
X51526Y-43209
X51526Y-43602
X51526Y-43996
X51526Y-44390
X51526Y-44783
X51526Y-45177
X51526Y-45571
X51673Y-26673
X51673Y-29823
X51673Y-30610
X51673Y-38287
X51673Y-39075
X51673Y-39862
X51673Y-40650
X51673Y-41437
X51673Y-42224
X51673Y-48917
X51673Y-49705
X51673Y-52854
X51722Y-31909
X51722Y-32303
X51722Y-32697
X51722Y-33091
X51722Y-33484
X51722Y-33878
X51722Y-34272
X51722Y-34665
X51722Y-42618
X51722Y-43012
X51722Y-43406
X51722Y-43799
X51722Y-44193
X51722Y-44587
X51722Y-44980
X51722Y-45374
X51772Y-27461
X51772Y-28248
X51772Y-29035
X51772Y-50492
X51772Y-51280
X51772Y-52067
X51870Y-29429
X51870Y-30217
X51870Y-37894
X51870Y-38681
X51870Y-39469
X51870Y-40256
X51870Y-41043
X51870Y-41831
X51870Y-49311
X51870Y-50098
X51919Y-32106
X51919Y-32500
X51919Y-32894
X51919Y-33287
X51919Y-33681
X51919Y-34075
X51919Y-34469
X51919Y-34862
X51919Y-42815
X51919Y-43209
X51919Y-43602
X51919Y-43996
X51919Y-44390
X51919Y-44783
X51919Y-45177
X51919Y-45571
X51969Y-27067
X51969Y-27854
X51969Y-28642
X51969Y-50886
X51969Y-51673
X51969Y-52461
X52067Y-26673
X52067Y-29823
X52067Y-30610
X52067Y-38287
X52067Y-39075
X52067Y-39862
X52067Y-40650
X52067Y-41437
X52067Y-42224
X52067Y-48917
X52067Y-49705
X52067Y-52854
X52116Y-31909
X52116Y-32303
X52116Y-32697
X52116Y-33091
X52116Y-33484
X52116Y-33878
X52116Y-34272
X52116Y-34665
X52116Y-42618
X52116Y-43012
X52116Y-43406
X52116Y-43799
X52116Y-44193
X52116Y-44587
X52116Y-44980
X52116Y-45374
X52165Y-27461
X52165Y-28248
X52165Y-29035
X52165Y-50492
X52165Y-51280
X52165Y-52067
X52264Y-29429
X52264Y-30217
X52264Y-37894
X52264Y-38681
X52264Y-39469
X52264Y-40256
X52264Y-41043
X52264Y-41831
X52264Y-49311
X52264Y-50098
X52313Y-32106
X52313Y-32500
X52313Y-32894
X52313Y-33287
X52313Y-33681
X52313Y-34075
X52313Y-34469
X52313Y-34862
X52313Y-42815
X52313Y-43209
X52313Y-43602
X52313Y-43996
X52313Y-44390
X52313Y-44783
X52313Y-45177
X52313Y-45571
X52362Y-27067
X52362Y-27854
X52362Y-28642
X52362Y-50886
X52362Y-51673
X52362Y-52461
X52461Y-26673
X52461Y-29823
X52461Y-30610
X52461Y-38287
X52461Y-39075
X52461Y-39862
X52461Y-40650
X52461Y-41437
X52461Y-42224
X52461Y-48917
X52461Y-49705
X52461Y-52854
X52510Y-31909
X52510Y-32303
X52510Y-32697
X52510Y-33091
X52510Y-33484
X52510Y-33878
X52510Y-34272
X52510Y-34665
X52510Y-42618
X52510Y-43012
X52510Y-43406
X52510Y-43799
X52510Y-44193
X52510Y-44587
X52510Y-44980
X52510Y-45374
X52559Y-27461
X52559Y-28248
X52559Y-29035
X52559Y-50492
X52559Y-51280
X52559Y-52067
X52657Y-29429
X52657Y-30217
X52657Y-37894
X52657Y-38681
X52657Y-39469
X52657Y-40256
X52657Y-41043
X52657Y-41831
X52657Y-49311
X52657Y-50098
X52707Y-32106
X52707Y-32500
X52707Y-32894
X52707Y-33287
X52707Y-33681
X52707Y-34075
X52707Y-34469
X52707Y-34862
X52707Y-42815
X52707Y-43209
X52707Y-43602
X52707Y-43996
X52707Y-44390
X52707Y-44783
X52707Y-45177
X52707Y-45571
X52756Y-27067
X52756Y-27854
X52756Y-28642
X52756Y-50886
X52756Y-51673
X52756Y-52461
X52854Y-26673
X52854Y-29823
X52854Y-30610
X52854Y-38287
X52854Y-39075
X52854Y-39862
X52854Y-40650
X52854Y-41437
X52854Y-42224
X52854Y-48917
X52854Y-49705
X52854Y-52854
X52904Y-31909
X52904Y-32303
X52904Y-32697
X52904Y-33091
X52904Y-33484
X52904Y-33878
X52904Y-34272
X52904Y-34665
X52904Y-42618
X52904Y-43012
X52904Y-43406
X52904Y-43799
X52904Y-44193
X52904Y-44587
X52904Y-44980
X52904Y-45374
X52953Y-27461
X52953Y-28248
X52953Y-29035
X52953Y-50492
X52953Y-51280
X52953Y-52067
X53051Y-29429
X53051Y-30217
X53051Y-37894
X53051Y-38681
X53051Y-39469
X53051Y-40256
X53051Y-41043
X53051Y-41831
X53051Y-49311
X53051Y-50098
X53100Y-32106
X53100Y-32500
X53100Y-32894
X53100Y-33287
X53100Y-33681
X53100Y-34075
X53100Y-34469
X53100Y-34862
X53100Y-42815
X53100Y-43209
X53100Y-43602
X53100Y-43996
X53100Y-44390
X53100Y-44783
X53100Y-45177
X53100Y-45571
X53140Y-36102
X53140Y-46810
X53150Y-27067
X53150Y-27854
X53150Y-28642
X53150Y-50886
X53150Y-51673
X53150Y-52461
X53248Y-26673
X53248Y-29823
X53248Y-30610
X53248Y-38287
X53248Y-39075
X53248Y-39862
X53248Y-40650
X53248Y-41437
X53248Y-42224
X53248Y-48917
X53248Y-49705
X53248Y-52854
X53297Y-31909
X53297Y-32303
X53297Y-32697
X53297Y-33091
X53297Y-33484
X53297Y-33878
X53297Y-34272
X53297Y-34665
X53297Y-42618
X53297Y-43012
X53297Y-43406
X53297Y-43799
X53297Y-44193
X53297Y-44587
X53297Y-44980
X53297Y-45374
X53346Y-27461
X53346Y-28248
X53346Y-29035
X53346Y-50492
X53346Y-51280
X53346Y-52067
X53445Y-29429
X53445Y-30217
X53445Y-37894
X53445Y-38681
X53445Y-39469
X53445Y-40256
X53445Y-41043
X53445Y-41831
X53445Y-49311
X53445Y-50098
X53494Y-32106
X53494Y-32500
X53494Y-32894
X53494Y-33287
X53494Y-33681
X53494Y-34075
X53494Y-34469
X53494Y-34862
X53494Y-42815
X53494Y-43209
X53494Y-43602
X53494Y-43996
X53494Y-44390
X53494Y-44783
X53494Y-45177
X53494Y-45571
X53543Y-27067
X53543Y-27854
X53543Y-28642
X53543Y-50886
X53543Y-51673
X53543Y-52461
X53642Y-26673
X53642Y-29823
X53642Y-30610
X53642Y-38287
X53642Y-39075
X53642Y-39862
X53642Y-40650
X53642Y-41437
X53642Y-42224
X53642Y-48917
X53642Y-49705
X53642Y-52854
X53691Y-31909
X53691Y-32303
X53691Y-32697
X53691Y-33091
X53691Y-33484
X53691Y-33878
X53691Y-34272
X53691Y-34665
X53691Y-42618
X53691Y-43012
X53691Y-43406
X53691Y-43799
X53691Y-44193
X53691Y-44587
X53691Y-44980
X53691Y-45374
X53740Y-27461
X53740Y-28248
X53740Y-29035
X53740Y-50492
X53740Y-51280
X53740Y-52067
X53839Y-29429
X53839Y-30217
X53839Y-37894
X53839Y-38681
X53839Y-39469
X53839Y-40256
X53839Y-41043
X53839Y-41831
X53839Y-49311
X53839Y-50098
X53888Y-32106
X53888Y-32500
X53888Y-32894
X53888Y-33287
X53888Y-33681
X53888Y-34075
X53888Y-34469
X53888Y-34862
X53888Y-42815
X53888Y-43209
X53888Y-43602
X53888Y-43996
X53888Y-44390
X53888Y-44783
X53888Y-45177
X53888Y-45571
X53937Y-27067
X53937Y-27854
X53937Y-28642
X53937Y-50886
X53937Y-51673
X53937Y-52461
X54035Y-26673
X54035Y-29823
X54035Y-30610
X54035Y-38287
X54035Y-39075
X54035Y-39862
X54035Y-40650
X54035Y-41437
X54035Y-42224
X54035Y-48917
X54035Y-49705
X54035Y-52854
X54085Y-31909
X54085Y-32303
X54085Y-32697
X54085Y-33091
X54085Y-33484
X54085Y-33878
X54085Y-34272
X54085Y-34665
X54085Y-42618
X54085Y-43012
X54085Y-43406
X54085Y-43799
X54085Y-44193
X54085Y-44587
X54085Y-44980
X54085Y-45374
X54134Y-27461
X54134Y-28248
X54134Y-29035
X54134Y-50492
X54134Y-51280
X54134Y-52067
X54232Y-29429
X54232Y-30217
X54232Y-37894
X54232Y-38681
X54232Y-39469
X54232Y-40256
X54232Y-41043
X54232Y-41831
X54232Y-49311
X54232Y-50098
X54281Y-32106
X54281Y-32500
X54281Y-32894
X54281Y-33287
X54281Y-33681
X54281Y-34075
X54281Y-34469
X54281Y-34862
X54281Y-42815
X54281Y-43209
X54281Y-43602
X54281Y-43996
X54281Y-44390
X54281Y-44783
X54281Y-45177
X54281Y-45571
X54331Y-27067
X54331Y-27854
X54331Y-28642
X54331Y-50886
X54331Y-51673
X54331Y-52461
X54429Y-26673
X54429Y-29823
X54429Y-30610
X54429Y-38287
X54429Y-39075
X54429Y-39862
X54429Y-40650
X54429Y-41437
X54429Y-42224
X54429Y-48917
X54429Y-49705
X54429Y-52854
X54478Y-31909
X54478Y-32303
X54478Y-32697
X54478Y-33091
X54478Y-33484
X54478Y-33878
X54478Y-34272
X54478Y-34665
X54478Y-42618
X54478Y-43012
X54478Y-43406
X54478Y-43799
X54478Y-44193
X54478Y-44587
X54478Y-44980
X54478Y-45374
X54528Y-27461
X54528Y-52067
X54626Y-29429
X54626Y-30217
X54626Y-37894
X54626Y-38681
X54626Y-39469
X54626Y-40256
X54626Y-41043
X54626Y-41831
X54626Y-49311
X54626Y-50098
X54675Y-32106
X54675Y-33681
X54675Y-34075
X54675Y-34469
X54675Y-34862
X54675Y-42815
X54675Y-44390
X54675Y-44783
X54675Y-45177
X54675Y-45571
X54724Y-27067
X54724Y-52461
X54823Y-26673
X54823Y-29823
X54823Y-30610
X54823Y-38287
X54823Y-39075
X54823Y-39862
X54823Y-40650
X54823Y-41437
X54823Y-42224
X54823Y-48917
X54823Y-49705
X54823Y-52854
X54872Y-31909
X54872Y-32303
X54872Y-42618
X54872Y-43012
X55020Y-29429
X55020Y-30217
X55020Y-37894
X55020Y-38681
X55020Y-39469
X55020Y-40256
X55020Y-41043
X55020Y-41831
X55020Y-49311
X55020Y-50098
X55217Y-26673
X55217Y-29823
X55217Y-30610
X55217Y-38287
X55217Y-39075
X55217Y-39862
X55217Y-40650
X55217Y-41437
X55217Y-42224
X55217Y-48917
X55217Y-49705
X55217Y-52854
X55354Y-36496
X55354Y-47205
X55413Y-29429
X55413Y-30217
X55413Y-37894
X55413Y-38681
X55413Y-39469
X55413Y-40256
X55413Y-41043
X55413Y-41831
X55413Y-49311
X55413Y-50098
X55531Y-31909
X55531Y-32303
X55531Y-42618
X55531Y-43012
X55610Y-26673
X55610Y-29823
X55610Y-30610
X55610Y-38287
X55610Y-39075
X55610Y-39862
X55610Y-40650
X55610Y-41437
X55610Y-42224
X55610Y-48917
X55610Y-49705
X55610Y-52854
X55728Y-32106
X55728Y-33681
X55728Y-34075
X55728Y-34469
X55728Y-34862
X55728Y-42815
X55728Y-44390
X55728Y-44783
X55728Y-45177
X55728Y-45571
X55807Y-29429
X55807Y-30217
X55807Y-37894
X55807Y-38681
X55807Y-39469
X55807Y-40256
X55807Y-41043
X55807Y-41831
X55807Y-49311
X55807Y-50098
X55925Y-31909
X55925Y-32303
X55925Y-32697
X55925Y-33091
X55925Y-33484
X55925Y-33878
X55925Y-34272
X55925Y-34665
X55925Y-42618
X55925Y-43012
X55925Y-43406
X55925Y-43799
X55925Y-44193
X55925Y-44587
X55925Y-44980
X55925Y-45374
X56004Y-26673
X56004Y-29823
X56004Y-30610
X56004Y-38287
X56004Y-39075
X56004Y-39862
X56004Y-40650
X56004Y-41437
X56004Y-42224
X56004Y-48917
X56004Y-49705
X56004Y-52854
X56122Y-32106
X56122Y-32500
X56122Y-32894
X56122Y-33287
X56122Y-33681
X56122Y-34075
X56122Y-34469
X56122Y-34862
X56122Y-42815
X56122Y-43209
X56122Y-43602
X56122Y-43996
X56122Y-44390
X56122Y-44783
X56122Y-45177
X56122Y-45571
X56201Y-27067
X56201Y-29429
X56201Y-30217
X56201Y-37894
X56201Y-38681
X56201Y-39469
X56201Y-40256
X56201Y-41043
X56201Y-41831
X56201Y-49311
X56201Y-50098
X56201Y-52461
X56319Y-31909
X56319Y-32303
X56319Y-32697
X56319Y-33091
X56319Y-33484
X56319Y-33878
X56319Y-34272
X56319Y-34665
X56319Y-42618
X56319Y-43012
X56319Y-43406
X56319Y-43799
X56319Y-44193
X56319Y-44587
X56319Y-44980
X56319Y-45374
X56398Y-26673
X56398Y-27461
X56398Y-29035
X56398Y-29823
X56398Y-30610
X56398Y-38287
X56398Y-39075
X56398Y-39862
X56398Y-40650
X56398Y-41437
X56398Y-42224
X56398Y-48917
X56398Y-49705
X56398Y-50492
X56398Y-52067
X56398Y-52854
X56516Y-32106
X56516Y-32500
X56516Y-32894
X56516Y-33287
X56516Y-33681
X56516Y-34075
X56516Y-34469
X56516Y-34862
X56516Y-42815
X56516Y-43209
X56516Y-43602
X56516Y-43996
X56516Y-44390
X56516Y-44783
X56516Y-45177
X56516Y-45571
X56594Y-27067
X56594Y-27854
X56594Y-28642
X56594Y-29429
X56594Y-30217
X56594Y-37894
X56594Y-38681
X56594Y-39469
X56594Y-40256
X56594Y-41043
X56594Y-41831
X56594Y-49311
X56594Y-50098
X56594Y-50886
X56594Y-51673
X56594Y-52461
X56713Y-31909
X56713Y-32303
X56713Y-32697
X56713Y-33091
X56713Y-33484
X56713Y-33878
X56713Y-34272
X56713Y-34665
X56713Y-42618
X56713Y-43012
X56713Y-43406
X56713Y-43799
X56713Y-44193
X56713Y-44587
X56713Y-44980
X56713Y-45374
X56791Y-26673
X56791Y-27461
X56791Y-28248
X56791Y-29035
X56791Y-29823
X56791Y-30610
X56791Y-38287
X56791Y-39075
X56791Y-39862
X56791Y-40650
X56791Y-41437
X56791Y-42224
X56791Y-48917
X56791Y-49705
X56791Y-50492
X56791Y-51280
X56791Y-52067
X56791Y-52854
X56909Y-32106
X56909Y-32500
X56909Y-32894
X56909Y-33287
X56909Y-33681
X56909Y-34075
X56909Y-34469
X56909Y-34862
X56909Y-42815
X56909Y-43209
X56909Y-43602
X56909Y-43996
X56909Y-44390
X56909Y-44783
X56909Y-45177
X56909Y-45571
X56988Y-27067
X56988Y-27854
X56988Y-28642
X56988Y-29429
X56988Y-30217
X56988Y-38681
X56988Y-39469
X56988Y-40256
X56988Y-41043
X56988Y-41831
X56988Y-49311
X56988Y-50098
X56988Y-50886
X56988Y-51673
X56988Y-52461
X57106Y-31909
X57106Y-32303
X57106Y-32697
X57106Y-33091
X57106Y-33484
X57106Y-33878
X57106Y-34272
X57106Y-34665
X57106Y-42618
X57106Y-43012
X57106Y-43406
X57106Y-43799
X57106Y-44193
X57106Y-44587
X57106Y-44980
X57106Y-45374
X57185Y-26673
X57185Y-27461
X57185Y-28248
X57185Y-29035
X57185Y-29823
X57185Y-30610
X57185Y-39075
X57185Y-39862
X57185Y-40650
X57185Y-41437
X57185Y-42224
X57185Y-48917
X57185Y-49705
X57185Y-50492
X57185Y-51280
X57185Y-52067
X57185Y-52854
X57303Y-32106
X57303Y-32500
X57303Y-32894
X57303Y-33287
X57303Y-33681
X57303Y-34075
X57303Y-34469
X57303Y-34862
X57303Y-42815
X57303Y-43209
X57303Y-43602
X57303Y-43996
X57303Y-44390
X57303Y-44783
X57303Y-45177
X57303Y-45571
X57382Y-27067
X57382Y-27854
X57382Y-28642
X57382Y-29429
X57382Y-30217
X57382Y-39469
X57382Y-40256
X57382Y-41043
X57382Y-41831
X57382Y-49311
X57382Y-50098
X57382Y-50886
X57382Y-51673
X57382Y-52461
X57500Y-31909
X57500Y-32303
X57500Y-32697
X57500Y-33091
X57500Y-33484
X57500Y-33878
X57500Y-34272
X57500Y-34665
X57500Y-42618
X57500Y-43012
X57500Y-43406
X57500Y-43799
X57500Y-44193
X57500Y-44587
X57500Y-44980
X57500Y-45374
X57579Y-26673
X57579Y-27461
X57579Y-28248
X57579Y-29035
X57579Y-29823
X57579Y-30610
X57579Y-39075
X57579Y-39862
X57579Y-40650
X57579Y-41437
X57579Y-42224
X57579Y-48917
X57579Y-49705
X57579Y-50492
X57579Y-51280
X57579Y-52067
X57579Y-52854
X57697Y-32106
X57697Y-32500
X57697Y-32894
X57697Y-33287
X57697Y-33681
X57697Y-34075
X57697Y-34469
X57697Y-34862
X57697Y-42815
X57697Y-43209
X57697Y-43602
X57697Y-43996
X57697Y-44390
X57697Y-44783
X57697Y-45177
X57697Y-45571
X57737Y-36102
X57737Y-46810
X57776Y-27067
X57776Y-27854
X57776Y-28642
X57776Y-29429
X57776Y-30217
X57776Y-39469
X57776Y-40256
X57776Y-41043
X57776Y-41831
X57776Y-49311
X57776Y-50098
X57776Y-50886
X57776Y-51673
X57776Y-52461
X57894Y-31909
X57894Y-32303
X57894Y-32697
X57894Y-33091
X57894Y-33484
X57894Y-33878
X57894Y-34272
X57894Y-34665
X57894Y-42618
X57894Y-43012
X57894Y-43406
X57894Y-43799
X57894Y-44193
X57894Y-44587
X57894Y-44980
X57894Y-45374
X57972Y-26673
X57972Y-27461
X57972Y-28248
X57972Y-29035
X57972Y-29823
X57972Y-30610
X57972Y-39862
X57972Y-40650
X57972Y-41437
X57972Y-42224
X57972Y-48917
X57972Y-49705
X57972Y-50492
X57972Y-51280
X57972Y-52067
X57972Y-52854
X58091Y-32106
X58091Y-32500
X58091Y-32894
X58091Y-33287
X58091Y-33681
X58091Y-34075
X58091Y-34469
X58091Y-34862
X58091Y-42815
X58091Y-43209
X58091Y-43602
X58091Y-43996
X58091Y-44390
X58091Y-44783
X58091Y-45177
X58091Y-45571
X58169Y-27067
X58169Y-27854
X58169Y-28642
X58169Y-29429
X58169Y-30217
X58169Y-40256
X58169Y-41043
X58169Y-41831
X58169Y-49311
X58169Y-50098
X58169Y-50886
X58169Y-51673
X58169Y-52461
X58287Y-31909
X58287Y-32303
X58287Y-32697
X58287Y-33091
X58287Y-33484
X58287Y-33878
X58287Y-34272
X58287Y-34665
X58287Y-42618
X58287Y-43012
X58287Y-43406
X58287Y-43799
X58287Y-44193
X58287Y-44587
X58287Y-44980
X58287Y-45374
X58366Y-26673
X58366Y-27461
X58366Y-28248
X58366Y-29035
X58366Y-29823
X58366Y-30610
X58366Y-39862
X58366Y-40650
X58366Y-41437
X58366Y-42224
X58366Y-48917
X58366Y-49705
X58366Y-50492
X58366Y-51280
X58366Y-52067
X58366Y-52854
X58484Y-32106
X58484Y-32500
X58484Y-32894
X58484Y-33287
X58484Y-33681
X58484Y-34075
X58484Y-34469
X58484Y-34862
X58484Y-42815
X58484Y-43209
X58484Y-43602
X58484Y-43996
X58484Y-44390
X58484Y-44783
X58484Y-45177
X58484Y-45571
X58563Y-27067
X58563Y-27854
X58563Y-28642
X58563Y-29429
X58563Y-30217
X58563Y-40256
X58563Y-41043
X58563Y-41831
X58563Y-49311
X58563Y-50098
X58563Y-50886
X58563Y-51673
X58563Y-52461
X58681Y-31909
X58681Y-32303
X58681Y-32697
X58681Y-33091
X58681Y-33484
X58681Y-33878
X58681Y-34272
X58681Y-34665
X58681Y-42618
X58681Y-43012
X58681Y-43406
X58681Y-43799
X58681Y-44193
X58681Y-44587
X58681Y-44980
X58681Y-45374
X58760Y-26673
X58760Y-27461
X58760Y-28248
X58760Y-29035
X58760Y-29823
X58760Y-30610
X58760Y-40650
X58760Y-41437
X58760Y-42224
X58760Y-48917
X58760Y-49705
X58760Y-50492
X58760Y-51280
X58760Y-52067
X58760Y-52854
X58878Y-32106
X58878Y-32500
X58878Y-32894
X58878Y-33287
X58878Y-33681
X58878Y-34075
X58878Y-34469
X58878Y-34862
X58878Y-42815
X58878Y-43209
X58878Y-43602
X58878Y-43996
X58878Y-44390
X58878Y-44783
X58878Y-45177
X58878Y-45571
X58957Y-27067
X58957Y-27854
X58957Y-28642
X58957Y-29429
X58957Y-30217
X58957Y-49311
X58957Y-50098
X58957Y-50886
X58957Y-51673
X58957Y-52461
X59075Y-31909
X59075Y-32303
X59075Y-32697
X59075Y-33091
X59075Y-33484
X59075Y-33878
X59075Y-34272
X59075Y-34665
X59075Y-42618
X59075Y-43012
X59075Y-43406
X59075Y-43799
X59075Y-44193
X59075Y-44587
X59075Y-44980
X59075Y-45374
X59154Y-26673
X59154Y-27461
X59154Y-28248
X59154Y-29035
X59154Y-29823
X59154Y-30610
X59154Y-48917
X59154Y-49705
X59154Y-50492
X59154Y-51280
X59154Y-52067
X59154Y-52854
X59272Y-32106
X59272Y-33681
X59272Y-34075
X59272Y-34469
X59272Y-34862
X59272Y-42815
X59272Y-44390
X59272Y-44783
X59272Y-45177
X59272Y-45571
X59350Y-27067
X59350Y-27854
X59350Y-28642
X59350Y-29429
X59350Y-30217
X59350Y-49311
X59350Y-50098
X59350Y-50886
X59350Y-51673
X59350Y-52461
X59469Y-31909
X59469Y-32303
X59469Y-42618
X59469Y-43012
X59547Y-26673
X59547Y-27461
X59547Y-28248
X59547Y-29035
X59547Y-29823
X59547Y-30610
X59547Y-48917
X59547Y-49705
X59547Y-50492
X59547Y-51280
X59547Y-52067
X59547Y-52854
X59744Y-27067
X59744Y-27854
X59744Y-28642
X59744Y-29429
X59744Y-30217
X59744Y-49311
X59744Y-50098
X59744Y-50886
X59744Y-51673
X59744Y-52461
X59941Y-26673
X59941Y-27461
X59941Y-28248
X59941Y-29035
X59941Y-29823
X59941Y-30610
X59941Y-48917
X59941Y-49705
X59941Y-50492
X59941Y-51280
X59941Y-52067
X59941Y-52854
X59983Y-33263
X60000Y-40492
X60138Y-27067
X60138Y-27854
X60138Y-28642
X60138Y-29429
X60138Y-30217
X60138Y-49311
X60138Y-50098
X60138Y-50886
X60138Y-51673
X60138Y-52461
X60280Y-39911
X60335Y-26673
X60335Y-27461
X60335Y-28248
X60335Y-29035
X60335Y-29823
X60335Y-30610
X60335Y-48917
X60335Y-49705
X60335Y-50492
X60335Y-51280
X60335Y-52067
X60335Y-52854
X60394Y-41575
X60413Y-33159
X60531Y-27067
X60531Y-27854
X60531Y-28642
X60531Y-29429
X60531Y-30217
X60531Y-49311
X60531Y-50098
X60531Y-50886
X60531Y-51673
X60531Y-52461
X60544Y-38472
X60728Y-26673
X60728Y-27461
X60728Y-28248
X60728Y-29035
X60728Y-29823
X60728Y-30610
X60728Y-48917
X60728Y-49705
X60728Y-50492
X60728Y-51280
X60728Y-52067
X60728Y-52854
X60871Y-36491
X60871Y-37751
X60871Y-39178
X60925Y-27067
X60925Y-27854
X60925Y-28642
X60925Y-29429
X60925Y-30217
X60925Y-49311
X60925Y-50098
X60925Y-50886
X60925Y-51673
X60925Y-52461
X61122Y-26673
X61122Y-27461
X61122Y-28248
X61122Y-29035
X61122Y-29823
X61122Y-30610
X61122Y-48917
X61122Y-49705
X61122Y-50492
X61122Y-51280
X61122Y-52067
X61122Y-52854
X61161Y-32717
X61319Y-27067
X61319Y-27854
X61319Y-28642
X61319Y-29429
X61319Y-30217
X61319Y-49311
X61319Y-50098
X61319Y-50886
X61319Y-51673
X61319Y-52461
X61516Y-26673
X61516Y-27461
X61516Y-28248
X61516Y-29035
X61516Y-29823
X61516Y-30610
X61516Y-48917
X61516Y-49705
X61516Y-50492
X61516Y-51280
X61516Y-52067
X61516Y-52854
X61713Y-27067
X61713Y-27854
X61713Y-28642
X61713Y-29429
X61713Y-30217
X61713Y-49311
X61713Y-50098
X61713Y-50886
X61713Y-51673
X61713Y-52461
X61909Y-26673
X61909Y-27461
X61909Y-28248
X61909Y-29035
X61909Y-29823
X61909Y-30610
X61909Y-33465
X61909Y-36220
X61909Y-39331
X61909Y-48917
X61909Y-49705
X61909Y-50492
X61909Y-51280
X61909Y-52067
X61909Y-52854
X62106Y-27067
X62106Y-27854
X62106Y-28642
X62106Y-29429
X62106Y-30217
X62106Y-49311
X62106Y-50098
X62106Y-50886
X62106Y-51673
X62106Y-52461
X62303Y-26673
X62303Y-27461
X62303Y-28248
X62303Y-29035
X62303Y-29823
X62303Y-30610
X62303Y-48917
X62303Y-49705
X62303Y-50492
X62303Y-51280
X62303Y-52067
X62303Y-52854
X62500Y-27067
X62500Y-27854
X62500Y-28642
X62500Y-29429
X62500Y-30217
X62500Y-49311
X62500Y-50098
X62500Y-50886
X62500Y-51673
X62500Y-52461
X62579Y-41366
X62697Y-26673
X62697Y-27461
X62697Y-28248
X62697Y-29035
X62697Y-29823
X62697Y-30610
X62697Y-48917
X62697Y-49705
X62697Y-50492
X62697Y-51280
X62697Y-52067
X62697Y-52854
X62894Y-27067
X62894Y-27854
X62894Y-28642
X62894Y-29429
X62894Y-30217
X62894Y-49311
X62894Y-50098
X62894Y-50886
X62894Y-51673
X62894Y-52461
X62972Y-39173
X63091Y-26673
X63091Y-27461
X63091Y-28248
X63091Y-29035
X63091Y-29823
X63091Y-30610
X63091Y-48917
X63091Y-49705
X63091Y-50492
X63091Y-51280
X63091Y-52067
X63091Y-52854
X63165Y-35335
X63285Y-34742
X63287Y-27067
X63287Y-27854
X63287Y-28642
X63287Y-29429
X63287Y-30217
X63287Y-49311
X63287Y-50098
X63287Y-50886
X63287Y-51673
X63287Y-52461
X63484Y-26673
X63484Y-27461
X63484Y-28248
X63484Y-29035
X63484Y-29823
X63484Y-30610
X63484Y-48917
X63484Y-49705
X63484Y-50492
X63484Y-51280
X63484Y-52067
X63484Y-52854
X63681Y-27067
X63681Y-27854
X63681Y-28642
X63681Y-29429
X63681Y-30217
X63681Y-49311
X63681Y-50098
X63681Y-50886
X63681Y-51673
X63681Y-52461
X63878Y-26673
X63878Y-27461
X63878Y-28248
X63878Y-29035
X63878Y-29823
X63878Y-30610
X63878Y-48917
X63878Y-49705
X63878Y-50492
X63878Y-51280
X63878Y-52067
X63878Y-52854
X64075Y-27067
X64075Y-27854
X64075Y-28642
X64075Y-29429
X64075Y-30217
X64075Y-49311
X64075Y-50098
X64075Y-50886
X64075Y-51673
X64075Y-52461
X64114Y-31890
X64127Y-40243
X64272Y-26673
X64272Y-27461
X64272Y-28248
X64272Y-29035
X64272Y-29823
X64272Y-30610
X64272Y-48917
X64272Y-49705
X64272Y-50492
X64272Y-51280
X64272Y-52067
X64272Y-52854
X64292Y-44931
X64390Y-44439
X64469Y-27067
X64469Y-27854
X64469Y-28642
X64469Y-29429
X64469Y-30217
X64469Y-49311
X64469Y-50098
X64469Y-50886
X64469Y-51673
X64469Y-52461
X64587Y-45699
X64616Y-31929
X64665Y-26673
X64665Y-27461
X64665Y-28248
X64665Y-29035
X64665Y-29823
X64665Y-30610
X64665Y-48917
X64665Y-49705
X64665Y-50492
X64665Y-51280
X64665Y-52067
X64665Y-52854
X64862Y-27067
X64862Y-27854
X64862Y-28642
X64862Y-29429
X64862Y-30217
X64862Y-49311
X64862Y-50098
X64862Y-50886
X64862Y-51673
X64862Y-52461
X64974Y-37063
X65005Y-36137
X65020Y-41703
X65059Y-26673
X65059Y-27461
X65059Y-28248
X65059Y-29035
X65059Y-29823
X65059Y-30610
X65059Y-48917
X65059Y-49705
X65059Y-50492
X65059Y-51280
X65059Y-52067
X65059Y-52854
X65256Y-27067
X65256Y-27854
X65256Y-28642
X65256Y-29429
X65256Y-30217
X65256Y-49311
X65256Y-50098
X65256Y-50886
X65256Y-51673
X65256Y-52461
X65314Y-36466
X65442Y-41501
X65453Y-26673
X65453Y-27461
X65453Y-28248
X65453Y-29035
X65453Y-29823
X65453Y-30610
X65453Y-48917
X65453Y-49705
X65453Y-50492
X65453Y-51280
X65453Y-52067
X65453Y-52854
X65453Y-42224
X65541Y-39154
X65630Y-31959
X65650Y-27067
X65650Y-27854
X65650Y-28642
X65650Y-29429
X65650Y-30217
X65650Y-49311
X65650Y-50098
X65650Y-50886
X65650Y-51673
X65650Y-52461
X65753Y-43758
X65795Y-41149
X65846Y-26673
X65846Y-27461
X65846Y-28248
X65846Y-29035
X65846Y-29823
X65846Y-30610
X65846Y-48917
X65846Y-49705
X65846Y-50492
X65846Y-51280
X65846Y-52067
X65846Y-52854
X66013Y-35788
X66043Y-27067
X66043Y-27854
X66043Y-28642
X66043Y-29429
X66043Y-30217
X66043Y-49311
X66043Y-50098
X66043Y-50886
X66043Y-51673
X66043Y-52461
X66108Y-31954
X66240Y-26673
X66240Y-27461
X66240Y-28248
X66240Y-29035
X66240Y-29823
X66240Y-30610
X66240Y-48917
X66240Y-49705
X66240Y-50492
X66240Y-51280
X66240Y-52067
X66240Y-52854
X66335Y-36079
X66437Y-27067
X66437Y-27854
X66437Y-28642
X66437Y-29429
X66437Y-30217
X66437Y-49311
X66437Y-50098
X66437Y-50886
X66437Y-51673
X66437Y-52461
X66634Y-26673
X66634Y-27461
X66634Y-28248
X66634Y-29035
X66634Y-29823
X66634Y-30610
X66634Y-48917
X66634Y-49705
X66634Y-50492
X66634Y-51280
X66634Y-52067
X66634Y-52854
X66816Y-44235
X66831Y-27067
X66831Y-27854
X66831Y-28642
X66831Y-29429
X66831Y-30217
X66831Y-49311
X66831Y-50098
X66831Y-50886
X66831Y-51673
X66831Y-52461
X66870Y-41201
X66870Y-42776
X66890Y-33898
X67028Y-26673
X67028Y-27461
X67028Y-28248
X67028Y-29035
X67028Y-29823
X67028Y-30610
X67028Y-48917
X67028Y-49705
X67028Y-50492
X67028Y-51280
X67028Y-52067
X67028Y-52854
X67137Y-41918
X67224Y-27067
X67224Y-27854
X67224Y-28642
X67224Y-29429
X67224Y-30217
X67224Y-49311
X67224Y-50098
X67224Y-50886
X67224Y-51673
X67224Y-52461
X67421Y-26673
X67421Y-27461
X67421Y-28248
X67421Y-29035
X67421Y-29823
X67421Y-30610
X67421Y-48917
X67421Y-49705
X67421Y-50492
X67421Y-51280
X67421Y-52067
X67421Y-52854
X67441Y-38859
X67505Y-40530
X67569Y-33770
X67618Y-27067
X67618Y-27854
X67618Y-28642
X67618Y-29429
X67618Y-30217
X67618Y-49311
X67618Y-50098
X67618Y-50886
X67618Y-51673
X67618Y-52461
X67721Y-46924
X67798Y-39965
X67815Y-26673
X67815Y-27461
X67815Y-28248
X67815Y-29035
X67815Y-29823
X67815Y-30610
X67815Y-48917
X67815Y-49705
X67815Y-50492
X67815Y-51280
X67815Y-52067
X67815Y-52854
X68012Y-27067
X68012Y-27854
X68012Y-28642
X68012Y-29429
X68012Y-30217
X68012Y-49311
X68012Y-50098
X68012Y-50886
X68012Y-51673
X68012Y-52461
X68110Y-36496
X68121Y-47214
X68209Y-26673
X68209Y-27461
X68209Y-28248
X68209Y-29035
X68209Y-29823
X68209Y-30610
X68209Y-48917
X68209Y-49705
X68209Y-50492
X68209Y-51280
X68209Y-52067
X68209Y-52854
X68287Y-31909
X68287Y-32303
X68287Y-42618
X68287Y-43012
X68406Y-27067
X68406Y-27854
X68406Y-28642
X68406Y-29429
X68406Y-30217
X68406Y-49311
X68406Y-50098
X68406Y-50886
X68406Y-51673
X68406Y-52461
X68484Y-32106
X68484Y-33681
X68484Y-34075
X68484Y-34469
X68484Y-34862
X68484Y-42815
X68484Y-44390
X68484Y-44783
X68484Y-45177
X68484Y-45571
X68602Y-26673
X68602Y-27461
X68602Y-28248
X68602Y-29035
X68602Y-29823
X68602Y-30610
X68602Y-48917
X68602Y-49705
X68602Y-50492
X68602Y-51280
X68602Y-52067
X68602Y-52854
X68681Y-31909
X68681Y-32303
X68681Y-32697
X68681Y-33091
X68681Y-33484
X68681Y-33878
X68681Y-34272
X68681Y-34665
X68681Y-42618
X68681Y-43012
X68681Y-43406
X68681Y-43799
X68681Y-44193
X68681Y-44587
X68681Y-44980
X68681Y-45374
X68799Y-27067
X68799Y-27854
X68799Y-28642
X68799Y-29429
X68799Y-30217
X68799Y-49311
X68799Y-50098
X68799Y-50886
X68799Y-51673
X68799Y-52461
X68878Y-32106
X68878Y-32500
X68878Y-32894
X68878Y-33287
X68878Y-33681
X68878Y-34075
X68878Y-34469
X68878Y-34862
X68878Y-42815
X68878Y-43209
X68878Y-43602
X68878Y-43996
X68878Y-44390
X68878Y-44783
X68878Y-45177
X68878Y-45571
X68996Y-26673
X68996Y-27461
X68996Y-28248
X68996Y-29035
X68996Y-29823
X68996Y-30610
X68996Y-40650
X68996Y-41437
X68996Y-42224
X68996Y-48917
X68996Y-49705
X68996Y-50492
X68996Y-51280
X68996Y-52067
X68996Y-52854
X69075Y-31909
X69075Y-32303
X69075Y-32697
X69075Y-33091
X69075Y-33484
X69075Y-33878
X69075Y-34272
X69075Y-34665
X69075Y-42618
X69075Y-43012
X69075Y-43406
X69075Y-43799
X69075Y-44193
X69075Y-44587
X69075Y-44980
X69075Y-45374
X69193Y-27067
X69193Y-27854
X69193Y-28642
X69193Y-29429
X69193Y-30217
X69193Y-40256
X69193Y-41043
X69193Y-41831
X69193Y-49311
X69193Y-50098
X69193Y-50886
X69193Y-51673
X69193Y-52461
X69272Y-32106
X69272Y-32500
X69272Y-32894
X69272Y-33287
X69272Y-33681
X69272Y-34075
X69272Y-34469
X69272Y-34862
X69272Y-42815
X69272Y-43209
X69272Y-43602
X69272Y-43996
X69272Y-44390
X69272Y-44783
X69272Y-45177
X69272Y-45571
X69390Y-26673
X69390Y-27461
X69390Y-28248
X69390Y-29035
X69390Y-29823
X69390Y-30610
X69390Y-39862
X69390Y-40650
X69390Y-41437
X69390Y-42224
X69390Y-48917
X69390Y-49705
X69390Y-50492
X69390Y-51280
X69390Y-52067
X69390Y-52854
X69469Y-31909
X69469Y-32303
X69469Y-32697
X69469Y-33091
X69469Y-33484
X69469Y-33878
X69469Y-34272
X69469Y-34665
X69469Y-42618
X69469Y-43012
X69469Y-43406
X69469Y-43799
X69469Y-44193
X69469Y-44587
X69469Y-44980
X69469Y-45374
X69587Y-27067
X69587Y-27854
X69587Y-28642
X69587Y-29429
X69587Y-30217
X69587Y-40256
X69587Y-41043
X69587Y-41831
X69587Y-49311
X69587Y-50098
X69587Y-50886
X69587Y-51673
X69587Y-52461
X69665Y-32106
X69665Y-32500
X69665Y-32894
X69665Y-33287
X69665Y-33681
X69665Y-34075
X69665Y-34469
X69665Y-34862
X69665Y-42815
X69665Y-43209
X69665Y-43602
X69665Y-43996
X69665Y-44390
X69665Y-44783
X69665Y-45177
X69665Y-45571
X69783Y-26673
X69783Y-27461
X69783Y-28248
X69783Y-29035
X69783Y-29823
X69783Y-30610
X69783Y-39862
X69783Y-40650
X69783Y-41437
X69783Y-42224
X69783Y-48917
X69783Y-49705
X69783Y-50492
X69783Y-51280
X69783Y-52067
X69783Y-52854
X69862Y-31909
X69862Y-32303
X69862Y-32697
X69862Y-33091
X69862Y-33484
X69862Y-33878
X69862Y-34272
X69862Y-34665
X69862Y-42618
X69862Y-43012
X69862Y-43406
X69862Y-43799
X69862Y-44193
X69862Y-44587
X69862Y-44980
X69862Y-45374
X69980Y-27067
X69980Y-27854
X69980Y-28642
X69980Y-29429
X69980Y-30217
X69980Y-39469
X69980Y-40256
X69980Y-41043
X69980Y-41831
X69980Y-49311
X69980Y-50098
X69980Y-50886
X69980Y-51673
X69980Y-52461
X70059Y-32106
X70059Y-32500
X70059Y-32894
X70059Y-33287
X70059Y-33681
X70059Y-34075
X70059Y-34469
X70059Y-34862
X70059Y-42815
X70059Y-43209
X70059Y-43602
X70059Y-43996
X70059Y-44390
X70059Y-44783
X70059Y-45177
X70059Y-45571
X70177Y-26673
X70177Y-27461
X70177Y-28248
X70177Y-29035
X70177Y-29823
X70177Y-30610
X70177Y-39075
X70177Y-39862
X70177Y-40650
X70177Y-41437
X70177Y-42224
X70177Y-48917
X70177Y-49705
X70177Y-50492
X70177Y-51280
X70177Y-52067
X70177Y-52854
X70256Y-31909
X70256Y-32303
X70256Y-32697
X70256Y-33091
X70256Y-33484
X70256Y-33878
X70256Y-34272
X70256Y-34665
X70256Y-42618
X70256Y-43012
X70256Y-43406
X70256Y-43799
X70256Y-44193
X70256Y-44587
X70256Y-44980
X70256Y-45374
X70374Y-27067
X70374Y-27854
X70374Y-28642
X70374Y-29429
X70374Y-30217
X70374Y-39469
X70374Y-40256
X70374Y-41043
X70374Y-41831
X70374Y-49311
X70374Y-50098
X70374Y-50886
X70374Y-51673
X70374Y-52461
X70453Y-32106
X70453Y-32500
X70453Y-32894
X70453Y-33287
X70453Y-33681
X70453Y-34075
X70453Y-34469
X70453Y-34862
X70453Y-42815
X70453Y-43209
X70453Y-43602
X70453Y-43996
X70453Y-44390
X70453Y-44783
X70453Y-45177
X70453Y-45571
X70492Y-46811
X70493Y-36102
X70571Y-26673
X70571Y-27461
X70571Y-28248
X70571Y-29035
X70571Y-29823
X70571Y-30610
X70571Y-39075
X70571Y-39862
X70571Y-40650
X70571Y-41437
X70571Y-42224
X70571Y-48917
X70571Y-49705
X70571Y-50492
X70571Y-51280
X70571Y-52067
X70571Y-52854
X70650Y-31909
X70650Y-32303
X70650Y-32697
X70650Y-33091
X70650Y-33484
X70650Y-33878
X70650Y-34272
X70650Y-34665
X70650Y-42618
X70650Y-43012
X70650Y-43406
X70650Y-43799
X70650Y-44193
X70650Y-44587
X70650Y-44980
X70650Y-45374
X70768Y-27067
X70768Y-27854
X70768Y-28642
X70768Y-29429
X70768Y-30217
X70768Y-38681
X70768Y-39469
X70768Y-40256
X70768Y-41043
X70768Y-41831
X70768Y-49311
X70768Y-50098
X70768Y-50886
X70768Y-51673
X70768Y-52461
X70846Y-32106
X70846Y-32500
X70846Y-32894
X70846Y-33287
X70846Y-33681
X70846Y-34075
X70846Y-34469
X70846Y-34862
X70846Y-42815
X70846Y-43209
X70846Y-43602
X70846Y-43996
X70846Y-44390
X70846Y-44783
X70846Y-45177
X70846Y-45571
X70965Y-26673
X70965Y-27461
X70965Y-28248
X70965Y-29035
X70965Y-29823
X70965Y-30610
X70965Y-38287
X70965Y-39075
X70965Y-39862
X70965Y-40650
X70965Y-41437
X70965Y-42224
X70965Y-48917
X70965Y-49705
X70965Y-50492
X70965Y-51280
X70965Y-52067
X70965Y-52854
X71043Y-31909
X71043Y-32303
X71043Y-32697
X71043Y-33091
X71043Y-33484
X71043Y-33878
X71043Y-34272
X71043Y-34665
X71043Y-42618
X71043Y-43012
X71043Y-43406
X71043Y-43799
X71043Y-44193
X71043Y-44587
X71043Y-44980
X71043Y-45374
X71161Y-27067
X71161Y-27854
X71161Y-28642
X71161Y-29429
X71161Y-30217
X71161Y-37894
X71161Y-38681
X71161Y-39469
X71161Y-40256
X71161Y-41043
X71161Y-41831
X71161Y-49311
X71161Y-50098
X71161Y-50886
X71161Y-51673
X71161Y-52461
X71240Y-32106
X71240Y-32500
X71240Y-32894
X71240Y-33287
X71240Y-33681
X71240Y-34075
X71240Y-34469
X71240Y-34862
X71240Y-42815
X71240Y-43209
X71240Y-43602
X71240Y-43996
X71240Y-44390
X71240Y-44783
X71240Y-45177
X71240Y-45571
X71358Y-26673
X71358Y-27461
X71358Y-29035
X71358Y-29823
X71358Y-30610
X71358Y-38287
X71358Y-39075
X71358Y-39862
X71358Y-40650
X71358Y-41437
X71358Y-42224
X71358Y-48917
X71358Y-49705
X71358Y-50492
X71358Y-52067
X71358Y-52854
X71437Y-31909
X71437Y-32303
X71437Y-32697
X71437Y-33091
X71437Y-33484
X71437Y-33878
X71437Y-34272
X71437Y-34665
X71437Y-42618
X71437Y-43012
X71437Y-43406
X71437Y-43799
X71437Y-44193
X71437Y-44587
X71437Y-44980
X71437Y-45374
X71555Y-27067
X71555Y-29429
X71555Y-30217
X71555Y-37894
X71555Y-38681
X71555Y-39469
X71555Y-40256
X71555Y-41043
X71555Y-41831
X71555Y-49311
X71555Y-50098
X71555Y-52461
X71634Y-32106
X71634Y-32500
X71634Y-32894
X71634Y-33287
X71634Y-33681
X71634Y-34075
X71634Y-34469
X71634Y-34862
X71634Y-42815
X71634Y-43209
X71634Y-43602
X71634Y-43996
X71634Y-44390
X71634Y-44783
X71634Y-45177
X71634Y-45571
X71752Y-26673
X71752Y-29823
X71752Y-30610
X71752Y-38287
X71752Y-39075
X71752Y-39862
X71752Y-40650
X71752Y-41437
X71752Y-42224
X71752Y-48917
X71752Y-49705
X71752Y-52854
X71831Y-31909
X71831Y-32303
X71831Y-32697
X71831Y-33091
X71831Y-33484
X71831Y-33878
X71831Y-34272
X71831Y-34665
X71831Y-42618
X71831Y-43012
X71831Y-43406
X71831Y-43799
X71831Y-44193
X71831Y-44587
X71831Y-44980
X71831Y-45374
X71949Y-29429
X71949Y-30217
X71949Y-37894
X71949Y-38681
X71949Y-39469
X71949Y-40256
X71949Y-41043
X71949Y-41831
X71949Y-49311
X71949Y-50098
X72028Y-32106
X72028Y-33681
X72028Y-34075
X72028Y-34469
X72028Y-34862
X72028Y-42815
X72028Y-44390
X72028Y-44783
X72028Y-45177
X72028Y-45571
X72146Y-26673
X72146Y-29823
X72146Y-30610
X72146Y-38287
X72146Y-39075
X72146Y-39862
X72146Y-40650
X72146Y-41437
X72146Y-42224
X72146Y-48917
X72146Y-49705
X72146Y-52854
X72224Y-31909
X72224Y-32303
X72224Y-42618
X72224Y-43012
X72343Y-29429
X72343Y-30217
X72343Y-37894
X72343Y-38681
X72343Y-39469
X72343Y-40256
X72343Y-41043
X72343Y-41831
X72343Y-49311
X72343Y-50098
X72539Y-26673
X72539Y-29823
X72539Y-30610
X72539Y-38287
X72539Y-39075
X72539Y-39862
X72539Y-40650
X72539Y-41437
X72539Y-42224
X72539Y-48917
X72539Y-49705
X72539Y-52854
X72697Y-47205
X72707Y-36496
X72736Y-29429
X72736Y-30217
X72736Y-37894
X72736Y-38681
X72736Y-39469
X72736Y-40256
X72736Y-41043
X72736Y-41831
X72736Y-49311
X72736Y-50098
X72884Y-31909
X72884Y-32303
X72884Y-42618
X72884Y-43012
X72933Y-26673
X72933Y-29823
X72933Y-30610
X72933Y-38287
X72933Y-39075
X72933Y-39862
X72933Y-40650
X72933Y-41437
X72933Y-42224
X72933Y-48917
X72933Y-49705
X72933Y-52854
X73031Y-27067
X73031Y-52461
X73081Y-32106
X73081Y-33681
X73081Y-34075
X73081Y-34469
X73081Y-34862
X73081Y-42815
X73081Y-44390
X73081Y-44783
X73081Y-45177
X73081Y-45571
X73130Y-29429
X73130Y-30217
X73130Y-37894
X73130Y-38681
X73130Y-39469
X73130Y-40256
X73130Y-41043
X73130Y-41831
X73130Y-49311
X73130Y-50098
X73228Y-27461
X73228Y-52067
X73278Y-31909
X73278Y-32303
X73278Y-32697
X73278Y-33091
X73278Y-33484
X73278Y-33878
X73278Y-34272
X73278Y-34665
X73278Y-42618
X73278Y-43012
X73278Y-43406
X73278Y-43799
X73278Y-44193
X73278Y-44587
X73278Y-44980
X73278Y-45374
X73327Y-26673
X73327Y-29823
X73327Y-30610
X73327Y-38287
X73327Y-39075
X73327Y-39862
X73327Y-40650
X73327Y-41437
X73327Y-42224
X73327Y-48917
X73327Y-49705
X73327Y-52854
X73425Y-27067
X73425Y-27854
X73425Y-28642
X73425Y-50886
X73425Y-51673
X73425Y-52461
X73474Y-32106
X73474Y-32500
X73474Y-32894
X73474Y-33287
X73474Y-33681
X73474Y-34075
X73474Y-34469
X73474Y-34862
X73474Y-42815
X73474Y-43209
X73474Y-43602
X73474Y-43996
X73474Y-44390
X73474Y-44783
X73474Y-45177
X73474Y-45571
X73524Y-29429
X73524Y-30217
X73524Y-37894
X73524Y-38681
X73524Y-39469
X73524Y-40256
X73524Y-41043
X73524Y-41831
X73524Y-49311
X73524Y-50098
X73622Y-27461
X73622Y-28248
X73622Y-29035
X73622Y-50492
X73622Y-51280
X73622Y-52067
X73671Y-31909
X73671Y-32303
X73671Y-32697
X73671Y-33091
X73671Y-33484
X73671Y-33878
X73671Y-34272
X73671Y-34665
X73671Y-42618
X73671Y-43012
X73671Y-43406
X73671Y-43799
X73671Y-44193
X73671Y-44587
X73671Y-44980
X73671Y-45374
X73720Y-26673
X73720Y-29823
X73720Y-30610
X73720Y-38287
X73720Y-39075
X73720Y-39862
X73720Y-40650
X73720Y-41437
X73720Y-42224
X73720Y-48917
X73720Y-49705
X73720Y-52854
X73819Y-27067
X73819Y-27854
X73819Y-28642
X73819Y-50886
X73819Y-51673
X73819Y-52461
X73868Y-32106
X73868Y-32500
X73868Y-32894
X73868Y-33287
X73868Y-33681
X73868Y-34075
X73868Y-34469
X73868Y-34862
X73868Y-42815
X73868Y-43209
X73868Y-43602
X73868Y-43996
X73868Y-44390
X73868Y-44783
X73868Y-45177
X73868Y-45571
X73917Y-29429
X73917Y-30217
X73917Y-37894
X73917Y-38681
X73917Y-39469
X73917Y-40256
X73917Y-41043
X73917Y-41831
X73917Y-49311
X73917Y-50098
X74016Y-27461
X74016Y-28248
X74016Y-29035
X74016Y-50492
X74016Y-51280
X74016Y-52067
X74065Y-31909
X74065Y-32303
X74065Y-32697
X74065Y-33091
X74065Y-33484
X74065Y-33878
X74065Y-34272
X74065Y-34665
X74065Y-42618
X74065Y-43012
X74065Y-43406
X74065Y-43799
X74065Y-44193
X74065Y-44587
X74065Y-44980
X74065Y-45374
X74114Y-26673
X74114Y-29823
X74114Y-30610
X74114Y-38287
X74114Y-39075
X74114Y-39862
X74114Y-40650
X74114Y-41437
X74114Y-42224
X74114Y-48917
X74114Y-49705
X74114Y-52854
X74213Y-27067
X74213Y-27854
X74213Y-28642
X74213Y-50886
X74213Y-51673
X74213Y-52461
X74262Y-32106
X74262Y-32500
X74262Y-32894
X74262Y-33287
X74262Y-33681
X74262Y-34075
X74262Y-34469
X74262Y-34862
X74262Y-42815
X74262Y-43209
X74262Y-43602
X74262Y-43996
X74262Y-44390
X74262Y-44783
X74262Y-45177
X74262Y-45571
X74311Y-29429
X74311Y-30217
X74311Y-37894
X74311Y-38681
X74311Y-39469
X74311Y-40256
X74311Y-41043
X74311Y-41831
X74311Y-49311
X74311Y-50098
X74409Y-27461
X74409Y-28248
X74409Y-29035
X74409Y-50492
X74409Y-51280
X74409Y-52067
X74459Y-31909
X74459Y-32303
X74459Y-32697
X74459Y-33091
X74459Y-33484
X74459Y-33878
X74459Y-34272
X74459Y-34665
X74459Y-42618
X74459Y-43012
X74459Y-43406
X74459Y-43799
X74459Y-44193
X74459Y-44587
X74459Y-44980
X74459Y-45374
X74508Y-26673
X74508Y-29823
X74508Y-30610
X74508Y-38287
X74508Y-39075
X74508Y-39862
X74508Y-40650
X74508Y-41437
X74508Y-42224
X74508Y-48917
X74508Y-49705
X74508Y-52854
X74606Y-27067
X74606Y-27854
X74606Y-28642
X74606Y-50886
X74606Y-51673
X74606Y-52461
X74656Y-32106
X74656Y-32500
X74656Y-32894
X74656Y-33287
X74656Y-33681
X74656Y-34075
X74656Y-34469
X74656Y-34862
X74656Y-42815
X74656Y-43209
X74656Y-43602
X74656Y-43996
X74656Y-44390
X74656Y-44783
X74656Y-45177
X74656Y-45571
X74705Y-29429
X74705Y-30217
X74705Y-37894
X74705Y-38681
X74705Y-39469
X74705Y-40256
X74705Y-41043
X74705Y-41831
X74705Y-49311
X74705Y-50098
X74803Y-27461
X74803Y-28248
X74803Y-29035
X74803Y-50492
X74803Y-51280
X74803Y-52067
X74852Y-31909
X74852Y-32303
X74852Y-32697
X74852Y-33091
X74852Y-33484
X74852Y-33878
X74852Y-34272
X74852Y-34665
X74852Y-42618
X74852Y-43012
X74852Y-43406
X74852Y-43799
X74852Y-44193
X74852Y-44587
X74852Y-44980
X74852Y-45374
X74902Y-26673
X74902Y-29823
X74902Y-30610
X74902Y-38287
X74902Y-39075
X74902Y-39862
X74902Y-40650
X74902Y-41437
X74902Y-42224
X74902Y-48917
X74902Y-49705
X74902Y-52854
X75000Y-27067
X75000Y-27854
X75000Y-28642
X75000Y-50886
X75000Y-51673
X75000Y-52461
X75049Y-32106
X75049Y-32500
X75049Y-32894
X75049Y-33287
X75049Y-33681
X75049Y-34075
X75049Y-34469
X75049Y-34862
X75049Y-42815
X75049Y-43209
X75049Y-43602
X75049Y-43996
X75049Y-44390
X75049Y-44783
X75049Y-45177
X75049Y-45571
X75089Y-36102
X75089Y-46810
X75098Y-29429
X75098Y-30217
X75098Y-37894
X75098Y-38681
X75098Y-39469
X75098Y-40256
X75098Y-41043
X75098Y-41831
X75098Y-49311
X75098Y-50098
X75197Y-27461
X75197Y-28248
X75197Y-29035
X75197Y-50492
X75197Y-51280
X75197Y-52067
X75246Y-31909
X75246Y-32303
X75246Y-32697
X75246Y-33091
X75246Y-33484
X75246Y-33878
X75246Y-34272
X75246Y-34665
X75246Y-42618
X75246Y-43012
X75246Y-43406
X75246Y-43799
X75246Y-44193
X75246Y-44587
X75246Y-44980
X75246Y-45374
X75295Y-26673
X75295Y-29823
X75295Y-30610
X75295Y-38287
X75295Y-39075
X75295Y-39862
X75295Y-40650
X75295Y-41437
X75295Y-42224
X75295Y-48917
X75295Y-49705
X75295Y-52854
X75394Y-27067
X75394Y-27854
X75394Y-28642
X75394Y-50886
X75394Y-51673
X75394Y-52461
X75443Y-32106
X75443Y-32500
X75443Y-32894
X75443Y-33287
X75443Y-33681
X75443Y-34075
X75443Y-34469
X75443Y-34862
X75443Y-42815
X75443Y-43209
X75443Y-43602
X75443Y-43996
X75443Y-44390
X75443Y-44783
X75443Y-45177
X75443Y-45571
X75492Y-29429
X75492Y-30217
X75492Y-37894
X75492Y-38681
X75492Y-39469
X75492Y-40256
X75492Y-41043
X75492Y-41831
X75492Y-49311
X75492Y-50098
X75591Y-27461
X75591Y-28248
X75591Y-29035
X75591Y-50492
X75591Y-51280
X75591Y-52067
X75640Y-31909
X75640Y-32303
X75640Y-32697
X75640Y-33091
X75640Y-33484
X75640Y-33878
X75640Y-34272
X75640Y-34665
X75640Y-42618
X75640Y-43012
X75640Y-43406
X75640Y-43799
X75640Y-44193
X75640Y-44587
X75640Y-44980
X75640Y-45374
X75689Y-26673
X75689Y-29823
X75689Y-30610
X75689Y-38287
X75689Y-39075
X75689Y-39862
X75689Y-40650
X75689Y-41437
X75689Y-42224
X75689Y-48917
X75689Y-49705
X75689Y-52854
X75787Y-27067
X75787Y-27854
X75787Y-28642
X75787Y-50886
X75787Y-51673
X75787Y-52461
X75837Y-32106
X75837Y-32500
X75837Y-32894
X75837Y-33287
X75837Y-33681
X75837Y-34075
X75837Y-34469
X75837Y-34862
X75837Y-42815
X75837Y-43209
X75837Y-43602
X75837Y-43996
X75837Y-44390
X75837Y-44783
X75837Y-45177
X75837Y-45571
X75886Y-29429
X75886Y-30217
X75886Y-37894
X75886Y-38681
X75886Y-39469
X75886Y-40256
X75886Y-41043
X75886Y-41831
X75886Y-49311
X75886Y-50098
X75984Y-27461
X75984Y-28248
X75984Y-29035
X75984Y-50492
X75984Y-51280
X75984Y-52067
X76033Y-31909
X76033Y-32303
X76033Y-32697
X76033Y-33091
X76033Y-33484
X76033Y-33878
X76033Y-34272
X76033Y-34665
X76033Y-42618
X76033Y-43012
X76033Y-43406
X76033Y-43799
X76033Y-44193
X76033Y-44587
X76033Y-44980
X76033Y-45374
X76083Y-26673
X76083Y-29823
X76083Y-30610
X76083Y-38287
X76083Y-39075
X76083Y-39862
X76083Y-40650
X76083Y-41437
X76083Y-42224
X76083Y-48917
X76083Y-49705
X76083Y-52854
X76230Y-32106
X76230Y-32500
X76230Y-32894
X76230Y-33287
X76230Y-33681
X76230Y-34075
X76230Y-34469
X76230Y-34862
X76230Y-42815
X76230Y-43209
X76230Y-43602
X76230Y-43996
X76230Y-44390
X76230Y-44783
X76230Y-45177
X76230Y-45571
X76280Y-27067
X76280Y-29429
X76280Y-30217
X76280Y-37894
X76280Y-38681
X76280Y-39469
X76280Y-40256
X76280Y-41043
X76280Y-41831
X76280Y-49311
X76280Y-50098
X76280Y-52461
X76427Y-31909
X76427Y-32303
X76427Y-32697
X76427Y-33091
X76427Y-33484
X76427Y-33878
X76427Y-34272
X76427Y-34665
X76427Y-42618
X76427Y-43012
X76427Y-43406
X76427Y-43799
X76427Y-44193
X76427Y-44587
X76427Y-44980
X76427Y-45374
X76476Y-26673
X76476Y-29823
X76476Y-30610
X76476Y-38287
X76476Y-39075
X76476Y-39862
X76476Y-40650
X76476Y-41437
X76476Y-42224
X76476Y-48917
X76476Y-49705
X76476Y-52854
X76624Y-32106
X76624Y-33681
X76624Y-34075
X76624Y-34469
X76624Y-34862
X76624Y-42815
X76624Y-44390
X76624Y-44783
X76624Y-45177
X76624Y-45571
X76673Y-29429
X76673Y-30217
X76673Y-37894
X76673Y-38681
X76673Y-39469
X76673Y-40256
X76673Y-41043
X76673Y-41831
X76673Y-49311
X76673Y-50098
X76821Y-31909
X76821Y-32303
X76821Y-42618
X76821Y-43012
X76870Y-26673
X76870Y-29823
X76870Y-30610
X76870Y-38287
X76870Y-39075
X76870Y-39862
X76870Y-40650
X76870Y-41437
X76870Y-42224
X76870Y-48917
X76870Y-49705
X76870Y-52854
X77067Y-29429
X77067Y-30217
X77067Y-37894
X77067Y-38681
X77067Y-39469
X77067Y-40256
X77067Y-41043
X77067Y-41831
X77067Y-49311
X77067Y-50098
X77264Y-26673
X77264Y-29823
X77264Y-30610
X77264Y-38287
X77264Y-39075
X77264Y-39862
X77264Y-40650
X77264Y-41437
X77264Y-42224
X77264Y-48917
X77264Y-49705
X77264Y-52854
X77303Y-36496
X77303Y-47205
X77461Y-29429
X77461Y-30217
X77461Y-37894
X77461Y-38681
X77461Y-39469
X77461Y-40256
X77461Y-41043
X77461Y-41831
X77461Y-49311
X77461Y-50098
X77480Y-31909
X77480Y-32303
X77480Y-42618
X77480Y-43012
X77657Y-26673
X77657Y-29823
X77657Y-30610
X77657Y-38287
X77657Y-39075
X77657Y-39862
X77657Y-40650
X77657Y-41437
X77657Y-42224
X77657Y-48917
X77657Y-49705
X77657Y-52854
X77677Y-32106
X77677Y-33681
X77677Y-34075
X77677Y-34469
X77677Y-34862
X77677Y-42815
X77677Y-44390
X77677Y-44783
X77677Y-45177
X77677Y-45571
X77854Y-27067
X77854Y-29429
X77854Y-30217
X77854Y-37894
X77854Y-38681
X77854Y-39469
X77854Y-40256
X77854Y-41043
X77854Y-41831
X77854Y-49311
X77854Y-50098
X77854Y-52461
X77874Y-31909
X77874Y-32303
X77874Y-32697
X77874Y-33091
X77874Y-33484
X77874Y-33878
X77874Y-34272
X77874Y-34665
X77874Y-42618
X77874Y-43012
X77874Y-43406
X77874Y-43799
X77874Y-44193
X77874Y-44587
X77874Y-44980
X77874Y-45374
X78051Y-26673
X78051Y-27461
X78051Y-28248
X78051Y-29035
X78051Y-29823
X78051Y-30610
X78051Y-38287
X78051Y-39075
X78051Y-39862
X78051Y-40650
X78051Y-41437
X78051Y-42224
X78051Y-48917
X78051Y-49705
X78051Y-50492
X78051Y-51280
X78051Y-52067
X78051Y-52854
X78071Y-32106
X78071Y-32500
X78071Y-32894
X78071Y-33287
X78071Y-33681
X78071Y-34075
X78071Y-34469
X78071Y-34862
X78071Y-42815
X78071Y-43209
X78071Y-43602
X78071Y-43996
X78071Y-44390
X78071Y-44783
X78071Y-45177
X78071Y-45571
X78248Y-27067
X78248Y-27854
X78248Y-28642
X78248Y-29429
X78248Y-30217
X78248Y-37894
X78248Y-38681
X78248Y-39469
X78248Y-40256
X78248Y-41043
X78248Y-41831
X78248Y-49311
X78248Y-50098
X78248Y-50886
X78248Y-51673
X78248Y-52461
X78268Y-31909
X78268Y-32303
X78268Y-32697
X78268Y-33091
X78268Y-33484
X78268Y-33878
X78268Y-34272
X78268Y-34665
X78268Y-42618
X78268Y-43012
X78268Y-43406
X78268Y-43799
X78268Y-44193
X78268Y-44587
X78268Y-44980
X78268Y-45374
X78445Y-26673
X78445Y-27461
X78445Y-28248
X78445Y-29035
X78445Y-29823
X78445Y-30610
X78445Y-38287
X78445Y-39075
X78445Y-39862
X78445Y-40650
X78445Y-41437
X78445Y-42224
X78445Y-48917
X78445Y-49705
X78445Y-50492
X78445Y-51280
X78445Y-52067
X78445Y-52854
X78465Y-32106
X78465Y-32500
X78465Y-32894
X78465Y-33287
X78465Y-33681
X78465Y-34075
X78465Y-34469
X78465Y-34862
X78465Y-42815
X78465Y-43209
X78465Y-43602
X78465Y-43996
X78465Y-44390
X78465Y-44783
X78465Y-45177
X78465Y-45571
X78642Y-27067
X78642Y-27854
X78642Y-28642
X78642Y-29429
X78642Y-30217
X78642Y-37894
X78642Y-38681
X78642Y-39469
X78642Y-40256
X78642Y-41043
X78642Y-41831
X78642Y-49311
X78642Y-50098
X78642Y-50886
X78642Y-51673
X78642Y-52461
X78661Y-31909
X78661Y-32303
X78661Y-32697
X78661Y-33091
X78661Y-33484
X78661Y-33878
X78661Y-34272
X78661Y-34665
X78661Y-42618
X78661Y-43012
X78661Y-43406
X78661Y-43799
X78661Y-44193
X78661Y-44587
X78661Y-44980
X78661Y-45374
X78839Y-26673
X78839Y-27461
X78839Y-28248
X78839Y-29035
X78839Y-29823
X78839Y-30610
X78839Y-38287
X78839Y-39075
X78839Y-39862
X78839Y-40650
X78839Y-41437
X78839Y-42224
X78839Y-48917
X78839Y-49705
X78839Y-50492
X78839Y-51280
X78839Y-52067
X78839Y-52854
X78858Y-32106
X78858Y-32500
X78858Y-32894
X78858Y-33287
X78858Y-33681
X78858Y-34075
X78858Y-34469
X78858Y-34862
X78858Y-42815
X78858Y-43209
X78858Y-43602
X78858Y-43996
X78858Y-44390
X78858Y-44783
X78858Y-45177
X78858Y-45571
X79035Y-27067
X79035Y-27854
X79035Y-28642
X79035Y-29429
X79035Y-30217
X79035Y-37894
X79035Y-38681
X79035Y-39469
X79035Y-40256
X79035Y-41043
X79035Y-41831
X79035Y-49311
X79035Y-50098
X79035Y-50886
X79035Y-51673
X79035Y-52461
X79055Y-31909
X79055Y-32303
X79055Y-32697
X79055Y-33091
X79055Y-33484
X79055Y-33878
X79055Y-34272
X79055Y-34665
X79055Y-42618
X79055Y-43012
X79055Y-43406
X79055Y-43799
X79055Y-44193
X79055Y-44587
X79055Y-44980
X79055Y-45374
X79232Y-26673
X79232Y-27461
X79232Y-28248
X79232Y-29035
X79232Y-29823
X79232Y-30610
X79232Y-38287
X79232Y-39075
X79232Y-39862
X79232Y-40650
X79232Y-41437
X79232Y-42224
X79232Y-48917
X79232Y-49705
X79232Y-50492
X79232Y-51280
X79232Y-52067
X79232Y-52854
X79252Y-32106
X79252Y-32500
X79252Y-32894
X79252Y-33287
X79252Y-33681
X79252Y-34075
X79252Y-34469
X79252Y-34862
X79252Y-42815
X79252Y-43209
X79252Y-43602
X79252Y-43996
X79252Y-44390
X79252Y-44783
X79252Y-45177
X79252Y-45571
X79429Y-27067
X79429Y-27854
X79429Y-28642
X79429Y-29429
X79429Y-30217
X79429Y-37894
X79429Y-38681
X79429Y-39469
X79429Y-40256
X79429Y-41043
X79429Y-41831
X79429Y-49311
X79429Y-50098
X79429Y-50886
X79429Y-51673
X79429Y-52461
X79449Y-31909
X79449Y-32303
X79449Y-32697
X79449Y-33091
X79449Y-33484
X79449Y-33878
X79449Y-34272
X79449Y-34665
X79449Y-42618
X79449Y-43012
X79449Y-43406
X79449Y-43799
X79449Y-44193
X79449Y-44587
X79449Y-44980
X79449Y-45374
X79626Y-26673
X79626Y-27461
X79626Y-28248
X79626Y-29035
X79626Y-29823
X79626Y-30610
X79626Y-38287
X79626Y-39075
X79626Y-39862
X79626Y-40650
X79626Y-41437
X79626Y-42224
X79626Y-48917
X79626Y-49705
X79626Y-50492
X79626Y-51280
X79626Y-52067
X79626Y-52854
X79646Y-32106
X79646Y-32500
X79646Y-32894
X79646Y-33287
X79646Y-33681
X79646Y-34075
X79646Y-34469
X79646Y-34862
X79646Y-42815
X79646Y-43209
X79646Y-43602
X79646Y-43996
X79646Y-44390
X79646Y-44783
X79646Y-45177
X79646Y-45571
X79685Y-36102
X79686Y-46810
X79823Y-27067
X79823Y-27854
X79823Y-28642
X79823Y-29429
X79823Y-30217
X79823Y-37894
X79823Y-38681
X79823Y-39469
X79823Y-40256
X79823Y-41043
X79823Y-41831
X79823Y-49311
X79823Y-50098
X79823Y-50886
X79823Y-51673
X79823Y-52461
X79843Y-31909
X79843Y-32303
X79843Y-32697
X79843Y-33091
X79843Y-33484
X79843Y-33878
X79843Y-34272
X79843Y-34665
X79843Y-42618
X79843Y-43012
X79843Y-43406
X79843Y-43799
X79843Y-44193
X79843Y-44587
X79843Y-44980
X79843Y-45374
X80020Y-26673
X80020Y-27461
X80020Y-28248
X80020Y-29035
X80020Y-29823
X80020Y-30610
X80020Y-38287
X80020Y-39075
X80020Y-39862
X80020Y-40650
X80020Y-41437
X80020Y-42224
X80020Y-48917
X80020Y-49705
X80020Y-50492
X80020Y-51280
X80020Y-52067
X80020Y-52854
X80039Y-32106
X80039Y-32500
X80039Y-32894
X80039Y-33287
X80039Y-33681
X80039Y-34075
X80039Y-34469
X80039Y-34862
X80039Y-42815
X80039Y-43209
X80039Y-43602
X80039Y-43996
X80039Y-44390
X80039Y-44783
X80039Y-45177
X80039Y-45571
X80217Y-27067
X80217Y-27854
X80217Y-28642
X80217Y-29429
X80217Y-30217
X80217Y-37894
X80217Y-38681
X80217Y-39469
X80217Y-40256
X80217Y-41043
X80217Y-41831
X80217Y-49311
X80217Y-50098
X80217Y-50886
X80217Y-51673
X80217Y-52461
X80236Y-31909
X80236Y-32303
X80236Y-32697
X80236Y-33091
X80236Y-33484
X80236Y-33878
X80236Y-34272
X80236Y-34665
X80236Y-42618
X80236Y-43012
X80236Y-43406
X80236Y-43799
X80236Y-44193
X80236Y-44587
X80236Y-44980
X80236Y-45374
X80413Y-26673
X80413Y-27461
X80413Y-28248
X80413Y-29035
X80413Y-29823
X80413Y-30610
X80413Y-38287
X80413Y-39075
X80413Y-39862
X80413Y-40650
X80413Y-41437
X80413Y-42224
X80413Y-48917
X80413Y-49705
X80413Y-50492
X80413Y-51280
X80413Y-52067
X80413Y-52854
X80433Y-32106
X80433Y-32500
X80433Y-32894
X80433Y-33287
X80433Y-33681
X80433Y-34075
X80433Y-34469
X80433Y-34862
X80433Y-42815
X80433Y-43209
X80433Y-43602
X80433Y-43996
X80433Y-44390
X80433Y-44783
X80433Y-45177
X80433Y-45571
X80610Y-27067
X80610Y-27854
X80610Y-28642
X80610Y-29429
X80610Y-30217
X80610Y-37894
X80610Y-38681
X80610Y-39469
X80610Y-40256
X80610Y-41043
X80610Y-41831
X80610Y-49311
X80610Y-50098
X80610Y-50886
X80610Y-51673
X80610Y-52461
X80630Y-31909
X80630Y-32303
X80630Y-32697
X80630Y-33091
X80630Y-33484
X80630Y-33878
X80630Y-34272
X80630Y-34665
X80630Y-42618
X80630Y-43012
X80630Y-43406
X80630Y-43799
X80630Y-44193
X80630Y-44587
X80630Y-44980
X80630Y-45374
X80807Y-26673
X80807Y-29823
X80807Y-30610
X80807Y-38287
X80807Y-39075
X80807Y-39862
X80807Y-40650
X80807Y-41437
X80807Y-42224
X80807Y-48917
X80807Y-49705
X80807Y-52854
X80827Y-32106
X80827Y-32500
X80827Y-32894
X80827Y-33287
X80827Y-33681
X80827Y-34075
X80827Y-34469
X80827Y-34862
X80827Y-42815
X80827Y-43209
X80827Y-43602
X80827Y-43996
X80827Y-44390
X80827Y-44783
X80827Y-45177
X80827Y-45571
X81004Y-29429
X81004Y-30217
X81004Y-37894
X81004Y-38681
X81004Y-39469
X81004Y-40256
X81004Y-41043
X81004Y-41831
X81004Y-49311
X81004Y-50098
X81024Y-31909
X81024Y-32303
X81024Y-32697
X81024Y-33091
X81024Y-33484
X81024Y-33878
X81024Y-34272
X81024Y-34665
X81024Y-42618
X81024Y-43012
X81024Y-43406
X81024Y-43799
X81024Y-44193
X81024Y-44587
X81024Y-44980
X81024Y-45374
X81201Y-26673
X81201Y-29823
X81201Y-30610
X81201Y-38287
X81201Y-39075
X81201Y-39862
X81201Y-40650
X81201Y-41437
X81201Y-42224
X81201Y-48917
X81201Y-49705
X81201Y-52854
X81220Y-32106
X81220Y-33681
X81220Y-34075
X81220Y-34469
X81220Y-34862
X81220Y-42815
X81220Y-44390
X81220Y-44783
X81220Y-45177
X81220Y-45571
X81398Y-29429
X81398Y-30217
X81398Y-37894
X81398Y-38681
X81398Y-39469
X81398Y-40256
X81398Y-41043
X81398Y-41831
X81398Y-49311
X81398Y-50098
X81417Y-31909
X81417Y-32303
X81417Y-42618
X81417Y-43012
X81594Y-26673
X81594Y-29823
X81594Y-30610
X81594Y-38287
X81594Y-39075
X81594Y-39862
X81594Y-40650
X81594Y-41437
X81594Y-42224
X81594Y-48917
X81594Y-49705
X81594Y-52854
X81791Y-29429
X81791Y-30217
X81791Y-37894
X81791Y-38681
X81791Y-39469
X81791Y-40256
X81791Y-41043
X81791Y-41831
X81791Y-49311
X81791Y-50098
X81988Y-26673
X81988Y-29823
X81988Y-30610
X81988Y-38287
X81988Y-39075
X81988Y-39862
X81988Y-40650
X81988Y-41437
X81988Y-48917
X81988Y-49705
X81988Y-52854
X82185Y-29429
X82185Y-30217
X82185Y-37894
X82185Y-38681
X82185Y-39469
X82185Y-40256
X82185Y-41043
X82185Y-41831
X82185Y-49311
X82185Y-50098
X82382Y-26673
X82382Y-29035
X82382Y-29823
X82382Y-30610
X82382Y-38287
X82382Y-39075
X82382Y-39862
X82382Y-40650
X82382Y-41437
X82382Y-48917
X82382Y-49705
X82382Y-50492
X82382Y-52854
X82579Y-27067
X82579Y-27854
X82579Y-28642
X82579Y-29429
X82579Y-30217
X82579Y-37894
X82579Y-38681
X82579Y-39469
X82579Y-40256
X82579Y-41043
X82579Y-41831
X82579Y-49311
X82579Y-50098
X82579Y-50886
X82579Y-51673
X82579Y-52461
X82776Y-26673
X82776Y-27461
X82776Y-28248
X82776Y-29035
X82776Y-29823
X82776Y-30610
X82776Y-38287
X82776Y-39075
X82776Y-39862
X82776Y-40650
X82776Y-41437
X82776Y-48917
X82776Y-49705
X82776Y-50492
X82776Y-51280
X82776Y-52067
X82776Y-52854
X82972Y-27067
X82972Y-27854
X82972Y-28642
X82972Y-29429
X82972Y-30217
X82972Y-37894
X82972Y-38681
X82972Y-39469
X82972Y-40256
X82972Y-41043
X82972Y-41831
X82972Y-49311
X82972Y-50098
X82972Y-50886
X82972Y-51673
X82972Y-52461
X83169Y-26673
X83169Y-27461
X83169Y-28248
X83169Y-29035
X83169Y-29823
X83169Y-30610
X83169Y-38287
X83169Y-39075
X83169Y-39862
X83169Y-40650
X83169Y-41437
X83169Y-48917
X83169Y-49705
X83169Y-50492
X83169Y-51280
X83169Y-52067
X83169Y-52854
X83366Y-27067
X83366Y-27854
X83366Y-28642
X83366Y-29429
X83366Y-30217
X83366Y-37894
X83366Y-38681
X83366Y-39469
X83366Y-40256
X83366Y-41043
X83366Y-41831
X83366Y-49311
X83366Y-50098
X83366Y-50886
X83366Y-51673
X83366Y-52461
X83563Y-26673
X83563Y-27461
X83563Y-28248
X83563Y-29035
X83563Y-29823
X83563Y-30610
X83563Y-38287
X83563Y-39075
X83563Y-39862
X83563Y-40650
X83563Y-41437
X83563Y-48917
X83563Y-49705
X83563Y-50492
X83563Y-51280
X83563Y-52067
X83563Y-52854
X83760Y-27067
X83760Y-27854
X83760Y-28642
X83760Y-29429
X83760Y-30217
X83760Y-37894
X83760Y-38681
X83760Y-39469
X83760Y-40256
X83760Y-41043
X83760Y-41831
X83760Y-49311
X83760Y-50098
X83760Y-50886
X83760Y-51673
X83760Y-52461
X83957Y-26673
X83957Y-27461
X83957Y-28248
X83957Y-29035
X83957Y-29823
X83957Y-30610
X83957Y-38287
X83957Y-39075
X83957Y-39862
X83957Y-40650
X83957Y-41437
X83957Y-48917
X83957Y-49705
X83957Y-50492
X83957Y-51280
X83957Y-52067
X83957Y-52854
X84154Y-27067
X84154Y-27854
X84154Y-28642
X84154Y-29429
X84154Y-30217
X84154Y-37894
X84154Y-38681
X84154Y-39469
X84154Y-40256
X84154Y-41043
X84154Y-41831
X84154Y-49311
X84154Y-50098
X84154Y-50886
X84154Y-51673
X84154Y-52461
X84350Y-26673
X84350Y-27461
X84350Y-28248
X84350Y-29035
X84350Y-29823
X84350Y-30610
X84350Y-38287
X84350Y-39075
X84350Y-39862
X84350Y-40650
X84350Y-41437
X84350Y-48917
X84350Y-49705
X84350Y-50492
X84350Y-51280
X84350Y-52067
X84350Y-52854
X84547Y-27067
X84547Y-27854
X84547Y-28642
X84547Y-29429
X84547Y-30217
X84547Y-37894
X84547Y-38681
X84547Y-39469
X84547Y-40256
X84547Y-41043
X84547Y-41831
X84547Y-49311
X84547Y-50098
X84547Y-50886
X84547Y-51673
X84547Y-52461
X84744Y-26673
X84744Y-27461
X84744Y-28248
X84744Y-29035
X84744Y-29823
X84744Y-30610
X84744Y-38287
X84744Y-39075
X84744Y-39862
X84744Y-40650
X84744Y-41437
X84744Y-48917
X84744Y-49705
X84744Y-50492
X84744Y-51280
X84744Y-52067
X84744Y-52854
X84941Y-27067
X84941Y-27854
X84941Y-28642
X84941Y-29429
X84941Y-30217
X84941Y-37894
X84941Y-38681
X84941Y-39469
X84941Y-40256
X84941Y-41043
X84941Y-41831
X84941Y-49311
X84941Y-50098
X84941Y-50886
X84941Y-51673
X84941Y-52461
X85138Y-26673
X85138Y-27461
X85138Y-28248
X85138Y-29035
X85138Y-29823
X85138Y-30610
X85138Y-38287
X85138Y-39075
X85138Y-39862
X85138Y-40650
X85138Y-41437
X85138Y-48917
X85138Y-49705
X85138Y-50492
X85138Y-51280
X85138Y-52067
X85138Y-52854
X85335Y-27067
X85335Y-29429
X85335Y-30217
X85335Y-37894
X85335Y-38681
X85335Y-39469
X85335Y-40256
X85335Y-41043
X85335Y-41831
X85335Y-49311
X85335Y-50098
X85335Y-52461
X85531Y-26673
X85531Y-29823
X85531Y-30610
X85531Y-38287
X85531Y-39075
X85531Y-39862
X85531Y-40650
X85531Y-41437
X85531Y-48917
X85531Y-49705
X85531Y-52854
X85728Y-29429
X85728Y-30217
X85728Y-37894
X85728Y-38681
X85728Y-39469
X85728Y-40256
X85728Y-41043
X85728Y-41831
X85728Y-49311
X85728Y-50098
X85925Y-26673
X85925Y-29823
X85925Y-30610
X85925Y-38287
X85925Y-39075
X85925Y-39862
X85925Y-40650
X85925Y-41437
X85925Y-48917
X85925Y-49705
X85925Y-52854
X86122Y-29429
X86122Y-30217
X86122Y-37894
X86122Y-38681
X86122Y-39469
X86122Y-40256
X86122Y-41043
X86122Y-41831
X86122Y-49311
X86122Y-50098
X86319Y-26673
X86319Y-29823
X86319Y-30610
X86319Y-38287
X86319Y-39075
X86319Y-39862
X86319Y-40650
X86319Y-41437
X86319Y-48917
X86319Y-49705
X86319Y-52854
X86516Y-29429
X86516Y-30217
X86516Y-37894
X86516Y-38681
X86516Y-39469
X86516Y-40256
X86516Y-41043
X86516Y-41831
X86516Y-49311
X86516Y-50098
X86713Y-26673
X86713Y-29823
X86713Y-30610
X86713Y-38287
X86713Y-39075
X86713Y-39862
X86713Y-40650
X86713Y-41437
X86713Y-48917
X86713Y-49705
X86713Y-52854
X86909Y-29429
X86909Y-30217
X86909Y-37894
X86909Y-38681
X86909Y-39469
X86909Y-40256
X86909Y-41043
X86909Y-41831
X86909Y-49311
X86909Y-50098
X87106Y-26673
X87106Y-29823
X87106Y-30610
X87106Y-38287
X87106Y-39075
X87106Y-39862
X87106Y-40650
X87106Y-41437
X87106Y-48917
X87106Y-49705
X87106Y-52854
T3
X41594Y-28169
X41594Y-51398
X46188Y-28169
X46188Y-51398
X50781Y-28169
X50781Y-51398
X55374Y-28169
X55374Y-51398
X72382Y-28169
X72382Y-51398
X76975Y-28169
X76975Y-51398
X81568Y-28169
X81568Y-51398
X86161Y-28169
X86161Y-51398
T0
M30
