G04 #@! TF.GenerationSoftware,KiCad,Pcbnew,5.1.9*
G04 #@! TF.CreationDate,2021-04-12T14:09:35-03:00*
G04 #@! TF.ProjectId,Switches,53776974-6368-4657-932e-6b696361645f,rev?*
G04 #@! TF.SameCoordinates,Original*
G04 #@! TF.FileFunction,Paste,Bot*
G04 #@! TF.FilePolarity,Positive*
%FSLAX46Y46*%
G04 Gerber Fmt 4.6, Leading zero omitted, Abs format (unit mm)*
G04 Created by KiCad (PCBNEW 5.1.9) date 2021-04-12 14:09:35*
%MOMM*%
%LPD*%
G01*
G04 APERTURE LIST*
%ADD10R,1.100000X1.100000*%
G04 APERTURE END LIST*
D10*
X204100000Y-120000000D03*
X201300000Y-120000000D03*
X192425000Y-120000000D03*
X189625000Y-120000000D03*
X180750000Y-120000000D03*
X177950000Y-120000000D03*
X204100000Y-92800000D03*
X201300000Y-92800000D03*
X192425000Y-92800000D03*
X189625000Y-92800000D03*
X180750000Y-92800000D03*
X177950000Y-92800000D03*
X148350000Y-120000000D03*
X145550000Y-120000000D03*
X136675000Y-120000000D03*
X133875000Y-120000000D03*
X125000000Y-120000000D03*
X122200000Y-120000000D03*
X148350000Y-92800000D03*
X145550000Y-92800000D03*
X136675000Y-92800000D03*
X133875000Y-92800000D03*
X125000000Y-92800000D03*
X122200000Y-92800000D03*
G36*
G01*
X206137500Y-118775000D02*
X205662500Y-118775000D01*
G75*
G02*
X205425000Y-118537500I0J237500D01*
G01*
X205425000Y-118037500D01*
G75*
G02*
X205662500Y-117800000I237500J0D01*
G01*
X206137500Y-117800000D01*
G75*
G02*
X206375000Y-118037500I0J-237500D01*
G01*
X206375000Y-118537500D01*
G75*
G02*
X206137500Y-118775000I-237500J0D01*
G01*
G37*
G36*
G01*
X206137500Y-120600000D02*
X205662500Y-120600000D01*
G75*
G02*
X205425000Y-120362500I0J237500D01*
G01*
X205425000Y-119862500D01*
G75*
G02*
X205662500Y-119625000I237500J0D01*
G01*
X206137500Y-119625000D01*
G75*
G02*
X206375000Y-119862500I0J-237500D01*
G01*
X206375000Y-120362500D01*
G75*
G02*
X206137500Y-120600000I-237500J0D01*
G01*
G37*
G36*
G01*
X194462500Y-118775000D02*
X193987500Y-118775000D01*
G75*
G02*
X193750000Y-118537500I0J237500D01*
G01*
X193750000Y-118037500D01*
G75*
G02*
X193987500Y-117800000I237500J0D01*
G01*
X194462500Y-117800000D01*
G75*
G02*
X194700000Y-118037500I0J-237500D01*
G01*
X194700000Y-118537500D01*
G75*
G02*
X194462500Y-118775000I-237500J0D01*
G01*
G37*
G36*
G01*
X194462500Y-120600000D02*
X193987500Y-120600000D01*
G75*
G02*
X193750000Y-120362500I0J237500D01*
G01*
X193750000Y-119862500D01*
G75*
G02*
X193987500Y-119625000I237500J0D01*
G01*
X194462500Y-119625000D01*
G75*
G02*
X194700000Y-119862500I0J-237500D01*
G01*
X194700000Y-120362500D01*
G75*
G02*
X194462500Y-120600000I-237500J0D01*
G01*
G37*
G36*
G01*
X182787500Y-118775000D02*
X182312500Y-118775000D01*
G75*
G02*
X182075000Y-118537500I0J237500D01*
G01*
X182075000Y-118037500D01*
G75*
G02*
X182312500Y-117800000I237500J0D01*
G01*
X182787500Y-117800000D01*
G75*
G02*
X183025000Y-118037500I0J-237500D01*
G01*
X183025000Y-118537500D01*
G75*
G02*
X182787500Y-118775000I-237500J0D01*
G01*
G37*
G36*
G01*
X182787500Y-120600000D02*
X182312500Y-120600000D01*
G75*
G02*
X182075000Y-120362500I0J237500D01*
G01*
X182075000Y-119862500D01*
G75*
G02*
X182312500Y-119625000I237500J0D01*
G01*
X182787500Y-119625000D01*
G75*
G02*
X183025000Y-119862500I0J-237500D01*
G01*
X183025000Y-120362500D01*
G75*
G02*
X182787500Y-120600000I-237500J0D01*
G01*
G37*
G36*
G01*
X206137500Y-91575000D02*
X205662500Y-91575000D01*
G75*
G02*
X205425000Y-91337500I0J237500D01*
G01*
X205425000Y-90837500D01*
G75*
G02*
X205662500Y-90600000I237500J0D01*
G01*
X206137500Y-90600000D01*
G75*
G02*
X206375000Y-90837500I0J-237500D01*
G01*
X206375000Y-91337500D01*
G75*
G02*
X206137500Y-91575000I-237500J0D01*
G01*
G37*
G36*
G01*
X206137500Y-93400000D02*
X205662500Y-93400000D01*
G75*
G02*
X205425000Y-93162500I0J237500D01*
G01*
X205425000Y-92662500D01*
G75*
G02*
X205662500Y-92425000I237500J0D01*
G01*
X206137500Y-92425000D01*
G75*
G02*
X206375000Y-92662500I0J-237500D01*
G01*
X206375000Y-93162500D01*
G75*
G02*
X206137500Y-93400000I-237500J0D01*
G01*
G37*
G36*
G01*
X194462500Y-91575000D02*
X193987500Y-91575000D01*
G75*
G02*
X193750000Y-91337500I0J237500D01*
G01*
X193750000Y-90837500D01*
G75*
G02*
X193987500Y-90600000I237500J0D01*
G01*
X194462500Y-90600000D01*
G75*
G02*
X194700000Y-90837500I0J-237500D01*
G01*
X194700000Y-91337500D01*
G75*
G02*
X194462500Y-91575000I-237500J0D01*
G01*
G37*
G36*
G01*
X194462500Y-93400000D02*
X193987500Y-93400000D01*
G75*
G02*
X193750000Y-93162500I0J237500D01*
G01*
X193750000Y-92662500D01*
G75*
G02*
X193987500Y-92425000I237500J0D01*
G01*
X194462500Y-92425000D01*
G75*
G02*
X194700000Y-92662500I0J-237500D01*
G01*
X194700000Y-93162500D01*
G75*
G02*
X194462500Y-93400000I-237500J0D01*
G01*
G37*
G36*
G01*
X182787500Y-91575000D02*
X182312500Y-91575000D01*
G75*
G02*
X182075000Y-91337500I0J237500D01*
G01*
X182075000Y-90837500D01*
G75*
G02*
X182312500Y-90600000I237500J0D01*
G01*
X182787500Y-90600000D01*
G75*
G02*
X183025000Y-90837500I0J-237500D01*
G01*
X183025000Y-91337500D01*
G75*
G02*
X182787500Y-91575000I-237500J0D01*
G01*
G37*
G36*
G01*
X182787500Y-93400000D02*
X182312500Y-93400000D01*
G75*
G02*
X182075000Y-93162500I0J237500D01*
G01*
X182075000Y-92662500D01*
G75*
G02*
X182312500Y-92425000I237500J0D01*
G01*
X182787500Y-92425000D01*
G75*
G02*
X183025000Y-92662500I0J-237500D01*
G01*
X183025000Y-93162500D01*
G75*
G02*
X182787500Y-93400000I-237500J0D01*
G01*
G37*
G36*
G01*
X150387500Y-118775000D02*
X149912500Y-118775000D01*
G75*
G02*
X149675000Y-118537500I0J237500D01*
G01*
X149675000Y-118037500D01*
G75*
G02*
X149912500Y-117800000I237500J0D01*
G01*
X150387500Y-117800000D01*
G75*
G02*
X150625000Y-118037500I0J-237500D01*
G01*
X150625000Y-118537500D01*
G75*
G02*
X150387500Y-118775000I-237500J0D01*
G01*
G37*
G36*
G01*
X150387500Y-120600000D02*
X149912500Y-120600000D01*
G75*
G02*
X149675000Y-120362500I0J237500D01*
G01*
X149675000Y-119862500D01*
G75*
G02*
X149912500Y-119625000I237500J0D01*
G01*
X150387500Y-119625000D01*
G75*
G02*
X150625000Y-119862500I0J-237500D01*
G01*
X150625000Y-120362500D01*
G75*
G02*
X150387500Y-120600000I-237500J0D01*
G01*
G37*
G36*
G01*
X138712500Y-118775000D02*
X138237500Y-118775000D01*
G75*
G02*
X138000000Y-118537500I0J237500D01*
G01*
X138000000Y-118037500D01*
G75*
G02*
X138237500Y-117800000I237500J0D01*
G01*
X138712500Y-117800000D01*
G75*
G02*
X138950000Y-118037500I0J-237500D01*
G01*
X138950000Y-118537500D01*
G75*
G02*
X138712500Y-118775000I-237500J0D01*
G01*
G37*
G36*
G01*
X138712500Y-120600000D02*
X138237500Y-120600000D01*
G75*
G02*
X138000000Y-120362500I0J237500D01*
G01*
X138000000Y-119862500D01*
G75*
G02*
X138237500Y-119625000I237500J0D01*
G01*
X138712500Y-119625000D01*
G75*
G02*
X138950000Y-119862500I0J-237500D01*
G01*
X138950000Y-120362500D01*
G75*
G02*
X138712500Y-120600000I-237500J0D01*
G01*
G37*
G36*
G01*
X127037500Y-118775000D02*
X126562500Y-118775000D01*
G75*
G02*
X126325000Y-118537500I0J237500D01*
G01*
X126325000Y-118037500D01*
G75*
G02*
X126562500Y-117800000I237500J0D01*
G01*
X127037500Y-117800000D01*
G75*
G02*
X127275000Y-118037500I0J-237500D01*
G01*
X127275000Y-118537500D01*
G75*
G02*
X127037500Y-118775000I-237500J0D01*
G01*
G37*
G36*
G01*
X127037500Y-120600000D02*
X126562500Y-120600000D01*
G75*
G02*
X126325000Y-120362500I0J237500D01*
G01*
X126325000Y-119862500D01*
G75*
G02*
X126562500Y-119625000I237500J0D01*
G01*
X127037500Y-119625000D01*
G75*
G02*
X127275000Y-119862500I0J-237500D01*
G01*
X127275000Y-120362500D01*
G75*
G02*
X127037500Y-120600000I-237500J0D01*
G01*
G37*
G36*
G01*
X150387500Y-91575000D02*
X149912500Y-91575000D01*
G75*
G02*
X149675000Y-91337500I0J237500D01*
G01*
X149675000Y-90837500D01*
G75*
G02*
X149912500Y-90600000I237500J0D01*
G01*
X150387500Y-90600000D01*
G75*
G02*
X150625000Y-90837500I0J-237500D01*
G01*
X150625000Y-91337500D01*
G75*
G02*
X150387500Y-91575000I-237500J0D01*
G01*
G37*
G36*
G01*
X150387500Y-93400000D02*
X149912500Y-93400000D01*
G75*
G02*
X149675000Y-93162500I0J237500D01*
G01*
X149675000Y-92662500D01*
G75*
G02*
X149912500Y-92425000I237500J0D01*
G01*
X150387500Y-92425000D01*
G75*
G02*
X150625000Y-92662500I0J-237500D01*
G01*
X150625000Y-93162500D01*
G75*
G02*
X150387500Y-93400000I-237500J0D01*
G01*
G37*
G36*
G01*
X138712500Y-91575000D02*
X138237500Y-91575000D01*
G75*
G02*
X138000000Y-91337500I0J237500D01*
G01*
X138000000Y-90837500D01*
G75*
G02*
X138237500Y-90600000I237500J0D01*
G01*
X138712500Y-90600000D01*
G75*
G02*
X138950000Y-90837500I0J-237500D01*
G01*
X138950000Y-91337500D01*
G75*
G02*
X138712500Y-91575000I-237500J0D01*
G01*
G37*
G36*
G01*
X138712500Y-93400000D02*
X138237500Y-93400000D01*
G75*
G02*
X138000000Y-93162500I0J237500D01*
G01*
X138000000Y-92662500D01*
G75*
G02*
X138237500Y-92425000I237500J0D01*
G01*
X138712500Y-92425000D01*
G75*
G02*
X138950000Y-92662500I0J-237500D01*
G01*
X138950000Y-93162500D01*
G75*
G02*
X138712500Y-93400000I-237500J0D01*
G01*
G37*
G36*
G01*
X127037500Y-91575000D02*
X126562500Y-91575000D01*
G75*
G02*
X126325000Y-91337500I0J237500D01*
G01*
X126325000Y-90837500D01*
G75*
G02*
X126562500Y-90600000I237500J0D01*
G01*
X127037500Y-90600000D01*
G75*
G02*
X127275000Y-90837500I0J-237500D01*
G01*
X127275000Y-91337500D01*
G75*
G02*
X127037500Y-91575000I-237500J0D01*
G01*
G37*
G36*
G01*
X127037500Y-93400000D02*
X126562500Y-93400000D01*
G75*
G02*
X126325000Y-93162500I0J237500D01*
G01*
X126325000Y-92662500D01*
G75*
G02*
X126562500Y-92425000I237500J0D01*
G01*
X127037500Y-92425000D01*
G75*
G02*
X127275000Y-92662500I0J-237500D01*
G01*
X127275000Y-93162500D01*
G75*
G02*
X127037500Y-93400000I-237500J0D01*
G01*
G37*
G36*
G01*
X175400000Y-120350001D02*
X175400000Y-119449999D01*
G75*
G02*
X175649999Y-119200000I249999J0D01*
G01*
X176350001Y-119200000D01*
G75*
G02*
X176600000Y-119449999I0J-249999D01*
G01*
X176600000Y-120350001D01*
G75*
G02*
X176350001Y-120600000I-249999J0D01*
G01*
X175649999Y-120600000D01*
G75*
G02*
X175400000Y-120350001I0J249999D01*
G01*
G37*
G36*
G01*
X173400000Y-120350001D02*
X173400000Y-119449999D01*
G75*
G02*
X173649999Y-119200000I249999J0D01*
G01*
X174350001Y-119200000D01*
G75*
G02*
X174600000Y-119449999I0J-249999D01*
G01*
X174600000Y-120350001D01*
G75*
G02*
X174350001Y-120600000I-249999J0D01*
G01*
X173649999Y-120600000D01*
G75*
G02*
X173400000Y-120350001I0J249999D01*
G01*
G37*
G36*
G01*
X198750000Y-93150001D02*
X198750000Y-92249999D01*
G75*
G02*
X198999999Y-92000000I249999J0D01*
G01*
X199700001Y-92000000D01*
G75*
G02*
X199950000Y-92249999I0J-249999D01*
G01*
X199950000Y-93150001D01*
G75*
G02*
X199700001Y-93400000I-249999J0D01*
G01*
X198999999Y-93400000D01*
G75*
G02*
X198750000Y-93150001I0J249999D01*
G01*
G37*
G36*
G01*
X196750000Y-93150001D02*
X196750000Y-92249999D01*
G75*
G02*
X196999999Y-92000000I249999J0D01*
G01*
X197700001Y-92000000D01*
G75*
G02*
X197950000Y-92249999I0J-249999D01*
G01*
X197950000Y-93150001D01*
G75*
G02*
X197700001Y-93400000I-249999J0D01*
G01*
X196999999Y-93400000D01*
G75*
G02*
X196750000Y-93150001I0J249999D01*
G01*
G37*
G36*
G01*
X187050000Y-120350001D02*
X187050000Y-119449999D01*
G75*
G02*
X187299999Y-119200000I249999J0D01*
G01*
X188000001Y-119200000D01*
G75*
G02*
X188250000Y-119449999I0J-249999D01*
G01*
X188250000Y-120350001D01*
G75*
G02*
X188000001Y-120600000I-249999J0D01*
G01*
X187299999Y-120600000D01*
G75*
G02*
X187050000Y-120350001I0J249999D01*
G01*
G37*
G36*
G01*
X185050000Y-120350001D02*
X185050000Y-119449999D01*
G75*
G02*
X185299999Y-119200000I249999J0D01*
G01*
X186000001Y-119200000D01*
G75*
G02*
X186250000Y-119449999I0J-249999D01*
G01*
X186250000Y-120350001D01*
G75*
G02*
X186000001Y-120600000I-249999J0D01*
G01*
X185299999Y-120600000D01*
G75*
G02*
X185050000Y-120350001I0J249999D01*
G01*
G37*
G36*
G01*
X198750000Y-120350001D02*
X198750000Y-119449999D01*
G75*
G02*
X198999999Y-119200000I249999J0D01*
G01*
X199700001Y-119200000D01*
G75*
G02*
X199950000Y-119449999I0J-249999D01*
G01*
X199950000Y-120350001D01*
G75*
G02*
X199700001Y-120600000I-249999J0D01*
G01*
X198999999Y-120600000D01*
G75*
G02*
X198750000Y-120350001I0J249999D01*
G01*
G37*
G36*
G01*
X196750000Y-120350001D02*
X196750000Y-119449999D01*
G75*
G02*
X196999999Y-119200000I249999J0D01*
G01*
X197700001Y-119200000D01*
G75*
G02*
X197950000Y-119449999I0J-249999D01*
G01*
X197950000Y-120350001D01*
G75*
G02*
X197700001Y-120600000I-249999J0D01*
G01*
X196999999Y-120600000D01*
G75*
G02*
X196750000Y-120350001I0J249999D01*
G01*
G37*
G36*
G01*
X119650000Y-93150001D02*
X119650000Y-92249999D01*
G75*
G02*
X119899999Y-92000000I249999J0D01*
G01*
X120600001Y-92000000D01*
G75*
G02*
X120850000Y-92249999I0J-249999D01*
G01*
X120850000Y-93150001D01*
G75*
G02*
X120600001Y-93400000I-249999J0D01*
G01*
X119899999Y-93400000D01*
G75*
G02*
X119650000Y-93150001I0J249999D01*
G01*
G37*
G36*
G01*
X117650000Y-93150001D02*
X117650000Y-92249999D01*
G75*
G02*
X117899999Y-92000000I249999J0D01*
G01*
X118600001Y-92000000D01*
G75*
G02*
X118850000Y-92249999I0J-249999D01*
G01*
X118850000Y-93150001D01*
G75*
G02*
X118600001Y-93400000I-249999J0D01*
G01*
X117899999Y-93400000D01*
G75*
G02*
X117650000Y-93150001I0J249999D01*
G01*
G37*
G36*
G01*
X131325000Y-120350001D02*
X131325000Y-119449999D01*
G75*
G02*
X131574999Y-119200000I249999J0D01*
G01*
X132275001Y-119200000D01*
G75*
G02*
X132525000Y-119449999I0J-249999D01*
G01*
X132525000Y-120350001D01*
G75*
G02*
X132275001Y-120600000I-249999J0D01*
G01*
X131574999Y-120600000D01*
G75*
G02*
X131325000Y-120350001I0J249999D01*
G01*
G37*
G36*
G01*
X129325000Y-120350001D02*
X129325000Y-119449999D01*
G75*
G02*
X129574999Y-119200000I249999J0D01*
G01*
X130275001Y-119200000D01*
G75*
G02*
X130525000Y-119449999I0J-249999D01*
G01*
X130525000Y-120350001D01*
G75*
G02*
X130275001Y-120600000I-249999J0D01*
G01*
X129574999Y-120600000D01*
G75*
G02*
X129325000Y-120350001I0J249999D01*
G01*
G37*
G36*
G01*
X131325000Y-93150001D02*
X131325000Y-92249999D01*
G75*
G02*
X131574999Y-92000000I249999J0D01*
G01*
X132275001Y-92000000D01*
G75*
G02*
X132525000Y-92249999I0J-249999D01*
G01*
X132525000Y-93150001D01*
G75*
G02*
X132275001Y-93400000I-249999J0D01*
G01*
X131574999Y-93400000D01*
G75*
G02*
X131325000Y-93150001I0J249999D01*
G01*
G37*
G36*
G01*
X129325000Y-93150001D02*
X129325000Y-92249999D01*
G75*
G02*
X129574999Y-92000000I249999J0D01*
G01*
X130275001Y-92000000D01*
G75*
G02*
X130525000Y-92249999I0J-249999D01*
G01*
X130525000Y-93150001D01*
G75*
G02*
X130275001Y-93400000I-249999J0D01*
G01*
X129574999Y-93400000D01*
G75*
G02*
X129325000Y-93150001I0J249999D01*
G01*
G37*
G36*
G01*
X143000000Y-93150001D02*
X143000000Y-92249999D01*
G75*
G02*
X143249999Y-92000000I249999J0D01*
G01*
X143950001Y-92000000D01*
G75*
G02*
X144200000Y-92249999I0J-249999D01*
G01*
X144200000Y-93150001D01*
G75*
G02*
X143950001Y-93400000I-249999J0D01*
G01*
X143249999Y-93400000D01*
G75*
G02*
X143000000Y-93150001I0J249999D01*
G01*
G37*
G36*
G01*
X141000000Y-93150001D02*
X141000000Y-92249999D01*
G75*
G02*
X141249999Y-92000000I249999J0D01*
G01*
X141950001Y-92000000D01*
G75*
G02*
X142200000Y-92249999I0J-249999D01*
G01*
X142200000Y-93150001D01*
G75*
G02*
X141950001Y-93400000I-249999J0D01*
G01*
X141249999Y-93400000D01*
G75*
G02*
X141000000Y-93150001I0J249999D01*
G01*
G37*
G36*
G01*
X187075000Y-93150001D02*
X187075000Y-92249999D01*
G75*
G02*
X187324999Y-92000000I249999J0D01*
G01*
X188025001Y-92000000D01*
G75*
G02*
X188275000Y-92249999I0J-249999D01*
G01*
X188275000Y-93150001D01*
G75*
G02*
X188025001Y-93400000I-249999J0D01*
G01*
X187324999Y-93400000D01*
G75*
G02*
X187075000Y-93150001I0J249999D01*
G01*
G37*
G36*
G01*
X185075000Y-93150001D02*
X185075000Y-92249999D01*
G75*
G02*
X185324999Y-92000000I249999J0D01*
G01*
X186025001Y-92000000D01*
G75*
G02*
X186275000Y-92249999I0J-249999D01*
G01*
X186275000Y-93150001D01*
G75*
G02*
X186025001Y-93400000I-249999J0D01*
G01*
X185324999Y-93400000D01*
G75*
G02*
X185075000Y-93150001I0J249999D01*
G01*
G37*
G36*
G01*
X143000000Y-120350001D02*
X143000000Y-119449999D01*
G75*
G02*
X143249999Y-119200000I249999J0D01*
G01*
X143950001Y-119200000D01*
G75*
G02*
X144200000Y-119449999I0J-249999D01*
G01*
X144200000Y-120350001D01*
G75*
G02*
X143950001Y-120600000I-249999J0D01*
G01*
X143249999Y-120600000D01*
G75*
G02*
X143000000Y-120350001I0J249999D01*
G01*
G37*
G36*
G01*
X141000000Y-120350001D02*
X141000000Y-119449999D01*
G75*
G02*
X141249999Y-119200000I249999J0D01*
G01*
X141950001Y-119200000D01*
G75*
G02*
X142200000Y-119449999I0J-249999D01*
G01*
X142200000Y-120350001D01*
G75*
G02*
X141950001Y-120600000I-249999J0D01*
G01*
X141249999Y-120600000D01*
G75*
G02*
X141000000Y-120350001I0J249999D01*
G01*
G37*
G36*
G01*
X119650000Y-120350001D02*
X119650000Y-119449999D01*
G75*
G02*
X119899999Y-119200000I249999J0D01*
G01*
X120600001Y-119200000D01*
G75*
G02*
X120850000Y-119449999I0J-249999D01*
G01*
X120850000Y-120350001D01*
G75*
G02*
X120600001Y-120600000I-249999J0D01*
G01*
X119899999Y-120600000D01*
G75*
G02*
X119650000Y-120350001I0J249999D01*
G01*
G37*
G36*
G01*
X117650000Y-120350001D02*
X117650000Y-119449999D01*
G75*
G02*
X117899999Y-119200000I249999J0D01*
G01*
X118600001Y-119200000D01*
G75*
G02*
X118850000Y-119449999I0J-249999D01*
G01*
X118850000Y-120350001D01*
G75*
G02*
X118600001Y-120600000I-249999J0D01*
G01*
X117899999Y-120600000D01*
G75*
G02*
X117650000Y-120350001I0J249999D01*
G01*
G37*
G36*
G01*
X175400000Y-93150001D02*
X175400000Y-92249999D01*
G75*
G02*
X175649999Y-92000000I249999J0D01*
G01*
X176350001Y-92000000D01*
G75*
G02*
X176600000Y-92249999I0J-249999D01*
G01*
X176600000Y-93150001D01*
G75*
G02*
X176350001Y-93400000I-249999J0D01*
G01*
X175649999Y-93400000D01*
G75*
G02*
X175400000Y-93150001I0J249999D01*
G01*
G37*
G36*
G01*
X173400000Y-93150001D02*
X173400000Y-92249999D01*
G75*
G02*
X173649999Y-92000000I249999J0D01*
G01*
X174350001Y-92000000D01*
G75*
G02*
X174600000Y-92249999I0J-249999D01*
G01*
X174600000Y-93150001D01*
G75*
G02*
X174350001Y-93400000I-249999J0D01*
G01*
X173649999Y-93400000D01*
G75*
G02*
X173400000Y-93150001I0J249999D01*
G01*
G37*
M02*
