M48
; DRILL file {KiCad 5.1.9} date Mon Apr 12 08:10:54 2021
; FORMAT={-:-/ absolute / metric / decimal}
; #@! TF.CreationDate,2021-04-12T08:10:54-03:00
; #@! TF.GenerationSoftware,Kicad,Pcbnew,5.1.9
FMAT,2
METRIC
T1C0.200
T2C0.300
T3C3.200
%
G90
G05
T1
X156.55Y-101.2
X156.55Y-102.2
X156.55Y-103.2
X157.95Y-101.2
X157.95Y-102.2
X157.95Y-103.2
X166.512Y-101.145
X166.512Y-102.145
X166.512Y-103.145
X167.912Y-101.145
X167.912Y-102.145
X167.912Y-103.145
T2
X103.25Y-67.75
X103.25Y-75.75
X103.25Y-77.75
X103.25Y-97.25
X103.25Y-99.25
X103.25Y-101.25
X103.25Y-103.25
X103.25Y-105.25
X103.25Y-124.25
X103.25Y-126.25
X103.25Y-134.25
X103.75Y-74.75
X103.75Y-76.75
X103.75Y-96.25
X103.75Y-98.25
X103.75Y-100.25
X103.75Y-102.25
X103.75Y-104.25
X103.75Y-106.25
X103.75Y-125.25
X103.75Y-127.25
X104.25Y-67.75
X104.25Y-75.75
X104.25Y-77.75
X104.25Y-97.25
X104.25Y-99.25
X104.25Y-101.25
X104.25Y-103.25
X104.25Y-105.25
X104.25Y-124.25
X104.25Y-126.25
X104.25Y-134.25
X104.75Y-74.75
X104.75Y-76.75
X104.75Y-96.25
X104.75Y-98.25
X104.75Y-100.25
X104.75Y-102.25
X104.75Y-104.25
X104.75Y-106.25
X104.75Y-125.25
X104.75Y-127.25
X105.25Y-67.75
X105.25Y-75.75
X105.25Y-77.75
X105.25Y-97.25
X105.25Y-99.25
X105.25Y-101.25
X105.25Y-103.25
X105.25Y-105.25
X105.25Y-124.25
X105.25Y-126.25
X105.25Y-134.25
X105.75Y-74.75
X105.75Y-76.75
X105.75Y-96.25
X105.75Y-98.25
X105.75Y-100.25
X105.75Y-102.25
X105.75Y-104.25
X105.75Y-106.25
X105.75Y-125.25
X105.75Y-127.25
X106.25Y-67.75
X106.25Y-75.75
X106.25Y-77.75
X106.25Y-97.25
X106.25Y-99.25
X106.25Y-101.25
X106.25Y-103.25
X106.25Y-105.25
X106.25Y-124.25
X106.25Y-126.25
X106.25Y-134.25
X106.75Y-74.75
X106.75Y-76.75
X106.75Y-96.25
X106.75Y-98.25
X106.75Y-100.25
X106.75Y-102.25
X106.75Y-104.25
X106.75Y-106.25
X106.75Y-125.25
X106.75Y-127.25
X107.25Y-67.75
X107.25Y-75.75
X107.25Y-77.75
X107.25Y-97.25
X107.25Y-99.25
X107.25Y-101.25
X107.25Y-103.25
X107.25Y-105.25
X107.25Y-124.25
X107.25Y-126.25
X107.25Y-134.25
X107.75Y-68.75
X107.75Y-74.75
X107.75Y-76.75
X107.75Y-96.25
X107.75Y-98.25
X107.75Y-100.25
X107.75Y-102.25
X107.75Y-104.25
X107.75Y-106.25
X107.75Y-125.25
X107.75Y-127.25
X107.75Y-133.25
X108.25Y-67.75
X108.25Y-69.75
X108.25Y-73.75
X108.25Y-75.75
X108.25Y-77.75
X108.25Y-97.25
X108.25Y-99.25
X108.25Y-101.25
X108.25Y-103.25
X108.25Y-105.25
X108.25Y-124.25
X108.25Y-126.25
X108.25Y-128.25
X108.25Y-132.25
X108.25Y-134.25
X108.75Y-68.75
X108.75Y-70.75
X108.75Y-72.75
X108.75Y-74.75
X108.75Y-76.75
X108.75Y-96.25
X108.75Y-98.25
X108.75Y-100.25
X108.75Y-102.25
X108.75Y-104.25
X108.75Y-106.25
X108.75Y-125.25
X108.75Y-127.25
X108.75Y-129.25
X108.75Y-131.25
X108.75Y-133.25
X109.25Y-67.75
X109.25Y-69.75
X109.25Y-71.75
X109.25Y-73.75
X109.25Y-75.75
X109.25Y-77.75
X109.25Y-97.25
X109.25Y-99.25
X109.25Y-101.25
X109.25Y-103.25
X109.25Y-105.25
X109.25Y-124.25
X109.25Y-126.25
X109.25Y-128.25
X109.25Y-130.25
X109.25Y-132.25
X109.25Y-134.25
X109.75Y-68.75
X109.75Y-70.75
X109.75Y-72.75
X109.75Y-74.75
X109.75Y-76.75
X109.75Y-96.25
X109.75Y-98.25
X109.75Y-100.25
X109.75Y-102.25
X109.75Y-104.25
X109.75Y-106.25
X109.75Y-125.25
X109.75Y-127.25
X109.75Y-129.25
X109.75Y-131.25
X109.75Y-133.25
X110.25Y-67.75
X110.25Y-69.75
X110.25Y-71.75
X110.25Y-73.75
X110.25Y-75.75
X110.25Y-77.75
X110.25Y-97.25
X110.25Y-99.25
X110.25Y-101.25
X110.25Y-103.25
X110.25Y-105.25
X110.25Y-124.25
X110.25Y-126.25
X110.25Y-128.25
X110.25Y-130.25
X110.25Y-132.25
X110.25Y-134.25
X110.75Y-68.75
X110.75Y-70.75
X110.75Y-72.75
X110.75Y-74.75
X110.75Y-76.75
X110.75Y-96.25
X110.75Y-98.25
X110.75Y-100.25
X110.75Y-102.25
X110.75Y-104.25
X110.75Y-106.25
X110.75Y-125.25
X110.75Y-127.25
X110.75Y-129.25
X110.75Y-131.25
X110.75Y-133.25
X111.25Y-67.75
X111.25Y-69.75
X111.25Y-71.75
X111.25Y-73.75
X111.25Y-75.75
X111.25Y-77.75
X111.25Y-97.25
X111.25Y-99.25
X111.25Y-101.25
X111.25Y-103.25
X111.25Y-105.25
X111.25Y-124.25
X111.25Y-126.25
X111.25Y-128.25
X111.25Y-130.25
X111.25Y-132.25
X111.25Y-134.25
X111.75Y-68.75
X111.75Y-70.75
X111.75Y-72.75
X111.75Y-74.75
X111.75Y-76.75
X111.75Y-96.25
X111.75Y-98.25
X111.75Y-100.25
X111.75Y-102.25
X111.75Y-104.25
X111.75Y-106.25
X111.75Y-125.25
X111.75Y-127.25
X111.75Y-129.25
X111.75Y-131.25
X111.75Y-133.25
X112.25Y-67.75
X112.25Y-69.75
X112.25Y-71.75
X112.25Y-73.75
X112.25Y-75.75
X112.25Y-77.75
X112.25Y-97.25
X112.25Y-99.25
X112.25Y-101.25
X112.25Y-103.25
X112.25Y-105.25
X112.25Y-124.25
X112.25Y-126.25
X112.25Y-128.25
X112.25Y-130.25
X112.25Y-132.25
X112.25Y-134.25
X112.75Y-68.75
X112.75Y-70.75
X112.75Y-72.75
X112.75Y-74.75
X112.75Y-76.75
X112.75Y-96.25
X112.75Y-98.25
X112.75Y-100.25
X112.75Y-102.25
X112.75Y-104.25
X112.75Y-106.25
X112.75Y-125.25
X112.75Y-127.25
X112.75Y-129.25
X112.75Y-131.25
X112.75Y-133.25
X113.25Y-67.75
X113.25Y-69.75
X113.25Y-71.75
X113.25Y-73.75
X113.25Y-75.75
X113.25Y-77.75
X113.25Y-97.25
X113.25Y-99.25
X113.25Y-101.25
X113.25Y-103.25
X113.25Y-105.25
X113.25Y-124.25
X113.25Y-126.25
X113.25Y-128.25
X113.25Y-130.25
X113.25Y-132.25
X113.25Y-134.25
X113.75Y-68.75
X113.75Y-70.75
X113.75Y-72.75
X113.75Y-74.75
X113.75Y-76.75
X113.75Y-96.25
X113.75Y-98.25
X113.75Y-100.25
X113.75Y-102.25
X113.75Y-104.25
X113.75Y-106.25
X113.75Y-125.25
X113.75Y-127.25
X113.75Y-129.25
X113.75Y-131.25
X113.75Y-133.25
X114.25Y-67.75
X114.25Y-69.75
X114.25Y-71.75
X114.25Y-73.75
X114.25Y-75.75
X114.25Y-77.75
X114.25Y-97.25
X114.25Y-99.25
X114.25Y-101.25
X114.25Y-103.25
X114.25Y-105.25
X114.25Y-124.25
X114.25Y-126.25
X114.25Y-128.25
X114.25Y-130.25
X114.25Y-132.25
X114.25Y-134.25
X114.75Y-68.75
X114.75Y-74.75
X114.75Y-76.75
X114.75Y-96.25
X114.75Y-98.25
X114.75Y-100.25
X114.75Y-102.25
X114.75Y-104.25
X114.75Y-106.25
X114.75Y-125.25
X114.75Y-127.25
X114.75Y-133.25
X115.25Y-67.75
X115.25Y-73.75
X115.25Y-75.75
X115.25Y-77.75
X115.25Y-97.25
X115.25Y-99.25
X115.25Y-101.25
X115.25Y-103.25
X115.25Y-105.25
X115.25Y-124.25
X115.25Y-126.25
X115.25Y-128.25
X115.25Y-134.25
X115.75Y-74.75
X115.75Y-76.75
X115.75Y-96.25
X115.75Y-98.25
X115.75Y-100.25
X115.75Y-102.25
X115.75Y-104.25
X115.75Y-106.25
X115.75Y-125.25
X115.75Y-127.25
X116.25Y-67.75
X116.25Y-75.75
X116.25Y-77.75
X116.25Y-97.25
X116.25Y-99.25
X116.25Y-101.25
X116.25Y-103.25
X116.25Y-105.25
X116.25Y-124.25
X116.25Y-126.25
X116.25Y-134.25
X116.75Y-74.75
X116.75Y-76.75
X116.75Y-96.25
X116.75Y-98.25
X116.75Y-100.25
X116.75Y-102.25
X116.75Y-104.25
X116.75Y-106.25
X116.75Y-125.25
X116.75Y-127.25
X117.2Y-93.4
X117.25Y-67.75
X117.25Y-75.75
X117.25Y-77.75
X117.25Y-97.25
X117.25Y-99.25
X117.25Y-101.25
X117.25Y-103.25
X117.25Y-105.25
X117.25Y-107.25
X117.25Y-124.25
X117.25Y-126.25
X117.25Y-134.25
X117.6Y-118.75
X117.7Y-81.05
X117.7Y-82.05
X117.7Y-108.25
X117.7Y-109.25
X117.75Y-74.75
X117.75Y-76.75
X117.75Y-96.25
X117.75Y-98.25
X117.75Y-100.25
X117.75Y-102.25
X117.75Y-104.25
X117.75Y-106.25
X117.75Y-125.25
X117.75Y-127.25
X118.2Y-81.55
X118.2Y-85.55
X118.2Y-86.55
X118.2Y-87.55
X118.2Y-88.55
X118.2Y-108.75
X118.2Y-112.75
X118.2Y-113.75
X118.2Y-114.75
X118.2Y-115.75
X118.25Y-67.75
X118.25Y-75.75
X118.25Y-77.75
X118.25Y-97.25
X118.25Y-99.25
X118.25Y-101.25
X118.25Y-103.25
X118.25Y-105.25
X118.25Y-107.25
X118.25Y-124.25
X118.25Y-126.25
X118.25Y-134.25
X118.7Y-81.05
X118.7Y-82.05
X118.7Y-83.05
X118.7Y-84.05
X118.7Y-85.05
X118.7Y-86.05
X118.7Y-87.05
X118.7Y-88.05
X118.7Y-108.25
X118.7Y-109.25
X118.7Y-110.25
X118.7Y-111.25
X118.7Y-112.25
X118.7Y-113.25
X118.7Y-114.25
X118.7Y-115.25
X118.75Y-74.75
X118.75Y-76.75
X118.75Y-96.25
X118.75Y-98.25
X118.75Y-100.25
X118.75Y-102.25
X118.75Y-104.25
X118.75Y-106.25
X118.75Y-125.25
X118.75Y-127.25
X119.2Y-81.55
X119.2Y-82.55
X119.2Y-83.55
X119.2Y-84.55
X119.2Y-85.55
X119.2Y-86.55
X119.2Y-87.55
X119.2Y-88.55
X119.2Y-108.75
X119.2Y-109.75
X119.2Y-110.75
X119.2Y-111.75
X119.2Y-112.75
X119.2Y-113.75
X119.2Y-114.75
X119.2Y-115.75
X119.25Y-67.75
X119.25Y-75.75
X119.25Y-77.75
X119.25Y-97.25
X119.25Y-99.25
X119.25Y-101.25
X119.25Y-103.25
X119.25Y-105.25
X119.25Y-107.25
X119.25Y-124.25
X119.25Y-126.25
X119.25Y-134.25
X119.7Y-81.05
X119.7Y-82.05
X119.7Y-83.05
X119.7Y-84.05
X119.7Y-85.05
X119.7Y-86.05
X119.7Y-87.05
X119.7Y-88.05
X119.7Y-108.25
X119.7Y-109.25
X119.7Y-110.25
X119.7Y-111.25
X119.7Y-112.25
X119.7Y-113.25
X119.7Y-114.25
X119.7Y-115.25
X119.75Y-68.75
X119.75Y-74.75
X119.75Y-76.75
X119.75Y-96.25
X119.75Y-98.25
X119.75Y-100.25
X119.75Y-102.25
X119.75Y-104.25
X119.75Y-106.25
X119.75Y-125.25
X119.75Y-127.25
X119.75Y-133.25
X120.2Y-81.55
X120.2Y-82.55
X120.2Y-83.55
X120.2Y-84.55
X120.2Y-85.55
X120.2Y-86.55
X120.2Y-87.55
X120.2Y-88.55
X120.2Y-108.75
X120.2Y-109.75
X120.2Y-110.75
X120.2Y-111.75
X120.2Y-112.75
X120.2Y-113.75
X120.2Y-114.75
X120.2Y-115.75
X120.25Y-67.75
X120.25Y-69.75
X120.25Y-71.75
X120.25Y-73.75
X120.25Y-75.75
X120.25Y-77.75
X120.25Y-97.25
X120.25Y-99.25
X120.25Y-101.25
X120.25Y-103.25
X120.25Y-105.25
X120.25Y-107.25
X120.25Y-124.25
X120.25Y-126.25
X120.25Y-128.25
X120.25Y-130.25
X120.25Y-132.25
X120.25Y-134.25
X120.7Y-81.05
X120.7Y-82.05
X120.7Y-83.05
X120.7Y-84.05
X120.7Y-85.05
X120.7Y-86.05
X120.7Y-87.05
X120.7Y-88.05
X120.7Y-108.25
X120.7Y-109.25
X120.7Y-110.25
X120.7Y-111.25
X120.7Y-112.25
X120.7Y-113.25
X120.7Y-114.25
X120.7Y-115.25
X120.75Y-68.75
X120.75Y-70.75
X120.75Y-72.75
X120.75Y-74.75
X120.75Y-76.75
X120.75Y-96.25
X120.75Y-98.25
X120.75Y-100.25
X120.75Y-102.25
X120.75Y-104.25
X120.75Y-106.25
X120.75Y-125.25
X120.75Y-127.25
X120.75Y-129.25
X120.75Y-131.25
X120.75Y-133.25
X121.2Y-81.55
X121.2Y-82.55
X121.2Y-83.55
X121.2Y-84.55
X121.2Y-85.55
X121.2Y-86.55
X121.2Y-87.55
X121.2Y-88.55
X121.2Y-108.75
X121.2Y-109.75
X121.2Y-110.75
X121.2Y-111.75
X121.2Y-112.75
X121.2Y-113.75
X121.2Y-114.75
X121.2Y-115.75
X121.25Y-67.75
X121.25Y-69.75
X121.25Y-71.75
X121.25Y-73.75
X121.25Y-75.75
X121.25Y-77.75
X121.25Y-97.25
X121.25Y-99.25
X121.25Y-101.25
X121.25Y-103.25
X121.25Y-105.25
X121.25Y-107.25
X121.25Y-124.25
X121.25Y-126.25
X121.25Y-128.25
X121.25Y-130.25
X121.25Y-132.25
X121.25Y-134.25
X121.7Y-81.05
X121.7Y-82.05
X121.7Y-83.05
X121.7Y-84.05
X121.7Y-85.05
X121.7Y-86.05
X121.7Y-87.05
X121.7Y-88.05
X121.7Y-108.25
X121.7Y-109.25
X121.7Y-110.25
X121.7Y-111.25
X121.7Y-112.25
X121.7Y-113.25
X121.7Y-114.25
X121.7Y-115.25
X121.75Y-68.75
X121.75Y-70.75
X121.75Y-72.75
X121.75Y-74.75
X121.75Y-76.75
X121.75Y-96.25
X121.75Y-98.25
X121.75Y-100.25
X121.75Y-102.25
X121.75Y-104.25
X121.75Y-106.25
X121.75Y-125.25
X121.75Y-127.25
X121.75Y-129.25
X121.75Y-131.25
X121.75Y-133.25
X122.2Y-81.55
X122.2Y-82.55
X122.2Y-83.55
X122.2Y-84.55
X122.2Y-85.55
X122.2Y-86.55
X122.2Y-87.55
X122.2Y-88.55
X122.2Y-108.75
X122.2Y-109.75
X122.2Y-110.75
X122.2Y-111.75
X122.2Y-112.75
X122.2Y-113.75
X122.2Y-114.75
X122.2Y-115.75
X122.25Y-67.75
X122.25Y-69.75
X122.25Y-71.75
X122.25Y-73.75
X122.25Y-75.75
X122.25Y-77.75
X122.25Y-97.25
X122.25Y-99.25
X122.25Y-101.25
X122.25Y-103.25
X122.25Y-105.25
X122.25Y-107.25
X122.25Y-124.25
X122.25Y-126.25
X122.25Y-128.25
X122.25Y-130.25
X122.25Y-132.25
X122.25Y-134.25
X122.7Y-81.05
X122.7Y-82.05
X122.7Y-83.05
X122.7Y-84.05
X122.7Y-85.05
X122.7Y-86.05
X122.7Y-87.05
X122.7Y-88.05
X122.7Y-108.25
X122.7Y-109.25
X122.7Y-110.25
X122.7Y-111.25
X122.7Y-112.25
X122.7Y-113.25
X122.7Y-114.25
X122.7Y-115.25
X122.75Y-68.75
X122.75Y-70.75
X122.75Y-72.75
X122.75Y-74.75
X122.75Y-76.75
X122.75Y-96.25
X122.75Y-98.25
X122.75Y-100.25
X122.75Y-102.25
X122.75Y-104.25
X122.75Y-106.25
X122.75Y-125.25
X122.75Y-127.25
X122.75Y-129.25
X122.75Y-131.25
X122.75Y-133.25
X123.2Y-81.55
X123.2Y-82.55
X123.2Y-83.55
X123.2Y-84.55
X123.2Y-85.55
X123.2Y-86.55
X123.2Y-87.55
X123.2Y-88.55
X123.2Y-108.75
X123.2Y-109.75
X123.2Y-110.75
X123.2Y-111.75
X123.2Y-112.75
X123.2Y-113.75
X123.2Y-114.75
X123.2Y-115.75
X123.25Y-67.75
X123.25Y-69.75
X123.25Y-71.75
X123.25Y-73.75
X123.25Y-75.75
X123.25Y-77.75
X123.25Y-97.25
X123.25Y-99.25
X123.25Y-101.25
X123.25Y-103.25
X123.25Y-105.25
X123.25Y-107.25
X123.25Y-124.25
X123.25Y-126.25
X123.25Y-128.25
X123.25Y-130.25
X123.25Y-132.25
X123.25Y-134.25
X123.301Y-91.698
X123.301Y-118.898
X123.7Y-81.05
X123.7Y-82.05
X123.7Y-83.05
X123.7Y-84.05
X123.7Y-85.05
X123.7Y-86.05
X123.7Y-87.05
X123.7Y-88.05
X123.7Y-108.25
X123.7Y-109.25
X123.7Y-110.25
X123.7Y-111.25
X123.7Y-112.25
X123.7Y-113.25
X123.7Y-114.25
X123.7Y-115.25
X123.75Y-68.75
X123.75Y-70.75
X123.75Y-72.75
X123.75Y-74.75
X123.75Y-76.75
X123.75Y-96.25
X123.75Y-98.25
X123.75Y-100.25
X123.75Y-102.25
X123.75Y-104.25
X123.75Y-106.25
X123.75Y-125.25
X123.75Y-127.25
X123.75Y-129.25
X123.75Y-131.25
X123.75Y-133.25
X124.2Y-81.55
X124.2Y-82.55
X124.2Y-83.55
X124.2Y-84.55
X124.2Y-85.55
X124.2Y-86.55
X124.2Y-87.55
X124.2Y-88.55
X124.2Y-108.75
X124.2Y-109.75
X124.2Y-110.75
X124.2Y-111.75
X124.2Y-112.75
X124.2Y-113.75
X124.2Y-114.75
X124.2Y-115.75
X124.25Y-67.75
X124.25Y-69.75
X124.25Y-71.75
X124.25Y-73.75
X124.25Y-75.75
X124.25Y-77.75
X124.25Y-97.25
X124.25Y-99.25
X124.25Y-101.25
X124.25Y-103.25
X124.25Y-105.25
X124.25Y-107.25
X124.25Y-124.25
X124.25Y-126.25
X124.25Y-128.25
X124.25Y-130.25
X124.25Y-132.25
X124.25Y-134.25
X124.7Y-81.05
X124.7Y-82.05
X124.7Y-83.05
X124.7Y-84.05
X124.7Y-85.05
X124.7Y-86.05
X124.7Y-87.05
X124.7Y-88.05
X124.7Y-108.25
X124.7Y-109.25
X124.7Y-110.25
X124.7Y-111.25
X124.7Y-112.25
X124.7Y-113.25
X124.7Y-114.25
X124.7Y-115.25
X124.75Y-68.75
X124.75Y-70.75
X124.75Y-72.75
X124.75Y-74.75
X124.75Y-76.75
X124.75Y-96.25
X124.75Y-98.25
X124.75Y-100.25
X124.75Y-102.25
X124.75Y-104.25
X124.75Y-106.25
X124.75Y-125.25
X124.75Y-127.25
X124.75Y-129.25
X124.75Y-131.25
X124.75Y-133.25
X125.2Y-81.55
X125.2Y-82.55
X125.2Y-83.55
X125.2Y-84.55
X125.2Y-85.55
X125.2Y-86.55
X125.2Y-87.55
X125.2Y-88.55
X125.2Y-108.75
X125.2Y-109.75
X125.2Y-110.75
X125.2Y-111.75
X125.2Y-112.75
X125.2Y-113.75
X125.2Y-114.75
X125.2Y-115.75
X125.25Y-67.75
X125.25Y-69.75
X125.25Y-71.75
X125.25Y-73.75
X125.25Y-75.75
X125.25Y-77.75
X125.25Y-97.25
X125.25Y-99.25
X125.25Y-101.25
X125.25Y-103.25
X125.25Y-105.25
X125.25Y-107.25
X125.25Y-124.25
X125.25Y-126.25
X125.25Y-128.25
X125.25Y-130.25
X125.25Y-132.25
X125.25Y-134.25
X125.7Y-81.05
X125.7Y-82.05
X125.7Y-83.05
X125.7Y-84.05
X125.7Y-85.05
X125.7Y-86.05
X125.7Y-87.05
X125.7Y-88.05
X125.7Y-108.25
X125.7Y-109.25
X125.7Y-110.25
X125.7Y-111.25
X125.7Y-112.25
X125.7Y-113.25
X125.7Y-114.25
X125.7Y-115.25
X125.75Y-68.75
X125.75Y-70.75
X125.75Y-72.75
X125.75Y-74.75
X125.75Y-76.75
X125.75Y-96.25
X125.75Y-98.25
X125.75Y-100.25
X125.75Y-102.25
X125.75Y-104.25
X125.75Y-106.25
X125.75Y-125.25
X125.75Y-127.25
X125.75Y-129.25
X125.75Y-131.25
X125.75Y-133.25
X126.2Y-81.55
X126.2Y-82.55
X126.2Y-83.55
X126.2Y-84.55
X126.2Y-85.55
X126.2Y-86.55
X126.2Y-87.55
X126.2Y-88.55
X126.2Y-108.75
X126.2Y-109.75
X126.2Y-110.75
X126.2Y-111.75
X126.2Y-112.75
X126.2Y-113.75
X126.2Y-114.75
X126.2Y-115.75
X126.25Y-67.75
X126.25Y-69.75
X126.25Y-73.75
X126.25Y-75.75
X126.25Y-77.75
X126.25Y-97.25
X126.25Y-99.25
X126.25Y-101.25
X126.25Y-103.25
X126.25Y-105.25
X126.25Y-107.25
X126.25Y-124.25
X126.25Y-126.25
X126.25Y-128.25
X126.25Y-132.25
X126.25Y-134.25
X126.7Y-81.05
X126.7Y-82.05
X126.7Y-83.05
X126.7Y-84.05
X126.7Y-85.05
X126.7Y-86.05
X126.7Y-87.05
X126.7Y-88.05
X126.7Y-108.25
X126.7Y-109.25
X126.7Y-110.25
X126.7Y-111.25
X126.7Y-112.25
X126.7Y-113.25
X126.7Y-114.25
X126.7Y-115.25
X126.75Y-68.75
X126.75Y-74.75
X126.75Y-76.75
X126.75Y-96.25
X126.75Y-98.25
X126.75Y-100.25
X126.75Y-102.25
X126.75Y-104.25
X126.75Y-106.25
X126.75Y-125.25
X126.75Y-127.25
X126.75Y-133.25
X127.2Y-81.55
X127.2Y-85.55
X127.2Y-86.55
X127.2Y-87.55
X127.2Y-88.55
X127.2Y-108.75
X127.2Y-112.75
X127.2Y-113.75
X127.2Y-114.75
X127.2Y-115.75
X127.25Y-67.75
X127.25Y-75.75
X127.25Y-77.75
X127.25Y-97.25
X127.25Y-99.25
X127.25Y-101.25
X127.25Y-103.25
X127.25Y-105.25
X127.25Y-107.25
X127.25Y-124.25
X127.25Y-126.25
X127.25Y-134.25
X127.7Y-81.05
X127.7Y-82.05
X127.7Y-108.25
X127.7Y-109.25
X127.75Y-74.75
X127.75Y-76.75
X127.75Y-96.25
X127.75Y-98.25
X127.75Y-100.25
X127.75Y-102.25
X127.75Y-104.25
X127.75Y-106.25
X127.75Y-125.25
X127.75Y-127.25
X128.25Y-67.75
X128.25Y-75.75
X128.25Y-77.75
X128.25Y-97.25
X128.25Y-99.25
X128.25Y-101.25
X128.25Y-103.25
X128.25Y-105.25
X128.25Y-107.25
X128.25Y-124.25
X128.25Y-126.25
X128.25Y-134.25
X128.75Y-74.75
X128.75Y-76.75
X128.75Y-96.25
X128.75Y-98.25
X128.75Y-100.25
X128.75Y-102.25
X128.75Y-104.25
X128.75Y-106.25
X128.75Y-125.25
X128.75Y-127.25
X128.925Y-92.7
X128.925Y-119.9
X129.25Y-67.75
X129.25Y-75.75
X129.25Y-77.75
X129.25Y-97.25
X129.25Y-99.25
X129.25Y-101.25
X129.25Y-103.25
X129.25Y-105.25
X129.25Y-107.25
X129.25Y-124.25
X129.25Y-126.25
X129.25Y-134.25
X129.375Y-81.05
X129.375Y-82.05
X129.375Y-108.25
X129.375Y-109.25
X129.75Y-74.75
X129.75Y-76.75
X129.75Y-96.25
X129.75Y-98.25
X129.75Y-100.25
X129.75Y-102.25
X129.75Y-104.25
X129.75Y-106.25
X129.75Y-125.25
X129.75Y-127.25
X129.875Y-81.55
X129.875Y-85.55
X129.875Y-86.55
X129.875Y-87.55
X129.875Y-88.55
X129.875Y-108.75
X129.875Y-112.75
X129.875Y-113.75
X129.875Y-114.75
X129.875Y-115.75
X130.25Y-67.75
X130.25Y-75.75
X130.25Y-77.75
X130.25Y-97.25
X130.25Y-99.25
X130.25Y-101.25
X130.25Y-103.25
X130.25Y-105.25
X130.25Y-107.25
X130.25Y-124.25
X130.25Y-126.25
X130.25Y-134.25
X130.375Y-81.05
X130.375Y-82.05
X130.375Y-83.05
X130.375Y-84.05
X130.375Y-85.05
X130.375Y-86.05
X130.375Y-87.05
X130.375Y-88.05
X130.375Y-108.25
X130.375Y-109.25
X130.375Y-110.25
X130.375Y-111.25
X130.375Y-112.25
X130.375Y-113.25
X130.375Y-114.25
X130.375Y-115.25
X130.75Y-68.75
X130.75Y-74.75
X130.75Y-76.75
X130.75Y-96.25
X130.75Y-98.25
X130.75Y-100.25
X130.75Y-102.25
X130.75Y-104.25
X130.75Y-106.25
X130.75Y-125.25
X130.75Y-127.25
X130.75Y-133.25
X130.875Y-81.55
X130.875Y-82.55
X130.875Y-83.55
X130.875Y-84.55
X130.875Y-85.55
X130.875Y-86.55
X130.875Y-87.55
X130.875Y-88.55
X130.875Y-108.75
X130.875Y-109.75
X130.875Y-110.75
X130.875Y-111.75
X130.875Y-112.75
X130.875Y-113.75
X130.875Y-114.75
X130.875Y-115.75
X131.25Y-67.75
X131.25Y-75.75
X131.25Y-77.75
X131.25Y-97.25
X131.25Y-99.25
X131.25Y-101.25
X131.25Y-103.25
X131.25Y-105.25
X131.25Y-107.25
X131.25Y-124.25
X131.25Y-126.25
X131.25Y-134.25
X131.375Y-81.05
X131.375Y-82.05
X131.375Y-83.05
X131.375Y-84.05
X131.375Y-85.05
X131.375Y-86.05
X131.375Y-87.05
X131.375Y-88.05
X131.375Y-108.25
X131.375Y-109.25
X131.375Y-110.25
X131.375Y-111.25
X131.375Y-112.25
X131.375Y-113.25
X131.375Y-114.25
X131.375Y-115.25
X131.5Y-69.75
X131.5Y-73.75
X131.5Y-128.25
X131.5Y-132.25
X131.75Y-74.75
X131.75Y-76.75
X131.75Y-96.25
X131.75Y-98.25
X131.75Y-100.25
X131.75Y-102.25
X131.75Y-104.25
X131.75Y-106.25
X131.75Y-125.25
X131.75Y-127.25
X131.875Y-81.55
X131.875Y-82.55
X131.875Y-83.55
X131.875Y-84.55
X131.875Y-85.55
X131.875Y-86.55
X131.875Y-87.55
X131.875Y-88.55
X131.875Y-108.75
X131.875Y-109.75
X131.875Y-110.75
X131.875Y-111.75
X131.875Y-112.75
X131.875Y-113.75
X131.875Y-114.75
X131.875Y-115.75
X132.0Y-68.75
X132.0Y-70.75
X132.0Y-72.75
X132.0Y-129.25
X132.0Y-131.25
X132.0Y-133.25
X132.25Y-67.75
X132.25Y-75.75
X132.25Y-77.75
X132.25Y-97.25
X132.25Y-99.25
X132.25Y-101.25
X132.25Y-103.25
X132.25Y-105.25
X132.25Y-107.25
X132.25Y-124.25
X132.25Y-126.25
X132.25Y-134.25
X132.375Y-81.05
X132.375Y-82.05
X132.375Y-83.05
X132.375Y-84.05
X132.375Y-85.05
X132.375Y-86.05
X132.375Y-87.05
X132.375Y-88.05
X132.375Y-108.25
X132.375Y-109.25
X132.375Y-110.25
X132.375Y-111.25
X132.375Y-112.25
X132.375Y-113.25
X132.375Y-114.25
X132.375Y-115.25
X132.5Y-69.75
X132.5Y-71.75
X132.5Y-73.75
X132.5Y-128.25
X132.5Y-130.25
X132.5Y-132.25
X132.75Y-74.75
X132.75Y-76.75
X132.75Y-96.25
X132.75Y-98.25
X132.75Y-100.25
X132.75Y-102.25
X132.75Y-104.25
X132.75Y-106.25
X132.75Y-125.25
X132.75Y-127.25
X132.875Y-81.55
X132.875Y-82.55
X132.875Y-83.55
X132.875Y-84.55
X132.875Y-85.55
X132.875Y-86.55
X132.875Y-87.55
X132.875Y-88.55
X132.875Y-108.75
X132.875Y-109.75
X132.875Y-110.75
X132.875Y-111.75
X132.875Y-112.75
X132.875Y-113.75
X132.875Y-114.75
X132.875Y-115.75
X133.0Y-68.75
X133.0Y-70.75
X133.0Y-72.75
X133.0Y-129.25
X133.0Y-131.25
X133.0Y-133.25
X133.25Y-67.75
X133.25Y-75.75
X133.25Y-77.75
X133.25Y-97.25
X133.25Y-99.25
X133.25Y-101.25
X133.25Y-103.25
X133.25Y-105.25
X133.25Y-107.25
X133.25Y-124.25
X133.25Y-126.25
X133.25Y-134.25
X133.375Y-81.05
X133.375Y-82.05
X133.375Y-83.05
X133.375Y-84.05
X133.375Y-85.05
X133.375Y-86.05
X133.375Y-87.05
X133.375Y-88.05
X133.375Y-108.25
X133.375Y-109.25
X133.375Y-110.25
X133.375Y-111.25
X133.375Y-112.25
X133.375Y-113.25
X133.375Y-114.25
X133.375Y-115.25
X133.5Y-69.75
X133.5Y-71.75
X133.5Y-73.75
X133.5Y-128.25
X133.5Y-130.25
X133.5Y-132.25
X133.75Y-74.75
X133.75Y-76.75
X133.75Y-96.25
X133.75Y-98.25
X133.75Y-100.25
X133.75Y-102.25
X133.75Y-104.25
X133.75Y-106.25
X133.75Y-125.25
X133.75Y-127.25
X133.875Y-81.55
X133.875Y-82.55
X133.875Y-83.55
X133.875Y-84.55
X133.875Y-85.55
X133.875Y-86.55
X133.875Y-87.55
X133.875Y-88.55
X133.875Y-108.75
X133.875Y-109.75
X133.875Y-110.75
X133.875Y-111.75
X133.875Y-112.75
X133.875Y-113.75
X133.875Y-114.75
X133.875Y-115.75
X134.0Y-68.75
X134.0Y-70.75
X134.0Y-72.75
X134.0Y-129.25
X134.0Y-131.25
X134.0Y-133.25
X134.25Y-67.75
X134.25Y-75.75
X134.25Y-77.75
X134.25Y-97.25
X134.25Y-99.25
X134.25Y-101.25
X134.25Y-103.25
X134.25Y-105.25
X134.25Y-107.25
X134.25Y-124.25
X134.25Y-126.25
X134.25Y-134.25
X134.375Y-81.05
X134.375Y-82.05
X134.375Y-83.05
X134.375Y-84.05
X134.375Y-85.05
X134.375Y-86.05
X134.375Y-87.05
X134.375Y-88.05
X134.375Y-108.25
X134.375Y-109.25
X134.375Y-110.25
X134.375Y-111.25
X134.375Y-112.25
X134.375Y-113.25
X134.375Y-114.25
X134.375Y-115.25
X134.5Y-69.75
X134.5Y-71.75
X134.5Y-73.75
X134.5Y-128.25
X134.5Y-130.25
X134.5Y-132.25
X134.75Y-74.75
X134.75Y-76.75
X134.75Y-96.25
X134.75Y-98.25
X134.75Y-100.25
X134.75Y-102.25
X134.75Y-104.25
X134.75Y-106.25
X134.75Y-125.25
X134.75Y-127.25
X134.875Y-81.55
X134.875Y-82.55
X134.875Y-83.55
X134.875Y-84.55
X134.875Y-85.55
X134.875Y-86.55
X134.875Y-87.55
X134.875Y-88.55
X134.875Y-108.75
X134.875Y-109.75
X134.875Y-110.75
X134.875Y-111.75
X134.875Y-112.75
X134.875Y-113.75
X134.875Y-114.75
X134.875Y-115.75
X134.976Y-91.698
X134.976Y-118.898
X135.0Y-68.75
X135.0Y-70.75
X135.0Y-72.75
X135.0Y-129.25
X135.0Y-131.25
X135.0Y-133.25
X135.25Y-67.75
X135.25Y-75.75
X135.25Y-77.75
X135.25Y-97.25
X135.25Y-99.25
X135.25Y-101.25
X135.25Y-103.25
X135.25Y-105.25
X135.25Y-107.25
X135.25Y-124.25
X135.25Y-126.25
X135.25Y-134.25
X135.375Y-81.05
X135.375Y-82.05
X135.375Y-83.05
X135.375Y-84.05
X135.375Y-85.05
X135.375Y-86.05
X135.375Y-87.05
X135.375Y-88.05
X135.375Y-108.25
X135.375Y-109.25
X135.375Y-110.25
X135.375Y-111.25
X135.375Y-112.25
X135.375Y-113.25
X135.375Y-114.25
X135.375Y-115.25
X135.5Y-69.75
X135.5Y-71.75
X135.5Y-73.75
X135.5Y-128.25
X135.5Y-130.25
X135.5Y-132.25
X135.75Y-74.75
X135.75Y-76.75
X135.75Y-96.25
X135.75Y-98.25
X135.75Y-100.25
X135.75Y-102.25
X135.75Y-104.25
X135.75Y-106.25
X135.75Y-125.25
X135.75Y-127.25
X135.875Y-81.55
X135.875Y-82.55
X135.875Y-83.55
X135.875Y-84.55
X135.875Y-85.55
X135.875Y-86.55
X135.875Y-87.55
X135.875Y-88.55
X135.875Y-108.75
X135.875Y-109.75
X135.875Y-110.75
X135.875Y-111.75
X135.875Y-112.75
X135.875Y-113.75
X135.875Y-114.75
X135.875Y-115.75
X136.0Y-68.75
X136.0Y-70.75
X136.0Y-72.75
X136.0Y-129.25
X136.0Y-131.25
X136.0Y-133.25
X136.25Y-67.75
X136.25Y-75.75
X136.25Y-77.75
X136.25Y-97.25
X136.25Y-99.25
X136.25Y-101.25
X136.25Y-103.25
X136.25Y-105.25
X136.25Y-107.25
X136.25Y-124.25
X136.25Y-126.25
X136.25Y-134.25
X136.375Y-81.05
X136.375Y-82.05
X136.375Y-83.05
X136.375Y-84.05
X136.375Y-85.05
X136.375Y-86.05
X136.375Y-87.05
X136.375Y-88.05
X136.375Y-108.25
X136.375Y-109.25
X136.375Y-110.25
X136.375Y-111.25
X136.375Y-112.25
X136.375Y-113.25
X136.375Y-114.25
X136.375Y-115.25
X136.5Y-69.75
X136.5Y-71.75
X136.5Y-73.75
X136.5Y-128.25
X136.5Y-130.25
X136.5Y-132.25
X136.75Y-74.75
X136.75Y-76.75
X136.75Y-96.25
X136.75Y-98.25
X136.75Y-100.25
X136.75Y-102.25
X136.75Y-104.25
X136.75Y-106.25
X136.75Y-125.25
X136.75Y-127.25
X136.875Y-81.55
X136.875Y-82.55
X136.875Y-83.55
X136.875Y-84.55
X136.875Y-85.55
X136.875Y-86.55
X136.875Y-87.55
X136.875Y-88.55
X136.875Y-108.75
X136.875Y-109.75
X136.875Y-110.75
X136.875Y-111.75
X136.875Y-112.75
X136.875Y-113.75
X136.875Y-114.75
X136.875Y-115.75
X137.0Y-68.75
X137.0Y-70.75
X137.0Y-72.75
X137.0Y-129.25
X137.0Y-131.25
X137.0Y-133.25
X137.25Y-67.75
X137.25Y-75.75
X137.25Y-77.75
X137.25Y-97.25
X137.25Y-99.25
X137.25Y-101.25
X137.25Y-103.25
X137.25Y-105.25
X137.25Y-107.25
X137.25Y-124.25
X137.25Y-126.25
X137.25Y-134.25
X137.375Y-81.05
X137.375Y-82.05
X137.375Y-83.05
X137.375Y-84.05
X137.375Y-85.05
X137.375Y-86.05
X137.375Y-87.05
X137.375Y-88.05
X137.375Y-108.25
X137.375Y-109.25
X137.375Y-110.25
X137.375Y-111.25
X137.375Y-112.25
X137.375Y-113.25
X137.375Y-114.25
X137.375Y-115.25
X137.5Y-69.75
X137.5Y-71.75
X137.5Y-73.75
X137.5Y-128.25
X137.5Y-130.25
X137.5Y-132.25
X137.75Y-74.75
X137.75Y-76.75
X137.75Y-96.25
X137.75Y-98.25
X137.75Y-100.25
X137.75Y-102.25
X137.75Y-104.25
X137.75Y-106.25
X137.75Y-125.25
X137.75Y-127.25
X137.875Y-81.55
X137.875Y-82.55
X137.875Y-83.55
X137.875Y-84.55
X137.875Y-85.55
X137.875Y-86.55
X137.875Y-87.55
X137.875Y-88.55
X137.875Y-108.75
X137.875Y-109.75
X137.875Y-110.75
X137.875Y-111.75
X137.875Y-112.75
X137.875Y-113.75
X137.875Y-114.75
X137.875Y-115.75
X138.0Y-68.75
X138.0Y-129.25
X138.0Y-133.25
X138.25Y-67.75
X138.25Y-75.75
X138.25Y-77.75
X138.25Y-97.25
X138.25Y-99.25
X138.25Y-101.25
X138.25Y-103.25
X138.25Y-105.25
X138.25Y-107.25
X138.25Y-124.25
X138.25Y-126.25
X138.25Y-134.25
X138.375Y-81.05
X138.375Y-82.05
X138.375Y-83.05
X138.375Y-84.05
X138.375Y-85.05
X138.375Y-86.05
X138.375Y-87.05
X138.375Y-88.05
X138.375Y-108.25
X138.375Y-109.25
X138.375Y-110.25
X138.375Y-111.25
X138.375Y-112.25
X138.375Y-113.25
X138.375Y-114.25
X138.375Y-115.25
X138.75Y-74.75
X138.75Y-76.75
X138.75Y-96.25
X138.75Y-98.25
X138.75Y-100.25
X138.75Y-102.25
X138.75Y-104.25
X138.75Y-106.25
X138.75Y-125.25
X138.75Y-127.25
X138.875Y-81.55
X138.875Y-85.55
X138.875Y-86.55
X138.875Y-87.55
X138.875Y-88.55
X138.875Y-108.75
X138.875Y-112.75
X138.875Y-113.75
X138.875Y-114.75
X138.875Y-115.75
X139.0Y-68.75
X139.25Y-67.75
X139.25Y-75.75
X139.25Y-77.75
X139.25Y-97.25
X139.25Y-99.25
X139.25Y-101.25
X139.25Y-103.25
X139.25Y-105.25
X139.25Y-107.25
X139.25Y-124.25
X139.25Y-126.25
X139.25Y-134.25
X139.375Y-81.05
X139.375Y-82.05
X139.375Y-108.25
X139.375Y-109.25
X139.75Y-74.75
X139.75Y-76.75
X139.75Y-96.25
X139.75Y-98.25
X139.75Y-100.25
X139.75Y-102.25
X139.75Y-104.25
X139.75Y-106.25
X139.75Y-125.25
X139.75Y-127.25
X140.25Y-67.75
X140.25Y-75.75
X140.25Y-77.75
X140.25Y-97.25
X140.25Y-99.25
X140.25Y-101.25
X140.25Y-103.25
X140.25Y-105.25
X140.25Y-107.25
X140.25Y-124.25
X140.25Y-126.25
X140.25Y-134.25
X140.6Y-92.7
X140.6Y-119.9
X140.75Y-74.75
X140.75Y-76.75
X140.75Y-96.25
X140.75Y-98.25
X140.75Y-100.25
X140.75Y-102.25
X140.75Y-104.25
X140.75Y-106.25
X140.75Y-125.25
X140.75Y-127.25
X141.05Y-81.05
X141.05Y-82.05
X141.05Y-108.25
X141.05Y-109.25
X141.25Y-67.75
X141.25Y-75.75
X141.25Y-77.75
X141.25Y-97.25
X141.25Y-99.25
X141.25Y-101.25
X141.25Y-103.25
X141.25Y-105.25
X141.25Y-107.25
X141.25Y-124.25
X141.25Y-126.25
X141.25Y-134.25
X141.55Y-81.55
X141.55Y-85.55
X141.55Y-86.55
X141.55Y-87.55
X141.55Y-88.55
X141.55Y-108.75
X141.55Y-112.75
X141.55Y-113.75
X141.55Y-114.75
X141.55Y-115.75
X141.75Y-74.75
X141.75Y-76.75
X141.75Y-96.25
X141.75Y-98.25
X141.75Y-100.25
X141.75Y-102.25
X141.75Y-104.25
X141.75Y-106.25
X141.75Y-125.25
X141.75Y-127.25
X142.05Y-81.05
X142.05Y-82.05
X142.05Y-83.05
X142.05Y-84.05
X142.05Y-85.05
X142.05Y-86.05
X142.05Y-87.05
X142.05Y-88.05
X142.05Y-108.25
X142.05Y-109.25
X142.05Y-110.25
X142.05Y-111.25
X142.05Y-112.25
X142.05Y-113.25
X142.05Y-114.25
X142.05Y-115.25
X142.25Y-67.75
X142.25Y-75.75
X142.25Y-77.75
X142.25Y-97.25
X142.25Y-99.25
X142.25Y-101.25
X142.25Y-103.25
X142.25Y-105.25
X142.25Y-107.25
X142.25Y-124.25
X142.25Y-126.25
X142.25Y-134.25
X142.55Y-81.55
X142.55Y-82.55
X142.55Y-83.55
X142.55Y-84.55
X142.55Y-85.55
X142.55Y-86.55
X142.55Y-87.55
X142.55Y-88.55
X142.55Y-108.75
X142.55Y-109.75
X142.55Y-110.75
X142.55Y-111.75
X142.55Y-112.75
X142.55Y-113.75
X142.55Y-114.75
X142.55Y-115.75
X142.75Y-68.75
X142.75Y-74.75
X142.75Y-76.75
X142.75Y-96.25
X142.75Y-98.25
X142.75Y-100.25
X142.75Y-102.25
X142.75Y-104.25
X142.75Y-106.25
X142.75Y-125.25
X142.75Y-127.25
X142.75Y-133.25
X143.05Y-81.05
X143.05Y-82.05
X143.05Y-83.05
X143.05Y-84.05
X143.05Y-85.05
X143.05Y-86.05
X143.05Y-87.05
X143.05Y-88.05
X143.05Y-108.25
X143.05Y-109.25
X143.05Y-110.25
X143.05Y-111.25
X143.05Y-112.25
X143.05Y-113.25
X143.05Y-114.25
X143.05Y-115.25
X143.25Y-67.75
X143.25Y-69.75
X143.25Y-73.75
X143.25Y-75.75
X143.25Y-77.75
X143.25Y-97.25
X143.25Y-99.25
X143.25Y-101.25
X143.25Y-103.25
X143.25Y-105.25
X143.25Y-107.25
X143.25Y-124.25
X143.25Y-126.25
X143.25Y-128.25
X143.25Y-132.25
X143.25Y-134.25
X143.55Y-81.55
X143.55Y-82.55
X143.55Y-83.55
X143.55Y-84.55
X143.55Y-85.55
X143.55Y-86.55
X143.55Y-87.55
X143.55Y-88.55
X143.55Y-108.75
X143.55Y-109.75
X143.55Y-110.75
X143.55Y-111.75
X143.55Y-112.75
X143.55Y-113.75
X143.55Y-114.75
X143.55Y-115.75
X143.75Y-68.75
X143.75Y-70.75
X143.75Y-72.75
X143.75Y-74.75
X143.75Y-76.75
X143.75Y-96.25
X143.75Y-98.25
X143.75Y-100.25
X143.75Y-102.25
X143.75Y-104.25
X143.75Y-106.25
X143.75Y-125.25
X143.75Y-127.25
X143.75Y-129.25
X143.75Y-131.25
X143.75Y-133.25
X144.05Y-81.05
X144.05Y-82.05
X144.05Y-83.05
X144.05Y-84.05
X144.05Y-85.05
X144.05Y-86.05
X144.05Y-87.05
X144.05Y-88.05
X144.05Y-108.25
X144.05Y-109.25
X144.05Y-110.25
X144.05Y-111.25
X144.05Y-112.25
X144.05Y-113.25
X144.05Y-114.25
X144.05Y-115.25
X144.25Y-67.75
X144.25Y-69.75
X144.25Y-73.75
X144.25Y-75.75
X144.25Y-77.75
X144.25Y-97.25
X144.25Y-99.25
X144.25Y-101.25
X144.25Y-103.25
X144.25Y-105.25
X144.25Y-107.25
X144.25Y-124.25
X144.25Y-126.25
X144.25Y-128.25
X144.25Y-132.25
X144.25Y-134.25
X144.55Y-81.55
X144.55Y-82.55
X144.55Y-83.55
X144.55Y-84.55
X144.55Y-85.55
X144.55Y-86.55
X144.55Y-87.55
X144.55Y-88.55
X144.55Y-108.75
X144.55Y-109.75
X144.55Y-110.75
X144.55Y-111.75
X144.55Y-112.75
X144.55Y-113.75
X144.55Y-114.75
X144.55Y-115.75
X144.75Y-68.75
X144.75Y-74.75
X144.75Y-76.75
X144.75Y-98.25
X144.75Y-100.25
X144.75Y-102.25
X144.75Y-104.25
X144.75Y-106.25
X144.75Y-125.25
X144.75Y-127.25
X144.75Y-133.25
X145.05Y-81.05
X145.05Y-82.05
X145.05Y-83.05
X145.05Y-84.05
X145.05Y-85.05
X145.05Y-86.05
X145.05Y-87.05
X145.05Y-88.05
X145.05Y-108.25
X145.05Y-109.25
X145.05Y-110.25
X145.05Y-111.25
X145.05Y-112.25
X145.05Y-113.25
X145.05Y-114.25
X145.05Y-115.25
X145.25Y-67.75
X145.25Y-73.75
X145.25Y-75.75
X145.25Y-77.75
X145.25Y-99.25
X145.25Y-101.25
X145.25Y-103.25
X145.25Y-105.25
X145.25Y-107.25
X145.25Y-124.25
X145.25Y-126.25
X145.25Y-128.25
X145.25Y-134.25
X145.55Y-81.55
X145.55Y-82.55
X145.55Y-83.55
X145.55Y-84.55
X145.55Y-85.55
X145.55Y-86.55
X145.55Y-87.55
X145.55Y-88.55
X145.55Y-108.75
X145.55Y-109.75
X145.55Y-110.75
X145.55Y-111.75
X145.55Y-112.75
X145.55Y-113.75
X145.55Y-114.75
X145.55Y-115.75
X145.75Y-74.75
X145.75Y-76.75
X145.75Y-100.25
X145.75Y-102.25
X145.75Y-104.25
X145.75Y-106.25
X145.75Y-125.25
X145.75Y-127.25
X146.05Y-81.05
X146.05Y-82.05
X146.05Y-83.05
X146.05Y-84.05
X146.05Y-85.05
X146.05Y-86.05
X146.05Y-87.05
X146.05Y-88.05
X146.05Y-108.25
X146.05Y-109.25
X146.05Y-110.25
X146.05Y-111.25
X146.05Y-112.25
X146.05Y-113.25
X146.05Y-114.25
X146.05Y-115.25
X146.25Y-67.75
X146.25Y-75.75
X146.25Y-77.75
X146.25Y-99.25
X146.25Y-101.25
X146.25Y-103.25
X146.25Y-105.25
X146.25Y-107.25
X146.25Y-124.25
X146.25Y-126.25
X146.25Y-134.25
X146.55Y-81.55
X146.55Y-82.55
X146.55Y-83.55
X146.55Y-84.55
X146.55Y-85.55
X146.55Y-86.55
X146.55Y-87.55
X146.55Y-88.55
X146.55Y-108.75
X146.55Y-109.75
X146.55Y-110.75
X146.55Y-111.75
X146.55Y-112.75
X146.55Y-113.75
X146.55Y-114.75
X146.55Y-115.75
X146.651Y-91.698
X146.651Y-118.898
X146.75Y-74.75
X146.75Y-76.75
X146.75Y-100.25
X146.75Y-102.25
X146.75Y-104.25
X146.75Y-106.25
X146.75Y-125.25
X146.75Y-127.25
X147.05Y-81.05
X147.05Y-82.05
X147.05Y-83.05
X147.05Y-84.05
X147.05Y-85.05
X147.05Y-86.05
X147.05Y-87.05
X147.05Y-88.05
X147.05Y-108.25
X147.05Y-109.25
X147.05Y-110.25
X147.05Y-111.25
X147.05Y-112.25
X147.05Y-113.25
X147.05Y-114.25
X147.05Y-115.25
X147.25Y-67.75
X147.25Y-75.75
X147.25Y-77.75
X147.25Y-101.25
X147.25Y-103.25
X147.25Y-105.25
X147.25Y-107.25
X147.25Y-124.25
X147.25Y-126.25
X147.25Y-134.25
X147.55Y-81.55
X147.55Y-82.55
X147.55Y-83.55
X147.55Y-84.55
X147.55Y-85.55
X147.55Y-86.55
X147.55Y-87.55
X147.55Y-88.55
X147.55Y-108.75
X147.55Y-109.75
X147.55Y-110.75
X147.55Y-111.75
X147.55Y-112.75
X147.55Y-113.75
X147.55Y-114.75
X147.55Y-115.75
X147.75Y-74.75
X147.75Y-76.75
X147.75Y-102.25
X147.75Y-104.25
X147.75Y-106.25
X147.75Y-125.25
X147.75Y-127.25
X148.05Y-81.05
X148.05Y-82.05
X148.05Y-83.05
X148.05Y-84.05
X148.05Y-85.05
X148.05Y-86.05
X148.05Y-87.05
X148.05Y-88.05
X148.05Y-108.25
X148.05Y-109.25
X148.05Y-110.25
X148.05Y-111.25
X148.05Y-112.25
X148.05Y-113.25
X148.05Y-114.25
X148.05Y-115.25
X148.25Y-67.75
X148.25Y-75.75
X148.25Y-77.75
X148.25Y-101.25
X148.25Y-103.25
X148.25Y-105.25
X148.25Y-107.25
X148.25Y-124.25
X148.25Y-126.25
X148.25Y-134.25
X148.55Y-81.55
X148.55Y-82.55
X148.55Y-83.55
X148.55Y-84.55
X148.55Y-85.55
X148.55Y-86.55
X148.55Y-87.55
X148.55Y-88.55
X148.55Y-108.75
X148.55Y-109.75
X148.55Y-110.75
X148.55Y-111.75
X148.55Y-112.75
X148.55Y-113.75
X148.55Y-114.75
X148.55Y-115.75
X148.75Y-68.75
X148.75Y-74.75
X148.75Y-76.75
X148.75Y-102.25
X148.75Y-104.25
X148.75Y-106.25
X148.75Y-125.25
X148.75Y-127.25
X148.75Y-133.25
X149.05Y-81.05
X149.05Y-82.05
X149.05Y-83.05
X149.05Y-84.05
X149.05Y-85.05
X149.05Y-86.05
X149.05Y-87.05
X149.05Y-88.05
X149.05Y-108.25
X149.05Y-109.25
X149.05Y-110.25
X149.05Y-111.25
X149.05Y-112.25
X149.05Y-113.25
X149.05Y-114.25
X149.05Y-115.25
X149.25Y-67.75
X149.25Y-73.75
X149.25Y-75.75
X149.25Y-77.75
X149.25Y-103.25
X149.25Y-105.25
X149.25Y-107.25
X149.25Y-124.25
X149.25Y-126.25
X149.25Y-128.25
X149.25Y-134.25
X149.55Y-81.55
X149.55Y-82.55
X149.55Y-83.55
X149.55Y-84.55
X149.55Y-85.55
X149.55Y-86.55
X149.55Y-87.55
X149.55Y-88.55
X149.55Y-108.75
X149.55Y-109.75
X149.55Y-110.75
X149.55Y-111.75
X149.55Y-112.75
X149.55Y-113.75
X149.55Y-114.75
X149.55Y-115.75
X149.75Y-68.75
X149.75Y-70.75
X149.75Y-72.75
X149.75Y-74.75
X149.75Y-76.75
X149.75Y-125.25
X149.75Y-127.25
X149.75Y-129.25
X149.75Y-133.25
X150.05Y-81.05
X150.05Y-82.05
X150.05Y-83.05
X150.05Y-84.05
X150.05Y-85.05
X150.05Y-86.05
X150.05Y-87.05
X150.05Y-88.05
X150.05Y-108.25
X150.05Y-109.25
X150.05Y-110.25
X150.05Y-111.25
X150.05Y-112.25
X150.05Y-113.25
X150.05Y-114.25
X150.05Y-115.25
X150.25Y-67.75
X150.25Y-69.75
X150.25Y-71.75
X150.25Y-73.75
X150.25Y-75.75
X150.25Y-77.75
X150.25Y-124.25
X150.25Y-126.25
X150.25Y-128.25
X150.25Y-130.25
X150.25Y-132.25
X150.25Y-134.25
X150.55Y-81.55
X150.55Y-85.55
X150.55Y-86.55
X150.55Y-87.55
X150.55Y-88.55
X150.55Y-108.75
X150.55Y-112.75
X150.55Y-113.75
X150.55Y-114.75
X150.55Y-115.75
X150.75Y-68.75
X150.75Y-70.75
X150.75Y-72.75
X150.75Y-74.75
X150.75Y-76.75
X150.75Y-125.25
X150.75Y-127.25
X150.75Y-129.25
X150.75Y-131.25
X150.75Y-133.25
X151.05Y-81.05
X151.05Y-82.05
X151.05Y-108.25
X151.05Y-109.25
X151.25Y-67.75
X151.25Y-69.75
X151.25Y-71.75
X151.25Y-73.75
X151.25Y-75.75
X151.25Y-77.75
X151.25Y-124.25
X151.25Y-126.25
X151.25Y-128.25
X151.25Y-130.25
X151.25Y-132.25
X151.25Y-134.25
X151.75Y-68.75
X151.75Y-70.75
X151.75Y-72.75
X151.75Y-74.75
X151.75Y-76.75
X151.75Y-125.25
X151.75Y-127.25
X151.75Y-129.25
X151.75Y-131.25
X151.75Y-133.25
X152.25Y-67.75
X152.25Y-69.75
X152.25Y-71.75
X152.25Y-73.75
X152.25Y-75.75
X152.25Y-77.75
X152.25Y-124.25
X152.25Y-126.25
X152.25Y-128.25
X152.25Y-130.25
X152.25Y-132.25
X152.25Y-134.25
X152.357Y-84.488
X152.4Y-102.85
X152.75Y-68.75
X152.75Y-70.75
X152.75Y-72.75
X152.75Y-74.75
X152.75Y-76.75
X152.75Y-125.25
X152.75Y-127.25
X152.75Y-129.25
X152.75Y-131.25
X152.75Y-133.25
X153.11Y-101.375
X153.25Y-67.75
X153.25Y-69.75
X153.25Y-71.75
X153.25Y-73.75
X153.25Y-75.75
X153.25Y-77.75
X153.25Y-124.25
X153.25Y-126.25
X153.25Y-128.25
X153.25Y-130.25
X153.25Y-132.25
X153.25Y-134.25
X153.4Y-105.6
X153.45Y-84.225
X153.75Y-68.75
X153.75Y-70.75
X153.75Y-72.75
X153.75Y-74.75
X153.75Y-76.75
X153.75Y-125.25
X153.75Y-127.25
X153.75Y-129.25
X153.75Y-131.25
X153.75Y-133.25
X153.781Y-97.719
X154.25Y-67.75
X154.25Y-69.75
X154.25Y-71.75
X154.25Y-73.75
X154.25Y-75.75
X154.25Y-77.75
X154.25Y-124.25
X154.25Y-126.25
X154.25Y-128.25
X154.25Y-130.25
X154.25Y-132.25
X154.25Y-134.25
X154.612Y-92.688
X154.612Y-95.887
X154.612Y-99.512
X154.75Y-68.75
X154.75Y-70.75
X154.75Y-72.75
X154.75Y-74.75
X154.75Y-76.75
X154.75Y-125.25
X154.75Y-127.25
X154.75Y-129.25
X154.75Y-131.25
X154.75Y-133.25
X155.25Y-67.75
X155.25Y-69.75
X155.25Y-71.75
X155.25Y-73.75
X155.25Y-75.75
X155.25Y-77.75
X155.25Y-124.25
X155.25Y-126.25
X155.25Y-128.25
X155.25Y-130.25
X155.25Y-132.25
X155.25Y-134.25
X155.35Y-83.1
X155.75Y-68.75
X155.75Y-70.75
X155.75Y-72.75
X155.75Y-74.75
X155.75Y-76.75
X155.75Y-125.25
X155.75Y-127.25
X155.75Y-129.25
X155.75Y-131.25
X155.75Y-133.25
X156.25Y-67.75
X156.25Y-69.75
X156.25Y-71.75
X156.25Y-73.75
X156.25Y-75.75
X156.25Y-77.75
X156.25Y-124.25
X156.25Y-126.25
X156.25Y-128.25
X156.25Y-130.25
X156.25Y-132.25
X156.25Y-134.25
X156.75Y-68.75
X156.75Y-70.75
X156.75Y-72.75
X156.75Y-74.75
X156.75Y-76.75
X156.75Y-125.25
X156.75Y-127.25
X156.75Y-129.25
X156.75Y-131.25
X156.75Y-133.25
X157.25Y-67.75
X157.25Y-69.75
X157.25Y-71.75
X157.25Y-73.75
X157.25Y-75.75
X157.25Y-77.75
X157.25Y-85.0
X157.25Y-92.0
X157.25Y-99.9
X157.25Y-124.25
X157.25Y-126.25
X157.25Y-128.25
X157.25Y-130.25
X157.25Y-132.25
X157.25Y-134.25
X157.75Y-68.75
X157.75Y-70.75
X157.75Y-72.75
X157.75Y-74.75
X157.75Y-76.75
X157.75Y-125.25
X157.75Y-127.25
X157.75Y-129.25
X157.75Y-131.25
X157.75Y-133.25
X158.25Y-67.75
X158.25Y-69.75
X158.25Y-71.75
X158.25Y-73.75
X158.25Y-75.75
X158.25Y-77.75
X158.25Y-124.25
X158.25Y-126.25
X158.25Y-128.25
X158.25Y-130.25
X158.25Y-132.25
X158.25Y-134.25
X158.75Y-68.75
X158.75Y-70.75
X158.75Y-72.75
X158.75Y-74.75
X158.75Y-76.75
X158.75Y-125.25
X158.75Y-127.25
X158.75Y-129.25
X158.75Y-131.25
X158.75Y-133.25
X158.95Y-105.07
X159.25Y-67.75
X159.25Y-69.75
X159.25Y-71.75
X159.25Y-73.75
X159.25Y-75.75
X159.25Y-77.75
X159.25Y-124.25
X159.25Y-126.25
X159.25Y-128.25
X159.25Y-130.25
X159.25Y-132.25
X159.25Y-134.25
X159.75Y-68.75
X159.75Y-70.75
X159.75Y-72.75
X159.75Y-74.75
X159.75Y-76.75
X159.75Y-125.25
X159.75Y-127.25
X159.75Y-129.25
X159.75Y-131.25
X159.75Y-133.25
X159.95Y-99.5
X160.25Y-67.75
X160.25Y-69.75
X160.25Y-71.75
X160.25Y-73.75
X160.25Y-75.75
X160.25Y-77.75
X160.25Y-124.25
X160.25Y-126.25
X160.25Y-128.25
X160.25Y-130.25
X160.25Y-132.25
X160.25Y-134.25
X160.44Y-89.75
X160.745Y-88.245
X160.75Y-68.75
X160.75Y-70.75
X160.75Y-72.75
X160.75Y-74.75
X160.75Y-76.75
X160.75Y-125.25
X160.75Y-127.25
X160.75Y-129.25
X160.75Y-131.25
X160.75Y-133.25
X161.25Y-67.75
X161.25Y-69.75
X161.25Y-71.75
X161.25Y-73.75
X161.25Y-75.75
X161.25Y-77.75
X161.25Y-124.25
X161.25Y-126.25
X161.25Y-128.25
X161.25Y-130.25
X161.25Y-132.25
X161.25Y-134.25
X161.75Y-68.75
X161.75Y-70.75
X161.75Y-72.75
X161.75Y-74.75
X161.75Y-76.75
X161.75Y-125.25
X161.75Y-127.25
X161.75Y-129.25
X161.75Y-131.25
X161.75Y-133.25
X162.25Y-67.75
X162.25Y-69.75
X162.25Y-71.75
X162.25Y-73.75
X162.25Y-75.75
X162.25Y-77.75
X162.25Y-124.25
X162.25Y-126.25
X162.25Y-128.25
X162.25Y-130.25
X162.25Y-132.25
X162.25Y-134.25
X162.75Y-68.75
X162.75Y-70.75
X162.75Y-72.75
X162.75Y-74.75
X162.75Y-76.75
X162.75Y-125.25
X162.75Y-127.25
X162.75Y-129.25
X162.75Y-131.25
X162.75Y-133.25
X162.85Y-81.0
X162.881Y-102.216
X163.25Y-67.75
X163.25Y-69.75
X163.25Y-71.75
X163.25Y-73.75
X163.25Y-75.75
X163.25Y-77.75
X163.25Y-124.25
X163.25Y-126.25
X163.25Y-128.25
X163.25Y-130.25
X163.25Y-132.25
X163.25Y-134.25
X163.301Y-114.124
X163.55Y-112.875
X163.75Y-68.75
X163.75Y-70.75
X163.75Y-72.75
X163.75Y-74.75
X163.75Y-76.75
X163.75Y-125.25
X163.75Y-127.25
X163.75Y-129.25
X163.75Y-131.25
X163.75Y-133.25
X164.05Y-116.075
X164.125Y-81.1
X164.25Y-67.75
X164.25Y-69.75
X164.25Y-71.75
X164.25Y-73.75
X164.25Y-75.75
X164.25Y-77.75
X164.25Y-124.25
X164.25Y-126.25
X164.25Y-128.25
X164.25Y-130.25
X164.25Y-132.25
X164.25Y-134.25
X164.75Y-68.75
X164.75Y-70.75
X164.75Y-72.75
X164.75Y-74.75
X164.75Y-76.75
X164.75Y-125.25
X164.75Y-127.25
X164.75Y-129.25
X164.75Y-131.25
X164.75Y-133.25
X165.034Y-94.14
X165.111Y-91.789
X165.15Y-105.925
X165.25Y-67.75
X165.25Y-69.75
X165.25Y-71.75
X165.25Y-73.75
X165.25Y-75.75
X165.25Y-77.75
X165.25Y-124.25
X165.25Y-126.25
X165.25Y-128.25
X165.25Y-130.25
X165.25Y-132.25
X165.25Y-134.25
X165.75Y-68.75
X165.75Y-70.75
X165.75Y-72.75
X165.75Y-74.75
X165.75Y-76.75
X165.75Y-125.25
X165.75Y-127.25
X165.75Y-129.25
X165.75Y-131.25
X165.75Y-133.25
X165.897Y-92.624
X166.224Y-105.414
X166.25Y-67.75
X166.25Y-69.75
X166.25Y-71.75
X166.25Y-73.75
X166.25Y-75.75
X166.25Y-77.75
X166.25Y-124.25
X166.25Y-126.25
X166.25Y-128.25
X166.25Y-130.25
X166.25Y-132.25
X166.25Y-134.25
X166.25Y-107.25
X166.475Y-99.45
X166.7Y-81.175
X166.75Y-68.75
X166.75Y-70.75
X166.75Y-72.75
X166.75Y-74.75
X166.75Y-76.75
X166.75Y-125.25
X166.75Y-127.25
X166.75Y-129.25
X166.75Y-131.25
X166.75Y-133.25
X167.012Y-111.145
X167.119Y-104.519
X167.25Y-67.75
X167.25Y-69.75
X167.25Y-71.75
X167.25Y-73.75
X167.25Y-75.75
X167.25Y-77.75
X167.25Y-124.25
X167.25Y-126.25
X167.25Y-128.25
X167.25Y-130.25
X167.25Y-132.25
X167.25Y-134.25
X167.672Y-90.902
X167.75Y-68.75
X167.75Y-70.75
X167.75Y-72.75
X167.75Y-74.75
X167.75Y-76.75
X167.75Y-125.25
X167.75Y-127.25
X167.75Y-129.25
X167.75Y-131.25
X167.75Y-133.25
X167.914Y-81.164
X168.25Y-67.75
X168.25Y-69.75
X168.25Y-71.75
X168.25Y-73.75
X168.25Y-75.75
X168.25Y-77.75
X168.25Y-124.25
X168.25Y-126.25
X168.25Y-128.25
X168.25Y-130.25
X168.25Y-132.25
X168.25Y-134.25
X168.49Y-91.64
X168.75Y-68.75
X168.75Y-70.75
X168.75Y-72.75
X168.75Y-74.75
X168.75Y-76.75
X168.75Y-125.25
X168.75Y-127.25
X168.75Y-129.25
X168.75Y-131.25
X168.75Y-133.25
X169.25Y-67.75
X169.25Y-69.75
X169.25Y-71.75
X169.25Y-73.75
X169.25Y-75.75
X169.25Y-77.75
X169.25Y-124.25
X169.25Y-126.25
X169.25Y-128.25
X169.25Y-130.25
X169.25Y-132.25
X169.25Y-134.25
X169.713Y-112.358
X169.75Y-68.75
X169.75Y-70.75
X169.75Y-72.75
X169.75Y-74.75
X169.75Y-76.75
X169.75Y-125.25
X169.75Y-127.25
X169.75Y-129.25
X169.75Y-131.25
X169.75Y-133.25
X169.85Y-104.65
X169.85Y-108.65
X169.9Y-86.1
X170.25Y-67.75
X170.25Y-69.75
X170.25Y-71.75
X170.25Y-73.75
X170.25Y-75.75
X170.25Y-77.75
X170.25Y-124.25
X170.25Y-126.25
X170.25Y-128.25
X170.25Y-130.25
X170.25Y-132.25
X170.25Y-134.25
X170.528Y-106.472
X170.75Y-68.75
X170.75Y-70.75
X170.75Y-72.75
X170.75Y-74.75
X170.75Y-76.75
X170.75Y-125.25
X170.75Y-127.25
X170.75Y-129.25
X170.75Y-131.25
X170.75Y-133.25
X171.25Y-67.75
X171.25Y-69.75
X171.25Y-71.75
X171.25Y-73.75
X171.25Y-75.75
X171.25Y-77.75
X171.25Y-124.25
X171.25Y-126.25
X171.25Y-128.25
X171.25Y-130.25
X171.25Y-132.25
X171.25Y-134.25
X171.3Y-98.701
X171.463Y-102.945
X171.625Y-85.775
X171.75Y-68.75
X171.75Y-70.75
X171.75Y-72.75
X171.75Y-74.75
X171.75Y-76.75
X171.75Y-125.25
X171.75Y-127.25
X171.75Y-129.25
X171.75Y-131.25
X171.75Y-133.25
X172.012Y-119.188
X172.208Y-101.51
X172.25Y-67.75
X172.25Y-69.75
X172.25Y-71.75
X172.25Y-73.75
X172.25Y-75.75
X172.25Y-77.75
X172.25Y-124.25
X172.25Y-126.25
X172.25Y-128.25
X172.25Y-130.25
X172.25Y-132.25
X172.25Y-134.25
X172.75Y-68.75
X172.75Y-70.75
X172.75Y-72.75
X172.75Y-74.75
X172.75Y-76.75
X172.75Y-125.25
X172.75Y-127.25
X172.75Y-129.25
X172.75Y-131.25
X172.75Y-133.25
X173.0Y-92.7
X173.028Y-119.924
X173.25Y-67.75
X173.25Y-69.75
X173.25Y-71.75
X173.25Y-73.75
X173.25Y-75.75
X173.25Y-77.75
X173.25Y-124.25
X173.25Y-126.25
X173.25Y-128.25
X173.25Y-130.25
X173.25Y-132.25
X173.25Y-134.25
X173.45Y-81.05
X173.45Y-82.05
X173.45Y-108.25
X173.45Y-109.25
X173.75Y-68.75
X173.75Y-70.75
X173.75Y-72.75
X173.75Y-74.75
X173.75Y-76.75
X173.75Y-125.25
X173.75Y-127.25
X173.75Y-129.25
X173.75Y-131.25
X173.75Y-133.25
X173.95Y-81.55
X173.95Y-85.55
X173.95Y-86.55
X173.95Y-87.55
X173.95Y-88.55
X173.95Y-108.75
X173.95Y-112.75
X173.95Y-113.75
X173.95Y-114.75
X173.95Y-115.75
X174.25Y-67.75
X174.25Y-69.75
X174.25Y-71.75
X174.25Y-73.75
X174.25Y-75.75
X174.25Y-77.75
X174.25Y-124.25
X174.25Y-126.25
X174.25Y-128.25
X174.25Y-130.25
X174.25Y-132.25
X174.25Y-134.25
X174.45Y-81.05
X174.45Y-82.05
X174.45Y-83.05
X174.45Y-84.05
X174.45Y-85.05
X174.45Y-86.05
X174.45Y-87.05
X174.45Y-88.05
X174.45Y-108.25
X174.45Y-109.25
X174.45Y-110.25
X174.45Y-111.25
X174.45Y-112.25
X174.45Y-113.25
X174.45Y-114.25
X174.45Y-115.25
X174.75Y-68.75
X174.75Y-72.75
X174.75Y-74.75
X174.75Y-76.75
X174.75Y-125.25
X174.75Y-127.25
X174.75Y-129.25
X174.75Y-133.25
X174.95Y-81.55
X174.95Y-82.55
X174.95Y-83.55
X174.95Y-84.55
X174.95Y-85.55
X174.95Y-86.55
X174.95Y-87.55
X174.95Y-88.55
X174.95Y-108.75
X174.95Y-109.75
X174.95Y-110.75
X174.95Y-111.75
X174.95Y-112.75
X174.95Y-113.75
X174.95Y-114.75
X174.95Y-115.75
X175.25Y-67.75
X175.25Y-73.75
X175.25Y-75.75
X175.25Y-77.75
X175.25Y-103.25
X175.25Y-105.25
X175.25Y-107.25
X175.25Y-124.25
X175.25Y-126.25
X175.25Y-128.25
X175.25Y-134.25
X175.45Y-81.05
X175.45Y-82.05
X175.45Y-83.05
X175.45Y-84.05
X175.45Y-85.05
X175.45Y-86.05
X175.45Y-87.05
X175.45Y-88.05
X175.45Y-108.25
X175.45Y-109.25
X175.45Y-110.25
X175.45Y-111.25
X175.45Y-112.25
X175.45Y-113.25
X175.45Y-114.25
X175.45Y-115.25
X175.75Y-68.75
X175.75Y-74.75
X175.75Y-76.75
X175.75Y-102.25
X175.75Y-104.25
X175.75Y-106.25
X175.75Y-125.25
X175.75Y-127.25
X175.75Y-133.25
X175.95Y-81.55
X175.95Y-82.55
X175.95Y-83.55
X175.95Y-84.55
X175.95Y-85.55
X175.95Y-86.55
X175.95Y-87.55
X175.95Y-88.55
X175.95Y-108.75
X175.95Y-109.75
X175.95Y-110.75
X175.95Y-111.75
X175.95Y-112.75
X175.95Y-113.75
X175.95Y-114.75
X175.95Y-115.75
X176.25Y-67.75
X176.25Y-75.75
X176.25Y-77.75
X176.25Y-101.25
X176.25Y-103.25
X176.25Y-105.25
X176.25Y-107.25
X176.25Y-124.25
X176.25Y-126.25
X176.25Y-128.25
X176.25Y-134.25
X176.45Y-81.05
X176.45Y-82.05
X176.45Y-83.05
X176.45Y-84.05
X176.45Y-85.05
X176.45Y-86.05
X176.45Y-87.05
X176.45Y-88.05
X176.45Y-108.25
X176.45Y-109.25
X176.45Y-110.25
X176.45Y-111.25
X176.45Y-112.25
X176.45Y-113.25
X176.45Y-114.25
X176.45Y-115.25
X176.75Y-74.75
X176.75Y-76.75
X176.75Y-102.25
X176.75Y-104.25
X176.75Y-106.25
X176.75Y-125.25
X176.75Y-127.25
X176.95Y-81.55
X176.95Y-82.55
X176.95Y-83.55
X176.95Y-84.55
X176.95Y-85.55
X176.95Y-86.55
X176.95Y-87.55
X176.95Y-88.55
X176.95Y-108.75
X176.95Y-109.75
X176.95Y-110.75
X176.95Y-111.75
X176.95Y-112.75
X176.95Y-113.75
X176.95Y-114.75
X176.95Y-115.75
X177.25Y-67.75
X177.25Y-75.75
X177.25Y-77.75
X177.25Y-101.25
X177.25Y-103.25
X177.25Y-105.25
X177.25Y-107.25
X177.25Y-124.25
X177.25Y-126.25
X177.25Y-134.25
X177.45Y-81.05
X177.45Y-82.05
X177.45Y-83.05
X177.45Y-84.05
X177.45Y-85.05
X177.45Y-86.05
X177.45Y-87.05
X177.45Y-88.05
X177.45Y-108.25
X177.45Y-109.25
X177.45Y-110.25
X177.45Y-111.25
X177.45Y-112.25
X177.45Y-113.25
X177.45Y-114.25
X177.45Y-115.25
X177.75Y-74.75
X177.75Y-76.75
X177.75Y-100.25
X177.75Y-102.25
X177.75Y-104.25
X177.75Y-106.25
X177.75Y-125.25
X177.75Y-127.25
X177.95Y-81.55
X177.95Y-82.55
X177.95Y-83.55
X177.95Y-84.55
X177.95Y-85.55
X177.95Y-86.55
X177.95Y-87.55
X177.95Y-88.55
X177.95Y-108.75
X177.95Y-109.75
X177.95Y-110.75
X177.95Y-111.75
X177.95Y-112.75
X177.95Y-113.75
X177.95Y-114.75
X177.95Y-115.75
X178.25Y-67.75
X178.25Y-75.75
X178.25Y-77.75
X178.25Y-99.25
X178.25Y-101.25
X178.25Y-103.25
X178.25Y-105.25
X178.25Y-107.25
X178.25Y-124.25
X178.25Y-126.25
X178.25Y-134.25
X178.45Y-81.05
X178.45Y-82.05
X178.45Y-83.05
X178.45Y-84.05
X178.45Y-85.05
X178.45Y-86.05
X178.45Y-87.05
X178.45Y-88.05
X178.45Y-108.25
X178.45Y-109.25
X178.45Y-110.25
X178.45Y-111.25
X178.45Y-112.25
X178.45Y-113.25
X178.45Y-114.25
X178.45Y-115.25
X178.75Y-74.75
X178.75Y-76.75
X178.75Y-100.25
X178.75Y-102.25
X178.75Y-104.25
X178.75Y-106.25
X178.75Y-125.25
X178.75Y-127.25
X178.95Y-81.55
X178.95Y-82.55
X178.95Y-83.55
X178.95Y-84.55
X178.95Y-85.55
X178.95Y-86.55
X178.95Y-87.55
X178.95Y-88.55
X178.95Y-108.75
X178.95Y-109.75
X178.95Y-110.75
X178.95Y-111.75
X178.95Y-112.75
X178.95Y-113.75
X178.95Y-114.75
X178.95Y-115.75
X179.05Y-118.9
X179.051Y-91.698
X179.25Y-67.75
X179.25Y-73.75
X179.25Y-75.75
X179.25Y-77.75
X179.25Y-99.25
X179.25Y-101.25
X179.25Y-103.25
X179.25Y-105.25
X179.25Y-107.25
X179.25Y-124.25
X179.25Y-126.25
X179.25Y-128.25
X179.25Y-134.25
X179.45Y-81.05
X179.45Y-82.05
X179.45Y-83.05
X179.45Y-84.05
X179.45Y-85.05
X179.45Y-86.05
X179.45Y-87.05
X179.45Y-88.05
X179.45Y-108.25
X179.45Y-109.25
X179.45Y-110.25
X179.45Y-111.25
X179.45Y-112.25
X179.45Y-113.25
X179.45Y-114.25
X179.45Y-115.25
X179.75Y-68.75
X179.75Y-74.75
X179.75Y-76.75
X179.75Y-98.25
X179.75Y-100.25
X179.75Y-102.25
X179.75Y-104.25
X179.75Y-106.25
X179.75Y-125.25
X179.75Y-127.25
X179.75Y-133.25
X179.95Y-81.55
X179.95Y-82.55
X179.95Y-83.55
X179.95Y-84.55
X179.95Y-85.55
X179.95Y-86.55
X179.95Y-87.55
X179.95Y-88.55
X179.95Y-108.75
X179.95Y-109.75
X179.95Y-110.75
X179.95Y-111.75
X179.95Y-112.75
X179.95Y-113.75
X179.95Y-114.75
X179.95Y-115.75
X180.25Y-67.75
X180.25Y-69.75
X180.25Y-73.75
X180.25Y-75.75
X180.25Y-77.75
X180.25Y-97.25
X180.25Y-99.25
X180.25Y-101.25
X180.25Y-103.25
X180.25Y-105.25
X180.25Y-107.25
X180.25Y-124.25
X180.25Y-126.25
X180.25Y-128.25
X180.25Y-132.25
X180.25Y-134.25
X180.45Y-81.05
X180.45Y-82.05
X180.45Y-83.05
X180.45Y-84.05
X180.45Y-85.05
X180.45Y-86.05
X180.45Y-87.05
X180.45Y-88.05
X180.45Y-108.25
X180.45Y-109.25
X180.45Y-110.25
X180.45Y-111.25
X180.45Y-112.25
X180.45Y-113.25
X180.45Y-114.25
X180.45Y-115.25
X180.75Y-68.75
X180.75Y-70.75
X180.75Y-72.75
X180.75Y-74.75
X180.75Y-76.75
X180.75Y-96.25
X180.75Y-98.25
X180.75Y-100.25
X180.75Y-102.25
X180.75Y-104.25
X180.75Y-106.25
X180.75Y-125.25
X180.75Y-127.25
X180.75Y-129.25
X180.75Y-131.25
X180.75Y-133.25
X180.95Y-81.55
X180.95Y-82.55
X180.95Y-83.55
X180.95Y-84.55
X180.95Y-85.55
X180.95Y-86.55
X180.95Y-87.55
X180.95Y-88.55
X180.95Y-108.75
X180.95Y-109.75
X180.95Y-110.75
X180.95Y-111.75
X180.95Y-112.75
X180.95Y-113.75
X180.95Y-114.75
X180.95Y-115.75
X181.25Y-67.75
X181.25Y-69.75
X181.25Y-73.75
X181.25Y-75.75
X181.25Y-77.75
X181.25Y-97.25
X181.25Y-99.25
X181.25Y-101.25
X181.25Y-103.25
X181.25Y-105.25
X181.25Y-107.25
X181.25Y-124.25
X181.25Y-126.25
X181.25Y-128.25
X181.25Y-132.25
X181.25Y-134.25
X181.45Y-81.05
X181.45Y-82.05
X181.45Y-83.05
X181.45Y-84.05
X181.45Y-85.05
X181.45Y-86.05
X181.45Y-87.05
X181.45Y-88.05
X181.45Y-108.25
X181.45Y-109.25
X181.45Y-110.25
X181.45Y-111.25
X181.45Y-112.25
X181.45Y-113.25
X181.45Y-114.25
X181.45Y-115.25
X181.75Y-68.75
X181.75Y-74.75
X181.75Y-76.75
X181.75Y-96.25
X181.75Y-98.25
X181.75Y-100.25
X181.75Y-102.25
X181.75Y-104.25
X181.75Y-106.25
X181.75Y-125.25
X181.75Y-127.25
X181.75Y-133.25
X181.95Y-81.55
X181.95Y-82.55
X181.95Y-83.55
X181.95Y-84.55
X181.95Y-85.55
X181.95Y-86.55
X181.95Y-87.55
X181.95Y-88.55
X181.95Y-108.75
X181.95Y-109.75
X181.95Y-110.75
X181.95Y-111.75
X181.95Y-112.75
X181.95Y-113.75
X181.95Y-114.75
X181.95Y-115.75
X182.25Y-67.75
X182.25Y-75.75
X182.25Y-77.75
X182.25Y-97.25
X182.25Y-99.25
X182.25Y-101.25
X182.25Y-103.25
X182.25Y-105.25
X182.25Y-107.25
X182.25Y-124.25
X182.25Y-126.25
X182.25Y-134.25
X182.45Y-81.05
X182.45Y-82.05
X182.45Y-83.05
X182.45Y-84.05
X182.45Y-85.05
X182.45Y-86.05
X182.45Y-87.05
X182.45Y-88.05
X182.45Y-108.25
X182.45Y-109.25
X182.45Y-110.25
X182.45Y-111.25
X182.45Y-112.25
X182.45Y-113.25
X182.45Y-114.25
X182.45Y-115.25
X182.75Y-74.75
X182.75Y-76.75
X182.75Y-96.25
X182.75Y-98.25
X182.75Y-100.25
X182.75Y-102.25
X182.75Y-104.25
X182.75Y-106.25
X182.75Y-125.25
X182.75Y-127.25
X182.95Y-81.55
X182.95Y-85.55
X182.95Y-86.55
X182.95Y-87.55
X182.95Y-88.55
X182.95Y-108.75
X182.95Y-112.75
X182.95Y-113.75
X182.95Y-114.75
X182.95Y-115.75
X183.25Y-67.75
X183.25Y-75.75
X183.25Y-77.75
X183.25Y-97.25
X183.25Y-99.25
X183.25Y-101.25
X183.25Y-103.25
X183.25Y-105.25
X183.25Y-107.25
X183.25Y-124.25
X183.25Y-126.25
X183.25Y-134.25
X183.45Y-81.05
X183.45Y-82.05
X183.45Y-108.25
X183.45Y-109.25
X183.75Y-74.75
X183.75Y-76.75
X183.75Y-96.25
X183.75Y-98.25
X183.75Y-100.25
X183.75Y-102.25
X183.75Y-104.25
X183.75Y-106.25
X183.75Y-125.25
X183.75Y-127.25
X184.25Y-67.75
X184.25Y-75.75
X184.25Y-77.75
X184.25Y-97.25
X184.25Y-99.25
X184.25Y-101.25
X184.25Y-103.25
X184.25Y-105.25
X184.25Y-107.25
X184.25Y-124.25
X184.25Y-126.25
X184.25Y-134.25
X184.65Y-119.9
X184.675Y-92.7
X184.75Y-74.75
X184.75Y-76.75
X184.75Y-96.25
X184.75Y-98.25
X184.75Y-100.25
X184.75Y-102.25
X184.75Y-104.25
X184.75Y-106.25
X184.75Y-125.25
X184.75Y-127.25
X185.125Y-81.05
X185.125Y-82.05
X185.125Y-108.25
X185.125Y-109.25
X185.25Y-67.75
X185.25Y-75.75
X185.25Y-77.75
X185.25Y-97.25
X185.25Y-99.25
X185.25Y-101.25
X185.25Y-103.25
X185.25Y-105.25
X185.25Y-107.25
X185.25Y-124.25
X185.25Y-126.25
X185.25Y-134.25
X185.5Y-68.75
X185.5Y-133.25
X185.625Y-81.55
X185.625Y-85.55
X185.625Y-86.55
X185.625Y-87.55
X185.625Y-88.55
X185.625Y-108.75
X185.625Y-112.75
X185.625Y-113.75
X185.625Y-114.75
X185.625Y-115.75
X185.75Y-74.75
X185.75Y-76.75
X185.75Y-96.25
X185.75Y-98.25
X185.75Y-100.25
X185.75Y-102.25
X185.75Y-104.25
X185.75Y-106.25
X185.75Y-125.25
X185.75Y-127.25
X186.125Y-81.05
X186.125Y-82.05
X186.125Y-83.05
X186.125Y-84.05
X186.125Y-85.05
X186.125Y-86.05
X186.125Y-87.05
X186.125Y-88.05
X186.125Y-108.25
X186.125Y-109.25
X186.125Y-110.25
X186.125Y-111.25
X186.125Y-112.25
X186.125Y-113.25
X186.125Y-114.25
X186.125Y-115.25
X186.25Y-67.75
X186.25Y-75.75
X186.25Y-77.75
X186.25Y-97.25
X186.25Y-99.25
X186.25Y-101.25
X186.25Y-103.25
X186.25Y-105.25
X186.25Y-107.25
X186.25Y-124.25
X186.25Y-126.25
X186.25Y-134.25
X186.5Y-68.75
X186.5Y-129.25
X186.5Y-133.25
X186.625Y-81.55
X186.625Y-82.55
X186.625Y-83.55
X186.625Y-84.55
X186.625Y-85.55
X186.625Y-86.55
X186.625Y-87.55
X186.625Y-88.55
X186.625Y-108.75
X186.625Y-109.75
X186.625Y-110.75
X186.625Y-111.75
X186.625Y-112.75
X186.625Y-113.75
X186.625Y-114.75
X186.625Y-115.75
X186.75Y-74.75
X186.75Y-76.75
X186.75Y-96.25
X186.75Y-98.25
X186.75Y-100.25
X186.75Y-102.25
X186.75Y-104.25
X186.75Y-106.25
X186.75Y-125.25
X186.75Y-127.25
X187.0Y-69.75
X187.0Y-71.75
X187.0Y-73.75
X187.0Y-128.25
X187.0Y-130.25
X187.0Y-132.25
X187.125Y-81.05
X187.125Y-82.05
X187.125Y-83.05
X187.125Y-84.05
X187.125Y-85.05
X187.125Y-86.05
X187.125Y-87.05
X187.125Y-88.05
X187.125Y-108.25
X187.125Y-109.25
X187.125Y-110.25
X187.125Y-111.25
X187.125Y-112.25
X187.125Y-113.25
X187.125Y-114.25
X187.125Y-115.25
X187.25Y-67.75
X187.25Y-75.75
X187.25Y-77.75
X187.25Y-97.25
X187.25Y-99.25
X187.25Y-101.25
X187.25Y-103.25
X187.25Y-105.25
X187.25Y-107.25
X187.25Y-124.25
X187.25Y-126.25
X187.25Y-134.25
X187.5Y-68.75
X187.5Y-70.75
X187.5Y-72.75
X187.5Y-129.25
X187.5Y-131.25
X187.5Y-133.25
X187.625Y-81.55
X187.625Y-82.55
X187.625Y-83.55
X187.625Y-84.55
X187.625Y-85.55
X187.625Y-86.55
X187.625Y-87.55
X187.625Y-88.55
X187.625Y-108.75
X187.625Y-109.75
X187.625Y-110.75
X187.625Y-111.75
X187.625Y-112.75
X187.625Y-113.75
X187.625Y-114.75
X187.625Y-115.75
X187.75Y-74.75
X187.75Y-76.75
X187.75Y-96.25
X187.75Y-98.25
X187.75Y-100.25
X187.75Y-102.25
X187.75Y-104.25
X187.75Y-106.25
X187.75Y-125.25
X187.75Y-127.25
X188.0Y-69.75
X188.0Y-71.75
X188.0Y-73.75
X188.0Y-128.25
X188.0Y-130.25
X188.0Y-132.25
X188.125Y-81.05
X188.125Y-82.05
X188.125Y-83.05
X188.125Y-84.05
X188.125Y-85.05
X188.125Y-86.05
X188.125Y-87.05
X188.125Y-88.05
X188.125Y-108.25
X188.125Y-109.25
X188.125Y-110.25
X188.125Y-111.25
X188.125Y-112.25
X188.125Y-113.25
X188.125Y-114.25
X188.125Y-115.25
X188.25Y-67.75
X188.25Y-75.75
X188.25Y-77.75
X188.25Y-97.25
X188.25Y-99.25
X188.25Y-101.25
X188.25Y-103.25
X188.25Y-105.25
X188.25Y-107.25
X188.25Y-124.25
X188.25Y-126.25
X188.25Y-134.25
X188.5Y-68.75
X188.5Y-70.75
X188.5Y-72.75
X188.5Y-129.25
X188.5Y-131.25
X188.5Y-133.25
X188.625Y-81.55
X188.625Y-82.55
X188.625Y-83.55
X188.625Y-84.55
X188.625Y-85.55
X188.625Y-86.55
X188.625Y-87.55
X188.625Y-88.55
X188.625Y-108.75
X188.625Y-109.75
X188.625Y-110.75
X188.625Y-111.75
X188.625Y-112.75
X188.625Y-113.75
X188.625Y-114.75
X188.625Y-115.75
X188.75Y-74.75
X188.75Y-76.75
X188.75Y-96.25
X188.75Y-98.25
X188.75Y-100.25
X188.75Y-102.25
X188.75Y-104.25
X188.75Y-106.25
X188.75Y-125.25
X188.75Y-127.25
X189.0Y-69.75
X189.0Y-71.75
X189.0Y-73.75
X189.0Y-128.25
X189.0Y-130.25
X189.0Y-132.25
X189.125Y-81.05
X189.125Y-82.05
X189.125Y-83.05
X189.125Y-84.05
X189.125Y-85.05
X189.125Y-86.05
X189.125Y-87.05
X189.125Y-88.05
X189.125Y-108.25
X189.125Y-109.25
X189.125Y-110.25
X189.125Y-111.25
X189.125Y-112.25
X189.125Y-113.25
X189.125Y-114.25
X189.125Y-115.25
X189.25Y-67.75
X189.25Y-75.75
X189.25Y-77.75
X189.25Y-97.25
X189.25Y-99.25
X189.25Y-101.25
X189.25Y-103.25
X189.25Y-105.25
X189.25Y-107.25
X189.25Y-124.25
X189.25Y-126.25
X189.25Y-134.25
X189.5Y-68.75
X189.5Y-70.75
X189.5Y-72.75
X189.5Y-129.25
X189.5Y-131.25
X189.5Y-133.25
X189.625Y-81.55
X189.625Y-82.55
X189.625Y-83.55
X189.625Y-84.55
X189.625Y-85.55
X189.625Y-86.55
X189.625Y-87.55
X189.625Y-88.55
X189.625Y-108.75
X189.625Y-109.75
X189.625Y-110.75
X189.625Y-111.75
X189.625Y-112.75
X189.625Y-113.75
X189.625Y-114.75
X189.625Y-115.75
X189.75Y-74.75
X189.75Y-76.75
X189.75Y-96.25
X189.75Y-98.25
X189.75Y-100.25
X189.75Y-102.25
X189.75Y-104.25
X189.75Y-106.25
X189.75Y-125.25
X189.75Y-127.25
X190.0Y-69.75
X190.0Y-71.75
X190.0Y-73.75
X190.0Y-128.25
X190.0Y-130.25
X190.0Y-132.25
X190.125Y-81.05
X190.125Y-82.05
X190.125Y-83.05
X190.125Y-84.05
X190.125Y-85.05
X190.125Y-86.05
X190.125Y-87.05
X190.125Y-88.05
X190.125Y-108.25
X190.125Y-109.25
X190.125Y-110.25
X190.125Y-111.25
X190.125Y-112.25
X190.125Y-113.25
X190.125Y-114.25
X190.125Y-115.25
X190.25Y-67.75
X190.25Y-75.75
X190.25Y-77.75
X190.25Y-97.25
X190.25Y-99.25
X190.25Y-101.25
X190.25Y-103.25
X190.25Y-105.25
X190.25Y-107.25
X190.25Y-124.25
X190.25Y-126.25
X190.25Y-134.25
X190.5Y-68.75
X190.5Y-70.75
X190.5Y-72.75
X190.5Y-129.25
X190.5Y-131.25
X190.5Y-133.25
X190.625Y-81.55
X190.625Y-82.55
X190.625Y-83.55
X190.625Y-84.55
X190.625Y-85.55
X190.625Y-86.55
X190.625Y-87.55
X190.625Y-88.55
X190.625Y-108.75
X190.625Y-109.75
X190.625Y-110.75
X190.625Y-111.75
X190.625Y-112.75
X190.625Y-113.75
X190.625Y-114.75
X190.625Y-115.75
X190.726Y-91.698
X190.726Y-118.898
X190.75Y-74.75
X190.75Y-76.75
X190.75Y-96.25
X190.75Y-98.25
X190.75Y-100.25
X190.75Y-102.25
X190.75Y-104.25
X190.75Y-106.25
X190.75Y-125.25
X190.75Y-127.25
X191.0Y-69.75
X191.0Y-71.75
X191.0Y-73.75
X191.0Y-128.25
X191.0Y-130.25
X191.0Y-132.25
X191.125Y-81.05
X191.125Y-82.05
X191.125Y-83.05
X191.125Y-84.05
X191.125Y-85.05
X191.125Y-86.05
X191.125Y-87.05
X191.125Y-88.05
X191.125Y-108.25
X191.125Y-109.25
X191.125Y-110.25
X191.125Y-111.25
X191.125Y-112.25
X191.125Y-113.25
X191.125Y-114.25
X191.125Y-115.25
X191.25Y-67.75
X191.25Y-75.75
X191.25Y-77.75
X191.25Y-97.25
X191.25Y-99.25
X191.25Y-101.25
X191.25Y-103.25
X191.25Y-105.25
X191.25Y-107.25
X191.25Y-124.25
X191.25Y-126.25
X191.25Y-134.25
X191.5Y-68.75
X191.5Y-70.75
X191.5Y-72.75
X191.5Y-129.25
X191.5Y-131.25
X191.5Y-133.25
X191.625Y-81.55
X191.625Y-82.55
X191.625Y-83.55
X191.625Y-84.55
X191.625Y-85.55
X191.625Y-86.55
X191.625Y-87.55
X191.625Y-88.55
X191.625Y-108.75
X191.625Y-109.75
X191.625Y-110.75
X191.625Y-111.75
X191.625Y-112.75
X191.625Y-113.75
X191.625Y-114.75
X191.625Y-115.75
X191.75Y-74.75
X191.75Y-76.75
X191.75Y-96.25
X191.75Y-98.25
X191.75Y-100.25
X191.75Y-102.25
X191.75Y-104.25
X191.75Y-106.25
X191.75Y-125.25
X191.75Y-127.25
X192.0Y-69.75
X192.0Y-71.75
X192.0Y-73.75
X192.0Y-128.25
X192.0Y-130.25
X192.0Y-132.25
X192.125Y-81.05
X192.125Y-82.05
X192.125Y-83.05
X192.125Y-84.05
X192.125Y-85.05
X192.125Y-86.05
X192.125Y-87.05
X192.125Y-88.05
X192.125Y-108.25
X192.125Y-109.25
X192.125Y-110.25
X192.125Y-111.25
X192.125Y-112.25
X192.125Y-113.25
X192.125Y-114.25
X192.125Y-115.25
X192.25Y-67.75
X192.25Y-75.75
X192.25Y-77.75
X192.25Y-97.25
X192.25Y-99.25
X192.25Y-101.25
X192.25Y-103.25
X192.25Y-105.25
X192.25Y-107.25
X192.25Y-124.25
X192.25Y-126.25
X192.25Y-134.25
X192.5Y-68.75
X192.5Y-70.75
X192.5Y-72.75
X192.5Y-129.25
X192.5Y-131.25
X192.5Y-133.25
X192.625Y-81.55
X192.625Y-82.55
X192.625Y-83.55
X192.625Y-84.55
X192.625Y-85.55
X192.625Y-86.55
X192.625Y-87.55
X192.625Y-88.55
X192.625Y-108.75
X192.625Y-109.75
X192.625Y-110.75
X192.625Y-111.75
X192.625Y-112.75
X192.625Y-113.75
X192.625Y-114.75
X192.625Y-115.75
X192.75Y-74.75
X192.75Y-76.75
X192.75Y-96.25
X192.75Y-98.25
X192.75Y-100.25
X192.75Y-102.25
X192.75Y-104.25
X192.75Y-106.25
X192.75Y-125.25
X192.75Y-127.25
X193.0Y-69.75
X193.0Y-73.75
X193.0Y-128.25
X193.0Y-132.25
X193.125Y-81.05
X193.125Y-82.05
X193.125Y-83.05
X193.125Y-84.05
X193.125Y-85.05
X193.125Y-86.05
X193.125Y-87.05
X193.125Y-88.05
X193.125Y-108.25
X193.125Y-109.25
X193.125Y-110.25
X193.125Y-111.25
X193.125Y-112.25
X193.125Y-113.25
X193.125Y-114.25
X193.125Y-115.25
X193.25Y-67.75
X193.25Y-75.75
X193.25Y-77.75
X193.25Y-97.25
X193.25Y-99.25
X193.25Y-101.25
X193.25Y-103.25
X193.25Y-105.25
X193.25Y-107.25
X193.25Y-124.25
X193.25Y-126.25
X193.25Y-134.25
X193.625Y-81.55
X193.625Y-82.55
X193.625Y-83.55
X193.625Y-84.55
X193.625Y-85.55
X193.625Y-86.55
X193.625Y-87.55
X193.625Y-88.55
X193.625Y-108.75
X193.625Y-109.75
X193.625Y-110.75
X193.625Y-111.75
X193.625Y-112.75
X193.625Y-113.75
X193.625Y-114.75
X193.625Y-115.75
X193.75Y-68.75
X193.75Y-74.75
X193.75Y-76.75
X193.75Y-96.25
X193.75Y-98.25
X193.75Y-100.25
X193.75Y-102.25
X193.75Y-104.25
X193.75Y-106.25
X193.75Y-125.25
X193.75Y-127.25
X193.75Y-133.25
X194.125Y-81.05
X194.125Y-82.05
X194.125Y-83.05
X194.125Y-84.05
X194.125Y-85.05
X194.125Y-86.05
X194.125Y-87.05
X194.125Y-88.05
X194.125Y-108.25
X194.125Y-109.25
X194.125Y-110.25
X194.125Y-111.25
X194.125Y-112.25
X194.125Y-113.25
X194.125Y-114.25
X194.125Y-115.25
X194.25Y-67.75
X194.25Y-75.75
X194.25Y-77.75
X194.25Y-97.25
X194.25Y-99.25
X194.25Y-101.25
X194.25Y-103.25
X194.25Y-105.25
X194.25Y-107.25
X194.25Y-124.25
X194.25Y-126.25
X194.25Y-134.25
X194.625Y-81.55
X194.625Y-85.55
X194.625Y-86.55
X194.625Y-87.55
X194.625Y-88.55
X194.625Y-108.75
X194.625Y-112.75
X194.625Y-113.75
X194.625Y-114.75
X194.625Y-115.75
X194.75Y-74.75
X194.75Y-76.75
X194.75Y-96.25
X194.75Y-98.25
X194.75Y-100.25
X194.75Y-102.25
X194.75Y-104.25
X194.75Y-106.25
X194.75Y-125.25
X194.75Y-127.25
X195.125Y-81.05
X195.125Y-82.05
X195.125Y-108.25
X195.125Y-109.25
X195.25Y-67.75
X195.25Y-75.75
X195.25Y-77.75
X195.25Y-97.25
X195.25Y-99.25
X195.25Y-101.25
X195.25Y-103.25
X195.25Y-105.25
X195.25Y-107.25
X195.25Y-124.25
X195.25Y-126.25
X195.25Y-134.25
X195.75Y-74.75
X195.75Y-76.75
X195.75Y-96.25
X195.75Y-98.25
X195.75Y-100.25
X195.75Y-102.25
X195.75Y-104.25
X195.75Y-106.25
X195.75Y-125.25
X195.75Y-127.25
X196.25Y-67.75
X196.25Y-75.75
X196.25Y-77.75
X196.25Y-97.25
X196.25Y-99.25
X196.25Y-101.25
X196.25Y-103.25
X196.25Y-105.25
X196.25Y-107.25
X196.25Y-124.25
X196.25Y-126.25
X196.25Y-134.25
X196.35Y-92.7
X196.35Y-119.9
X196.75Y-74.75
X196.75Y-76.75
X196.75Y-96.25
X196.75Y-98.25
X196.75Y-100.25
X196.75Y-102.25
X196.75Y-104.25
X196.75Y-106.25
X196.75Y-125.25
X196.75Y-127.25
X196.8Y-81.05
X196.8Y-82.05
X196.8Y-108.25
X196.8Y-109.25
X197.25Y-67.75
X197.25Y-75.75
X197.25Y-77.75
X197.25Y-97.25
X197.25Y-99.25
X197.25Y-101.25
X197.25Y-103.25
X197.25Y-105.25
X197.25Y-107.25
X197.25Y-124.25
X197.25Y-126.25
X197.25Y-134.25
X197.3Y-81.55
X197.3Y-85.55
X197.3Y-86.55
X197.3Y-87.55
X197.3Y-88.55
X197.3Y-108.75
X197.3Y-112.75
X197.3Y-113.75
X197.3Y-114.75
X197.3Y-115.75
X197.75Y-68.75
X197.75Y-74.75
X197.75Y-76.75
X197.75Y-96.25
X197.75Y-98.25
X197.75Y-100.25
X197.75Y-102.25
X197.75Y-104.25
X197.75Y-106.25
X197.75Y-125.25
X197.75Y-127.25
X197.75Y-133.25
X197.8Y-81.05
X197.8Y-82.05
X197.8Y-83.05
X197.8Y-84.05
X197.8Y-85.05
X197.8Y-86.05
X197.8Y-87.05
X197.8Y-88.05
X197.8Y-108.25
X197.8Y-109.25
X197.8Y-110.25
X197.8Y-111.25
X197.8Y-112.25
X197.8Y-113.25
X197.8Y-114.25
X197.8Y-115.25
X198.25Y-67.75
X198.25Y-69.75
X198.25Y-73.75
X198.25Y-75.75
X198.25Y-77.75
X198.25Y-97.25
X198.25Y-99.25
X198.25Y-101.25
X198.25Y-103.25
X198.25Y-105.25
X198.25Y-107.25
X198.25Y-124.25
X198.25Y-126.25
X198.25Y-128.25
X198.25Y-132.25
X198.25Y-134.25
X198.3Y-81.55
X198.3Y-82.55
X198.3Y-83.55
X198.3Y-84.55
X198.3Y-85.55
X198.3Y-86.55
X198.3Y-87.55
X198.3Y-88.55
X198.3Y-108.75
X198.3Y-109.75
X198.3Y-110.75
X198.3Y-111.75
X198.3Y-112.75
X198.3Y-113.75
X198.3Y-114.75
X198.3Y-115.75
X198.75Y-68.75
X198.75Y-70.75
X198.75Y-72.75
X198.75Y-74.75
X198.75Y-76.75
X198.75Y-96.25
X198.75Y-98.25
X198.75Y-100.25
X198.75Y-102.25
X198.75Y-104.25
X198.75Y-106.25
X198.75Y-125.25
X198.75Y-127.25
X198.75Y-129.25
X198.75Y-131.25
X198.75Y-133.25
X198.8Y-81.05
X198.8Y-82.05
X198.8Y-83.05
X198.8Y-84.05
X198.8Y-85.05
X198.8Y-86.05
X198.8Y-87.05
X198.8Y-88.05
X198.8Y-108.25
X198.8Y-109.25
X198.8Y-110.25
X198.8Y-111.25
X198.8Y-112.25
X198.8Y-113.25
X198.8Y-114.25
X198.8Y-115.25
X199.25Y-67.75
X199.25Y-69.75
X199.25Y-71.75
X199.25Y-73.75
X199.25Y-75.75
X199.25Y-77.75
X199.25Y-97.25
X199.25Y-99.25
X199.25Y-101.25
X199.25Y-103.25
X199.25Y-105.25
X199.25Y-107.25
X199.25Y-124.25
X199.25Y-126.25
X199.25Y-128.25
X199.25Y-130.25
X199.25Y-132.25
X199.25Y-134.25
X199.3Y-81.55
X199.3Y-82.55
X199.3Y-83.55
X199.3Y-84.55
X199.3Y-85.55
X199.3Y-86.55
X199.3Y-87.55
X199.3Y-88.55
X199.3Y-108.75
X199.3Y-109.75
X199.3Y-110.75
X199.3Y-111.75
X199.3Y-112.75
X199.3Y-113.75
X199.3Y-114.75
X199.3Y-115.75
X199.75Y-68.75
X199.75Y-70.75
X199.75Y-72.75
X199.75Y-74.75
X199.75Y-76.75
X199.75Y-96.25
X199.75Y-98.25
X199.75Y-100.25
X199.75Y-102.25
X199.75Y-104.25
X199.75Y-106.25
X199.75Y-125.25
X199.75Y-127.25
X199.75Y-129.25
X199.75Y-131.25
X199.75Y-133.25
X199.8Y-81.05
X199.8Y-82.05
X199.8Y-83.05
X199.8Y-84.05
X199.8Y-85.05
X199.8Y-86.05
X199.8Y-87.05
X199.8Y-88.05
X199.8Y-108.25
X199.8Y-109.25
X199.8Y-110.25
X199.8Y-111.25
X199.8Y-112.25
X199.8Y-113.25
X199.8Y-114.25
X199.8Y-115.25
X200.25Y-67.75
X200.25Y-69.75
X200.25Y-71.75
X200.25Y-73.75
X200.25Y-75.75
X200.25Y-77.75
X200.25Y-97.25
X200.25Y-99.25
X200.25Y-101.25
X200.25Y-103.25
X200.25Y-105.25
X200.25Y-107.25
X200.25Y-124.25
X200.25Y-126.25
X200.25Y-128.25
X200.25Y-130.25
X200.25Y-132.25
X200.25Y-134.25
X200.3Y-81.55
X200.3Y-82.55
X200.3Y-83.55
X200.3Y-84.55
X200.3Y-85.55
X200.3Y-86.55
X200.3Y-87.55
X200.3Y-88.55
X200.3Y-108.75
X200.3Y-109.75
X200.3Y-110.75
X200.3Y-111.75
X200.3Y-112.75
X200.3Y-113.75
X200.3Y-114.75
X200.3Y-115.75
X200.75Y-68.75
X200.75Y-70.75
X200.75Y-72.75
X200.75Y-74.75
X200.75Y-76.75
X200.75Y-96.25
X200.75Y-98.25
X200.75Y-100.25
X200.75Y-102.25
X200.75Y-104.25
X200.75Y-106.25
X200.75Y-125.25
X200.75Y-127.25
X200.75Y-129.25
X200.75Y-131.25
X200.75Y-133.25
X200.8Y-81.05
X200.8Y-82.05
X200.8Y-83.05
X200.8Y-84.05
X200.8Y-85.05
X200.8Y-86.05
X200.8Y-87.05
X200.8Y-88.05
X200.8Y-108.25
X200.8Y-109.25
X200.8Y-110.25
X200.8Y-111.25
X200.8Y-112.25
X200.8Y-113.25
X200.8Y-114.25
X200.8Y-115.25
X201.25Y-67.75
X201.25Y-69.75
X201.25Y-71.75
X201.25Y-73.75
X201.25Y-75.75
X201.25Y-77.75
X201.25Y-97.25
X201.25Y-99.25
X201.25Y-101.25
X201.25Y-103.25
X201.25Y-105.25
X201.25Y-107.25
X201.25Y-124.25
X201.25Y-126.25
X201.25Y-128.25
X201.25Y-130.25
X201.25Y-132.25
X201.25Y-134.25
X201.3Y-81.55
X201.3Y-82.55
X201.3Y-83.55
X201.3Y-84.55
X201.3Y-85.55
X201.3Y-86.55
X201.3Y-87.55
X201.3Y-88.55
X201.3Y-108.75
X201.3Y-109.75
X201.3Y-110.75
X201.3Y-111.75
X201.3Y-112.75
X201.3Y-113.75
X201.3Y-114.75
X201.3Y-115.75
X201.75Y-68.75
X201.75Y-70.75
X201.75Y-72.75
X201.75Y-74.75
X201.75Y-76.75
X201.75Y-96.25
X201.75Y-98.25
X201.75Y-100.25
X201.75Y-102.25
X201.75Y-104.25
X201.75Y-106.25
X201.75Y-125.25
X201.75Y-127.25
X201.75Y-129.25
X201.75Y-131.25
X201.75Y-133.25
X201.8Y-81.05
X201.8Y-82.05
X201.8Y-83.05
X201.8Y-84.05
X201.8Y-85.05
X201.8Y-86.05
X201.8Y-87.05
X201.8Y-88.05
X201.8Y-108.25
X201.8Y-109.25
X201.8Y-110.25
X201.8Y-111.25
X201.8Y-112.25
X201.8Y-113.25
X201.8Y-114.25
X201.8Y-115.25
X202.25Y-67.75
X202.25Y-69.75
X202.25Y-71.75
X202.25Y-73.75
X202.25Y-75.75
X202.25Y-77.75
X202.25Y-97.25
X202.25Y-99.25
X202.25Y-101.25
X202.25Y-103.25
X202.25Y-105.25
X202.25Y-107.25
X202.25Y-124.25
X202.25Y-126.25
X202.25Y-128.25
X202.25Y-130.25
X202.25Y-132.25
X202.25Y-134.25
X202.3Y-81.55
X202.3Y-82.55
X202.3Y-83.55
X202.3Y-84.55
X202.3Y-85.55
X202.3Y-86.55
X202.3Y-87.55
X202.3Y-88.55
X202.3Y-108.75
X202.3Y-109.75
X202.3Y-110.75
X202.3Y-111.75
X202.3Y-112.75
X202.3Y-113.75
X202.3Y-114.75
X202.3Y-115.75
X202.4Y-91.7
X202.401Y-118.898
X202.75Y-68.75
X202.75Y-70.75
X202.75Y-72.75
X202.75Y-74.75
X202.75Y-76.75
X202.75Y-96.25
X202.75Y-98.25
X202.75Y-100.25
X202.75Y-102.25
X202.75Y-104.25
X202.75Y-106.25
X202.75Y-125.25
X202.75Y-127.25
X202.75Y-129.25
X202.75Y-131.25
X202.75Y-133.25
X202.8Y-81.05
X202.8Y-82.05
X202.8Y-83.05
X202.8Y-84.05
X202.8Y-85.05
X202.8Y-86.05
X202.8Y-87.05
X202.8Y-88.05
X202.8Y-108.25
X202.8Y-109.25
X202.8Y-110.25
X202.8Y-111.25
X202.8Y-112.25
X202.8Y-113.25
X202.8Y-114.25
X202.8Y-115.25
X203.25Y-67.75
X203.25Y-69.75
X203.25Y-71.75
X203.25Y-73.75
X203.25Y-75.75
X203.25Y-77.75
X203.25Y-97.25
X203.25Y-99.25
X203.25Y-101.25
X203.25Y-103.25
X203.25Y-105.25
X203.25Y-107.25
X203.25Y-124.25
X203.25Y-126.25
X203.25Y-128.25
X203.25Y-130.25
X203.25Y-132.25
X203.25Y-134.25
X203.3Y-81.55
X203.3Y-82.55
X203.3Y-83.55
X203.3Y-84.55
X203.3Y-85.55
X203.3Y-86.55
X203.3Y-87.55
X203.3Y-88.55
X203.3Y-108.75
X203.3Y-109.75
X203.3Y-110.75
X203.3Y-111.75
X203.3Y-112.75
X203.3Y-113.75
X203.3Y-114.75
X203.3Y-115.75
X203.75Y-68.75
X203.75Y-70.75
X203.75Y-72.75
X203.75Y-74.75
X203.75Y-76.75
X203.75Y-96.25
X203.75Y-98.25
X203.75Y-100.25
X203.75Y-102.25
X203.75Y-104.25
X203.75Y-106.25
X203.75Y-125.25
X203.75Y-127.25
X203.75Y-129.25
X203.75Y-131.25
X203.75Y-133.25
X203.8Y-81.05
X203.8Y-82.05
X203.8Y-83.05
X203.8Y-84.05
X203.8Y-85.05
X203.8Y-86.05
X203.8Y-87.05
X203.8Y-88.05
X203.8Y-108.25
X203.8Y-109.25
X203.8Y-110.25
X203.8Y-111.25
X203.8Y-112.25
X203.8Y-113.25
X203.8Y-114.25
X203.8Y-115.25
X204.25Y-67.75
X204.25Y-69.75
X204.25Y-71.75
X204.25Y-73.75
X204.25Y-75.75
X204.25Y-77.75
X204.25Y-97.25
X204.25Y-99.25
X204.25Y-101.25
X204.25Y-103.25
X204.25Y-105.25
X204.25Y-107.25
X204.25Y-124.25
X204.25Y-126.25
X204.25Y-128.25
X204.25Y-130.25
X204.25Y-132.25
X204.25Y-134.25
X204.3Y-81.55
X204.3Y-82.55
X204.3Y-83.55
X204.3Y-84.55
X204.3Y-85.55
X204.3Y-86.55
X204.3Y-87.55
X204.3Y-88.55
X204.3Y-108.75
X204.3Y-109.75
X204.3Y-110.75
X204.3Y-111.75
X204.3Y-112.75
X204.3Y-113.75
X204.3Y-114.75
X204.3Y-115.75
X204.75Y-68.75
X204.75Y-74.75
X204.75Y-76.75
X204.75Y-96.25
X204.75Y-98.25
X204.75Y-100.25
X204.75Y-102.25
X204.75Y-104.25
X204.75Y-106.25
X204.75Y-125.25
X204.75Y-127.25
X204.75Y-133.25
X204.8Y-81.05
X204.8Y-82.05
X204.8Y-83.05
X204.8Y-84.05
X204.8Y-85.05
X204.8Y-86.05
X204.8Y-87.05
X204.8Y-88.05
X204.8Y-108.25
X204.8Y-109.25
X204.8Y-110.25
X204.8Y-111.25
X204.8Y-112.25
X204.8Y-113.25
X204.8Y-114.25
X204.8Y-115.25
X205.25Y-67.75
X205.25Y-75.75
X205.25Y-77.75
X205.25Y-97.25
X205.25Y-99.25
X205.25Y-101.25
X205.25Y-103.25
X205.25Y-105.25
X205.25Y-107.25
X205.25Y-124.25
X205.25Y-126.25
X205.25Y-134.25
X205.3Y-81.55
X205.3Y-82.55
X205.3Y-83.55
X205.3Y-84.55
X205.3Y-85.55
X205.3Y-86.55
X205.3Y-87.55
X205.3Y-88.55
X205.3Y-108.75
X205.3Y-109.75
X205.3Y-110.75
X205.3Y-111.75
X205.3Y-112.75
X205.3Y-113.75
X205.3Y-114.75
X205.3Y-115.75
X205.75Y-74.75
X205.75Y-76.75
X205.75Y-96.25
X205.75Y-98.25
X205.75Y-100.25
X205.75Y-102.25
X205.75Y-104.25
X205.75Y-106.25
X205.75Y-125.25
X205.75Y-127.25
X205.8Y-81.05
X205.8Y-82.05
X205.8Y-83.05
X205.8Y-84.05
X205.8Y-85.05
X205.8Y-86.05
X205.8Y-87.05
X205.8Y-88.05
X205.8Y-108.25
X205.8Y-109.25
X205.8Y-110.25
X205.8Y-111.25
X205.8Y-112.25
X205.8Y-113.25
X205.8Y-114.25
X205.8Y-115.25
X206.25Y-67.75
X206.25Y-75.75
X206.25Y-77.75
X206.25Y-97.25
X206.25Y-99.25
X206.25Y-101.25
X206.25Y-103.25
X206.25Y-105.25
X206.25Y-107.25
X206.25Y-124.25
X206.25Y-126.25
X206.25Y-134.25
X206.3Y-81.55
X206.3Y-85.55
X206.3Y-86.55
X206.3Y-87.55
X206.3Y-88.55
X206.3Y-108.75
X206.3Y-112.75
X206.3Y-113.75
X206.3Y-114.75
X206.3Y-115.75
X206.75Y-74.75
X206.75Y-76.75
X206.75Y-96.25
X206.75Y-98.25
X206.75Y-100.25
X206.75Y-102.25
X206.75Y-104.25
X206.75Y-106.25
X206.75Y-125.25
X206.75Y-127.25
X206.8Y-81.05
X206.8Y-82.05
X206.8Y-108.25
X206.8Y-109.25
X207.25Y-67.75
X207.25Y-75.75
X207.25Y-77.75
X207.25Y-97.25
X207.25Y-99.25
X207.25Y-101.25
X207.25Y-103.25
X207.25Y-105.25
X207.25Y-107.25
X207.25Y-124.25
X207.25Y-126.25
X207.25Y-134.25
X207.75Y-74.75
X207.75Y-76.75
X207.75Y-96.25
X207.75Y-98.25
X207.75Y-100.25
X207.75Y-102.25
X207.75Y-104.25
X207.75Y-106.25
X207.75Y-125.25
X207.75Y-127.25
X208.25Y-67.75
X208.25Y-75.75
X208.25Y-77.75
X208.25Y-97.25
X208.25Y-99.25
X208.25Y-101.25
X208.25Y-103.25
X208.25Y-105.25
X208.25Y-124.25
X208.25Y-126.25
X208.25Y-134.25
X208.75Y-74.75
X208.75Y-76.75
X208.75Y-96.25
X208.75Y-98.25
X208.75Y-100.25
X208.75Y-102.25
X208.75Y-104.25
X208.75Y-106.25
X208.75Y-125.25
X208.75Y-127.25
X209.25Y-67.75
X209.25Y-73.75
X209.25Y-75.75
X209.25Y-77.75
X209.25Y-97.25
X209.25Y-99.25
X209.25Y-101.25
X209.25Y-103.25
X209.25Y-105.25
X209.25Y-124.25
X209.25Y-126.25
X209.25Y-128.25
X209.25Y-134.25
X209.75Y-68.75
X209.75Y-74.75
X209.75Y-76.75
X209.75Y-96.25
X209.75Y-98.25
X209.75Y-100.25
X209.75Y-102.25
X209.75Y-104.25
X209.75Y-106.25
X209.75Y-125.25
X209.75Y-127.25
X209.75Y-133.25
X210.25Y-67.75
X210.25Y-69.75
X210.25Y-71.75
X210.25Y-73.75
X210.25Y-75.75
X210.25Y-77.75
X210.25Y-97.25
X210.25Y-99.25
X210.25Y-101.25
X210.25Y-103.25
X210.25Y-105.25
X210.25Y-124.25
X210.25Y-126.25
X210.25Y-128.25
X210.25Y-130.25
X210.25Y-132.25
X210.25Y-134.25
X210.75Y-68.75
X210.75Y-70.75
X210.75Y-72.75
X210.75Y-74.75
X210.75Y-76.75
X210.75Y-96.25
X210.75Y-98.25
X210.75Y-100.25
X210.75Y-102.25
X210.75Y-104.25
X210.75Y-106.25
X210.75Y-125.25
X210.75Y-127.25
X210.75Y-129.25
X210.75Y-131.25
X210.75Y-133.25
X211.25Y-67.75
X211.25Y-69.75
X211.25Y-71.75
X211.25Y-73.75
X211.25Y-75.75
X211.25Y-77.75
X211.25Y-97.25
X211.25Y-99.25
X211.25Y-101.25
X211.25Y-103.25
X211.25Y-105.25
X211.25Y-124.25
X211.25Y-126.25
X211.25Y-128.25
X211.25Y-130.25
X211.25Y-132.25
X211.25Y-134.25
X211.75Y-68.75
X211.75Y-70.75
X211.75Y-72.75
X211.75Y-74.75
X211.75Y-76.75
X211.75Y-96.25
X211.75Y-98.25
X211.75Y-100.25
X211.75Y-102.25
X211.75Y-104.25
X211.75Y-106.25
X211.75Y-125.25
X211.75Y-127.25
X211.75Y-129.25
X211.75Y-131.25
X211.75Y-133.25
X212.25Y-67.75
X212.25Y-69.75
X212.25Y-71.75
X212.25Y-73.75
X212.25Y-75.75
X212.25Y-77.75
X212.25Y-97.25
X212.25Y-99.25
X212.25Y-101.25
X212.25Y-103.25
X212.25Y-105.25
X212.25Y-124.25
X212.25Y-126.25
X212.25Y-128.25
X212.25Y-130.25
X212.25Y-132.25
X212.25Y-134.25
X212.75Y-68.75
X212.75Y-70.75
X212.75Y-72.75
X212.75Y-74.75
X212.75Y-76.75
X212.75Y-96.25
X212.75Y-98.25
X212.75Y-100.25
X212.75Y-102.25
X212.75Y-104.25
X212.75Y-106.25
X212.75Y-125.25
X212.75Y-127.25
X212.75Y-129.25
X212.75Y-131.25
X212.75Y-133.25
X213.25Y-67.75
X213.25Y-69.75
X213.25Y-71.75
X213.25Y-73.75
X213.25Y-75.75
X213.25Y-77.75
X213.25Y-97.25
X213.25Y-99.25
X213.25Y-101.25
X213.25Y-103.25
X213.25Y-105.25
X213.25Y-124.25
X213.25Y-126.25
X213.25Y-128.25
X213.25Y-130.25
X213.25Y-132.25
X213.25Y-134.25
X213.75Y-68.75
X213.75Y-70.75
X213.75Y-72.75
X213.75Y-74.75
X213.75Y-76.75
X213.75Y-96.25
X213.75Y-98.25
X213.75Y-100.25
X213.75Y-102.25
X213.75Y-104.25
X213.75Y-106.25
X213.75Y-125.25
X213.75Y-127.25
X213.75Y-129.25
X213.75Y-131.25
X213.75Y-133.25
X214.25Y-67.75
X214.25Y-69.75
X214.25Y-71.75
X214.25Y-73.75
X214.25Y-75.75
X214.25Y-77.75
X214.25Y-97.25
X214.25Y-99.25
X214.25Y-101.25
X214.25Y-103.25
X214.25Y-105.25
X214.25Y-124.25
X214.25Y-126.25
X214.25Y-128.25
X214.25Y-130.25
X214.25Y-132.25
X214.25Y-134.25
X214.75Y-68.75
X214.75Y-70.75
X214.75Y-72.75
X214.75Y-74.75
X214.75Y-76.75
X214.75Y-96.25
X214.75Y-98.25
X214.75Y-100.25
X214.75Y-102.25
X214.75Y-104.25
X214.75Y-106.25
X214.75Y-125.25
X214.75Y-127.25
X214.75Y-129.25
X214.75Y-131.25
X214.75Y-133.25
X215.25Y-67.75
X215.25Y-69.75
X215.25Y-71.75
X215.25Y-73.75
X215.25Y-75.75
X215.25Y-77.75
X215.25Y-97.25
X215.25Y-99.25
X215.25Y-101.25
X215.25Y-103.25
X215.25Y-105.25
X215.25Y-124.25
X215.25Y-126.25
X215.25Y-128.25
X215.25Y-130.25
X215.25Y-132.25
X215.25Y-134.25
X215.75Y-68.75
X215.75Y-70.75
X215.75Y-72.75
X215.75Y-74.75
X215.75Y-76.75
X215.75Y-96.25
X215.75Y-98.25
X215.75Y-100.25
X215.75Y-102.25
X215.75Y-104.25
X215.75Y-106.25
X215.75Y-125.25
X215.75Y-127.25
X215.75Y-129.25
X215.75Y-131.25
X215.75Y-133.25
X216.25Y-67.75
X216.25Y-69.75
X216.25Y-73.75
X216.25Y-75.75
X216.25Y-77.75
X216.25Y-97.25
X216.25Y-99.25
X216.25Y-101.25
X216.25Y-103.25
X216.25Y-105.25
X216.25Y-124.25
X216.25Y-126.25
X216.25Y-128.25
X216.25Y-132.25
X216.25Y-134.25
X216.75Y-68.75
X216.75Y-74.75
X216.75Y-76.75
X216.75Y-96.25
X216.75Y-98.25
X216.75Y-100.25
X216.75Y-102.25
X216.75Y-104.25
X216.75Y-106.25
X216.75Y-125.25
X216.75Y-127.25
X216.75Y-133.25
X217.25Y-67.75
X217.25Y-75.75
X217.25Y-77.75
X217.25Y-97.25
X217.25Y-99.25
X217.25Y-101.25
X217.25Y-103.25
X217.25Y-105.25
X217.25Y-124.25
X217.25Y-126.25
X217.25Y-134.25
X217.75Y-74.75
X217.75Y-76.75
X217.75Y-96.25
X217.75Y-98.25
X217.75Y-100.25
X217.75Y-102.25
X217.75Y-104.25
X217.75Y-106.25
X217.75Y-125.25
X217.75Y-127.25
X218.25Y-67.75
X218.25Y-75.75
X218.25Y-77.75
X218.25Y-97.25
X218.25Y-99.25
X218.25Y-101.25
X218.25Y-103.25
X218.25Y-105.25
X218.25Y-124.25
X218.25Y-126.25
X218.25Y-134.25
X218.75Y-74.75
X218.75Y-76.75
X218.75Y-96.25
X218.75Y-98.25
X218.75Y-100.25
X218.75Y-102.25
X218.75Y-104.25
X218.75Y-106.25
X218.75Y-125.25
X218.75Y-127.25
X219.25Y-67.75
X219.25Y-75.75
X219.25Y-77.75
X219.25Y-97.25
X219.25Y-99.25
X219.25Y-101.25
X219.25Y-103.25
X219.25Y-105.25
X219.25Y-124.25
X219.25Y-126.25
X219.25Y-134.25
X219.75Y-74.75
X219.75Y-76.75
X219.75Y-96.25
X219.75Y-98.25
X219.75Y-100.25
X219.75Y-102.25
X219.75Y-104.25
X219.75Y-106.25
X219.75Y-125.25
X219.75Y-127.25
X220.25Y-67.75
X220.25Y-75.75
X220.25Y-77.75
X220.25Y-97.25
X220.25Y-99.25
X220.25Y-101.25
X220.25Y-103.25
X220.25Y-105.25
X220.25Y-124.25
X220.25Y-126.25
X220.25Y-134.25
X220.75Y-74.75
X220.75Y-76.75
X220.75Y-96.25
X220.75Y-98.25
X220.75Y-100.25
X220.75Y-102.25
X220.75Y-104.25
X220.75Y-106.25
X220.75Y-125.25
X220.75Y-127.25
X221.25Y-67.75
X221.25Y-75.75
X221.25Y-77.75
X221.25Y-97.25
X221.25Y-99.25
X221.25Y-101.25
X221.25Y-103.25
X221.25Y-105.25
X221.25Y-124.25
X221.25Y-126.25
X221.25Y-134.25
T3
X105.65Y-71.55
X105.65Y-130.55
X117.317Y-71.55
X117.317Y-130.55
X128.983Y-71.55
X128.983Y-130.55
X140.65Y-71.55
X140.65Y-130.55
X146.87Y-71.26
X146.98Y-130.852
X177.52Y-71.248
X177.63Y-130.84
X183.85Y-71.55
X183.85Y-130.55
X195.517Y-71.55
X195.517Y-130.55
X207.183Y-71.55
X207.183Y-130.55
X218.85Y-71.55
X218.85Y-130.55
T0
M30
