M48
; DRILL file {KiCad 5.1.9} date Mon Apr 12 05:50:20 2021
; FORMAT={-:-/ absolute / metric / decimal}
; #@! TF.CreationDate,2021-04-12T05:50:20-03:00
; #@! TF.GenerationSoftware,Kicad,Pcbnew,5.1.9
; #@! TF.FileFunction,NonPlated,1,4,NPTH
FMAT,2
METRIC
T1C3.200
%
G90
G05
T1
X105.65Y-71.55
X105.65Y-130.55
X117.317Y-71.55
X117.317Y-130.55
X128.983Y-71.55
X128.983Y-130.55
X140.65Y-71.55
X140.65Y-130.55
X146.87Y-71.26
X146.98Y-130.852
X177.52Y-71.248
X177.63Y-130.84
X183.85Y-71.55
X183.85Y-130.55
X195.517Y-71.55
X195.517Y-130.55
X207.183Y-71.55
X207.183Y-130.55
X218.85Y-71.55
X218.85Y-130.55
T0
M30
