G04 #@! TF.GenerationSoftware,KiCad,Pcbnew,5.1.9*
G04 #@! TF.CreationDate,2021-04-12T08:19:53-03:00*
G04 #@! TF.ProjectId,Controle,436f6e74-726f-46c6-952e-6b696361645f,rev?*
G04 #@! TF.SameCoordinates,Original*
G04 #@! TF.FileFunction,Legend,Top*
G04 #@! TF.FilePolarity,Positive*
%FSLAX46Y46*%
G04 Gerber Fmt 4.6, Leading zero omitted, Abs format (unit mm)*
G04 Created by KiCad (PCBNEW 5.1.9) date 2021-04-12 08:19:53*
%MOMM*%
%LPD*%
G01*
G04 APERTURE LIST*
%ADD10C,0.150000*%
%ADD11C,0.120000*%
%ADD12C,0.010000*%
%ADD13C,3.200000*%
%ADD14R,2.510000X1.000000*%
%ADD15R,0.800000X1.900000*%
%ADD16R,0.900000X1.300000*%
%ADD17R,1.000000X2.510000*%
%ADD18R,1.100000X1.100000*%
%ADD19R,1.905000X4.000000*%
%ADD20R,3.800000X2.000000*%
%ADD21R,1.500000X2.000000*%
%ADD22C,3.650000*%
%ADD23R,1.500000X1.500000*%
%ADD24C,1.500000*%
%ADD25C,2.500000*%
G04 APERTURE END LIST*
D10*
X176267681Y-86856884D02*
X176267681Y-87428313D01*
X176229586Y-87542599D01*
X176153396Y-87618789D01*
X176039110Y-87656884D01*
X175962920Y-87656884D01*
X177029586Y-87656884D02*
X176648634Y-87656884D01*
X176648634Y-86856884D01*
X177753396Y-87580694D02*
X177715300Y-87618789D01*
X177601015Y-87656884D01*
X177524824Y-87656884D01*
X177410539Y-87618789D01*
X177334348Y-87542599D01*
X177296253Y-87466408D01*
X177258158Y-87314027D01*
X177258158Y-87199741D01*
X177296253Y-87047360D01*
X177334348Y-86971170D01*
X177410539Y-86894980D01*
X177524824Y-86856884D01*
X177601015Y-86856884D01*
X177715300Y-86894980D01*
X177753396Y-86933075D01*
X178324824Y-86856884D02*
X178324824Y-87428313D01*
X178286729Y-87542599D01*
X178210539Y-87618789D01*
X178096253Y-87656884D01*
X178020062Y-87656884D01*
X179086729Y-87656884D02*
X178705777Y-87656884D01*
X178705777Y-86856884D01*
X179810539Y-87580694D02*
X179772443Y-87618789D01*
X179658158Y-87656884D01*
X179581967Y-87656884D01*
X179467681Y-87618789D01*
X179391491Y-87542599D01*
X179353396Y-87466408D01*
X179315300Y-87314027D01*
X179315300Y-87199741D01*
X179353396Y-87047360D01*
X179391491Y-86971170D01*
X179467681Y-86894980D01*
X179581967Y-86856884D01*
X179658158Y-86856884D01*
X179772443Y-86894980D01*
X179810539Y-86933075D01*
X180381967Y-86856884D02*
X180381967Y-87428313D01*
X180343872Y-87542599D01*
X180267681Y-87618789D01*
X180153396Y-87656884D01*
X180077205Y-87656884D01*
X181143872Y-87656884D02*
X180762920Y-87656884D01*
X180762920Y-86856884D01*
X181867681Y-87580694D02*
X181829586Y-87618789D01*
X181715300Y-87656884D01*
X181639110Y-87656884D01*
X181524824Y-87618789D01*
X181448634Y-87542599D01*
X181410539Y-87466408D01*
X181372443Y-87314027D01*
X181372443Y-87199741D01*
X181410539Y-87047360D01*
X181448634Y-86971170D01*
X181524824Y-86894980D01*
X181639110Y-86856884D01*
X181715300Y-86856884D01*
X181829586Y-86894980D01*
X181867681Y-86933075D01*
X182439110Y-86856884D02*
X182439110Y-87428313D01*
X182401015Y-87542599D01*
X182324824Y-87618789D01*
X182210539Y-87656884D01*
X182134348Y-87656884D01*
X183201015Y-87656884D02*
X182820062Y-87656884D01*
X182820062Y-86856884D01*
X183924824Y-87580694D02*
X183886729Y-87618789D01*
X183772443Y-87656884D01*
X183696253Y-87656884D01*
X183581967Y-87618789D01*
X183505777Y-87542599D01*
X183467681Y-87466408D01*
X183429586Y-87314027D01*
X183429586Y-87199741D01*
X183467681Y-87047360D01*
X183505777Y-86971170D01*
X183581967Y-86894980D01*
X183696253Y-86856884D01*
X183772443Y-86856884D01*
X183886729Y-86894980D01*
X183924824Y-86933075D01*
X184796714Y-61928833D02*
X184796714Y-62497214D01*
X184512523Y-62213023D02*
X185080904Y-62213023D01*
X184512523Y-63243214D02*
X184512523Y-62816928D01*
X184512523Y-63030071D02*
X185258523Y-63030071D01*
X185151952Y-62959023D01*
X185080904Y-62887976D01*
X185045380Y-62816928D01*
X185258523Y-63918166D02*
X185258523Y-63562928D01*
X184903285Y-63527404D01*
X184938809Y-63562928D01*
X184974333Y-63633976D01*
X184974333Y-63811595D01*
X184938809Y-63882642D01*
X184903285Y-63918166D01*
X184832238Y-63953690D01*
X184654619Y-63953690D01*
X184583571Y-63918166D01*
X184548047Y-63882642D01*
X184512523Y-63811595D01*
X184512523Y-63633976D01*
X184548047Y-63562928D01*
X184583571Y-63527404D01*
X185286500Y-66546119D02*
X185322023Y-66475071D01*
X185322023Y-66368500D01*
X185286500Y-66261928D01*
X185215452Y-66190880D01*
X185144404Y-66155357D01*
X185002309Y-66119833D01*
X184895738Y-66119833D01*
X184753642Y-66155357D01*
X184682595Y-66190880D01*
X184611547Y-66261928D01*
X184576023Y-66368500D01*
X184576023Y-66439547D01*
X184611547Y-66546119D01*
X184647071Y-66581642D01*
X184895738Y-66581642D01*
X184895738Y-66439547D01*
X184576023Y-66901357D02*
X185322023Y-66901357D01*
X184576023Y-67327642D01*
X185322023Y-67327642D01*
X184576023Y-67682880D02*
X185322023Y-67682880D01*
X185322023Y-67860500D01*
X185286500Y-67967071D01*
X185215452Y-68038119D01*
X185144404Y-68073642D01*
X185002309Y-68109166D01*
X184895738Y-68109166D01*
X184753642Y-68073642D01*
X184682595Y-68038119D01*
X184611547Y-67967071D01*
X184576023Y-67860500D01*
X184576023Y-67682880D01*
D11*
X179452500Y-63495000D02*
X178436500Y-63495000D01*
X179389000Y-65844500D02*
X178500000Y-65844500D01*
D10*
X178827714Y-61166833D02*
X178827714Y-61735214D01*
X178543523Y-61451023D02*
X179111904Y-61451023D01*
X178543523Y-62481214D02*
X178543523Y-62054928D01*
X178543523Y-62268071D02*
X179289523Y-62268071D01*
X179182952Y-62197023D01*
X179111904Y-62125976D01*
X179076380Y-62054928D01*
X179289523Y-63156166D02*
X179289523Y-62800928D01*
X178934285Y-62765404D01*
X178969809Y-62800928D01*
X179005333Y-62871976D01*
X179005333Y-63049595D01*
X178969809Y-63120642D01*
X178934285Y-63156166D01*
X178863238Y-63191690D01*
X178685619Y-63191690D01*
X178614571Y-63156166D01*
X178579047Y-63120642D01*
X178543523Y-63049595D01*
X178543523Y-62871976D01*
X178579047Y-62800928D01*
X178614571Y-62765404D01*
X179254000Y-66546119D02*
X179289523Y-66475071D01*
X179289523Y-66368500D01*
X179254000Y-66261928D01*
X179182952Y-66190880D01*
X179111904Y-66155357D01*
X178969809Y-66119833D01*
X178863238Y-66119833D01*
X178721142Y-66155357D01*
X178650095Y-66190880D01*
X178579047Y-66261928D01*
X178543523Y-66368500D01*
X178543523Y-66439547D01*
X178579047Y-66546119D01*
X178614571Y-66581642D01*
X178863238Y-66581642D01*
X178863238Y-66439547D01*
X178543523Y-66901357D02*
X179289523Y-66901357D01*
X178543523Y-67327642D01*
X179289523Y-67327642D01*
X178543523Y-67682880D02*
X179289523Y-67682880D01*
X179289523Y-67860500D01*
X179254000Y-67967071D01*
X179182952Y-68038119D01*
X179111904Y-68073642D01*
X178969809Y-68109166D01*
X178863238Y-68109166D01*
X178721142Y-68073642D01*
X178650095Y-68038119D01*
X178579047Y-67967071D01*
X178543523Y-67860500D01*
X178543523Y-67682880D01*
X191549404Y-60597880D02*
X192168452Y-60597880D01*
X191835119Y-60978833D01*
X191977976Y-60978833D01*
X192073214Y-61026452D01*
X192120833Y-61074071D01*
X192168452Y-61169309D01*
X192168452Y-61407404D01*
X192120833Y-61502642D01*
X192073214Y-61550261D01*
X191977976Y-61597880D01*
X191692261Y-61597880D01*
X191597023Y-61550261D01*
X191549404Y-61502642D01*
X192454166Y-60597880D02*
X192787500Y-61597880D01*
X193120833Y-60597880D01*
X193358928Y-60597880D02*
X193977976Y-60597880D01*
X193644642Y-60978833D01*
X193787500Y-60978833D01*
X193882738Y-61026452D01*
X193930357Y-61074071D01*
X193977976Y-61169309D01*
X193977976Y-61407404D01*
X193930357Y-61502642D01*
X193882738Y-61550261D01*
X193787500Y-61597880D01*
X193501785Y-61597880D01*
X193406547Y-61550261D01*
X193358928Y-61502642D01*
D11*
X194184500Y-60129500D02*
X187834500Y-60129500D01*
X194184500Y-69845000D02*
X194184500Y-60129500D01*
X185548500Y-69845000D02*
X194184500Y-69845000D01*
X185548500Y-65463500D02*
X185548500Y-69845000D01*
X187834500Y-65463500D02*
X185548500Y-65463500D01*
X187834500Y-64320500D02*
X187834500Y-65463500D01*
X187834500Y-60129500D02*
X187834500Y-64320500D01*
D10*
X175626785Y-55628928D02*
X176388690Y-55628928D01*
X176007738Y-56009880D02*
X176007738Y-55247976D01*
X177341071Y-55009880D02*
X176864880Y-55009880D01*
X176817261Y-55486071D01*
X176864880Y-55438452D01*
X176960119Y-55390833D01*
X177198214Y-55390833D01*
X177293452Y-55438452D01*
X177341071Y-55486071D01*
X177388690Y-55581309D01*
X177388690Y-55819404D01*
X177341071Y-55914642D01*
X177293452Y-55962261D01*
X177198214Y-56009880D01*
X176960119Y-56009880D01*
X176864880Y-55962261D01*
X176817261Y-55914642D01*
X177674404Y-55009880D02*
X178007738Y-56009880D01*
X178341071Y-55009880D01*
D11*
X178690500Y-54859000D02*
X161228000Y-54859000D01*
X178690500Y-60320000D02*
X178690500Y-54859000D01*
X173420000Y-60320000D02*
X178690500Y-60320000D01*
X173420000Y-62225000D02*
X173420000Y-60320000D01*
X172912000Y-62225000D02*
X173420000Y-62225000D01*
X172912000Y-64638000D02*
X172912000Y-62225000D01*
X166054000Y-64638000D02*
X172912000Y-64638000D01*
X166054000Y-63495000D02*
X166054000Y-64638000D01*
X161228000Y-63495000D02*
X166054000Y-63495000D01*
X161228000Y-54859000D02*
X161228000Y-63495000D01*
D10*
X133113595Y-55628928D02*
X133875500Y-55628928D01*
X133494547Y-56009880D02*
X133494547Y-55247976D01*
X134875500Y-56009880D02*
X134304071Y-56009880D01*
X134589785Y-56009880D02*
X134589785Y-55009880D01*
X134494547Y-55152738D01*
X134399309Y-55247976D01*
X134304071Y-55295595D01*
X135446928Y-55438452D02*
X135351690Y-55390833D01*
X135304071Y-55343214D01*
X135256452Y-55247976D01*
X135256452Y-55200357D01*
X135304071Y-55105119D01*
X135351690Y-55057500D01*
X135446928Y-55009880D01*
X135637404Y-55009880D01*
X135732642Y-55057500D01*
X135780261Y-55105119D01*
X135827880Y-55200357D01*
X135827880Y-55247976D01*
X135780261Y-55343214D01*
X135732642Y-55390833D01*
X135637404Y-55438452D01*
X135446928Y-55438452D01*
X135351690Y-55486071D01*
X135304071Y-55533690D01*
X135256452Y-55628928D01*
X135256452Y-55819404D01*
X135304071Y-55914642D01*
X135351690Y-55962261D01*
X135446928Y-56009880D01*
X135637404Y-56009880D01*
X135732642Y-55962261D01*
X135780261Y-55914642D01*
X135827880Y-55819404D01*
X135827880Y-55628928D01*
X135780261Y-55533690D01*
X135732642Y-55486071D01*
X135637404Y-55438452D01*
X136113595Y-55009880D02*
X136446928Y-56009880D01*
X136780261Y-55009880D01*
D11*
X151258500Y-78417500D02*
X141543000Y-78481000D01*
X151258500Y-64955500D02*
X151258500Y-78417500D01*
X154624000Y-64955500D02*
X151258500Y-64955500D01*
X154624000Y-54859000D02*
X154624000Y-64955500D01*
X132780000Y-54859000D02*
X154624000Y-54859000D01*
X132780000Y-62987000D02*
X132780000Y-54859000D01*
X140527000Y-62987000D02*
X132780000Y-62987000D01*
X140463500Y-78481000D02*
X140527000Y-62987000D01*
X141543000Y-78481000D02*
X140463500Y-78481000D01*
D10*
X190485809Y-70503880D02*
X190819142Y-71503880D01*
X191152476Y-70503880D01*
X191247714Y-71599119D02*
X192009619Y-71599119D01*
X192247714Y-71503880D02*
X192247714Y-70503880D01*
X192723904Y-71503880D02*
X192723904Y-70503880D01*
X193295333Y-71503880D01*
X193295333Y-70503880D01*
X186350333Y-71456261D02*
X186493190Y-71503880D01*
X186731285Y-71503880D01*
X186826523Y-71456261D01*
X186874142Y-71408642D01*
X186921761Y-71313404D01*
X186921761Y-71218166D01*
X186874142Y-71122928D01*
X186826523Y-71075309D01*
X186731285Y-71027690D01*
X186540809Y-70980071D01*
X186445571Y-70932452D01*
X186397952Y-70884833D01*
X186350333Y-70789595D01*
X186350333Y-70694357D01*
X186397952Y-70599119D01*
X186445571Y-70551500D01*
X186540809Y-70503880D01*
X186778904Y-70503880D01*
X186921761Y-70551500D01*
X187826523Y-71503880D02*
X187350333Y-71503880D01*
X187350333Y-70503880D01*
X188112238Y-70599119D02*
X188159857Y-70551500D01*
X188255095Y-70503880D01*
X188493190Y-70503880D01*
X188588428Y-70551500D01*
X188636047Y-70599119D01*
X188683666Y-70694357D01*
X188683666Y-70789595D01*
X188636047Y-70932452D01*
X188064619Y-71503880D01*
X188683666Y-71503880D01*
D11*
X185675500Y-70226000D02*
X185675500Y-76576000D01*
X189358500Y-70226000D02*
X185675500Y-70226000D01*
X189358500Y-76576000D02*
X189358500Y-70226000D01*
X193867000Y-70226000D02*
X193867000Y-76576000D01*
X189803000Y-70226000D02*
X193867000Y-70226000D01*
X189803000Y-76576000D02*
X189803000Y-70226000D01*
D10*
X190001666Y-81806880D02*
X190573095Y-81806880D01*
X190287380Y-82806880D02*
X190287380Y-81806880D01*
X191287380Y-82759261D02*
X191192142Y-82806880D01*
X191001666Y-82806880D01*
X190906428Y-82759261D01*
X190858809Y-82664023D01*
X190858809Y-82283071D01*
X190906428Y-82187833D01*
X191001666Y-82140214D01*
X191192142Y-82140214D01*
X191287380Y-82187833D01*
X191335000Y-82283071D01*
X191335000Y-82378309D01*
X190858809Y-82473547D01*
X191763571Y-82806880D02*
X191763571Y-82140214D01*
X191763571Y-82235452D02*
X191811190Y-82187833D01*
X191906428Y-82140214D01*
X192049285Y-82140214D01*
X192144523Y-82187833D01*
X192192142Y-82283071D01*
X192192142Y-82806880D01*
X192192142Y-82283071D02*
X192239761Y-82187833D01*
X192335000Y-82140214D01*
X192477857Y-82140214D01*
X192573095Y-82187833D01*
X192620714Y-82283071D01*
X192620714Y-82806880D01*
X193096904Y-82140214D02*
X193096904Y-83140214D01*
X193096904Y-82187833D02*
X193192142Y-82140214D01*
X193382619Y-82140214D01*
X193477857Y-82187833D01*
X193525476Y-82235452D01*
X193573095Y-82330690D01*
X193573095Y-82616404D01*
X193525476Y-82711642D01*
X193477857Y-82759261D01*
X193382619Y-82806880D01*
X193192142Y-82806880D01*
X193096904Y-82759261D01*
D11*
X193867000Y-76576000D02*
X189803000Y-76576000D01*
X193867000Y-83307000D02*
X193867000Y-76576000D01*
X189803000Y-83307000D02*
X193867000Y-83307000D01*
X189803000Y-76576000D02*
X189803000Y-83307000D01*
D10*
X186350333Y-82886261D02*
X186493190Y-82933880D01*
X186731285Y-82933880D01*
X186826523Y-82886261D01*
X186874142Y-82838642D01*
X186921761Y-82743404D01*
X186921761Y-82648166D01*
X186874142Y-82552928D01*
X186826523Y-82505309D01*
X186731285Y-82457690D01*
X186540809Y-82410071D01*
X186445571Y-82362452D01*
X186397952Y-82314833D01*
X186350333Y-82219595D01*
X186350333Y-82124357D01*
X186397952Y-82029119D01*
X186445571Y-81981500D01*
X186540809Y-81933880D01*
X186778904Y-81933880D01*
X186921761Y-81981500D01*
X187826523Y-82933880D02*
X187350333Y-82933880D01*
X187350333Y-81933880D01*
X188683666Y-82933880D02*
X188112238Y-82933880D01*
X188397952Y-82933880D02*
X188397952Y-81933880D01*
X188302714Y-82076738D01*
X188207476Y-82171976D01*
X188112238Y-82219595D01*
D11*
X189358500Y-76576000D02*
X185675500Y-76576000D01*
X189358500Y-83307000D02*
X189358500Y-76576000D01*
X185675500Y-83307000D02*
X189358500Y-83307000D01*
X185675500Y-81656000D02*
X185675500Y-83307000D01*
X185675500Y-77782500D02*
X185675500Y-81656000D01*
X185675500Y-76576000D02*
X185675500Y-77782500D01*
X180849500Y-80259000D02*
X177230000Y-80259000D01*
X180849500Y-85275500D02*
X180849500Y-80259000D01*
X177230000Y-85275500D02*
X180849500Y-85275500D01*
X173610500Y-85275500D02*
X173610500Y-80259000D01*
X177230000Y-85275500D02*
X173610500Y-85275500D01*
X177230000Y-80259000D02*
X177230000Y-85275500D01*
X173610500Y-80259000D02*
X177230000Y-80259000D01*
D10*
X177952452Y-85029380D02*
X177476261Y-85029380D01*
X177476261Y-84029380D01*
X178285785Y-84505571D02*
X178619119Y-84505571D01*
X178761976Y-85029380D02*
X178285785Y-85029380D01*
X178285785Y-84029380D01*
X178761976Y-84029380D01*
X179190547Y-85029380D02*
X179190547Y-84029380D01*
X179428642Y-84029380D01*
X179571500Y-84077000D01*
X179666738Y-84172238D01*
X179714357Y-84267476D01*
X179761976Y-84457952D01*
X179761976Y-84600809D01*
X179714357Y-84791285D01*
X179666738Y-84886523D01*
X179571500Y-84981761D01*
X179428642Y-85029380D01*
X179190547Y-85029380D01*
X180714357Y-85029380D02*
X180142928Y-85029380D01*
X180428642Y-85029380D02*
X180428642Y-84029380D01*
X180333404Y-84172238D01*
X180238166Y-84267476D01*
X180142928Y-84315095D01*
X174269452Y-85029380D02*
X173793261Y-85029380D01*
X173793261Y-84029380D01*
X174602785Y-84505571D02*
X174936119Y-84505571D01*
X175078976Y-85029380D02*
X174602785Y-85029380D01*
X174602785Y-84029380D01*
X175078976Y-84029380D01*
X175507547Y-85029380D02*
X175507547Y-84029380D01*
X175745642Y-84029380D01*
X175888500Y-84077000D01*
X175983738Y-84172238D01*
X176031357Y-84267476D01*
X176078976Y-84457952D01*
X176078976Y-84600809D01*
X176031357Y-84791285D01*
X175983738Y-84886523D01*
X175888500Y-84981761D01*
X175745642Y-85029380D01*
X175507547Y-85029380D01*
X176698023Y-84029380D02*
X176793261Y-84029380D01*
X176888500Y-84077000D01*
X176936119Y-84124619D01*
X176983738Y-84219857D01*
X177031357Y-84410333D01*
X177031357Y-84648428D01*
X176983738Y-84838904D01*
X176936119Y-84934142D01*
X176888500Y-84981761D01*
X176793261Y-85029380D01*
X176698023Y-85029380D01*
X176602785Y-84981761D01*
X176555166Y-84934142D01*
X176507547Y-84838904D01*
X176459928Y-84648428D01*
X176459928Y-84410333D01*
X176507547Y-84219857D01*
X176555166Y-84124619D01*
X176602785Y-84077000D01*
X176698023Y-84029380D01*
D11*
X166498500Y-86926500D02*
X166498500Y-81275000D01*
X171832500Y-86926500D02*
X166498500Y-86926500D01*
X171832500Y-83751500D02*
X171832500Y-86926500D01*
X168022500Y-83751500D02*
X171832500Y-83751500D01*
X168022500Y-81275000D02*
X168022500Y-83751500D01*
X166498500Y-81275000D02*
X168022500Y-81275000D01*
D10*
X167205166Y-85775571D02*
X167348023Y-85823190D01*
X167395642Y-85870809D01*
X167443261Y-85966047D01*
X167443261Y-86108904D01*
X167395642Y-86204142D01*
X167348023Y-86251761D01*
X167252785Y-86299380D01*
X166871833Y-86299380D01*
X166871833Y-85299380D01*
X167205166Y-85299380D01*
X167300404Y-85347000D01*
X167348023Y-85394619D01*
X167395642Y-85489857D01*
X167395642Y-85585095D01*
X167348023Y-85680333D01*
X167300404Y-85727952D01*
X167205166Y-85775571D01*
X166871833Y-85775571D01*
X168062309Y-85299380D02*
X168252785Y-85299380D01*
X168348023Y-85347000D01*
X168443261Y-85442238D01*
X168490880Y-85632714D01*
X168490880Y-85966047D01*
X168443261Y-86156523D01*
X168348023Y-86251761D01*
X168252785Y-86299380D01*
X168062309Y-86299380D01*
X167967071Y-86251761D01*
X167871833Y-86156523D01*
X167824214Y-85966047D01*
X167824214Y-85632714D01*
X167871833Y-85442238D01*
X167967071Y-85347000D01*
X168062309Y-85299380D01*
X169109928Y-85299380D02*
X169300404Y-85299380D01*
X169395642Y-85347000D01*
X169490880Y-85442238D01*
X169538500Y-85632714D01*
X169538500Y-85966047D01*
X169490880Y-86156523D01*
X169395642Y-86251761D01*
X169300404Y-86299380D01*
X169109928Y-86299380D01*
X169014690Y-86251761D01*
X168919452Y-86156523D01*
X168871833Y-85966047D01*
X168871833Y-85632714D01*
X168919452Y-85442238D01*
X169014690Y-85347000D01*
X169109928Y-85299380D01*
X169824214Y-85299380D02*
X170395642Y-85299380D01*
X170109928Y-86299380D02*
X170109928Y-85299380D01*
X170919452Y-85299380D02*
X171014690Y-85299380D01*
X171109928Y-85347000D01*
X171157547Y-85394619D01*
X171205166Y-85489857D01*
X171252785Y-85680333D01*
X171252785Y-85918428D01*
X171205166Y-86108904D01*
X171157547Y-86204142D01*
X171109928Y-86251761D01*
X171014690Y-86299380D01*
X170919452Y-86299380D01*
X170824214Y-86251761D01*
X170776595Y-86204142D01*
X170728976Y-86108904D01*
X170681357Y-85918428D01*
X170681357Y-85680333D01*
X170728976Y-85489857D01*
X170776595Y-85394619D01*
X170824214Y-85347000D01*
X170919452Y-85299380D01*
D11*
X166308000Y-78671500D02*
X155640000Y-78671500D01*
X166308000Y-88349980D02*
X166308000Y-78671500D01*
X155642920Y-88349980D02*
X166302920Y-88349980D01*
X155640000Y-78671500D02*
X155640000Y-88349980D01*
D10*
X165005300Y-88261408D02*
X165814824Y-88261408D01*
X165910062Y-88213789D01*
X165957681Y-88166170D01*
X166005300Y-88070932D01*
X166005300Y-87880456D01*
X165957681Y-87785218D01*
X165910062Y-87737599D01*
X165814824Y-87689980D01*
X165005300Y-87689980D01*
X165957681Y-87261408D02*
X166005300Y-87118551D01*
X166005300Y-86880456D01*
X165957681Y-86785218D01*
X165910062Y-86737599D01*
X165814824Y-86689980D01*
X165719586Y-86689980D01*
X165624348Y-86737599D01*
X165576729Y-86785218D01*
X165529110Y-86880456D01*
X165481491Y-87070932D01*
X165433872Y-87166170D01*
X165386253Y-87213789D01*
X165291015Y-87261408D01*
X165195777Y-87261408D01*
X165100539Y-87213789D01*
X165052920Y-87166170D01*
X165005300Y-87070932D01*
X165005300Y-86832837D01*
X165052920Y-86689980D01*
X165719586Y-86309027D02*
X165719586Y-85832837D01*
X166005300Y-86404265D02*
X165005300Y-86070932D01*
X166005300Y-85737599D01*
X166005300Y-84832837D02*
X165529110Y-85166170D01*
X166005300Y-85404265D02*
X165005300Y-85404265D01*
X165005300Y-85023313D01*
X165052920Y-84928075D01*
X165100539Y-84880456D01*
X165195777Y-84832837D01*
X165338634Y-84832837D01*
X165433872Y-84880456D01*
X165481491Y-84928075D01*
X165529110Y-85023313D01*
X165529110Y-85404265D01*
X165005300Y-84547122D02*
X165005300Y-83975694D01*
X166005300Y-84261408D02*
X165005300Y-84261408D01*
X155067681Y-88266646D02*
X155115300Y-88123789D01*
X155115300Y-87885694D01*
X155067681Y-87790456D01*
X155020062Y-87742837D01*
X154924824Y-87695218D01*
X154829586Y-87695218D01*
X154734348Y-87742837D01*
X154686729Y-87790456D01*
X154639110Y-87885694D01*
X154591491Y-88076170D01*
X154543872Y-88171408D01*
X154496253Y-88219027D01*
X154401015Y-88266646D01*
X154305777Y-88266646D01*
X154210539Y-88219027D01*
X154162920Y-88171408D01*
X154115300Y-88076170D01*
X154115300Y-87838075D01*
X154162920Y-87695218D01*
X154115300Y-87409503D02*
X154115300Y-86838075D01*
X155115300Y-87123789D02*
X154115300Y-87123789D01*
X155115300Y-86028551D02*
X155115300Y-86504741D01*
X154115300Y-86504741D01*
X155115300Y-85695218D02*
X154448634Y-85695218D01*
X154115300Y-85695218D02*
X154162920Y-85742837D01*
X154210539Y-85695218D01*
X154162920Y-85647599D01*
X154115300Y-85695218D01*
X154210539Y-85695218D01*
X154448634Y-85219027D02*
X155115300Y-85219027D01*
X154543872Y-85219027D02*
X154496253Y-85171408D01*
X154448634Y-85076170D01*
X154448634Y-84933313D01*
X154496253Y-84838075D01*
X154591491Y-84790456D01*
X155115300Y-84790456D01*
X155115300Y-84314265D02*
X154115300Y-84314265D01*
X154734348Y-84219027D02*
X155115300Y-83933313D01*
X154448634Y-83933313D02*
X154829586Y-84314265D01*
D11*
X155386000Y-78671500D02*
X141543000Y-78671500D01*
X155386000Y-88349980D02*
X155386000Y-78671500D01*
X141543000Y-88339980D02*
X155386000Y-88339980D01*
X141543000Y-78671500D02*
X141543000Y-88339980D01*
D10*
X144525300Y-88040456D02*
X144525300Y-87421408D01*
X144906253Y-87754741D01*
X144906253Y-87611884D01*
X144953872Y-87516646D01*
X145001491Y-87469027D01*
X145096729Y-87421408D01*
X145334824Y-87421408D01*
X145430062Y-87469027D01*
X145477681Y-87516646D01*
X145525300Y-87611884D01*
X145525300Y-87897599D01*
X145477681Y-87992837D01*
X145430062Y-88040456D01*
X144858634Y-87088075D02*
X145525300Y-86849980D01*
X144858634Y-86611884D01*
X144525300Y-86326170D02*
X144525300Y-85707122D01*
X144906253Y-86040456D01*
X144906253Y-85897599D01*
X144953872Y-85802360D01*
X145001491Y-85754741D01*
X145096729Y-85707122D01*
X145334824Y-85707122D01*
X145430062Y-85754741D01*
X145477681Y-85802360D01*
X145525300Y-85897599D01*
X145525300Y-86183313D01*
X145477681Y-86278551D01*
X145430062Y-86326170D01*
X147175300Y-87873789D02*
X146175300Y-87873789D01*
X146175300Y-87635694D01*
X146222920Y-87492837D01*
X146318158Y-87397599D01*
X146413396Y-87349980D01*
X146603872Y-87302360D01*
X146746729Y-87302360D01*
X146937205Y-87349980D01*
X147032443Y-87397599D01*
X147127681Y-87492837D01*
X147175300Y-87635694D01*
X147175300Y-87873789D01*
X147175300Y-86873789D02*
X146175300Y-86873789D01*
X146175300Y-86207122D02*
X146175300Y-86016646D01*
X146222920Y-85921408D01*
X146318158Y-85826170D01*
X146508634Y-85778551D01*
X146841967Y-85778551D01*
X147032443Y-85826170D01*
X147127681Y-85921408D01*
X147175300Y-86016646D01*
X147175300Y-86207122D01*
X147127681Y-86302360D01*
X147032443Y-86397599D01*
X146841967Y-86445218D01*
X146508634Y-86445218D01*
X146318158Y-86397599D01*
X146222920Y-86302360D01*
X146175300Y-86207122D01*
X147825300Y-86945218D02*
X147825300Y-86754741D01*
X147872920Y-86659503D01*
X147968158Y-86564265D01*
X148158634Y-86516646D01*
X148491967Y-86516646D01*
X148682443Y-86564265D01*
X148777681Y-86659503D01*
X148825300Y-86754741D01*
X148825300Y-86945218D01*
X148777681Y-87040456D01*
X148682443Y-87135694D01*
X148491967Y-87183313D01*
X148158634Y-87183313D01*
X147968158Y-87135694D01*
X147872920Y-87040456D01*
X147825300Y-86945218D01*
X150380062Y-87445218D02*
X150427681Y-87492837D01*
X150475300Y-87635694D01*
X150475300Y-87730932D01*
X150427681Y-87873789D01*
X150332443Y-87969027D01*
X150237205Y-88016646D01*
X150046729Y-88064265D01*
X149903872Y-88064265D01*
X149713396Y-88016646D01*
X149618158Y-87969027D01*
X149522920Y-87873789D01*
X149475300Y-87730932D01*
X149475300Y-87635694D01*
X149522920Y-87492837D01*
X149570539Y-87445218D01*
X150475300Y-86540456D02*
X150475300Y-87016646D01*
X149475300Y-87016646D01*
X150475300Y-86207122D02*
X149475300Y-86207122D01*
X150475300Y-85635694D02*
X149903872Y-86064265D01*
X149475300Y-85635694D02*
X150046729Y-86207122D01*
X151172920Y-87611884D02*
X151125300Y-87707122D01*
X151125300Y-87849980D01*
X151172920Y-87992837D01*
X151268158Y-88088075D01*
X151363396Y-88135694D01*
X151553872Y-88183313D01*
X151696729Y-88183313D01*
X151887205Y-88135694D01*
X151982443Y-88088075D01*
X152077681Y-87992837D01*
X152125300Y-87849980D01*
X152125300Y-87754741D01*
X152077681Y-87611884D01*
X152030062Y-87564265D01*
X151696729Y-87564265D01*
X151696729Y-87754741D01*
X152125300Y-87135694D02*
X151125300Y-87135694D01*
X152125300Y-86564265D01*
X151125300Y-86564265D01*
X152125300Y-86088075D02*
X151125300Y-86088075D01*
X151125300Y-85849980D01*
X151172920Y-85707122D01*
X151268158Y-85611884D01*
X151363396Y-85564265D01*
X151553872Y-85516646D01*
X151696729Y-85516646D01*
X151887205Y-85564265D01*
X151982443Y-85611884D01*
X152077681Y-85707122D01*
X152125300Y-85849980D01*
X152125300Y-86088075D01*
X159590300Y-87347599D02*
X159114110Y-87680932D01*
X159590300Y-87919027D02*
X158590300Y-87919027D01*
X158590300Y-87538075D01*
X158637920Y-87442837D01*
X158685539Y-87395218D01*
X158780777Y-87347599D01*
X158923634Y-87347599D01*
X159018872Y-87395218D01*
X159066491Y-87442837D01*
X159114110Y-87538075D01*
X159114110Y-87919027D01*
X159542681Y-86966646D02*
X159590300Y-86823789D01*
X159590300Y-86585694D01*
X159542681Y-86490456D01*
X159495062Y-86442837D01*
X159399824Y-86395218D01*
X159304586Y-86395218D01*
X159209348Y-86442837D01*
X159161729Y-86490456D01*
X159114110Y-86585694D01*
X159066491Y-86776170D01*
X159018872Y-86871408D01*
X158971253Y-86919027D01*
X158876015Y-86966646D01*
X158780777Y-86966646D01*
X158685539Y-86919027D01*
X158637920Y-86871408D01*
X158590300Y-86776170D01*
X158590300Y-86538075D01*
X158637920Y-86395218D01*
X158590300Y-86109503D02*
X158590300Y-85538075D01*
X159590300Y-85823789D02*
X158590300Y-85823789D01*
X161240300Y-86966646D02*
X160764110Y-87299980D01*
X161240300Y-87538075D02*
X160240300Y-87538075D01*
X160240300Y-87157122D01*
X160287920Y-87061884D01*
X160335539Y-87014265D01*
X160430777Y-86966646D01*
X160573634Y-86966646D01*
X160668872Y-87014265D01*
X160716491Y-87061884D01*
X160764110Y-87157122D01*
X160764110Y-87538075D01*
X160240300Y-86633313D02*
X161240300Y-85966646D01*
X160240300Y-85966646D02*
X161240300Y-86633313D01*
X161890300Y-87561884D02*
X161890300Y-86990456D01*
X162890300Y-87276170D02*
X161890300Y-87276170D01*
X161890300Y-86752360D02*
X162890300Y-86085694D01*
X161890300Y-86085694D02*
X162890300Y-86752360D01*
X163587920Y-87561884D02*
X163540300Y-87657122D01*
X163540300Y-87799980D01*
X163587920Y-87942837D01*
X163683158Y-88038075D01*
X163778396Y-88085694D01*
X163968872Y-88133313D01*
X164111729Y-88133313D01*
X164302205Y-88085694D01*
X164397443Y-88038075D01*
X164492681Y-87942837D01*
X164540300Y-87799980D01*
X164540300Y-87704741D01*
X164492681Y-87561884D01*
X164445062Y-87514265D01*
X164111729Y-87514265D01*
X164111729Y-87704741D01*
X164540300Y-87085694D02*
X163540300Y-87085694D01*
X164540300Y-86514265D01*
X163540300Y-86514265D01*
X164540300Y-86038075D02*
X163540300Y-86038075D01*
X163540300Y-85799980D01*
X163587920Y-85657122D01*
X163683158Y-85561884D01*
X163778396Y-85514265D01*
X163968872Y-85466646D01*
X164111729Y-85466646D01*
X164302205Y-85514265D01*
X164397443Y-85561884D01*
X164492681Y-85657122D01*
X164540300Y-85799980D01*
X164540300Y-86038075D01*
D11*
X185421500Y-60574000D02*
X179706500Y-60574000D01*
X185421500Y-68892500D02*
X185421500Y-60574000D01*
X184215000Y-68892500D02*
X185421500Y-68892500D01*
X184215000Y-73655000D02*
X184215000Y-68892500D01*
X180849500Y-73655000D02*
X184215000Y-73655000D01*
X180849500Y-68321000D02*
X180849500Y-73655000D01*
X179706500Y-68321000D02*
X180849500Y-68321000D01*
X179706500Y-60574000D02*
X179706500Y-68321000D01*
X173610500Y-69146500D02*
X173610500Y-60574000D01*
X176849000Y-69146500D02*
X173610500Y-69146500D01*
X176849000Y-73655000D02*
X176849000Y-69146500D01*
X180595500Y-73655000D02*
X176849000Y-73655000D01*
X180595500Y-68575000D02*
X180595500Y-73655000D01*
X179452500Y-68575000D02*
X180595500Y-68575000D01*
X179452500Y-60574000D02*
X179452500Y-68575000D01*
X173610500Y-60574000D02*
X179452500Y-60574000D01*
D10*
X180396619Y-62828476D02*
X181396619Y-62828476D01*
X180301380Y-63066571D02*
X180301380Y-63828476D01*
X181396619Y-64257047D02*
X181396619Y-64447523D01*
X181349000Y-64542761D01*
X181253761Y-64638000D01*
X181063285Y-64685619D01*
X180729952Y-64685619D01*
X180539476Y-64638000D01*
X180444238Y-64542761D01*
X180396619Y-64447523D01*
X180396619Y-64257047D01*
X180444238Y-64161809D01*
X180539476Y-64066571D01*
X180729952Y-64018952D01*
X181063285Y-64018952D01*
X181253761Y-64066571D01*
X181349000Y-64161809D01*
X181396619Y-64257047D01*
X181396619Y-65114190D02*
X180587095Y-65114190D01*
X180491857Y-65161809D01*
X180444238Y-65209428D01*
X180396619Y-65304666D01*
X180396619Y-65495142D01*
X180444238Y-65590380D01*
X180491857Y-65638000D01*
X180587095Y-65685619D01*
X181396619Y-65685619D01*
X181396619Y-66018952D02*
X181396619Y-66590380D01*
X180396619Y-66304666D02*
X181396619Y-66304666D01*
X174491119Y-63495142D02*
X175491119Y-63495142D01*
X174395880Y-63733238D02*
X174395880Y-64495142D01*
X174491119Y-64733238D02*
X175491119Y-64733238D01*
X174491119Y-65209428D02*
X175491119Y-65209428D01*
X174491119Y-65780857D01*
X175491119Y-65780857D01*
X158640476Y-58216571D02*
X158307142Y-58216571D01*
X158307142Y-58740380D02*
X158307142Y-57740380D01*
X158783333Y-57740380D01*
X159116666Y-58454666D02*
X159592857Y-58454666D01*
X159021428Y-58740380D02*
X159354761Y-57740380D01*
X159688095Y-58740380D01*
X160021428Y-58740380D02*
X160021428Y-57740380D01*
X160592857Y-58740380D01*
X160592857Y-57740380D01*
D11*
X154878000Y-59431000D02*
X154878000Y-57399000D01*
X160974000Y-59558000D02*
X160974000Y-57399000D01*
X160974000Y-57399000D02*
X154878000Y-57399000D01*
X160974000Y-63749000D02*
X160974000Y-59431000D01*
X165419000Y-63749000D02*
X160974000Y-63749000D01*
X165419000Y-70607000D02*
X165419000Y-63749000D01*
X166308000Y-70607000D02*
X165419000Y-70607000D01*
X166308000Y-73020000D02*
X166308000Y-70607000D01*
X163006000Y-73020000D02*
X166308000Y-73020000D01*
X163006000Y-70607000D02*
X163006000Y-73020000D01*
X158307000Y-70607000D02*
X163006000Y-70607000D01*
X158307000Y-67813000D02*
X158307000Y-70607000D01*
X160212000Y-67813000D02*
X158307000Y-67813000D01*
X160212000Y-65019000D02*
X160212000Y-67813000D01*
X154878000Y-65019000D02*
X160212000Y-65019000D01*
X154878000Y-59431000D02*
X154878000Y-65019000D01*
D10*
X152584142Y-77822142D02*
X152536523Y-77869761D01*
X152393666Y-77917380D01*
X152298428Y-77917380D01*
X152155571Y-77869761D01*
X152060333Y-77774523D01*
X152012714Y-77679285D01*
X151965095Y-77488809D01*
X151965095Y-77345952D01*
X152012714Y-77155476D01*
X152060333Y-77060238D01*
X152155571Y-76965000D01*
X152298428Y-76917380D01*
X152393666Y-76917380D01*
X152536523Y-76965000D01*
X152584142Y-77012619D01*
X152965095Y-77631666D02*
X153441285Y-77631666D01*
X152869857Y-77917380D02*
X153203190Y-76917380D01*
X153536523Y-77917380D01*
X153869857Y-77917380D02*
X153869857Y-76917380D01*
X154441285Y-77917380D01*
X154441285Y-76917380D01*
D11*
X159958000Y-65273000D02*
X151576000Y-65273000D01*
X159958000Y-67559000D02*
X159958000Y-65273000D01*
X158053000Y-67559000D02*
X159958000Y-67559000D01*
X158053000Y-70861000D02*
X158053000Y-67559000D01*
X162752000Y-70861000D02*
X158053000Y-70861000D01*
X162752000Y-78354000D02*
X162752000Y-70861000D01*
X151576000Y-78354000D02*
X162752000Y-78354000D01*
X151576000Y-65273000D02*
X151576000Y-78354000D01*
D12*
G36*
X134562664Y-85464898D02*
G01*
X134618121Y-85492548D01*
X134667068Y-85543460D01*
X134680549Y-85562318D01*
X134695234Y-85586995D01*
X134704762Y-85613796D01*
X134710213Y-85649567D01*
X134712667Y-85701149D01*
X134713206Y-85769247D01*
X134710772Y-85862568D01*
X134702314Y-85932637D01*
X134686094Y-85984911D01*
X134660374Y-86024849D01*
X134623417Y-86057909D01*
X134620702Y-86059866D01*
X134584280Y-86079888D01*
X134540422Y-86089795D01*
X134484644Y-86092237D01*
X134393968Y-86092237D01*
X134393930Y-86180263D01*
X134393086Y-86229288D01*
X134387944Y-86258045D01*
X134374507Y-86275291D01*
X134348778Y-86289788D01*
X134342599Y-86292749D01*
X134313684Y-86306628D01*
X134291296Y-86315394D01*
X134274649Y-86316151D01*
X134262956Y-86306003D01*
X134255430Y-86282053D01*
X134251286Y-86241406D01*
X134249735Y-86181166D01*
X134249991Y-86098435D01*
X134251269Y-85990319D01*
X134251668Y-85957980D01*
X134253105Y-85846504D01*
X134254392Y-85773583D01*
X134393891Y-85773583D01*
X134394675Y-85835479D01*
X134398160Y-85875977D01*
X134406044Y-85902688D01*
X134420025Y-85923224D01*
X134429517Y-85933240D01*
X134468324Y-85962547D01*
X134502683Y-85964932D01*
X134538136Y-85940730D01*
X134539034Y-85939837D01*
X134553459Y-85921133D01*
X134562233Y-85895712D01*
X134566659Y-85856564D01*
X134568038Y-85796677D01*
X134568063Y-85783410D01*
X134564732Y-85700881D01*
X134553889Y-85643671D01*
X134534260Y-85608746D01*
X134504570Y-85593074D01*
X134487411Y-85591494D01*
X134446686Y-85598906D01*
X134418752Y-85623310D01*
X134401937Y-85667960D01*
X134394570Y-85736110D01*
X134393891Y-85773583D01*
X134254392Y-85773583D01*
X134254628Y-85760225D01*
X134256597Y-85695313D01*
X134259370Y-85647938D01*
X134263308Y-85614270D01*
X134268769Y-85590478D01*
X134276112Y-85572733D01*
X134285697Y-85557204D01*
X134289807Y-85551361D01*
X134344325Y-85496165D01*
X134413256Y-85464870D01*
X134492992Y-85456145D01*
X134562664Y-85464898D01*
G37*
X134562664Y-85464898D02*
X134618121Y-85492548D01*
X134667068Y-85543460D01*
X134680549Y-85562318D01*
X134695234Y-85586995D01*
X134704762Y-85613796D01*
X134710213Y-85649567D01*
X134712667Y-85701149D01*
X134713206Y-85769247D01*
X134710772Y-85862568D01*
X134702314Y-85932637D01*
X134686094Y-85984911D01*
X134660374Y-86024849D01*
X134623417Y-86057909D01*
X134620702Y-86059866D01*
X134584280Y-86079888D01*
X134540422Y-86089795D01*
X134484644Y-86092237D01*
X134393968Y-86092237D01*
X134393930Y-86180263D01*
X134393086Y-86229288D01*
X134387944Y-86258045D01*
X134374507Y-86275291D01*
X134348778Y-86289788D01*
X134342599Y-86292749D01*
X134313684Y-86306628D01*
X134291296Y-86315394D01*
X134274649Y-86316151D01*
X134262956Y-86306003D01*
X134255430Y-86282053D01*
X134251286Y-86241406D01*
X134249735Y-86181166D01*
X134249991Y-86098435D01*
X134251269Y-85990319D01*
X134251668Y-85957980D01*
X134253105Y-85846504D01*
X134254392Y-85773583D01*
X134393891Y-85773583D01*
X134394675Y-85835479D01*
X134398160Y-85875977D01*
X134406044Y-85902688D01*
X134420025Y-85923224D01*
X134429517Y-85933240D01*
X134468324Y-85962547D01*
X134502683Y-85964932D01*
X134538136Y-85940730D01*
X134539034Y-85939837D01*
X134553459Y-85921133D01*
X134562233Y-85895712D01*
X134566659Y-85856564D01*
X134568038Y-85796677D01*
X134568063Y-85783410D01*
X134564732Y-85700881D01*
X134553889Y-85643671D01*
X134534260Y-85608746D01*
X134504570Y-85593074D01*
X134487411Y-85591494D01*
X134446686Y-85598906D01*
X134418752Y-85623310D01*
X134401937Y-85667960D01*
X134394570Y-85736110D01*
X134393891Y-85773583D01*
X134254392Y-85773583D01*
X134254628Y-85760225D01*
X134256597Y-85695313D01*
X134259370Y-85647938D01*
X134263308Y-85614270D01*
X134268769Y-85590478D01*
X134276112Y-85572733D01*
X134285697Y-85557204D01*
X134289807Y-85551361D01*
X134344325Y-85496165D01*
X134413256Y-85464870D01*
X134492992Y-85456145D01*
X134562664Y-85464898D01*
G36*
X135679013Y-85472760D02*
G01*
X135725592Y-85499703D01*
X135757977Y-85526446D01*
X135781662Y-85554464D01*
X135797979Y-85588728D01*
X135808259Y-85634207D01*
X135813834Y-85695872D01*
X135816036Y-85778691D01*
X135816291Y-85838226D01*
X135816291Y-86057371D01*
X135754606Y-86085024D01*
X135692920Y-86112677D01*
X135685663Y-85872650D01*
X135682664Y-85783008D01*
X135679518Y-85717942D01*
X135675621Y-85673006D01*
X135670367Y-85643750D01*
X135663151Y-85625728D01*
X135653370Y-85614491D01*
X135650232Y-85612059D01*
X135602681Y-85593063D01*
X135554617Y-85600580D01*
X135526006Y-85620523D01*
X135514367Y-85634655D01*
X135506311Y-85653200D01*
X135501191Y-85681314D01*
X135498361Y-85724153D01*
X135497176Y-85786875D01*
X135496977Y-85852241D01*
X135496938Y-85934248D01*
X135495534Y-85992296D01*
X135490834Y-86031445D01*
X135480907Y-86056760D01*
X135463823Y-86073303D01*
X135437652Y-86086136D01*
X135402695Y-86099471D01*
X135364516Y-86113987D01*
X135369061Y-85856369D01*
X135370891Y-85763499D01*
X135373032Y-85694869D01*
X135376101Y-85645691D01*
X135380714Y-85611178D01*
X135387488Y-85586542D01*
X135397039Y-85566996D01*
X135408554Y-85549750D01*
X135464110Y-85494660D01*
X135531900Y-85462802D01*
X135605633Y-85455171D01*
X135679013Y-85472760D01*
G37*
X135679013Y-85472760D02*
X135725592Y-85499703D01*
X135757977Y-85526446D01*
X135781662Y-85554464D01*
X135797979Y-85588728D01*
X135808259Y-85634207D01*
X135813834Y-85695872D01*
X135816036Y-85778691D01*
X135816291Y-85838226D01*
X135816291Y-86057371D01*
X135754606Y-86085024D01*
X135692920Y-86112677D01*
X135685663Y-85872650D01*
X135682664Y-85783008D01*
X135679518Y-85717942D01*
X135675621Y-85673006D01*
X135670367Y-85643750D01*
X135663151Y-85625728D01*
X135653370Y-85614491D01*
X135650232Y-85612059D01*
X135602681Y-85593063D01*
X135554617Y-85600580D01*
X135526006Y-85620523D01*
X135514367Y-85634655D01*
X135506311Y-85653200D01*
X135501191Y-85681314D01*
X135498361Y-85724153D01*
X135497176Y-85786875D01*
X135496977Y-85852241D01*
X135496938Y-85934248D01*
X135495534Y-85992296D01*
X135490834Y-86031445D01*
X135480907Y-86056760D01*
X135463823Y-86073303D01*
X135437652Y-86086136D01*
X135402695Y-86099471D01*
X135364516Y-86113987D01*
X135369061Y-85856369D01*
X135370891Y-85763499D01*
X135373032Y-85694869D01*
X135376101Y-85645691D01*
X135380714Y-85611178D01*
X135387488Y-85586542D01*
X135397039Y-85566996D01*
X135408554Y-85549750D01*
X135464110Y-85494660D01*
X135531900Y-85462802D01*
X135605633Y-85455171D01*
X135679013Y-85472760D01*
G36*
X134004035Y-85466942D02*
G01*
X134072065Y-85502713D01*
X134122271Y-85560281D01*
X134140105Y-85597292D01*
X134153983Y-85652862D01*
X134161087Y-85723076D01*
X134161760Y-85799707D01*
X134156347Y-85874532D01*
X134145190Y-85939322D01*
X134128634Y-85985853D01*
X134123546Y-85993867D01*
X134063275Y-86053687D01*
X133991689Y-86089515D01*
X133914012Y-86100000D01*
X133835468Y-86083790D01*
X133813609Y-86074072D01*
X133771042Y-86044123D01*
X133733683Y-86004413D01*
X133730152Y-85999377D01*
X133715801Y-85975104D01*
X133706314Y-85949158D01*
X133700710Y-85915002D01*
X133698006Y-85866099D01*
X133697219Y-85795915D01*
X133697206Y-85780180D01*
X133697242Y-85775172D01*
X133842349Y-85775172D01*
X133843193Y-85841410D01*
X133846516Y-85885366D01*
X133853503Y-85913759D01*
X133865336Y-85933305D01*
X133871377Y-85939837D01*
X133906106Y-85964660D01*
X133939823Y-85963528D01*
X133973915Y-85941996D01*
X133994249Y-85919009D01*
X134006291Y-85885458D01*
X134013054Y-85832549D01*
X134013518Y-85826379D01*
X134014672Y-85730493D01*
X134002608Y-85659279D01*
X133977490Y-85613174D01*
X133939480Y-85592615D01*
X133925912Y-85591494D01*
X133890284Y-85597132D01*
X133865914Y-85616666D01*
X133851013Y-85654022D01*
X133843795Y-85713130D01*
X133842349Y-85775172D01*
X133697242Y-85775172D01*
X133697746Y-85705393D01*
X133700016Y-85653139D01*
X133704988Y-85616929D01*
X133713633Y-85590279D01*
X133726925Y-85566702D01*
X133729863Y-85562318D01*
X133779233Y-85503229D01*
X133833029Y-85468927D01*
X133898522Y-85455311D01*
X133920762Y-85454645D01*
X134004035Y-85466942D01*
G37*
X134004035Y-85466942D02*
X134072065Y-85502713D01*
X134122271Y-85560281D01*
X134140105Y-85597292D01*
X134153983Y-85652862D01*
X134161087Y-85723076D01*
X134161760Y-85799707D01*
X134156347Y-85874532D01*
X134145190Y-85939322D01*
X134128634Y-85985853D01*
X134123546Y-85993867D01*
X134063275Y-86053687D01*
X133991689Y-86089515D01*
X133914012Y-86100000D01*
X133835468Y-86083790D01*
X133813609Y-86074072D01*
X133771042Y-86044123D01*
X133733683Y-86004413D01*
X133730152Y-85999377D01*
X133715801Y-85975104D01*
X133706314Y-85949158D01*
X133700710Y-85915002D01*
X133698006Y-85866099D01*
X133697219Y-85795915D01*
X133697206Y-85780180D01*
X133697242Y-85775172D01*
X133842349Y-85775172D01*
X133843193Y-85841410D01*
X133846516Y-85885366D01*
X133853503Y-85913759D01*
X133865336Y-85933305D01*
X133871377Y-85939837D01*
X133906106Y-85964660D01*
X133939823Y-85963528D01*
X133973915Y-85941996D01*
X133994249Y-85919009D01*
X134006291Y-85885458D01*
X134013054Y-85832549D01*
X134013518Y-85826379D01*
X134014672Y-85730493D01*
X134002608Y-85659279D01*
X133977490Y-85613174D01*
X133939480Y-85592615D01*
X133925912Y-85591494D01*
X133890284Y-85597132D01*
X133865914Y-85616666D01*
X133851013Y-85654022D01*
X133843795Y-85713130D01*
X133842349Y-85775172D01*
X133697242Y-85775172D01*
X133697746Y-85705393D01*
X133700016Y-85653139D01*
X133704988Y-85616929D01*
X133713633Y-85590279D01*
X133726925Y-85566702D01*
X133729863Y-85562318D01*
X133779233Y-85503229D01*
X133833029Y-85468927D01*
X133898522Y-85455311D01*
X133920762Y-85454645D01*
X134004035Y-85466942D01*
G36*
X135131223Y-85476219D02*
G01*
X135188447Y-85514715D01*
X135232669Y-85570315D01*
X135259087Y-85641066D01*
X135264430Y-85693142D01*
X135263823Y-85714873D01*
X135258742Y-85731511D01*
X135244775Y-85746417D01*
X135217509Y-85762953D01*
X135172532Y-85784478D01*
X135105431Y-85814354D01*
X135105091Y-85814504D01*
X135043327Y-85842793D01*
X134992679Y-85867913D01*
X134958324Y-85887159D01*
X134945438Y-85897828D01*
X134945434Y-85897914D01*
X134956792Y-85921146D01*
X134983351Y-85946754D01*
X135013843Y-85965201D01*
X135029290Y-85968866D01*
X135071435Y-85956192D01*
X135107728Y-85924451D01*
X135125437Y-85889552D01*
X135142472Y-85863825D01*
X135175842Y-85834526D01*
X135215069Y-85809215D01*
X135249676Y-85795451D01*
X135256913Y-85794694D01*
X135265059Y-85807140D01*
X135265550Y-85838952D01*
X135259563Y-85881846D01*
X135248277Y-85927538D01*
X135232870Y-85967741D01*
X135232091Y-85969302D01*
X135185724Y-86034042D01*
X135125631Y-86078077D01*
X135057385Y-86099691D01*
X134986558Y-86097165D01*
X134918724Y-86068784D01*
X134915708Y-86066788D01*
X134862347Y-86018428D01*
X134827260Y-85955332D01*
X134807842Y-85872367D01*
X134805236Y-85849058D01*
X134800621Y-85739035D01*
X134806153Y-85687728D01*
X134945434Y-85687728D01*
X134947244Y-85719733D01*
X134957142Y-85729073D01*
X134981818Y-85722085D01*
X135020715Y-85705567D01*
X135064195Y-85684861D01*
X135065276Y-85684313D01*
X135102129Y-85664929D01*
X135116920Y-85651993D01*
X135113273Y-85638431D01*
X135097915Y-85620612D01*
X135058843Y-85594825D01*
X135016766Y-85592930D01*
X134979023Y-85611697D01*
X134952954Y-85647895D01*
X134945434Y-85687728D01*
X134806153Y-85687728D01*
X134810114Y-85651007D01*
X134834470Y-85581192D01*
X134868376Y-85532282D01*
X134929573Y-85482858D01*
X134996983Y-85458339D01*
X135065800Y-85456777D01*
X135131223Y-85476219D01*
G37*
X135131223Y-85476219D02*
X135188447Y-85514715D01*
X135232669Y-85570315D01*
X135259087Y-85641066D01*
X135264430Y-85693142D01*
X135263823Y-85714873D01*
X135258742Y-85731511D01*
X135244775Y-85746417D01*
X135217509Y-85762953D01*
X135172532Y-85784478D01*
X135105431Y-85814354D01*
X135105091Y-85814504D01*
X135043327Y-85842793D01*
X134992679Y-85867913D01*
X134958324Y-85887159D01*
X134945438Y-85897828D01*
X134945434Y-85897914D01*
X134956792Y-85921146D01*
X134983351Y-85946754D01*
X135013843Y-85965201D01*
X135029290Y-85968866D01*
X135071435Y-85956192D01*
X135107728Y-85924451D01*
X135125437Y-85889552D01*
X135142472Y-85863825D01*
X135175842Y-85834526D01*
X135215069Y-85809215D01*
X135249676Y-85795451D01*
X135256913Y-85794694D01*
X135265059Y-85807140D01*
X135265550Y-85838952D01*
X135259563Y-85881846D01*
X135248277Y-85927538D01*
X135232870Y-85967741D01*
X135232091Y-85969302D01*
X135185724Y-86034042D01*
X135125631Y-86078077D01*
X135057385Y-86099691D01*
X134986558Y-86097165D01*
X134918724Y-86068784D01*
X134915708Y-86066788D01*
X134862347Y-86018428D01*
X134827260Y-85955332D01*
X134807842Y-85872367D01*
X134805236Y-85849058D01*
X134800621Y-85739035D01*
X134806153Y-85687728D01*
X134945434Y-85687728D01*
X134947244Y-85719733D01*
X134957142Y-85729073D01*
X134981818Y-85722085D01*
X135020715Y-85705567D01*
X135064195Y-85684861D01*
X135065276Y-85684313D01*
X135102129Y-85664929D01*
X135116920Y-85651993D01*
X135113273Y-85638431D01*
X135097915Y-85620612D01*
X135058843Y-85594825D01*
X135016766Y-85592930D01*
X134979023Y-85611697D01*
X134952954Y-85647895D01*
X134945434Y-85687728D01*
X134806153Y-85687728D01*
X134810114Y-85651007D01*
X134834470Y-85581192D01*
X134868376Y-85532282D01*
X134929573Y-85482858D01*
X134996983Y-85458339D01*
X135065800Y-85456777D01*
X135131223Y-85476219D01*
G36*
X136338806Y-85396269D02*
G01*
X136343059Y-85455593D01*
X136347945Y-85490552D01*
X136354715Y-85505800D01*
X136364622Y-85505995D01*
X136367834Y-85504175D01*
X136410564Y-85490995D01*
X136466147Y-85491765D01*
X136522657Y-85505313D01*
X136558002Y-85522841D01*
X136594241Y-85550841D01*
X136620733Y-85582529D01*
X136638919Y-85622793D01*
X136650242Y-85676523D01*
X136656142Y-85748606D01*
X136658063Y-85843931D01*
X136658097Y-85862217D01*
X136658120Y-86067626D01*
X136612411Y-86083560D01*
X136579947Y-86094400D01*
X136562135Y-86099448D01*
X136561611Y-86099494D01*
X136559857Y-86085808D01*
X136558364Y-86048056D01*
X136557246Y-85991204D01*
X136556617Y-85920214D01*
X136556520Y-85877053D01*
X136556318Y-85791953D01*
X136555278Y-85730961D01*
X136552751Y-85689157D01*
X136548084Y-85661622D01*
X136540627Y-85643436D01*
X136529731Y-85629678D01*
X136522927Y-85623053D01*
X136476192Y-85596355D01*
X136425192Y-85594355D01*
X136378921Y-85616935D01*
X136370364Y-85625087D01*
X136357813Y-85640416D01*
X136349108Y-85658598D01*
X136343551Y-85684889D01*
X136340446Y-85724542D01*
X136339096Y-85782812D01*
X136338806Y-85863153D01*
X136338806Y-86067626D01*
X136293097Y-86083560D01*
X136260633Y-86094400D01*
X136242821Y-86099448D01*
X136242297Y-86099494D01*
X136240957Y-86085603D01*
X136239748Y-86046419D01*
X136238721Y-85985680D01*
X136237922Y-85907121D01*
X136237401Y-85814478D01*
X136237206Y-85711489D01*
X136237206Y-85314322D01*
X136284377Y-85294424D01*
X136331549Y-85274527D01*
X136338806Y-85396269D01*
G37*
X136338806Y-85396269D02*
X136343059Y-85455593D01*
X136347945Y-85490552D01*
X136354715Y-85505800D01*
X136364622Y-85505995D01*
X136367834Y-85504175D01*
X136410564Y-85490995D01*
X136466147Y-85491765D01*
X136522657Y-85505313D01*
X136558002Y-85522841D01*
X136594241Y-85550841D01*
X136620733Y-85582529D01*
X136638919Y-85622793D01*
X136650242Y-85676523D01*
X136656142Y-85748606D01*
X136658063Y-85843931D01*
X136658097Y-85862217D01*
X136658120Y-86067626D01*
X136612411Y-86083560D01*
X136579947Y-86094400D01*
X136562135Y-86099448D01*
X136561611Y-86099494D01*
X136559857Y-86085808D01*
X136558364Y-86048056D01*
X136557246Y-85991204D01*
X136556617Y-85920214D01*
X136556520Y-85877053D01*
X136556318Y-85791953D01*
X136555278Y-85730961D01*
X136552751Y-85689157D01*
X136548084Y-85661622D01*
X136540627Y-85643436D01*
X136529731Y-85629678D01*
X136522927Y-85623053D01*
X136476192Y-85596355D01*
X136425192Y-85594355D01*
X136378921Y-85616935D01*
X136370364Y-85625087D01*
X136357813Y-85640416D01*
X136349108Y-85658598D01*
X136343551Y-85684889D01*
X136340446Y-85724542D01*
X136339096Y-85782812D01*
X136338806Y-85863153D01*
X136338806Y-86067626D01*
X136293097Y-86083560D01*
X136260633Y-86094400D01*
X136242821Y-86099448D01*
X136242297Y-86099494D01*
X136240957Y-86085603D01*
X136239748Y-86046419D01*
X136238721Y-85985680D01*
X136237922Y-85907121D01*
X136237401Y-85814478D01*
X136237206Y-85711489D01*
X136237206Y-85314322D01*
X136284377Y-85294424D01*
X136331549Y-85274527D01*
X136338806Y-85396269D01*
G36*
X137002664Y-85495948D02*
G01*
X137059536Y-85517067D01*
X137060187Y-85517473D01*
X137095360Y-85543360D01*
X137121327Y-85573613D01*
X137139590Y-85613038D01*
X137151652Y-85666442D01*
X137159016Y-85738631D01*
X137163184Y-85834412D01*
X137163549Y-85848058D01*
X137168796Y-86053822D01*
X137124636Y-86076658D01*
X137092683Y-86092090D01*
X137073390Y-86099403D01*
X137072498Y-86099494D01*
X137069159Y-86086002D01*
X137066507Y-86049606D01*
X137064876Y-85996432D01*
X137064520Y-85953373D01*
X137064512Y-85883621D01*
X137061323Y-85839817D01*
X137050208Y-85818924D01*
X137026421Y-85817905D01*
X136985216Y-85833721D01*
X136923006Y-85862795D01*
X136877261Y-85886943D01*
X136853733Y-85907893D01*
X136846816Y-85930727D01*
X136846806Y-85931857D01*
X136858219Y-85971192D01*
X136892012Y-85992442D01*
X136943729Y-85995519D01*
X136980981Y-85994986D01*
X137000623Y-86005715D01*
X137012872Y-86031485D01*
X137019922Y-86064317D01*
X137009762Y-86082946D01*
X137005937Y-86085612D01*
X136969921Y-86096320D01*
X136919486Y-86097836D01*
X136867546Y-86090739D01*
X136830742Y-86077768D01*
X136779858Y-86034565D01*
X136750934Y-85974426D01*
X136745206Y-85927442D01*
X136749577Y-85885062D01*
X136765395Y-85850468D01*
X136796717Y-85819743D01*
X136847598Y-85788970D01*
X136922096Y-85754232D01*
X136926634Y-85752268D01*
X136993741Y-85721267D01*
X137035152Y-85695842D01*
X137052901Y-85672994D01*
X137049027Y-85649725D01*
X137025563Y-85623036D01*
X137018547Y-85616894D01*
X136971550Y-85593080D01*
X136922853Y-85594083D01*
X136880442Y-85617431D01*
X136852304Y-85660655D01*
X136849689Y-85669140D01*
X136824228Y-85710288D01*
X136791921Y-85730108D01*
X136745206Y-85749750D01*
X136745206Y-85698930D01*
X136759416Y-85625062D01*
X136801595Y-85557307D01*
X136823544Y-85534641D01*
X136873437Y-85505549D01*
X136936887Y-85492380D01*
X137002664Y-85495948D01*
G37*
X137002664Y-85495948D02*
X137059536Y-85517067D01*
X137060187Y-85517473D01*
X137095360Y-85543360D01*
X137121327Y-85573613D01*
X137139590Y-85613038D01*
X137151652Y-85666442D01*
X137159016Y-85738631D01*
X137163184Y-85834412D01*
X137163549Y-85848058D01*
X137168796Y-86053822D01*
X137124636Y-86076658D01*
X137092683Y-86092090D01*
X137073390Y-86099403D01*
X137072498Y-86099494D01*
X137069159Y-86086002D01*
X137066507Y-86049606D01*
X137064876Y-85996432D01*
X137064520Y-85953373D01*
X137064512Y-85883621D01*
X137061323Y-85839817D01*
X137050208Y-85818924D01*
X137026421Y-85817905D01*
X136985216Y-85833721D01*
X136923006Y-85862795D01*
X136877261Y-85886943D01*
X136853733Y-85907893D01*
X136846816Y-85930727D01*
X136846806Y-85931857D01*
X136858219Y-85971192D01*
X136892012Y-85992442D01*
X136943729Y-85995519D01*
X136980981Y-85994986D01*
X137000623Y-86005715D01*
X137012872Y-86031485D01*
X137019922Y-86064317D01*
X137009762Y-86082946D01*
X137005937Y-86085612D01*
X136969921Y-86096320D01*
X136919486Y-86097836D01*
X136867546Y-86090739D01*
X136830742Y-86077768D01*
X136779858Y-86034565D01*
X136750934Y-85974426D01*
X136745206Y-85927442D01*
X136749577Y-85885062D01*
X136765395Y-85850468D01*
X136796717Y-85819743D01*
X136847598Y-85788970D01*
X136922096Y-85754232D01*
X136926634Y-85752268D01*
X136993741Y-85721267D01*
X137035152Y-85695842D01*
X137052901Y-85672994D01*
X137049027Y-85649725D01*
X137025563Y-85623036D01*
X137018547Y-85616894D01*
X136971550Y-85593080D01*
X136922853Y-85594083D01*
X136880442Y-85617431D01*
X136852304Y-85660655D01*
X136849689Y-85669140D01*
X136824228Y-85710288D01*
X136791921Y-85730108D01*
X136745206Y-85749750D01*
X136745206Y-85698930D01*
X136759416Y-85625062D01*
X136801595Y-85557307D01*
X136823544Y-85534641D01*
X136873437Y-85505549D01*
X136936887Y-85492380D01*
X137002664Y-85495948D01*
G36*
X137492846Y-85494735D02*
G01*
X137558778Y-85519064D01*
X137612193Y-85562097D01*
X137633084Y-85592389D01*
X137655859Y-85647974D01*
X137655386Y-85688166D01*
X137631482Y-85715197D01*
X137622637Y-85719793D01*
X137584450Y-85734124D01*
X137564948Y-85730452D01*
X137558342Y-85706387D01*
X137558006Y-85693094D01*
X137545912Y-85644190D01*
X137514391Y-85609979D01*
X137470579Y-85593456D01*
X137421615Y-85597614D01*
X137381814Y-85619207D01*
X137368370Y-85631524D01*
X137358841Y-85646467D01*
X137352405Y-85669055D01*
X137348237Y-85704308D01*
X137345517Y-85757246D01*
X137343422Y-85832887D01*
X137342880Y-85856837D01*
X137340901Y-85938770D01*
X137338651Y-85996435D01*
X137335277Y-86034588D01*
X137329926Y-86057984D01*
X137321744Y-86071378D01*
X137309879Y-86079525D01*
X137302282Y-86083124D01*
X137270022Y-86095432D01*
X137251031Y-86099494D01*
X137244756Y-86085928D01*
X137240926Y-86044914D01*
X137239520Y-85975979D01*
X137240518Y-85878649D01*
X137240828Y-85863637D01*
X137243021Y-85774839D01*
X137245613Y-85709999D01*
X137249302Y-85664047D01*
X137254784Y-85631915D01*
X137262755Y-85608533D01*
X137273913Y-85588832D01*
X137279750Y-85580390D01*
X137313216Y-85543037D01*
X137350647Y-85513983D01*
X137355229Y-85511447D01*
X137422346Y-85491423D01*
X137492846Y-85494735D01*
G37*
X137492846Y-85494735D02*
X137558778Y-85519064D01*
X137612193Y-85562097D01*
X137633084Y-85592389D01*
X137655859Y-85647974D01*
X137655386Y-85688166D01*
X137631482Y-85715197D01*
X137622637Y-85719793D01*
X137584450Y-85734124D01*
X137564948Y-85730452D01*
X137558342Y-85706387D01*
X137558006Y-85693094D01*
X137545912Y-85644190D01*
X137514391Y-85609979D01*
X137470579Y-85593456D01*
X137421615Y-85597614D01*
X137381814Y-85619207D01*
X137368370Y-85631524D01*
X137358841Y-85646467D01*
X137352405Y-85669055D01*
X137348237Y-85704308D01*
X137345517Y-85757246D01*
X137343422Y-85832887D01*
X137342880Y-85856837D01*
X137340901Y-85938770D01*
X137338651Y-85996435D01*
X137335277Y-86034588D01*
X137329926Y-86057984D01*
X137321744Y-86071378D01*
X137309879Y-86079525D01*
X137302282Y-86083124D01*
X137270022Y-86095432D01*
X137251031Y-86099494D01*
X137244756Y-86085928D01*
X137240926Y-86044914D01*
X137239520Y-85975979D01*
X137240518Y-85878649D01*
X137240828Y-85863637D01*
X137243021Y-85774839D01*
X137245613Y-85709999D01*
X137249302Y-85664047D01*
X137254784Y-85631915D01*
X137262755Y-85608533D01*
X137273913Y-85588832D01*
X137279750Y-85580390D01*
X137313216Y-85543037D01*
X137350647Y-85513983D01*
X137355229Y-85511447D01*
X137422346Y-85491423D01*
X137492846Y-85494735D01*
G36*
X138153037Y-85610338D02*
G01*
X138152853Y-85718817D01*
X138152139Y-85802267D01*
X138150595Y-85864684D01*
X138147921Y-85910065D01*
X138143814Y-85942409D01*
X138137975Y-85965713D01*
X138130102Y-85983975D01*
X138124141Y-85994398D01*
X138074775Y-86050925D01*
X138012184Y-86086357D01*
X137942933Y-86099070D01*
X137873588Y-86087443D01*
X137832295Y-86066548D01*
X137788945Y-86030402D01*
X137759401Y-85986256D01*
X137741575Y-85928442D01*
X137733383Y-85851293D01*
X137732222Y-85794694D01*
X137732378Y-85790627D01*
X137833777Y-85790627D01*
X137834396Y-85855530D01*
X137837234Y-85898494D01*
X137843760Y-85926602D01*
X137855443Y-85946933D01*
X137869403Y-85962268D01*
X137916285Y-85991870D01*
X137966621Y-85994399D01*
X138014196Y-85969685D01*
X138017899Y-85966336D01*
X138033703Y-85948915D01*
X138043613Y-85928189D01*
X138048978Y-85897342D01*
X138051148Y-85849557D01*
X138051491Y-85796728D01*
X138050747Y-85730361D01*
X138047668Y-85686086D01*
X138040981Y-85656989D01*
X138029416Y-85636153D01*
X138019933Y-85625087D01*
X137975880Y-85597178D01*
X137925144Y-85593823D01*
X137876716Y-85615139D01*
X137867370Y-85623053D01*
X137851460Y-85640627D01*
X137841530Y-85661567D01*
X137836198Y-85692762D01*
X137834083Y-85741102D01*
X137833777Y-85790627D01*
X137732378Y-85790627D01*
X137735730Y-85703548D01*
X137747646Y-85635066D01*
X137770055Y-85583580D01*
X137805044Y-85543423D01*
X137832295Y-85522841D01*
X137881827Y-85500605D01*
X137939236Y-85490284D01*
X137992602Y-85493047D01*
X138022463Y-85504192D01*
X138034181Y-85507363D01*
X138041957Y-85495537D01*
X138047385Y-85463846D01*
X138051491Y-85415573D01*
X138055987Y-85361809D01*
X138062233Y-85329462D01*
X138073596Y-85310965D01*
X138093448Y-85298750D01*
X138105920Y-85293342D01*
X138153091Y-85273581D01*
X138153037Y-85610338D01*
G37*
X138153037Y-85610338D02*
X138152853Y-85718817D01*
X138152139Y-85802267D01*
X138150595Y-85864684D01*
X138147921Y-85910065D01*
X138143814Y-85942409D01*
X138137975Y-85965713D01*
X138130102Y-85983975D01*
X138124141Y-85994398D01*
X138074775Y-86050925D01*
X138012184Y-86086357D01*
X137942933Y-86099070D01*
X137873588Y-86087443D01*
X137832295Y-86066548D01*
X137788945Y-86030402D01*
X137759401Y-85986256D01*
X137741575Y-85928442D01*
X137733383Y-85851293D01*
X137732222Y-85794694D01*
X137732378Y-85790627D01*
X137833777Y-85790627D01*
X137834396Y-85855530D01*
X137837234Y-85898494D01*
X137843760Y-85926602D01*
X137855443Y-85946933D01*
X137869403Y-85962268D01*
X137916285Y-85991870D01*
X137966621Y-85994399D01*
X138014196Y-85969685D01*
X138017899Y-85966336D01*
X138033703Y-85948915D01*
X138043613Y-85928189D01*
X138048978Y-85897342D01*
X138051148Y-85849557D01*
X138051491Y-85796728D01*
X138050747Y-85730361D01*
X138047668Y-85686086D01*
X138040981Y-85656989D01*
X138029416Y-85636153D01*
X138019933Y-85625087D01*
X137975880Y-85597178D01*
X137925144Y-85593823D01*
X137876716Y-85615139D01*
X137867370Y-85623053D01*
X137851460Y-85640627D01*
X137841530Y-85661567D01*
X137836198Y-85692762D01*
X137834083Y-85741102D01*
X137833777Y-85790627D01*
X137732378Y-85790627D01*
X137735730Y-85703548D01*
X137747646Y-85635066D01*
X137770055Y-85583580D01*
X137805044Y-85543423D01*
X137832295Y-85522841D01*
X137881827Y-85500605D01*
X137939236Y-85490284D01*
X137992602Y-85493047D01*
X138022463Y-85504192D01*
X138034181Y-85507363D01*
X138041957Y-85495537D01*
X138047385Y-85463846D01*
X138051491Y-85415573D01*
X138055987Y-85361809D01*
X138062233Y-85329462D01*
X138073596Y-85310965D01*
X138093448Y-85298750D01*
X138105920Y-85293342D01*
X138153091Y-85273581D01*
X138153037Y-85610338D01*
G36*
X138742753Y-85503643D02*
G01*
X138744968Y-85541830D01*
X138746704Y-85599866D01*
X138747819Y-85673160D01*
X138748177Y-85750035D01*
X138748177Y-86010176D01*
X138702246Y-86056107D01*
X138670595Y-86084409D01*
X138642810Y-86095873D01*
X138604835Y-86095148D01*
X138589760Y-86093301D01*
X138542646Y-86087928D01*
X138503676Y-86084849D01*
X138494177Y-86084565D01*
X138462153Y-86086425D01*
X138416352Y-86091094D01*
X138398594Y-86093301D01*
X138354977Y-86096715D01*
X138325665Y-86089300D01*
X138296600Y-86066407D01*
X138286108Y-86056107D01*
X138240177Y-86010176D01*
X138240177Y-85523582D01*
X138277146Y-85506738D01*
X138308979Y-85494262D01*
X138327603Y-85489894D01*
X138332378Y-85503698D01*
X138336841Y-85542266D01*
X138340695Y-85601336D01*
X138343642Y-85676643D01*
X138345063Y-85740266D01*
X138349034Y-85990637D01*
X138383679Y-85995536D01*
X138415188Y-85992111D01*
X138430628Y-85981021D01*
X138434943Y-85960288D01*
X138438628Y-85916125D01*
X138441389Y-85854126D01*
X138442932Y-85779889D01*
X138443155Y-85741686D01*
X138443377Y-85521763D01*
X138489086Y-85505829D01*
X138521438Y-85494995D01*
X138539035Y-85489942D01*
X138539543Y-85489894D01*
X138541308Y-85503628D01*
X138543249Y-85541710D01*
X138545202Y-85599462D01*
X138547004Y-85672207D01*
X138548263Y-85740266D01*
X138552234Y-85990637D01*
X138639320Y-85990637D01*
X138643316Y-85762220D01*
X138647312Y-85533802D01*
X138689767Y-85511848D01*
X138721112Y-85496773D01*
X138739664Y-85489931D01*
X138740199Y-85489894D01*
X138742753Y-85503643D01*
G37*
X138742753Y-85503643D02*
X138744968Y-85541830D01*
X138746704Y-85599866D01*
X138747819Y-85673160D01*
X138748177Y-85750035D01*
X138748177Y-86010176D01*
X138702246Y-86056107D01*
X138670595Y-86084409D01*
X138642810Y-86095873D01*
X138604835Y-86095148D01*
X138589760Y-86093301D01*
X138542646Y-86087928D01*
X138503676Y-86084849D01*
X138494177Y-86084565D01*
X138462153Y-86086425D01*
X138416352Y-86091094D01*
X138398594Y-86093301D01*
X138354977Y-86096715D01*
X138325665Y-86089300D01*
X138296600Y-86066407D01*
X138286108Y-86056107D01*
X138240177Y-86010176D01*
X138240177Y-85523582D01*
X138277146Y-85506738D01*
X138308979Y-85494262D01*
X138327603Y-85489894D01*
X138332378Y-85503698D01*
X138336841Y-85542266D01*
X138340695Y-85601336D01*
X138343642Y-85676643D01*
X138345063Y-85740266D01*
X138349034Y-85990637D01*
X138383679Y-85995536D01*
X138415188Y-85992111D01*
X138430628Y-85981021D01*
X138434943Y-85960288D01*
X138438628Y-85916125D01*
X138441389Y-85854126D01*
X138442932Y-85779889D01*
X138443155Y-85741686D01*
X138443377Y-85521763D01*
X138489086Y-85505829D01*
X138521438Y-85494995D01*
X138539035Y-85489942D01*
X138539543Y-85489894D01*
X138541308Y-85503628D01*
X138543249Y-85541710D01*
X138545202Y-85599462D01*
X138547004Y-85672207D01*
X138548263Y-85740266D01*
X138552234Y-85990637D01*
X138639320Y-85990637D01*
X138643316Y-85762220D01*
X138647312Y-85533802D01*
X138689767Y-85511848D01*
X138721112Y-85496773D01*
X138739664Y-85489931D01*
X138740199Y-85489894D01*
X138742753Y-85503643D01*
G36*
X139107796Y-85501315D02*
G01*
X139149587Y-85520324D01*
X139182389Y-85543358D01*
X139206423Y-85569113D01*
X139223017Y-85602338D01*
X139233497Y-85647780D01*
X139239191Y-85710187D01*
X139241427Y-85794307D01*
X139241663Y-85849701D01*
X139241663Y-86065806D01*
X139204694Y-86082650D01*
X139175576Y-86094961D01*
X139161151Y-86099494D01*
X139158392Y-86086005D01*
X139156202Y-86049633D01*
X139154862Y-85996522D01*
X139154577Y-85954352D01*
X139153354Y-85893427D01*
X139150056Y-85845095D01*
X139145241Y-85815498D01*
X139141416Y-85809209D01*
X139115703Y-85815632D01*
X139075338Y-85832105D01*
X139028599Y-85854438D01*
X138983765Y-85878437D01*
X138949113Y-85899910D01*
X138932922Y-85914665D01*
X138932858Y-85914825D01*
X138934250Y-85942132D01*
X138946738Y-85968199D01*
X138968663Y-85989372D01*
X139000663Y-85996454D01*
X139028012Y-85995629D01*
X139066746Y-85995022D01*
X139087078Y-86004096D01*
X139099289Y-86028072D01*
X139100829Y-86032593D01*
X139106123Y-86066786D01*
X139091967Y-86087548D01*
X139055068Y-86097442D01*
X139015209Y-86099272D01*
X138943482Y-86085707D01*
X138906352Y-86066335D01*
X138860496Y-86020825D01*
X138836176Y-85964963D01*
X138833993Y-85905937D01*
X138854549Y-85850933D01*
X138885469Y-85816466D01*
X138916340Y-85797169D01*
X138964862Y-85772739D01*
X139021405Y-85747965D01*
X139030830Y-85744179D01*
X139092939Y-85716771D01*
X139128742Y-85692614D01*
X139140257Y-85668599D01*
X139129500Y-85641615D01*
X139111034Y-85620523D01*
X139067389Y-85594552D01*
X139019366Y-85592604D01*
X138975326Y-85612617D01*
X138943629Y-85652531D01*
X138939469Y-85662828D01*
X138915247Y-85700704D01*
X138879885Y-85728822D01*
X138835263Y-85751897D01*
X138835263Y-85686465D01*
X138837889Y-85646486D01*
X138849150Y-85614977D01*
X138874119Y-85581358D01*
X138898089Y-85555464D01*
X138935361Y-85518797D01*
X138964321Y-85499101D01*
X138995425Y-85491200D01*
X139030633Y-85489894D01*
X139107796Y-85501315D01*
G37*
X139107796Y-85501315D02*
X139149587Y-85520324D01*
X139182389Y-85543358D01*
X139206423Y-85569113D01*
X139223017Y-85602338D01*
X139233497Y-85647780D01*
X139239191Y-85710187D01*
X139241427Y-85794307D01*
X139241663Y-85849701D01*
X139241663Y-86065806D01*
X139204694Y-86082650D01*
X139175576Y-86094961D01*
X139161151Y-86099494D01*
X139158392Y-86086005D01*
X139156202Y-86049633D01*
X139154862Y-85996522D01*
X139154577Y-85954352D01*
X139153354Y-85893427D01*
X139150056Y-85845095D01*
X139145241Y-85815498D01*
X139141416Y-85809209D01*
X139115703Y-85815632D01*
X139075338Y-85832105D01*
X139028599Y-85854438D01*
X138983765Y-85878437D01*
X138949113Y-85899910D01*
X138932922Y-85914665D01*
X138932858Y-85914825D01*
X138934250Y-85942132D01*
X138946738Y-85968199D01*
X138968663Y-85989372D01*
X139000663Y-85996454D01*
X139028012Y-85995629D01*
X139066746Y-85995022D01*
X139087078Y-86004096D01*
X139099289Y-86028072D01*
X139100829Y-86032593D01*
X139106123Y-86066786D01*
X139091967Y-86087548D01*
X139055068Y-86097442D01*
X139015209Y-86099272D01*
X138943482Y-86085707D01*
X138906352Y-86066335D01*
X138860496Y-86020825D01*
X138836176Y-85964963D01*
X138833993Y-85905937D01*
X138854549Y-85850933D01*
X138885469Y-85816466D01*
X138916340Y-85797169D01*
X138964862Y-85772739D01*
X139021405Y-85747965D01*
X139030830Y-85744179D01*
X139092939Y-85716771D01*
X139128742Y-85692614D01*
X139140257Y-85668599D01*
X139129500Y-85641615D01*
X139111034Y-85620523D01*
X139067389Y-85594552D01*
X139019366Y-85592604D01*
X138975326Y-85612617D01*
X138943629Y-85652531D01*
X138939469Y-85662828D01*
X138915247Y-85700704D01*
X138879885Y-85728822D01*
X138835263Y-85751897D01*
X138835263Y-85686465D01*
X138837889Y-85646486D01*
X138849150Y-85614977D01*
X138874119Y-85581358D01*
X138898089Y-85555464D01*
X138935361Y-85518797D01*
X138964321Y-85499101D01*
X138995425Y-85491200D01*
X139030633Y-85489894D01*
X139107796Y-85501315D01*
G36*
X139615520Y-85503732D02*
G01*
X139632868Y-85511314D01*
X139674276Y-85544108D01*
X139709685Y-85591527D01*
X139731584Y-85642131D01*
X139735149Y-85667078D01*
X139723199Y-85701907D01*
X139696987Y-85720337D01*
X139668884Y-85731496D01*
X139656015Y-85733552D01*
X139649749Y-85718629D01*
X139637376Y-85686155D01*
X139631948Y-85671482D01*
X139601510Y-85620724D01*
X139557440Y-85595407D01*
X139500930Y-85596186D01*
X139496745Y-85597183D01*
X139466575Y-85611487D01*
X139444396Y-85639373D01*
X139429247Y-85684267D01*
X139420170Y-85749595D01*
X139416206Y-85838784D01*
X139415834Y-85886241D01*
X139415650Y-85961051D01*
X139414442Y-86012049D01*
X139411229Y-86044451D01*
X139405029Y-86063475D01*
X139394860Y-86074336D01*
X139379739Y-86082252D01*
X139378866Y-86082650D01*
X139349748Y-86094961D01*
X139335323Y-86099494D01*
X139333106Y-86085789D01*
X139331209Y-86047905D01*
X139329767Y-85990695D01*
X139328918Y-85919007D01*
X139328749Y-85866545D01*
X139329612Y-85765027D01*
X139332990Y-85688012D01*
X139340062Y-85631003D01*
X139352008Y-85589506D01*
X139370010Y-85559023D01*
X139395247Y-85535060D01*
X139420167Y-85518335D01*
X139480091Y-85496077D01*
X139549831Y-85491056D01*
X139615520Y-85503732D01*
G37*
X139615520Y-85503732D02*
X139632868Y-85511314D01*
X139674276Y-85544108D01*
X139709685Y-85591527D01*
X139731584Y-85642131D01*
X139735149Y-85667078D01*
X139723199Y-85701907D01*
X139696987Y-85720337D01*
X139668884Y-85731496D01*
X139656015Y-85733552D01*
X139649749Y-85718629D01*
X139637376Y-85686155D01*
X139631948Y-85671482D01*
X139601510Y-85620724D01*
X139557440Y-85595407D01*
X139500930Y-85596186D01*
X139496745Y-85597183D01*
X139466575Y-85611487D01*
X139444396Y-85639373D01*
X139429247Y-85684267D01*
X139420170Y-85749595D01*
X139416206Y-85838784D01*
X139415834Y-85886241D01*
X139415650Y-85961051D01*
X139414442Y-86012049D01*
X139411229Y-86044451D01*
X139405029Y-86063475D01*
X139394860Y-86074336D01*
X139379739Y-86082252D01*
X139378866Y-86082650D01*
X139349748Y-86094961D01*
X139335323Y-86099494D01*
X139333106Y-86085789D01*
X139331209Y-86047905D01*
X139329767Y-85990695D01*
X139328918Y-85919007D01*
X139328749Y-85866545D01*
X139329612Y-85765027D01*
X139332990Y-85688012D01*
X139340062Y-85631003D01*
X139352008Y-85589506D01*
X139370010Y-85559023D01*
X139395247Y-85535060D01*
X139420167Y-85518335D01*
X139480091Y-85496077D01*
X139549831Y-85491056D01*
X139615520Y-85503732D01*
G36*
X140116515Y-85511946D02*
G01*
X140173941Y-85549477D01*
X140201639Y-85583076D01*
X140223582Y-85644044D01*
X140225325Y-85692288D01*
X140221377Y-85756796D01*
X140072606Y-85821914D01*
X140000269Y-85855182D01*
X139953004Y-85881944D01*
X139928427Y-85905124D01*
X139924157Y-85927647D01*
X139937809Y-85952435D01*
X139952863Y-85968866D01*
X139996666Y-85995215D01*
X140044309Y-85997061D01*
X140088065Y-85976526D01*
X140120209Y-85935732D01*
X140125958Y-85921327D01*
X140153496Y-85876336D01*
X140185178Y-85857162D01*
X140228634Y-85840759D01*
X140228634Y-85902946D01*
X140224792Y-85945263D01*
X140209743Y-85980949D01*
X140178200Y-86021923D01*
X140173512Y-86027247D01*
X140138426Y-86063700D01*
X140108267Y-86083263D01*
X140070535Y-86092263D01*
X140039255Y-86095210D01*
X139983305Y-86095945D01*
X139943475Y-86086640D01*
X139918628Y-86072826D01*
X139879576Y-86042447D01*
X139852545Y-86009593D01*
X139835437Y-85968274D01*
X139826158Y-85912501D01*
X139822613Y-85836285D01*
X139822330Y-85797602D01*
X139823292Y-85751227D01*
X139910927Y-85751227D01*
X139911943Y-85776106D01*
X139914476Y-85780180D01*
X139931194Y-85774645D01*
X139967169Y-85759997D01*
X140015251Y-85739170D01*
X140025306Y-85734694D01*
X140086072Y-85703794D01*
X140119552Y-85676637D01*
X140126910Y-85651200D01*
X140109311Y-85625461D01*
X140094776Y-85614089D01*
X140042330Y-85591344D01*
X139993242Y-85595102D01*
X139952147Y-85622864D01*
X139923678Y-85672132D01*
X139914551Y-85711237D01*
X139910927Y-85751227D01*
X139823292Y-85751227D01*
X139824205Y-85707229D01*
X139831116Y-85640364D01*
X139844804Y-85591675D01*
X139867016Y-85555829D01*
X139899494Y-85527493D01*
X139913653Y-85518335D01*
X139977973Y-85494487D01*
X140048393Y-85492986D01*
X140116515Y-85511946D01*
G37*
X140116515Y-85511946D02*
X140173941Y-85549477D01*
X140201639Y-85583076D01*
X140223582Y-85644044D01*
X140225325Y-85692288D01*
X140221377Y-85756796D01*
X140072606Y-85821914D01*
X140000269Y-85855182D01*
X139953004Y-85881944D01*
X139928427Y-85905124D01*
X139924157Y-85927647D01*
X139937809Y-85952435D01*
X139952863Y-85968866D01*
X139996666Y-85995215D01*
X140044309Y-85997061D01*
X140088065Y-85976526D01*
X140120209Y-85935732D01*
X140125958Y-85921327D01*
X140153496Y-85876336D01*
X140185178Y-85857162D01*
X140228634Y-85840759D01*
X140228634Y-85902946D01*
X140224792Y-85945263D01*
X140209743Y-85980949D01*
X140178200Y-86021923D01*
X140173512Y-86027247D01*
X140138426Y-86063700D01*
X140108267Y-86083263D01*
X140070535Y-86092263D01*
X140039255Y-86095210D01*
X139983305Y-86095945D01*
X139943475Y-86086640D01*
X139918628Y-86072826D01*
X139879576Y-86042447D01*
X139852545Y-86009593D01*
X139835437Y-85968274D01*
X139826158Y-85912501D01*
X139822613Y-85836285D01*
X139822330Y-85797602D01*
X139823292Y-85751227D01*
X139910927Y-85751227D01*
X139911943Y-85776106D01*
X139914476Y-85780180D01*
X139931194Y-85774645D01*
X139967169Y-85759997D01*
X140015251Y-85739170D01*
X140025306Y-85734694D01*
X140086072Y-85703794D01*
X140119552Y-85676637D01*
X140126910Y-85651200D01*
X140109311Y-85625461D01*
X140094776Y-85614089D01*
X140042330Y-85591344D01*
X139993242Y-85595102D01*
X139952147Y-85622864D01*
X139923678Y-85672132D01*
X139914551Y-85711237D01*
X139910927Y-85751227D01*
X139823292Y-85751227D01*
X139824205Y-85707229D01*
X139831116Y-85640364D01*
X139844804Y-85591675D01*
X139867016Y-85555829D01*
X139899494Y-85527493D01*
X139913653Y-85518335D01*
X139977973Y-85494487D01*
X140048393Y-85492986D01*
X140116515Y-85511946D01*
G36*
X137066830Y-80787328D02*
G01*
X137145374Y-80787758D01*
X137202218Y-80788922D01*
X137241025Y-80791187D01*
X137265458Y-80794920D01*
X137279182Y-80800486D01*
X137285860Y-80808253D01*
X137289156Y-80818585D01*
X137289476Y-80819923D01*
X137294482Y-80844059D01*
X137303749Y-80891681D01*
X137316312Y-80957721D01*
X137331207Y-81037108D01*
X137347471Y-81124776D01*
X137348039Y-81127855D01*
X137364330Y-81213769D01*
X137379572Y-81289676D01*
X137392781Y-81351025D01*
X137402974Y-81393262D01*
X137409168Y-81411835D01*
X137409463Y-81412164D01*
X137427708Y-81421233D01*
X137465325Y-81436347D01*
X137514191Y-81454242D01*
X137514463Y-81454338D01*
X137576013Y-81477473D01*
X137648577Y-81506945D01*
X137716977Y-81536577D01*
X137720214Y-81538042D01*
X137831622Y-81588606D01*
X138078319Y-81420140D01*
X138153997Y-81368783D01*
X138222551Y-81322869D01*
X138280008Y-81285010D01*
X138322396Y-81257817D01*
X138345745Y-81243901D01*
X138347962Y-81242869D01*
X138364930Y-81247464D01*
X138396621Y-81269635D01*
X138444272Y-81310427D01*
X138509118Y-81370885D01*
X138575317Y-81435207D01*
X138639134Y-81498592D01*
X138696249Y-81556431D01*
X138743225Y-81605155D01*
X138776623Y-81641190D01*
X138793005Y-81660964D01*
X138793614Y-81661982D01*
X138795425Y-81675552D01*
X138788603Y-81697713D01*
X138771460Y-81731458D01*
X138742313Y-81779780D01*
X138699475Y-81845672D01*
X138642368Y-81930497D01*
X138591686Y-82005157D01*
X138546381Y-82072120D01*
X138509070Y-82127496D01*
X138482372Y-82167400D01*
X138468905Y-82187942D01*
X138468057Y-82189336D01*
X138469701Y-82209018D01*
X138482165Y-82247273D01*
X138502968Y-82296869D01*
X138510382Y-82312708D01*
X138542734Y-82383270D01*
X138577248Y-82463333D01*
X138605285Y-82532609D01*
X138625488Y-82584025D01*
X138641535Y-82623099D01*
X138650808Y-82643521D01*
X138651961Y-82645094D01*
X138669016Y-82647701D01*
X138709218Y-82654843D01*
X138767222Y-82665503D01*
X138837683Y-82678665D01*
X138915255Y-82693313D01*
X138994592Y-82708429D01*
X139070351Y-82722998D01*
X139137184Y-82736002D01*
X139189748Y-82746425D01*
X139222696Y-82753250D01*
X139230777Y-82755179D01*
X139239125Y-82759942D01*
X139245426Y-82770698D01*
X139249965Y-82791078D01*
X139253024Y-82824714D01*
X139254887Y-82875235D01*
X139255838Y-82946272D01*
X139256160Y-83041456D01*
X139256177Y-83080472D01*
X139256177Y-83397779D01*
X139179977Y-83412819D01*
X139137583Y-83420975D01*
X139074320Y-83432879D01*
X138997882Y-83447096D01*
X138915963Y-83462190D01*
X138893320Y-83466335D01*
X138817726Y-83481033D01*
X138751873Y-83495485D01*
X138701286Y-83508355D01*
X138671494Y-83518302D01*
X138666532Y-83521267D01*
X138654346Y-83542263D01*
X138636873Y-83582947D01*
X138617497Y-83635302D01*
X138613654Y-83646580D01*
X138588259Y-83716503D01*
X138556737Y-83795398D01*
X138525889Y-83866246D01*
X138525737Y-83866575D01*
X138474367Y-83977713D01*
X138643319Y-84226233D01*
X138812272Y-84474752D01*
X138595349Y-84692038D01*
X138529739Y-84756706D01*
X138469899Y-84813713D01*
X138419187Y-84860013D01*
X138380966Y-84892564D01*
X138358595Y-84908323D01*
X138355386Y-84909323D01*
X138336546Y-84901449D01*
X138298100Y-84879558D01*
X138244250Y-84846247D01*
X138179196Y-84804111D01*
X138108860Y-84756923D01*
X138037475Y-84708790D01*
X137973828Y-84666908D01*
X137921961Y-84633851D01*
X137885915Y-84612198D01*
X137869787Y-84604523D01*
X137850109Y-84611017D01*
X137812795Y-84628130D01*
X137765541Y-84652306D01*
X137760532Y-84654993D01*
X137696897Y-84686907D01*
X137653261Y-84702559D01*
X137626122Y-84702725D01*
X137611977Y-84688184D01*
X137611895Y-84687980D01*
X137604825Y-84670759D01*
X137587962Y-84629879D01*
X137562615Y-84568505D01*
X137530091Y-84489799D01*
X137491698Y-84396927D01*
X137448742Y-84293052D01*
X137407142Y-84192482D01*
X137361424Y-84081496D01*
X137319446Y-83978683D01*
X137282468Y-83887195D01*
X137251747Y-83810181D01*
X137228542Y-83750795D01*
X137214110Y-83712189D01*
X137209663Y-83697780D01*
X137220816Y-83681252D01*
X137249989Y-83654910D01*
X137288891Y-83625867D01*
X137399677Y-83534019D01*
X137486271Y-83428739D01*
X137547636Y-83312246D01*
X137582735Y-83186756D01*
X137590528Y-83054487D01*
X137584863Y-82993437D01*
X137553998Y-82866775D01*
X137500840Y-82754921D01*
X137428687Y-82658981D01*
X137340837Y-82580056D01*
X137240585Y-82519250D01*
X137131230Y-82477667D01*
X137016067Y-82456408D01*
X136898395Y-82456579D01*
X136781510Y-82479281D01*
X136668709Y-82525618D01*
X136563289Y-82596693D01*
X136519288Y-82636891D01*
X136434899Y-82740109D01*
X136376142Y-82852905D01*
X136342624Y-82971990D01*
X136333955Y-83094075D01*
X136349743Y-83215873D01*
X136389598Y-83334096D01*
X136453127Y-83445455D01*
X136539941Y-83546664D01*
X136636949Y-83625867D01*
X136677357Y-83656142D01*
X136705902Y-83682199D01*
X136716177Y-83697805D01*
X136710797Y-83714823D01*
X136695495Y-83755480D01*
X136671532Y-83816622D01*
X136640164Y-83895099D01*
X136602652Y-83987760D01*
X136560253Y-84091452D01*
X136518583Y-84192506D01*
X136472610Y-84303587D01*
X136430027Y-84406521D01*
X136392141Y-84498145D01*
X136360260Y-84575296D01*
X136335691Y-84634811D01*
X136319740Y-84673524D01*
X136313830Y-84687980D01*
X136299868Y-84702665D01*
X136272860Y-84702622D01*
X136229333Y-84687079D01*
X136165810Y-84655264D01*
X136165308Y-84654993D01*
X136117480Y-84630303D01*
X136078817Y-84612318D01*
X136057015Y-84604594D01*
X136056053Y-84604523D01*
X136039641Y-84612358D01*
X136003407Y-84634145D01*
X135951394Y-84667308D01*
X135887645Y-84709271D01*
X135816980Y-84756923D01*
X135745036Y-84805171D01*
X135680194Y-84847131D01*
X135626655Y-84880207D01*
X135588617Y-84901801D01*
X135570453Y-84909323D01*
X135553728Y-84899437D01*
X135520100Y-84871806D01*
X135472930Y-84829475D01*
X135415578Y-84775485D01*
X135351404Y-84712879D01*
X135330417Y-84691963D01*
X135113419Y-84474603D01*
X135278588Y-84232200D01*
X135328784Y-84157761D01*
X135372839Y-84090952D01*
X135408282Y-84035645D01*
X135432639Y-83995709D01*
X135443442Y-83975016D01*
X135443758Y-83973543D01*
X135438063Y-83954038D01*
X135422746Y-83914802D01*
X135400457Y-83862410D01*
X135384813Y-83827335D01*
X135355561Y-83760181D01*
X135328014Y-83692338D01*
X135306657Y-83635014D01*
X135300855Y-83617552D01*
X135284372Y-83570918D01*
X135268260Y-83534885D01*
X135259410Y-83521267D01*
X135239880Y-83512932D01*
X135197254Y-83501117D01*
X135137065Y-83487161D01*
X135064842Y-83472402D01*
X135032520Y-83466335D01*
X134950442Y-83451253D01*
X134871715Y-83436649D01*
X134804029Y-83423960D01*
X134755080Y-83414622D01*
X134745863Y-83412819D01*
X134669663Y-83397779D01*
X134669663Y-83080472D01*
X134669834Y-82976134D01*
X134670536Y-82897193D01*
X134672054Y-82840018D01*
X134674669Y-82800979D01*
X134678666Y-82776445D01*
X134684329Y-82762785D01*
X134691940Y-82756369D01*
X134695063Y-82755179D01*
X134713898Y-82750960D01*
X134755508Y-82742542D01*
X134814550Y-82730941D01*
X134885677Y-82717175D01*
X134963545Y-82702260D01*
X135042807Y-82687212D01*
X135118118Y-82673049D01*
X135184133Y-82660786D01*
X135235507Y-82651441D01*
X135266895Y-82646030D01*
X135273879Y-82645094D01*
X135280205Y-82632576D01*
X135294210Y-82599226D01*
X135313275Y-82551357D01*
X135320554Y-82532609D01*
X135349916Y-82460175D01*
X135384491Y-82380150D01*
X135415457Y-82312708D01*
X135438243Y-82261139D01*
X135453402Y-82218765D01*
X135458462Y-82192814D01*
X135457656Y-82189336D01*
X135446961Y-82172916D01*
X135422540Y-82136397D01*
X135387015Y-82083667D01*
X135343007Y-82018615D01*
X135293137Y-81945131D01*
X135283276Y-81930625D01*
X135225412Y-81844684D01*
X135182876Y-81779241D01*
X135153974Y-81731284D01*
X135137010Y-81697800D01*
X135130287Y-81675775D01*
X135132110Y-81662197D01*
X135132156Y-81662111D01*
X135146506Y-81644277D01*
X135178243Y-81609797D01*
X135223930Y-81562248D01*
X135280124Y-81505202D01*
X135343388Y-81442235D01*
X135350522Y-81435207D01*
X135430250Y-81358000D01*
X135491777Y-81301310D01*
X135536341Y-81264090D01*
X135565177Y-81245295D01*
X135577878Y-81242869D01*
X135596414Y-81253451D01*
X135634881Y-81277896D01*
X135689306Y-81313592D01*
X135755718Y-81357927D01*
X135830145Y-81408291D01*
X135847521Y-81420140D01*
X136094217Y-81588606D01*
X136205626Y-81538042D01*
X136273377Y-81508575D01*
X136346103Y-81478939D01*
X136408623Y-81455310D01*
X136411377Y-81454338D01*
X136460280Y-81436437D01*
X136497977Y-81421300D01*
X136516345Y-81412190D01*
X136516376Y-81412164D01*
X136522205Y-81395697D01*
X136532112Y-81355199D01*
X136545115Y-81295222D01*
X136560229Y-81220320D01*
X136576472Y-81135044D01*
X136577801Y-81127855D01*
X136594095Y-81039994D01*
X136609053Y-80960240D01*
X136621711Y-80893661D01*
X136631106Y-80845327D01*
X136636274Y-80820305D01*
X136636364Y-80819923D01*
X136639509Y-80809279D01*
X136645624Y-80801242D01*
X136658373Y-80795447D01*
X136681420Y-80791527D01*
X136718429Y-80789115D01*
X136773064Y-80787845D01*
X136848987Y-80787351D01*
X136949864Y-80787266D01*
X136962920Y-80787266D01*
X137066830Y-80787328D01*
G37*
X137066830Y-80787328D02*
X137145374Y-80787758D01*
X137202218Y-80788922D01*
X137241025Y-80791187D01*
X137265458Y-80794920D01*
X137279182Y-80800486D01*
X137285860Y-80808253D01*
X137289156Y-80818585D01*
X137289476Y-80819923D01*
X137294482Y-80844059D01*
X137303749Y-80891681D01*
X137316312Y-80957721D01*
X137331207Y-81037108D01*
X137347471Y-81124776D01*
X137348039Y-81127855D01*
X137364330Y-81213769D01*
X137379572Y-81289676D01*
X137392781Y-81351025D01*
X137402974Y-81393262D01*
X137409168Y-81411835D01*
X137409463Y-81412164D01*
X137427708Y-81421233D01*
X137465325Y-81436347D01*
X137514191Y-81454242D01*
X137514463Y-81454338D01*
X137576013Y-81477473D01*
X137648577Y-81506945D01*
X137716977Y-81536577D01*
X137720214Y-81538042D01*
X137831622Y-81588606D01*
X138078319Y-81420140D01*
X138153997Y-81368783D01*
X138222551Y-81322869D01*
X138280008Y-81285010D01*
X138322396Y-81257817D01*
X138345745Y-81243901D01*
X138347962Y-81242869D01*
X138364930Y-81247464D01*
X138396621Y-81269635D01*
X138444272Y-81310427D01*
X138509118Y-81370885D01*
X138575317Y-81435207D01*
X138639134Y-81498592D01*
X138696249Y-81556431D01*
X138743225Y-81605155D01*
X138776623Y-81641190D01*
X138793005Y-81660964D01*
X138793614Y-81661982D01*
X138795425Y-81675552D01*
X138788603Y-81697713D01*
X138771460Y-81731458D01*
X138742313Y-81779780D01*
X138699475Y-81845672D01*
X138642368Y-81930497D01*
X138591686Y-82005157D01*
X138546381Y-82072120D01*
X138509070Y-82127496D01*
X138482372Y-82167400D01*
X138468905Y-82187942D01*
X138468057Y-82189336D01*
X138469701Y-82209018D01*
X138482165Y-82247273D01*
X138502968Y-82296869D01*
X138510382Y-82312708D01*
X138542734Y-82383270D01*
X138577248Y-82463333D01*
X138605285Y-82532609D01*
X138625488Y-82584025D01*
X138641535Y-82623099D01*
X138650808Y-82643521D01*
X138651961Y-82645094D01*
X138669016Y-82647701D01*
X138709218Y-82654843D01*
X138767222Y-82665503D01*
X138837683Y-82678665D01*
X138915255Y-82693313D01*
X138994592Y-82708429D01*
X139070351Y-82722998D01*
X139137184Y-82736002D01*
X139189748Y-82746425D01*
X139222696Y-82753250D01*
X139230777Y-82755179D01*
X139239125Y-82759942D01*
X139245426Y-82770698D01*
X139249965Y-82791078D01*
X139253024Y-82824714D01*
X139254887Y-82875235D01*
X139255838Y-82946272D01*
X139256160Y-83041456D01*
X139256177Y-83080472D01*
X139256177Y-83397779D01*
X139179977Y-83412819D01*
X139137583Y-83420975D01*
X139074320Y-83432879D01*
X138997882Y-83447096D01*
X138915963Y-83462190D01*
X138893320Y-83466335D01*
X138817726Y-83481033D01*
X138751873Y-83495485D01*
X138701286Y-83508355D01*
X138671494Y-83518302D01*
X138666532Y-83521267D01*
X138654346Y-83542263D01*
X138636873Y-83582947D01*
X138617497Y-83635302D01*
X138613654Y-83646580D01*
X138588259Y-83716503D01*
X138556737Y-83795398D01*
X138525889Y-83866246D01*
X138525737Y-83866575D01*
X138474367Y-83977713D01*
X138643319Y-84226233D01*
X138812272Y-84474752D01*
X138595349Y-84692038D01*
X138529739Y-84756706D01*
X138469899Y-84813713D01*
X138419187Y-84860013D01*
X138380966Y-84892564D01*
X138358595Y-84908323D01*
X138355386Y-84909323D01*
X138336546Y-84901449D01*
X138298100Y-84879558D01*
X138244250Y-84846247D01*
X138179196Y-84804111D01*
X138108860Y-84756923D01*
X138037475Y-84708790D01*
X137973828Y-84666908D01*
X137921961Y-84633851D01*
X137885915Y-84612198D01*
X137869787Y-84604523D01*
X137850109Y-84611017D01*
X137812795Y-84628130D01*
X137765541Y-84652306D01*
X137760532Y-84654993D01*
X137696897Y-84686907D01*
X137653261Y-84702559D01*
X137626122Y-84702725D01*
X137611977Y-84688184D01*
X137611895Y-84687980D01*
X137604825Y-84670759D01*
X137587962Y-84629879D01*
X137562615Y-84568505D01*
X137530091Y-84489799D01*
X137491698Y-84396927D01*
X137448742Y-84293052D01*
X137407142Y-84192482D01*
X137361424Y-84081496D01*
X137319446Y-83978683D01*
X137282468Y-83887195D01*
X137251747Y-83810181D01*
X137228542Y-83750795D01*
X137214110Y-83712189D01*
X137209663Y-83697780D01*
X137220816Y-83681252D01*
X137249989Y-83654910D01*
X137288891Y-83625867D01*
X137399677Y-83534019D01*
X137486271Y-83428739D01*
X137547636Y-83312246D01*
X137582735Y-83186756D01*
X137590528Y-83054487D01*
X137584863Y-82993437D01*
X137553998Y-82866775D01*
X137500840Y-82754921D01*
X137428687Y-82658981D01*
X137340837Y-82580056D01*
X137240585Y-82519250D01*
X137131230Y-82477667D01*
X137016067Y-82456408D01*
X136898395Y-82456579D01*
X136781510Y-82479281D01*
X136668709Y-82525618D01*
X136563289Y-82596693D01*
X136519288Y-82636891D01*
X136434899Y-82740109D01*
X136376142Y-82852905D01*
X136342624Y-82971990D01*
X136333955Y-83094075D01*
X136349743Y-83215873D01*
X136389598Y-83334096D01*
X136453127Y-83445455D01*
X136539941Y-83546664D01*
X136636949Y-83625867D01*
X136677357Y-83656142D01*
X136705902Y-83682199D01*
X136716177Y-83697805D01*
X136710797Y-83714823D01*
X136695495Y-83755480D01*
X136671532Y-83816622D01*
X136640164Y-83895099D01*
X136602652Y-83987760D01*
X136560253Y-84091452D01*
X136518583Y-84192506D01*
X136472610Y-84303587D01*
X136430027Y-84406521D01*
X136392141Y-84498145D01*
X136360260Y-84575296D01*
X136335691Y-84634811D01*
X136319740Y-84673524D01*
X136313830Y-84687980D01*
X136299868Y-84702665D01*
X136272860Y-84702622D01*
X136229333Y-84687079D01*
X136165810Y-84655264D01*
X136165308Y-84654993D01*
X136117480Y-84630303D01*
X136078817Y-84612318D01*
X136057015Y-84604594D01*
X136056053Y-84604523D01*
X136039641Y-84612358D01*
X136003407Y-84634145D01*
X135951394Y-84667308D01*
X135887645Y-84709271D01*
X135816980Y-84756923D01*
X135745036Y-84805171D01*
X135680194Y-84847131D01*
X135626655Y-84880207D01*
X135588617Y-84901801D01*
X135570453Y-84909323D01*
X135553728Y-84899437D01*
X135520100Y-84871806D01*
X135472930Y-84829475D01*
X135415578Y-84775485D01*
X135351404Y-84712879D01*
X135330417Y-84691963D01*
X135113419Y-84474603D01*
X135278588Y-84232200D01*
X135328784Y-84157761D01*
X135372839Y-84090952D01*
X135408282Y-84035645D01*
X135432639Y-83995709D01*
X135443442Y-83975016D01*
X135443758Y-83973543D01*
X135438063Y-83954038D01*
X135422746Y-83914802D01*
X135400457Y-83862410D01*
X135384813Y-83827335D01*
X135355561Y-83760181D01*
X135328014Y-83692338D01*
X135306657Y-83635014D01*
X135300855Y-83617552D01*
X135284372Y-83570918D01*
X135268260Y-83534885D01*
X135259410Y-83521267D01*
X135239880Y-83512932D01*
X135197254Y-83501117D01*
X135137065Y-83487161D01*
X135064842Y-83472402D01*
X135032520Y-83466335D01*
X134950442Y-83451253D01*
X134871715Y-83436649D01*
X134804029Y-83423960D01*
X134755080Y-83414622D01*
X134745863Y-83412819D01*
X134669663Y-83397779D01*
X134669663Y-83080472D01*
X134669834Y-82976134D01*
X134670536Y-82897193D01*
X134672054Y-82840018D01*
X134674669Y-82800979D01*
X134678666Y-82776445D01*
X134684329Y-82762785D01*
X134691940Y-82756369D01*
X134695063Y-82755179D01*
X134713898Y-82750960D01*
X134755508Y-82742542D01*
X134814550Y-82730941D01*
X134885677Y-82717175D01*
X134963545Y-82702260D01*
X135042807Y-82687212D01*
X135118118Y-82673049D01*
X135184133Y-82660786D01*
X135235507Y-82651441D01*
X135266895Y-82646030D01*
X135273879Y-82645094D01*
X135280205Y-82632576D01*
X135294210Y-82599226D01*
X135313275Y-82551357D01*
X135320554Y-82532609D01*
X135349916Y-82460175D01*
X135384491Y-82380150D01*
X135415457Y-82312708D01*
X135438243Y-82261139D01*
X135453402Y-82218765D01*
X135458462Y-82192814D01*
X135457656Y-82189336D01*
X135446961Y-82172916D01*
X135422540Y-82136397D01*
X135387015Y-82083667D01*
X135343007Y-82018615D01*
X135293137Y-81945131D01*
X135283276Y-81930625D01*
X135225412Y-81844684D01*
X135182876Y-81779241D01*
X135153974Y-81731284D01*
X135137010Y-81697800D01*
X135130287Y-81675775D01*
X135132110Y-81662197D01*
X135132156Y-81662111D01*
X135146506Y-81644277D01*
X135178243Y-81609797D01*
X135223930Y-81562248D01*
X135280124Y-81505202D01*
X135343388Y-81442235D01*
X135350522Y-81435207D01*
X135430250Y-81358000D01*
X135491777Y-81301310D01*
X135536341Y-81264090D01*
X135565177Y-81245295D01*
X135577878Y-81242869D01*
X135596414Y-81253451D01*
X135634881Y-81277896D01*
X135689306Y-81313592D01*
X135755718Y-81357927D01*
X135830145Y-81408291D01*
X135847521Y-81420140D01*
X136094217Y-81588606D01*
X136205626Y-81538042D01*
X136273377Y-81508575D01*
X136346103Y-81478939D01*
X136408623Y-81455310D01*
X136411377Y-81454338D01*
X136460280Y-81436437D01*
X136497977Y-81421300D01*
X136516345Y-81412190D01*
X136516376Y-81412164D01*
X136522205Y-81395697D01*
X136532112Y-81355199D01*
X136545115Y-81295222D01*
X136560229Y-81220320D01*
X136576472Y-81135044D01*
X136577801Y-81127855D01*
X136594095Y-81039994D01*
X136609053Y-80960240D01*
X136621711Y-80893661D01*
X136631106Y-80845327D01*
X136636274Y-80820305D01*
X136636364Y-80819923D01*
X136639509Y-80809279D01*
X136645624Y-80801242D01*
X136658373Y-80795447D01*
X136681420Y-80791527D01*
X136718429Y-80789115D01*
X136773064Y-80787845D01*
X136848987Y-80787351D01*
X136949864Y-80787266D01*
X136962920Y-80787266D01*
X137066830Y-80787328D01*
D11*
X160324500Y-66923276D02*
X160324500Y-67432724D01*
X161369500Y-66923276D02*
X161369500Y-67432724D01*
X157485000Y-60133000D02*
X160145000Y-60133000D01*
X157485000Y-65333000D02*
X160145000Y-65333000D01*
X160145000Y-60133000D02*
X160145000Y-63243000D01*
X157485000Y-60703000D02*
X155965000Y-60703000D01*
X157485000Y-60133000D02*
X157485000Y-60703000D01*
X160145000Y-64763000D02*
X160145000Y-65333000D01*
X157485000Y-62223000D02*
X157485000Y-65333000D01*
X164784724Y-72526500D02*
X164275276Y-72526500D01*
X164784724Y-71481500D02*
X164275276Y-71481500D01*
X163895724Y-65287500D02*
X163386276Y-65287500D01*
X163895724Y-64242500D02*
X163386276Y-64242500D01*
X165094000Y-67561000D02*
X164164000Y-67561000D01*
X161934000Y-67561000D02*
X162864000Y-67561000D01*
X161934000Y-67561000D02*
X161934000Y-70721000D01*
X165094000Y-67561000D02*
X165094000Y-69021000D01*
X182132252Y-59960000D02*
X180709748Y-59960000D01*
X182132252Y-58140000D02*
X180709748Y-58140000D01*
X165652000Y-68143252D02*
X165652000Y-66720748D01*
X167472000Y-68143252D02*
X167472000Y-66720748D01*
X168065000Y-68143252D02*
X168065000Y-66720748D01*
X169885000Y-68143252D02*
X169885000Y-66720748D01*
X184113452Y-82921600D02*
X182690948Y-82921600D01*
X184113452Y-81101600D02*
X182690948Y-81101600D01*
X172425000Y-66847748D02*
X172425000Y-68270252D01*
X170605000Y-66847748D02*
X170605000Y-68270252D01*
X154264000Y-62148748D02*
X154264000Y-63571252D01*
X152444000Y-62148748D02*
X152444000Y-63571252D01*
X152444000Y-58364252D02*
X152444000Y-56941748D01*
X154264000Y-58364252D02*
X154264000Y-56941748D01*
X164225252Y-60341000D02*
X162802748Y-60341000D01*
X164225252Y-58521000D02*
X162802748Y-58521000D01*
X176798252Y-59960000D02*
X175375748Y-59960000D01*
X176798252Y-58140000D02*
X175375748Y-58140000D01*
X191149252Y-64151000D02*
X189726748Y-64151000D01*
X191149252Y-62331000D02*
X189726748Y-62331000D01*
X182132252Y-57420000D02*
X180709748Y-57420000D01*
X182132252Y-55600000D02*
X180709748Y-55600000D01*
X188880000Y-68838000D02*
X187570000Y-68838000D01*
X187570000Y-68838000D02*
X187570000Y-66118000D01*
X192060000Y-64978000D02*
X192060000Y-66118000D01*
X192290000Y-68838000D02*
X190980000Y-68838000D01*
X192290000Y-66118000D02*
X192290000Y-68838000D01*
X192290000Y-66118000D02*
X192060000Y-66118000D01*
X187570000Y-66118000D02*
X187800000Y-66118000D01*
X149161000Y-83494000D02*
X152721000Y-83494000D01*
X144081000Y-83494000D02*
X147641000Y-83494000D01*
X151701000Y-80834000D02*
X154811000Y-80834000D01*
X146621000Y-80834000D02*
X150181000Y-80834000D01*
X154241000Y-80834000D02*
X154811000Y-80834000D01*
X141991000Y-83494000D02*
X142561000Y-83494000D01*
X142561000Y-83494000D02*
X142561000Y-85014000D01*
X141991000Y-80834000D02*
X145101000Y-80834000D01*
X154811000Y-83494000D02*
X154811000Y-80834000D01*
X141991000Y-83494000D02*
X141991000Y-80834000D01*
X165714000Y-62971000D02*
X165714000Y-60971000D01*
X165714000Y-60971000D02*
X161864000Y-60971000D01*
X165714000Y-62971000D02*
X161864000Y-62971000D01*
X137722252Y-62411000D02*
X134949748Y-62411000D01*
X137722252Y-58991000D02*
X134949748Y-58991000D01*
X181929000Y-73889000D02*
X179979000Y-73889000D01*
X181929000Y-73889000D02*
X183879000Y-73889000D01*
X181929000Y-79009000D02*
X179979000Y-79009000D01*
X181929000Y-79009000D02*
X185379000Y-79009000D01*
X174647000Y-83596000D02*
X177107000Y-83596000D01*
X177107000Y-83596000D02*
X177107000Y-82126000D01*
X177107000Y-82126000D02*
X174647000Y-82126000D01*
X175192276Y-80828700D02*
X175701724Y-80828700D01*
X175192276Y-81873700D02*
X175701724Y-81873700D01*
X170817198Y-71153887D02*
X170499000Y-70835689D01*
X170499000Y-70835689D02*
X170180802Y-71153887D01*
X175286113Y-75622802D02*
X175604311Y-75941000D01*
X175604311Y-75941000D02*
X175286113Y-76259198D01*
X165711887Y-76259198D02*
X165393689Y-75941000D01*
X165393689Y-75941000D02*
X165711887Y-75622802D01*
X170180802Y-80728113D02*
X170499000Y-81046311D01*
X170499000Y-81046311D02*
X170817198Y-80728113D01*
X170817198Y-80728113D02*
X171729366Y-81640281D01*
X166674500Y-83434724D02*
X166674500Y-82925276D01*
X167719500Y-83434724D02*
X167719500Y-82925276D01*
X169128641Y-84703000D02*
X168821359Y-84703000D01*
X169128641Y-83943000D02*
X168821359Y-83943000D01*
X155834000Y-83494000D02*
X155834000Y-80834000D01*
X166114000Y-83494000D02*
X166114000Y-80834000D01*
X155834000Y-80834000D02*
X158944000Y-80834000D01*
X156404000Y-83494000D02*
X156404000Y-85014000D01*
X155834000Y-83494000D02*
X156404000Y-83494000D01*
X165544000Y-80834000D02*
X166114000Y-80834000D01*
X160464000Y-80834000D02*
X164024000Y-80834000D01*
X157924000Y-83494000D02*
X161484000Y-83494000D01*
X163004000Y-83494000D02*
X166114000Y-83494000D01*
X159785233Y-69086000D02*
X160077767Y-69086000D01*
X159785233Y-70106000D02*
X160077767Y-70106000D01*
X154242276Y-65893500D02*
X154751724Y-65893500D01*
X154242276Y-66938500D02*
X154751724Y-66938500D01*
X157686500Y-68701276D02*
X157686500Y-69210724D01*
X156641500Y-68701276D02*
X156641500Y-69210724D01*
X156035500Y-68701276D02*
X156035500Y-69210724D01*
X154990500Y-68701276D02*
X154990500Y-69210724D01*
X157906733Y-65906000D02*
X158199267Y-65906000D01*
X157906733Y-66926000D02*
X158199267Y-66926000D01*
X151362000Y-62359000D02*
X141122000Y-62359000D01*
X151362000Y-78249000D02*
X141122000Y-78249000D01*
X151362000Y-78249000D02*
X151362000Y-62359000D01*
X141122000Y-78249000D02*
X141122000Y-62359000D01*
X148782000Y-62359000D02*
X148782000Y-59819000D01*
X146242000Y-62359000D02*
X146242000Y-59819000D01*
X143702000Y-62359000D02*
X143702000Y-59819000D01*
X173274000Y-55966000D02*
X173274000Y-61976000D01*
X166454000Y-58216000D02*
X166454000Y-61976000D01*
X173274000Y-61976000D02*
X172014000Y-61976000D01*
X166454000Y-61976000D02*
X167714000Y-61976000D01*
X138282000Y-58272000D02*
X134432000Y-58272000D01*
X138282000Y-56272000D02*
X134432000Y-56272000D01*
X138282000Y-58272000D02*
X138282000Y-56272000D01*
X173422000Y-83453267D02*
X173422000Y-83160733D01*
X172402000Y-83453267D02*
X172402000Y-83160733D01*
X174582267Y-68954000D02*
X174289733Y-68954000D01*
X174582267Y-69974000D02*
X174289733Y-69974000D01*
X163258000Y-75794733D02*
X163258000Y-76087267D01*
X164278000Y-75794733D02*
X164278000Y-76087267D01*
X181742000Y-62985000D02*
X181742000Y-66545000D01*
X184402000Y-65525000D02*
X184402000Y-68635000D01*
X184402000Y-68065000D02*
X184402000Y-68635000D01*
X181742000Y-60895000D02*
X181742000Y-61465000D01*
X181742000Y-61465000D02*
X180222000Y-61465000D01*
X184402000Y-60895000D02*
X184402000Y-64005000D01*
X181742000Y-68635000D02*
X184402000Y-68635000D01*
X181742000Y-60895000D02*
X184402000Y-60895000D01*
X175773000Y-62985000D02*
X175773000Y-66545000D01*
X178433000Y-65525000D02*
X178433000Y-68635000D01*
X178433000Y-68065000D02*
X178433000Y-68635000D01*
X175773000Y-60895000D02*
X175773000Y-61465000D01*
X175773000Y-61465000D02*
X174253000Y-61465000D01*
X178433000Y-60895000D02*
X178433000Y-64005000D01*
X175773000Y-68635000D02*
X178433000Y-68635000D01*
X175773000Y-60895000D02*
X178433000Y-60895000D01*
X169590733Y-83436000D02*
X169883267Y-83436000D01*
X169590733Y-82416000D02*
X169883267Y-82416000D01*
X127241000Y-63375000D02*
X117602000Y-63373000D01*
X127231000Y-78875000D02*
X117602000Y-78875000D01*
X138561000Y-63375000D02*
X129561000Y-63375000D01*
X138561000Y-78875000D02*
X138561000Y-63375000D01*
X138561000Y-78875000D02*
X129571000Y-78875000D01*
X117611000Y-63375000D02*
X117611000Y-78875000D01*
X184107267Y-80515000D02*
X183814733Y-80515000D01*
X184107267Y-79495000D02*
X183814733Y-79495000D01*
X178437276Y-70714500D02*
X178946724Y-70714500D01*
X178437276Y-71759500D02*
X178946724Y-71759500D01*
X182120276Y-71632500D02*
X182629724Y-71632500D01*
X182120276Y-70587500D02*
X182629724Y-70587500D01*
X191518276Y-78715500D02*
X192027724Y-78715500D01*
X191518276Y-79760500D02*
X192027724Y-79760500D01*
X191518276Y-71984500D02*
X192027724Y-71984500D01*
X191518276Y-73029500D02*
X192027724Y-73029500D01*
X187706724Y-74690500D02*
X187197276Y-74690500D01*
X187706724Y-73645500D02*
X187197276Y-73645500D01*
X187706724Y-81294500D02*
X187197276Y-81294500D01*
X187706724Y-80249500D02*
X187197276Y-80249500D01*
X178946724Y-70113500D02*
X178437276Y-70113500D01*
X178946724Y-69068500D02*
X178437276Y-69068500D01*
X182629724Y-70113500D02*
X182120276Y-70113500D01*
X182629724Y-69068500D02*
X182120276Y-69068500D01*
X192027724Y-78109500D02*
X191518276Y-78109500D01*
X192027724Y-77064500D02*
X191518276Y-77064500D01*
X192027724Y-76336500D02*
X191518276Y-76336500D01*
X192027724Y-75291500D02*
X191518276Y-75291500D01*
X187197276Y-75296500D02*
X187706724Y-75296500D01*
X187197276Y-76341500D02*
X187706724Y-76341500D01*
X187197276Y-76942500D02*
X187706724Y-76942500D01*
X187197276Y-77987500D02*
X187706724Y-77987500D01*
X178600876Y-80828700D02*
X179110324Y-80828700D01*
X178600876Y-81873700D02*
X179110324Y-81873700D01*
X151322724Y-85607500D02*
X150813276Y-85607500D01*
X151322724Y-84562500D02*
X150813276Y-84562500D01*
X153481724Y-74558500D02*
X152972276Y-74558500D01*
X153481724Y-73513500D02*
X152972276Y-73513500D01*
X156401276Y-76947500D02*
X156910724Y-76947500D01*
X156401276Y-77992500D02*
X156910724Y-77992500D01*
X178076000Y-83596000D02*
X180536000Y-83596000D01*
X180536000Y-83596000D02*
X180536000Y-82126000D01*
X180536000Y-82126000D02*
X178076000Y-82126000D01*
X178838267Y-73398000D02*
X178545733Y-73398000D01*
X178838267Y-72378000D02*
X178545733Y-72378000D01*
X182521267Y-73271000D02*
X182228733Y-73271000D01*
X182521267Y-72251000D02*
X182228733Y-72251000D01*
X191919267Y-81399000D02*
X191626733Y-81399000D01*
X191919267Y-80379000D02*
X191626733Y-80379000D01*
X191919267Y-74668000D02*
X191626733Y-74668000D01*
X191919267Y-73648000D02*
X191626733Y-73648000D01*
X187305733Y-72007000D02*
X187598267Y-72007000D01*
X187305733Y-73027000D02*
X187598267Y-73027000D01*
X187305733Y-78611000D02*
X187598267Y-78611000D01*
X187305733Y-79631000D02*
X187598267Y-79631000D01*
X175789051Y-71746802D02*
X175582198Y-71539949D01*
X175067802Y-72468051D02*
X174860949Y-72261198D01*
X159850267Y-85341000D02*
X159557733Y-85341000D01*
X159850267Y-84321000D02*
X159557733Y-84321000D01*
X151324000Y-57037267D02*
X151324000Y-56744733D01*
X150304000Y-57037267D02*
X150304000Y-56744733D01*
X141926000Y-57418267D02*
X141926000Y-57125733D01*
X140906000Y-57418267D02*
X140906000Y-57125733D01*
X163660267Y-56889000D02*
X163367733Y-56889000D01*
X163660267Y-57909000D02*
X163367733Y-57909000D01*
X187011000Y-67451267D02*
X187011000Y-67158733D01*
X185991000Y-67451267D02*
X185991000Y-67158733D01*
X176206767Y-56508000D02*
X175914233Y-56508000D01*
X176206767Y-57528000D02*
X175914233Y-57528000D01*
X189822267Y-60572000D02*
X189529733Y-60572000D01*
X189822267Y-61592000D02*
X189529733Y-61592000D01*
X146007267Y-85087000D02*
X145714733Y-85087000D01*
X146007267Y-84067000D02*
X145714733Y-84067000D01*
X158750000Y-71227000D02*
X156800000Y-71227000D01*
X158750000Y-71227000D02*
X160700000Y-71227000D01*
X158750000Y-76347000D02*
X156800000Y-76347000D01*
X158750000Y-76347000D02*
X162200000Y-76347000D01*
X154807000Y-69720000D02*
X153877000Y-69720000D01*
X151647000Y-69720000D02*
X152577000Y-69720000D01*
X151647000Y-69720000D02*
X151647000Y-72880000D01*
X154807000Y-69720000D02*
X154807000Y-71180000D01*
%LPC*%
D13*
X128436400Y-85794000D03*
X128423320Y-55143340D03*
G36*
G01*
X160609500Y-65778000D02*
X161084500Y-65778000D01*
G75*
G02*
X161322000Y-66015500I0J-237500D01*
G01*
X161322000Y-66515500D01*
G75*
G02*
X161084500Y-66753000I-237500J0D01*
G01*
X160609500Y-66753000D01*
G75*
G02*
X160372000Y-66515500I0J237500D01*
G01*
X160372000Y-66015500D01*
G75*
G02*
X160609500Y-65778000I237500J0D01*
G01*
G37*
G36*
G01*
X160609500Y-67603000D02*
X161084500Y-67603000D01*
G75*
G02*
X161322000Y-67840500I0J-237500D01*
G01*
X161322000Y-68340500D01*
G75*
G02*
X161084500Y-68578000I-237500J0D01*
G01*
X160609500Y-68578000D01*
G75*
G02*
X160372000Y-68340500I0J237500D01*
G01*
X160372000Y-67840500D01*
G75*
G02*
X160609500Y-67603000I237500J0D01*
G01*
G37*
D14*
X160470000Y-64003000D03*
X157160000Y-61463000D03*
G36*
G01*
X164105000Y-71766500D02*
X164105000Y-72241500D01*
G75*
G02*
X163867500Y-72479000I-237500J0D01*
G01*
X163367500Y-72479000D01*
G75*
G02*
X163130000Y-72241500I0J237500D01*
G01*
X163130000Y-71766500D01*
G75*
G02*
X163367500Y-71529000I237500J0D01*
G01*
X163867500Y-71529000D01*
G75*
G02*
X164105000Y-71766500I0J-237500D01*
G01*
G37*
G36*
G01*
X165930000Y-71766500D02*
X165930000Y-72241500D01*
G75*
G02*
X165692500Y-72479000I-237500J0D01*
G01*
X165192500Y-72479000D01*
G75*
G02*
X164955000Y-72241500I0J237500D01*
G01*
X164955000Y-71766500D01*
G75*
G02*
X165192500Y-71529000I237500J0D01*
G01*
X165692500Y-71529000D01*
G75*
G02*
X165930000Y-71766500I0J-237500D01*
G01*
G37*
G36*
G01*
X163216000Y-64527500D02*
X163216000Y-65002500D01*
G75*
G02*
X162978500Y-65240000I-237500J0D01*
G01*
X162478500Y-65240000D01*
G75*
G02*
X162241000Y-65002500I0J237500D01*
G01*
X162241000Y-64527500D01*
G75*
G02*
X162478500Y-64290000I237500J0D01*
G01*
X162978500Y-64290000D01*
G75*
G02*
X163216000Y-64527500I0J-237500D01*
G01*
G37*
G36*
G01*
X165041000Y-64527500D02*
X165041000Y-65002500D01*
G75*
G02*
X164803500Y-65240000I-237500J0D01*
G01*
X164303500Y-65240000D01*
G75*
G02*
X164066000Y-65002500I0J237500D01*
G01*
X164066000Y-64527500D01*
G75*
G02*
X164303500Y-64290000I237500J0D01*
G01*
X164803500Y-64290000D01*
G75*
G02*
X165041000Y-64527500I0J-237500D01*
G01*
G37*
D15*
X163514000Y-66821000D03*
X164464000Y-69821000D03*
X162564000Y-69821000D03*
D13*
X188012920Y-55119980D03*
G36*
G01*
X180521000Y-58399998D02*
X180521000Y-59700002D01*
G75*
G02*
X180271002Y-59950000I-249998J0D01*
G01*
X179445998Y-59950000D01*
G75*
G02*
X179196000Y-59700002I0J249998D01*
G01*
X179196000Y-58399998D01*
G75*
G02*
X179445998Y-58150000I249998J0D01*
G01*
X180271002Y-58150000D01*
G75*
G02*
X180521000Y-58399998I0J-249998D01*
G01*
G37*
G36*
G01*
X183646000Y-58399998D02*
X183646000Y-59700002D01*
G75*
G02*
X183396002Y-59950000I-249998J0D01*
G01*
X182570998Y-59950000D01*
G75*
G02*
X182321000Y-59700002I0J249998D01*
G01*
X182321000Y-58399998D01*
G75*
G02*
X182570998Y-58150000I249998J0D01*
G01*
X183396002Y-58150000D01*
G75*
G02*
X183646000Y-58399998I0J-249998D01*
G01*
G37*
G36*
G01*
X167212002Y-66532000D02*
X165911998Y-66532000D01*
G75*
G02*
X165662000Y-66282002I0J249998D01*
G01*
X165662000Y-65456998D01*
G75*
G02*
X165911998Y-65207000I249998J0D01*
G01*
X167212002Y-65207000D01*
G75*
G02*
X167462000Y-65456998I0J-249998D01*
G01*
X167462000Y-66282002D01*
G75*
G02*
X167212002Y-66532000I-249998J0D01*
G01*
G37*
G36*
G01*
X167212002Y-69657000D02*
X165911998Y-69657000D01*
G75*
G02*
X165662000Y-69407002I0J249998D01*
G01*
X165662000Y-68581998D01*
G75*
G02*
X165911998Y-68332000I249998J0D01*
G01*
X167212002Y-68332000D01*
G75*
G02*
X167462000Y-68581998I0J-249998D01*
G01*
X167462000Y-69407002D01*
G75*
G02*
X167212002Y-69657000I-249998J0D01*
G01*
G37*
G36*
G01*
X169625002Y-66532000D02*
X168324998Y-66532000D01*
G75*
G02*
X168075000Y-66282002I0J249998D01*
G01*
X168075000Y-65456998D01*
G75*
G02*
X168324998Y-65207000I249998J0D01*
G01*
X169625002Y-65207000D01*
G75*
G02*
X169875000Y-65456998I0J-249998D01*
G01*
X169875000Y-66282002D01*
G75*
G02*
X169625002Y-66532000I-249998J0D01*
G01*
G37*
G36*
G01*
X169625002Y-69657000D02*
X168324998Y-69657000D01*
G75*
G02*
X168075000Y-69407002I0J249998D01*
G01*
X168075000Y-68581998D01*
G75*
G02*
X168324998Y-68332000I249998J0D01*
G01*
X169625002Y-68332000D01*
G75*
G02*
X169875000Y-68581998I0J-249998D01*
G01*
X169875000Y-69407002D01*
G75*
G02*
X169625002Y-69657000I-249998J0D01*
G01*
G37*
G36*
G01*
X182502200Y-81361598D02*
X182502200Y-82661602D01*
G75*
G02*
X182252202Y-82911600I-249998J0D01*
G01*
X181427198Y-82911600D01*
G75*
G02*
X181177200Y-82661602I0J249998D01*
G01*
X181177200Y-81361598D01*
G75*
G02*
X181427198Y-81111600I249998J0D01*
G01*
X182252202Y-81111600D01*
G75*
G02*
X182502200Y-81361598I0J-249998D01*
G01*
G37*
G36*
G01*
X185627200Y-81361598D02*
X185627200Y-82661602D01*
G75*
G02*
X185377202Y-82911600I-249998J0D01*
G01*
X184552198Y-82911600D01*
G75*
G02*
X184302200Y-82661602I0J249998D01*
G01*
X184302200Y-81361598D01*
G75*
G02*
X184552198Y-81111600I249998J0D01*
G01*
X185377202Y-81111600D01*
G75*
G02*
X185627200Y-81361598I0J-249998D01*
G01*
G37*
G36*
G01*
X170864998Y-68459000D02*
X172165002Y-68459000D01*
G75*
G02*
X172415000Y-68708998I0J-249998D01*
G01*
X172415000Y-69534002D01*
G75*
G02*
X172165002Y-69784000I-249998J0D01*
G01*
X170864998Y-69784000D01*
G75*
G02*
X170615000Y-69534002I0J249998D01*
G01*
X170615000Y-68708998D01*
G75*
G02*
X170864998Y-68459000I249998J0D01*
G01*
G37*
G36*
G01*
X170864998Y-65334000D02*
X172165002Y-65334000D01*
G75*
G02*
X172415000Y-65583998I0J-249998D01*
G01*
X172415000Y-66409002D01*
G75*
G02*
X172165002Y-66659000I-249998J0D01*
G01*
X170864998Y-66659000D01*
G75*
G02*
X170615000Y-66409002I0J249998D01*
G01*
X170615000Y-65583998D01*
G75*
G02*
X170864998Y-65334000I249998J0D01*
G01*
G37*
G36*
G01*
X152703998Y-63760000D02*
X154004002Y-63760000D01*
G75*
G02*
X154254000Y-64009998I0J-249998D01*
G01*
X154254000Y-64835002D01*
G75*
G02*
X154004002Y-65085000I-249998J0D01*
G01*
X152703998Y-65085000D01*
G75*
G02*
X152454000Y-64835002I0J249998D01*
G01*
X152454000Y-64009998D01*
G75*
G02*
X152703998Y-63760000I249998J0D01*
G01*
G37*
G36*
G01*
X152703998Y-60635000D02*
X154004002Y-60635000D01*
G75*
G02*
X154254000Y-60884998I0J-249998D01*
G01*
X154254000Y-61710002D01*
G75*
G02*
X154004002Y-61960000I-249998J0D01*
G01*
X152703998Y-61960000D01*
G75*
G02*
X152454000Y-61710002I0J249998D01*
G01*
X152454000Y-60884998D01*
G75*
G02*
X152703998Y-60635000I249998J0D01*
G01*
G37*
G36*
G01*
X154004002Y-56753000D02*
X152703998Y-56753000D01*
G75*
G02*
X152454000Y-56503002I0J249998D01*
G01*
X152454000Y-55677998D01*
G75*
G02*
X152703998Y-55428000I249998J0D01*
G01*
X154004002Y-55428000D01*
G75*
G02*
X154254000Y-55677998I0J-249998D01*
G01*
X154254000Y-56503002D01*
G75*
G02*
X154004002Y-56753000I-249998J0D01*
G01*
G37*
G36*
G01*
X154004002Y-59878000D02*
X152703998Y-59878000D01*
G75*
G02*
X152454000Y-59628002I0J249998D01*
G01*
X152454000Y-58802998D01*
G75*
G02*
X152703998Y-58553000I249998J0D01*
G01*
X154004002Y-58553000D01*
G75*
G02*
X154254000Y-58802998I0J-249998D01*
G01*
X154254000Y-59628002D01*
G75*
G02*
X154004002Y-59878000I-249998J0D01*
G01*
G37*
G36*
G01*
X162614000Y-58780998D02*
X162614000Y-60081002D01*
G75*
G02*
X162364002Y-60331000I-249998J0D01*
G01*
X161538998Y-60331000D01*
G75*
G02*
X161289000Y-60081002I0J249998D01*
G01*
X161289000Y-58780998D01*
G75*
G02*
X161538998Y-58531000I249998J0D01*
G01*
X162364002Y-58531000D01*
G75*
G02*
X162614000Y-58780998I0J-249998D01*
G01*
G37*
G36*
G01*
X165739000Y-58780998D02*
X165739000Y-60081002D01*
G75*
G02*
X165489002Y-60331000I-249998J0D01*
G01*
X164663998Y-60331000D01*
G75*
G02*
X164414000Y-60081002I0J249998D01*
G01*
X164414000Y-58780998D01*
G75*
G02*
X164663998Y-58531000I249998J0D01*
G01*
X165489002Y-58531000D01*
G75*
G02*
X165739000Y-58780998I0J-249998D01*
G01*
G37*
G36*
G01*
X175187000Y-58399998D02*
X175187000Y-59700002D01*
G75*
G02*
X174937002Y-59950000I-249998J0D01*
G01*
X174111998Y-59950000D01*
G75*
G02*
X173862000Y-59700002I0J249998D01*
G01*
X173862000Y-58399998D01*
G75*
G02*
X174111998Y-58150000I249998J0D01*
G01*
X174937002Y-58150000D01*
G75*
G02*
X175187000Y-58399998I0J-249998D01*
G01*
G37*
G36*
G01*
X178312000Y-58399998D02*
X178312000Y-59700002D01*
G75*
G02*
X178062002Y-59950000I-249998J0D01*
G01*
X177236998Y-59950000D01*
G75*
G02*
X176987000Y-59700002I0J249998D01*
G01*
X176987000Y-58399998D01*
G75*
G02*
X177236998Y-58150000I249998J0D01*
G01*
X178062002Y-58150000D01*
G75*
G02*
X178312000Y-58399998I0J-249998D01*
G01*
G37*
G36*
G01*
X189538000Y-62590998D02*
X189538000Y-63891002D01*
G75*
G02*
X189288002Y-64141000I-249998J0D01*
G01*
X188462998Y-64141000D01*
G75*
G02*
X188213000Y-63891002I0J249998D01*
G01*
X188213000Y-62590998D01*
G75*
G02*
X188462998Y-62341000I249998J0D01*
G01*
X189288002Y-62341000D01*
G75*
G02*
X189538000Y-62590998I0J-249998D01*
G01*
G37*
G36*
G01*
X192663000Y-62590998D02*
X192663000Y-63891002D01*
G75*
G02*
X192413002Y-64141000I-249998J0D01*
G01*
X191587998Y-64141000D01*
G75*
G02*
X191338000Y-63891002I0J249998D01*
G01*
X191338000Y-62590998D01*
G75*
G02*
X191587998Y-62341000I249998J0D01*
G01*
X192413002Y-62341000D01*
G75*
G02*
X192663000Y-62590998I0J-249998D01*
G01*
G37*
G36*
G01*
X180521000Y-55859998D02*
X180521000Y-57160002D01*
G75*
G02*
X180271002Y-57410000I-249998J0D01*
G01*
X179445998Y-57410000D01*
G75*
G02*
X179196000Y-57160002I0J249998D01*
G01*
X179196000Y-55859998D01*
G75*
G02*
X179445998Y-55610000I249998J0D01*
G01*
X180271002Y-55610000D01*
G75*
G02*
X180521000Y-55859998I0J-249998D01*
G01*
G37*
G36*
G01*
X183646000Y-55859998D02*
X183646000Y-57160002D01*
G75*
G02*
X183396002Y-57410000I-249998J0D01*
G01*
X182570998Y-57410000D01*
G75*
G02*
X182321000Y-57160002I0J249998D01*
G01*
X182321000Y-55859998D01*
G75*
G02*
X182570998Y-55610000I249998J0D01*
G01*
X183396002Y-55610000D01*
G75*
G02*
X183646000Y-55859998I0J-249998D01*
G01*
G37*
D10*
G36*
X189063500Y-69478000D02*
G01*
X189063500Y-66353000D01*
X189480000Y-66353000D01*
X189480000Y-64878000D01*
X190380000Y-64878000D01*
X190380000Y-66353000D01*
X190796500Y-66353000D01*
X190796500Y-69478000D01*
X189063500Y-69478000D01*
G37*
D16*
X188430000Y-65528000D03*
X191430000Y-65528000D03*
D17*
X143321000Y-83819000D03*
X148401000Y-83819000D03*
X153481000Y-83819000D03*
X145861000Y-80509000D03*
X150941000Y-80509000D03*
D18*
X162114000Y-61971000D03*
X164914000Y-61971000D03*
G36*
G01*
X134761000Y-59250999D02*
X134761000Y-62151001D01*
G75*
G02*
X134511001Y-62401000I-249999J0D01*
G01*
X133710999Y-62401000D01*
G75*
G02*
X133461000Y-62151001I0J249999D01*
G01*
X133461000Y-59250999D01*
G75*
G02*
X133710999Y-59001000I249999J0D01*
G01*
X134511001Y-59001000D01*
G75*
G02*
X134761000Y-59250999I0J-249999D01*
G01*
G37*
G36*
G01*
X139211000Y-59250999D02*
X139211000Y-62151001D01*
G75*
G02*
X138961001Y-62401000I-249999J0D01*
G01*
X138160999Y-62401000D01*
G75*
G02*
X137911000Y-62151001I0J249999D01*
G01*
X137911000Y-59250999D01*
G75*
G02*
X138160999Y-59001000I249999J0D01*
G01*
X138961001Y-59001000D01*
G75*
G02*
X139211000Y-59250999I0J-249999D01*
G01*
G37*
D13*
X188025000Y-85769980D03*
G36*
G01*
X180429000Y-78204000D02*
X180429000Y-78504000D01*
G75*
G02*
X180279000Y-78654000I-150000J0D01*
G01*
X178629000Y-78654000D01*
G75*
G02*
X178479000Y-78504000I0J150000D01*
G01*
X178479000Y-78204000D01*
G75*
G02*
X178629000Y-78054000I150000J0D01*
G01*
X180279000Y-78054000D01*
G75*
G02*
X180429000Y-78204000I0J-150000D01*
G01*
G37*
G36*
G01*
X180429000Y-76934000D02*
X180429000Y-77234000D01*
G75*
G02*
X180279000Y-77384000I-150000J0D01*
G01*
X178629000Y-77384000D01*
G75*
G02*
X178479000Y-77234000I0J150000D01*
G01*
X178479000Y-76934000D01*
G75*
G02*
X178629000Y-76784000I150000J0D01*
G01*
X180279000Y-76784000D01*
G75*
G02*
X180429000Y-76934000I0J-150000D01*
G01*
G37*
G36*
G01*
X180429000Y-75664000D02*
X180429000Y-75964000D01*
G75*
G02*
X180279000Y-76114000I-150000J0D01*
G01*
X178629000Y-76114000D01*
G75*
G02*
X178479000Y-75964000I0J150000D01*
G01*
X178479000Y-75664000D01*
G75*
G02*
X178629000Y-75514000I150000J0D01*
G01*
X180279000Y-75514000D01*
G75*
G02*
X180429000Y-75664000I0J-150000D01*
G01*
G37*
G36*
G01*
X180429000Y-74394000D02*
X180429000Y-74694000D01*
G75*
G02*
X180279000Y-74844000I-150000J0D01*
G01*
X178629000Y-74844000D01*
G75*
G02*
X178479000Y-74694000I0J150000D01*
G01*
X178479000Y-74394000D01*
G75*
G02*
X178629000Y-74244000I150000J0D01*
G01*
X180279000Y-74244000D01*
G75*
G02*
X180429000Y-74394000I0J-150000D01*
G01*
G37*
G36*
G01*
X185379000Y-74394000D02*
X185379000Y-74694000D01*
G75*
G02*
X185229000Y-74844000I-150000J0D01*
G01*
X183579000Y-74844000D01*
G75*
G02*
X183429000Y-74694000I0J150000D01*
G01*
X183429000Y-74394000D01*
G75*
G02*
X183579000Y-74244000I150000J0D01*
G01*
X185229000Y-74244000D01*
G75*
G02*
X185379000Y-74394000I0J-150000D01*
G01*
G37*
G36*
G01*
X185379000Y-75664000D02*
X185379000Y-75964000D01*
G75*
G02*
X185229000Y-76114000I-150000J0D01*
G01*
X183579000Y-76114000D01*
G75*
G02*
X183429000Y-75964000I0J150000D01*
G01*
X183429000Y-75664000D01*
G75*
G02*
X183579000Y-75514000I150000J0D01*
G01*
X185229000Y-75514000D01*
G75*
G02*
X185379000Y-75664000I0J-150000D01*
G01*
G37*
G36*
G01*
X185379000Y-76934000D02*
X185379000Y-77234000D01*
G75*
G02*
X185229000Y-77384000I-150000J0D01*
G01*
X183579000Y-77384000D01*
G75*
G02*
X183429000Y-77234000I0J150000D01*
G01*
X183429000Y-76934000D01*
G75*
G02*
X183579000Y-76784000I150000J0D01*
G01*
X185229000Y-76784000D01*
G75*
G02*
X185379000Y-76934000I0J-150000D01*
G01*
G37*
G36*
G01*
X185379000Y-78204000D02*
X185379000Y-78504000D01*
G75*
G02*
X185229000Y-78654000I-150000J0D01*
G01*
X183579000Y-78654000D01*
G75*
G02*
X183429000Y-78504000I0J150000D01*
G01*
X183429000Y-78204000D01*
G75*
G02*
X183579000Y-78054000I150000J0D01*
G01*
X185229000Y-78054000D01*
G75*
G02*
X185379000Y-78204000I0J-150000D01*
G01*
G37*
G36*
G01*
X175097000Y-82623500D02*
X175097000Y-83098500D01*
G75*
G02*
X174859500Y-83336000I-237500J0D01*
G01*
X174284500Y-83336000D01*
G75*
G02*
X174047000Y-83098500I0J237500D01*
G01*
X174047000Y-82623500D01*
G75*
G02*
X174284500Y-82386000I237500J0D01*
G01*
X174859500Y-82386000D01*
G75*
G02*
X175097000Y-82623500I0J-237500D01*
G01*
G37*
G36*
G01*
X176847000Y-82623500D02*
X176847000Y-83098500D01*
G75*
G02*
X176609500Y-83336000I-237500J0D01*
G01*
X176034500Y-83336000D01*
G75*
G02*
X175797000Y-83098500I0J237500D01*
G01*
X175797000Y-82623500D01*
G75*
G02*
X176034500Y-82386000I237500J0D01*
G01*
X176609500Y-82386000D01*
G75*
G02*
X176847000Y-82623500I0J-237500D01*
G01*
G37*
G36*
G01*
X175872000Y-81588700D02*
X175872000Y-81113700D01*
G75*
G02*
X176109500Y-80876200I237500J0D01*
G01*
X176609500Y-80876200D01*
G75*
G02*
X176847000Y-81113700I0J-237500D01*
G01*
X176847000Y-81588700D01*
G75*
G02*
X176609500Y-81826200I-237500J0D01*
G01*
X176109500Y-81826200D01*
G75*
G02*
X175872000Y-81588700I0J237500D01*
G01*
G37*
G36*
G01*
X174047000Y-81588700D02*
X174047000Y-81113700D01*
G75*
G02*
X174284500Y-80876200I237500J0D01*
G01*
X174784500Y-80876200D01*
G75*
G02*
X175022000Y-81113700I0J-237500D01*
G01*
X175022000Y-81588700D01*
G75*
G02*
X174784500Y-81826200I-237500J0D01*
G01*
X174284500Y-81826200D01*
G75*
G02*
X174047000Y-81588700I0J237500D01*
G01*
G37*
G36*
G01*
X170074736Y-80466484D02*
X169137820Y-81403400D01*
G75*
G02*
X169031754Y-81403400I-53033J53033D01*
G01*
X168925688Y-81297334D01*
G75*
G02*
X168925688Y-81191268I53033J53033D01*
G01*
X169862604Y-80254352D01*
G75*
G02*
X169968670Y-80254352I53033J-53033D01*
G01*
X170074736Y-80360418D01*
G75*
G02*
X170074736Y-80466484I-53033J-53033D01*
G01*
G37*
G36*
G01*
X169721182Y-80112930D02*
X168784266Y-81049846D01*
G75*
G02*
X168678200Y-81049846I-53033J53033D01*
G01*
X168572134Y-80943780D01*
G75*
G02*
X168572134Y-80837714I53033J53033D01*
G01*
X169509050Y-79900798D01*
G75*
G02*
X169615116Y-79900798I53033J-53033D01*
G01*
X169721182Y-80006864D01*
G75*
G02*
X169721182Y-80112930I-53033J-53033D01*
G01*
G37*
G36*
G01*
X169367629Y-79759377D02*
X168430713Y-80696293D01*
G75*
G02*
X168324647Y-80696293I-53033J53033D01*
G01*
X168218581Y-80590227D01*
G75*
G02*
X168218581Y-80484161I53033J53033D01*
G01*
X169155497Y-79547245D01*
G75*
G02*
X169261563Y-79547245I53033J-53033D01*
G01*
X169367629Y-79653311D01*
G75*
G02*
X169367629Y-79759377I-53033J-53033D01*
G01*
G37*
G36*
G01*
X169014075Y-79405823D02*
X168077159Y-80342739D01*
G75*
G02*
X167971093Y-80342739I-53033J53033D01*
G01*
X167865027Y-80236673D01*
G75*
G02*
X167865027Y-80130607I53033J53033D01*
G01*
X168801943Y-79193691D01*
G75*
G02*
X168908009Y-79193691I53033J-53033D01*
G01*
X169014075Y-79299757D01*
G75*
G02*
X169014075Y-79405823I-53033J-53033D01*
G01*
G37*
G36*
G01*
X168660522Y-79052270D02*
X167723606Y-79989186D01*
G75*
G02*
X167617540Y-79989186I-53033J53033D01*
G01*
X167511474Y-79883120D01*
G75*
G02*
X167511474Y-79777054I53033J53033D01*
G01*
X168448390Y-78840138D01*
G75*
G02*
X168554456Y-78840138I53033J-53033D01*
G01*
X168660522Y-78946204D01*
G75*
G02*
X168660522Y-79052270I-53033J-53033D01*
G01*
G37*
G36*
G01*
X168306969Y-78698717D02*
X167370053Y-79635633D01*
G75*
G02*
X167263987Y-79635633I-53033J53033D01*
G01*
X167157921Y-79529567D01*
G75*
G02*
X167157921Y-79423501I53033J53033D01*
G01*
X168094837Y-78486585D01*
G75*
G02*
X168200903Y-78486585I53033J-53033D01*
G01*
X168306969Y-78592651D01*
G75*
G02*
X168306969Y-78698717I-53033J-53033D01*
G01*
G37*
G36*
G01*
X167953415Y-78345163D02*
X167016499Y-79282079D01*
G75*
G02*
X166910433Y-79282079I-53033J53033D01*
G01*
X166804367Y-79176013D01*
G75*
G02*
X166804367Y-79069947I53033J53033D01*
G01*
X167741283Y-78133031D01*
G75*
G02*
X167847349Y-78133031I53033J-53033D01*
G01*
X167953415Y-78239097D01*
G75*
G02*
X167953415Y-78345163I-53033J-53033D01*
G01*
G37*
G36*
G01*
X167599862Y-77991610D02*
X166662946Y-78928526D01*
G75*
G02*
X166556880Y-78928526I-53033J53033D01*
G01*
X166450814Y-78822460D01*
G75*
G02*
X166450814Y-78716394I53033J53033D01*
G01*
X167387730Y-77779478D01*
G75*
G02*
X167493796Y-77779478I53033J-53033D01*
G01*
X167599862Y-77885544D01*
G75*
G02*
X167599862Y-77991610I-53033J-53033D01*
G01*
G37*
G36*
G01*
X167246309Y-77638057D02*
X166309393Y-78574973D01*
G75*
G02*
X166203327Y-78574973I-53033J53033D01*
G01*
X166097261Y-78468907D01*
G75*
G02*
X166097261Y-78362841I53033J53033D01*
G01*
X167034177Y-77425925D01*
G75*
G02*
X167140243Y-77425925I53033J-53033D01*
G01*
X167246309Y-77531991D01*
G75*
G02*
X167246309Y-77638057I-53033J-53033D01*
G01*
G37*
G36*
G01*
X166892755Y-77284503D02*
X165955839Y-78221419D01*
G75*
G02*
X165849773Y-78221419I-53033J53033D01*
G01*
X165743707Y-78115353D01*
G75*
G02*
X165743707Y-78009287I53033J53033D01*
G01*
X166680623Y-77072371D01*
G75*
G02*
X166786689Y-77072371I53033J-53033D01*
G01*
X166892755Y-77178437D01*
G75*
G02*
X166892755Y-77284503I-53033J-53033D01*
G01*
G37*
G36*
G01*
X166539202Y-76930950D02*
X165602286Y-77867866D01*
G75*
G02*
X165496220Y-77867866I-53033J53033D01*
G01*
X165390154Y-77761800D01*
G75*
G02*
X165390154Y-77655734I53033J53033D01*
G01*
X166327070Y-76718818D01*
G75*
G02*
X166433136Y-76718818I53033J-53033D01*
G01*
X166539202Y-76824884D01*
G75*
G02*
X166539202Y-76930950I-53033J-53033D01*
G01*
G37*
G36*
G01*
X166185648Y-76577396D02*
X165248732Y-77514312D01*
G75*
G02*
X165142666Y-77514312I-53033J53033D01*
G01*
X165036600Y-77408246D01*
G75*
G02*
X165036600Y-77302180I53033J53033D01*
G01*
X165973516Y-76365264D01*
G75*
G02*
X166079582Y-76365264I53033J-53033D01*
G01*
X166185648Y-76471330D01*
G75*
G02*
X166185648Y-76577396I-53033J-53033D01*
G01*
G37*
G36*
G01*
X166185648Y-75410670D02*
X166079582Y-75516736D01*
G75*
G02*
X165973516Y-75516736I-53033J53033D01*
G01*
X165036600Y-74579820D01*
G75*
G02*
X165036600Y-74473754I53033J53033D01*
G01*
X165142666Y-74367688D01*
G75*
G02*
X165248732Y-74367688I53033J-53033D01*
G01*
X166185648Y-75304604D01*
G75*
G02*
X166185648Y-75410670I-53033J-53033D01*
G01*
G37*
G36*
G01*
X166539202Y-75057116D02*
X166433136Y-75163182D01*
G75*
G02*
X166327070Y-75163182I-53033J53033D01*
G01*
X165390154Y-74226266D01*
G75*
G02*
X165390154Y-74120200I53033J53033D01*
G01*
X165496220Y-74014134D01*
G75*
G02*
X165602286Y-74014134I53033J-53033D01*
G01*
X166539202Y-74951050D01*
G75*
G02*
X166539202Y-75057116I-53033J-53033D01*
G01*
G37*
G36*
G01*
X166892755Y-74703563D02*
X166786689Y-74809629D01*
G75*
G02*
X166680623Y-74809629I-53033J53033D01*
G01*
X165743707Y-73872713D01*
G75*
G02*
X165743707Y-73766647I53033J53033D01*
G01*
X165849773Y-73660581D01*
G75*
G02*
X165955839Y-73660581I53033J-53033D01*
G01*
X166892755Y-74597497D01*
G75*
G02*
X166892755Y-74703563I-53033J-53033D01*
G01*
G37*
G36*
G01*
X167246309Y-74350009D02*
X167140243Y-74456075D01*
G75*
G02*
X167034177Y-74456075I-53033J53033D01*
G01*
X166097261Y-73519159D01*
G75*
G02*
X166097261Y-73413093I53033J53033D01*
G01*
X166203327Y-73307027D01*
G75*
G02*
X166309393Y-73307027I53033J-53033D01*
G01*
X167246309Y-74243943D01*
G75*
G02*
X167246309Y-74350009I-53033J-53033D01*
G01*
G37*
G36*
G01*
X167599862Y-73996456D02*
X167493796Y-74102522D01*
G75*
G02*
X167387730Y-74102522I-53033J53033D01*
G01*
X166450814Y-73165606D01*
G75*
G02*
X166450814Y-73059540I53033J53033D01*
G01*
X166556880Y-72953474D01*
G75*
G02*
X166662946Y-72953474I53033J-53033D01*
G01*
X167599862Y-73890390D01*
G75*
G02*
X167599862Y-73996456I-53033J-53033D01*
G01*
G37*
G36*
G01*
X167953415Y-73642903D02*
X167847349Y-73748969D01*
G75*
G02*
X167741283Y-73748969I-53033J53033D01*
G01*
X166804367Y-72812053D01*
G75*
G02*
X166804367Y-72705987I53033J53033D01*
G01*
X166910433Y-72599921D01*
G75*
G02*
X167016499Y-72599921I53033J-53033D01*
G01*
X167953415Y-73536837D01*
G75*
G02*
X167953415Y-73642903I-53033J-53033D01*
G01*
G37*
G36*
G01*
X168306969Y-73289349D02*
X168200903Y-73395415D01*
G75*
G02*
X168094837Y-73395415I-53033J53033D01*
G01*
X167157921Y-72458499D01*
G75*
G02*
X167157921Y-72352433I53033J53033D01*
G01*
X167263987Y-72246367D01*
G75*
G02*
X167370053Y-72246367I53033J-53033D01*
G01*
X168306969Y-73183283D01*
G75*
G02*
X168306969Y-73289349I-53033J-53033D01*
G01*
G37*
G36*
G01*
X168660522Y-72935796D02*
X168554456Y-73041862D01*
G75*
G02*
X168448390Y-73041862I-53033J53033D01*
G01*
X167511474Y-72104946D01*
G75*
G02*
X167511474Y-71998880I53033J53033D01*
G01*
X167617540Y-71892814D01*
G75*
G02*
X167723606Y-71892814I53033J-53033D01*
G01*
X168660522Y-72829730D01*
G75*
G02*
X168660522Y-72935796I-53033J-53033D01*
G01*
G37*
G36*
G01*
X169014075Y-72582243D02*
X168908009Y-72688309D01*
G75*
G02*
X168801943Y-72688309I-53033J53033D01*
G01*
X167865027Y-71751393D01*
G75*
G02*
X167865027Y-71645327I53033J53033D01*
G01*
X167971093Y-71539261D01*
G75*
G02*
X168077159Y-71539261I53033J-53033D01*
G01*
X169014075Y-72476177D01*
G75*
G02*
X169014075Y-72582243I-53033J-53033D01*
G01*
G37*
G36*
G01*
X169367629Y-72228689D02*
X169261563Y-72334755D01*
G75*
G02*
X169155497Y-72334755I-53033J53033D01*
G01*
X168218581Y-71397839D01*
G75*
G02*
X168218581Y-71291773I53033J53033D01*
G01*
X168324647Y-71185707D01*
G75*
G02*
X168430713Y-71185707I53033J-53033D01*
G01*
X169367629Y-72122623D01*
G75*
G02*
X169367629Y-72228689I-53033J-53033D01*
G01*
G37*
G36*
G01*
X169721182Y-71875136D02*
X169615116Y-71981202D01*
G75*
G02*
X169509050Y-71981202I-53033J53033D01*
G01*
X168572134Y-71044286D01*
G75*
G02*
X168572134Y-70938220I53033J53033D01*
G01*
X168678200Y-70832154D01*
G75*
G02*
X168784266Y-70832154I53033J-53033D01*
G01*
X169721182Y-71769070D01*
G75*
G02*
X169721182Y-71875136I-53033J-53033D01*
G01*
G37*
G36*
G01*
X170074736Y-71521582D02*
X169968670Y-71627648D01*
G75*
G02*
X169862604Y-71627648I-53033J53033D01*
G01*
X168925688Y-70690732D01*
G75*
G02*
X168925688Y-70584666I53033J53033D01*
G01*
X169031754Y-70478600D01*
G75*
G02*
X169137820Y-70478600I53033J-53033D01*
G01*
X170074736Y-71415516D01*
G75*
G02*
X170074736Y-71521582I-53033J-53033D01*
G01*
G37*
G36*
G01*
X172072312Y-70690732D02*
X171135396Y-71627648D01*
G75*
G02*
X171029330Y-71627648I-53033J53033D01*
G01*
X170923264Y-71521582D01*
G75*
G02*
X170923264Y-71415516I53033J53033D01*
G01*
X171860180Y-70478600D01*
G75*
G02*
X171966246Y-70478600I53033J-53033D01*
G01*
X172072312Y-70584666D01*
G75*
G02*
X172072312Y-70690732I-53033J-53033D01*
G01*
G37*
G36*
G01*
X172425866Y-71044286D02*
X171488950Y-71981202D01*
G75*
G02*
X171382884Y-71981202I-53033J53033D01*
G01*
X171276818Y-71875136D01*
G75*
G02*
X171276818Y-71769070I53033J53033D01*
G01*
X172213734Y-70832154D01*
G75*
G02*
X172319800Y-70832154I53033J-53033D01*
G01*
X172425866Y-70938220D01*
G75*
G02*
X172425866Y-71044286I-53033J-53033D01*
G01*
G37*
G36*
G01*
X172779419Y-71397839D02*
X171842503Y-72334755D01*
G75*
G02*
X171736437Y-72334755I-53033J53033D01*
G01*
X171630371Y-72228689D01*
G75*
G02*
X171630371Y-72122623I53033J53033D01*
G01*
X172567287Y-71185707D01*
G75*
G02*
X172673353Y-71185707I53033J-53033D01*
G01*
X172779419Y-71291773D01*
G75*
G02*
X172779419Y-71397839I-53033J-53033D01*
G01*
G37*
G36*
G01*
X173132973Y-71751393D02*
X172196057Y-72688309D01*
G75*
G02*
X172089991Y-72688309I-53033J53033D01*
G01*
X171983925Y-72582243D01*
G75*
G02*
X171983925Y-72476177I53033J53033D01*
G01*
X172920841Y-71539261D01*
G75*
G02*
X173026907Y-71539261I53033J-53033D01*
G01*
X173132973Y-71645327D01*
G75*
G02*
X173132973Y-71751393I-53033J-53033D01*
G01*
G37*
G36*
G01*
X173486526Y-72104946D02*
X172549610Y-73041862D01*
G75*
G02*
X172443544Y-73041862I-53033J53033D01*
G01*
X172337478Y-72935796D01*
G75*
G02*
X172337478Y-72829730I53033J53033D01*
G01*
X173274394Y-71892814D01*
G75*
G02*
X173380460Y-71892814I53033J-53033D01*
G01*
X173486526Y-71998880D01*
G75*
G02*
X173486526Y-72104946I-53033J-53033D01*
G01*
G37*
G36*
G01*
X173840079Y-72458499D02*
X172903163Y-73395415D01*
G75*
G02*
X172797097Y-73395415I-53033J53033D01*
G01*
X172691031Y-73289349D01*
G75*
G02*
X172691031Y-73183283I53033J53033D01*
G01*
X173627947Y-72246367D01*
G75*
G02*
X173734013Y-72246367I53033J-53033D01*
G01*
X173840079Y-72352433D01*
G75*
G02*
X173840079Y-72458499I-53033J-53033D01*
G01*
G37*
G36*
G01*
X174193633Y-72812053D02*
X173256717Y-73748969D01*
G75*
G02*
X173150651Y-73748969I-53033J53033D01*
G01*
X173044585Y-73642903D01*
G75*
G02*
X173044585Y-73536837I53033J53033D01*
G01*
X173981501Y-72599921D01*
G75*
G02*
X174087567Y-72599921I53033J-53033D01*
G01*
X174193633Y-72705987D01*
G75*
G02*
X174193633Y-72812053I-53033J-53033D01*
G01*
G37*
G36*
G01*
X174547186Y-73165606D02*
X173610270Y-74102522D01*
G75*
G02*
X173504204Y-74102522I-53033J53033D01*
G01*
X173398138Y-73996456D01*
G75*
G02*
X173398138Y-73890390I53033J53033D01*
G01*
X174335054Y-72953474D01*
G75*
G02*
X174441120Y-72953474I53033J-53033D01*
G01*
X174547186Y-73059540D01*
G75*
G02*
X174547186Y-73165606I-53033J-53033D01*
G01*
G37*
G36*
G01*
X174900739Y-73519159D02*
X173963823Y-74456075D01*
G75*
G02*
X173857757Y-74456075I-53033J53033D01*
G01*
X173751691Y-74350009D01*
G75*
G02*
X173751691Y-74243943I53033J53033D01*
G01*
X174688607Y-73307027D01*
G75*
G02*
X174794673Y-73307027I53033J-53033D01*
G01*
X174900739Y-73413093D01*
G75*
G02*
X174900739Y-73519159I-53033J-53033D01*
G01*
G37*
G36*
G01*
X175254293Y-73872713D02*
X174317377Y-74809629D01*
G75*
G02*
X174211311Y-74809629I-53033J53033D01*
G01*
X174105245Y-74703563D01*
G75*
G02*
X174105245Y-74597497I53033J53033D01*
G01*
X175042161Y-73660581D01*
G75*
G02*
X175148227Y-73660581I53033J-53033D01*
G01*
X175254293Y-73766647D01*
G75*
G02*
X175254293Y-73872713I-53033J-53033D01*
G01*
G37*
G36*
G01*
X175607846Y-74226266D02*
X174670930Y-75163182D01*
G75*
G02*
X174564864Y-75163182I-53033J53033D01*
G01*
X174458798Y-75057116D01*
G75*
G02*
X174458798Y-74951050I53033J53033D01*
G01*
X175395714Y-74014134D01*
G75*
G02*
X175501780Y-74014134I53033J-53033D01*
G01*
X175607846Y-74120200D01*
G75*
G02*
X175607846Y-74226266I-53033J-53033D01*
G01*
G37*
G36*
G01*
X175961400Y-74579820D02*
X175024484Y-75516736D01*
G75*
G02*
X174918418Y-75516736I-53033J53033D01*
G01*
X174812352Y-75410670D01*
G75*
G02*
X174812352Y-75304604I53033J53033D01*
G01*
X175749268Y-74367688D01*
G75*
G02*
X175855334Y-74367688I53033J-53033D01*
G01*
X175961400Y-74473754D01*
G75*
G02*
X175961400Y-74579820I-53033J-53033D01*
G01*
G37*
G36*
G01*
X175961400Y-77408246D02*
X175855334Y-77514312D01*
G75*
G02*
X175749268Y-77514312I-53033J53033D01*
G01*
X174812352Y-76577396D01*
G75*
G02*
X174812352Y-76471330I53033J53033D01*
G01*
X174918418Y-76365264D01*
G75*
G02*
X175024484Y-76365264I53033J-53033D01*
G01*
X175961400Y-77302180D01*
G75*
G02*
X175961400Y-77408246I-53033J-53033D01*
G01*
G37*
G36*
G01*
X175607846Y-77761800D02*
X175501780Y-77867866D01*
G75*
G02*
X175395714Y-77867866I-53033J53033D01*
G01*
X174458798Y-76930950D01*
G75*
G02*
X174458798Y-76824884I53033J53033D01*
G01*
X174564864Y-76718818D01*
G75*
G02*
X174670930Y-76718818I53033J-53033D01*
G01*
X175607846Y-77655734D01*
G75*
G02*
X175607846Y-77761800I-53033J-53033D01*
G01*
G37*
G36*
G01*
X175254293Y-78115353D02*
X175148227Y-78221419D01*
G75*
G02*
X175042161Y-78221419I-53033J53033D01*
G01*
X174105245Y-77284503D01*
G75*
G02*
X174105245Y-77178437I53033J53033D01*
G01*
X174211311Y-77072371D01*
G75*
G02*
X174317377Y-77072371I53033J-53033D01*
G01*
X175254293Y-78009287D01*
G75*
G02*
X175254293Y-78115353I-53033J-53033D01*
G01*
G37*
G36*
G01*
X174900739Y-78468907D02*
X174794673Y-78574973D01*
G75*
G02*
X174688607Y-78574973I-53033J53033D01*
G01*
X173751691Y-77638057D01*
G75*
G02*
X173751691Y-77531991I53033J53033D01*
G01*
X173857757Y-77425925D01*
G75*
G02*
X173963823Y-77425925I53033J-53033D01*
G01*
X174900739Y-78362841D01*
G75*
G02*
X174900739Y-78468907I-53033J-53033D01*
G01*
G37*
G36*
G01*
X174547186Y-78822460D02*
X174441120Y-78928526D01*
G75*
G02*
X174335054Y-78928526I-53033J53033D01*
G01*
X173398138Y-77991610D01*
G75*
G02*
X173398138Y-77885544I53033J53033D01*
G01*
X173504204Y-77779478D01*
G75*
G02*
X173610270Y-77779478I53033J-53033D01*
G01*
X174547186Y-78716394D01*
G75*
G02*
X174547186Y-78822460I-53033J-53033D01*
G01*
G37*
G36*
G01*
X174193633Y-79176013D02*
X174087567Y-79282079D01*
G75*
G02*
X173981501Y-79282079I-53033J53033D01*
G01*
X173044585Y-78345163D01*
G75*
G02*
X173044585Y-78239097I53033J53033D01*
G01*
X173150651Y-78133031D01*
G75*
G02*
X173256717Y-78133031I53033J-53033D01*
G01*
X174193633Y-79069947D01*
G75*
G02*
X174193633Y-79176013I-53033J-53033D01*
G01*
G37*
G36*
G01*
X173840079Y-79529567D02*
X173734013Y-79635633D01*
G75*
G02*
X173627947Y-79635633I-53033J53033D01*
G01*
X172691031Y-78698717D01*
G75*
G02*
X172691031Y-78592651I53033J53033D01*
G01*
X172797097Y-78486585D01*
G75*
G02*
X172903163Y-78486585I53033J-53033D01*
G01*
X173840079Y-79423501D01*
G75*
G02*
X173840079Y-79529567I-53033J-53033D01*
G01*
G37*
G36*
G01*
X173486526Y-79883120D02*
X173380460Y-79989186D01*
G75*
G02*
X173274394Y-79989186I-53033J53033D01*
G01*
X172337478Y-79052270D01*
G75*
G02*
X172337478Y-78946204I53033J53033D01*
G01*
X172443544Y-78840138D01*
G75*
G02*
X172549610Y-78840138I53033J-53033D01*
G01*
X173486526Y-79777054D01*
G75*
G02*
X173486526Y-79883120I-53033J-53033D01*
G01*
G37*
G36*
G01*
X173132973Y-80236673D02*
X173026907Y-80342739D01*
G75*
G02*
X172920841Y-80342739I-53033J53033D01*
G01*
X171983925Y-79405823D01*
G75*
G02*
X171983925Y-79299757I53033J53033D01*
G01*
X172089991Y-79193691D01*
G75*
G02*
X172196057Y-79193691I53033J-53033D01*
G01*
X173132973Y-80130607D01*
G75*
G02*
X173132973Y-80236673I-53033J-53033D01*
G01*
G37*
G36*
G01*
X172779419Y-80590227D02*
X172673353Y-80696293D01*
G75*
G02*
X172567287Y-80696293I-53033J53033D01*
G01*
X171630371Y-79759377D01*
G75*
G02*
X171630371Y-79653311I53033J53033D01*
G01*
X171736437Y-79547245D01*
G75*
G02*
X171842503Y-79547245I53033J-53033D01*
G01*
X172779419Y-80484161D01*
G75*
G02*
X172779419Y-80590227I-53033J-53033D01*
G01*
G37*
G36*
G01*
X172425866Y-80943780D02*
X172319800Y-81049846D01*
G75*
G02*
X172213734Y-81049846I-53033J53033D01*
G01*
X171276818Y-80112930D01*
G75*
G02*
X171276818Y-80006864I53033J53033D01*
G01*
X171382884Y-79900798D01*
G75*
G02*
X171488950Y-79900798I53033J-53033D01*
G01*
X172425866Y-80837714D01*
G75*
G02*
X172425866Y-80943780I-53033J-53033D01*
G01*
G37*
G36*
G01*
X172072312Y-81297334D02*
X171966246Y-81403400D01*
G75*
G02*
X171860180Y-81403400I-53033J53033D01*
G01*
X170923264Y-80466484D01*
G75*
G02*
X170923264Y-80360418I53033J53033D01*
G01*
X171029330Y-80254352D01*
G75*
G02*
X171135396Y-80254352I53033J-53033D01*
G01*
X172072312Y-81191268D01*
G75*
G02*
X172072312Y-81297334I-53033J-53033D01*
G01*
G37*
G36*
G01*
X167434500Y-82755000D02*
X166959500Y-82755000D01*
G75*
G02*
X166722000Y-82517500I0J237500D01*
G01*
X166722000Y-82017500D01*
G75*
G02*
X166959500Y-81780000I237500J0D01*
G01*
X167434500Y-81780000D01*
G75*
G02*
X167672000Y-82017500I0J-237500D01*
G01*
X167672000Y-82517500D01*
G75*
G02*
X167434500Y-82755000I-237500J0D01*
G01*
G37*
G36*
G01*
X167434500Y-84580000D02*
X166959500Y-84580000D01*
G75*
G02*
X166722000Y-84342500I0J237500D01*
G01*
X166722000Y-83842500D01*
G75*
G02*
X166959500Y-83605000I237500J0D01*
G01*
X167434500Y-83605000D01*
G75*
G02*
X167672000Y-83842500I0J-237500D01*
G01*
X167672000Y-84342500D01*
G75*
G02*
X167434500Y-84580000I-237500J0D01*
G01*
G37*
G36*
G01*
X168735000Y-84138000D02*
X168735000Y-84508000D01*
G75*
G02*
X168600000Y-84643000I-135000J0D01*
G01*
X168330000Y-84643000D01*
G75*
G02*
X168195000Y-84508000I0J135000D01*
G01*
X168195000Y-84138000D01*
G75*
G02*
X168330000Y-84003000I135000J0D01*
G01*
X168600000Y-84003000D01*
G75*
G02*
X168735000Y-84138000I0J-135000D01*
G01*
G37*
G36*
G01*
X169755000Y-84138000D02*
X169755000Y-84508000D01*
G75*
G02*
X169620000Y-84643000I-135000J0D01*
G01*
X169350000Y-84643000D01*
G75*
G02*
X169215000Y-84508000I0J135000D01*
G01*
X169215000Y-84138000D01*
G75*
G02*
X169350000Y-84003000I135000J0D01*
G01*
X169620000Y-84003000D01*
G75*
G02*
X169755000Y-84138000I0J-135000D01*
G01*
G37*
D17*
X164784000Y-80509000D03*
X159704000Y-80509000D03*
X162244000Y-83819000D03*
X157164000Y-83819000D03*
G36*
G01*
X160256500Y-69833500D02*
X160256500Y-69358500D01*
G75*
G02*
X160494000Y-69121000I237500J0D01*
G01*
X161094000Y-69121000D01*
G75*
G02*
X161331500Y-69358500I0J-237500D01*
G01*
X161331500Y-69833500D01*
G75*
G02*
X161094000Y-70071000I-237500J0D01*
G01*
X160494000Y-70071000D01*
G75*
G02*
X160256500Y-69833500I0J237500D01*
G01*
G37*
G36*
G01*
X158531500Y-69833500D02*
X158531500Y-69358500D01*
G75*
G02*
X158769000Y-69121000I237500J0D01*
G01*
X159369000Y-69121000D01*
G75*
G02*
X159606500Y-69358500I0J-237500D01*
G01*
X159606500Y-69833500D01*
G75*
G02*
X159369000Y-70071000I-237500J0D01*
G01*
X158769000Y-70071000D01*
G75*
G02*
X158531500Y-69833500I0J237500D01*
G01*
G37*
G36*
G01*
X154922000Y-66653500D02*
X154922000Y-66178500D01*
G75*
G02*
X155159500Y-65941000I237500J0D01*
G01*
X155659500Y-65941000D01*
G75*
G02*
X155897000Y-66178500I0J-237500D01*
G01*
X155897000Y-66653500D01*
G75*
G02*
X155659500Y-66891000I-237500J0D01*
G01*
X155159500Y-66891000D01*
G75*
G02*
X154922000Y-66653500I0J237500D01*
G01*
G37*
G36*
G01*
X153097000Y-66653500D02*
X153097000Y-66178500D01*
G75*
G02*
X153334500Y-65941000I237500J0D01*
G01*
X153834500Y-65941000D01*
G75*
G02*
X154072000Y-66178500I0J-237500D01*
G01*
X154072000Y-66653500D01*
G75*
G02*
X153834500Y-66891000I-237500J0D01*
G01*
X153334500Y-66891000D01*
G75*
G02*
X153097000Y-66653500I0J237500D01*
G01*
G37*
G36*
G01*
X156926500Y-69381000D02*
X157401500Y-69381000D01*
G75*
G02*
X157639000Y-69618500I0J-237500D01*
G01*
X157639000Y-70118500D01*
G75*
G02*
X157401500Y-70356000I-237500J0D01*
G01*
X156926500Y-70356000D01*
G75*
G02*
X156689000Y-70118500I0J237500D01*
G01*
X156689000Y-69618500D01*
G75*
G02*
X156926500Y-69381000I237500J0D01*
G01*
G37*
G36*
G01*
X156926500Y-67556000D02*
X157401500Y-67556000D01*
G75*
G02*
X157639000Y-67793500I0J-237500D01*
G01*
X157639000Y-68293500D01*
G75*
G02*
X157401500Y-68531000I-237500J0D01*
G01*
X156926500Y-68531000D01*
G75*
G02*
X156689000Y-68293500I0J237500D01*
G01*
X156689000Y-67793500D01*
G75*
G02*
X156926500Y-67556000I237500J0D01*
G01*
G37*
G36*
G01*
X155275500Y-69381000D02*
X155750500Y-69381000D01*
G75*
G02*
X155988000Y-69618500I0J-237500D01*
G01*
X155988000Y-70118500D01*
G75*
G02*
X155750500Y-70356000I-237500J0D01*
G01*
X155275500Y-70356000D01*
G75*
G02*
X155038000Y-70118500I0J237500D01*
G01*
X155038000Y-69618500D01*
G75*
G02*
X155275500Y-69381000I237500J0D01*
G01*
G37*
G36*
G01*
X155275500Y-67556000D02*
X155750500Y-67556000D01*
G75*
G02*
X155988000Y-67793500I0J-237500D01*
G01*
X155988000Y-68293500D01*
G75*
G02*
X155750500Y-68531000I-237500J0D01*
G01*
X155275500Y-68531000D01*
G75*
G02*
X155038000Y-68293500I0J237500D01*
G01*
X155038000Y-67793500D01*
G75*
G02*
X155275500Y-67556000I237500J0D01*
G01*
G37*
G36*
G01*
X158378000Y-66653500D02*
X158378000Y-66178500D01*
G75*
G02*
X158615500Y-65941000I237500J0D01*
G01*
X159215500Y-65941000D01*
G75*
G02*
X159453000Y-66178500I0J-237500D01*
G01*
X159453000Y-66653500D01*
G75*
G02*
X159215500Y-66891000I-237500J0D01*
G01*
X158615500Y-66891000D01*
G75*
G02*
X158378000Y-66653500I0J237500D01*
G01*
G37*
G36*
G01*
X156653000Y-66653500D02*
X156653000Y-66178500D01*
G75*
G02*
X156890500Y-65941000I237500J0D01*
G01*
X157490500Y-65941000D01*
G75*
G02*
X157728000Y-66178500I0J-237500D01*
G01*
X157728000Y-66653500D01*
G75*
G02*
X157490500Y-66891000I-237500J0D01*
G01*
X156890500Y-66891000D01*
G75*
G02*
X156653000Y-66653500I0J237500D01*
G01*
G37*
D19*
X148782000Y-57399000D03*
X146242000Y-57399000D03*
X143702000Y-57399000D03*
D20*
X169864000Y-63216000D03*
D21*
X169864000Y-56916000D03*
X167564000Y-56916000D03*
X172164000Y-56916000D03*
D18*
X137482000Y-57272000D03*
X134682000Y-57272000D03*
G36*
G01*
X173149500Y-82982000D02*
X172674500Y-82982000D01*
G75*
G02*
X172437000Y-82744500I0J237500D01*
G01*
X172437000Y-82144500D01*
G75*
G02*
X172674500Y-81907000I237500J0D01*
G01*
X173149500Y-81907000D01*
G75*
G02*
X173387000Y-82144500I0J-237500D01*
G01*
X173387000Y-82744500D01*
G75*
G02*
X173149500Y-82982000I-237500J0D01*
G01*
G37*
G36*
G01*
X173149500Y-84707000D02*
X172674500Y-84707000D01*
G75*
G02*
X172437000Y-84469500I0J237500D01*
G01*
X172437000Y-83869500D01*
G75*
G02*
X172674500Y-83632000I237500J0D01*
G01*
X173149500Y-83632000D01*
G75*
G02*
X173387000Y-83869500I0J-237500D01*
G01*
X173387000Y-84469500D01*
G75*
G02*
X173149500Y-84707000I-237500J0D01*
G01*
G37*
G36*
G01*
X174111000Y-69226500D02*
X174111000Y-69701500D01*
G75*
G02*
X173873500Y-69939000I-237500J0D01*
G01*
X173273500Y-69939000D01*
G75*
G02*
X173036000Y-69701500I0J237500D01*
G01*
X173036000Y-69226500D01*
G75*
G02*
X173273500Y-68989000I237500J0D01*
G01*
X173873500Y-68989000D01*
G75*
G02*
X174111000Y-69226500I0J-237500D01*
G01*
G37*
G36*
G01*
X175836000Y-69226500D02*
X175836000Y-69701500D01*
G75*
G02*
X175598500Y-69939000I-237500J0D01*
G01*
X174998500Y-69939000D01*
G75*
G02*
X174761000Y-69701500I0J237500D01*
G01*
X174761000Y-69226500D01*
G75*
G02*
X174998500Y-68989000I237500J0D01*
G01*
X175598500Y-68989000D01*
G75*
G02*
X175836000Y-69226500I0J-237500D01*
G01*
G37*
G36*
G01*
X163530500Y-76266000D02*
X164005500Y-76266000D01*
G75*
G02*
X164243000Y-76503500I0J-237500D01*
G01*
X164243000Y-77103500D01*
G75*
G02*
X164005500Y-77341000I-237500J0D01*
G01*
X163530500Y-77341000D01*
G75*
G02*
X163293000Y-77103500I0J237500D01*
G01*
X163293000Y-76503500D01*
G75*
G02*
X163530500Y-76266000I237500J0D01*
G01*
G37*
G36*
G01*
X163530500Y-74541000D02*
X164005500Y-74541000D01*
G75*
G02*
X164243000Y-74778500I0J-237500D01*
G01*
X164243000Y-75378500D01*
G75*
G02*
X164005500Y-75616000I-237500J0D01*
G01*
X163530500Y-75616000D01*
G75*
G02*
X163293000Y-75378500I0J237500D01*
G01*
X163293000Y-74778500D01*
G75*
G02*
X163530500Y-74541000I237500J0D01*
G01*
G37*
D14*
X184727000Y-64765000D03*
X181417000Y-67305000D03*
X181417000Y-62225000D03*
X178758000Y-64765000D03*
X175448000Y-67305000D03*
X175448000Y-62225000D03*
G36*
G01*
X170062000Y-83163500D02*
X170062000Y-82688500D01*
G75*
G02*
X170299500Y-82451000I237500J0D01*
G01*
X170899500Y-82451000D01*
G75*
G02*
X171137000Y-82688500I0J-237500D01*
G01*
X171137000Y-83163500D01*
G75*
G02*
X170899500Y-83401000I-237500J0D01*
G01*
X170299500Y-83401000D01*
G75*
G02*
X170062000Y-83163500I0J237500D01*
G01*
G37*
G36*
G01*
X168337000Y-83163500D02*
X168337000Y-82688500D01*
G75*
G02*
X168574500Y-82451000I237500J0D01*
G01*
X169174500Y-82451000D01*
G75*
G02*
X169412000Y-82688500I0J-237500D01*
G01*
X169412000Y-83163500D01*
G75*
G02*
X169174500Y-83401000I-237500J0D01*
G01*
X168574500Y-83401000D01*
G75*
G02*
X168337000Y-83163500I0J237500D01*
G01*
G37*
D22*
X128401000Y-76840000D03*
X128401000Y-65410000D03*
D23*
X134751000Y-66680000D03*
D24*
X137291000Y-67950000D03*
X134751000Y-69220000D03*
X137291000Y-70490000D03*
X134751000Y-71760000D03*
X137291000Y-73030000D03*
X134751000Y-74300000D03*
X137291000Y-75570000D03*
D25*
X131451000Y-63375000D03*
X131451000Y-78875000D03*
G36*
G01*
X183636000Y-79767500D02*
X183636000Y-80242500D01*
G75*
G02*
X183398500Y-80480000I-237500J0D01*
G01*
X182798500Y-80480000D01*
G75*
G02*
X182561000Y-80242500I0J237500D01*
G01*
X182561000Y-79767500D01*
G75*
G02*
X182798500Y-79530000I237500J0D01*
G01*
X183398500Y-79530000D01*
G75*
G02*
X183636000Y-79767500I0J-237500D01*
G01*
G37*
G36*
G01*
X185361000Y-79767500D02*
X185361000Y-80242500D01*
G75*
G02*
X185123500Y-80480000I-237500J0D01*
G01*
X184523500Y-80480000D01*
G75*
G02*
X184286000Y-80242500I0J237500D01*
G01*
X184286000Y-79767500D01*
G75*
G02*
X184523500Y-79530000I237500J0D01*
G01*
X185123500Y-79530000D01*
G75*
G02*
X185361000Y-79767500I0J-237500D01*
G01*
G37*
G36*
G01*
X179117000Y-71474500D02*
X179117000Y-70999500D01*
G75*
G02*
X179354500Y-70762000I237500J0D01*
G01*
X179854500Y-70762000D01*
G75*
G02*
X180092000Y-70999500I0J-237500D01*
G01*
X180092000Y-71474500D01*
G75*
G02*
X179854500Y-71712000I-237500J0D01*
G01*
X179354500Y-71712000D01*
G75*
G02*
X179117000Y-71474500I0J237500D01*
G01*
G37*
G36*
G01*
X177292000Y-71474500D02*
X177292000Y-70999500D01*
G75*
G02*
X177529500Y-70762000I237500J0D01*
G01*
X178029500Y-70762000D01*
G75*
G02*
X178267000Y-70999500I0J-237500D01*
G01*
X178267000Y-71474500D01*
G75*
G02*
X178029500Y-71712000I-237500J0D01*
G01*
X177529500Y-71712000D01*
G75*
G02*
X177292000Y-71474500I0J237500D01*
G01*
G37*
G36*
G01*
X180975000Y-71347500D02*
X180975000Y-70872500D01*
G75*
G02*
X181212500Y-70635000I237500J0D01*
G01*
X181712500Y-70635000D01*
G75*
G02*
X181950000Y-70872500I0J-237500D01*
G01*
X181950000Y-71347500D01*
G75*
G02*
X181712500Y-71585000I-237500J0D01*
G01*
X181212500Y-71585000D01*
G75*
G02*
X180975000Y-71347500I0J237500D01*
G01*
G37*
G36*
G01*
X182800000Y-71347500D02*
X182800000Y-70872500D01*
G75*
G02*
X183037500Y-70635000I237500J0D01*
G01*
X183537500Y-70635000D01*
G75*
G02*
X183775000Y-70872500I0J-237500D01*
G01*
X183775000Y-71347500D01*
G75*
G02*
X183537500Y-71585000I-237500J0D01*
G01*
X183037500Y-71585000D01*
G75*
G02*
X182800000Y-71347500I0J237500D01*
G01*
G37*
G36*
G01*
X192198000Y-79475500D02*
X192198000Y-79000500D01*
G75*
G02*
X192435500Y-78763000I237500J0D01*
G01*
X192935500Y-78763000D01*
G75*
G02*
X193173000Y-79000500I0J-237500D01*
G01*
X193173000Y-79475500D01*
G75*
G02*
X192935500Y-79713000I-237500J0D01*
G01*
X192435500Y-79713000D01*
G75*
G02*
X192198000Y-79475500I0J237500D01*
G01*
G37*
G36*
G01*
X190373000Y-79475500D02*
X190373000Y-79000500D01*
G75*
G02*
X190610500Y-78763000I237500J0D01*
G01*
X191110500Y-78763000D01*
G75*
G02*
X191348000Y-79000500I0J-237500D01*
G01*
X191348000Y-79475500D01*
G75*
G02*
X191110500Y-79713000I-237500J0D01*
G01*
X190610500Y-79713000D01*
G75*
G02*
X190373000Y-79475500I0J237500D01*
G01*
G37*
G36*
G01*
X192198000Y-72744500D02*
X192198000Y-72269500D01*
G75*
G02*
X192435500Y-72032000I237500J0D01*
G01*
X192935500Y-72032000D01*
G75*
G02*
X193173000Y-72269500I0J-237500D01*
G01*
X193173000Y-72744500D01*
G75*
G02*
X192935500Y-72982000I-237500J0D01*
G01*
X192435500Y-72982000D01*
G75*
G02*
X192198000Y-72744500I0J237500D01*
G01*
G37*
G36*
G01*
X190373000Y-72744500D02*
X190373000Y-72269500D01*
G75*
G02*
X190610500Y-72032000I237500J0D01*
G01*
X191110500Y-72032000D01*
G75*
G02*
X191348000Y-72269500I0J-237500D01*
G01*
X191348000Y-72744500D01*
G75*
G02*
X191110500Y-72982000I-237500J0D01*
G01*
X190610500Y-72982000D01*
G75*
G02*
X190373000Y-72744500I0J237500D01*
G01*
G37*
G36*
G01*
X187027000Y-73930500D02*
X187027000Y-74405500D01*
G75*
G02*
X186789500Y-74643000I-237500J0D01*
G01*
X186289500Y-74643000D01*
G75*
G02*
X186052000Y-74405500I0J237500D01*
G01*
X186052000Y-73930500D01*
G75*
G02*
X186289500Y-73693000I237500J0D01*
G01*
X186789500Y-73693000D01*
G75*
G02*
X187027000Y-73930500I0J-237500D01*
G01*
G37*
G36*
G01*
X188852000Y-73930500D02*
X188852000Y-74405500D01*
G75*
G02*
X188614500Y-74643000I-237500J0D01*
G01*
X188114500Y-74643000D01*
G75*
G02*
X187877000Y-74405500I0J237500D01*
G01*
X187877000Y-73930500D01*
G75*
G02*
X188114500Y-73693000I237500J0D01*
G01*
X188614500Y-73693000D01*
G75*
G02*
X188852000Y-73930500I0J-237500D01*
G01*
G37*
G36*
G01*
X187027000Y-80534500D02*
X187027000Y-81009500D01*
G75*
G02*
X186789500Y-81247000I-237500J0D01*
G01*
X186289500Y-81247000D01*
G75*
G02*
X186052000Y-81009500I0J237500D01*
G01*
X186052000Y-80534500D01*
G75*
G02*
X186289500Y-80297000I237500J0D01*
G01*
X186789500Y-80297000D01*
G75*
G02*
X187027000Y-80534500I0J-237500D01*
G01*
G37*
G36*
G01*
X188852000Y-80534500D02*
X188852000Y-81009500D01*
G75*
G02*
X188614500Y-81247000I-237500J0D01*
G01*
X188114500Y-81247000D01*
G75*
G02*
X187877000Y-81009500I0J237500D01*
G01*
X187877000Y-80534500D01*
G75*
G02*
X188114500Y-80297000I237500J0D01*
G01*
X188614500Y-80297000D01*
G75*
G02*
X188852000Y-80534500I0J-237500D01*
G01*
G37*
G36*
G01*
X178267000Y-69353500D02*
X178267000Y-69828500D01*
G75*
G02*
X178029500Y-70066000I-237500J0D01*
G01*
X177529500Y-70066000D01*
G75*
G02*
X177292000Y-69828500I0J237500D01*
G01*
X177292000Y-69353500D01*
G75*
G02*
X177529500Y-69116000I237500J0D01*
G01*
X178029500Y-69116000D01*
G75*
G02*
X178267000Y-69353500I0J-237500D01*
G01*
G37*
G36*
G01*
X180092000Y-69353500D02*
X180092000Y-69828500D01*
G75*
G02*
X179854500Y-70066000I-237500J0D01*
G01*
X179354500Y-70066000D01*
G75*
G02*
X179117000Y-69828500I0J237500D01*
G01*
X179117000Y-69353500D01*
G75*
G02*
X179354500Y-69116000I237500J0D01*
G01*
X179854500Y-69116000D01*
G75*
G02*
X180092000Y-69353500I0J-237500D01*
G01*
G37*
G36*
G01*
X181950000Y-69353500D02*
X181950000Y-69828500D01*
G75*
G02*
X181712500Y-70066000I-237500J0D01*
G01*
X181212500Y-70066000D01*
G75*
G02*
X180975000Y-69828500I0J237500D01*
G01*
X180975000Y-69353500D01*
G75*
G02*
X181212500Y-69116000I237500J0D01*
G01*
X181712500Y-69116000D01*
G75*
G02*
X181950000Y-69353500I0J-237500D01*
G01*
G37*
G36*
G01*
X183775000Y-69353500D02*
X183775000Y-69828500D01*
G75*
G02*
X183537500Y-70066000I-237500J0D01*
G01*
X183037500Y-70066000D01*
G75*
G02*
X182800000Y-69828500I0J237500D01*
G01*
X182800000Y-69353500D01*
G75*
G02*
X183037500Y-69116000I237500J0D01*
G01*
X183537500Y-69116000D01*
G75*
G02*
X183775000Y-69353500I0J-237500D01*
G01*
G37*
G36*
G01*
X191348000Y-77349500D02*
X191348000Y-77824500D01*
G75*
G02*
X191110500Y-78062000I-237500J0D01*
G01*
X190610500Y-78062000D01*
G75*
G02*
X190373000Y-77824500I0J237500D01*
G01*
X190373000Y-77349500D01*
G75*
G02*
X190610500Y-77112000I237500J0D01*
G01*
X191110500Y-77112000D01*
G75*
G02*
X191348000Y-77349500I0J-237500D01*
G01*
G37*
G36*
G01*
X193173000Y-77349500D02*
X193173000Y-77824500D01*
G75*
G02*
X192935500Y-78062000I-237500J0D01*
G01*
X192435500Y-78062000D01*
G75*
G02*
X192198000Y-77824500I0J237500D01*
G01*
X192198000Y-77349500D01*
G75*
G02*
X192435500Y-77112000I237500J0D01*
G01*
X192935500Y-77112000D01*
G75*
G02*
X193173000Y-77349500I0J-237500D01*
G01*
G37*
G36*
G01*
X191348000Y-75576500D02*
X191348000Y-76051500D01*
G75*
G02*
X191110500Y-76289000I-237500J0D01*
G01*
X190610500Y-76289000D01*
G75*
G02*
X190373000Y-76051500I0J237500D01*
G01*
X190373000Y-75576500D01*
G75*
G02*
X190610500Y-75339000I237500J0D01*
G01*
X191110500Y-75339000D01*
G75*
G02*
X191348000Y-75576500I0J-237500D01*
G01*
G37*
G36*
G01*
X193173000Y-75576500D02*
X193173000Y-76051500D01*
G75*
G02*
X192935500Y-76289000I-237500J0D01*
G01*
X192435500Y-76289000D01*
G75*
G02*
X192198000Y-76051500I0J237500D01*
G01*
X192198000Y-75576500D01*
G75*
G02*
X192435500Y-75339000I237500J0D01*
G01*
X192935500Y-75339000D01*
G75*
G02*
X193173000Y-75576500I0J-237500D01*
G01*
G37*
G36*
G01*
X187877000Y-76056500D02*
X187877000Y-75581500D01*
G75*
G02*
X188114500Y-75344000I237500J0D01*
G01*
X188614500Y-75344000D01*
G75*
G02*
X188852000Y-75581500I0J-237500D01*
G01*
X188852000Y-76056500D01*
G75*
G02*
X188614500Y-76294000I-237500J0D01*
G01*
X188114500Y-76294000D01*
G75*
G02*
X187877000Y-76056500I0J237500D01*
G01*
G37*
G36*
G01*
X186052000Y-76056500D02*
X186052000Y-75581500D01*
G75*
G02*
X186289500Y-75344000I237500J0D01*
G01*
X186789500Y-75344000D01*
G75*
G02*
X187027000Y-75581500I0J-237500D01*
G01*
X187027000Y-76056500D01*
G75*
G02*
X186789500Y-76294000I-237500J0D01*
G01*
X186289500Y-76294000D01*
G75*
G02*
X186052000Y-76056500I0J237500D01*
G01*
G37*
G36*
G01*
X187877000Y-77702500D02*
X187877000Y-77227500D01*
G75*
G02*
X188114500Y-76990000I237500J0D01*
G01*
X188614500Y-76990000D01*
G75*
G02*
X188852000Y-77227500I0J-237500D01*
G01*
X188852000Y-77702500D01*
G75*
G02*
X188614500Y-77940000I-237500J0D01*
G01*
X188114500Y-77940000D01*
G75*
G02*
X187877000Y-77702500I0J237500D01*
G01*
G37*
G36*
G01*
X186052000Y-77702500D02*
X186052000Y-77227500D01*
G75*
G02*
X186289500Y-76990000I237500J0D01*
G01*
X186789500Y-76990000D01*
G75*
G02*
X187027000Y-77227500I0J-237500D01*
G01*
X187027000Y-77702500D01*
G75*
G02*
X186789500Y-77940000I-237500J0D01*
G01*
X186289500Y-77940000D01*
G75*
G02*
X186052000Y-77702500I0J237500D01*
G01*
G37*
G36*
G01*
X179280600Y-81588700D02*
X179280600Y-81113700D01*
G75*
G02*
X179518100Y-80876200I237500J0D01*
G01*
X180018100Y-80876200D01*
G75*
G02*
X180255600Y-81113700I0J-237500D01*
G01*
X180255600Y-81588700D01*
G75*
G02*
X180018100Y-81826200I-237500J0D01*
G01*
X179518100Y-81826200D01*
G75*
G02*
X179280600Y-81588700I0J237500D01*
G01*
G37*
G36*
G01*
X177455600Y-81588700D02*
X177455600Y-81113700D01*
G75*
G02*
X177693100Y-80876200I237500J0D01*
G01*
X178193100Y-80876200D01*
G75*
G02*
X178430600Y-81113700I0J-237500D01*
G01*
X178430600Y-81588700D01*
G75*
G02*
X178193100Y-81826200I-237500J0D01*
G01*
X177693100Y-81826200D01*
G75*
G02*
X177455600Y-81588700I0J237500D01*
G01*
G37*
G36*
G01*
X150643000Y-84847500D02*
X150643000Y-85322500D01*
G75*
G02*
X150405500Y-85560000I-237500J0D01*
G01*
X149905500Y-85560000D01*
G75*
G02*
X149668000Y-85322500I0J237500D01*
G01*
X149668000Y-84847500D01*
G75*
G02*
X149905500Y-84610000I237500J0D01*
G01*
X150405500Y-84610000D01*
G75*
G02*
X150643000Y-84847500I0J-237500D01*
G01*
G37*
G36*
G01*
X152468000Y-84847500D02*
X152468000Y-85322500D01*
G75*
G02*
X152230500Y-85560000I-237500J0D01*
G01*
X151730500Y-85560000D01*
G75*
G02*
X151493000Y-85322500I0J237500D01*
G01*
X151493000Y-84847500D01*
G75*
G02*
X151730500Y-84610000I237500J0D01*
G01*
X152230500Y-84610000D01*
G75*
G02*
X152468000Y-84847500I0J-237500D01*
G01*
G37*
G36*
G01*
X152802000Y-73798500D02*
X152802000Y-74273500D01*
G75*
G02*
X152564500Y-74511000I-237500J0D01*
G01*
X152064500Y-74511000D01*
G75*
G02*
X151827000Y-74273500I0J237500D01*
G01*
X151827000Y-73798500D01*
G75*
G02*
X152064500Y-73561000I237500J0D01*
G01*
X152564500Y-73561000D01*
G75*
G02*
X152802000Y-73798500I0J-237500D01*
G01*
G37*
G36*
G01*
X154627000Y-73798500D02*
X154627000Y-74273500D01*
G75*
G02*
X154389500Y-74511000I-237500J0D01*
G01*
X153889500Y-74511000D01*
G75*
G02*
X153652000Y-74273500I0J237500D01*
G01*
X153652000Y-73798500D01*
G75*
G02*
X153889500Y-73561000I237500J0D01*
G01*
X154389500Y-73561000D01*
G75*
G02*
X154627000Y-73798500I0J-237500D01*
G01*
G37*
G36*
G01*
X157081000Y-77707500D02*
X157081000Y-77232500D01*
G75*
G02*
X157318500Y-76995000I237500J0D01*
G01*
X157818500Y-76995000D01*
G75*
G02*
X158056000Y-77232500I0J-237500D01*
G01*
X158056000Y-77707500D01*
G75*
G02*
X157818500Y-77945000I-237500J0D01*
G01*
X157318500Y-77945000D01*
G75*
G02*
X157081000Y-77707500I0J237500D01*
G01*
G37*
G36*
G01*
X155256000Y-77707500D02*
X155256000Y-77232500D01*
G75*
G02*
X155493500Y-76995000I237500J0D01*
G01*
X155993500Y-76995000D01*
G75*
G02*
X156231000Y-77232500I0J-237500D01*
G01*
X156231000Y-77707500D01*
G75*
G02*
X155993500Y-77945000I-237500J0D01*
G01*
X155493500Y-77945000D01*
G75*
G02*
X155256000Y-77707500I0J237500D01*
G01*
G37*
G36*
G01*
X178526000Y-82623500D02*
X178526000Y-83098500D01*
G75*
G02*
X178288500Y-83336000I-237500J0D01*
G01*
X177713500Y-83336000D01*
G75*
G02*
X177476000Y-83098500I0J237500D01*
G01*
X177476000Y-82623500D01*
G75*
G02*
X177713500Y-82386000I237500J0D01*
G01*
X178288500Y-82386000D01*
G75*
G02*
X178526000Y-82623500I0J-237500D01*
G01*
G37*
G36*
G01*
X180276000Y-82623500D02*
X180276000Y-83098500D01*
G75*
G02*
X180038500Y-83336000I-237500J0D01*
G01*
X179463500Y-83336000D01*
G75*
G02*
X179226000Y-83098500I0J237500D01*
G01*
X179226000Y-82623500D01*
G75*
G02*
X179463500Y-82386000I237500J0D01*
G01*
X180038500Y-82386000D01*
G75*
G02*
X180276000Y-82623500I0J-237500D01*
G01*
G37*
G36*
G01*
X178367000Y-72650500D02*
X178367000Y-73125500D01*
G75*
G02*
X178129500Y-73363000I-237500J0D01*
G01*
X177529500Y-73363000D01*
G75*
G02*
X177292000Y-73125500I0J237500D01*
G01*
X177292000Y-72650500D01*
G75*
G02*
X177529500Y-72413000I237500J0D01*
G01*
X178129500Y-72413000D01*
G75*
G02*
X178367000Y-72650500I0J-237500D01*
G01*
G37*
G36*
G01*
X180092000Y-72650500D02*
X180092000Y-73125500D01*
G75*
G02*
X179854500Y-73363000I-237500J0D01*
G01*
X179254500Y-73363000D01*
G75*
G02*
X179017000Y-73125500I0J237500D01*
G01*
X179017000Y-72650500D01*
G75*
G02*
X179254500Y-72413000I237500J0D01*
G01*
X179854500Y-72413000D01*
G75*
G02*
X180092000Y-72650500I0J-237500D01*
G01*
G37*
G36*
G01*
X182050000Y-72523500D02*
X182050000Y-72998500D01*
G75*
G02*
X181812500Y-73236000I-237500J0D01*
G01*
X181212500Y-73236000D01*
G75*
G02*
X180975000Y-72998500I0J237500D01*
G01*
X180975000Y-72523500D01*
G75*
G02*
X181212500Y-72286000I237500J0D01*
G01*
X181812500Y-72286000D01*
G75*
G02*
X182050000Y-72523500I0J-237500D01*
G01*
G37*
G36*
G01*
X183775000Y-72523500D02*
X183775000Y-72998500D01*
G75*
G02*
X183537500Y-73236000I-237500J0D01*
G01*
X182937500Y-73236000D01*
G75*
G02*
X182700000Y-72998500I0J237500D01*
G01*
X182700000Y-72523500D01*
G75*
G02*
X182937500Y-72286000I237500J0D01*
G01*
X183537500Y-72286000D01*
G75*
G02*
X183775000Y-72523500I0J-237500D01*
G01*
G37*
G36*
G01*
X191448000Y-80651500D02*
X191448000Y-81126500D01*
G75*
G02*
X191210500Y-81364000I-237500J0D01*
G01*
X190610500Y-81364000D01*
G75*
G02*
X190373000Y-81126500I0J237500D01*
G01*
X190373000Y-80651500D01*
G75*
G02*
X190610500Y-80414000I237500J0D01*
G01*
X191210500Y-80414000D01*
G75*
G02*
X191448000Y-80651500I0J-237500D01*
G01*
G37*
G36*
G01*
X193173000Y-80651500D02*
X193173000Y-81126500D01*
G75*
G02*
X192935500Y-81364000I-237500J0D01*
G01*
X192335500Y-81364000D01*
G75*
G02*
X192098000Y-81126500I0J237500D01*
G01*
X192098000Y-80651500D01*
G75*
G02*
X192335500Y-80414000I237500J0D01*
G01*
X192935500Y-80414000D01*
G75*
G02*
X193173000Y-80651500I0J-237500D01*
G01*
G37*
G36*
G01*
X191448000Y-73920500D02*
X191448000Y-74395500D01*
G75*
G02*
X191210500Y-74633000I-237500J0D01*
G01*
X190610500Y-74633000D01*
G75*
G02*
X190373000Y-74395500I0J237500D01*
G01*
X190373000Y-73920500D01*
G75*
G02*
X190610500Y-73683000I237500J0D01*
G01*
X191210500Y-73683000D01*
G75*
G02*
X191448000Y-73920500I0J-237500D01*
G01*
G37*
G36*
G01*
X193173000Y-73920500D02*
X193173000Y-74395500D01*
G75*
G02*
X192935500Y-74633000I-237500J0D01*
G01*
X192335500Y-74633000D01*
G75*
G02*
X192098000Y-74395500I0J237500D01*
G01*
X192098000Y-73920500D01*
G75*
G02*
X192335500Y-73683000I237500J0D01*
G01*
X192935500Y-73683000D01*
G75*
G02*
X193173000Y-73920500I0J-237500D01*
G01*
G37*
G36*
G01*
X187777000Y-72754500D02*
X187777000Y-72279500D01*
G75*
G02*
X188014500Y-72042000I237500J0D01*
G01*
X188614500Y-72042000D01*
G75*
G02*
X188852000Y-72279500I0J-237500D01*
G01*
X188852000Y-72754500D01*
G75*
G02*
X188614500Y-72992000I-237500J0D01*
G01*
X188014500Y-72992000D01*
G75*
G02*
X187777000Y-72754500I0J237500D01*
G01*
G37*
G36*
G01*
X186052000Y-72754500D02*
X186052000Y-72279500D01*
G75*
G02*
X186289500Y-72042000I237500J0D01*
G01*
X186889500Y-72042000D01*
G75*
G02*
X187127000Y-72279500I0J-237500D01*
G01*
X187127000Y-72754500D01*
G75*
G02*
X186889500Y-72992000I-237500J0D01*
G01*
X186289500Y-72992000D01*
G75*
G02*
X186052000Y-72754500I0J237500D01*
G01*
G37*
G36*
G01*
X187777000Y-79358500D02*
X187777000Y-78883500D01*
G75*
G02*
X188014500Y-78646000I237500J0D01*
G01*
X188614500Y-78646000D01*
G75*
G02*
X188852000Y-78883500I0J-237500D01*
G01*
X188852000Y-79358500D01*
G75*
G02*
X188614500Y-79596000I-237500J0D01*
G01*
X188014500Y-79596000D01*
G75*
G02*
X187777000Y-79358500I0J237500D01*
G01*
G37*
G36*
G01*
X186052000Y-79358500D02*
X186052000Y-78883500D01*
G75*
G02*
X186289500Y-78646000I237500J0D01*
G01*
X186889500Y-78646000D01*
G75*
G02*
X187127000Y-78883500I0J-237500D01*
G01*
X187127000Y-79358500D01*
G75*
G02*
X186889500Y-79596000I-237500J0D01*
G01*
X186289500Y-79596000D01*
G75*
G02*
X186052000Y-79358500I0J237500D01*
G01*
G37*
G36*
G01*
X176482888Y-72826012D02*
X176147012Y-73161888D01*
G75*
G02*
X175811136Y-73161888I-167938J167938D01*
G01*
X175386872Y-72737624D01*
G75*
G02*
X175386872Y-72401748I167938J167938D01*
G01*
X175722748Y-72065872D01*
G75*
G02*
X176058624Y-72065872I167938J-167938D01*
G01*
X176482888Y-72490136D01*
G75*
G02*
X176482888Y-72826012I-167938J-167938D01*
G01*
G37*
G36*
G01*
X175263128Y-71606252D02*
X174927252Y-71942128D01*
G75*
G02*
X174591376Y-71942128I-167938J167938D01*
G01*
X174167112Y-71517864D01*
G75*
G02*
X174167112Y-71181988I167938J167938D01*
G01*
X174502988Y-70846112D01*
G75*
G02*
X174838864Y-70846112I167938J-167938D01*
G01*
X175263128Y-71270376D01*
G75*
G02*
X175263128Y-71606252I-167938J-167938D01*
G01*
G37*
G36*
G01*
X159379000Y-84593500D02*
X159379000Y-85068500D01*
G75*
G02*
X159141500Y-85306000I-237500J0D01*
G01*
X158541500Y-85306000D01*
G75*
G02*
X158304000Y-85068500I0J237500D01*
G01*
X158304000Y-84593500D01*
G75*
G02*
X158541500Y-84356000I237500J0D01*
G01*
X159141500Y-84356000D01*
G75*
G02*
X159379000Y-84593500I0J-237500D01*
G01*
G37*
G36*
G01*
X161104000Y-84593500D02*
X161104000Y-85068500D01*
G75*
G02*
X160866500Y-85306000I-237500J0D01*
G01*
X160266500Y-85306000D01*
G75*
G02*
X160029000Y-85068500I0J237500D01*
G01*
X160029000Y-84593500D01*
G75*
G02*
X160266500Y-84356000I237500J0D01*
G01*
X160866500Y-84356000D01*
G75*
G02*
X161104000Y-84593500I0J-237500D01*
G01*
G37*
G36*
G01*
X151051500Y-58291000D02*
X150576500Y-58291000D01*
G75*
G02*
X150339000Y-58053500I0J237500D01*
G01*
X150339000Y-57453500D01*
G75*
G02*
X150576500Y-57216000I237500J0D01*
G01*
X151051500Y-57216000D01*
G75*
G02*
X151289000Y-57453500I0J-237500D01*
G01*
X151289000Y-58053500D01*
G75*
G02*
X151051500Y-58291000I-237500J0D01*
G01*
G37*
G36*
G01*
X151051500Y-56566000D02*
X150576500Y-56566000D01*
G75*
G02*
X150339000Y-56328500I0J237500D01*
G01*
X150339000Y-55728500D01*
G75*
G02*
X150576500Y-55491000I237500J0D01*
G01*
X151051500Y-55491000D01*
G75*
G02*
X151289000Y-55728500I0J-237500D01*
G01*
X151289000Y-56328500D01*
G75*
G02*
X151051500Y-56566000I-237500J0D01*
G01*
G37*
G36*
G01*
X141653500Y-58672000D02*
X141178500Y-58672000D01*
G75*
G02*
X140941000Y-58434500I0J237500D01*
G01*
X140941000Y-57834500D01*
G75*
G02*
X141178500Y-57597000I237500J0D01*
G01*
X141653500Y-57597000D01*
G75*
G02*
X141891000Y-57834500I0J-237500D01*
G01*
X141891000Y-58434500D01*
G75*
G02*
X141653500Y-58672000I-237500J0D01*
G01*
G37*
G36*
G01*
X141653500Y-56947000D02*
X141178500Y-56947000D01*
G75*
G02*
X140941000Y-56709500I0J237500D01*
G01*
X140941000Y-56109500D01*
G75*
G02*
X141178500Y-55872000I237500J0D01*
G01*
X141653500Y-55872000D01*
G75*
G02*
X141891000Y-56109500I0J-237500D01*
G01*
X141891000Y-56709500D01*
G75*
G02*
X141653500Y-56947000I-237500J0D01*
G01*
G37*
G36*
G01*
X164914000Y-57161500D02*
X164914000Y-57636500D01*
G75*
G02*
X164676500Y-57874000I-237500J0D01*
G01*
X164076500Y-57874000D01*
G75*
G02*
X163839000Y-57636500I0J237500D01*
G01*
X163839000Y-57161500D01*
G75*
G02*
X164076500Y-56924000I237500J0D01*
G01*
X164676500Y-56924000D01*
G75*
G02*
X164914000Y-57161500I0J-237500D01*
G01*
G37*
G36*
G01*
X163189000Y-57161500D02*
X163189000Y-57636500D01*
G75*
G02*
X162951500Y-57874000I-237500J0D01*
G01*
X162351500Y-57874000D01*
G75*
G02*
X162114000Y-57636500I0J237500D01*
G01*
X162114000Y-57161500D01*
G75*
G02*
X162351500Y-56924000I237500J0D01*
G01*
X162951500Y-56924000D01*
G75*
G02*
X163189000Y-57161500I0J-237500D01*
G01*
G37*
G36*
G01*
X186738500Y-68705000D02*
X186263500Y-68705000D01*
G75*
G02*
X186026000Y-68467500I0J237500D01*
G01*
X186026000Y-67867500D01*
G75*
G02*
X186263500Y-67630000I237500J0D01*
G01*
X186738500Y-67630000D01*
G75*
G02*
X186976000Y-67867500I0J-237500D01*
G01*
X186976000Y-68467500D01*
G75*
G02*
X186738500Y-68705000I-237500J0D01*
G01*
G37*
G36*
G01*
X186738500Y-66980000D02*
X186263500Y-66980000D01*
G75*
G02*
X186026000Y-66742500I0J237500D01*
G01*
X186026000Y-66142500D01*
G75*
G02*
X186263500Y-65905000I237500J0D01*
G01*
X186738500Y-65905000D01*
G75*
G02*
X186976000Y-66142500I0J-237500D01*
G01*
X186976000Y-66742500D01*
G75*
G02*
X186738500Y-66980000I-237500J0D01*
G01*
G37*
G36*
G01*
X177460500Y-56780500D02*
X177460500Y-57255500D01*
G75*
G02*
X177223000Y-57493000I-237500J0D01*
G01*
X176623000Y-57493000D01*
G75*
G02*
X176385500Y-57255500I0J237500D01*
G01*
X176385500Y-56780500D01*
G75*
G02*
X176623000Y-56543000I237500J0D01*
G01*
X177223000Y-56543000D01*
G75*
G02*
X177460500Y-56780500I0J-237500D01*
G01*
G37*
G36*
G01*
X175735500Y-56780500D02*
X175735500Y-57255500D01*
G75*
G02*
X175498000Y-57493000I-237500J0D01*
G01*
X174898000Y-57493000D01*
G75*
G02*
X174660500Y-57255500I0J237500D01*
G01*
X174660500Y-56780500D01*
G75*
G02*
X174898000Y-56543000I237500J0D01*
G01*
X175498000Y-56543000D01*
G75*
G02*
X175735500Y-56780500I0J-237500D01*
G01*
G37*
G36*
G01*
X191076000Y-60844500D02*
X191076000Y-61319500D01*
G75*
G02*
X190838500Y-61557000I-237500J0D01*
G01*
X190238500Y-61557000D01*
G75*
G02*
X190001000Y-61319500I0J237500D01*
G01*
X190001000Y-60844500D01*
G75*
G02*
X190238500Y-60607000I237500J0D01*
G01*
X190838500Y-60607000D01*
G75*
G02*
X191076000Y-60844500I0J-237500D01*
G01*
G37*
G36*
G01*
X189351000Y-60844500D02*
X189351000Y-61319500D01*
G75*
G02*
X189113500Y-61557000I-237500J0D01*
G01*
X188513500Y-61557000D01*
G75*
G02*
X188276000Y-61319500I0J237500D01*
G01*
X188276000Y-60844500D01*
G75*
G02*
X188513500Y-60607000I237500J0D01*
G01*
X189113500Y-60607000D01*
G75*
G02*
X189351000Y-60844500I0J-237500D01*
G01*
G37*
G36*
G01*
X145536000Y-84339500D02*
X145536000Y-84814500D01*
G75*
G02*
X145298500Y-85052000I-237500J0D01*
G01*
X144698500Y-85052000D01*
G75*
G02*
X144461000Y-84814500I0J237500D01*
G01*
X144461000Y-84339500D01*
G75*
G02*
X144698500Y-84102000I237500J0D01*
G01*
X145298500Y-84102000D01*
G75*
G02*
X145536000Y-84339500I0J-237500D01*
G01*
G37*
G36*
G01*
X147261000Y-84339500D02*
X147261000Y-84814500D01*
G75*
G02*
X147023500Y-85052000I-237500J0D01*
G01*
X146423500Y-85052000D01*
G75*
G02*
X146186000Y-84814500I0J237500D01*
G01*
X146186000Y-84339500D01*
G75*
G02*
X146423500Y-84102000I237500J0D01*
G01*
X147023500Y-84102000D01*
G75*
G02*
X147261000Y-84339500I0J-237500D01*
G01*
G37*
G36*
G01*
X157250000Y-75542000D02*
X157250000Y-75842000D01*
G75*
G02*
X157100000Y-75992000I-150000J0D01*
G01*
X155450000Y-75992000D01*
G75*
G02*
X155300000Y-75842000I0J150000D01*
G01*
X155300000Y-75542000D01*
G75*
G02*
X155450000Y-75392000I150000J0D01*
G01*
X157100000Y-75392000D01*
G75*
G02*
X157250000Y-75542000I0J-150000D01*
G01*
G37*
G36*
G01*
X157250000Y-74272000D02*
X157250000Y-74572000D01*
G75*
G02*
X157100000Y-74722000I-150000J0D01*
G01*
X155450000Y-74722000D01*
G75*
G02*
X155300000Y-74572000I0J150000D01*
G01*
X155300000Y-74272000D01*
G75*
G02*
X155450000Y-74122000I150000J0D01*
G01*
X157100000Y-74122000D01*
G75*
G02*
X157250000Y-74272000I0J-150000D01*
G01*
G37*
G36*
G01*
X157250000Y-73002000D02*
X157250000Y-73302000D01*
G75*
G02*
X157100000Y-73452000I-150000J0D01*
G01*
X155450000Y-73452000D01*
G75*
G02*
X155300000Y-73302000I0J150000D01*
G01*
X155300000Y-73002000D01*
G75*
G02*
X155450000Y-72852000I150000J0D01*
G01*
X157100000Y-72852000D01*
G75*
G02*
X157250000Y-73002000I0J-150000D01*
G01*
G37*
G36*
G01*
X157250000Y-71732000D02*
X157250000Y-72032000D01*
G75*
G02*
X157100000Y-72182000I-150000J0D01*
G01*
X155450000Y-72182000D01*
G75*
G02*
X155300000Y-72032000I0J150000D01*
G01*
X155300000Y-71732000D01*
G75*
G02*
X155450000Y-71582000I150000J0D01*
G01*
X157100000Y-71582000D01*
G75*
G02*
X157250000Y-71732000I0J-150000D01*
G01*
G37*
G36*
G01*
X162200000Y-71732000D02*
X162200000Y-72032000D01*
G75*
G02*
X162050000Y-72182000I-150000J0D01*
G01*
X160400000Y-72182000D01*
G75*
G02*
X160250000Y-72032000I0J150000D01*
G01*
X160250000Y-71732000D01*
G75*
G02*
X160400000Y-71582000I150000J0D01*
G01*
X162050000Y-71582000D01*
G75*
G02*
X162200000Y-71732000I0J-150000D01*
G01*
G37*
G36*
G01*
X162200000Y-73002000D02*
X162200000Y-73302000D01*
G75*
G02*
X162050000Y-73452000I-150000J0D01*
G01*
X160400000Y-73452000D01*
G75*
G02*
X160250000Y-73302000I0J150000D01*
G01*
X160250000Y-73002000D01*
G75*
G02*
X160400000Y-72852000I150000J0D01*
G01*
X162050000Y-72852000D01*
G75*
G02*
X162200000Y-73002000I0J-150000D01*
G01*
G37*
G36*
G01*
X162200000Y-74272000D02*
X162200000Y-74572000D01*
G75*
G02*
X162050000Y-74722000I-150000J0D01*
G01*
X160400000Y-74722000D01*
G75*
G02*
X160250000Y-74572000I0J150000D01*
G01*
X160250000Y-74272000D01*
G75*
G02*
X160400000Y-74122000I150000J0D01*
G01*
X162050000Y-74122000D01*
G75*
G02*
X162200000Y-74272000I0J-150000D01*
G01*
G37*
G36*
G01*
X162200000Y-75542000D02*
X162200000Y-75842000D01*
G75*
G02*
X162050000Y-75992000I-150000J0D01*
G01*
X160400000Y-75992000D01*
G75*
G02*
X160250000Y-75842000I0J150000D01*
G01*
X160250000Y-75542000D01*
G75*
G02*
X160400000Y-75392000I150000J0D01*
G01*
X162050000Y-75392000D01*
G75*
G02*
X162200000Y-75542000I0J-150000D01*
G01*
G37*
D15*
X153227000Y-68980000D03*
X154177000Y-71980000D03*
X152277000Y-71980000D03*
M02*
