%FSLAX45Y45*%
G04 Gerber Fmt 4.5, Leading zero omitted, Abs format (unit mm)*
G04 Created by KiCad (PCBNEW 5.1.9) date 2021-04-12 05:07:19*
%MOMM*%
%LPD*%
G01*
G04 APERTURE LIST*
%TA.AperFunction,Profile*%
%ADD10C,0.050000*%
%TD*%
%ADD11C,0.200000*%
%ADD12C,0.300000*%
G04 APERTURE END LIST*
D10*
X19572640Y-8849934D02*
X12072292Y-8849998D01*
X19572640Y-5241400D02*
X19572640Y-8849898D01*
X12072292Y-5241400D02*
X19572640Y-5241400D01*
X12072292Y-8849998D02*
X12072292Y-5241400D01*
D11*
X13255500Y-7210920D02*
X13300500Y-7255920D01*
X13300500Y-7210920D02*
X13255500Y-7255920D01*
X13278360Y-7360780D02*
X13323360Y-7405780D01*
X13323360Y-7360780D02*
X13278360Y-7405780D01*
X13313920Y-7505560D02*
X13358920Y-7550560D01*
X13358920Y-7505560D02*
X13313920Y-7550560D01*
X13359630Y-6992470D02*
X13404630Y-7037470D01*
X13404630Y-6992470D02*
X13359630Y-7037470D01*
X13379960Y-6784200D02*
X13424960Y-6829200D01*
X13424960Y-6784200D02*
X13379960Y-6829200D01*
X13440920Y-7576680D02*
X13485920Y-7621680D01*
X13485920Y-7576680D02*
X13440920Y-7621680D01*
X13595860Y-6492100D02*
X13640860Y-6537100D01*
X13640860Y-6492100D02*
X13595860Y-6537100D01*
X13603480Y-7635100D02*
X13648480Y-7680100D01*
X13648480Y-7635100D02*
X13603480Y-7680100D01*
X14296900Y-6057760D02*
X14341900Y-6102760D01*
X14341900Y-6057760D02*
X14296900Y-6102760D01*
X14347700Y-8097380D02*
X14392700Y-8142380D01*
X14392700Y-8097380D02*
X14347700Y-8142380D01*
X14428980Y-6057760D02*
X14473980Y-6102760D01*
X14473980Y-6057760D02*
X14428980Y-6102760D01*
X14561060Y-7805280D02*
X14606060Y-7850280D01*
X14606060Y-7805280D02*
X14561060Y-7850280D01*
X14566140Y-6062840D02*
X14611140Y-6107840D01*
X14611140Y-6062840D02*
X14566140Y-6107840D01*
X14571220Y-8267560D02*
X14616220Y-8312560D01*
X14616220Y-8267560D02*
X14571220Y-8312560D01*
X14728700Y-6060300D02*
X14773700Y-6105300D01*
X14773700Y-6060300D02*
X14728700Y-6105300D01*
X14901420Y-6060300D02*
X14946420Y-6105300D01*
X14946420Y-6060300D02*
X14901420Y-6105300D01*
X15046200Y-8282800D02*
X15091200Y-8327800D01*
X15091200Y-8282800D02*
X15046200Y-8327800D01*
X15084300Y-6060300D02*
X15129300Y-6105300D01*
X15129300Y-6060300D02*
X15084300Y-6105300D01*
X15091201Y-6828099D02*
X15136201Y-6873099D01*
X15136201Y-6828099D02*
X15091201Y-6873099D01*
X15097000Y-7739240D02*
X15142000Y-7784240D01*
X15142000Y-7739240D02*
X15097000Y-7784240D01*
X15147800Y-5971400D02*
X15192800Y-6016400D01*
X15192800Y-5971400D02*
X15147800Y-6016400D01*
X15345920Y-7589380D02*
X15390920Y-7634380D01*
X15390920Y-7589380D02*
X15345920Y-7634380D01*
X15542810Y-8276490D02*
X15587810Y-8321490D01*
X15587810Y-8276490D02*
X15542810Y-8321490D01*
X15655800Y-8549500D02*
X15700800Y-8594500D01*
X15700800Y-8549500D02*
X15655800Y-8594500D01*
X15724380Y-8138020D02*
X15769380Y-8183020D01*
X15769380Y-8138020D02*
X15724380Y-8183020D01*
X15853920Y-7033120D02*
X15898920Y-7078120D01*
X15898920Y-7033120D02*
X15853920Y-7078120D01*
X15864080Y-7670660D02*
X15909080Y-7715660D01*
X15909080Y-7670660D02*
X15864080Y-7715660D01*
X15913300Y-6784200D02*
X15958300Y-6829200D01*
X15958300Y-6784200D02*
X15913300Y-6829200D01*
X15917030Y-7505170D02*
X15962030Y-7550170D01*
X15962030Y-7505170D02*
X15917030Y-7550170D01*
X16026640Y-6235560D02*
X16071640Y-6280560D01*
X16071640Y-6235560D02*
X16026640Y-6280560D01*
X16062200Y-7038200D02*
X16107200Y-7083200D01*
X16107200Y-7038200D02*
X16062200Y-7083200D01*
X16074900Y-8003400D02*
X16119900Y-8048400D01*
X16119900Y-8003400D02*
X16074900Y-8048400D01*
X16201900Y-7647800D02*
X16246900Y-7692800D01*
X16246900Y-7647800D02*
X16201900Y-7692800D01*
X16341600Y-6070460D02*
X16386600Y-6115460D01*
X16386600Y-6070460D02*
X16341600Y-6115460D01*
X16400785Y-8214985D02*
X16445785Y-8259985D01*
X16445785Y-8214985D02*
X16400785Y-8259985D01*
X16468600Y-7498899D02*
X16513600Y-7543899D01*
X16513600Y-7498899D02*
X16468600Y-7543899D01*
X16532100Y-5717400D02*
X16577100Y-5762400D01*
X16577100Y-5717400D02*
X16532100Y-5762400D01*
X16535792Y-8346498D02*
X16580792Y-8391498D01*
X16580792Y-8346498D02*
X16535792Y-8391498D01*
X16580360Y-6768960D02*
X16625360Y-6813960D01*
X16625360Y-6768960D02*
X16580360Y-6813960D01*
X16633700Y-7139800D02*
X16678700Y-7184800D01*
X16678700Y-7139800D02*
X16633700Y-7184800D01*
X16659100Y-6250800D02*
X16704100Y-6295800D01*
X16704100Y-6250800D02*
X16659100Y-6295800D01*
X16659100Y-6365100D02*
X16704100Y-6410100D01*
X16704100Y-6365100D02*
X16659100Y-6410100D01*
X16659100Y-7584300D02*
X16704100Y-7629300D01*
X16704100Y-7584300D02*
X16659100Y-7629300D01*
X16675500Y-8048901D02*
X16720500Y-8093901D01*
X16720500Y-8048901D02*
X16675500Y-8093901D01*
X16732063Y-7669700D02*
X16777063Y-7714700D01*
X16777063Y-7669700D02*
X16732063Y-7714700D01*
X16748000Y-7025500D02*
X16793000Y-7070500D01*
X16793000Y-7025500D02*
X16748000Y-7070500D01*
X16811500Y-8155800D02*
X16856500Y-8200800D01*
X16856500Y-8155800D02*
X16811500Y-8200800D01*
X16824200Y-7736700D02*
X16869200Y-7781700D01*
X16869200Y-7736700D02*
X16824200Y-7781700D01*
X16862300Y-7343000D02*
X16907300Y-7388000D01*
X16907300Y-7343000D02*
X16862300Y-7388000D01*
X16958820Y-7467460D02*
X17003820Y-7512460D01*
X17003820Y-7467460D02*
X16958820Y-7512460D01*
X16963900Y-7330300D02*
X17008900Y-7375300D01*
X17008900Y-7330300D02*
X16963900Y-7375300D01*
X16989300Y-8447900D02*
X17034300Y-8492900D01*
X17034300Y-8447900D02*
X16989300Y-8492900D01*
X17002000Y-6708000D02*
X17047000Y-6753000D01*
X17047000Y-6708000D02*
X17002000Y-6753000D01*
X17033128Y-6989015D02*
X17078128Y-7034015D01*
X17078128Y-6989015D02*
X17033128Y-7034015D01*
X17065500Y-8155800D02*
X17110500Y-8200800D01*
X17110500Y-8155800D02*
X17065500Y-8200800D01*
X17078217Y-7698729D02*
X17123217Y-7743729D01*
X17123217Y-7698729D02*
X17078217Y-7743729D01*
X17080740Y-7574140D02*
X17125740Y-7619140D01*
X17125740Y-7574140D02*
X17080740Y-7619140D01*
X17116300Y-7863700D02*
X17161300Y-7908700D01*
X17161300Y-7863700D02*
X17116300Y-7908700D01*
X17129000Y-8460600D02*
X17174000Y-8505600D01*
X17174000Y-8460600D02*
X17129000Y-8505600D01*
X17167100Y-5552300D02*
X17212100Y-5597300D01*
X17212100Y-5552300D02*
X17167100Y-5597300D01*
X17370300Y-5679300D02*
X17415300Y-5724300D01*
X17415300Y-5679300D02*
X17370300Y-5724300D01*
X17464567Y-6332367D02*
X17509567Y-6377367D01*
X17509567Y-6332367D02*
X17464567Y-6377367D01*
X17606520Y-8381860D02*
X17651520Y-8426860D01*
X17651520Y-8381860D02*
X17606520Y-8426860D01*
X17670259Y-6387000D02*
X17715259Y-6432000D01*
X17715259Y-6387000D02*
X17670259Y-6432000D01*
X17738600Y-7800200D02*
X17783600Y-7845200D01*
X17783600Y-7800200D02*
X17738600Y-7845200D01*
X17791940Y-5773280D02*
X17836940Y-5818280D01*
X17836940Y-5773280D02*
X17791940Y-5818280D01*
X17911320Y-6705460D02*
X17956320Y-6750460D01*
X17956320Y-6705460D02*
X17911320Y-6750460D01*
X17916400Y-6034900D02*
X17961400Y-6079900D01*
X17961400Y-6034900D02*
X17916400Y-6079900D01*
X17972280Y-8379320D02*
X18017280Y-8424320D01*
X18017280Y-8379320D02*
X17972280Y-8424320D01*
X18096740Y-7561440D02*
X18141740Y-7606440D01*
X18141740Y-7561440D02*
X18096740Y-7606440D01*
X18132300Y-8003400D02*
X18177300Y-8048400D01*
X18177300Y-8003400D02*
X18132300Y-8048400D01*
X18231360Y-6395580D02*
X18276360Y-6440580D01*
X18276360Y-6395580D02*
X18231360Y-6440580D01*
X18272000Y-6034900D02*
X18317000Y-6079900D01*
X18317000Y-6034900D02*
X18272000Y-6079900D01*
X18292320Y-7851000D02*
X18337320Y-7896000D01*
X18337320Y-7851000D02*
X18292320Y-7896000D01*
X18409160Y-5816460D02*
X18454160Y-5861460D01*
X18454160Y-5816460D02*
X18409160Y-5861460D01*
X18417900Y-8070860D02*
X18462900Y-8115860D01*
X18462900Y-8070860D02*
X18417900Y-8115860D01*
X18467580Y-6774040D02*
X18512580Y-6819040D01*
X18512580Y-6774040D02*
X18467580Y-6819040D01*
X18475200Y-6926440D02*
X18520200Y-6971440D01*
X18520200Y-6926440D02*
X18475200Y-6971440D01*
X18495520Y-7884020D02*
X18540520Y-7929020D01*
X18540520Y-7884020D02*
X18495520Y-7929020D01*
X18589500Y-8196440D02*
X18634500Y-8241440D01*
X18634500Y-8196440D02*
X18589500Y-8241440D01*
X18653000Y-6390500D02*
X18698000Y-6435500D01*
X18698000Y-6390500D02*
X18653000Y-6435500D01*
X18910810Y-7321410D02*
X18955810Y-7366410D01*
X18955810Y-7321410D02*
X18910810Y-7366410D01*
X18928313Y-7994169D02*
X18973313Y-8039169D01*
X18973313Y-7994169D02*
X18928313Y-8039169D01*
X18934940Y-7817980D02*
X18979940Y-7862980D01*
X18979940Y-7817980D02*
X18934940Y-7862980D01*
X18945034Y-7659149D02*
X18990034Y-7704149D01*
X18990034Y-7659149D02*
X18945034Y-7704149D01*
X18951278Y-7487304D02*
X18996278Y-7532304D01*
X18996278Y-7487304D02*
X18951278Y-7532304D01*
X19046700Y-6327000D02*
X19091700Y-6372000D01*
X19091700Y-6327000D02*
X19046700Y-6372000D01*
X19053854Y-7157114D02*
X19098854Y-7202114D01*
X19098854Y-7157114D02*
X19053854Y-7202114D01*
X19161000Y-6093320D02*
X19206000Y-6138320D01*
X19206000Y-6093320D02*
X19161000Y-6138320D01*
X19310860Y-6329540D02*
X19355860Y-6374540D01*
X19355860Y-6329540D02*
X19310860Y-6374540D01*
X19326100Y-6451460D02*
X19371100Y-6496460D01*
X19371100Y-6451460D02*
X19326100Y-6496460D01*
X19364200Y-7820520D02*
X19409200Y-7865520D01*
X19409200Y-7820520D02*
X19364200Y-7865520D01*
X19376900Y-7066140D02*
X19421900Y-7111140D01*
X19421900Y-7066140D02*
X19376900Y-7111140D01*
X13520100Y-6668000D02*
G75*
G03*
X13520100Y-6668000I-45000J0D01*
G01*
X13520100Y-6922000D02*
G75*
G03*
X13520100Y-6922000I-45000J0D01*
G01*
X13520100Y-7176000D02*
G75*
G03*
X13520100Y-7176000I-45000J0D01*
G01*
X13520100Y-7430000D02*
G75*
G03*
X13520100Y-7430000I-45000J0D01*
G01*
X13774100Y-6795000D02*
G75*
G03*
X13774100Y-6795000I-45000J0D01*
G01*
X13774100Y-7049000D02*
G75*
G03*
X13774100Y-7049000I-45000J0D01*
G01*
X13774100Y-7303000D02*
G75*
G03*
X13774100Y-7303000I-45000J0D01*
G01*
X13774100Y-7557000D02*
G75*
G03*
X13774100Y-7557000I-45000J0D01*
G01*
X13145100Y-6257500D02*
X13145100Y-6417500D01*
X13065100Y-6337500D02*
X13225100Y-6337500D01*
X13145100Y-7807500D02*
X13145100Y-7967500D01*
X13065100Y-7887500D02*
X13225100Y-7887500D01*
D12*
X12356220Y-9318212D02*
X12356220Y-9018212D01*
X12427649Y-9018212D01*
X12470506Y-9032498D01*
X12499078Y-9061070D01*
X12513363Y-9089641D01*
X12527649Y-9146784D01*
X12527649Y-9189641D01*
X12513363Y-9246784D01*
X12499078Y-9275355D01*
X12470506Y-9303927D01*
X12427649Y-9318212D01*
X12356220Y-9318212D01*
X12656220Y-9318212D02*
X12656220Y-9118212D01*
X12656220Y-9175355D02*
X12670506Y-9146784D01*
X12684792Y-9132498D01*
X12713363Y-9118212D01*
X12741935Y-9118212D01*
X12841935Y-9318212D02*
X12841935Y-9118212D01*
X12841935Y-9018212D02*
X12827649Y-9032498D01*
X12841935Y-9046784D01*
X12856220Y-9032498D01*
X12841935Y-9018212D01*
X12841935Y-9046784D01*
X13027649Y-9318212D02*
X12999078Y-9303927D01*
X12984792Y-9275355D01*
X12984792Y-9018212D01*
X13184792Y-9318212D02*
X13156220Y-9303927D01*
X13141935Y-9275355D01*
X13141935Y-9018212D01*
X13527649Y-9318212D02*
X13527649Y-9018212D01*
X13627649Y-9232498D01*
X13727649Y-9018212D01*
X13727649Y-9318212D01*
X13999078Y-9318212D02*
X13999078Y-9161070D01*
X13984792Y-9132498D01*
X13956220Y-9118212D01*
X13899078Y-9118212D01*
X13870506Y-9132498D01*
X13999078Y-9303927D02*
X13970506Y-9318212D01*
X13899078Y-9318212D01*
X13870506Y-9303927D01*
X13856220Y-9275355D01*
X13856220Y-9246784D01*
X13870506Y-9218212D01*
X13899078Y-9203927D01*
X13970506Y-9203927D01*
X13999078Y-9189641D01*
X14141935Y-9118212D02*
X14141935Y-9418212D01*
X14141935Y-9132498D02*
X14170506Y-9118212D01*
X14227649Y-9118212D01*
X14256220Y-9132498D01*
X14270506Y-9146784D01*
X14284792Y-9175355D01*
X14284792Y-9261070D01*
X14270506Y-9289641D01*
X14256220Y-9303927D01*
X14227649Y-9318212D01*
X14170506Y-9318212D01*
X14141935Y-9303927D01*
X14413363Y-9289641D02*
X14427649Y-9303927D01*
X14413363Y-9318212D01*
X14399078Y-9303927D01*
X14413363Y-9289641D01*
X14413363Y-9318212D01*
X14413363Y-9132498D02*
X14427649Y-9146784D01*
X14413363Y-9161070D01*
X14399078Y-9146784D01*
X14413363Y-9132498D01*
X14413363Y-9161070D01*
X12024792Y-9789998D02*
X12069792Y-9834998D01*
X12069792Y-9789998D02*
X12024792Y-9834998D01*
X12413363Y-9648212D02*
X12441935Y-9648212D01*
X12470506Y-9662498D01*
X12484792Y-9676784D01*
X12499078Y-9705355D01*
X12513363Y-9762498D01*
X12513363Y-9833927D01*
X12499078Y-9891070D01*
X12484792Y-9919641D01*
X12470506Y-9933927D01*
X12441935Y-9948212D01*
X12413363Y-9948212D01*
X12384792Y-9933927D01*
X12370506Y-9919641D01*
X12356220Y-9891070D01*
X12341935Y-9833927D01*
X12341935Y-9762498D01*
X12356220Y-9705355D01*
X12370506Y-9676784D01*
X12384792Y-9662498D01*
X12413363Y-9648212D01*
X12641935Y-9919641D02*
X12656220Y-9933927D01*
X12641935Y-9948212D01*
X12627649Y-9933927D01*
X12641935Y-9919641D01*
X12641935Y-9948212D01*
X12913363Y-9748212D02*
X12913363Y-9948212D01*
X12841935Y-9633927D02*
X12770506Y-9848212D01*
X12956220Y-9848212D01*
X13213363Y-9648212D02*
X13070506Y-9648212D01*
X13056220Y-9791070D01*
X13070506Y-9776784D01*
X13099078Y-9762498D01*
X13170506Y-9762498D01*
X13199078Y-9776784D01*
X13213363Y-9791070D01*
X13227649Y-9819641D01*
X13227649Y-9891070D01*
X13213363Y-9919641D01*
X13199078Y-9933927D01*
X13170506Y-9948212D01*
X13099078Y-9948212D01*
X13070506Y-9933927D01*
X13056220Y-9919641D01*
X13356220Y-9948212D02*
X13356220Y-9748212D01*
X13356220Y-9776784D02*
X13370506Y-9762498D01*
X13399078Y-9748212D01*
X13441935Y-9748212D01*
X13470506Y-9762498D01*
X13484792Y-9791070D01*
X13484792Y-9948212D01*
X13484792Y-9791070D02*
X13499078Y-9762498D01*
X13527649Y-9748212D01*
X13570506Y-9748212D01*
X13599078Y-9762498D01*
X13613363Y-9791070D01*
X13613363Y-9948212D01*
X13756220Y-9948212D02*
X13756220Y-9748212D01*
X13756220Y-9776784D02*
X13770506Y-9762498D01*
X13799078Y-9748212D01*
X13841935Y-9748212D01*
X13870506Y-9762498D01*
X13884792Y-9791070D01*
X13884792Y-9948212D01*
X13884792Y-9791070D02*
X13899078Y-9762498D01*
X13927649Y-9748212D01*
X13970506Y-9748212D01*
X13999078Y-9762498D01*
X14013363Y-9791070D01*
X14013363Y-9948212D01*
X14599078Y-9633927D02*
X14341935Y-10019641D01*
X14984792Y-9648212D02*
X15013363Y-9648212D01*
X15041935Y-9662498D01*
X15056220Y-9676784D01*
X15070506Y-9705355D01*
X15084792Y-9762498D01*
X15084792Y-9833927D01*
X15070506Y-9891070D01*
X15056220Y-9919641D01*
X15041935Y-9933927D01*
X15013363Y-9948212D01*
X14984792Y-9948212D01*
X14956220Y-9933927D01*
X14941935Y-9919641D01*
X14927649Y-9891070D01*
X14913363Y-9833927D01*
X14913363Y-9762498D01*
X14927649Y-9705355D01*
X14941935Y-9676784D01*
X14956220Y-9662498D01*
X14984792Y-9648212D01*
X15213363Y-9919641D02*
X15227649Y-9933927D01*
X15213363Y-9948212D01*
X15199078Y-9933927D01*
X15213363Y-9919641D01*
X15213363Y-9948212D01*
X15413363Y-9648212D02*
X15441935Y-9648212D01*
X15470506Y-9662498D01*
X15484792Y-9676784D01*
X15499078Y-9705355D01*
X15513363Y-9762498D01*
X15513363Y-9833927D01*
X15499078Y-9891070D01*
X15484792Y-9919641D01*
X15470506Y-9933927D01*
X15441935Y-9948212D01*
X15413363Y-9948212D01*
X15384792Y-9933927D01*
X15370506Y-9919641D01*
X15356220Y-9891070D01*
X15341935Y-9833927D01*
X15341935Y-9762498D01*
X15356220Y-9705355D01*
X15370506Y-9676784D01*
X15384792Y-9662498D01*
X15413363Y-9648212D01*
X15799078Y-9948212D02*
X15627649Y-9948212D01*
X15713363Y-9948212D02*
X15713363Y-9648212D01*
X15684792Y-9691070D01*
X15656220Y-9719641D01*
X15627649Y-9733927D01*
X15970506Y-9776784D02*
X15941935Y-9762498D01*
X15927649Y-9748212D01*
X15913363Y-9719641D01*
X15913363Y-9705355D01*
X15927649Y-9676784D01*
X15941935Y-9662498D01*
X15970506Y-9648212D01*
X16027649Y-9648212D01*
X16056220Y-9662498D01*
X16070506Y-9676784D01*
X16084792Y-9705355D01*
X16084792Y-9719641D01*
X16070506Y-9748212D01*
X16056220Y-9762498D01*
X16027649Y-9776784D01*
X15970506Y-9776784D01*
X15941935Y-9791070D01*
X15927649Y-9805355D01*
X15913363Y-9833927D01*
X15913363Y-9891070D01*
X15927649Y-9919641D01*
X15941935Y-9933927D01*
X15970506Y-9948212D01*
X16027649Y-9948212D01*
X16056220Y-9933927D01*
X16070506Y-9919641D01*
X16084792Y-9891070D01*
X16084792Y-9833927D01*
X16070506Y-9805355D01*
X16056220Y-9791070D01*
X16027649Y-9776784D01*
X16199078Y-9648212D02*
X16199078Y-9705355D01*
X16313363Y-9648212D02*
X16313363Y-9705355D01*
X16756220Y-10062498D02*
X16741935Y-10048212D01*
X16713363Y-10005355D01*
X16699078Y-9976784D01*
X16684792Y-9933927D01*
X16670506Y-9862498D01*
X16670506Y-9805355D01*
X16684792Y-9733927D01*
X16699078Y-9691070D01*
X16713363Y-9662498D01*
X16741935Y-9619641D01*
X16756220Y-9605355D01*
X16884792Y-9948212D02*
X16941935Y-9948212D01*
X16970506Y-9933927D01*
X16984792Y-9919641D01*
X17013363Y-9876784D01*
X17027649Y-9819641D01*
X17027649Y-9705355D01*
X17013363Y-9676784D01*
X16999078Y-9662498D01*
X16970506Y-9648212D01*
X16913363Y-9648212D01*
X16884792Y-9662498D01*
X16870506Y-9676784D01*
X16856220Y-9705355D01*
X16856220Y-9776784D01*
X16870506Y-9805355D01*
X16884792Y-9819641D01*
X16913363Y-9833927D01*
X16970506Y-9833927D01*
X16999078Y-9819641D01*
X17013363Y-9805355D01*
X17027649Y-9776784D01*
X17127649Y-9648212D02*
X17313363Y-9648212D01*
X17213363Y-9762498D01*
X17256220Y-9762498D01*
X17284792Y-9776784D01*
X17299078Y-9791070D01*
X17313363Y-9819641D01*
X17313363Y-9891070D01*
X17299078Y-9919641D01*
X17284792Y-9933927D01*
X17256220Y-9948212D01*
X17170506Y-9948212D01*
X17141935Y-9933927D01*
X17127649Y-9919641D01*
X17670506Y-9948212D02*
X17670506Y-9648212D01*
X17799078Y-9948212D02*
X17799078Y-9791070D01*
X17784792Y-9762498D01*
X17756220Y-9748212D01*
X17713363Y-9748212D01*
X17684792Y-9762498D01*
X17670506Y-9776784D01*
X17984792Y-9948212D02*
X17956220Y-9933927D01*
X17941935Y-9919641D01*
X17927649Y-9891070D01*
X17927649Y-9805355D01*
X17941935Y-9776784D01*
X17956220Y-9762498D01*
X17984792Y-9748212D01*
X18027649Y-9748212D01*
X18056220Y-9762498D01*
X18070506Y-9776784D01*
X18084792Y-9805355D01*
X18084792Y-9891070D01*
X18070506Y-9919641D01*
X18056220Y-9933927D01*
X18027649Y-9948212D01*
X17984792Y-9948212D01*
X18256220Y-9948212D02*
X18227649Y-9933927D01*
X18213363Y-9905355D01*
X18213363Y-9648212D01*
X18484792Y-9933927D02*
X18456220Y-9948212D01*
X18399078Y-9948212D01*
X18370506Y-9933927D01*
X18356220Y-9905355D01*
X18356220Y-9791070D01*
X18370506Y-9762498D01*
X18399078Y-9748212D01*
X18456220Y-9748212D01*
X18484792Y-9762498D01*
X18499078Y-9791070D01*
X18499078Y-9819641D01*
X18356220Y-9848212D01*
X18613363Y-9933927D02*
X18641935Y-9948212D01*
X18699078Y-9948212D01*
X18727649Y-9933927D01*
X18741935Y-9905355D01*
X18741935Y-9891070D01*
X18727649Y-9862498D01*
X18699078Y-9848212D01*
X18656220Y-9848212D01*
X18627649Y-9833927D01*
X18613363Y-9805355D01*
X18613363Y-9791070D01*
X18627649Y-9762498D01*
X18656220Y-9748212D01*
X18699078Y-9748212D01*
X18727649Y-9762498D01*
X18841935Y-10062498D02*
X18856220Y-10048212D01*
X18884792Y-10005355D01*
X18899078Y-9976784D01*
X18913363Y-9933927D01*
X18927649Y-9862498D01*
X18927649Y-9805355D01*
X18913363Y-9733927D01*
X18899078Y-9691070D01*
X18884792Y-9662498D01*
X18856220Y-9619641D01*
X18841935Y-9605355D01*
X12069792Y-10208498D02*
G75*
G03*
X12069792Y-10208498I-45000J0D01*
G01*
X12413363Y-10044212D02*
X12441935Y-10044212D01*
X12470506Y-10058498D01*
X12484792Y-10072784D01*
X12499078Y-10101355D01*
X12513363Y-10158498D01*
X12513363Y-10229927D01*
X12499078Y-10287070D01*
X12484792Y-10315641D01*
X12470506Y-10329927D01*
X12441935Y-10344212D01*
X12413363Y-10344212D01*
X12384792Y-10329927D01*
X12370506Y-10315641D01*
X12356220Y-10287070D01*
X12341935Y-10229927D01*
X12341935Y-10158498D01*
X12356220Y-10101355D01*
X12370506Y-10072784D01*
X12384792Y-10058498D01*
X12413363Y-10044212D01*
X12641935Y-10315641D02*
X12656220Y-10329927D01*
X12641935Y-10344212D01*
X12627649Y-10329927D01*
X12641935Y-10315641D01*
X12641935Y-10344212D01*
X12799078Y-10344212D02*
X12856220Y-10344212D01*
X12884792Y-10329927D01*
X12899078Y-10315641D01*
X12927649Y-10272784D01*
X12941935Y-10215641D01*
X12941935Y-10101355D01*
X12927649Y-10072784D01*
X12913363Y-10058498D01*
X12884792Y-10044212D01*
X12827649Y-10044212D01*
X12799078Y-10058498D01*
X12784792Y-10072784D01*
X12770506Y-10101355D01*
X12770506Y-10172784D01*
X12784792Y-10201355D01*
X12799078Y-10215641D01*
X12827649Y-10229927D01*
X12884792Y-10229927D01*
X12913363Y-10215641D01*
X12927649Y-10201355D01*
X12941935Y-10172784D01*
X13127649Y-10044212D02*
X13156220Y-10044212D01*
X13184792Y-10058498D01*
X13199078Y-10072784D01*
X13213363Y-10101355D01*
X13227649Y-10158498D01*
X13227649Y-10229927D01*
X13213363Y-10287070D01*
X13199078Y-10315641D01*
X13184792Y-10329927D01*
X13156220Y-10344212D01*
X13127649Y-10344212D01*
X13099078Y-10329927D01*
X13084792Y-10315641D01*
X13070506Y-10287070D01*
X13056220Y-10229927D01*
X13056220Y-10158498D01*
X13070506Y-10101355D01*
X13084792Y-10072784D01*
X13099078Y-10058498D01*
X13127649Y-10044212D01*
X13356220Y-10344212D02*
X13356220Y-10144212D01*
X13356220Y-10172784D02*
X13370506Y-10158498D01*
X13399078Y-10144212D01*
X13441935Y-10144212D01*
X13470506Y-10158498D01*
X13484792Y-10187070D01*
X13484792Y-10344212D01*
X13484792Y-10187070D02*
X13499078Y-10158498D01*
X13527649Y-10144212D01*
X13570506Y-10144212D01*
X13599078Y-10158498D01*
X13613363Y-10187070D01*
X13613363Y-10344212D01*
X13756220Y-10344212D02*
X13756220Y-10144212D01*
X13756220Y-10172784D02*
X13770506Y-10158498D01*
X13799078Y-10144212D01*
X13841935Y-10144212D01*
X13870506Y-10158498D01*
X13884792Y-10187070D01*
X13884792Y-10344212D01*
X13884792Y-10187070D02*
X13899078Y-10158498D01*
X13927649Y-10144212D01*
X13970506Y-10144212D01*
X13999078Y-10158498D01*
X14013363Y-10187070D01*
X14013363Y-10344212D01*
X14599078Y-10029927D02*
X14341935Y-10415641D01*
X14984792Y-10044212D02*
X15013363Y-10044212D01*
X15041935Y-10058498D01*
X15056220Y-10072784D01*
X15070506Y-10101355D01*
X15084792Y-10158498D01*
X15084792Y-10229927D01*
X15070506Y-10287070D01*
X15056220Y-10315641D01*
X15041935Y-10329927D01*
X15013363Y-10344212D01*
X14984792Y-10344212D01*
X14956220Y-10329927D01*
X14941935Y-10315641D01*
X14927649Y-10287070D01*
X14913363Y-10229927D01*
X14913363Y-10158498D01*
X14927649Y-10101355D01*
X14941935Y-10072784D01*
X14956220Y-10058498D01*
X14984792Y-10044212D01*
X15213363Y-10315641D02*
X15227649Y-10329927D01*
X15213363Y-10344212D01*
X15199078Y-10329927D01*
X15213363Y-10315641D01*
X15213363Y-10344212D01*
X15413363Y-10044212D02*
X15441935Y-10044212D01*
X15470506Y-10058498D01*
X15484792Y-10072784D01*
X15499078Y-10101355D01*
X15513363Y-10158498D01*
X15513363Y-10229927D01*
X15499078Y-10287070D01*
X15484792Y-10315641D01*
X15470506Y-10329927D01*
X15441935Y-10344212D01*
X15413363Y-10344212D01*
X15384792Y-10329927D01*
X15370506Y-10315641D01*
X15356220Y-10287070D01*
X15341935Y-10229927D01*
X15341935Y-10158498D01*
X15356220Y-10101355D01*
X15370506Y-10072784D01*
X15384792Y-10058498D01*
X15413363Y-10044212D01*
X15613363Y-10044212D02*
X15799078Y-10044212D01*
X15699078Y-10158498D01*
X15741935Y-10158498D01*
X15770506Y-10172784D01*
X15784792Y-10187070D01*
X15799078Y-10215641D01*
X15799078Y-10287070D01*
X15784792Y-10315641D01*
X15770506Y-10329927D01*
X15741935Y-10344212D01*
X15656220Y-10344212D01*
X15627649Y-10329927D01*
X15613363Y-10315641D01*
X16070506Y-10044212D02*
X15927649Y-10044212D01*
X15913363Y-10187070D01*
X15927649Y-10172784D01*
X15956220Y-10158498D01*
X16027649Y-10158498D01*
X16056220Y-10172784D01*
X16070506Y-10187070D01*
X16084792Y-10215641D01*
X16084792Y-10287070D01*
X16070506Y-10315641D01*
X16056220Y-10329927D01*
X16027649Y-10344212D01*
X15956220Y-10344212D01*
X15927649Y-10329927D01*
X15913363Y-10315641D01*
X16199078Y-10044212D02*
X16199078Y-10101355D01*
X16313363Y-10044212D02*
X16313363Y-10101355D01*
X16756220Y-10458498D02*
X16741935Y-10444212D01*
X16713363Y-10401355D01*
X16699078Y-10372784D01*
X16684792Y-10329927D01*
X16670506Y-10258498D01*
X16670506Y-10201355D01*
X16684792Y-10129927D01*
X16699078Y-10087070D01*
X16713363Y-10058498D01*
X16741935Y-10015641D01*
X16756220Y-10001355D01*
X16913363Y-10172784D02*
X16884792Y-10158498D01*
X16870506Y-10144212D01*
X16856220Y-10115641D01*
X16856220Y-10101355D01*
X16870506Y-10072784D01*
X16884792Y-10058498D01*
X16913363Y-10044212D01*
X16970506Y-10044212D01*
X16999078Y-10058498D01*
X17013363Y-10072784D01*
X17027649Y-10101355D01*
X17027649Y-10115641D01*
X17013363Y-10144212D01*
X16999078Y-10158498D01*
X16970506Y-10172784D01*
X16913363Y-10172784D01*
X16884792Y-10187070D01*
X16870506Y-10201355D01*
X16856220Y-10229927D01*
X16856220Y-10287070D01*
X16870506Y-10315641D01*
X16884792Y-10329927D01*
X16913363Y-10344212D01*
X16970506Y-10344212D01*
X16999078Y-10329927D01*
X17013363Y-10315641D01*
X17027649Y-10287070D01*
X17027649Y-10229927D01*
X17013363Y-10201355D01*
X16999078Y-10187070D01*
X16970506Y-10172784D01*
X17384792Y-10344212D02*
X17384792Y-10044212D01*
X17513363Y-10344212D02*
X17513363Y-10187070D01*
X17499078Y-10158498D01*
X17470506Y-10144212D01*
X17427649Y-10144212D01*
X17399078Y-10158498D01*
X17384792Y-10172784D01*
X17699078Y-10344212D02*
X17670506Y-10329927D01*
X17656220Y-10315641D01*
X17641935Y-10287070D01*
X17641935Y-10201355D01*
X17656220Y-10172784D01*
X17670506Y-10158498D01*
X17699078Y-10144212D01*
X17741935Y-10144212D01*
X17770506Y-10158498D01*
X17784792Y-10172784D01*
X17799078Y-10201355D01*
X17799078Y-10287070D01*
X17784792Y-10315641D01*
X17770506Y-10329927D01*
X17741935Y-10344212D01*
X17699078Y-10344212D01*
X17970506Y-10344212D02*
X17941935Y-10329927D01*
X17927649Y-10301355D01*
X17927649Y-10044212D01*
X18199078Y-10329927D02*
X18170506Y-10344212D01*
X18113363Y-10344212D01*
X18084792Y-10329927D01*
X18070506Y-10301355D01*
X18070506Y-10187070D01*
X18084792Y-10158498D01*
X18113363Y-10144212D01*
X18170506Y-10144212D01*
X18199078Y-10158498D01*
X18213363Y-10187070D01*
X18213363Y-10215641D01*
X18070506Y-10244212D01*
X18327649Y-10329927D02*
X18356220Y-10344212D01*
X18413363Y-10344212D01*
X18441935Y-10329927D01*
X18456220Y-10301355D01*
X18456220Y-10287070D01*
X18441935Y-10258498D01*
X18413363Y-10244212D01*
X18370506Y-10244212D01*
X18341935Y-10229927D01*
X18327649Y-10201355D01*
X18327649Y-10187070D01*
X18341935Y-10158498D01*
X18370506Y-10144212D01*
X18413363Y-10144212D01*
X18441935Y-10158498D01*
X18556220Y-10458498D02*
X18570506Y-10444212D01*
X18599078Y-10401355D01*
X18613363Y-10372784D01*
X18627649Y-10329927D01*
X18641935Y-10258498D01*
X18641935Y-10201355D01*
X18627649Y-10129927D01*
X18613363Y-10087070D01*
X18599078Y-10058498D01*
X18570506Y-10015641D01*
X18556220Y-10001355D01*
X11989792Y-10524498D02*
X11989792Y-10684498D01*
X11909792Y-10604498D02*
X12069792Y-10604498D01*
X12513363Y-10740212D02*
X12341935Y-10740212D01*
X12427649Y-10740212D02*
X12427649Y-10440212D01*
X12399078Y-10483070D01*
X12370506Y-10511641D01*
X12341935Y-10525927D01*
X12641935Y-10711641D02*
X12656220Y-10725927D01*
X12641935Y-10740212D01*
X12627649Y-10725927D01*
X12641935Y-10711641D01*
X12641935Y-10740212D01*
X12913363Y-10440212D02*
X12856220Y-10440212D01*
X12827649Y-10454498D01*
X12813363Y-10468784D01*
X12784792Y-10511641D01*
X12770506Y-10568784D01*
X12770506Y-10683070D01*
X12784792Y-10711641D01*
X12799078Y-10725927D01*
X12827649Y-10740212D01*
X12884792Y-10740212D01*
X12913363Y-10725927D01*
X12927649Y-10711641D01*
X12941935Y-10683070D01*
X12941935Y-10611641D01*
X12927649Y-10583070D01*
X12913363Y-10568784D01*
X12884792Y-10554498D01*
X12827649Y-10554498D01*
X12799078Y-10568784D01*
X12784792Y-10583070D01*
X12770506Y-10611641D01*
X13127649Y-10440212D02*
X13156220Y-10440212D01*
X13184792Y-10454498D01*
X13199078Y-10468784D01*
X13213363Y-10497355D01*
X13227649Y-10554498D01*
X13227649Y-10625927D01*
X13213363Y-10683070D01*
X13199078Y-10711641D01*
X13184792Y-10725927D01*
X13156220Y-10740212D01*
X13127649Y-10740212D01*
X13099078Y-10725927D01*
X13084792Y-10711641D01*
X13070506Y-10683070D01*
X13056220Y-10625927D01*
X13056220Y-10554498D01*
X13070506Y-10497355D01*
X13084792Y-10468784D01*
X13099078Y-10454498D01*
X13127649Y-10440212D01*
X13356220Y-10740212D02*
X13356220Y-10540212D01*
X13356220Y-10568784D02*
X13370506Y-10554498D01*
X13399078Y-10540212D01*
X13441935Y-10540212D01*
X13470506Y-10554498D01*
X13484792Y-10583070D01*
X13484792Y-10740212D01*
X13484792Y-10583070D02*
X13499078Y-10554498D01*
X13527649Y-10540212D01*
X13570506Y-10540212D01*
X13599078Y-10554498D01*
X13613363Y-10583070D01*
X13613363Y-10740212D01*
X13756220Y-10740212D02*
X13756220Y-10540212D01*
X13756220Y-10568784D02*
X13770506Y-10554498D01*
X13799078Y-10540212D01*
X13841935Y-10540212D01*
X13870506Y-10554498D01*
X13884792Y-10583070D01*
X13884792Y-10740212D01*
X13884792Y-10583070D02*
X13899078Y-10554498D01*
X13927649Y-10540212D01*
X13970506Y-10540212D01*
X13999078Y-10554498D01*
X14013363Y-10583070D01*
X14013363Y-10740212D01*
X14599078Y-10425927D02*
X14341935Y-10811641D01*
X14984792Y-10440212D02*
X15013363Y-10440212D01*
X15041935Y-10454498D01*
X15056220Y-10468784D01*
X15070506Y-10497355D01*
X15084792Y-10554498D01*
X15084792Y-10625927D01*
X15070506Y-10683070D01*
X15056220Y-10711641D01*
X15041935Y-10725927D01*
X15013363Y-10740212D01*
X14984792Y-10740212D01*
X14956220Y-10725927D01*
X14941935Y-10711641D01*
X14927649Y-10683070D01*
X14913363Y-10625927D01*
X14913363Y-10554498D01*
X14927649Y-10497355D01*
X14941935Y-10468784D01*
X14956220Y-10454498D01*
X14984792Y-10440212D01*
X15213363Y-10711641D02*
X15227649Y-10725927D01*
X15213363Y-10740212D01*
X15199078Y-10725927D01*
X15213363Y-10711641D01*
X15213363Y-10740212D01*
X15413363Y-10440212D02*
X15441935Y-10440212D01*
X15470506Y-10454498D01*
X15484792Y-10468784D01*
X15499078Y-10497355D01*
X15513363Y-10554498D01*
X15513363Y-10625927D01*
X15499078Y-10683070D01*
X15484792Y-10711641D01*
X15470506Y-10725927D01*
X15441935Y-10740212D01*
X15413363Y-10740212D01*
X15384792Y-10725927D01*
X15370506Y-10711641D01*
X15356220Y-10683070D01*
X15341935Y-10625927D01*
X15341935Y-10554498D01*
X15356220Y-10497355D01*
X15370506Y-10468784D01*
X15384792Y-10454498D01*
X15413363Y-10440212D01*
X15770506Y-10440212D02*
X15713363Y-10440212D01*
X15684792Y-10454498D01*
X15670506Y-10468784D01*
X15641935Y-10511641D01*
X15627649Y-10568784D01*
X15627649Y-10683070D01*
X15641935Y-10711641D01*
X15656220Y-10725927D01*
X15684792Y-10740212D01*
X15741935Y-10740212D01*
X15770506Y-10725927D01*
X15784792Y-10711641D01*
X15799078Y-10683070D01*
X15799078Y-10611641D01*
X15784792Y-10583070D01*
X15770506Y-10568784D01*
X15741935Y-10554498D01*
X15684792Y-10554498D01*
X15656220Y-10568784D01*
X15641935Y-10583070D01*
X15627649Y-10611641D01*
X15899078Y-10440212D02*
X16084792Y-10440212D01*
X15984792Y-10554498D01*
X16027649Y-10554498D01*
X16056220Y-10568784D01*
X16070506Y-10583070D01*
X16084792Y-10611641D01*
X16084792Y-10683070D01*
X16070506Y-10711641D01*
X16056220Y-10725927D01*
X16027649Y-10740212D01*
X15941935Y-10740212D01*
X15913363Y-10725927D01*
X15899078Y-10711641D01*
X16199078Y-10440212D02*
X16199078Y-10497355D01*
X16313363Y-10440212D02*
X16313363Y-10497355D01*
X16756220Y-10854498D02*
X16741935Y-10840212D01*
X16713363Y-10797355D01*
X16699078Y-10768784D01*
X16684792Y-10725927D01*
X16670506Y-10654498D01*
X16670506Y-10597355D01*
X16684792Y-10525927D01*
X16699078Y-10483070D01*
X16713363Y-10454498D01*
X16741935Y-10411641D01*
X16756220Y-10397355D01*
X16856220Y-10468784D02*
X16870506Y-10454498D01*
X16899078Y-10440212D01*
X16970506Y-10440212D01*
X16999078Y-10454498D01*
X17013363Y-10468784D01*
X17027649Y-10497355D01*
X17027649Y-10525927D01*
X17013363Y-10568784D01*
X16841935Y-10740212D01*
X17027649Y-10740212D01*
X17384792Y-10740212D02*
X17384792Y-10440212D01*
X17513363Y-10740212D02*
X17513363Y-10583070D01*
X17499078Y-10554498D01*
X17470506Y-10540212D01*
X17427649Y-10540212D01*
X17399078Y-10554498D01*
X17384792Y-10568784D01*
X17699078Y-10740212D02*
X17670506Y-10725927D01*
X17656220Y-10711641D01*
X17641935Y-10683070D01*
X17641935Y-10597355D01*
X17656220Y-10568784D01*
X17670506Y-10554498D01*
X17699078Y-10540212D01*
X17741935Y-10540212D01*
X17770506Y-10554498D01*
X17784792Y-10568784D01*
X17799078Y-10597355D01*
X17799078Y-10683070D01*
X17784792Y-10711641D01*
X17770506Y-10725927D01*
X17741935Y-10740212D01*
X17699078Y-10740212D01*
X17970506Y-10740212D02*
X17941935Y-10725927D01*
X17927649Y-10697355D01*
X17927649Y-10440212D01*
X18199078Y-10725927D02*
X18170506Y-10740212D01*
X18113363Y-10740212D01*
X18084792Y-10725927D01*
X18070506Y-10697355D01*
X18070506Y-10583070D01*
X18084792Y-10554498D01*
X18113363Y-10540212D01*
X18170506Y-10540212D01*
X18199078Y-10554498D01*
X18213363Y-10583070D01*
X18213363Y-10611641D01*
X18070506Y-10640212D01*
X18327649Y-10725927D02*
X18356220Y-10740212D01*
X18413363Y-10740212D01*
X18441935Y-10725927D01*
X18456220Y-10697355D01*
X18456220Y-10683070D01*
X18441935Y-10654498D01*
X18413363Y-10640212D01*
X18370506Y-10640212D01*
X18341935Y-10625927D01*
X18327649Y-10597355D01*
X18327649Y-10583070D01*
X18341935Y-10554498D01*
X18370506Y-10540212D01*
X18413363Y-10540212D01*
X18441935Y-10554498D01*
X18556220Y-10854498D02*
X18570506Y-10840212D01*
X18599078Y-10797355D01*
X18613363Y-10768784D01*
X18627649Y-10725927D01*
X18641935Y-10654498D01*
X18641935Y-10597355D01*
X18627649Y-10525927D01*
X18613363Y-10483070D01*
X18599078Y-10454498D01*
X18570506Y-10411641D01*
X18556220Y-10397355D01*
M02*
