%FSLAX45Y45*%
G04 Gerber Fmt 4.5, Leading zero omitted, Abs format (unit mm)*
G04 Created by KiCad (PCBNEW 5.1.9) date 2021-04-12 02:05:23*
%MOMM*%
%LPD*%
G01*
G04 APERTURE LIST*
%TA.AperFunction,Profile*%
%ADD10C,0.050000*%
%TD*%
%ADD11C,0.200000*%
%ADD12C,0.300000*%
G04 APERTURE END LIST*
D10*
X19572500Y-8923000D02*
X12572000Y-8923000D01*
X19572000Y-5348000D02*
X19572000Y-8923000D01*
X12572000Y-5348000D02*
X19572000Y-5348000D01*
X12572000Y-8923000D02*
X12572000Y-5348000D01*
D11*
X13255500Y-7210920D02*
X13300500Y-7255920D01*
X13300500Y-7210920D02*
X13255500Y-7255920D01*
X13278360Y-7360780D02*
X13323360Y-7405780D01*
X13323360Y-7360780D02*
X13278360Y-7405780D01*
X13313920Y-7505560D02*
X13358920Y-7550560D01*
X13358920Y-7505560D02*
X13313920Y-7550560D01*
X13359630Y-6992470D02*
X13404630Y-7037470D01*
X13404630Y-6992470D02*
X13359630Y-7037470D01*
X13379960Y-6784200D02*
X13424960Y-6829200D01*
X13424960Y-6784200D02*
X13379960Y-6829200D01*
X13440920Y-7576680D02*
X13485920Y-7621680D01*
X13485920Y-7576680D02*
X13440920Y-7621680D01*
X13595860Y-6492100D02*
X13640860Y-6537100D01*
X13640860Y-6492100D02*
X13595860Y-6537100D01*
X13603480Y-7635100D02*
X13648480Y-7680100D01*
X13648480Y-7635100D02*
X13603480Y-7680100D01*
X14296900Y-6057760D02*
X14341900Y-6102760D01*
X14341900Y-6057760D02*
X14296900Y-6102760D01*
X14347700Y-8097380D02*
X14392700Y-8142380D01*
X14392700Y-8097380D02*
X14347700Y-8142380D01*
X14428980Y-6057760D02*
X14473980Y-6102760D01*
X14473980Y-6057760D02*
X14428980Y-6102760D01*
X14561060Y-7805280D02*
X14606060Y-7850280D01*
X14606060Y-7805280D02*
X14561060Y-7850280D01*
X14566140Y-6062840D02*
X14611140Y-6107840D01*
X14611140Y-6062840D02*
X14566140Y-6107840D01*
X14571220Y-8267560D02*
X14616220Y-8312560D01*
X14616220Y-8267560D02*
X14571220Y-8312560D01*
X14728700Y-6060300D02*
X14773700Y-6105300D01*
X14773700Y-6060300D02*
X14728700Y-6105300D01*
X14901420Y-6060300D02*
X14946420Y-6105300D01*
X14946420Y-6060300D02*
X14901420Y-6105300D01*
X15046200Y-8282800D02*
X15091200Y-8327800D01*
X15091200Y-8282800D02*
X15046200Y-8327800D01*
X15084300Y-6060300D02*
X15129300Y-6105300D01*
X15129300Y-6060300D02*
X15084300Y-6105300D01*
X15091201Y-6828099D02*
X15136201Y-6873099D01*
X15136201Y-6828099D02*
X15091201Y-6873099D01*
X15097000Y-7739240D02*
X15142000Y-7784240D01*
X15142000Y-7739240D02*
X15097000Y-7784240D01*
X15147800Y-5971400D02*
X15192800Y-6016400D01*
X15192800Y-5971400D02*
X15147800Y-6016400D01*
X15345920Y-7589380D02*
X15390920Y-7634380D01*
X15390920Y-7589380D02*
X15345920Y-7634380D01*
X15542810Y-8276490D02*
X15587810Y-8321490D01*
X15587810Y-8276490D02*
X15542810Y-8321490D01*
X15655800Y-8549500D02*
X15700800Y-8594500D01*
X15700800Y-8549500D02*
X15655800Y-8594500D01*
X15724380Y-8138020D02*
X15769380Y-8183020D01*
X15769380Y-8138020D02*
X15724380Y-8183020D01*
X15853920Y-7033120D02*
X15898920Y-7078120D01*
X15898920Y-7033120D02*
X15853920Y-7078120D01*
X15864080Y-7670660D02*
X15909080Y-7715660D01*
X15909080Y-7670660D02*
X15864080Y-7715660D01*
X15913300Y-6784200D02*
X15958300Y-6829200D01*
X15958300Y-6784200D02*
X15913300Y-6829200D01*
X15917030Y-7505170D02*
X15962030Y-7550170D01*
X15962030Y-7505170D02*
X15917030Y-7550170D01*
X16026640Y-6235560D02*
X16071640Y-6280560D01*
X16071640Y-6235560D02*
X16026640Y-6280560D01*
X16062200Y-7038200D02*
X16107200Y-7083200D01*
X16107200Y-7038200D02*
X16062200Y-7083200D01*
X16074900Y-8003400D02*
X16119900Y-8048400D01*
X16119900Y-8003400D02*
X16074900Y-8048400D01*
X16201900Y-7647800D02*
X16246900Y-7692800D01*
X16246900Y-7647800D02*
X16201900Y-7692800D01*
X16341600Y-6070460D02*
X16386600Y-6115460D01*
X16386600Y-6070460D02*
X16341600Y-6115460D01*
X16400785Y-8214985D02*
X16445785Y-8259985D01*
X16445785Y-8214985D02*
X16400785Y-8259985D01*
X16468600Y-7498899D02*
X16513600Y-7543899D01*
X16513600Y-7498899D02*
X16468600Y-7543899D01*
X16532100Y-5717400D02*
X16577100Y-5762400D01*
X16577100Y-5717400D02*
X16532100Y-5762400D01*
X16534640Y-8386940D02*
X16579640Y-8431940D01*
X16579640Y-8386940D02*
X16534640Y-8431940D01*
X16580360Y-6768960D02*
X16625360Y-6813960D01*
X16625360Y-6768960D02*
X16580360Y-6813960D01*
X16633700Y-7139800D02*
X16678700Y-7184800D01*
X16678700Y-7139800D02*
X16633700Y-7184800D01*
X16659100Y-6250800D02*
X16704100Y-6295800D01*
X16704100Y-6250800D02*
X16659100Y-6295800D01*
X16659100Y-6365100D02*
X16704100Y-6410100D01*
X16704100Y-6365100D02*
X16659100Y-6410100D01*
X16659100Y-7584300D02*
X16704100Y-7629300D01*
X16704100Y-7584300D02*
X16659100Y-7629300D01*
X16675500Y-8048901D02*
X16720500Y-8093901D01*
X16720500Y-8048901D02*
X16675500Y-8093901D01*
X16732063Y-7669700D02*
X16777063Y-7714700D01*
X16777063Y-7669700D02*
X16732063Y-7714700D01*
X16748000Y-7025500D02*
X16793000Y-7070500D01*
X16793000Y-7025500D02*
X16748000Y-7070500D01*
X16811500Y-8155800D02*
X16856500Y-8200800D01*
X16856500Y-8155800D02*
X16811500Y-8200800D01*
X16824200Y-7736700D02*
X16869200Y-7781700D01*
X16869200Y-7736700D02*
X16824200Y-7781700D01*
X16862300Y-7343000D02*
X16907300Y-7388000D01*
X16907300Y-7343000D02*
X16862300Y-7388000D01*
X16958820Y-7467460D02*
X17003820Y-7512460D01*
X17003820Y-7467460D02*
X16958820Y-7512460D01*
X16963900Y-7330300D02*
X17008900Y-7375300D01*
X17008900Y-7330300D02*
X16963900Y-7375300D01*
X16989300Y-8447900D02*
X17034300Y-8492900D01*
X17034300Y-8447900D02*
X16989300Y-8492900D01*
X17002000Y-6708000D02*
X17047000Y-6753000D01*
X17047000Y-6708000D02*
X17002000Y-6753000D01*
X17033128Y-6989015D02*
X17078128Y-7034015D01*
X17078128Y-6989015D02*
X17033128Y-7034015D01*
X17065500Y-8155800D02*
X17110500Y-8200800D01*
X17110500Y-8155800D02*
X17065500Y-8200800D01*
X17078217Y-7698729D02*
X17123217Y-7743729D01*
X17123217Y-7698729D02*
X17078217Y-7743729D01*
X17080740Y-7574140D02*
X17125740Y-7619140D01*
X17125740Y-7574140D02*
X17080740Y-7619140D01*
X17116300Y-7863700D02*
X17161300Y-7908700D01*
X17161300Y-7863700D02*
X17116300Y-7908700D01*
X17129000Y-8460600D02*
X17174000Y-8505600D01*
X17174000Y-8460600D02*
X17129000Y-8505600D01*
X17167100Y-5552300D02*
X17212100Y-5597300D01*
X17212100Y-5552300D02*
X17167100Y-5597300D01*
X17370300Y-5679300D02*
X17415300Y-5724300D01*
X17415300Y-5679300D02*
X17370300Y-5724300D01*
X17464567Y-6332367D02*
X17509567Y-6377367D01*
X17509567Y-6332367D02*
X17464567Y-6377367D01*
X17606520Y-8381860D02*
X17651520Y-8426860D01*
X17651520Y-8381860D02*
X17606520Y-8426860D01*
X17670259Y-6387000D02*
X17715259Y-6432000D01*
X17715259Y-6387000D02*
X17670259Y-6432000D01*
X17738600Y-7800200D02*
X17783600Y-7845200D01*
X17783600Y-7800200D02*
X17738600Y-7845200D01*
X17791940Y-5773280D02*
X17836940Y-5818280D01*
X17836940Y-5773280D02*
X17791940Y-5818280D01*
X17911320Y-6705460D02*
X17956320Y-6750460D01*
X17956320Y-6705460D02*
X17911320Y-6750460D01*
X17916400Y-6034900D02*
X17961400Y-6079900D01*
X17961400Y-6034900D02*
X17916400Y-6079900D01*
X17972280Y-8379320D02*
X18017280Y-8424320D01*
X18017280Y-8379320D02*
X17972280Y-8424320D01*
X18096740Y-7561440D02*
X18141740Y-7606440D01*
X18141740Y-7561440D02*
X18096740Y-7606440D01*
X18122140Y-5577700D02*
X18167140Y-5622700D01*
X18167140Y-5577700D02*
X18122140Y-5622700D01*
X18132300Y-8003400D02*
X18177300Y-8048400D01*
X18177300Y-8003400D02*
X18132300Y-8048400D01*
X18231360Y-6395580D02*
X18276360Y-6440580D01*
X18276360Y-6395580D02*
X18231360Y-6440580D01*
X18272000Y-6034900D02*
X18317000Y-6079900D01*
X18317000Y-6034900D02*
X18272000Y-6079900D01*
X18292320Y-7851000D02*
X18337320Y-7896000D01*
X18337320Y-7851000D02*
X18292320Y-7896000D01*
X18409160Y-5816460D02*
X18454160Y-5861460D01*
X18454160Y-5816460D02*
X18409160Y-5861460D01*
X18417900Y-8070860D02*
X18462900Y-8115860D01*
X18462900Y-8070860D02*
X18417900Y-8115860D01*
X18467580Y-6774040D02*
X18512580Y-6819040D01*
X18512580Y-6774040D02*
X18467580Y-6819040D01*
X18475200Y-6926440D02*
X18520200Y-6971440D01*
X18520200Y-6926440D02*
X18475200Y-6971440D01*
X18495520Y-7884020D02*
X18540520Y-7929020D01*
X18540520Y-7884020D02*
X18495520Y-7929020D01*
X18589500Y-8196440D02*
X18634500Y-8241440D01*
X18634500Y-8196440D02*
X18589500Y-8241440D01*
X18653000Y-6390500D02*
X18698000Y-6435500D01*
X18698000Y-6390500D02*
X18653000Y-6435500D01*
X18910810Y-7321410D02*
X18955810Y-7366410D01*
X18955810Y-7321410D02*
X18910810Y-7366410D01*
X18928313Y-7994169D02*
X18973313Y-8039169D01*
X18973313Y-7994169D02*
X18928313Y-8039169D01*
X18934940Y-7817980D02*
X18979940Y-7862980D01*
X18979940Y-7817980D02*
X18934940Y-7862980D01*
X18945034Y-7659149D02*
X18990034Y-7704149D01*
X18990034Y-7659149D02*
X18945034Y-7704149D01*
X18951278Y-7487304D02*
X18996278Y-7532304D01*
X18996278Y-7487304D02*
X18951278Y-7532304D01*
X19046700Y-6327000D02*
X19091700Y-6372000D01*
X19091700Y-6327000D02*
X19046700Y-6372000D01*
X19053854Y-7157114D02*
X19098854Y-7202114D01*
X19098854Y-7157114D02*
X19053854Y-7202114D01*
X19161000Y-6093320D02*
X19206000Y-6138320D01*
X19206000Y-6093320D02*
X19161000Y-6138320D01*
X19310860Y-6329540D02*
X19355860Y-6374540D01*
X19355860Y-6329540D02*
X19310860Y-6374540D01*
X19326100Y-6451460D02*
X19371100Y-6496460D01*
X19371100Y-6451460D02*
X19326100Y-6496460D01*
X19364200Y-7820520D02*
X19409200Y-7865520D01*
X19409200Y-7820520D02*
X19364200Y-7865520D01*
X19376900Y-7066140D02*
X19421900Y-7111140D01*
X19421900Y-7066140D02*
X19376900Y-7111140D01*
X13520100Y-6668000D02*
G75*
G03*
X13520100Y-6668000I-45000J0D01*
G01*
X13520100Y-6922000D02*
G75*
G03*
X13520100Y-6922000I-45000J0D01*
G01*
X13520100Y-7176000D02*
G75*
G03*
X13520100Y-7176000I-45000J0D01*
G01*
X13520100Y-7430000D02*
G75*
G03*
X13520100Y-7430000I-45000J0D01*
G01*
X13774100Y-6795000D02*
G75*
G03*
X13774100Y-6795000I-45000J0D01*
G01*
X13774100Y-7049000D02*
G75*
G03*
X13774100Y-7049000I-45000J0D01*
G01*
X13774100Y-7303000D02*
G75*
G03*
X13774100Y-7303000I-45000J0D01*
G01*
X13774100Y-7557000D02*
G75*
G03*
X13774100Y-7557000I-45000J0D01*
G01*
X13145100Y-6257500D02*
X13145100Y-6417500D01*
X13065100Y-6337500D02*
X13225100Y-6337500D01*
X13145100Y-7807500D02*
X13145100Y-7967500D01*
X13065100Y-7887500D02*
X13225100Y-7887500D01*
D12*
X12855928Y-9391214D02*
X12855928Y-9091214D01*
X12927357Y-9091214D01*
X12970214Y-9105500D01*
X12998786Y-9134072D01*
X13013071Y-9162643D01*
X13027357Y-9219786D01*
X13027357Y-9262643D01*
X13013071Y-9319786D01*
X12998786Y-9348357D01*
X12970214Y-9376929D01*
X12927357Y-9391214D01*
X12855928Y-9391214D01*
X13155928Y-9391214D02*
X13155928Y-9191214D01*
X13155928Y-9248357D02*
X13170214Y-9219786D01*
X13184500Y-9205500D01*
X13213071Y-9191214D01*
X13241643Y-9191214D01*
X13341643Y-9391214D02*
X13341643Y-9191214D01*
X13341643Y-9091214D02*
X13327357Y-9105500D01*
X13341643Y-9119786D01*
X13355928Y-9105500D01*
X13341643Y-9091214D01*
X13341643Y-9119786D01*
X13527357Y-9391214D02*
X13498786Y-9376929D01*
X13484500Y-9348357D01*
X13484500Y-9091214D01*
X13684500Y-9391214D02*
X13655928Y-9376929D01*
X13641643Y-9348357D01*
X13641643Y-9091214D01*
X14027357Y-9391214D02*
X14027357Y-9091214D01*
X14127357Y-9305500D01*
X14227357Y-9091214D01*
X14227357Y-9391214D01*
X14498786Y-9391214D02*
X14498786Y-9234072D01*
X14484500Y-9205500D01*
X14455928Y-9191214D01*
X14398786Y-9191214D01*
X14370214Y-9205500D01*
X14498786Y-9376929D02*
X14470214Y-9391214D01*
X14398786Y-9391214D01*
X14370214Y-9376929D01*
X14355928Y-9348357D01*
X14355928Y-9319786D01*
X14370214Y-9291214D01*
X14398786Y-9276929D01*
X14470214Y-9276929D01*
X14498786Y-9262643D01*
X14641643Y-9191214D02*
X14641643Y-9491214D01*
X14641643Y-9205500D02*
X14670214Y-9191214D01*
X14727357Y-9191214D01*
X14755928Y-9205500D01*
X14770214Y-9219786D01*
X14784500Y-9248357D01*
X14784500Y-9334072D01*
X14770214Y-9362643D01*
X14755928Y-9376929D01*
X14727357Y-9391214D01*
X14670214Y-9391214D01*
X14641643Y-9376929D01*
X14913071Y-9362643D02*
X14927357Y-9376929D01*
X14913071Y-9391214D01*
X14898786Y-9376929D01*
X14913071Y-9362643D01*
X14913071Y-9391214D01*
X14913071Y-9205500D02*
X14927357Y-9219786D01*
X14913071Y-9234072D01*
X14898786Y-9219786D01*
X14913071Y-9205500D01*
X14913071Y-9234072D01*
X12524500Y-9863000D02*
X12569500Y-9908000D01*
X12569500Y-9863000D02*
X12524500Y-9908000D01*
X12913071Y-9721214D02*
X12941643Y-9721214D01*
X12970214Y-9735500D01*
X12984500Y-9749786D01*
X12998786Y-9778357D01*
X13013071Y-9835500D01*
X13013071Y-9906929D01*
X12998786Y-9964072D01*
X12984500Y-9992643D01*
X12970214Y-10006929D01*
X12941643Y-10021214D01*
X12913071Y-10021214D01*
X12884500Y-10006929D01*
X12870214Y-9992643D01*
X12855928Y-9964072D01*
X12841643Y-9906929D01*
X12841643Y-9835500D01*
X12855928Y-9778357D01*
X12870214Y-9749786D01*
X12884500Y-9735500D01*
X12913071Y-9721214D01*
X13141643Y-9992643D02*
X13155928Y-10006929D01*
X13141643Y-10021214D01*
X13127357Y-10006929D01*
X13141643Y-9992643D01*
X13141643Y-10021214D01*
X13413071Y-9821214D02*
X13413071Y-10021214D01*
X13341643Y-9706929D02*
X13270214Y-9921214D01*
X13455928Y-9921214D01*
X13713071Y-9721214D02*
X13570214Y-9721214D01*
X13555928Y-9864072D01*
X13570214Y-9849786D01*
X13598786Y-9835500D01*
X13670214Y-9835500D01*
X13698786Y-9849786D01*
X13713071Y-9864072D01*
X13727357Y-9892643D01*
X13727357Y-9964072D01*
X13713071Y-9992643D01*
X13698786Y-10006929D01*
X13670214Y-10021214D01*
X13598786Y-10021214D01*
X13570214Y-10006929D01*
X13555928Y-9992643D01*
X13855928Y-10021214D02*
X13855928Y-9821214D01*
X13855928Y-9849786D02*
X13870214Y-9835500D01*
X13898786Y-9821214D01*
X13941643Y-9821214D01*
X13970214Y-9835500D01*
X13984500Y-9864072D01*
X13984500Y-10021214D01*
X13984500Y-9864072D02*
X13998786Y-9835500D01*
X14027357Y-9821214D01*
X14070214Y-9821214D01*
X14098786Y-9835500D01*
X14113071Y-9864072D01*
X14113071Y-10021214D01*
X14255928Y-10021214D02*
X14255928Y-9821214D01*
X14255928Y-9849786D02*
X14270214Y-9835500D01*
X14298786Y-9821214D01*
X14341643Y-9821214D01*
X14370214Y-9835500D01*
X14384500Y-9864072D01*
X14384500Y-10021214D01*
X14384500Y-9864072D02*
X14398786Y-9835500D01*
X14427357Y-9821214D01*
X14470214Y-9821214D01*
X14498786Y-9835500D01*
X14513071Y-9864072D01*
X14513071Y-10021214D01*
X15098786Y-9706929D02*
X14841643Y-10092643D01*
X15484500Y-9721214D02*
X15513071Y-9721214D01*
X15541643Y-9735500D01*
X15555928Y-9749786D01*
X15570214Y-9778357D01*
X15584500Y-9835500D01*
X15584500Y-9906929D01*
X15570214Y-9964072D01*
X15555928Y-9992643D01*
X15541643Y-10006929D01*
X15513071Y-10021214D01*
X15484500Y-10021214D01*
X15455928Y-10006929D01*
X15441643Y-9992643D01*
X15427357Y-9964072D01*
X15413071Y-9906929D01*
X15413071Y-9835500D01*
X15427357Y-9778357D01*
X15441643Y-9749786D01*
X15455928Y-9735500D01*
X15484500Y-9721214D01*
X15713071Y-9992643D02*
X15727357Y-10006929D01*
X15713071Y-10021214D01*
X15698786Y-10006929D01*
X15713071Y-9992643D01*
X15713071Y-10021214D01*
X15913071Y-9721214D02*
X15941643Y-9721214D01*
X15970214Y-9735500D01*
X15984500Y-9749786D01*
X15998786Y-9778357D01*
X16013071Y-9835500D01*
X16013071Y-9906929D01*
X15998786Y-9964072D01*
X15984500Y-9992643D01*
X15970214Y-10006929D01*
X15941643Y-10021214D01*
X15913071Y-10021214D01*
X15884500Y-10006929D01*
X15870214Y-9992643D01*
X15855928Y-9964072D01*
X15841643Y-9906929D01*
X15841643Y-9835500D01*
X15855928Y-9778357D01*
X15870214Y-9749786D01*
X15884500Y-9735500D01*
X15913071Y-9721214D01*
X16298786Y-10021214D02*
X16127357Y-10021214D01*
X16213071Y-10021214D02*
X16213071Y-9721214D01*
X16184500Y-9764072D01*
X16155928Y-9792643D01*
X16127357Y-9806929D01*
X16470214Y-9849786D02*
X16441643Y-9835500D01*
X16427357Y-9821214D01*
X16413071Y-9792643D01*
X16413071Y-9778357D01*
X16427357Y-9749786D01*
X16441643Y-9735500D01*
X16470214Y-9721214D01*
X16527357Y-9721214D01*
X16555928Y-9735500D01*
X16570214Y-9749786D01*
X16584500Y-9778357D01*
X16584500Y-9792643D01*
X16570214Y-9821214D01*
X16555928Y-9835500D01*
X16527357Y-9849786D01*
X16470214Y-9849786D01*
X16441643Y-9864072D01*
X16427357Y-9878357D01*
X16413071Y-9906929D01*
X16413071Y-9964072D01*
X16427357Y-9992643D01*
X16441643Y-10006929D01*
X16470214Y-10021214D01*
X16527357Y-10021214D01*
X16555928Y-10006929D01*
X16570214Y-9992643D01*
X16584500Y-9964072D01*
X16584500Y-9906929D01*
X16570214Y-9878357D01*
X16555928Y-9864072D01*
X16527357Y-9849786D01*
X16698786Y-9721214D02*
X16698786Y-9778357D01*
X16813071Y-9721214D02*
X16813071Y-9778357D01*
X17255928Y-10135500D02*
X17241643Y-10121214D01*
X17213071Y-10078357D01*
X17198786Y-10049786D01*
X17184500Y-10006929D01*
X17170214Y-9935500D01*
X17170214Y-9878357D01*
X17184500Y-9806929D01*
X17198786Y-9764072D01*
X17213071Y-9735500D01*
X17241643Y-9692643D01*
X17255928Y-9678357D01*
X17384500Y-10021214D02*
X17441643Y-10021214D01*
X17470214Y-10006929D01*
X17484500Y-9992643D01*
X17513071Y-9949786D01*
X17527357Y-9892643D01*
X17527357Y-9778357D01*
X17513071Y-9749786D01*
X17498786Y-9735500D01*
X17470214Y-9721214D01*
X17413071Y-9721214D01*
X17384500Y-9735500D01*
X17370214Y-9749786D01*
X17355928Y-9778357D01*
X17355928Y-9849786D01*
X17370214Y-9878357D01*
X17384500Y-9892643D01*
X17413071Y-9906929D01*
X17470214Y-9906929D01*
X17498786Y-9892643D01*
X17513071Y-9878357D01*
X17527357Y-9849786D01*
X17784500Y-9821214D02*
X17784500Y-10021214D01*
X17713071Y-9706929D02*
X17641643Y-9921214D01*
X17827357Y-9921214D01*
X18170214Y-10021214D02*
X18170214Y-9721214D01*
X18298786Y-10021214D02*
X18298786Y-9864072D01*
X18284500Y-9835500D01*
X18255928Y-9821214D01*
X18213071Y-9821214D01*
X18184500Y-9835500D01*
X18170214Y-9849786D01*
X18484500Y-10021214D02*
X18455928Y-10006929D01*
X18441643Y-9992643D01*
X18427357Y-9964072D01*
X18427357Y-9878357D01*
X18441643Y-9849786D01*
X18455928Y-9835500D01*
X18484500Y-9821214D01*
X18527357Y-9821214D01*
X18555928Y-9835500D01*
X18570214Y-9849786D01*
X18584500Y-9878357D01*
X18584500Y-9964072D01*
X18570214Y-9992643D01*
X18555928Y-10006929D01*
X18527357Y-10021214D01*
X18484500Y-10021214D01*
X18755928Y-10021214D02*
X18727357Y-10006929D01*
X18713071Y-9978357D01*
X18713071Y-9721214D01*
X18984500Y-10006929D02*
X18955928Y-10021214D01*
X18898786Y-10021214D01*
X18870214Y-10006929D01*
X18855928Y-9978357D01*
X18855928Y-9864072D01*
X18870214Y-9835500D01*
X18898786Y-9821214D01*
X18955928Y-9821214D01*
X18984500Y-9835500D01*
X18998786Y-9864072D01*
X18998786Y-9892643D01*
X18855928Y-9921214D01*
X19113071Y-10006929D02*
X19141643Y-10021214D01*
X19198786Y-10021214D01*
X19227357Y-10006929D01*
X19241643Y-9978357D01*
X19241643Y-9964072D01*
X19227357Y-9935500D01*
X19198786Y-9921214D01*
X19155928Y-9921214D01*
X19127357Y-9906929D01*
X19113071Y-9878357D01*
X19113071Y-9864072D01*
X19127357Y-9835500D01*
X19155928Y-9821214D01*
X19198786Y-9821214D01*
X19227357Y-9835500D01*
X19341643Y-10135500D02*
X19355928Y-10121214D01*
X19384500Y-10078357D01*
X19398786Y-10049786D01*
X19413071Y-10006929D01*
X19427357Y-9935500D01*
X19427357Y-9878357D01*
X19413071Y-9806929D01*
X19398786Y-9764072D01*
X19384500Y-9735500D01*
X19355928Y-9692643D01*
X19341643Y-9678357D01*
X12569500Y-10281500D02*
G75*
G03*
X12569500Y-10281500I-45000J0D01*
G01*
X12913071Y-10117214D02*
X12941643Y-10117214D01*
X12970214Y-10131500D01*
X12984500Y-10145786D01*
X12998786Y-10174357D01*
X13013071Y-10231500D01*
X13013071Y-10302929D01*
X12998786Y-10360072D01*
X12984500Y-10388643D01*
X12970214Y-10402929D01*
X12941643Y-10417214D01*
X12913071Y-10417214D01*
X12884500Y-10402929D01*
X12870214Y-10388643D01*
X12855928Y-10360072D01*
X12841643Y-10302929D01*
X12841643Y-10231500D01*
X12855928Y-10174357D01*
X12870214Y-10145786D01*
X12884500Y-10131500D01*
X12913071Y-10117214D01*
X13141643Y-10388643D02*
X13155928Y-10402929D01*
X13141643Y-10417214D01*
X13127357Y-10402929D01*
X13141643Y-10388643D01*
X13141643Y-10417214D01*
X13298786Y-10417214D02*
X13355928Y-10417214D01*
X13384500Y-10402929D01*
X13398786Y-10388643D01*
X13427357Y-10345786D01*
X13441643Y-10288643D01*
X13441643Y-10174357D01*
X13427357Y-10145786D01*
X13413071Y-10131500D01*
X13384500Y-10117214D01*
X13327357Y-10117214D01*
X13298786Y-10131500D01*
X13284500Y-10145786D01*
X13270214Y-10174357D01*
X13270214Y-10245786D01*
X13284500Y-10274357D01*
X13298786Y-10288643D01*
X13327357Y-10302929D01*
X13384500Y-10302929D01*
X13413071Y-10288643D01*
X13427357Y-10274357D01*
X13441643Y-10245786D01*
X13627357Y-10117214D02*
X13655928Y-10117214D01*
X13684500Y-10131500D01*
X13698786Y-10145786D01*
X13713071Y-10174357D01*
X13727357Y-10231500D01*
X13727357Y-10302929D01*
X13713071Y-10360072D01*
X13698786Y-10388643D01*
X13684500Y-10402929D01*
X13655928Y-10417214D01*
X13627357Y-10417214D01*
X13598786Y-10402929D01*
X13584500Y-10388643D01*
X13570214Y-10360072D01*
X13555928Y-10302929D01*
X13555928Y-10231500D01*
X13570214Y-10174357D01*
X13584500Y-10145786D01*
X13598786Y-10131500D01*
X13627357Y-10117214D01*
X13855928Y-10417214D02*
X13855928Y-10217214D01*
X13855928Y-10245786D02*
X13870214Y-10231500D01*
X13898786Y-10217214D01*
X13941643Y-10217214D01*
X13970214Y-10231500D01*
X13984500Y-10260072D01*
X13984500Y-10417214D01*
X13984500Y-10260072D02*
X13998786Y-10231500D01*
X14027357Y-10217214D01*
X14070214Y-10217214D01*
X14098786Y-10231500D01*
X14113071Y-10260072D01*
X14113071Y-10417214D01*
X14255928Y-10417214D02*
X14255928Y-10217214D01*
X14255928Y-10245786D02*
X14270214Y-10231500D01*
X14298786Y-10217214D01*
X14341643Y-10217214D01*
X14370214Y-10231500D01*
X14384500Y-10260072D01*
X14384500Y-10417214D01*
X14384500Y-10260072D02*
X14398786Y-10231500D01*
X14427357Y-10217214D01*
X14470214Y-10217214D01*
X14498786Y-10231500D01*
X14513071Y-10260072D01*
X14513071Y-10417214D01*
X15098786Y-10102929D02*
X14841643Y-10488643D01*
X15484500Y-10117214D02*
X15513071Y-10117214D01*
X15541643Y-10131500D01*
X15555928Y-10145786D01*
X15570214Y-10174357D01*
X15584500Y-10231500D01*
X15584500Y-10302929D01*
X15570214Y-10360072D01*
X15555928Y-10388643D01*
X15541643Y-10402929D01*
X15513071Y-10417214D01*
X15484500Y-10417214D01*
X15455928Y-10402929D01*
X15441643Y-10388643D01*
X15427357Y-10360072D01*
X15413071Y-10302929D01*
X15413071Y-10231500D01*
X15427357Y-10174357D01*
X15441643Y-10145786D01*
X15455928Y-10131500D01*
X15484500Y-10117214D01*
X15713071Y-10388643D02*
X15727357Y-10402929D01*
X15713071Y-10417214D01*
X15698786Y-10402929D01*
X15713071Y-10388643D01*
X15713071Y-10417214D01*
X15913071Y-10117214D02*
X15941643Y-10117214D01*
X15970214Y-10131500D01*
X15984500Y-10145786D01*
X15998786Y-10174357D01*
X16013071Y-10231500D01*
X16013071Y-10302929D01*
X15998786Y-10360072D01*
X15984500Y-10388643D01*
X15970214Y-10402929D01*
X15941643Y-10417214D01*
X15913071Y-10417214D01*
X15884500Y-10402929D01*
X15870214Y-10388643D01*
X15855928Y-10360072D01*
X15841643Y-10302929D01*
X15841643Y-10231500D01*
X15855928Y-10174357D01*
X15870214Y-10145786D01*
X15884500Y-10131500D01*
X15913071Y-10117214D01*
X16113071Y-10117214D02*
X16298786Y-10117214D01*
X16198786Y-10231500D01*
X16241643Y-10231500D01*
X16270214Y-10245786D01*
X16284500Y-10260072D01*
X16298786Y-10288643D01*
X16298786Y-10360072D01*
X16284500Y-10388643D01*
X16270214Y-10402929D01*
X16241643Y-10417214D01*
X16155928Y-10417214D01*
X16127357Y-10402929D01*
X16113071Y-10388643D01*
X16570214Y-10117214D02*
X16427357Y-10117214D01*
X16413071Y-10260072D01*
X16427357Y-10245786D01*
X16455928Y-10231500D01*
X16527357Y-10231500D01*
X16555928Y-10245786D01*
X16570214Y-10260072D01*
X16584500Y-10288643D01*
X16584500Y-10360072D01*
X16570214Y-10388643D01*
X16555928Y-10402929D01*
X16527357Y-10417214D01*
X16455928Y-10417214D01*
X16427357Y-10402929D01*
X16413071Y-10388643D01*
X16698786Y-10117214D02*
X16698786Y-10174357D01*
X16813071Y-10117214D02*
X16813071Y-10174357D01*
X17255928Y-10531500D02*
X17241643Y-10517214D01*
X17213071Y-10474357D01*
X17198786Y-10445786D01*
X17184500Y-10402929D01*
X17170214Y-10331500D01*
X17170214Y-10274357D01*
X17184500Y-10202929D01*
X17198786Y-10160072D01*
X17213071Y-10131500D01*
X17241643Y-10088643D01*
X17255928Y-10074357D01*
X17413071Y-10245786D02*
X17384500Y-10231500D01*
X17370214Y-10217214D01*
X17355928Y-10188643D01*
X17355928Y-10174357D01*
X17370214Y-10145786D01*
X17384500Y-10131500D01*
X17413071Y-10117214D01*
X17470214Y-10117214D01*
X17498786Y-10131500D01*
X17513071Y-10145786D01*
X17527357Y-10174357D01*
X17527357Y-10188643D01*
X17513071Y-10217214D01*
X17498786Y-10231500D01*
X17470214Y-10245786D01*
X17413071Y-10245786D01*
X17384500Y-10260072D01*
X17370214Y-10274357D01*
X17355928Y-10302929D01*
X17355928Y-10360072D01*
X17370214Y-10388643D01*
X17384500Y-10402929D01*
X17413071Y-10417214D01*
X17470214Y-10417214D01*
X17498786Y-10402929D01*
X17513071Y-10388643D01*
X17527357Y-10360072D01*
X17527357Y-10302929D01*
X17513071Y-10274357D01*
X17498786Y-10260072D01*
X17470214Y-10245786D01*
X17884500Y-10417214D02*
X17884500Y-10117214D01*
X18013071Y-10417214D02*
X18013071Y-10260072D01*
X17998786Y-10231500D01*
X17970214Y-10217214D01*
X17927357Y-10217214D01*
X17898786Y-10231500D01*
X17884500Y-10245786D01*
X18198786Y-10417214D02*
X18170214Y-10402929D01*
X18155928Y-10388643D01*
X18141643Y-10360072D01*
X18141643Y-10274357D01*
X18155928Y-10245786D01*
X18170214Y-10231500D01*
X18198786Y-10217214D01*
X18241643Y-10217214D01*
X18270214Y-10231500D01*
X18284500Y-10245786D01*
X18298786Y-10274357D01*
X18298786Y-10360072D01*
X18284500Y-10388643D01*
X18270214Y-10402929D01*
X18241643Y-10417214D01*
X18198786Y-10417214D01*
X18470214Y-10417214D02*
X18441643Y-10402929D01*
X18427357Y-10374357D01*
X18427357Y-10117214D01*
X18698786Y-10402929D02*
X18670214Y-10417214D01*
X18613071Y-10417214D01*
X18584500Y-10402929D01*
X18570214Y-10374357D01*
X18570214Y-10260072D01*
X18584500Y-10231500D01*
X18613071Y-10217214D01*
X18670214Y-10217214D01*
X18698786Y-10231500D01*
X18713071Y-10260072D01*
X18713071Y-10288643D01*
X18570214Y-10317214D01*
X18827357Y-10402929D02*
X18855928Y-10417214D01*
X18913071Y-10417214D01*
X18941643Y-10402929D01*
X18955928Y-10374357D01*
X18955928Y-10360072D01*
X18941643Y-10331500D01*
X18913071Y-10317214D01*
X18870214Y-10317214D01*
X18841643Y-10302929D01*
X18827357Y-10274357D01*
X18827357Y-10260072D01*
X18841643Y-10231500D01*
X18870214Y-10217214D01*
X18913071Y-10217214D01*
X18941643Y-10231500D01*
X19055928Y-10531500D02*
X19070214Y-10517214D01*
X19098786Y-10474357D01*
X19113071Y-10445786D01*
X19127357Y-10402929D01*
X19141643Y-10331500D01*
X19141643Y-10274357D01*
X19127357Y-10202929D01*
X19113071Y-10160072D01*
X19098786Y-10131500D01*
X19070214Y-10088643D01*
X19055928Y-10074357D01*
X12489500Y-10597500D02*
X12489500Y-10757500D01*
X12409500Y-10677500D02*
X12569500Y-10677500D01*
X13013071Y-10813214D02*
X12841643Y-10813214D01*
X12927357Y-10813214D02*
X12927357Y-10513214D01*
X12898786Y-10556072D01*
X12870214Y-10584643D01*
X12841643Y-10598929D01*
X13141643Y-10784643D02*
X13155928Y-10798929D01*
X13141643Y-10813214D01*
X13127357Y-10798929D01*
X13141643Y-10784643D01*
X13141643Y-10813214D01*
X13413071Y-10513214D02*
X13355928Y-10513214D01*
X13327357Y-10527500D01*
X13313071Y-10541786D01*
X13284500Y-10584643D01*
X13270214Y-10641786D01*
X13270214Y-10756072D01*
X13284500Y-10784643D01*
X13298786Y-10798929D01*
X13327357Y-10813214D01*
X13384500Y-10813214D01*
X13413071Y-10798929D01*
X13427357Y-10784643D01*
X13441643Y-10756072D01*
X13441643Y-10684643D01*
X13427357Y-10656072D01*
X13413071Y-10641786D01*
X13384500Y-10627500D01*
X13327357Y-10627500D01*
X13298786Y-10641786D01*
X13284500Y-10656072D01*
X13270214Y-10684643D01*
X13627357Y-10513214D02*
X13655928Y-10513214D01*
X13684500Y-10527500D01*
X13698786Y-10541786D01*
X13713071Y-10570357D01*
X13727357Y-10627500D01*
X13727357Y-10698929D01*
X13713071Y-10756072D01*
X13698786Y-10784643D01*
X13684500Y-10798929D01*
X13655928Y-10813214D01*
X13627357Y-10813214D01*
X13598786Y-10798929D01*
X13584500Y-10784643D01*
X13570214Y-10756072D01*
X13555928Y-10698929D01*
X13555928Y-10627500D01*
X13570214Y-10570357D01*
X13584500Y-10541786D01*
X13598786Y-10527500D01*
X13627357Y-10513214D01*
X13855928Y-10813214D02*
X13855928Y-10613214D01*
X13855928Y-10641786D02*
X13870214Y-10627500D01*
X13898786Y-10613214D01*
X13941643Y-10613214D01*
X13970214Y-10627500D01*
X13984500Y-10656072D01*
X13984500Y-10813214D01*
X13984500Y-10656072D02*
X13998786Y-10627500D01*
X14027357Y-10613214D01*
X14070214Y-10613214D01*
X14098786Y-10627500D01*
X14113071Y-10656072D01*
X14113071Y-10813214D01*
X14255928Y-10813214D02*
X14255928Y-10613214D01*
X14255928Y-10641786D02*
X14270214Y-10627500D01*
X14298786Y-10613214D01*
X14341643Y-10613214D01*
X14370214Y-10627500D01*
X14384500Y-10656072D01*
X14384500Y-10813214D01*
X14384500Y-10656072D02*
X14398786Y-10627500D01*
X14427357Y-10613214D01*
X14470214Y-10613214D01*
X14498786Y-10627500D01*
X14513071Y-10656072D01*
X14513071Y-10813214D01*
X15098786Y-10498929D02*
X14841643Y-10884643D01*
X15484500Y-10513214D02*
X15513071Y-10513214D01*
X15541643Y-10527500D01*
X15555928Y-10541786D01*
X15570214Y-10570357D01*
X15584500Y-10627500D01*
X15584500Y-10698929D01*
X15570214Y-10756072D01*
X15555928Y-10784643D01*
X15541643Y-10798929D01*
X15513071Y-10813214D01*
X15484500Y-10813214D01*
X15455928Y-10798929D01*
X15441643Y-10784643D01*
X15427357Y-10756072D01*
X15413071Y-10698929D01*
X15413071Y-10627500D01*
X15427357Y-10570357D01*
X15441643Y-10541786D01*
X15455928Y-10527500D01*
X15484500Y-10513214D01*
X15713071Y-10784643D02*
X15727357Y-10798929D01*
X15713071Y-10813214D01*
X15698786Y-10798929D01*
X15713071Y-10784643D01*
X15713071Y-10813214D01*
X15913071Y-10513214D02*
X15941643Y-10513214D01*
X15970214Y-10527500D01*
X15984500Y-10541786D01*
X15998786Y-10570357D01*
X16013071Y-10627500D01*
X16013071Y-10698929D01*
X15998786Y-10756072D01*
X15984500Y-10784643D01*
X15970214Y-10798929D01*
X15941643Y-10813214D01*
X15913071Y-10813214D01*
X15884500Y-10798929D01*
X15870214Y-10784643D01*
X15855928Y-10756072D01*
X15841643Y-10698929D01*
X15841643Y-10627500D01*
X15855928Y-10570357D01*
X15870214Y-10541786D01*
X15884500Y-10527500D01*
X15913071Y-10513214D01*
X16270214Y-10513214D02*
X16213071Y-10513214D01*
X16184500Y-10527500D01*
X16170214Y-10541786D01*
X16141643Y-10584643D01*
X16127357Y-10641786D01*
X16127357Y-10756072D01*
X16141643Y-10784643D01*
X16155928Y-10798929D01*
X16184500Y-10813214D01*
X16241643Y-10813214D01*
X16270214Y-10798929D01*
X16284500Y-10784643D01*
X16298786Y-10756072D01*
X16298786Y-10684643D01*
X16284500Y-10656072D01*
X16270214Y-10641786D01*
X16241643Y-10627500D01*
X16184500Y-10627500D01*
X16155928Y-10641786D01*
X16141643Y-10656072D01*
X16127357Y-10684643D01*
X16398786Y-10513214D02*
X16584500Y-10513214D01*
X16484500Y-10627500D01*
X16527357Y-10627500D01*
X16555928Y-10641786D01*
X16570214Y-10656072D01*
X16584500Y-10684643D01*
X16584500Y-10756072D01*
X16570214Y-10784643D01*
X16555928Y-10798929D01*
X16527357Y-10813214D01*
X16441643Y-10813214D01*
X16413071Y-10798929D01*
X16398786Y-10784643D01*
X16698786Y-10513214D02*
X16698786Y-10570357D01*
X16813071Y-10513214D02*
X16813071Y-10570357D01*
X17255928Y-10927500D02*
X17241643Y-10913214D01*
X17213071Y-10870357D01*
X17198786Y-10841786D01*
X17184500Y-10798929D01*
X17170214Y-10727500D01*
X17170214Y-10670357D01*
X17184500Y-10598929D01*
X17198786Y-10556072D01*
X17213071Y-10527500D01*
X17241643Y-10484643D01*
X17255928Y-10470357D01*
X17355928Y-10541786D02*
X17370214Y-10527500D01*
X17398786Y-10513214D01*
X17470214Y-10513214D01*
X17498786Y-10527500D01*
X17513071Y-10541786D01*
X17527357Y-10570357D01*
X17527357Y-10598929D01*
X17513071Y-10641786D01*
X17341643Y-10813214D01*
X17527357Y-10813214D01*
X17884500Y-10813214D02*
X17884500Y-10513214D01*
X18013071Y-10813214D02*
X18013071Y-10656072D01*
X17998786Y-10627500D01*
X17970214Y-10613214D01*
X17927357Y-10613214D01*
X17898786Y-10627500D01*
X17884500Y-10641786D01*
X18198786Y-10813214D02*
X18170214Y-10798929D01*
X18155928Y-10784643D01*
X18141643Y-10756072D01*
X18141643Y-10670357D01*
X18155928Y-10641786D01*
X18170214Y-10627500D01*
X18198786Y-10613214D01*
X18241643Y-10613214D01*
X18270214Y-10627500D01*
X18284500Y-10641786D01*
X18298786Y-10670357D01*
X18298786Y-10756072D01*
X18284500Y-10784643D01*
X18270214Y-10798929D01*
X18241643Y-10813214D01*
X18198786Y-10813214D01*
X18470214Y-10813214D02*
X18441643Y-10798929D01*
X18427357Y-10770357D01*
X18427357Y-10513214D01*
X18698786Y-10798929D02*
X18670214Y-10813214D01*
X18613071Y-10813214D01*
X18584500Y-10798929D01*
X18570214Y-10770357D01*
X18570214Y-10656072D01*
X18584500Y-10627500D01*
X18613071Y-10613214D01*
X18670214Y-10613214D01*
X18698786Y-10627500D01*
X18713071Y-10656072D01*
X18713071Y-10684643D01*
X18570214Y-10713214D01*
X18827357Y-10798929D02*
X18855928Y-10813214D01*
X18913071Y-10813214D01*
X18941643Y-10798929D01*
X18955928Y-10770357D01*
X18955928Y-10756072D01*
X18941643Y-10727500D01*
X18913071Y-10713214D01*
X18870214Y-10713214D01*
X18841643Y-10698929D01*
X18827357Y-10670357D01*
X18827357Y-10656072D01*
X18841643Y-10627500D01*
X18870214Y-10613214D01*
X18913071Y-10613214D01*
X18941643Y-10627500D01*
X19055928Y-10927500D02*
X19070214Y-10913214D01*
X19098786Y-10870357D01*
X19113071Y-10841786D01*
X19127357Y-10798929D01*
X19141643Y-10727500D01*
X19141643Y-10670357D01*
X19127357Y-10598929D01*
X19113071Y-10556072D01*
X19098786Y-10527500D01*
X19070214Y-10484643D01*
X19055928Y-10470357D01*
M02*
