%FSLAX45Y45*%
G04 Gerber Fmt 4.5, Leading zero omitted, Abs format (unit mm)*
G04 Created by KiCad (PCBNEW 5.1.9) date 2021-04-12 02:59:57*
%MOMM*%
%LPD*%
G01*
G04 APERTURE LIST*
%TA.AperFunction,Profile*%
%ADD10C,0.050000*%
%TD*%
%ADD11C,0.200000*%
%ADD12C,0.300000*%
G04 APERTURE END LIST*
D10*
X19572500Y-8923000D02*
X12572000Y-8923000D01*
X19572000Y-5168400D02*
X19572500Y-8923000D01*
X12572000Y-5168400D02*
X19572000Y-5168400D01*
X12572000Y-8923000D02*
X12572000Y-5168400D01*
D11*
X12680100Y-6381000D02*
X13000100Y-6701000D01*
X13000100Y-6381000D02*
X12680100Y-6701000D01*
X12680100Y-7524000D02*
X13000100Y-7844000D01*
X13000100Y-7524000D02*
X12680100Y-7844000D01*
X12762400Y-8413000D02*
X13082400Y-8733000D01*
X13082400Y-8413000D02*
X12762400Y-8733000D01*
X18642500Y-5364000D02*
X18962500Y-5684000D01*
X18962500Y-5364000D02*
X18642500Y-5684000D01*
X18642500Y-8424700D02*
X18962500Y-8744700D01*
X18962500Y-8424700D02*
X18642500Y-8744700D01*
X13082400Y-5524000D02*
G75*
G03*
X13082400Y-5524000I-160000J0D01*
G01*
D12*
X12855928Y-9391214D02*
X12855928Y-9091214D01*
X12927357Y-9091214D01*
X12970214Y-9105500D01*
X12998786Y-9134072D01*
X13013071Y-9162643D01*
X13027357Y-9219786D01*
X13027357Y-9262643D01*
X13013071Y-9319786D01*
X12998786Y-9348357D01*
X12970214Y-9376929D01*
X12927357Y-9391214D01*
X12855928Y-9391214D01*
X13155928Y-9391214D02*
X13155928Y-9191214D01*
X13155928Y-9248357D02*
X13170214Y-9219786D01*
X13184500Y-9205500D01*
X13213071Y-9191214D01*
X13241643Y-9191214D01*
X13341643Y-9391214D02*
X13341643Y-9191214D01*
X13341643Y-9091214D02*
X13327357Y-9105500D01*
X13341643Y-9119786D01*
X13355928Y-9105500D01*
X13341643Y-9091214D01*
X13341643Y-9119786D01*
X13527357Y-9391214D02*
X13498786Y-9376929D01*
X13484500Y-9348357D01*
X13484500Y-9091214D01*
X13684500Y-9391214D02*
X13655928Y-9376929D01*
X13641643Y-9348357D01*
X13641643Y-9091214D01*
X14027357Y-9391214D02*
X14027357Y-9091214D01*
X14127357Y-9305500D01*
X14227357Y-9091214D01*
X14227357Y-9391214D01*
X14498786Y-9391214D02*
X14498786Y-9234072D01*
X14484500Y-9205500D01*
X14455928Y-9191214D01*
X14398786Y-9191214D01*
X14370214Y-9205500D01*
X14498786Y-9376929D02*
X14470214Y-9391214D01*
X14398786Y-9391214D01*
X14370214Y-9376929D01*
X14355928Y-9348357D01*
X14355928Y-9319786D01*
X14370214Y-9291214D01*
X14398786Y-9276929D01*
X14470214Y-9276929D01*
X14498786Y-9262643D01*
X14641643Y-9191214D02*
X14641643Y-9491214D01*
X14641643Y-9205500D02*
X14670214Y-9191214D01*
X14727357Y-9191214D01*
X14755928Y-9205500D01*
X14770214Y-9219786D01*
X14784500Y-9248357D01*
X14784500Y-9334072D01*
X14770214Y-9362643D01*
X14755928Y-9376929D01*
X14727357Y-9391214D01*
X14670214Y-9391214D01*
X14641643Y-9376929D01*
X14913071Y-9362643D02*
X14927357Y-9376929D01*
X14913071Y-9391214D01*
X14898786Y-9376929D01*
X14913071Y-9362643D01*
X14913071Y-9391214D01*
X14913071Y-9205500D02*
X14927357Y-9219786D01*
X14913071Y-9234072D01*
X14898786Y-9219786D01*
X14913071Y-9205500D01*
X14913071Y-9234072D01*
X12249500Y-9725500D02*
X12569500Y-10045500D01*
X12569500Y-9725500D02*
X12249500Y-10045500D01*
X12827357Y-9721214D02*
X13013071Y-9721214D01*
X12913071Y-9835500D01*
X12955928Y-9835500D01*
X12984500Y-9849786D01*
X12998786Y-9864072D01*
X13013071Y-9892643D01*
X13013071Y-9964072D01*
X12998786Y-9992643D01*
X12984500Y-10006929D01*
X12955928Y-10021214D01*
X12870214Y-10021214D01*
X12841643Y-10006929D01*
X12827357Y-9992643D01*
X13141643Y-9992643D02*
X13155928Y-10006929D01*
X13141643Y-10021214D01*
X13127357Y-10006929D01*
X13141643Y-9992643D01*
X13141643Y-10021214D01*
X13270214Y-9749786D02*
X13284500Y-9735500D01*
X13313071Y-9721214D01*
X13384500Y-9721214D01*
X13413071Y-9735500D01*
X13427357Y-9749786D01*
X13441643Y-9778357D01*
X13441643Y-9806929D01*
X13427357Y-9849786D01*
X13255928Y-10021214D01*
X13441643Y-10021214D01*
X13627357Y-9721214D02*
X13655928Y-9721214D01*
X13684500Y-9735500D01*
X13698786Y-9749786D01*
X13713071Y-9778357D01*
X13727357Y-9835500D01*
X13727357Y-9906929D01*
X13713071Y-9964072D01*
X13698786Y-9992643D01*
X13684500Y-10006929D01*
X13655928Y-10021214D01*
X13627357Y-10021214D01*
X13598786Y-10006929D01*
X13584500Y-9992643D01*
X13570214Y-9964072D01*
X13555928Y-9906929D01*
X13555928Y-9835500D01*
X13570214Y-9778357D01*
X13584500Y-9749786D01*
X13598786Y-9735500D01*
X13627357Y-9721214D01*
X13855928Y-10021214D02*
X13855928Y-9821214D01*
X13855928Y-9849786D02*
X13870214Y-9835500D01*
X13898786Y-9821214D01*
X13941643Y-9821214D01*
X13970214Y-9835500D01*
X13984500Y-9864072D01*
X13984500Y-10021214D01*
X13984500Y-9864072D02*
X13998786Y-9835500D01*
X14027357Y-9821214D01*
X14070214Y-9821214D01*
X14098786Y-9835500D01*
X14113071Y-9864072D01*
X14113071Y-10021214D01*
X14255928Y-10021214D02*
X14255928Y-9821214D01*
X14255928Y-9849786D02*
X14270214Y-9835500D01*
X14298786Y-9821214D01*
X14341643Y-9821214D01*
X14370214Y-9835500D01*
X14384500Y-9864072D01*
X14384500Y-10021214D01*
X14384500Y-9864072D02*
X14398786Y-9835500D01*
X14427357Y-9821214D01*
X14470214Y-9821214D01*
X14498786Y-9835500D01*
X14513071Y-9864072D01*
X14513071Y-10021214D01*
X15098786Y-9706929D02*
X14841643Y-10092643D01*
X15484500Y-9721214D02*
X15513071Y-9721214D01*
X15541643Y-9735500D01*
X15555928Y-9749786D01*
X15570214Y-9778357D01*
X15584500Y-9835500D01*
X15584500Y-9906929D01*
X15570214Y-9964072D01*
X15555928Y-9992643D01*
X15541643Y-10006929D01*
X15513071Y-10021214D01*
X15484500Y-10021214D01*
X15455928Y-10006929D01*
X15441643Y-9992643D01*
X15427357Y-9964072D01*
X15413071Y-9906929D01*
X15413071Y-9835500D01*
X15427357Y-9778357D01*
X15441643Y-9749786D01*
X15455928Y-9735500D01*
X15484500Y-9721214D01*
X15713071Y-9992643D02*
X15727357Y-10006929D01*
X15713071Y-10021214D01*
X15698786Y-10006929D01*
X15713071Y-9992643D01*
X15713071Y-10021214D01*
X16013071Y-10021214D02*
X15841643Y-10021214D01*
X15927357Y-10021214D02*
X15927357Y-9721214D01*
X15898786Y-9764072D01*
X15870214Y-9792643D01*
X15841643Y-9806929D01*
X16127357Y-9749786D02*
X16141643Y-9735500D01*
X16170214Y-9721214D01*
X16241643Y-9721214D01*
X16270214Y-9735500D01*
X16284500Y-9749786D01*
X16298786Y-9778357D01*
X16298786Y-9806929D01*
X16284500Y-9849786D01*
X16113071Y-10021214D01*
X16298786Y-10021214D01*
X16555928Y-9721214D02*
X16498786Y-9721214D01*
X16470214Y-9735500D01*
X16455928Y-9749786D01*
X16427357Y-9792643D01*
X16413071Y-9849786D01*
X16413071Y-9964072D01*
X16427357Y-9992643D01*
X16441643Y-10006929D01*
X16470214Y-10021214D01*
X16527357Y-10021214D01*
X16555928Y-10006929D01*
X16570214Y-9992643D01*
X16584500Y-9964072D01*
X16584500Y-9892643D01*
X16570214Y-9864072D01*
X16555928Y-9849786D01*
X16527357Y-9835500D01*
X16470214Y-9835500D01*
X16441643Y-9849786D01*
X16427357Y-9864072D01*
X16413071Y-9892643D01*
X16698786Y-9721214D02*
X16698786Y-9778357D01*
X16813071Y-9721214D02*
X16813071Y-9778357D01*
X17255928Y-10135500D02*
X17241643Y-10121214D01*
X17213071Y-10078357D01*
X17198786Y-10049786D01*
X17184500Y-10006929D01*
X17170214Y-9935500D01*
X17170214Y-9878357D01*
X17184500Y-9806929D01*
X17198786Y-9764072D01*
X17213071Y-9735500D01*
X17241643Y-9692643D01*
X17255928Y-9678357D01*
X17513071Y-9721214D02*
X17370214Y-9721214D01*
X17355928Y-9864072D01*
X17370214Y-9849786D01*
X17398786Y-9835500D01*
X17470214Y-9835500D01*
X17498786Y-9849786D01*
X17513071Y-9864072D01*
X17527357Y-9892643D01*
X17527357Y-9964072D01*
X17513071Y-9992643D01*
X17498786Y-10006929D01*
X17470214Y-10021214D01*
X17398786Y-10021214D01*
X17370214Y-10006929D01*
X17355928Y-9992643D01*
X17884500Y-10021214D02*
X17884500Y-9721214D01*
X18013071Y-10021214D02*
X18013071Y-9864072D01*
X17998786Y-9835500D01*
X17970214Y-9821214D01*
X17927357Y-9821214D01*
X17898786Y-9835500D01*
X17884500Y-9849786D01*
X18198786Y-10021214D02*
X18170214Y-10006929D01*
X18155928Y-9992643D01*
X18141643Y-9964072D01*
X18141643Y-9878357D01*
X18155928Y-9849786D01*
X18170214Y-9835500D01*
X18198786Y-9821214D01*
X18241643Y-9821214D01*
X18270214Y-9835500D01*
X18284500Y-9849786D01*
X18298786Y-9878357D01*
X18298786Y-9964072D01*
X18284500Y-9992643D01*
X18270214Y-10006929D01*
X18241643Y-10021214D01*
X18198786Y-10021214D01*
X18470214Y-10021214D02*
X18441643Y-10006929D01*
X18427357Y-9978357D01*
X18427357Y-9721214D01*
X18698786Y-10006929D02*
X18670214Y-10021214D01*
X18613071Y-10021214D01*
X18584500Y-10006929D01*
X18570214Y-9978357D01*
X18570214Y-9864072D01*
X18584500Y-9835500D01*
X18613071Y-9821214D01*
X18670214Y-9821214D01*
X18698786Y-9835500D01*
X18713071Y-9864072D01*
X18713071Y-9892643D01*
X18570214Y-9921214D01*
X18827357Y-10006929D02*
X18855928Y-10021214D01*
X18913071Y-10021214D01*
X18941643Y-10006929D01*
X18955928Y-9978357D01*
X18955928Y-9964072D01*
X18941643Y-9935500D01*
X18913071Y-9921214D01*
X18870214Y-9921214D01*
X18841643Y-9906929D01*
X18827357Y-9878357D01*
X18827357Y-9864072D01*
X18841643Y-9835500D01*
X18870214Y-9821214D01*
X18913071Y-9821214D01*
X18941643Y-9835500D01*
X19055928Y-10135500D02*
X19070214Y-10121214D01*
X19098786Y-10078357D01*
X19113071Y-10049786D01*
X19127357Y-10006929D01*
X19141643Y-9935500D01*
X19141643Y-9878357D01*
X19127357Y-9806929D01*
X19113071Y-9764072D01*
X19098786Y-9735500D01*
X19070214Y-9692643D01*
X19055928Y-9678357D01*
X19598786Y-10135500D02*
X19584500Y-10121214D01*
X19555928Y-10078357D01*
X19541643Y-10049786D01*
X19527357Y-10006929D01*
X19513071Y-9935500D01*
X19513071Y-9878357D01*
X19527357Y-9806929D01*
X19541643Y-9764072D01*
X19555928Y-9735500D01*
X19584500Y-9692643D01*
X19598786Y-9678357D01*
X19713071Y-9821214D02*
X19713071Y-10021214D01*
X19713071Y-9849786D02*
X19727357Y-9835500D01*
X19755928Y-9821214D01*
X19798786Y-9821214D01*
X19827357Y-9835500D01*
X19841643Y-9864072D01*
X19841643Y-10021214D01*
X20027357Y-10021214D02*
X19998786Y-10006929D01*
X19984500Y-9992643D01*
X19970214Y-9964072D01*
X19970214Y-9878357D01*
X19984500Y-9849786D01*
X19998786Y-9835500D01*
X20027357Y-9821214D01*
X20070214Y-9821214D01*
X20098786Y-9835500D01*
X20113071Y-9849786D01*
X20127357Y-9878357D01*
X20127357Y-9964072D01*
X20113071Y-9992643D01*
X20098786Y-10006929D01*
X20070214Y-10021214D01*
X20027357Y-10021214D01*
X20213071Y-9821214D02*
X20327357Y-9821214D01*
X20255928Y-9721214D02*
X20255928Y-9978357D01*
X20270214Y-10006929D01*
X20298786Y-10021214D01*
X20327357Y-10021214D01*
X20655928Y-9821214D02*
X20655928Y-10121214D01*
X20655928Y-9835500D02*
X20684500Y-9821214D01*
X20741643Y-9821214D01*
X20770214Y-9835500D01*
X20784500Y-9849786D01*
X20798786Y-9878357D01*
X20798786Y-9964072D01*
X20784500Y-9992643D01*
X20770214Y-10006929D01*
X20741643Y-10021214D01*
X20684500Y-10021214D01*
X20655928Y-10006929D01*
X20970214Y-10021214D02*
X20941643Y-10006929D01*
X20927357Y-9978357D01*
X20927357Y-9721214D01*
X21213071Y-10021214D02*
X21213071Y-9864072D01*
X21198786Y-9835500D01*
X21170214Y-9821214D01*
X21113071Y-9821214D01*
X21084500Y-9835500D01*
X21213071Y-10006929D02*
X21184500Y-10021214D01*
X21113071Y-10021214D01*
X21084500Y-10006929D01*
X21070214Y-9978357D01*
X21070214Y-9949786D01*
X21084500Y-9921214D01*
X21113071Y-9906929D01*
X21184500Y-9906929D01*
X21213071Y-9892643D01*
X21313071Y-9821214D02*
X21427357Y-9821214D01*
X21355928Y-9721214D02*
X21355928Y-9978357D01*
X21370214Y-10006929D01*
X21398786Y-10021214D01*
X21427357Y-10021214D01*
X21641643Y-10006929D02*
X21613071Y-10021214D01*
X21555928Y-10021214D01*
X21527357Y-10006929D01*
X21513071Y-9978357D01*
X21513071Y-9864072D01*
X21527357Y-9835500D01*
X21555928Y-9821214D01*
X21613071Y-9821214D01*
X21641643Y-9835500D01*
X21655928Y-9864072D01*
X21655928Y-9892643D01*
X21513071Y-9921214D01*
X21913071Y-10021214D02*
X21913071Y-9721214D01*
X21913071Y-10006929D02*
X21884500Y-10021214D01*
X21827357Y-10021214D01*
X21798786Y-10006929D01*
X21784500Y-9992643D01*
X21770214Y-9964072D01*
X21770214Y-9878357D01*
X21784500Y-9849786D01*
X21798786Y-9835500D01*
X21827357Y-9821214D01*
X21884500Y-9821214D01*
X21913071Y-9835500D01*
X22027357Y-10135500D02*
X22041643Y-10121214D01*
X22070214Y-10078357D01*
X22084500Y-10049786D01*
X22098786Y-10006929D01*
X22113071Y-9935500D01*
X22113071Y-9878357D01*
X22098786Y-9806929D01*
X22084500Y-9764072D01*
X22070214Y-9735500D01*
X22041643Y-9692643D01*
X22027357Y-9678357D01*
X12569500Y-10335500D02*
G75*
G03*
X12569500Y-10335500I-160000J0D01*
G01*
X12827357Y-10171214D02*
X13013071Y-10171214D01*
X12913071Y-10285500D01*
X12955928Y-10285500D01*
X12984500Y-10299786D01*
X12998786Y-10314072D01*
X13013071Y-10342643D01*
X13013071Y-10414072D01*
X12998786Y-10442643D01*
X12984500Y-10456929D01*
X12955928Y-10471214D01*
X12870214Y-10471214D01*
X12841643Y-10456929D01*
X12827357Y-10442643D01*
X13141643Y-10442643D02*
X13155928Y-10456929D01*
X13141643Y-10471214D01*
X13127357Y-10456929D01*
X13141643Y-10442643D01*
X13141643Y-10471214D01*
X13270214Y-10199786D02*
X13284500Y-10185500D01*
X13313071Y-10171214D01*
X13384500Y-10171214D01*
X13413071Y-10185500D01*
X13427357Y-10199786D01*
X13441643Y-10228357D01*
X13441643Y-10256929D01*
X13427357Y-10299786D01*
X13255928Y-10471214D01*
X13441643Y-10471214D01*
X13627357Y-10171214D02*
X13655928Y-10171214D01*
X13684500Y-10185500D01*
X13698786Y-10199786D01*
X13713071Y-10228357D01*
X13727357Y-10285500D01*
X13727357Y-10356929D01*
X13713071Y-10414072D01*
X13698786Y-10442643D01*
X13684500Y-10456929D01*
X13655928Y-10471214D01*
X13627357Y-10471214D01*
X13598786Y-10456929D01*
X13584500Y-10442643D01*
X13570214Y-10414072D01*
X13555928Y-10356929D01*
X13555928Y-10285500D01*
X13570214Y-10228357D01*
X13584500Y-10199786D01*
X13598786Y-10185500D01*
X13627357Y-10171214D01*
X13855928Y-10471214D02*
X13855928Y-10271214D01*
X13855928Y-10299786D02*
X13870214Y-10285500D01*
X13898786Y-10271214D01*
X13941643Y-10271214D01*
X13970214Y-10285500D01*
X13984500Y-10314072D01*
X13984500Y-10471214D01*
X13984500Y-10314072D02*
X13998786Y-10285500D01*
X14027357Y-10271214D01*
X14070214Y-10271214D01*
X14098786Y-10285500D01*
X14113071Y-10314072D01*
X14113071Y-10471214D01*
X14255928Y-10471214D02*
X14255928Y-10271214D01*
X14255928Y-10299786D02*
X14270214Y-10285500D01*
X14298786Y-10271214D01*
X14341643Y-10271214D01*
X14370214Y-10285500D01*
X14384500Y-10314072D01*
X14384500Y-10471214D01*
X14384500Y-10314072D02*
X14398786Y-10285500D01*
X14427357Y-10271214D01*
X14470214Y-10271214D01*
X14498786Y-10285500D01*
X14513071Y-10314072D01*
X14513071Y-10471214D01*
X15098786Y-10156929D02*
X14841643Y-10542643D01*
X15484500Y-10171214D02*
X15513071Y-10171214D01*
X15541643Y-10185500D01*
X15555928Y-10199786D01*
X15570214Y-10228357D01*
X15584500Y-10285500D01*
X15584500Y-10356929D01*
X15570214Y-10414072D01*
X15555928Y-10442643D01*
X15541643Y-10456929D01*
X15513071Y-10471214D01*
X15484500Y-10471214D01*
X15455928Y-10456929D01*
X15441643Y-10442643D01*
X15427357Y-10414072D01*
X15413071Y-10356929D01*
X15413071Y-10285500D01*
X15427357Y-10228357D01*
X15441643Y-10199786D01*
X15455928Y-10185500D01*
X15484500Y-10171214D01*
X15713071Y-10442643D02*
X15727357Y-10456929D01*
X15713071Y-10471214D01*
X15698786Y-10456929D01*
X15713071Y-10442643D01*
X15713071Y-10471214D01*
X16013071Y-10471214D02*
X15841643Y-10471214D01*
X15927357Y-10471214D02*
X15927357Y-10171214D01*
X15898786Y-10214072D01*
X15870214Y-10242643D01*
X15841643Y-10256929D01*
X16127357Y-10199786D02*
X16141643Y-10185500D01*
X16170214Y-10171214D01*
X16241643Y-10171214D01*
X16270214Y-10185500D01*
X16284500Y-10199786D01*
X16298786Y-10228357D01*
X16298786Y-10256929D01*
X16284500Y-10299786D01*
X16113071Y-10471214D01*
X16298786Y-10471214D01*
X16555928Y-10171214D02*
X16498786Y-10171214D01*
X16470214Y-10185500D01*
X16455928Y-10199786D01*
X16427357Y-10242643D01*
X16413071Y-10299786D01*
X16413071Y-10414072D01*
X16427357Y-10442643D01*
X16441643Y-10456929D01*
X16470214Y-10471214D01*
X16527357Y-10471214D01*
X16555928Y-10456929D01*
X16570214Y-10442643D01*
X16584500Y-10414072D01*
X16584500Y-10342643D01*
X16570214Y-10314072D01*
X16555928Y-10299786D01*
X16527357Y-10285500D01*
X16470214Y-10285500D01*
X16441643Y-10299786D01*
X16427357Y-10314072D01*
X16413071Y-10342643D01*
X16698786Y-10171214D02*
X16698786Y-10228357D01*
X16813071Y-10171214D02*
X16813071Y-10228357D01*
X17255928Y-10585500D02*
X17241643Y-10571214D01*
X17213071Y-10528357D01*
X17198786Y-10499786D01*
X17184500Y-10456929D01*
X17170214Y-10385500D01*
X17170214Y-10328357D01*
X17184500Y-10256929D01*
X17198786Y-10214072D01*
X17213071Y-10185500D01*
X17241643Y-10142643D01*
X17255928Y-10128357D01*
X17527357Y-10471214D02*
X17355928Y-10471214D01*
X17441643Y-10471214D02*
X17441643Y-10171214D01*
X17413071Y-10214072D01*
X17384500Y-10242643D01*
X17355928Y-10256929D01*
X17884500Y-10471214D02*
X17884500Y-10171214D01*
X18013071Y-10471214D02*
X18013071Y-10314072D01*
X17998786Y-10285500D01*
X17970214Y-10271214D01*
X17927357Y-10271214D01*
X17898786Y-10285500D01*
X17884500Y-10299786D01*
X18198786Y-10471214D02*
X18170214Y-10456929D01*
X18155928Y-10442643D01*
X18141643Y-10414072D01*
X18141643Y-10328357D01*
X18155928Y-10299786D01*
X18170214Y-10285500D01*
X18198786Y-10271214D01*
X18241643Y-10271214D01*
X18270214Y-10285500D01*
X18284500Y-10299786D01*
X18298786Y-10328357D01*
X18298786Y-10414072D01*
X18284500Y-10442643D01*
X18270214Y-10456929D01*
X18241643Y-10471214D01*
X18198786Y-10471214D01*
X18470214Y-10471214D02*
X18441643Y-10456929D01*
X18427357Y-10428357D01*
X18427357Y-10171214D01*
X18698786Y-10456929D02*
X18670214Y-10471214D01*
X18613071Y-10471214D01*
X18584500Y-10456929D01*
X18570214Y-10428357D01*
X18570214Y-10314072D01*
X18584500Y-10285500D01*
X18613071Y-10271214D01*
X18670214Y-10271214D01*
X18698786Y-10285500D01*
X18713071Y-10314072D01*
X18713071Y-10342643D01*
X18570214Y-10371214D01*
X18813071Y-10585500D02*
X18827357Y-10571214D01*
X18855928Y-10528357D01*
X18870214Y-10499786D01*
X18884500Y-10456929D01*
X18898786Y-10385500D01*
X18898786Y-10328357D01*
X18884500Y-10256929D01*
X18870214Y-10214072D01*
X18855928Y-10185500D01*
X18827357Y-10142643D01*
X18813071Y-10128357D01*
X19355928Y-10585500D02*
X19341643Y-10571214D01*
X19313071Y-10528357D01*
X19298786Y-10499786D01*
X19284500Y-10456929D01*
X19270214Y-10385500D01*
X19270214Y-10328357D01*
X19284500Y-10256929D01*
X19298786Y-10214072D01*
X19313071Y-10185500D01*
X19341643Y-10142643D01*
X19355928Y-10128357D01*
X19470214Y-10271214D02*
X19470214Y-10471214D01*
X19470214Y-10299786D02*
X19484500Y-10285500D01*
X19513071Y-10271214D01*
X19555928Y-10271214D01*
X19584500Y-10285500D01*
X19598786Y-10314072D01*
X19598786Y-10471214D01*
X19784500Y-10471214D02*
X19755928Y-10456929D01*
X19741643Y-10442643D01*
X19727357Y-10414072D01*
X19727357Y-10328357D01*
X19741643Y-10299786D01*
X19755928Y-10285500D01*
X19784500Y-10271214D01*
X19827357Y-10271214D01*
X19855928Y-10285500D01*
X19870214Y-10299786D01*
X19884500Y-10328357D01*
X19884500Y-10414072D01*
X19870214Y-10442643D01*
X19855928Y-10456929D01*
X19827357Y-10471214D01*
X19784500Y-10471214D01*
X19970214Y-10271214D02*
X20084500Y-10271214D01*
X20013071Y-10171214D02*
X20013071Y-10428357D01*
X20027357Y-10456929D01*
X20055928Y-10471214D01*
X20084500Y-10471214D01*
X20413071Y-10271214D02*
X20413071Y-10571214D01*
X20413071Y-10285500D02*
X20441643Y-10271214D01*
X20498786Y-10271214D01*
X20527357Y-10285500D01*
X20541643Y-10299786D01*
X20555928Y-10328357D01*
X20555928Y-10414072D01*
X20541643Y-10442643D01*
X20527357Y-10456929D01*
X20498786Y-10471214D01*
X20441643Y-10471214D01*
X20413071Y-10456929D01*
X20727357Y-10471214D02*
X20698786Y-10456929D01*
X20684500Y-10428357D01*
X20684500Y-10171214D01*
X20970214Y-10471214D02*
X20970214Y-10314072D01*
X20955928Y-10285500D01*
X20927357Y-10271214D01*
X20870214Y-10271214D01*
X20841643Y-10285500D01*
X20970214Y-10456929D02*
X20941643Y-10471214D01*
X20870214Y-10471214D01*
X20841643Y-10456929D01*
X20827357Y-10428357D01*
X20827357Y-10399786D01*
X20841643Y-10371214D01*
X20870214Y-10356929D01*
X20941643Y-10356929D01*
X20970214Y-10342643D01*
X21070214Y-10271214D02*
X21184500Y-10271214D01*
X21113071Y-10171214D02*
X21113071Y-10428357D01*
X21127357Y-10456929D01*
X21155928Y-10471214D01*
X21184500Y-10471214D01*
X21398786Y-10456929D02*
X21370214Y-10471214D01*
X21313071Y-10471214D01*
X21284500Y-10456929D01*
X21270214Y-10428357D01*
X21270214Y-10314072D01*
X21284500Y-10285500D01*
X21313071Y-10271214D01*
X21370214Y-10271214D01*
X21398786Y-10285500D01*
X21413071Y-10314072D01*
X21413071Y-10342643D01*
X21270214Y-10371214D01*
X21670214Y-10471214D02*
X21670214Y-10171214D01*
X21670214Y-10456929D02*
X21641643Y-10471214D01*
X21584500Y-10471214D01*
X21555928Y-10456929D01*
X21541643Y-10442643D01*
X21527357Y-10414072D01*
X21527357Y-10328357D01*
X21541643Y-10299786D01*
X21555928Y-10285500D01*
X21584500Y-10271214D01*
X21641643Y-10271214D01*
X21670214Y-10285500D01*
X21784500Y-10585500D02*
X21798786Y-10571214D01*
X21827357Y-10528357D01*
X21841643Y-10499786D01*
X21855928Y-10456929D01*
X21870214Y-10385500D01*
X21870214Y-10328357D01*
X21855928Y-10256929D01*
X21841643Y-10214072D01*
X21827357Y-10185500D01*
X21798786Y-10142643D01*
X21784500Y-10128357D01*
M02*
