G04 #@! TF.GenerationSoftware,KiCad,Pcbnew,5.1.9*
G04 #@! TF.CreationDate,2021-04-12T04:07:40-03:00*
G04 #@! TF.ProjectId,Controle,436f6e74-726f-46c6-952e-6b696361645f,rev?*
G04 #@! TF.SameCoordinates,Original*
G04 #@! TF.FileFunction,Legend,Top*
G04 #@! TF.FilePolarity,Positive*
%FSLAX46Y46*%
G04 Gerber Fmt 4.6, Leading zero omitted, Abs format (unit mm)*
G04 Created by KiCad (PCBNEW 5.1.9) date 2021-04-12 04:07:40*
%MOMM*%
%LPD*%
G01*
G04 APERTURE LIST*
%ADD10C,0.150000*%
%ADD11C,0.120000*%
%ADD12C,3.200000*%
%ADD13R,2.510000X1.000000*%
%ADD14R,0.800000X1.900000*%
%ADD15R,0.900000X1.300000*%
%ADD16R,1.000000X2.510000*%
%ADD17R,1.100000X1.100000*%
%ADD18R,1.905000X4.000000*%
%ADD19R,3.800000X2.000000*%
%ADD20R,1.500000X2.000000*%
%ADD21C,3.650000*%
%ADD22R,1.500000X1.500000*%
%ADD23C,1.500000*%
%ADD24C,2.500000*%
G04 APERTURE END LIST*
D10*
X184796714Y-61928833D02*
X184796714Y-62497214D01*
X184512523Y-62213023D02*
X185080904Y-62213023D01*
X184512523Y-63243214D02*
X184512523Y-62816928D01*
X184512523Y-63030071D02*
X185258523Y-63030071D01*
X185151952Y-62959023D01*
X185080904Y-62887976D01*
X185045380Y-62816928D01*
X185258523Y-63918166D02*
X185258523Y-63562928D01*
X184903285Y-63527404D01*
X184938809Y-63562928D01*
X184974333Y-63633976D01*
X184974333Y-63811595D01*
X184938809Y-63882642D01*
X184903285Y-63918166D01*
X184832238Y-63953690D01*
X184654619Y-63953690D01*
X184583571Y-63918166D01*
X184548047Y-63882642D01*
X184512523Y-63811595D01*
X184512523Y-63633976D01*
X184548047Y-63562928D01*
X184583571Y-63527404D01*
X185286500Y-66546119D02*
X185322023Y-66475071D01*
X185322023Y-66368500D01*
X185286500Y-66261928D01*
X185215452Y-66190880D01*
X185144404Y-66155357D01*
X185002309Y-66119833D01*
X184895738Y-66119833D01*
X184753642Y-66155357D01*
X184682595Y-66190880D01*
X184611547Y-66261928D01*
X184576023Y-66368500D01*
X184576023Y-66439547D01*
X184611547Y-66546119D01*
X184647071Y-66581642D01*
X184895738Y-66581642D01*
X184895738Y-66439547D01*
X184576023Y-66901357D02*
X185322023Y-66901357D01*
X184576023Y-67327642D01*
X185322023Y-67327642D01*
X184576023Y-67682880D02*
X185322023Y-67682880D01*
X185322023Y-67860500D01*
X185286500Y-67967071D01*
X185215452Y-68038119D01*
X185144404Y-68073642D01*
X185002309Y-68109166D01*
X184895738Y-68109166D01*
X184753642Y-68073642D01*
X184682595Y-68038119D01*
X184611547Y-67967071D01*
X184576023Y-67860500D01*
X184576023Y-67682880D01*
D11*
X179452500Y-63495000D02*
X178436500Y-63495000D01*
X179389000Y-65844500D02*
X178500000Y-65844500D01*
D10*
X178827714Y-61166833D02*
X178827714Y-61735214D01*
X178543523Y-61451023D02*
X179111904Y-61451023D01*
X178543523Y-62481214D02*
X178543523Y-62054928D01*
X178543523Y-62268071D02*
X179289523Y-62268071D01*
X179182952Y-62197023D01*
X179111904Y-62125976D01*
X179076380Y-62054928D01*
X179289523Y-63156166D02*
X179289523Y-62800928D01*
X178934285Y-62765404D01*
X178969809Y-62800928D01*
X179005333Y-62871976D01*
X179005333Y-63049595D01*
X178969809Y-63120642D01*
X178934285Y-63156166D01*
X178863238Y-63191690D01*
X178685619Y-63191690D01*
X178614571Y-63156166D01*
X178579047Y-63120642D01*
X178543523Y-63049595D01*
X178543523Y-62871976D01*
X178579047Y-62800928D01*
X178614571Y-62765404D01*
X179254000Y-66546119D02*
X179289523Y-66475071D01*
X179289523Y-66368500D01*
X179254000Y-66261928D01*
X179182952Y-66190880D01*
X179111904Y-66155357D01*
X178969809Y-66119833D01*
X178863238Y-66119833D01*
X178721142Y-66155357D01*
X178650095Y-66190880D01*
X178579047Y-66261928D01*
X178543523Y-66368500D01*
X178543523Y-66439547D01*
X178579047Y-66546119D01*
X178614571Y-66581642D01*
X178863238Y-66581642D01*
X178863238Y-66439547D01*
X178543523Y-66901357D02*
X179289523Y-66901357D01*
X178543523Y-67327642D01*
X179289523Y-67327642D01*
X178543523Y-67682880D02*
X179289523Y-67682880D01*
X179289523Y-67860500D01*
X179254000Y-67967071D01*
X179182952Y-68038119D01*
X179111904Y-68073642D01*
X178969809Y-68109166D01*
X178863238Y-68109166D01*
X178721142Y-68073642D01*
X178650095Y-68038119D01*
X178579047Y-67967071D01*
X178543523Y-67860500D01*
X178543523Y-67682880D01*
X191549404Y-60597880D02*
X192168452Y-60597880D01*
X191835119Y-60978833D01*
X191977976Y-60978833D01*
X192073214Y-61026452D01*
X192120833Y-61074071D01*
X192168452Y-61169309D01*
X192168452Y-61407404D01*
X192120833Y-61502642D01*
X192073214Y-61550261D01*
X191977976Y-61597880D01*
X191692261Y-61597880D01*
X191597023Y-61550261D01*
X191549404Y-61502642D01*
X192454166Y-60597880D02*
X192787500Y-61597880D01*
X193120833Y-60597880D01*
X193358928Y-60597880D02*
X193977976Y-60597880D01*
X193644642Y-60978833D01*
X193787500Y-60978833D01*
X193882738Y-61026452D01*
X193930357Y-61074071D01*
X193977976Y-61169309D01*
X193977976Y-61407404D01*
X193930357Y-61502642D01*
X193882738Y-61550261D01*
X193787500Y-61597880D01*
X193501785Y-61597880D01*
X193406547Y-61550261D01*
X193358928Y-61502642D01*
D11*
X194184500Y-60129500D02*
X187834500Y-60129500D01*
X194184500Y-69845000D02*
X194184500Y-60129500D01*
X185548500Y-69845000D02*
X194184500Y-69845000D01*
X185548500Y-65463500D02*
X185548500Y-69845000D01*
X187834500Y-65463500D02*
X185548500Y-65463500D01*
X187834500Y-64320500D02*
X187834500Y-65463500D01*
X187834500Y-60129500D02*
X187834500Y-64320500D01*
D10*
X175626785Y-55628928D02*
X176388690Y-55628928D01*
X176007738Y-56009880D02*
X176007738Y-55247976D01*
X177341071Y-55009880D02*
X176864880Y-55009880D01*
X176817261Y-55486071D01*
X176864880Y-55438452D01*
X176960119Y-55390833D01*
X177198214Y-55390833D01*
X177293452Y-55438452D01*
X177341071Y-55486071D01*
X177388690Y-55581309D01*
X177388690Y-55819404D01*
X177341071Y-55914642D01*
X177293452Y-55962261D01*
X177198214Y-56009880D01*
X176960119Y-56009880D01*
X176864880Y-55962261D01*
X176817261Y-55914642D01*
X177674404Y-55009880D02*
X178007738Y-56009880D01*
X178341071Y-55009880D01*
D11*
X178690500Y-54859000D02*
X161228000Y-54859000D01*
X178690500Y-60320000D02*
X178690500Y-54859000D01*
X173420000Y-60320000D02*
X178690500Y-60320000D01*
X173420000Y-62225000D02*
X173420000Y-60320000D01*
X172912000Y-62225000D02*
X173420000Y-62225000D01*
X172912000Y-64638000D02*
X172912000Y-62225000D01*
X166054000Y-64638000D02*
X172912000Y-64638000D01*
X166054000Y-63495000D02*
X166054000Y-64638000D01*
X161228000Y-63495000D02*
X166054000Y-63495000D01*
X161228000Y-54859000D02*
X161228000Y-63495000D01*
D10*
X133113595Y-55628928D02*
X133875500Y-55628928D01*
X133494547Y-56009880D02*
X133494547Y-55247976D01*
X134875500Y-56009880D02*
X134304071Y-56009880D01*
X134589785Y-56009880D02*
X134589785Y-55009880D01*
X134494547Y-55152738D01*
X134399309Y-55247976D01*
X134304071Y-55295595D01*
X135446928Y-55438452D02*
X135351690Y-55390833D01*
X135304071Y-55343214D01*
X135256452Y-55247976D01*
X135256452Y-55200357D01*
X135304071Y-55105119D01*
X135351690Y-55057500D01*
X135446928Y-55009880D01*
X135637404Y-55009880D01*
X135732642Y-55057500D01*
X135780261Y-55105119D01*
X135827880Y-55200357D01*
X135827880Y-55247976D01*
X135780261Y-55343214D01*
X135732642Y-55390833D01*
X135637404Y-55438452D01*
X135446928Y-55438452D01*
X135351690Y-55486071D01*
X135304071Y-55533690D01*
X135256452Y-55628928D01*
X135256452Y-55819404D01*
X135304071Y-55914642D01*
X135351690Y-55962261D01*
X135446928Y-56009880D01*
X135637404Y-56009880D01*
X135732642Y-55962261D01*
X135780261Y-55914642D01*
X135827880Y-55819404D01*
X135827880Y-55628928D01*
X135780261Y-55533690D01*
X135732642Y-55486071D01*
X135637404Y-55438452D01*
X136113595Y-55009880D02*
X136446928Y-56009880D01*
X136780261Y-55009880D01*
D11*
X151258500Y-78417500D02*
X141543000Y-78481000D01*
X151258500Y-64955500D02*
X151258500Y-78417500D01*
X154624000Y-64955500D02*
X151258500Y-64955500D01*
X154624000Y-54859000D02*
X154624000Y-64955500D01*
X132780000Y-54859000D02*
X154624000Y-54859000D01*
X132780000Y-62987000D02*
X132780000Y-54859000D01*
X140527000Y-62987000D02*
X132780000Y-62987000D01*
X140463500Y-78481000D02*
X140527000Y-62987000D01*
X141543000Y-78481000D02*
X140463500Y-78481000D01*
D10*
X190485809Y-70503880D02*
X190819142Y-71503880D01*
X191152476Y-70503880D01*
X191247714Y-71599119D02*
X192009619Y-71599119D01*
X192247714Y-71503880D02*
X192247714Y-70503880D01*
X192723904Y-71503880D02*
X192723904Y-70503880D01*
X193295333Y-71503880D01*
X193295333Y-70503880D01*
X186350333Y-71456261D02*
X186493190Y-71503880D01*
X186731285Y-71503880D01*
X186826523Y-71456261D01*
X186874142Y-71408642D01*
X186921761Y-71313404D01*
X186921761Y-71218166D01*
X186874142Y-71122928D01*
X186826523Y-71075309D01*
X186731285Y-71027690D01*
X186540809Y-70980071D01*
X186445571Y-70932452D01*
X186397952Y-70884833D01*
X186350333Y-70789595D01*
X186350333Y-70694357D01*
X186397952Y-70599119D01*
X186445571Y-70551500D01*
X186540809Y-70503880D01*
X186778904Y-70503880D01*
X186921761Y-70551500D01*
X187826523Y-71503880D02*
X187350333Y-71503880D01*
X187350333Y-70503880D01*
X188112238Y-70599119D02*
X188159857Y-70551500D01*
X188255095Y-70503880D01*
X188493190Y-70503880D01*
X188588428Y-70551500D01*
X188636047Y-70599119D01*
X188683666Y-70694357D01*
X188683666Y-70789595D01*
X188636047Y-70932452D01*
X188064619Y-71503880D01*
X188683666Y-71503880D01*
D11*
X185675500Y-70226000D02*
X185675500Y-76576000D01*
X189358500Y-70226000D02*
X185675500Y-70226000D01*
X189358500Y-76576000D02*
X189358500Y-70226000D01*
X193867000Y-70226000D02*
X193867000Y-76576000D01*
X189803000Y-70226000D02*
X193867000Y-70226000D01*
X189803000Y-76576000D02*
X189803000Y-70226000D01*
D10*
X190001666Y-81806880D02*
X190573095Y-81806880D01*
X190287380Y-82806880D02*
X190287380Y-81806880D01*
X191287380Y-82759261D02*
X191192142Y-82806880D01*
X191001666Y-82806880D01*
X190906428Y-82759261D01*
X190858809Y-82664023D01*
X190858809Y-82283071D01*
X190906428Y-82187833D01*
X191001666Y-82140214D01*
X191192142Y-82140214D01*
X191287380Y-82187833D01*
X191335000Y-82283071D01*
X191335000Y-82378309D01*
X190858809Y-82473547D01*
X191763571Y-82806880D02*
X191763571Y-82140214D01*
X191763571Y-82235452D02*
X191811190Y-82187833D01*
X191906428Y-82140214D01*
X192049285Y-82140214D01*
X192144523Y-82187833D01*
X192192142Y-82283071D01*
X192192142Y-82806880D01*
X192192142Y-82283071D02*
X192239761Y-82187833D01*
X192335000Y-82140214D01*
X192477857Y-82140214D01*
X192573095Y-82187833D01*
X192620714Y-82283071D01*
X192620714Y-82806880D01*
X193096904Y-82140214D02*
X193096904Y-83140214D01*
X193096904Y-82187833D02*
X193192142Y-82140214D01*
X193382619Y-82140214D01*
X193477857Y-82187833D01*
X193525476Y-82235452D01*
X193573095Y-82330690D01*
X193573095Y-82616404D01*
X193525476Y-82711642D01*
X193477857Y-82759261D01*
X193382619Y-82806880D01*
X193192142Y-82806880D01*
X193096904Y-82759261D01*
D11*
X193867000Y-76576000D02*
X189803000Y-76576000D01*
X193867000Y-83307000D02*
X193867000Y-76576000D01*
X189803000Y-83307000D02*
X193867000Y-83307000D01*
X189803000Y-76576000D02*
X189803000Y-83307000D01*
D10*
X186350333Y-82886261D02*
X186493190Y-82933880D01*
X186731285Y-82933880D01*
X186826523Y-82886261D01*
X186874142Y-82838642D01*
X186921761Y-82743404D01*
X186921761Y-82648166D01*
X186874142Y-82552928D01*
X186826523Y-82505309D01*
X186731285Y-82457690D01*
X186540809Y-82410071D01*
X186445571Y-82362452D01*
X186397952Y-82314833D01*
X186350333Y-82219595D01*
X186350333Y-82124357D01*
X186397952Y-82029119D01*
X186445571Y-81981500D01*
X186540809Y-81933880D01*
X186778904Y-81933880D01*
X186921761Y-81981500D01*
X187826523Y-82933880D02*
X187350333Y-82933880D01*
X187350333Y-81933880D01*
X188683666Y-82933880D02*
X188112238Y-82933880D01*
X188397952Y-82933880D02*
X188397952Y-81933880D01*
X188302714Y-82076738D01*
X188207476Y-82171976D01*
X188112238Y-82219595D01*
D11*
X189358500Y-76576000D02*
X185675500Y-76576000D01*
X189358500Y-83307000D02*
X189358500Y-76576000D01*
X185675500Y-83307000D02*
X189358500Y-83307000D01*
X185675500Y-81656000D02*
X185675500Y-83307000D01*
X185675500Y-77782500D02*
X185675500Y-81656000D01*
X185675500Y-76576000D02*
X185675500Y-77782500D01*
X180849500Y-80259000D02*
X177230000Y-80259000D01*
X180849500Y-85275500D02*
X180849500Y-80259000D01*
X177230000Y-85275500D02*
X180849500Y-85275500D01*
X173610500Y-85275500D02*
X173610500Y-80259000D01*
X177230000Y-85275500D02*
X173610500Y-85275500D01*
X177230000Y-80259000D02*
X177230000Y-85275500D01*
X173610500Y-80259000D02*
X177230000Y-80259000D01*
D10*
X177952452Y-85029380D02*
X177476261Y-85029380D01*
X177476261Y-84029380D01*
X178285785Y-84505571D02*
X178619119Y-84505571D01*
X178761976Y-85029380D02*
X178285785Y-85029380D01*
X178285785Y-84029380D01*
X178761976Y-84029380D01*
X179190547Y-85029380D02*
X179190547Y-84029380D01*
X179428642Y-84029380D01*
X179571500Y-84077000D01*
X179666738Y-84172238D01*
X179714357Y-84267476D01*
X179761976Y-84457952D01*
X179761976Y-84600809D01*
X179714357Y-84791285D01*
X179666738Y-84886523D01*
X179571500Y-84981761D01*
X179428642Y-85029380D01*
X179190547Y-85029380D01*
X180714357Y-85029380D02*
X180142928Y-85029380D01*
X180428642Y-85029380D02*
X180428642Y-84029380D01*
X180333404Y-84172238D01*
X180238166Y-84267476D01*
X180142928Y-84315095D01*
X174269452Y-85029380D02*
X173793261Y-85029380D01*
X173793261Y-84029380D01*
X174602785Y-84505571D02*
X174936119Y-84505571D01*
X175078976Y-85029380D02*
X174602785Y-85029380D01*
X174602785Y-84029380D01*
X175078976Y-84029380D01*
X175507547Y-85029380D02*
X175507547Y-84029380D01*
X175745642Y-84029380D01*
X175888500Y-84077000D01*
X175983738Y-84172238D01*
X176031357Y-84267476D01*
X176078976Y-84457952D01*
X176078976Y-84600809D01*
X176031357Y-84791285D01*
X175983738Y-84886523D01*
X175888500Y-84981761D01*
X175745642Y-85029380D01*
X175507547Y-85029380D01*
X176698023Y-84029380D02*
X176793261Y-84029380D01*
X176888500Y-84077000D01*
X176936119Y-84124619D01*
X176983738Y-84219857D01*
X177031357Y-84410333D01*
X177031357Y-84648428D01*
X176983738Y-84838904D01*
X176936119Y-84934142D01*
X176888500Y-84981761D01*
X176793261Y-85029380D01*
X176698023Y-85029380D01*
X176602785Y-84981761D01*
X176555166Y-84934142D01*
X176507547Y-84838904D01*
X176459928Y-84648428D01*
X176459928Y-84410333D01*
X176507547Y-84219857D01*
X176555166Y-84124619D01*
X176602785Y-84077000D01*
X176698023Y-84029380D01*
D11*
X166498500Y-86926500D02*
X166498500Y-81275000D01*
X171832500Y-86926500D02*
X166498500Y-86926500D01*
X171832500Y-83751500D02*
X171832500Y-86926500D01*
X168022500Y-83751500D02*
X171832500Y-83751500D01*
X168022500Y-81275000D02*
X168022500Y-83751500D01*
X166498500Y-81275000D02*
X168022500Y-81275000D01*
D10*
X167205166Y-85775571D02*
X167348023Y-85823190D01*
X167395642Y-85870809D01*
X167443261Y-85966047D01*
X167443261Y-86108904D01*
X167395642Y-86204142D01*
X167348023Y-86251761D01*
X167252785Y-86299380D01*
X166871833Y-86299380D01*
X166871833Y-85299380D01*
X167205166Y-85299380D01*
X167300404Y-85347000D01*
X167348023Y-85394619D01*
X167395642Y-85489857D01*
X167395642Y-85585095D01*
X167348023Y-85680333D01*
X167300404Y-85727952D01*
X167205166Y-85775571D01*
X166871833Y-85775571D01*
X168062309Y-85299380D02*
X168252785Y-85299380D01*
X168348023Y-85347000D01*
X168443261Y-85442238D01*
X168490880Y-85632714D01*
X168490880Y-85966047D01*
X168443261Y-86156523D01*
X168348023Y-86251761D01*
X168252785Y-86299380D01*
X168062309Y-86299380D01*
X167967071Y-86251761D01*
X167871833Y-86156523D01*
X167824214Y-85966047D01*
X167824214Y-85632714D01*
X167871833Y-85442238D01*
X167967071Y-85347000D01*
X168062309Y-85299380D01*
X169109928Y-85299380D02*
X169300404Y-85299380D01*
X169395642Y-85347000D01*
X169490880Y-85442238D01*
X169538500Y-85632714D01*
X169538500Y-85966047D01*
X169490880Y-86156523D01*
X169395642Y-86251761D01*
X169300404Y-86299380D01*
X169109928Y-86299380D01*
X169014690Y-86251761D01*
X168919452Y-86156523D01*
X168871833Y-85966047D01*
X168871833Y-85632714D01*
X168919452Y-85442238D01*
X169014690Y-85347000D01*
X169109928Y-85299380D01*
X169824214Y-85299380D02*
X170395642Y-85299380D01*
X170109928Y-86299380D02*
X170109928Y-85299380D01*
X170919452Y-85299380D02*
X171014690Y-85299380D01*
X171109928Y-85347000D01*
X171157547Y-85394619D01*
X171205166Y-85489857D01*
X171252785Y-85680333D01*
X171252785Y-85918428D01*
X171205166Y-86108904D01*
X171157547Y-86204142D01*
X171109928Y-86251761D01*
X171014690Y-86299380D01*
X170919452Y-86299380D01*
X170824214Y-86251761D01*
X170776595Y-86204142D01*
X170728976Y-86108904D01*
X170681357Y-85918428D01*
X170681357Y-85680333D01*
X170728976Y-85489857D01*
X170776595Y-85394619D01*
X170824214Y-85347000D01*
X170919452Y-85299380D01*
D11*
X166308000Y-78671500D02*
X155640000Y-78671500D01*
X166308000Y-89085500D02*
X166308000Y-78671500D01*
X155640000Y-89085500D02*
X166308000Y-89085500D01*
X155640000Y-78671500D02*
X155640000Y-89085500D01*
D10*
X165061880Y-88807428D02*
X165871404Y-88807428D01*
X165966642Y-88759809D01*
X166014261Y-88712190D01*
X166061880Y-88616952D01*
X166061880Y-88426476D01*
X166014261Y-88331238D01*
X165966642Y-88283619D01*
X165871404Y-88236000D01*
X165061880Y-88236000D01*
X166014261Y-87807428D02*
X166061880Y-87664571D01*
X166061880Y-87426476D01*
X166014261Y-87331238D01*
X165966642Y-87283619D01*
X165871404Y-87236000D01*
X165776166Y-87236000D01*
X165680928Y-87283619D01*
X165633309Y-87331238D01*
X165585690Y-87426476D01*
X165538071Y-87616952D01*
X165490452Y-87712190D01*
X165442833Y-87759809D01*
X165347595Y-87807428D01*
X165252357Y-87807428D01*
X165157119Y-87759809D01*
X165109500Y-87712190D01*
X165061880Y-87616952D01*
X165061880Y-87378857D01*
X165109500Y-87236000D01*
X165776166Y-86855047D02*
X165776166Y-86378857D01*
X166061880Y-86950285D02*
X165061880Y-86616952D01*
X166061880Y-86283619D01*
X166061880Y-85378857D02*
X165585690Y-85712190D01*
X166061880Y-85950285D02*
X165061880Y-85950285D01*
X165061880Y-85569333D01*
X165109500Y-85474095D01*
X165157119Y-85426476D01*
X165252357Y-85378857D01*
X165395214Y-85378857D01*
X165490452Y-85426476D01*
X165538071Y-85474095D01*
X165585690Y-85569333D01*
X165585690Y-85950285D01*
X165061880Y-85093142D02*
X165061880Y-84521714D01*
X166061880Y-84807428D02*
X165061880Y-84807428D01*
X155092261Y-88839166D02*
X155139880Y-88696309D01*
X155139880Y-88458214D01*
X155092261Y-88362976D01*
X155044642Y-88315357D01*
X154949404Y-88267738D01*
X154854166Y-88267738D01*
X154758928Y-88315357D01*
X154711309Y-88362976D01*
X154663690Y-88458214D01*
X154616071Y-88648690D01*
X154568452Y-88743928D01*
X154520833Y-88791547D01*
X154425595Y-88839166D01*
X154330357Y-88839166D01*
X154235119Y-88791547D01*
X154187500Y-88743928D01*
X154139880Y-88648690D01*
X154139880Y-88410595D01*
X154187500Y-88267738D01*
X154139880Y-87982023D02*
X154139880Y-87410595D01*
X155139880Y-87696309D02*
X154139880Y-87696309D01*
X155139880Y-86601071D02*
X155139880Y-87077261D01*
X154139880Y-87077261D01*
X155139880Y-86267738D02*
X154473214Y-86267738D01*
X154139880Y-86267738D02*
X154187500Y-86315357D01*
X154235119Y-86267738D01*
X154187500Y-86220119D01*
X154139880Y-86267738D01*
X154235119Y-86267738D01*
X154473214Y-85791547D02*
X155139880Y-85791547D01*
X154568452Y-85791547D02*
X154520833Y-85743928D01*
X154473214Y-85648690D01*
X154473214Y-85505833D01*
X154520833Y-85410595D01*
X154616071Y-85362976D01*
X155139880Y-85362976D01*
X155139880Y-84886785D02*
X154139880Y-84886785D01*
X154758928Y-84791547D02*
X155139880Y-84505833D01*
X154473214Y-84505833D02*
X154854166Y-84886785D01*
D11*
X155386000Y-78671500D02*
X141543000Y-78671500D01*
X155386000Y-89085500D02*
X155386000Y-78671500D01*
X141543000Y-89085500D02*
X155386000Y-89085500D01*
X141543000Y-78671500D02*
X141543000Y-89085500D01*
D10*
X144426380Y-88561476D02*
X144426380Y-87942428D01*
X144807333Y-88275761D01*
X144807333Y-88132904D01*
X144854952Y-88037666D01*
X144902571Y-87990047D01*
X144997809Y-87942428D01*
X145235904Y-87942428D01*
X145331142Y-87990047D01*
X145378761Y-88037666D01*
X145426380Y-88132904D01*
X145426380Y-88418619D01*
X145378761Y-88513857D01*
X145331142Y-88561476D01*
X144759714Y-87609095D02*
X145426380Y-87371000D01*
X144759714Y-87132904D01*
X144426380Y-86847190D02*
X144426380Y-86228142D01*
X144807333Y-86561476D01*
X144807333Y-86418619D01*
X144854952Y-86323380D01*
X144902571Y-86275761D01*
X144997809Y-86228142D01*
X145235904Y-86228142D01*
X145331142Y-86275761D01*
X145378761Y-86323380D01*
X145426380Y-86418619D01*
X145426380Y-86704333D01*
X145378761Y-86799571D01*
X145331142Y-86847190D01*
X147076380Y-88394809D02*
X146076380Y-88394809D01*
X146076380Y-88156714D01*
X146124000Y-88013857D01*
X146219238Y-87918619D01*
X146314476Y-87871000D01*
X146504952Y-87823380D01*
X146647809Y-87823380D01*
X146838285Y-87871000D01*
X146933523Y-87918619D01*
X147028761Y-88013857D01*
X147076380Y-88156714D01*
X147076380Y-88394809D01*
X147076380Y-87394809D02*
X146076380Y-87394809D01*
X146076380Y-86728142D02*
X146076380Y-86537666D01*
X146124000Y-86442428D01*
X146219238Y-86347190D01*
X146409714Y-86299571D01*
X146743047Y-86299571D01*
X146933523Y-86347190D01*
X147028761Y-86442428D01*
X147076380Y-86537666D01*
X147076380Y-86728142D01*
X147028761Y-86823380D01*
X146933523Y-86918619D01*
X146743047Y-86966238D01*
X146409714Y-86966238D01*
X146219238Y-86918619D01*
X146124000Y-86823380D01*
X146076380Y-86728142D01*
X147726380Y-87466238D02*
X147726380Y-87275761D01*
X147774000Y-87180523D01*
X147869238Y-87085285D01*
X148059714Y-87037666D01*
X148393047Y-87037666D01*
X148583523Y-87085285D01*
X148678761Y-87180523D01*
X148726380Y-87275761D01*
X148726380Y-87466238D01*
X148678761Y-87561476D01*
X148583523Y-87656714D01*
X148393047Y-87704333D01*
X148059714Y-87704333D01*
X147869238Y-87656714D01*
X147774000Y-87561476D01*
X147726380Y-87466238D01*
X150281142Y-87966238D02*
X150328761Y-88013857D01*
X150376380Y-88156714D01*
X150376380Y-88251952D01*
X150328761Y-88394809D01*
X150233523Y-88490047D01*
X150138285Y-88537666D01*
X149947809Y-88585285D01*
X149804952Y-88585285D01*
X149614476Y-88537666D01*
X149519238Y-88490047D01*
X149424000Y-88394809D01*
X149376380Y-88251952D01*
X149376380Y-88156714D01*
X149424000Y-88013857D01*
X149471619Y-87966238D01*
X150376380Y-87061476D02*
X150376380Y-87537666D01*
X149376380Y-87537666D01*
X150376380Y-86728142D02*
X149376380Y-86728142D01*
X150376380Y-86156714D02*
X149804952Y-86585285D01*
X149376380Y-86156714D02*
X149947809Y-86728142D01*
X151074000Y-88132904D02*
X151026380Y-88228142D01*
X151026380Y-88371000D01*
X151074000Y-88513857D01*
X151169238Y-88609095D01*
X151264476Y-88656714D01*
X151454952Y-88704333D01*
X151597809Y-88704333D01*
X151788285Y-88656714D01*
X151883523Y-88609095D01*
X151978761Y-88513857D01*
X152026380Y-88371000D01*
X152026380Y-88275761D01*
X151978761Y-88132904D01*
X151931142Y-88085285D01*
X151597809Y-88085285D01*
X151597809Y-88275761D01*
X152026380Y-87656714D02*
X151026380Y-87656714D01*
X152026380Y-87085285D01*
X151026380Y-87085285D01*
X152026380Y-86609095D02*
X151026380Y-86609095D01*
X151026380Y-86371000D01*
X151074000Y-86228142D01*
X151169238Y-86132904D01*
X151264476Y-86085285D01*
X151454952Y-86037666D01*
X151597809Y-86037666D01*
X151788285Y-86085285D01*
X151883523Y-86132904D01*
X151978761Y-86228142D01*
X152026380Y-86371000D01*
X152026380Y-86609095D01*
X159459380Y-88045619D02*
X158983190Y-88378952D01*
X159459380Y-88617047D02*
X158459380Y-88617047D01*
X158459380Y-88236095D01*
X158507000Y-88140857D01*
X158554619Y-88093238D01*
X158649857Y-88045619D01*
X158792714Y-88045619D01*
X158887952Y-88093238D01*
X158935571Y-88140857D01*
X158983190Y-88236095D01*
X158983190Y-88617047D01*
X159411761Y-87664666D02*
X159459380Y-87521809D01*
X159459380Y-87283714D01*
X159411761Y-87188476D01*
X159364142Y-87140857D01*
X159268904Y-87093238D01*
X159173666Y-87093238D01*
X159078428Y-87140857D01*
X159030809Y-87188476D01*
X158983190Y-87283714D01*
X158935571Y-87474190D01*
X158887952Y-87569428D01*
X158840333Y-87617047D01*
X158745095Y-87664666D01*
X158649857Y-87664666D01*
X158554619Y-87617047D01*
X158507000Y-87569428D01*
X158459380Y-87474190D01*
X158459380Y-87236095D01*
X158507000Y-87093238D01*
X158459380Y-86807523D02*
X158459380Y-86236095D01*
X159459380Y-86521809D02*
X158459380Y-86521809D01*
X161109380Y-87664666D02*
X160633190Y-87998000D01*
X161109380Y-88236095D02*
X160109380Y-88236095D01*
X160109380Y-87855142D01*
X160157000Y-87759904D01*
X160204619Y-87712285D01*
X160299857Y-87664666D01*
X160442714Y-87664666D01*
X160537952Y-87712285D01*
X160585571Y-87759904D01*
X160633190Y-87855142D01*
X160633190Y-88236095D01*
X160109380Y-87331333D02*
X161109380Y-86664666D01*
X160109380Y-86664666D02*
X161109380Y-87331333D01*
X161759380Y-88259904D02*
X161759380Y-87688476D01*
X162759380Y-87974190D02*
X161759380Y-87974190D01*
X161759380Y-87450380D02*
X162759380Y-86783714D01*
X161759380Y-86783714D02*
X162759380Y-87450380D01*
X163457000Y-88259904D02*
X163409380Y-88355142D01*
X163409380Y-88498000D01*
X163457000Y-88640857D01*
X163552238Y-88736095D01*
X163647476Y-88783714D01*
X163837952Y-88831333D01*
X163980809Y-88831333D01*
X164171285Y-88783714D01*
X164266523Y-88736095D01*
X164361761Y-88640857D01*
X164409380Y-88498000D01*
X164409380Y-88402761D01*
X164361761Y-88259904D01*
X164314142Y-88212285D01*
X163980809Y-88212285D01*
X163980809Y-88402761D01*
X164409380Y-87783714D02*
X163409380Y-87783714D01*
X164409380Y-87212285D01*
X163409380Y-87212285D01*
X164409380Y-86736095D02*
X163409380Y-86736095D01*
X163409380Y-86498000D01*
X163457000Y-86355142D01*
X163552238Y-86259904D01*
X163647476Y-86212285D01*
X163837952Y-86164666D01*
X163980809Y-86164666D01*
X164171285Y-86212285D01*
X164266523Y-86259904D01*
X164361761Y-86355142D01*
X164409380Y-86498000D01*
X164409380Y-86736095D01*
D11*
X185421500Y-60574000D02*
X179706500Y-60574000D01*
X185421500Y-68892500D02*
X185421500Y-60574000D01*
X184215000Y-68892500D02*
X185421500Y-68892500D01*
X184215000Y-73655000D02*
X184215000Y-68892500D01*
X180849500Y-73655000D02*
X184215000Y-73655000D01*
X180849500Y-68321000D02*
X180849500Y-73655000D01*
X179706500Y-68321000D02*
X180849500Y-68321000D01*
X179706500Y-60574000D02*
X179706500Y-68321000D01*
X173610500Y-69146500D02*
X173610500Y-60574000D01*
X176849000Y-69146500D02*
X173610500Y-69146500D01*
X176849000Y-73655000D02*
X176849000Y-69146500D01*
X180595500Y-73655000D02*
X176849000Y-73655000D01*
X180595500Y-68575000D02*
X180595500Y-73655000D01*
X179452500Y-68575000D02*
X180595500Y-68575000D01*
X179452500Y-60574000D02*
X179452500Y-68575000D01*
X173610500Y-60574000D02*
X179452500Y-60574000D01*
D10*
X180396619Y-62828476D02*
X181396619Y-62828476D01*
X180301380Y-63066571D02*
X180301380Y-63828476D01*
X181396619Y-64257047D02*
X181396619Y-64447523D01*
X181349000Y-64542761D01*
X181253761Y-64638000D01*
X181063285Y-64685619D01*
X180729952Y-64685619D01*
X180539476Y-64638000D01*
X180444238Y-64542761D01*
X180396619Y-64447523D01*
X180396619Y-64257047D01*
X180444238Y-64161809D01*
X180539476Y-64066571D01*
X180729952Y-64018952D01*
X181063285Y-64018952D01*
X181253761Y-64066571D01*
X181349000Y-64161809D01*
X181396619Y-64257047D01*
X181396619Y-65114190D02*
X180587095Y-65114190D01*
X180491857Y-65161809D01*
X180444238Y-65209428D01*
X180396619Y-65304666D01*
X180396619Y-65495142D01*
X180444238Y-65590380D01*
X180491857Y-65638000D01*
X180587095Y-65685619D01*
X181396619Y-65685619D01*
X181396619Y-66018952D02*
X181396619Y-66590380D01*
X180396619Y-66304666D02*
X181396619Y-66304666D01*
X174491119Y-63495142D02*
X175491119Y-63495142D01*
X174395880Y-63733238D02*
X174395880Y-64495142D01*
X174491119Y-64733238D02*
X175491119Y-64733238D01*
X174491119Y-65209428D02*
X175491119Y-65209428D01*
X174491119Y-65780857D01*
X175491119Y-65780857D01*
X158640476Y-58216571D02*
X158307142Y-58216571D01*
X158307142Y-58740380D02*
X158307142Y-57740380D01*
X158783333Y-57740380D01*
X159116666Y-58454666D02*
X159592857Y-58454666D01*
X159021428Y-58740380D02*
X159354761Y-57740380D01*
X159688095Y-58740380D01*
X160021428Y-58740380D02*
X160021428Y-57740380D01*
X160592857Y-58740380D01*
X160592857Y-57740380D01*
D11*
X154878000Y-59431000D02*
X154878000Y-57399000D01*
X160974000Y-59558000D02*
X160974000Y-57399000D01*
X160974000Y-57399000D02*
X154878000Y-57399000D01*
X160974000Y-63749000D02*
X160974000Y-59431000D01*
X165419000Y-63749000D02*
X160974000Y-63749000D01*
X165419000Y-70607000D02*
X165419000Y-63749000D01*
X166308000Y-70607000D02*
X165419000Y-70607000D01*
X166308000Y-73020000D02*
X166308000Y-70607000D01*
X163006000Y-73020000D02*
X166308000Y-73020000D01*
X163006000Y-70607000D02*
X163006000Y-73020000D01*
X158307000Y-70607000D02*
X163006000Y-70607000D01*
X158307000Y-67813000D02*
X158307000Y-70607000D01*
X160212000Y-67813000D02*
X158307000Y-67813000D01*
X160212000Y-65019000D02*
X160212000Y-67813000D01*
X154878000Y-65019000D02*
X160212000Y-65019000D01*
X154878000Y-59431000D02*
X154878000Y-65019000D01*
D10*
X152584142Y-77822142D02*
X152536523Y-77869761D01*
X152393666Y-77917380D01*
X152298428Y-77917380D01*
X152155571Y-77869761D01*
X152060333Y-77774523D01*
X152012714Y-77679285D01*
X151965095Y-77488809D01*
X151965095Y-77345952D01*
X152012714Y-77155476D01*
X152060333Y-77060238D01*
X152155571Y-76965000D01*
X152298428Y-76917380D01*
X152393666Y-76917380D01*
X152536523Y-76965000D01*
X152584142Y-77012619D01*
X152965095Y-77631666D02*
X153441285Y-77631666D01*
X152869857Y-77917380D02*
X153203190Y-76917380D01*
X153536523Y-77917380D01*
X153869857Y-77917380D02*
X153869857Y-76917380D01*
X154441285Y-77917380D01*
X154441285Y-76917380D01*
D11*
X159958000Y-65273000D02*
X151576000Y-65273000D01*
X159958000Y-67559000D02*
X159958000Y-65273000D01*
X158053000Y-67559000D02*
X159958000Y-67559000D01*
X158053000Y-70861000D02*
X158053000Y-67559000D01*
X162752000Y-70861000D02*
X158053000Y-70861000D01*
X162752000Y-78354000D02*
X162752000Y-70861000D01*
X151576000Y-78354000D02*
X162752000Y-78354000D01*
X151576000Y-65273000D02*
X151576000Y-78354000D01*
X161369500Y-66923276D02*
X161369500Y-67432724D01*
X160324500Y-66923276D02*
X160324500Y-67432724D01*
X157485000Y-62223000D02*
X157485000Y-65333000D01*
X160145000Y-64763000D02*
X160145000Y-65333000D01*
X157485000Y-60133000D02*
X157485000Y-60703000D01*
X157485000Y-60703000D02*
X155965000Y-60703000D01*
X160145000Y-60133000D02*
X160145000Y-63243000D01*
X157485000Y-65333000D02*
X160145000Y-65333000D01*
X157485000Y-60133000D02*
X160145000Y-60133000D01*
X164784724Y-71481500D02*
X164275276Y-71481500D01*
X164784724Y-72526500D02*
X164275276Y-72526500D01*
X163895724Y-64242500D02*
X163386276Y-64242500D01*
X163895724Y-65287500D02*
X163386276Y-65287500D01*
X165094000Y-67561000D02*
X165094000Y-69021000D01*
X161934000Y-67561000D02*
X161934000Y-70721000D01*
X161934000Y-67561000D02*
X162864000Y-67561000D01*
X165094000Y-67561000D02*
X164164000Y-67561000D01*
X182132252Y-58140000D02*
X180709748Y-58140000D01*
X182132252Y-59960000D02*
X180709748Y-59960000D01*
X167472000Y-68143252D02*
X167472000Y-66720748D01*
X165652000Y-68143252D02*
X165652000Y-66720748D01*
X169885000Y-68143252D02*
X169885000Y-66720748D01*
X168065000Y-68143252D02*
X168065000Y-66720748D01*
X184113452Y-81101600D02*
X182690948Y-81101600D01*
X184113452Y-82921600D02*
X182690948Y-82921600D01*
X170605000Y-66847748D02*
X170605000Y-68270252D01*
X172425000Y-66847748D02*
X172425000Y-68270252D01*
X152444000Y-62148748D02*
X152444000Y-63571252D01*
X154264000Y-62148748D02*
X154264000Y-63571252D01*
X154264000Y-58364252D02*
X154264000Y-56941748D01*
X152444000Y-58364252D02*
X152444000Y-56941748D01*
X164225252Y-58521000D02*
X162802748Y-58521000D01*
X164225252Y-60341000D02*
X162802748Y-60341000D01*
X176798252Y-58140000D02*
X175375748Y-58140000D01*
X176798252Y-59960000D02*
X175375748Y-59960000D01*
X191149252Y-62331000D02*
X189726748Y-62331000D01*
X191149252Y-64151000D02*
X189726748Y-64151000D01*
X182132252Y-55600000D02*
X180709748Y-55600000D01*
X182132252Y-57420000D02*
X180709748Y-57420000D01*
X187570000Y-66118000D02*
X187800000Y-66118000D01*
X192290000Y-66118000D02*
X192060000Y-66118000D01*
X192290000Y-66118000D02*
X192290000Y-68838000D01*
X192290000Y-68838000D02*
X190980000Y-68838000D01*
X192060000Y-64978000D02*
X192060000Y-66118000D01*
X187570000Y-68838000D02*
X187570000Y-66118000D01*
X188880000Y-68838000D02*
X187570000Y-68838000D01*
X141991000Y-83494000D02*
X141991000Y-80834000D01*
X154811000Y-83494000D02*
X154811000Y-80834000D01*
X141991000Y-80834000D02*
X145101000Y-80834000D01*
X142561000Y-83494000D02*
X142561000Y-85014000D01*
X141991000Y-83494000D02*
X142561000Y-83494000D01*
X154241000Y-80834000D02*
X154811000Y-80834000D01*
X146621000Y-80834000D02*
X150181000Y-80834000D01*
X151701000Y-80834000D02*
X154811000Y-80834000D01*
X144081000Y-83494000D02*
X147641000Y-83494000D01*
X149161000Y-83494000D02*
X152721000Y-83494000D01*
X165714000Y-62971000D02*
X161864000Y-62971000D01*
X165714000Y-60971000D02*
X161864000Y-60971000D01*
X165714000Y-62971000D02*
X165714000Y-60971000D01*
X137722252Y-58991000D02*
X134949748Y-58991000D01*
X137722252Y-62411000D02*
X134949748Y-62411000D01*
X181929000Y-79009000D02*
X185379000Y-79009000D01*
X181929000Y-79009000D02*
X179979000Y-79009000D01*
X181929000Y-73889000D02*
X183879000Y-73889000D01*
X181929000Y-73889000D02*
X179979000Y-73889000D01*
X177107000Y-82126000D02*
X174647000Y-82126000D01*
X177107000Y-83596000D02*
X177107000Y-82126000D01*
X174647000Y-83596000D02*
X177107000Y-83596000D01*
X175192276Y-81873700D02*
X175701724Y-81873700D01*
X175192276Y-80828700D02*
X175701724Y-80828700D01*
X170817198Y-80728113D02*
X171729366Y-81640281D01*
X170499000Y-81046311D02*
X170817198Y-80728113D01*
X170180802Y-80728113D02*
X170499000Y-81046311D01*
X165393689Y-75941000D02*
X165711887Y-75622802D01*
X165711887Y-76259198D02*
X165393689Y-75941000D01*
X175604311Y-75941000D02*
X175286113Y-76259198D01*
X175286113Y-75622802D02*
X175604311Y-75941000D01*
X170499000Y-70835689D02*
X170180802Y-71153887D01*
X170817198Y-71153887D02*
X170499000Y-70835689D01*
X167719500Y-83434724D02*
X167719500Y-82925276D01*
X166674500Y-83434724D02*
X166674500Y-82925276D01*
X169128641Y-83943000D02*
X168821359Y-83943000D01*
X169128641Y-84703000D02*
X168821359Y-84703000D01*
X163004000Y-83494000D02*
X166114000Y-83494000D01*
X157924000Y-83494000D02*
X161484000Y-83494000D01*
X160464000Y-80834000D02*
X164024000Y-80834000D01*
X165544000Y-80834000D02*
X166114000Y-80834000D01*
X155834000Y-83494000D02*
X156404000Y-83494000D01*
X156404000Y-83494000D02*
X156404000Y-85014000D01*
X155834000Y-80834000D02*
X158944000Y-80834000D01*
X166114000Y-83494000D02*
X166114000Y-80834000D01*
X155834000Y-83494000D02*
X155834000Y-80834000D01*
X159785233Y-70106000D02*
X160077767Y-70106000D01*
X159785233Y-69086000D02*
X160077767Y-69086000D01*
X154242276Y-66938500D02*
X154751724Y-66938500D01*
X154242276Y-65893500D02*
X154751724Y-65893500D01*
X156641500Y-68701276D02*
X156641500Y-69210724D01*
X157686500Y-68701276D02*
X157686500Y-69210724D01*
X154990500Y-68701276D02*
X154990500Y-69210724D01*
X156035500Y-68701276D02*
X156035500Y-69210724D01*
X157906733Y-66926000D02*
X158199267Y-66926000D01*
X157906733Y-65906000D02*
X158199267Y-65906000D01*
X143702000Y-62359000D02*
X143702000Y-59819000D01*
X146242000Y-62359000D02*
X146242000Y-59819000D01*
X148782000Y-62359000D02*
X148782000Y-59819000D01*
X141122000Y-78249000D02*
X141122000Y-62359000D01*
X151362000Y-78249000D02*
X151362000Y-62359000D01*
X151362000Y-78249000D02*
X141122000Y-78249000D01*
X151362000Y-62359000D02*
X141122000Y-62359000D01*
X166454000Y-61976000D02*
X167714000Y-61976000D01*
X173274000Y-61976000D02*
X172014000Y-61976000D01*
X166454000Y-58216000D02*
X166454000Y-61976000D01*
X173274000Y-55966000D02*
X173274000Y-61976000D01*
X138282000Y-58272000D02*
X138282000Y-56272000D01*
X138282000Y-56272000D02*
X134432000Y-56272000D01*
X138282000Y-58272000D02*
X134432000Y-58272000D01*
X172402000Y-83453267D02*
X172402000Y-83160733D01*
X173422000Y-83453267D02*
X173422000Y-83160733D01*
X174582267Y-69974000D02*
X174289733Y-69974000D01*
X174582267Y-68954000D02*
X174289733Y-68954000D01*
X164278000Y-75794733D02*
X164278000Y-76087267D01*
X163258000Y-75794733D02*
X163258000Y-76087267D01*
X181742000Y-60895000D02*
X184402000Y-60895000D01*
X181742000Y-68635000D02*
X184402000Y-68635000D01*
X184402000Y-60895000D02*
X184402000Y-64005000D01*
X181742000Y-61465000D02*
X180222000Y-61465000D01*
X181742000Y-60895000D02*
X181742000Y-61465000D01*
X184402000Y-68065000D02*
X184402000Y-68635000D01*
X184402000Y-65525000D02*
X184402000Y-68635000D01*
X181742000Y-62985000D02*
X181742000Y-66545000D01*
X175773000Y-60895000D02*
X178433000Y-60895000D01*
X175773000Y-68635000D02*
X178433000Y-68635000D01*
X178433000Y-60895000D02*
X178433000Y-64005000D01*
X175773000Y-61465000D02*
X174253000Y-61465000D01*
X175773000Y-60895000D02*
X175773000Y-61465000D01*
X178433000Y-68065000D02*
X178433000Y-68635000D01*
X178433000Y-65525000D02*
X178433000Y-68635000D01*
X175773000Y-62985000D02*
X175773000Y-66545000D01*
X169590733Y-82416000D02*
X169883267Y-82416000D01*
X169590733Y-83436000D02*
X169883267Y-83436000D01*
X117611000Y-63375000D02*
X117611000Y-78875000D01*
X138561000Y-78875000D02*
X129571000Y-78875000D01*
X138561000Y-78875000D02*
X138561000Y-63375000D01*
X138561000Y-63375000D02*
X129561000Y-63375000D01*
X127231000Y-78875000D02*
X117602000Y-78875000D01*
X127241000Y-63375000D02*
X117602000Y-63373000D01*
X184107267Y-79495000D02*
X183814733Y-79495000D01*
X184107267Y-80515000D02*
X183814733Y-80515000D01*
X178437276Y-71759500D02*
X178946724Y-71759500D01*
X178437276Y-70714500D02*
X178946724Y-70714500D01*
X182120276Y-70587500D02*
X182629724Y-70587500D01*
X182120276Y-71632500D02*
X182629724Y-71632500D01*
X191518276Y-79760500D02*
X192027724Y-79760500D01*
X191518276Y-78715500D02*
X192027724Y-78715500D01*
X191518276Y-73029500D02*
X192027724Y-73029500D01*
X191518276Y-71984500D02*
X192027724Y-71984500D01*
X187706724Y-73645500D02*
X187197276Y-73645500D01*
X187706724Y-74690500D02*
X187197276Y-74690500D01*
X187706724Y-80249500D02*
X187197276Y-80249500D01*
X187706724Y-81294500D02*
X187197276Y-81294500D01*
X178946724Y-69068500D02*
X178437276Y-69068500D01*
X178946724Y-70113500D02*
X178437276Y-70113500D01*
X182629724Y-69068500D02*
X182120276Y-69068500D01*
X182629724Y-70113500D02*
X182120276Y-70113500D01*
X192027724Y-77064500D02*
X191518276Y-77064500D01*
X192027724Y-78109500D02*
X191518276Y-78109500D01*
X192027724Y-75291500D02*
X191518276Y-75291500D01*
X192027724Y-76336500D02*
X191518276Y-76336500D01*
X187197276Y-76341500D02*
X187706724Y-76341500D01*
X187197276Y-75296500D02*
X187706724Y-75296500D01*
X187197276Y-77987500D02*
X187706724Y-77987500D01*
X187197276Y-76942500D02*
X187706724Y-76942500D01*
X178600876Y-81873700D02*
X179110324Y-81873700D01*
X178600876Y-80828700D02*
X179110324Y-80828700D01*
X151322724Y-84562500D02*
X150813276Y-84562500D01*
X151322724Y-85607500D02*
X150813276Y-85607500D01*
X153481724Y-73513500D02*
X152972276Y-73513500D01*
X153481724Y-74558500D02*
X152972276Y-74558500D01*
X156401276Y-77992500D02*
X156910724Y-77992500D01*
X156401276Y-76947500D02*
X156910724Y-76947500D01*
X180536000Y-82126000D02*
X178076000Y-82126000D01*
X180536000Y-83596000D02*
X180536000Y-82126000D01*
X178076000Y-83596000D02*
X180536000Y-83596000D01*
X178838267Y-72378000D02*
X178545733Y-72378000D01*
X178838267Y-73398000D02*
X178545733Y-73398000D01*
X182521267Y-72251000D02*
X182228733Y-72251000D01*
X182521267Y-73271000D02*
X182228733Y-73271000D01*
X191919267Y-80379000D02*
X191626733Y-80379000D01*
X191919267Y-81399000D02*
X191626733Y-81399000D01*
X191919267Y-73648000D02*
X191626733Y-73648000D01*
X191919267Y-74668000D02*
X191626733Y-74668000D01*
X187305733Y-73027000D02*
X187598267Y-73027000D01*
X187305733Y-72007000D02*
X187598267Y-72007000D01*
X187305733Y-79631000D02*
X187598267Y-79631000D01*
X187305733Y-78611000D02*
X187598267Y-78611000D01*
X175067802Y-72468051D02*
X174860949Y-72261198D01*
X175789051Y-71746802D02*
X175582198Y-71539949D01*
X159850267Y-84321000D02*
X159557733Y-84321000D01*
X159850267Y-85341000D02*
X159557733Y-85341000D01*
X150304000Y-57037267D02*
X150304000Y-56744733D01*
X151324000Y-57037267D02*
X151324000Y-56744733D01*
X140906000Y-57418267D02*
X140906000Y-57125733D01*
X141926000Y-57418267D02*
X141926000Y-57125733D01*
X163660267Y-57909000D02*
X163367733Y-57909000D01*
X163660267Y-56889000D02*
X163367733Y-56889000D01*
X185991000Y-67451267D02*
X185991000Y-67158733D01*
X187011000Y-67451267D02*
X187011000Y-67158733D01*
X176206767Y-57528000D02*
X175914233Y-57528000D01*
X176206767Y-56508000D02*
X175914233Y-56508000D01*
X189822267Y-61592000D02*
X189529733Y-61592000D01*
X189822267Y-60572000D02*
X189529733Y-60572000D01*
X146007267Y-84067000D02*
X145714733Y-84067000D01*
X146007267Y-85087000D02*
X145714733Y-85087000D01*
X158750000Y-76347000D02*
X162200000Y-76347000D01*
X158750000Y-76347000D02*
X156800000Y-76347000D01*
X158750000Y-71227000D02*
X160700000Y-71227000D01*
X158750000Y-71227000D02*
X156800000Y-71227000D01*
X154807000Y-69720000D02*
X154807000Y-71180000D01*
X151647000Y-69720000D02*
X151647000Y-72880000D01*
X151647000Y-69720000D02*
X152577000Y-69720000D01*
X154807000Y-69720000D02*
X153877000Y-69720000D01*
%LPC*%
D12*
X128436400Y-85794000D03*
X128423320Y-55143340D03*
G36*
G01*
X160609500Y-65778000D02*
X161084500Y-65778000D01*
G75*
G02*
X161322000Y-66015500I0J-237500D01*
G01*
X161322000Y-66515500D01*
G75*
G02*
X161084500Y-66753000I-237500J0D01*
G01*
X160609500Y-66753000D01*
G75*
G02*
X160372000Y-66515500I0J237500D01*
G01*
X160372000Y-66015500D01*
G75*
G02*
X160609500Y-65778000I237500J0D01*
G01*
G37*
G36*
G01*
X160609500Y-67603000D02*
X161084500Y-67603000D01*
G75*
G02*
X161322000Y-67840500I0J-237500D01*
G01*
X161322000Y-68340500D01*
G75*
G02*
X161084500Y-68578000I-237500J0D01*
G01*
X160609500Y-68578000D01*
G75*
G02*
X160372000Y-68340500I0J237500D01*
G01*
X160372000Y-67840500D01*
G75*
G02*
X160609500Y-67603000I237500J0D01*
G01*
G37*
D13*
X160470000Y-64003000D03*
X157160000Y-61463000D03*
G36*
G01*
X164105000Y-71766500D02*
X164105000Y-72241500D01*
G75*
G02*
X163867500Y-72479000I-237500J0D01*
G01*
X163367500Y-72479000D01*
G75*
G02*
X163130000Y-72241500I0J237500D01*
G01*
X163130000Y-71766500D01*
G75*
G02*
X163367500Y-71529000I237500J0D01*
G01*
X163867500Y-71529000D01*
G75*
G02*
X164105000Y-71766500I0J-237500D01*
G01*
G37*
G36*
G01*
X165930000Y-71766500D02*
X165930000Y-72241500D01*
G75*
G02*
X165692500Y-72479000I-237500J0D01*
G01*
X165192500Y-72479000D01*
G75*
G02*
X164955000Y-72241500I0J237500D01*
G01*
X164955000Y-71766500D01*
G75*
G02*
X165192500Y-71529000I237500J0D01*
G01*
X165692500Y-71529000D01*
G75*
G02*
X165930000Y-71766500I0J-237500D01*
G01*
G37*
G36*
G01*
X163216000Y-64527500D02*
X163216000Y-65002500D01*
G75*
G02*
X162978500Y-65240000I-237500J0D01*
G01*
X162478500Y-65240000D01*
G75*
G02*
X162241000Y-65002500I0J237500D01*
G01*
X162241000Y-64527500D01*
G75*
G02*
X162478500Y-64290000I237500J0D01*
G01*
X162978500Y-64290000D01*
G75*
G02*
X163216000Y-64527500I0J-237500D01*
G01*
G37*
G36*
G01*
X165041000Y-64527500D02*
X165041000Y-65002500D01*
G75*
G02*
X164803500Y-65240000I-237500J0D01*
G01*
X164303500Y-65240000D01*
G75*
G02*
X164066000Y-65002500I0J237500D01*
G01*
X164066000Y-64527500D01*
G75*
G02*
X164303500Y-64290000I237500J0D01*
G01*
X164803500Y-64290000D01*
G75*
G02*
X165041000Y-64527500I0J-237500D01*
G01*
G37*
D14*
X163514000Y-66821000D03*
X164464000Y-69821000D03*
X162564000Y-69821000D03*
D12*
X188012920Y-55119980D03*
G36*
G01*
X180521000Y-58399999D02*
X180521000Y-59700001D01*
G75*
G02*
X180271001Y-59950000I-249999J0D01*
G01*
X179445999Y-59950000D01*
G75*
G02*
X179196000Y-59700001I0J249999D01*
G01*
X179196000Y-58399999D01*
G75*
G02*
X179445999Y-58150000I249999J0D01*
G01*
X180271001Y-58150000D01*
G75*
G02*
X180521000Y-58399999I0J-249999D01*
G01*
G37*
G36*
G01*
X183646000Y-58399999D02*
X183646000Y-59700001D01*
G75*
G02*
X183396001Y-59950000I-249999J0D01*
G01*
X182570999Y-59950000D01*
G75*
G02*
X182321000Y-59700001I0J249999D01*
G01*
X182321000Y-58399999D01*
G75*
G02*
X182570999Y-58150000I249999J0D01*
G01*
X183396001Y-58150000D01*
G75*
G02*
X183646000Y-58399999I0J-249999D01*
G01*
G37*
G36*
G01*
X167212001Y-66532000D02*
X165911999Y-66532000D01*
G75*
G02*
X165662000Y-66282001I0J249999D01*
G01*
X165662000Y-65456999D01*
G75*
G02*
X165911999Y-65207000I249999J0D01*
G01*
X167212001Y-65207000D01*
G75*
G02*
X167462000Y-65456999I0J-249999D01*
G01*
X167462000Y-66282001D01*
G75*
G02*
X167212001Y-66532000I-249999J0D01*
G01*
G37*
G36*
G01*
X167212001Y-69657000D02*
X165911999Y-69657000D01*
G75*
G02*
X165662000Y-69407001I0J249999D01*
G01*
X165662000Y-68581999D01*
G75*
G02*
X165911999Y-68332000I249999J0D01*
G01*
X167212001Y-68332000D01*
G75*
G02*
X167462000Y-68581999I0J-249999D01*
G01*
X167462000Y-69407001D01*
G75*
G02*
X167212001Y-69657000I-249999J0D01*
G01*
G37*
G36*
G01*
X169625001Y-66532000D02*
X168324999Y-66532000D01*
G75*
G02*
X168075000Y-66282001I0J249999D01*
G01*
X168075000Y-65456999D01*
G75*
G02*
X168324999Y-65207000I249999J0D01*
G01*
X169625001Y-65207000D01*
G75*
G02*
X169875000Y-65456999I0J-249999D01*
G01*
X169875000Y-66282001D01*
G75*
G02*
X169625001Y-66532000I-249999J0D01*
G01*
G37*
G36*
G01*
X169625001Y-69657000D02*
X168324999Y-69657000D01*
G75*
G02*
X168075000Y-69407001I0J249999D01*
G01*
X168075000Y-68581999D01*
G75*
G02*
X168324999Y-68332000I249999J0D01*
G01*
X169625001Y-68332000D01*
G75*
G02*
X169875000Y-68581999I0J-249999D01*
G01*
X169875000Y-69407001D01*
G75*
G02*
X169625001Y-69657000I-249999J0D01*
G01*
G37*
G36*
G01*
X182502200Y-81361599D02*
X182502200Y-82661601D01*
G75*
G02*
X182252201Y-82911600I-249999J0D01*
G01*
X181427199Y-82911600D01*
G75*
G02*
X181177200Y-82661601I0J249999D01*
G01*
X181177200Y-81361599D01*
G75*
G02*
X181427199Y-81111600I249999J0D01*
G01*
X182252201Y-81111600D01*
G75*
G02*
X182502200Y-81361599I0J-249999D01*
G01*
G37*
G36*
G01*
X185627200Y-81361599D02*
X185627200Y-82661601D01*
G75*
G02*
X185377201Y-82911600I-249999J0D01*
G01*
X184552199Y-82911600D01*
G75*
G02*
X184302200Y-82661601I0J249999D01*
G01*
X184302200Y-81361599D01*
G75*
G02*
X184552199Y-81111600I249999J0D01*
G01*
X185377201Y-81111600D01*
G75*
G02*
X185627200Y-81361599I0J-249999D01*
G01*
G37*
G36*
G01*
X170864999Y-68459000D02*
X172165001Y-68459000D01*
G75*
G02*
X172415000Y-68708999I0J-249999D01*
G01*
X172415000Y-69534001D01*
G75*
G02*
X172165001Y-69784000I-249999J0D01*
G01*
X170864999Y-69784000D01*
G75*
G02*
X170615000Y-69534001I0J249999D01*
G01*
X170615000Y-68708999D01*
G75*
G02*
X170864999Y-68459000I249999J0D01*
G01*
G37*
G36*
G01*
X170864999Y-65334000D02*
X172165001Y-65334000D01*
G75*
G02*
X172415000Y-65583999I0J-249999D01*
G01*
X172415000Y-66409001D01*
G75*
G02*
X172165001Y-66659000I-249999J0D01*
G01*
X170864999Y-66659000D01*
G75*
G02*
X170615000Y-66409001I0J249999D01*
G01*
X170615000Y-65583999D01*
G75*
G02*
X170864999Y-65334000I249999J0D01*
G01*
G37*
G36*
G01*
X152703999Y-63760000D02*
X154004001Y-63760000D01*
G75*
G02*
X154254000Y-64009999I0J-249999D01*
G01*
X154254000Y-64835001D01*
G75*
G02*
X154004001Y-65085000I-249999J0D01*
G01*
X152703999Y-65085000D01*
G75*
G02*
X152454000Y-64835001I0J249999D01*
G01*
X152454000Y-64009999D01*
G75*
G02*
X152703999Y-63760000I249999J0D01*
G01*
G37*
G36*
G01*
X152703999Y-60635000D02*
X154004001Y-60635000D01*
G75*
G02*
X154254000Y-60884999I0J-249999D01*
G01*
X154254000Y-61710001D01*
G75*
G02*
X154004001Y-61960000I-249999J0D01*
G01*
X152703999Y-61960000D01*
G75*
G02*
X152454000Y-61710001I0J249999D01*
G01*
X152454000Y-60884999D01*
G75*
G02*
X152703999Y-60635000I249999J0D01*
G01*
G37*
G36*
G01*
X154004001Y-56753000D02*
X152703999Y-56753000D01*
G75*
G02*
X152454000Y-56503001I0J249999D01*
G01*
X152454000Y-55677999D01*
G75*
G02*
X152703999Y-55428000I249999J0D01*
G01*
X154004001Y-55428000D01*
G75*
G02*
X154254000Y-55677999I0J-249999D01*
G01*
X154254000Y-56503001D01*
G75*
G02*
X154004001Y-56753000I-249999J0D01*
G01*
G37*
G36*
G01*
X154004001Y-59878000D02*
X152703999Y-59878000D01*
G75*
G02*
X152454000Y-59628001I0J249999D01*
G01*
X152454000Y-58802999D01*
G75*
G02*
X152703999Y-58553000I249999J0D01*
G01*
X154004001Y-58553000D01*
G75*
G02*
X154254000Y-58802999I0J-249999D01*
G01*
X154254000Y-59628001D01*
G75*
G02*
X154004001Y-59878000I-249999J0D01*
G01*
G37*
G36*
G01*
X162614000Y-58780999D02*
X162614000Y-60081001D01*
G75*
G02*
X162364001Y-60331000I-249999J0D01*
G01*
X161538999Y-60331000D01*
G75*
G02*
X161289000Y-60081001I0J249999D01*
G01*
X161289000Y-58780999D01*
G75*
G02*
X161538999Y-58531000I249999J0D01*
G01*
X162364001Y-58531000D01*
G75*
G02*
X162614000Y-58780999I0J-249999D01*
G01*
G37*
G36*
G01*
X165739000Y-58780999D02*
X165739000Y-60081001D01*
G75*
G02*
X165489001Y-60331000I-249999J0D01*
G01*
X164663999Y-60331000D01*
G75*
G02*
X164414000Y-60081001I0J249999D01*
G01*
X164414000Y-58780999D01*
G75*
G02*
X164663999Y-58531000I249999J0D01*
G01*
X165489001Y-58531000D01*
G75*
G02*
X165739000Y-58780999I0J-249999D01*
G01*
G37*
G36*
G01*
X175187000Y-58399999D02*
X175187000Y-59700001D01*
G75*
G02*
X174937001Y-59950000I-249999J0D01*
G01*
X174111999Y-59950000D01*
G75*
G02*
X173862000Y-59700001I0J249999D01*
G01*
X173862000Y-58399999D01*
G75*
G02*
X174111999Y-58150000I249999J0D01*
G01*
X174937001Y-58150000D01*
G75*
G02*
X175187000Y-58399999I0J-249999D01*
G01*
G37*
G36*
G01*
X178312000Y-58399999D02*
X178312000Y-59700001D01*
G75*
G02*
X178062001Y-59950000I-249999J0D01*
G01*
X177236999Y-59950000D01*
G75*
G02*
X176987000Y-59700001I0J249999D01*
G01*
X176987000Y-58399999D01*
G75*
G02*
X177236999Y-58150000I249999J0D01*
G01*
X178062001Y-58150000D01*
G75*
G02*
X178312000Y-58399999I0J-249999D01*
G01*
G37*
G36*
G01*
X189538000Y-62590999D02*
X189538000Y-63891001D01*
G75*
G02*
X189288001Y-64141000I-249999J0D01*
G01*
X188462999Y-64141000D01*
G75*
G02*
X188213000Y-63891001I0J249999D01*
G01*
X188213000Y-62590999D01*
G75*
G02*
X188462999Y-62341000I249999J0D01*
G01*
X189288001Y-62341000D01*
G75*
G02*
X189538000Y-62590999I0J-249999D01*
G01*
G37*
G36*
G01*
X192663000Y-62590999D02*
X192663000Y-63891001D01*
G75*
G02*
X192413001Y-64141000I-249999J0D01*
G01*
X191587999Y-64141000D01*
G75*
G02*
X191338000Y-63891001I0J249999D01*
G01*
X191338000Y-62590999D01*
G75*
G02*
X191587999Y-62341000I249999J0D01*
G01*
X192413001Y-62341000D01*
G75*
G02*
X192663000Y-62590999I0J-249999D01*
G01*
G37*
G36*
G01*
X180521000Y-55859999D02*
X180521000Y-57160001D01*
G75*
G02*
X180271001Y-57410000I-249999J0D01*
G01*
X179445999Y-57410000D01*
G75*
G02*
X179196000Y-57160001I0J249999D01*
G01*
X179196000Y-55859999D01*
G75*
G02*
X179445999Y-55610000I249999J0D01*
G01*
X180271001Y-55610000D01*
G75*
G02*
X180521000Y-55859999I0J-249999D01*
G01*
G37*
G36*
G01*
X183646000Y-55859999D02*
X183646000Y-57160001D01*
G75*
G02*
X183396001Y-57410000I-249999J0D01*
G01*
X182570999Y-57410000D01*
G75*
G02*
X182321000Y-57160001I0J249999D01*
G01*
X182321000Y-55859999D01*
G75*
G02*
X182570999Y-55610000I249999J0D01*
G01*
X183396001Y-55610000D01*
G75*
G02*
X183646000Y-55859999I0J-249999D01*
G01*
G37*
D10*
G36*
X189063500Y-69478000D02*
G01*
X189063500Y-66353000D01*
X189480000Y-66353000D01*
X189480000Y-64878000D01*
X190380000Y-64878000D01*
X190380000Y-66353000D01*
X190796500Y-66353000D01*
X190796500Y-69478000D01*
X189063500Y-69478000D01*
G37*
D15*
X188430000Y-65528000D03*
X191430000Y-65528000D03*
D16*
X143321000Y-83819000D03*
X148401000Y-83819000D03*
X153481000Y-83819000D03*
X145861000Y-80509000D03*
X150941000Y-80509000D03*
D17*
X162114000Y-61971000D03*
X164914000Y-61971000D03*
G36*
G01*
X134761000Y-59251000D02*
X134761000Y-62151000D01*
G75*
G02*
X134511000Y-62401000I-250000J0D01*
G01*
X133711000Y-62401000D01*
G75*
G02*
X133461000Y-62151000I0J250000D01*
G01*
X133461000Y-59251000D01*
G75*
G02*
X133711000Y-59001000I250000J0D01*
G01*
X134511000Y-59001000D01*
G75*
G02*
X134761000Y-59251000I0J-250000D01*
G01*
G37*
G36*
G01*
X139211000Y-59251000D02*
X139211000Y-62151000D01*
G75*
G02*
X138961000Y-62401000I-250000J0D01*
G01*
X138161000Y-62401000D01*
G75*
G02*
X137911000Y-62151000I0J250000D01*
G01*
X137911000Y-59251000D01*
G75*
G02*
X138161000Y-59001000I250000J0D01*
G01*
X138961000Y-59001000D01*
G75*
G02*
X139211000Y-59251000I0J-250000D01*
G01*
G37*
D12*
X188025000Y-85769980D03*
G36*
G01*
X180429000Y-78204000D02*
X180429000Y-78504000D01*
G75*
G02*
X180279000Y-78654000I-150000J0D01*
G01*
X178629000Y-78654000D01*
G75*
G02*
X178479000Y-78504000I0J150000D01*
G01*
X178479000Y-78204000D01*
G75*
G02*
X178629000Y-78054000I150000J0D01*
G01*
X180279000Y-78054000D01*
G75*
G02*
X180429000Y-78204000I0J-150000D01*
G01*
G37*
G36*
G01*
X180429000Y-76934000D02*
X180429000Y-77234000D01*
G75*
G02*
X180279000Y-77384000I-150000J0D01*
G01*
X178629000Y-77384000D01*
G75*
G02*
X178479000Y-77234000I0J150000D01*
G01*
X178479000Y-76934000D01*
G75*
G02*
X178629000Y-76784000I150000J0D01*
G01*
X180279000Y-76784000D01*
G75*
G02*
X180429000Y-76934000I0J-150000D01*
G01*
G37*
G36*
G01*
X180429000Y-75664000D02*
X180429000Y-75964000D01*
G75*
G02*
X180279000Y-76114000I-150000J0D01*
G01*
X178629000Y-76114000D01*
G75*
G02*
X178479000Y-75964000I0J150000D01*
G01*
X178479000Y-75664000D01*
G75*
G02*
X178629000Y-75514000I150000J0D01*
G01*
X180279000Y-75514000D01*
G75*
G02*
X180429000Y-75664000I0J-150000D01*
G01*
G37*
G36*
G01*
X180429000Y-74394000D02*
X180429000Y-74694000D01*
G75*
G02*
X180279000Y-74844000I-150000J0D01*
G01*
X178629000Y-74844000D01*
G75*
G02*
X178479000Y-74694000I0J150000D01*
G01*
X178479000Y-74394000D01*
G75*
G02*
X178629000Y-74244000I150000J0D01*
G01*
X180279000Y-74244000D01*
G75*
G02*
X180429000Y-74394000I0J-150000D01*
G01*
G37*
G36*
G01*
X185379000Y-74394000D02*
X185379000Y-74694000D01*
G75*
G02*
X185229000Y-74844000I-150000J0D01*
G01*
X183579000Y-74844000D01*
G75*
G02*
X183429000Y-74694000I0J150000D01*
G01*
X183429000Y-74394000D01*
G75*
G02*
X183579000Y-74244000I150000J0D01*
G01*
X185229000Y-74244000D01*
G75*
G02*
X185379000Y-74394000I0J-150000D01*
G01*
G37*
G36*
G01*
X185379000Y-75664000D02*
X185379000Y-75964000D01*
G75*
G02*
X185229000Y-76114000I-150000J0D01*
G01*
X183579000Y-76114000D01*
G75*
G02*
X183429000Y-75964000I0J150000D01*
G01*
X183429000Y-75664000D01*
G75*
G02*
X183579000Y-75514000I150000J0D01*
G01*
X185229000Y-75514000D01*
G75*
G02*
X185379000Y-75664000I0J-150000D01*
G01*
G37*
G36*
G01*
X185379000Y-76934000D02*
X185379000Y-77234000D01*
G75*
G02*
X185229000Y-77384000I-150000J0D01*
G01*
X183579000Y-77384000D01*
G75*
G02*
X183429000Y-77234000I0J150000D01*
G01*
X183429000Y-76934000D01*
G75*
G02*
X183579000Y-76784000I150000J0D01*
G01*
X185229000Y-76784000D01*
G75*
G02*
X185379000Y-76934000I0J-150000D01*
G01*
G37*
G36*
G01*
X185379000Y-78204000D02*
X185379000Y-78504000D01*
G75*
G02*
X185229000Y-78654000I-150000J0D01*
G01*
X183579000Y-78654000D01*
G75*
G02*
X183429000Y-78504000I0J150000D01*
G01*
X183429000Y-78204000D01*
G75*
G02*
X183579000Y-78054000I150000J0D01*
G01*
X185229000Y-78054000D01*
G75*
G02*
X185379000Y-78204000I0J-150000D01*
G01*
G37*
G36*
G01*
X175097000Y-82623500D02*
X175097000Y-83098500D01*
G75*
G02*
X174859500Y-83336000I-237500J0D01*
G01*
X174284500Y-83336000D01*
G75*
G02*
X174047000Y-83098500I0J237500D01*
G01*
X174047000Y-82623500D01*
G75*
G02*
X174284500Y-82386000I237500J0D01*
G01*
X174859500Y-82386000D01*
G75*
G02*
X175097000Y-82623500I0J-237500D01*
G01*
G37*
G36*
G01*
X176847000Y-82623500D02*
X176847000Y-83098500D01*
G75*
G02*
X176609500Y-83336000I-237500J0D01*
G01*
X176034500Y-83336000D01*
G75*
G02*
X175797000Y-83098500I0J237500D01*
G01*
X175797000Y-82623500D01*
G75*
G02*
X176034500Y-82386000I237500J0D01*
G01*
X176609500Y-82386000D01*
G75*
G02*
X176847000Y-82623500I0J-237500D01*
G01*
G37*
G36*
G01*
X175872000Y-81588700D02*
X175872000Y-81113700D01*
G75*
G02*
X176109500Y-80876200I237500J0D01*
G01*
X176609500Y-80876200D01*
G75*
G02*
X176847000Y-81113700I0J-237500D01*
G01*
X176847000Y-81588700D01*
G75*
G02*
X176609500Y-81826200I-237500J0D01*
G01*
X176109500Y-81826200D01*
G75*
G02*
X175872000Y-81588700I0J237500D01*
G01*
G37*
G36*
G01*
X174047000Y-81588700D02*
X174047000Y-81113700D01*
G75*
G02*
X174284500Y-80876200I237500J0D01*
G01*
X174784500Y-80876200D01*
G75*
G02*
X175022000Y-81113700I0J-237500D01*
G01*
X175022000Y-81588700D01*
G75*
G02*
X174784500Y-81826200I-237500J0D01*
G01*
X174284500Y-81826200D01*
G75*
G02*
X174047000Y-81588700I0J237500D01*
G01*
G37*
G36*
G01*
X170074736Y-80466484D02*
X169137820Y-81403400D01*
G75*
G02*
X169031754Y-81403400I-53033J53033D01*
G01*
X168925688Y-81297334D01*
G75*
G02*
X168925688Y-81191268I53033J53033D01*
G01*
X169862604Y-80254352D01*
G75*
G02*
X169968670Y-80254352I53033J-53033D01*
G01*
X170074736Y-80360418D01*
G75*
G02*
X170074736Y-80466484I-53033J-53033D01*
G01*
G37*
G36*
G01*
X169721182Y-80112930D02*
X168784266Y-81049846D01*
G75*
G02*
X168678200Y-81049846I-53033J53033D01*
G01*
X168572134Y-80943780D01*
G75*
G02*
X168572134Y-80837714I53033J53033D01*
G01*
X169509050Y-79900798D01*
G75*
G02*
X169615116Y-79900798I53033J-53033D01*
G01*
X169721182Y-80006864D01*
G75*
G02*
X169721182Y-80112930I-53033J-53033D01*
G01*
G37*
G36*
G01*
X169367629Y-79759377D02*
X168430713Y-80696293D01*
G75*
G02*
X168324647Y-80696293I-53033J53033D01*
G01*
X168218581Y-80590227D01*
G75*
G02*
X168218581Y-80484161I53033J53033D01*
G01*
X169155497Y-79547245D01*
G75*
G02*
X169261563Y-79547245I53033J-53033D01*
G01*
X169367629Y-79653311D01*
G75*
G02*
X169367629Y-79759377I-53033J-53033D01*
G01*
G37*
G36*
G01*
X169014075Y-79405823D02*
X168077159Y-80342739D01*
G75*
G02*
X167971093Y-80342739I-53033J53033D01*
G01*
X167865027Y-80236673D01*
G75*
G02*
X167865027Y-80130607I53033J53033D01*
G01*
X168801943Y-79193691D01*
G75*
G02*
X168908009Y-79193691I53033J-53033D01*
G01*
X169014075Y-79299757D01*
G75*
G02*
X169014075Y-79405823I-53033J-53033D01*
G01*
G37*
G36*
G01*
X168660522Y-79052270D02*
X167723606Y-79989186D01*
G75*
G02*
X167617540Y-79989186I-53033J53033D01*
G01*
X167511474Y-79883120D01*
G75*
G02*
X167511474Y-79777054I53033J53033D01*
G01*
X168448390Y-78840138D01*
G75*
G02*
X168554456Y-78840138I53033J-53033D01*
G01*
X168660522Y-78946204D01*
G75*
G02*
X168660522Y-79052270I-53033J-53033D01*
G01*
G37*
G36*
G01*
X168306969Y-78698717D02*
X167370053Y-79635633D01*
G75*
G02*
X167263987Y-79635633I-53033J53033D01*
G01*
X167157921Y-79529567D01*
G75*
G02*
X167157921Y-79423501I53033J53033D01*
G01*
X168094837Y-78486585D01*
G75*
G02*
X168200903Y-78486585I53033J-53033D01*
G01*
X168306969Y-78592651D01*
G75*
G02*
X168306969Y-78698717I-53033J-53033D01*
G01*
G37*
G36*
G01*
X167953415Y-78345163D02*
X167016499Y-79282079D01*
G75*
G02*
X166910433Y-79282079I-53033J53033D01*
G01*
X166804367Y-79176013D01*
G75*
G02*
X166804367Y-79069947I53033J53033D01*
G01*
X167741283Y-78133031D01*
G75*
G02*
X167847349Y-78133031I53033J-53033D01*
G01*
X167953415Y-78239097D01*
G75*
G02*
X167953415Y-78345163I-53033J-53033D01*
G01*
G37*
G36*
G01*
X167599862Y-77991610D02*
X166662946Y-78928526D01*
G75*
G02*
X166556880Y-78928526I-53033J53033D01*
G01*
X166450814Y-78822460D01*
G75*
G02*
X166450814Y-78716394I53033J53033D01*
G01*
X167387730Y-77779478D01*
G75*
G02*
X167493796Y-77779478I53033J-53033D01*
G01*
X167599862Y-77885544D01*
G75*
G02*
X167599862Y-77991610I-53033J-53033D01*
G01*
G37*
G36*
G01*
X167246309Y-77638057D02*
X166309393Y-78574973D01*
G75*
G02*
X166203327Y-78574973I-53033J53033D01*
G01*
X166097261Y-78468907D01*
G75*
G02*
X166097261Y-78362841I53033J53033D01*
G01*
X167034177Y-77425925D01*
G75*
G02*
X167140243Y-77425925I53033J-53033D01*
G01*
X167246309Y-77531991D01*
G75*
G02*
X167246309Y-77638057I-53033J-53033D01*
G01*
G37*
G36*
G01*
X166892755Y-77284503D02*
X165955839Y-78221419D01*
G75*
G02*
X165849773Y-78221419I-53033J53033D01*
G01*
X165743707Y-78115353D01*
G75*
G02*
X165743707Y-78009287I53033J53033D01*
G01*
X166680623Y-77072371D01*
G75*
G02*
X166786689Y-77072371I53033J-53033D01*
G01*
X166892755Y-77178437D01*
G75*
G02*
X166892755Y-77284503I-53033J-53033D01*
G01*
G37*
G36*
G01*
X166539202Y-76930950D02*
X165602286Y-77867866D01*
G75*
G02*
X165496220Y-77867866I-53033J53033D01*
G01*
X165390154Y-77761800D01*
G75*
G02*
X165390154Y-77655734I53033J53033D01*
G01*
X166327070Y-76718818D01*
G75*
G02*
X166433136Y-76718818I53033J-53033D01*
G01*
X166539202Y-76824884D01*
G75*
G02*
X166539202Y-76930950I-53033J-53033D01*
G01*
G37*
G36*
G01*
X166185648Y-76577396D02*
X165248732Y-77514312D01*
G75*
G02*
X165142666Y-77514312I-53033J53033D01*
G01*
X165036600Y-77408246D01*
G75*
G02*
X165036600Y-77302180I53033J53033D01*
G01*
X165973516Y-76365264D01*
G75*
G02*
X166079582Y-76365264I53033J-53033D01*
G01*
X166185648Y-76471330D01*
G75*
G02*
X166185648Y-76577396I-53033J-53033D01*
G01*
G37*
G36*
G01*
X166185648Y-75410670D02*
X166079582Y-75516736D01*
G75*
G02*
X165973516Y-75516736I-53033J53033D01*
G01*
X165036600Y-74579820D01*
G75*
G02*
X165036600Y-74473754I53033J53033D01*
G01*
X165142666Y-74367688D01*
G75*
G02*
X165248732Y-74367688I53033J-53033D01*
G01*
X166185648Y-75304604D01*
G75*
G02*
X166185648Y-75410670I-53033J-53033D01*
G01*
G37*
G36*
G01*
X166539202Y-75057116D02*
X166433136Y-75163182D01*
G75*
G02*
X166327070Y-75163182I-53033J53033D01*
G01*
X165390154Y-74226266D01*
G75*
G02*
X165390154Y-74120200I53033J53033D01*
G01*
X165496220Y-74014134D01*
G75*
G02*
X165602286Y-74014134I53033J-53033D01*
G01*
X166539202Y-74951050D01*
G75*
G02*
X166539202Y-75057116I-53033J-53033D01*
G01*
G37*
G36*
G01*
X166892755Y-74703563D02*
X166786689Y-74809629D01*
G75*
G02*
X166680623Y-74809629I-53033J53033D01*
G01*
X165743707Y-73872713D01*
G75*
G02*
X165743707Y-73766647I53033J53033D01*
G01*
X165849773Y-73660581D01*
G75*
G02*
X165955839Y-73660581I53033J-53033D01*
G01*
X166892755Y-74597497D01*
G75*
G02*
X166892755Y-74703563I-53033J-53033D01*
G01*
G37*
G36*
G01*
X167246309Y-74350009D02*
X167140243Y-74456075D01*
G75*
G02*
X167034177Y-74456075I-53033J53033D01*
G01*
X166097261Y-73519159D01*
G75*
G02*
X166097261Y-73413093I53033J53033D01*
G01*
X166203327Y-73307027D01*
G75*
G02*
X166309393Y-73307027I53033J-53033D01*
G01*
X167246309Y-74243943D01*
G75*
G02*
X167246309Y-74350009I-53033J-53033D01*
G01*
G37*
G36*
G01*
X167599862Y-73996456D02*
X167493796Y-74102522D01*
G75*
G02*
X167387730Y-74102522I-53033J53033D01*
G01*
X166450814Y-73165606D01*
G75*
G02*
X166450814Y-73059540I53033J53033D01*
G01*
X166556880Y-72953474D01*
G75*
G02*
X166662946Y-72953474I53033J-53033D01*
G01*
X167599862Y-73890390D01*
G75*
G02*
X167599862Y-73996456I-53033J-53033D01*
G01*
G37*
G36*
G01*
X167953415Y-73642903D02*
X167847349Y-73748969D01*
G75*
G02*
X167741283Y-73748969I-53033J53033D01*
G01*
X166804367Y-72812053D01*
G75*
G02*
X166804367Y-72705987I53033J53033D01*
G01*
X166910433Y-72599921D01*
G75*
G02*
X167016499Y-72599921I53033J-53033D01*
G01*
X167953415Y-73536837D01*
G75*
G02*
X167953415Y-73642903I-53033J-53033D01*
G01*
G37*
G36*
G01*
X168306969Y-73289349D02*
X168200903Y-73395415D01*
G75*
G02*
X168094837Y-73395415I-53033J53033D01*
G01*
X167157921Y-72458499D01*
G75*
G02*
X167157921Y-72352433I53033J53033D01*
G01*
X167263987Y-72246367D01*
G75*
G02*
X167370053Y-72246367I53033J-53033D01*
G01*
X168306969Y-73183283D01*
G75*
G02*
X168306969Y-73289349I-53033J-53033D01*
G01*
G37*
G36*
G01*
X168660522Y-72935796D02*
X168554456Y-73041862D01*
G75*
G02*
X168448390Y-73041862I-53033J53033D01*
G01*
X167511474Y-72104946D01*
G75*
G02*
X167511474Y-71998880I53033J53033D01*
G01*
X167617540Y-71892814D01*
G75*
G02*
X167723606Y-71892814I53033J-53033D01*
G01*
X168660522Y-72829730D01*
G75*
G02*
X168660522Y-72935796I-53033J-53033D01*
G01*
G37*
G36*
G01*
X169014075Y-72582243D02*
X168908009Y-72688309D01*
G75*
G02*
X168801943Y-72688309I-53033J53033D01*
G01*
X167865027Y-71751393D01*
G75*
G02*
X167865027Y-71645327I53033J53033D01*
G01*
X167971093Y-71539261D01*
G75*
G02*
X168077159Y-71539261I53033J-53033D01*
G01*
X169014075Y-72476177D01*
G75*
G02*
X169014075Y-72582243I-53033J-53033D01*
G01*
G37*
G36*
G01*
X169367629Y-72228689D02*
X169261563Y-72334755D01*
G75*
G02*
X169155497Y-72334755I-53033J53033D01*
G01*
X168218581Y-71397839D01*
G75*
G02*
X168218581Y-71291773I53033J53033D01*
G01*
X168324647Y-71185707D01*
G75*
G02*
X168430713Y-71185707I53033J-53033D01*
G01*
X169367629Y-72122623D01*
G75*
G02*
X169367629Y-72228689I-53033J-53033D01*
G01*
G37*
G36*
G01*
X169721182Y-71875136D02*
X169615116Y-71981202D01*
G75*
G02*
X169509050Y-71981202I-53033J53033D01*
G01*
X168572134Y-71044286D01*
G75*
G02*
X168572134Y-70938220I53033J53033D01*
G01*
X168678200Y-70832154D01*
G75*
G02*
X168784266Y-70832154I53033J-53033D01*
G01*
X169721182Y-71769070D01*
G75*
G02*
X169721182Y-71875136I-53033J-53033D01*
G01*
G37*
G36*
G01*
X170074736Y-71521582D02*
X169968670Y-71627648D01*
G75*
G02*
X169862604Y-71627648I-53033J53033D01*
G01*
X168925688Y-70690732D01*
G75*
G02*
X168925688Y-70584666I53033J53033D01*
G01*
X169031754Y-70478600D01*
G75*
G02*
X169137820Y-70478600I53033J-53033D01*
G01*
X170074736Y-71415516D01*
G75*
G02*
X170074736Y-71521582I-53033J-53033D01*
G01*
G37*
G36*
G01*
X172072312Y-70690732D02*
X171135396Y-71627648D01*
G75*
G02*
X171029330Y-71627648I-53033J53033D01*
G01*
X170923264Y-71521582D01*
G75*
G02*
X170923264Y-71415516I53033J53033D01*
G01*
X171860180Y-70478600D01*
G75*
G02*
X171966246Y-70478600I53033J-53033D01*
G01*
X172072312Y-70584666D01*
G75*
G02*
X172072312Y-70690732I-53033J-53033D01*
G01*
G37*
G36*
G01*
X172425866Y-71044286D02*
X171488950Y-71981202D01*
G75*
G02*
X171382884Y-71981202I-53033J53033D01*
G01*
X171276818Y-71875136D01*
G75*
G02*
X171276818Y-71769070I53033J53033D01*
G01*
X172213734Y-70832154D01*
G75*
G02*
X172319800Y-70832154I53033J-53033D01*
G01*
X172425866Y-70938220D01*
G75*
G02*
X172425866Y-71044286I-53033J-53033D01*
G01*
G37*
G36*
G01*
X172779419Y-71397839D02*
X171842503Y-72334755D01*
G75*
G02*
X171736437Y-72334755I-53033J53033D01*
G01*
X171630371Y-72228689D01*
G75*
G02*
X171630371Y-72122623I53033J53033D01*
G01*
X172567287Y-71185707D01*
G75*
G02*
X172673353Y-71185707I53033J-53033D01*
G01*
X172779419Y-71291773D01*
G75*
G02*
X172779419Y-71397839I-53033J-53033D01*
G01*
G37*
G36*
G01*
X173132973Y-71751393D02*
X172196057Y-72688309D01*
G75*
G02*
X172089991Y-72688309I-53033J53033D01*
G01*
X171983925Y-72582243D01*
G75*
G02*
X171983925Y-72476177I53033J53033D01*
G01*
X172920841Y-71539261D01*
G75*
G02*
X173026907Y-71539261I53033J-53033D01*
G01*
X173132973Y-71645327D01*
G75*
G02*
X173132973Y-71751393I-53033J-53033D01*
G01*
G37*
G36*
G01*
X173486526Y-72104946D02*
X172549610Y-73041862D01*
G75*
G02*
X172443544Y-73041862I-53033J53033D01*
G01*
X172337478Y-72935796D01*
G75*
G02*
X172337478Y-72829730I53033J53033D01*
G01*
X173274394Y-71892814D01*
G75*
G02*
X173380460Y-71892814I53033J-53033D01*
G01*
X173486526Y-71998880D01*
G75*
G02*
X173486526Y-72104946I-53033J-53033D01*
G01*
G37*
G36*
G01*
X173840079Y-72458499D02*
X172903163Y-73395415D01*
G75*
G02*
X172797097Y-73395415I-53033J53033D01*
G01*
X172691031Y-73289349D01*
G75*
G02*
X172691031Y-73183283I53033J53033D01*
G01*
X173627947Y-72246367D01*
G75*
G02*
X173734013Y-72246367I53033J-53033D01*
G01*
X173840079Y-72352433D01*
G75*
G02*
X173840079Y-72458499I-53033J-53033D01*
G01*
G37*
G36*
G01*
X174193633Y-72812053D02*
X173256717Y-73748969D01*
G75*
G02*
X173150651Y-73748969I-53033J53033D01*
G01*
X173044585Y-73642903D01*
G75*
G02*
X173044585Y-73536837I53033J53033D01*
G01*
X173981501Y-72599921D01*
G75*
G02*
X174087567Y-72599921I53033J-53033D01*
G01*
X174193633Y-72705987D01*
G75*
G02*
X174193633Y-72812053I-53033J-53033D01*
G01*
G37*
G36*
G01*
X174547186Y-73165606D02*
X173610270Y-74102522D01*
G75*
G02*
X173504204Y-74102522I-53033J53033D01*
G01*
X173398138Y-73996456D01*
G75*
G02*
X173398138Y-73890390I53033J53033D01*
G01*
X174335054Y-72953474D01*
G75*
G02*
X174441120Y-72953474I53033J-53033D01*
G01*
X174547186Y-73059540D01*
G75*
G02*
X174547186Y-73165606I-53033J-53033D01*
G01*
G37*
G36*
G01*
X174900739Y-73519159D02*
X173963823Y-74456075D01*
G75*
G02*
X173857757Y-74456075I-53033J53033D01*
G01*
X173751691Y-74350009D01*
G75*
G02*
X173751691Y-74243943I53033J53033D01*
G01*
X174688607Y-73307027D01*
G75*
G02*
X174794673Y-73307027I53033J-53033D01*
G01*
X174900739Y-73413093D01*
G75*
G02*
X174900739Y-73519159I-53033J-53033D01*
G01*
G37*
G36*
G01*
X175254293Y-73872713D02*
X174317377Y-74809629D01*
G75*
G02*
X174211311Y-74809629I-53033J53033D01*
G01*
X174105245Y-74703563D01*
G75*
G02*
X174105245Y-74597497I53033J53033D01*
G01*
X175042161Y-73660581D01*
G75*
G02*
X175148227Y-73660581I53033J-53033D01*
G01*
X175254293Y-73766647D01*
G75*
G02*
X175254293Y-73872713I-53033J-53033D01*
G01*
G37*
G36*
G01*
X175607846Y-74226266D02*
X174670930Y-75163182D01*
G75*
G02*
X174564864Y-75163182I-53033J53033D01*
G01*
X174458798Y-75057116D01*
G75*
G02*
X174458798Y-74951050I53033J53033D01*
G01*
X175395714Y-74014134D01*
G75*
G02*
X175501780Y-74014134I53033J-53033D01*
G01*
X175607846Y-74120200D01*
G75*
G02*
X175607846Y-74226266I-53033J-53033D01*
G01*
G37*
G36*
G01*
X175961400Y-74579820D02*
X175024484Y-75516736D01*
G75*
G02*
X174918418Y-75516736I-53033J53033D01*
G01*
X174812352Y-75410670D01*
G75*
G02*
X174812352Y-75304604I53033J53033D01*
G01*
X175749268Y-74367688D01*
G75*
G02*
X175855334Y-74367688I53033J-53033D01*
G01*
X175961400Y-74473754D01*
G75*
G02*
X175961400Y-74579820I-53033J-53033D01*
G01*
G37*
G36*
G01*
X175961400Y-77408246D02*
X175855334Y-77514312D01*
G75*
G02*
X175749268Y-77514312I-53033J53033D01*
G01*
X174812352Y-76577396D01*
G75*
G02*
X174812352Y-76471330I53033J53033D01*
G01*
X174918418Y-76365264D01*
G75*
G02*
X175024484Y-76365264I53033J-53033D01*
G01*
X175961400Y-77302180D01*
G75*
G02*
X175961400Y-77408246I-53033J-53033D01*
G01*
G37*
G36*
G01*
X175607846Y-77761800D02*
X175501780Y-77867866D01*
G75*
G02*
X175395714Y-77867866I-53033J53033D01*
G01*
X174458798Y-76930950D01*
G75*
G02*
X174458798Y-76824884I53033J53033D01*
G01*
X174564864Y-76718818D01*
G75*
G02*
X174670930Y-76718818I53033J-53033D01*
G01*
X175607846Y-77655734D01*
G75*
G02*
X175607846Y-77761800I-53033J-53033D01*
G01*
G37*
G36*
G01*
X175254293Y-78115353D02*
X175148227Y-78221419D01*
G75*
G02*
X175042161Y-78221419I-53033J53033D01*
G01*
X174105245Y-77284503D01*
G75*
G02*
X174105245Y-77178437I53033J53033D01*
G01*
X174211311Y-77072371D01*
G75*
G02*
X174317377Y-77072371I53033J-53033D01*
G01*
X175254293Y-78009287D01*
G75*
G02*
X175254293Y-78115353I-53033J-53033D01*
G01*
G37*
G36*
G01*
X174900739Y-78468907D02*
X174794673Y-78574973D01*
G75*
G02*
X174688607Y-78574973I-53033J53033D01*
G01*
X173751691Y-77638057D01*
G75*
G02*
X173751691Y-77531991I53033J53033D01*
G01*
X173857757Y-77425925D01*
G75*
G02*
X173963823Y-77425925I53033J-53033D01*
G01*
X174900739Y-78362841D01*
G75*
G02*
X174900739Y-78468907I-53033J-53033D01*
G01*
G37*
G36*
G01*
X174547186Y-78822460D02*
X174441120Y-78928526D01*
G75*
G02*
X174335054Y-78928526I-53033J53033D01*
G01*
X173398138Y-77991610D01*
G75*
G02*
X173398138Y-77885544I53033J53033D01*
G01*
X173504204Y-77779478D01*
G75*
G02*
X173610270Y-77779478I53033J-53033D01*
G01*
X174547186Y-78716394D01*
G75*
G02*
X174547186Y-78822460I-53033J-53033D01*
G01*
G37*
G36*
G01*
X174193633Y-79176013D02*
X174087567Y-79282079D01*
G75*
G02*
X173981501Y-79282079I-53033J53033D01*
G01*
X173044585Y-78345163D01*
G75*
G02*
X173044585Y-78239097I53033J53033D01*
G01*
X173150651Y-78133031D01*
G75*
G02*
X173256717Y-78133031I53033J-53033D01*
G01*
X174193633Y-79069947D01*
G75*
G02*
X174193633Y-79176013I-53033J-53033D01*
G01*
G37*
G36*
G01*
X173840079Y-79529567D02*
X173734013Y-79635633D01*
G75*
G02*
X173627947Y-79635633I-53033J53033D01*
G01*
X172691031Y-78698717D01*
G75*
G02*
X172691031Y-78592651I53033J53033D01*
G01*
X172797097Y-78486585D01*
G75*
G02*
X172903163Y-78486585I53033J-53033D01*
G01*
X173840079Y-79423501D01*
G75*
G02*
X173840079Y-79529567I-53033J-53033D01*
G01*
G37*
G36*
G01*
X173486526Y-79883120D02*
X173380460Y-79989186D01*
G75*
G02*
X173274394Y-79989186I-53033J53033D01*
G01*
X172337478Y-79052270D01*
G75*
G02*
X172337478Y-78946204I53033J53033D01*
G01*
X172443544Y-78840138D01*
G75*
G02*
X172549610Y-78840138I53033J-53033D01*
G01*
X173486526Y-79777054D01*
G75*
G02*
X173486526Y-79883120I-53033J-53033D01*
G01*
G37*
G36*
G01*
X173132973Y-80236673D02*
X173026907Y-80342739D01*
G75*
G02*
X172920841Y-80342739I-53033J53033D01*
G01*
X171983925Y-79405823D01*
G75*
G02*
X171983925Y-79299757I53033J53033D01*
G01*
X172089991Y-79193691D01*
G75*
G02*
X172196057Y-79193691I53033J-53033D01*
G01*
X173132973Y-80130607D01*
G75*
G02*
X173132973Y-80236673I-53033J-53033D01*
G01*
G37*
G36*
G01*
X172779419Y-80590227D02*
X172673353Y-80696293D01*
G75*
G02*
X172567287Y-80696293I-53033J53033D01*
G01*
X171630371Y-79759377D01*
G75*
G02*
X171630371Y-79653311I53033J53033D01*
G01*
X171736437Y-79547245D01*
G75*
G02*
X171842503Y-79547245I53033J-53033D01*
G01*
X172779419Y-80484161D01*
G75*
G02*
X172779419Y-80590227I-53033J-53033D01*
G01*
G37*
G36*
G01*
X172425866Y-80943780D02*
X172319800Y-81049846D01*
G75*
G02*
X172213734Y-81049846I-53033J53033D01*
G01*
X171276818Y-80112930D01*
G75*
G02*
X171276818Y-80006864I53033J53033D01*
G01*
X171382884Y-79900798D01*
G75*
G02*
X171488950Y-79900798I53033J-53033D01*
G01*
X172425866Y-80837714D01*
G75*
G02*
X172425866Y-80943780I-53033J-53033D01*
G01*
G37*
G36*
G01*
X172072312Y-81297334D02*
X171966246Y-81403400D01*
G75*
G02*
X171860180Y-81403400I-53033J53033D01*
G01*
X170923264Y-80466484D01*
G75*
G02*
X170923264Y-80360418I53033J53033D01*
G01*
X171029330Y-80254352D01*
G75*
G02*
X171135396Y-80254352I53033J-53033D01*
G01*
X172072312Y-81191268D01*
G75*
G02*
X172072312Y-81297334I-53033J-53033D01*
G01*
G37*
G36*
G01*
X167434500Y-82755000D02*
X166959500Y-82755000D01*
G75*
G02*
X166722000Y-82517500I0J237500D01*
G01*
X166722000Y-82017500D01*
G75*
G02*
X166959500Y-81780000I237500J0D01*
G01*
X167434500Y-81780000D01*
G75*
G02*
X167672000Y-82017500I0J-237500D01*
G01*
X167672000Y-82517500D01*
G75*
G02*
X167434500Y-82755000I-237500J0D01*
G01*
G37*
G36*
G01*
X167434500Y-84580000D02*
X166959500Y-84580000D01*
G75*
G02*
X166722000Y-84342500I0J237500D01*
G01*
X166722000Y-83842500D01*
G75*
G02*
X166959500Y-83605000I237500J0D01*
G01*
X167434500Y-83605000D01*
G75*
G02*
X167672000Y-83842500I0J-237500D01*
G01*
X167672000Y-84342500D01*
G75*
G02*
X167434500Y-84580000I-237500J0D01*
G01*
G37*
G36*
G01*
X168735000Y-84138000D02*
X168735000Y-84508000D01*
G75*
G02*
X168600000Y-84643000I-135000J0D01*
G01*
X168330000Y-84643000D01*
G75*
G02*
X168195000Y-84508000I0J135000D01*
G01*
X168195000Y-84138000D01*
G75*
G02*
X168330000Y-84003000I135000J0D01*
G01*
X168600000Y-84003000D01*
G75*
G02*
X168735000Y-84138000I0J-135000D01*
G01*
G37*
G36*
G01*
X169755000Y-84138000D02*
X169755000Y-84508000D01*
G75*
G02*
X169620000Y-84643000I-135000J0D01*
G01*
X169350000Y-84643000D01*
G75*
G02*
X169215000Y-84508000I0J135000D01*
G01*
X169215000Y-84138000D01*
G75*
G02*
X169350000Y-84003000I135000J0D01*
G01*
X169620000Y-84003000D01*
G75*
G02*
X169755000Y-84138000I0J-135000D01*
G01*
G37*
D16*
X164784000Y-80509000D03*
X159704000Y-80509000D03*
X162244000Y-83819000D03*
X157164000Y-83819000D03*
G36*
G01*
X160256500Y-69833500D02*
X160256500Y-69358500D01*
G75*
G02*
X160494000Y-69121000I237500J0D01*
G01*
X161094000Y-69121000D01*
G75*
G02*
X161331500Y-69358500I0J-237500D01*
G01*
X161331500Y-69833500D01*
G75*
G02*
X161094000Y-70071000I-237500J0D01*
G01*
X160494000Y-70071000D01*
G75*
G02*
X160256500Y-69833500I0J237500D01*
G01*
G37*
G36*
G01*
X158531500Y-69833500D02*
X158531500Y-69358500D01*
G75*
G02*
X158769000Y-69121000I237500J0D01*
G01*
X159369000Y-69121000D01*
G75*
G02*
X159606500Y-69358500I0J-237500D01*
G01*
X159606500Y-69833500D01*
G75*
G02*
X159369000Y-70071000I-237500J0D01*
G01*
X158769000Y-70071000D01*
G75*
G02*
X158531500Y-69833500I0J237500D01*
G01*
G37*
G36*
G01*
X154922000Y-66653500D02*
X154922000Y-66178500D01*
G75*
G02*
X155159500Y-65941000I237500J0D01*
G01*
X155659500Y-65941000D01*
G75*
G02*
X155897000Y-66178500I0J-237500D01*
G01*
X155897000Y-66653500D01*
G75*
G02*
X155659500Y-66891000I-237500J0D01*
G01*
X155159500Y-66891000D01*
G75*
G02*
X154922000Y-66653500I0J237500D01*
G01*
G37*
G36*
G01*
X153097000Y-66653500D02*
X153097000Y-66178500D01*
G75*
G02*
X153334500Y-65941000I237500J0D01*
G01*
X153834500Y-65941000D01*
G75*
G02*
X154072000Y-66178500I0J-237500D01*
G01*
X154072000Y-66653500D01*
G75*
G02*
X153834500Y-66891000I-237500J0D01*
G01*
X153334500Y-66891000D01*
G75*
G02*
X153097000Y-66653500I0J237500D01*
G01*
G37*
G36*
G01*
X156926500Y-69381000D02*
X157401500Y-69381000D01*
G75*
G02*
X157639000Y-69618500I0J-237500D01*
G01*
X157639000Y-70118500D01*
G75*
G02*
X157401500Y-70356000I-237500J0D01*
G01*
X156926500Y-70356000D01*
G75*
G02*
X156689000Y-70118500I0J237500D01*
G01*
X156689000Y-69618500D01*
G75*
G02*
X156926500Y-69381000I237500J0D01*
G01*
G37*
G36*
G01*
X156926500Y-67556000D02*
X157401500Y-67556000D01*
G75*
G02*
X157639000Y-67793500I0J-237500D01*
G01*
X157639000Y-68293500D01*
G75*
G02*
X157401500Y-68531000I-237500J0D01*
G01*
X156926500Y-68531000D01*
G75*
G02*
X156689000Y-68293500I0J237500D01*
G01*
X156689000Y-67793500D01*
G75*
G02*
X156926500Y-67556000I237500J0D01*
G01*
G37*
G36*
G01*
X155275500Y-69381000D02*
X155750500Y-69381000D01*
G75*
G02*
X155988000Y-69618500I0J-237500D01*
G01*
X155988000Y-70118500D01*
G75*
G02*
X155750500Y-70356000I-237500J0D01*
G01*
X155275500Y-70356000D01*
G75*
G02*
X155038000Y-70118500I0J237500D01*
G01*
X155038000Y-69618500D01*
G75*
G02*
X155275500Y-69381000I237500J0D01*
G01*
G37*
G36*
G01*
X155275500Y-67556000D02*
X155750500Y-67556000D01*
G75*
G02*
X155988000Y-67793500I0J-237500D01*
G01*
X155988000Y-68293500D01*
G75*
G02*
X155750500Y-68531000I-237500J0D01*
G01*
X155275500Y-68531000D01*
G75*
G02*
X155038000Y-68293500I0J237500D01*
G01*
X155038000Y-67793500D01*
G75*
G02*
X155275500Y-67556000I237500J0D01*
G01*
G37*
G36*
G01*
X158378000Y-66653500D02*
X158378000Y-66178500D01*
G75*
G02*
X158615500Y-65941000I237500J0D01*
G01*
X159215500Y-65941000D01*
G75*
G02*
X159453000Y-66178500I0J-237500D01*
G01*
X159453000Y-66653500D01*
G75*
G02*
X159215500Y-66891000I-237500J0D01*
G01*
X158615500Y-66891000D01*
G75*
G02*
X158378000Y-66653500I0J237500D01*
G01*
G37*
G36*
G01*
X156653000Y-66653500D02*
X156653000Y-66178500D01*
G75*
G02*
X156890500Y-65941000I237500J0D01*
G01*
X157490500Y-65941000D01*
G75*
G02*
X157728000Y-66178500I0J-237500D01*
G01*
X157728000Y-66653500D01*
G75*
G02*
X157490500Y-66891000I-237500J0D01*
G01*
X156890500Y-66891000D01*
G75*
G02*
X156653000Y-66653500I0J237500D01*
G01*
G37*
D18*
X148782000Y-57399000D03*
X146242000Y-57399000D03*
X143702000Y-57399000D03*
D19*
X169864000Y-63216000D03*
D20*
X169864000Y-56916000D03*
X167564000Y-56916000D03*
X172164000Y-56916000D03*
D17*
X137482000Y-57272000D03*
X134682000Y-57272000D03*
G36*
G01*
X173149500Y-82982000D02*
X172674500Y-82982000D01*
G75*
G02*
X172437000Y-82744500I0J237500D01*
G01*
X172437000Y-82144500D01*
G75*
G02*
X172674500Y-81907000I237500J0D01*
G01*
X173149500Y-81907000D01*
G75*
G02*
X173387000Y-82144500I0J-237500D01*
G01*
X173387000Y-82744500D01*
G75*
G02*
X173149500Y-82982000I-237500J0D01*
G01*
G37*
G36*
G01*
X173149500Y-84707000D02*
X172674500Y-84707000D01*
G75*
G02*
X172437000Y-84469500I0J237500D01*
G01*
X172437000Y-83869500D01*
G75*
G02*
X172674500Y-83632000I237500J0D01*
G01*
X173149500Y-83632000D01*
G75*
G02*
X173387000Y-83869500I0J-237500D01*
G01*
X173387000Y-84469500D01*
G75*
G02*
X173149500Y-84707000I-237500J0D01*
G01*
G37*
G36*
G01*
X174111000Y-69226500D02*
X174111000Y-69701500D01*
G75*
G02*
X173873500Y-69939000I-237500J0D01*
G01*
X173273500Y-69939000D01*
G75*
G02*
X173036000Y-69701500I0J237500D01*
G01*
X173036000Y-69226500D01*
G75*
G02*
X173273500Y-68989000I237500J0D01*
G01*
X173873500Y-68989000D01*
G75*
G02*
X174111000Y-69226500I0J-237500D01*
G01*
G37*
G36*
G01*
X175836000Y-69226500D02*
X175836000Y-69701500D01*
G75*
G02*
X175598500Y-69939000I-237500J0D01*
G01*
X174998500Y-69939000D01*
G75*
G02*
X174761000Y-69701500I0J237500D01*
G01*
X174761000Y-69226500D01*
G75*
G02*
X174998500Y-68989000I237500J0D01*
G01*
X175598500Y-68989000D01*
G75*
G02*
X175836000Y-69226500I0J-237500D01*
G01*
G37*
G36*
G01*
X163530500Y-76266000D02*
X164005500Y-76266000D01*
G75*
G02*
X164243000Y-76503500I0J-237500D01*
G01*
X164243000Y-77103500D01*
G75*
G02*
X164005500Y-77341000I-237500J0D01*
G01*
X163530500Y-77341000D01*
G75*
G02*
X163293000Y-77103500I0J237500D01*
G01*
X163293000Y-76503500D01*
G75*
G02*
X163530500Y-76266000I237500J0D01*
G01*
G37*
G36*
G01*
X163530500Y-74541000D02*
X164005500Y-74541000D01*
G75*
G02*
X164243000Y-74778500I0J-237500D01*
G01*
X164243000Y-75378500D01*
G75*
G02*
X164005500Y-75616000I-237500J0D01*
G01*
X163530500Y-75616000D01*
G75*
G02*
X163293000Y-75378500I0J237500D01*
G01*
X163293000Y-74778500D01*
G75*
G02*
X163530500Y-74541000I237500J0D01*
G01*
G37*
D13*
X184727000Y-64765000D03*
X181417000Y-67305000D03*
X181417000Y-62225000D03*
X178758000Y-64765000D03*
X175448000Y-67305000D03*
X175448000Y-62225000D03*
G36*
G01*
X170062000Y-83163500D02*
X170062000Y-82688500D01*
G75*
G02*
X170299500Y-82451000I237500J0D01*
G01*
X170899500Y-82451000D01*
G75*
G02*
X171137000Y-82688500I0J-237500D01*
G01*
X171137000Y-83163500D01*
G75*
G02*
X170899500Y-83401000I-237500J0D01*
G01*
X170299500Y-83401000D01*
G75*
G02*
X170062000Y-83163500I0J237500D01*
G01*
G37*
G36*
G01*
X168337000Y-83163500D02*
X168337000Y-82688500D01*
G75*
G02*
X168574500Y-82451000I237500J0D01*
G01*
X169174500Y-82451000D01*
G75*
G02*
X169412000Y-82688500I0J-237500D01*
G01*
X169412000Y-83163500D01*
G75*
G02*
X169174500Y-83401000I-237500J0D01*
G01*
X168574500Y-83401000D01*
G75*
G02*
X168337000Y-83163500I0J237500D01*
G01*
G37*
D21*
X128401000Y-76840000D03*
X128401000Y-65410000D03*
D22*
X134751000Y-66680000D03*
D23*
X137291000Y-67950000D03*
X134751000Y-69220000D03*
X137291000Y-70490000D03*
X134751000Y-71760000D03*
X137291000Y-73030000D03*
X134751000Y-74300000D03*
X137291000Y-75570000D03*
D24*
X131451000Y-63375000D03*
X131451000Y-78875000D03*
G36*
G01*
X183636000Y-79767500D02*
X183636000Y-80242500D01*
G75*
G02*
X183398500Y-80480000I-237500J0D01*
G01*
X182798500Y-80480000D01*
G75*
G02*
X182561000Y-80242500I0J237500D01*
G01*
X182561000Y-79767500D01*
G75*
G02*
X182798500Y-79530000I237500J0D01*
G01*
X183398500Y-79530000D01*
G75*
G02*
X183636000Y-79767500I0J-237500D01*
G01*
G37*
G36*
G01*
X185361000Y-79767500D02*
X185361000Y-80242500D01*
G75*
G02*
X185123500Y-80480000I-237500J0D01*
G01*
X184523500Y-80480000D01*
G75*
G02*
X184286000Y-80242500I0J237500D01*
G01*
X184286000Y-79767500D01*
G75*
G02*
X184523500Y-79530000I237500J0D01*
G01*
X185123500Y-79530000D01*
G75*
G02*
X185361000Y-79767500I0J-237500D01*
G01*
G37*
G36*
G01*
X179117000Y-71474500D02*
X179117000Y-70999500D01*
G75*
G02*
X179354500Y-70762000I237500J0D01*
G01*
X179854500Y-70762000D01*
G75*
G02*
X180092000Y-70999500I0J-237500D01*
G01*
X180092000Y-71474500D01*
G75*
G02*
X179854500Y-71712000I-237500J0D01*
G01*
X179354500Y-71712000D01*
G75*
G02*
X179117000Y-71474500I0J237500D01*
G01*
G37*
G36*
G01*
X177292000Y-71474500D02*
X177292000Y-70999500D01*
G75*
G02*
X177529500Y-70762000I237500J0D01*
G01*
X178029500Y-70762000D01*
G75*
G02*
X178267000Y-70999500I0J-237500D01*
G01*
X178267000Y-71474500D01*
G75*
G02*
X178029500Y-71712000I-237500J0D01*
G01*
X177529500Y-71712000D01*
G75*
G02*
X177292000Y-71474500I0J237500D01*
G01*
G37*
G36*
G01*
X180975000Y-71347500D02*
X180975000Y-70872500D01*
G75*
G02*
X181212500Y-70635000I237500J0D01*
G01*
X181712500Y-70635000D01*
G75*
G02*
X181950000Y-70872500I0J-237500D01*
G01*
X181950000Y-71347500D01*
G75*
G02*
X181712500Y-71585000I-237500J0D01*
G01*
X181212500Y-71585000D01*
G75*
G02*
X180975000Y-71347500I0J237500D01*
G01*
G37*
G36*
G01*
X182800000Y-71347500D02*
X182800000Y-70872500D01*
G75*
G02*
X183037500Y-70635000I237500J0D01*
G01*
X183537500Y-70635000D01*
G75*
G02*
X183775000Y-70872500I0J-237500D01*
G01*
X183775000Y-71347500D01*
G75*
G02*
X183537500Y-71585000I-237500J0D01*
G01*
X183037500Y-71585000D01*
G75*
G02*
X182800000Y-71347500I0J237500D01*
G01*
G37*
G36*
G01*
X192198000Y-79475500D02*
X192198000Y-79000500D01*
G75*
G02*
X192435500Y-78763000I237500J0D01*
G01*
X192935500Y-78763000D01*
G75*
G02*
X193173000Y-79000500I0J-237500D01*
G01*
X193173000Y-79475500D01*
G75*
G02*
X192935500Y-79713000I-237500J0D01*
G01*
X192435500Y-79713000D01*
G75*
G02*
X192198000Y-79475500I0J237500D01*
G01*
G37*
G36*
G01*
X190373000Y-79475500D02*
X190373000Y-79000500D01*
G75*
G02*
X190610500Y-78763000I237500J0D01*
G01*
X191110500Y-78763000D01*
G75*
G02*
X191348000Y-79000500I0J-237500D01*
G01*
X191348000Y-79475500D01*
G75*
G02*
X191110500Y-79713000I-237500J0D01*
G01*
X190610500Y-79713000D01*
G75*
G02*
X190373000Y-79475500I0J237500D01*
G01*
G37*
G36*
G01*
X192198000Y-72744500D02*
X192198000Y-72269500D01*
G75*
G02*
X192435500Y-72032000I237500J0D01*
G01*
X192935500Y-72032000D01*
G75*
G02*
X193173000Y-72269500I0J-237500D01*
G01*
X193173000Y-72744500D01*
G75*
G02*
X192935500Y-72982000I-237500J0D01*
G01*
X192435500Y-72982000D01*
G75*
G02*
X192198000Y-72744500I0J237500D01*
G01*
G37*
G36*
G01*
X190373000Y-72744500D02*
X190373000Y-72269500D01*
G75*
G02*
X190610500Y-72032000I237500J0D01*
G01*
X191110500Y-72032000D01*
G75*
G02*
X191348000Y-72269500I0J-237500D01*
G01*
X191348000Y-72744500D01*
G75*
G02*
X191110500Y-72982000I-237500J0D01*
G01*
X190610500Y-72982000D01*
G75*
G02*
X190373000Y-72744500I0J237500D01*
G01*
G37*
G36*
G01*
X187027000Y-73930500D02*
X187027000Y-74405500D01*
G75*
G02*
X186789500Y-74643000I-237500J0D01*
G01*
X186289500Y-74643000D01*
G75*
G02*
X186052000Y-74405500I0J237500D01*
G01*
X186052000Y-73930500D01*
G75*
G02*
X186289500Y-73693000I237500J0D01*
G01*
X186789500Y-73693000D01*
G75*
G02*
X187027000Y-73930500I0J-237500D01*
G01*
G37*
G36*
G01*
X188852000Y-73930500D02*
X188852000Y-74405500D01*
G75*
G02*
X188614500Y-74643000I-237500J0D01*
G01*
X188114500Y-74643000D01*
G75*
G02*
X187877000Y-74405500I0J237500D01*
G01*
X187877000Y-73930500D01*
G75*
G02*
X188114500Y-73693000I237500J0D01*
G01*
X188614500Y-73693000D01*
G75*
G02*
X188852000Y-73930500I0J-237500D01*
G01*
G37*
G36*
G01*
X187027000Y-80534500D02*
X187027000Y-81009500D01*
G75*
G02*
X186789500Y-81247000I-237500J0D01*
G01*
X186289500Y-81247000D01*
G75*
G02*
X186052000Y-81009500I0J237500D01*
G01*
X186052000Y-80534500D01*
G75*
G02*
X186289500Y-80297000I237500J0D01*
G01*
X186789500Y-80297000D01*
G75*
G02*
X187027000Y-80534500I0J-237500D01*
G01*
G37*
G36*
G01*
X188852000Y-80534500D02*
X188852000Y-81009500D01*
G75*
G02*
X188614500Y-81247000I-237500J0D01*
G01*
X188114500Y-81247000D01*
G75*
G02*
X187877000Y-81009500I0J237500D01*
G01*
X187877000Y-80534500D01*
G75*
G02*
X188114500Y-80297000I237500J0D01*
G01*
X188614500Y-80297000D01*
G75*
G02*
X188852000Y-80534500I0J-237500D01*
G01*
G37*
G36*
G01*
X178267000Y-69353500D02*
X178267000Y-69828500D01*
G75*
G02*
X178029500Y-70066000I-237500J0D01*
G01*
X177529500Y-70066000D01*
G75*
G02*
X177292000Y-69828500I0J237500D01*
G01*
X177292000Y-69353500D01*
G75*
G02*
X177529500Y-69116000I237500J0D01*
G01*
X178029500Y-69116000D01*
G75*
G02*
X178267000Y-69353500I0J-237500D01*
G01*
G37*
G36*
G01*
X180092000Y-69353500D02*
X180092000Y-69828500D01*
G75*
G02*
X179854500Y-70066000I-237500J0D01*
G01*
X179354500Y-70066000D01*
G75*
G02*
X179117000Y-69828500I0J237500D01*
G01*
X179117000Y-69353500D01*
G75*
G02*
X179354500Y-69116000I237500J0D01*
G01*
X179854500Y-69116000D01*
G75*
G02*
X180092000Y-69353500I0J-237500D01*
G01*
G37*
G36*
G01*
X181950000Y-69353500D02*
X181950000Y-69828500D01*
G75*
G02*
X181712500Y-70066000I-237500J0D01*
G01*
X181212500Y-70066000D01*
G75*
G02*
X180975000Y-69828500I0J237500D01*
G01*
X180975000Y-69353500D01*
G75*
G02*
X181212500Y-69116000I237500J0D01*
G01*
X181712500Y-69116000D01*
G75*
G02*
X181950000Y-69353500I0J-237500D01*
G01*
G37*
G36*
G01*
X183775000Y-69353500D02*
X183775000Y-69828500D01*
G75*
G02*
X183537500Y-70066000I-237500J0D01*
G01*
X183037500Y-70066000D01*
G75*
G02*
X182800000Y-69828500I0J237500D01*
G01*
X182800000Y-69353500D01*
G75*
G02*
X183037500Y-69116000I237500J0D01*
G01*
X183537500Y-69116000D01*
G75*
G02*
X183775000Y-69353500I0J-237500D01*
G01*
G37*
G36*
G01*
X191348000Y-77349500D02*
X191348000Y-77824500D01*
G75*
G02*
X191110500Y-78062000I-237500J0D01*
G01*
X190610500Y-78062000D01*
G75*
G02*
X190373000Y-77824500I0J237500D01*
G01*
X190373000Y-77349500D01*
G75*
G02*
X190610500Y-77112000I237500J0D01*
G01*
X191110500Y-77112000D01*
G75*
G02*
X191348000Y-77349500I0J-237500D01*
G01*
G37*
G36*
G01*
X193173000Y-77349500D02*
X193173000Y-77824500D01*
G75*
G02*
X192935500Y-78062000I-237500J0D01*
G01*
X192435500Y-78062000D01*
G75*
G02*
X192198000Y-77824500I0J237500D01*
G01*
X192198000Y-77349500D01*
G75*
G02*
X192435500Y-77112000I237500J0D01*
G01*
X192935500Y-77112000D01*
G75*
G02*
X193173000Y-77349500I0J-237500D01*
G01*
G37*
G36*
G01*
X191348000Y-75576500D02*
X191348000Y-76051500D01*
G75*
G02*
X191110500Y-76289000I-237500J0D01*
G01*
X190610500Y-76289000D01*
G75*
G02*
X190373000Y-76051500I0J237500D01*
G01*
X190373000Y-75576500D01*
G75*
G02*
X190610500Y-75339000I237500J0D01*
G01*
X191110500Y-75339000D01*
G75*
G02*
X191348000Y-75576500I0J-237500D01*
G01*
G37*
G36*
G01*
X193173000Y-75576500D02*
X193173000Y-76051500D01*
G75*
G02*
X192935500Y-76289000I-237500J0D01*
G01*
X192435500Y-76289000D01*
G75*
G02*
X192198000Y-76051500I0J237500D01*
G01*
X192198000Y-75576500D01*
G75*
G02*
X192435500Y-75339000I237500J0D01*
G01*
X192935500Y-75339000D01*
G75*
G02*
X193173000Y-75576500I0J-237500D01*
G01*
G37*
G36*
G01*
X187877000Y-76056500D02*
X187877000Y-75581500D01*
G75*
G02*
X188114500Y-75344000I237500J0D01*
G01*
X188614500Y-75344000D01*
G75*
G02*
X188852000Y-75581500I0J-237500D01*
G01*
X188852000Y-76056500D01*
G75*
G02*
X188614500Y-76294000I-237500J0D01*
G01*
X188114500Y-76294000D01*
G75*
G02*
X187877000Y-76056500I0J237500D01*
G01*
G37*
G36*
G01*
X186052000Y-76056500D02*
X186052000Y-75581500D01*
G75*
G02*
X186289500Y-75344000I237500J0D01*
G01*
X186789500Y-75344000D01*
G75*
G02*
X187027000Y-75581500I0J-237500D01*
G01*
X187027000Y-76056500D01*
G75*
G02*
X186789500Y-76294000I-237500J0D01*
G01*
X186289500Y-76294000D01*
G75*
G02*
X186052000Y-76056500I0J237500D01*
G01*
G37*
G36*
G01*
X187877000Y-77702500D02*
X187877000Y-77227500D01*
G75*
G02*
X188114500Y-76990000I237500J0D01*
G01*
X188614500Y-76990000D01*
G75*
G02*
X188852000Y-77227500I0J-237500D01*
G01*
X188852000Y-77702500D01*
G75*
G02*
X188614500Y-77940000I-237500J0D01*
G01*
X188114500Y-77940000D01*
G75*
G02*
X187877000Y-77702500I0J237500D01*
G01*
G37*
G36*
G01*
X186052000Y-77702500D02*
X186052000Y-77227500D01*
G75*
G02*
X186289500Y-76990000I237500J0D01*
G01*
X186789500Y-76990000D01*
G75*
G02*
X187027000Y-77227500I0J-237500D01*
G01*
X187027000Y-77702500D01*
G75*
G02*
X186789500Y-77940000I-237500J0D01*
G01*
X186289500Y-77940000D01*
G75*
G02*
X186052000Y-77702500I0J237500D01*
G01*
G37*
G36*
G01*
X179280600Y-81588700D02*
X179280600Y-81113700D01*
G75*
G02*
X179518100Y-80876200I237500J0D01*
G01*
X180018100Y-80876200D01*
G75*
G02*
X180255600Y-81113700I0J-237500D01*
G01*
X180255600Y-81588700D01*
G75*
G02*
X180018100Y-81826200I-237500J0D01*
G01*
X179518100Y-81826200D01*
G75*
G02*
X179280600Y-81588700I0J237500D01*
G01*
G37*
G36*
G01*
X177455600Y-81588700D02*
X177455600Y-81113700D01*
G75*
G02*
X177693100Y-80876200I237500J0D01*
G01*
X178193100Y-80876200D01*
G75*
G02*
X178430600Y-81113700I0J-237500D01*
G01*
X178430600Y-81588700D01*
G75*
G02*
X178193100Y-81826200I-237500J0D01*
G01*
X177693100Y-81826200D01*
G75*
G02*
X177455600Y-81588700I0J237500D01*
G01*
G37*
G36*
G01*
X150643000Y-84847500D02*
X150643000Y-85322500D01*
G75*
G02*
X150405500Y-85560000I-237500J0D01*
G01*
X149905500Y-85560000D01*
G75*
G02*
X149668000Y-85322500I0J237500D01*
G01*
X149668000Y-84847500D01*
G75*
G02*
X149905500Y-84610000I237500J0D01*
G01*
X150405500Y-84610000D01*
G75*
G02*
X150643000Y-84847500I0J-237500D01*
G01*
G37*
G36*
G01*
X152468000Y-84847500D02*
X152468000Y-85322500D01*
G75*
G02*
X152230500Y-85560000I-237500J0D01*
G01*
X151730500Y-85560000D01*
G75*
G02*
X151493000Y-85322500I0J237500D01*
G01*
X151493000Y-84847500D01*
G75*
G02*
X151730500Y-84610000I237500J0D01*
G01*
X152230500Y-84610000D01*
G75*
G02*
X152468000Y-84847500I0J-237500D01*
G01*
G37*
G36*
G01*
X152802000Y-73798500D02*
X152802000Y-74273500D01*
G75*
G02*
X152564500Y-74511000I-237500J0D01*
G01*
X152064500Y-74511000D01*
G75*
G02*
X151827000Y-74273500I0J237500D01*
G01*
X151827000Y-73798500D01*
G75*
G02*
X152064500Y-73561000I237500J0D01*
G01*
X152564500Y-73561000D01*
G75*
G02*
X152802000Y-73798500I0J-237500D01*
G01*
G37*
G36*
G01*
X154627000Y-73798500D02*
X154627000Y-74273500D01*
G75*
G02*
X154389500Y-74511000I-237500J0D01*
G01*
X153889500Y-74511000D01*
G75*
G02*
X153652000Y-74273500I0J237500D01*
G01*
X153652000Y-73798500D01*
G75*
G02*
X153889500Y-73561000I237500J0D01*
G01*
X154389500Y-73561000D01*
G75*
G02*
X154627000Y-73798500I0J-237500D01*
G01*
G37*
G36*
G01*
X157081000Y-77707500D02*
X157081000Y-77232500D01*
G75*
G02*
X157318500Y-76995000I237500J0D01*
G01*
X157818500Y-76995000D01*
G75*
G02*
X158056000Y-77232500I0J-237500D01*
G01*
X158056000Y-77707500D01*
G75*
G02*
X157818500Y-77945000I-237500J0D01*
G01*
X157318500Y-77945000D01*
G75*
G02*
X157081000Y-77707500I0J237500D01*
G01*
G37*
G36*
G01*
X155256000Y-77707500D02*
X155256000Y-77232500D01*
G75*
G02*
X155493500Y-76995000I237500J0D01*
G01*
X155993500Y-76995000D01*
G75*
G02*
X156231000Y-77232500I0J-237500D01*
G01*
X156231000Y-77707500D01*
G75*
G02*
X155993500Y-77945000I-237500J0D01*
G01*
X155493500Y-77945000D01*
G75*
G02*
X155256000Y-77707500I0J237500D01*
G01*
G37*
G36*
G01*
X178526000Y-82623500D02*
X178526000Y-83098500D01*
G75*
G02*
X178288500Y-83336000I-237500J0D01*
G01*
X177713500Y-83336000D01*
G75*
G02*
X177476000Y-83098500I0J237500D01*
G01*
X177476000Y-82623500D01*
G75*
G02*
X177713500Y-82386000I237500J0D01*
G01*
X178288500Y-82386000D01*
G75*
G02*
X178526000Y-82623500I0J-237500D01*
G01*
G37*
G36*
G01*
X180276000Y-82623500D02*
X180276000Y-83098500D01*
G75*
G02*
X180038500Y-83336000I-237500J0D01*
G01*
X179463500Y-83336000D01*
G75*
G02*
X179226000Y-83098500I0J237500D01*
G01*
X179226000Y-82623500D01*
G75*
G02*
X179463500Y-82386000I237500J0D01*
G01*
X180038500Y-82386000D01*
G75*
G02*
X180276000Y-82623500I0J-237500D01*
G01*
G37*
G36*
G01*
X178367000Y-72650500D02*
X178367000Y-73125500D01*
G75*
G02*
X178129500Y-73363000I-237500J0D01*
G01*
X177529500Y-73363000D01*
G75*
G02*
X177292000Y-73125500I0J237500D01*
G01*
X177292000Y-72650500D01*
G75*
G02*
X177529500Y-72413000I237500J0D01*
G01*
X178129500Y-72413000D01*
G75*
G02*
X178367000Y-72650500I0J-237500D01*
G01*
G37*
G36*
G01*
X180092000Y-72650500D02*
X180092000Y-73125500D01*
G75*
G02*
X179854500Y-73363000I-237500J0D01*
G01*
X179254500Y-73363000D01*
G75*
G02*
X179017000Y-73125500I0J237500D01*
G01*
X179017000Y-72650500D01*
G75*
G02*
X179254500Y-72413000I237500J0D01*
G01*
X179854500Y-72413000D01*
G75*
G02*
X180092000Y-72650500I0J-237500D01*
G01*
G37*
G36*
G01*
X182050000Y-72523500D02*
X182050000Y-72998500D01*
G75*
G02*
X181812500Y-73236000I-237500J0D01*
G01*
X181212500Y-73236000D01*
G75*
G02*
X180975000Y-72998500I0J237500D01*
G01*
X180975000Y-72523500D01*
G75*
G02*
X181212500Y-72286000I237500J0D01*
G01*
X181812500Y-72286000D01*
G75*
G02*
X182050000Y-72523500I0J-237500D01*
G01*
G37*
G36*
G01*
X183775000Y-72523500D02*
X183775000Y-72998500D01*
G75*
G02*
X183537500Y-73236000I-237500J0D01*
G01*
X182937500Y-73236000D01*
G75*
G02*
X182700000Y-72998500I0J237500D01*
G01*
X182700000Y-72523500D01*
G75*
G02*
X182937500Y-72286000I237500J0D01*
G01*
X183537500Y-72286000D01*
G75*
G02*
X183775000Y-72523500I0J-237500D01*
G01*
G37*
G36*
G01*
X191448000Y-80651500D02*
X191448000Y-81126500D01*
G75*
G02*
X191210500Y-81364000I-237500J0D01*
G01*
X190610500Y-81364000D01*
G75*
G02*
X190373000Y-81126500I0J237500D01*
G01*
X190373000Y-80651500D01*
G75*
G02*
X190610500Y-80414000I237500J0D01*
G01*
X191210500Y-80414000D01*
G75*
G02*
X191448000Y-80651500I0J-237500D01*
G01*
G37*
G36*
G01*
X193173000Y-80651500D02*
X193173000Y-81126500D01*
G75*
G02*
X192935500Y-81364000I-237500J0D01*
G01*
X192335500Y-81364000D01*
G75*
G02*
X192098000Y-81126500I0J237500D01*
G01*
X192098000Y-80651500D01*
G75*
G02*
X192335500Y-80414000I237500J0D01*
G01*
X192935500Y-80414000D01*
G75*
G02*
X193173000Y-80651500I0J-237500D01*
G01*
G37*
G36*
G01*
X191448000Y-73920500D02*
X191448000Y-74395500D01*
G75*
G02*
X191210500Y-74633000I-237500J0D01*
G01*
X190610500Y-74633000D01*
G75*
G02*
X190373000Y-74395500I0J237500D01*
G01*
X190373000Y-73920500D01*
G75*
G02*
X190610500Y-73683000I237500J0D01*
G01*
X191210500Y-73683000D01*
G75*
G02*
X191448000Y-73920500I0J-237500D01*
G01*
G37*
G36*
G01*
X193173000Y-73920500D02*
X193173000Y-74395500D01*
G75*
G02*
X192935500Y-74633000I-237500J0D01*
G01*
X192335500Y-74633000D01*
G75*
G02*
X192098000Y-74395500I0J237500D01*
G01*
X192098000Y-73920500D01*
G75*
G02*
X192335500Y-73683000I237500J0D01*
G01*
X192935500Y-73683000D01*
G75*
G02*
X193173000Y-73920500I0J-237500D01*
G01*
G37*
G36*
G01*
X187777000Y-72754500D02*
X187777000Y-72279500D01*
G75*
G02*
X188014500Y-72042000I237500J0D01*
G01*
X188614500Y-72042000D01*
G75*
G02*
X188852000Y-72279500I0J-237500D01*
G01*
X188852000Y-72754500D01*
G75*
G02*
X188614500Y-72992000I-237500J0D01*
G01*
X188014500Y-72992000D01*
G75*
G02*
X187777000Y-72754500I0J237500D01*
G01*
G37*
G36*
G01*
X186052000Y-72754500D02*
X186052000Y-72279500D01*
G75*
G02*
X186289500Y-72042000I237500J0D01*
G01*
X186889500Y-72042000D01*
G75*
G02*
X187127000Y-72279500I0J-237500D01*
G01*
X187127000Y-72754500D01*
G75*
G02*
X186889500Y-72992000I-237500J0D01*
G01*
X186289500Y-72992000D01*
G75*
G02*
X186052000Y-72754500I0J237500D01*
G01*
G37*
G36*
G01*
X187777000Y-79358500D02*
X187777000Y-78883500D01*
G75*
G02*
X188014500Y-78646000I237500J0D01*
G01*
X188614500Y-78646000D01*
G75*
G02*
X188852000Y-78883500I0J-237500D01*
G01*
X188852000Y-79358500D01*
G75*
G02*
X188614500Y-79596000I-237500J0D01*
G01*
X188014500Y-79596000D01*
G75*
G02*
X187777000Y-79358500I0J237500D01*
G01*
G37*
G36*
G01*
X186052000Y-79358500D02*
X186052000Y-78883500D01*
G75*
G02*
X186289500Y-78646000I237500J0D01*
G01*
X186889500Y-78646000D01*
G75*
G02*
X187127000Y-78883500I0J-237500D01*
G01*
X187127000Y-79358500D01*
G75*
G02*
X186889500Y-79596000I-237500J0D01*
G01*
X186289500Y-79596000D01*
G75*
G02*
X186052000Y-79358500I0J237500D01*
G01*
G37*
G36*
G01*
X176482888Y-72826012D02*
X176147012Y-73161888D01*
G75*
G02*
X175811136Y-73161888I-167938J167938D01*
G01*
X175386872Y-72737624D01*
G75*
G02*
X175386872Y-72401748I167938J167938D01*
G01*
X175722748Y-72065872D01*
G75*
G02*
X176058624Y-72065872I167938J-167938D01*
G01*
X176482888Y-72490136D01*
G75*
G02*
X176482888Y-72826012I-167938J-167938D01*
G01*
G37*
G36*
G01*
X175263128Y-71606252D02*
X174927252Y-71942128D01*
G75*
G02*
X174591376Y-71942128I-167938J167938D01*
G01*
X174167112Y-71517864D01*
G75*
G02*
X174167112Y-71181988I167938J167938D01*
G01*
X174502988Y-70846112D01*
G75*
G02*
X174838864Y-70846112I167938J-167938D01*
G01*
X175263128Y-71270376D01*
G75*
G02*
X175263128Y-71606252I-167938J-167938D01*
G01*
G37*
G36*
G01*
X159379000Y-84593500D02*
X159379000Y-85068500D01*
G75*
G02*
X159141500Y-85306000I-237500J0D01*
G01*
X158541500Y-85306000D01*
G75*
G02*
X158304000Y-85068500I0J237500D01*
G01*
X158304000Y-84593500D01*
G75*
G02*
X158541500Y-84356000I237500J0D01*
G01*
X159141500Y-84356000D01*
G75*
G02*
X159379000Y-84593500I0J-237500D01*
G01*
G37*
G36*
G01*
X161104000Y-84593500D02*
X161104000Y-85068500D01*
G75*
G02*
X160866500Y-85306000I-237500J0D01*
G01*
X160266500Y-85306000D01*
G75*
G02*
X160029000Y-85068500I0J237500D01*
G01*
X160029000Y-84593500D01*
G75*
G02*
X160266500Y-84356000I237500J0D01*
G01*
X160866500Y-84356000D01*
G75*
G02*
X161104000Y-84593500I0J-237500D01*
G01*
G37*
G36*
G01*
X151051500Y-58291000D02*
X150576500Y-58291000D01*
G75*
G02*
X150339000Y-58053500I0J237500D01*
G01*
X150339000Y-57453500D01*
G75*
G02*
X150576500Y-57216000I237500J0D01*
G01*
X151051500Y-57216000D01*
G75*
G02*
X151289000Y-57453500I0J-237500D01*
G01*
X151289000Y-58053500D01*
G75*
G02*
X151051500Y-58291000I-237500J0D01*
G01*
G37*
G36*
G01*
X151051500Y-56566000D02*
X150576500Y-56566000D01*
G75*
G02*
X150339000Y-56328500I0J237500D01*
G01*
X150339000Y-55728500D01*
G75*
G02*
X150576500Y-55491000I237500J0D01*
G01*
X151051500Y-55491000D01*
G75*
G02*
X151289000Y-55728500I0J-237500D01*
G01*
X151289000Y-56328500D01*
G75*
G02*
X151051500Y-56566000I-237500J0D01*
G01*
G37*
G36*
G01*
X141653500Y-58672000D02*
X141178500Y-58672000D01*
G75*
G02*
X140941000Y-58434500I0J237500D01*
G01*
X140941000Y-57834500D01*
G75*
G02*
X141178500Y-57597000I237500J0D01*
G01*
X141653500Y-57597000D01*
G75*
G02*
X141891000Y-57834500I0J-237500D01*
G01*
X141891000Y-58434500D01*
G75*
G02*
X141653500Y-58672000I-237500J0D01*
G01*
G37*
G36*
G01*
X141653500Y-56947000D02*
X141178500Y-56947000D01*
G75*
G02*
X140941000Y-56709500I0J237500D01*
G01*
X140941000Y-56109500D01*
G75*
G02*
X141178500Y-55872000I237500J0D01*
G01*
X141653500Y-55872000D01*
G75*
G02*
X141891000Y-56109500I0J-237500D01*
G01*
X141891000Y-56709500D01*
G75*
G02*
X141653500Y-56947000I-237500J0D01*
G01*
G37*
G36*
G01*
X164914000Y-57161500D02*
X164914000Y-57636500D01*
G75*
G02*
X164676500Y-57874000I-237500J0D01*
G01*
X164076500Y-57874000D01*
G75*
G02*
X163839000Y-57636500I0J237500D01*
G01*
X163839000Y-57161500D01*
G75*
G02*
X164076500Y-56924000I237500J0D01*
G01*
X164676500Y-56924000D01*
G75*
G02*
X164914000Y-57161500I0J-237500D01*
G01*
G37*
G36*
G01*
X163189000Y-57161500D02*
X163189000Y-57636500D01*
G75*
G02*
X162951500Y-57874000I-237500J0D01*
G01*
X162351500Y-57874000D01*
G75*
G02*
X162114000Y-57636500I0J237500D01*
G01*
X162114000Y-57161500D01*
G75*
G02*
X162351500Y-56924000I237500J0D01*
G01*
X162951500Y-56924000D01*
G75*
G02*
X163189000Y-57161500I0J-237500D01*
G01*
G37*
G36*
G01*
X186738500Y-68705000D02*
X186263500Y-68705000D01*
G75*
G02*
X186026000Y-68467500I0J237500D01*
G01*
X186026000Y-67867500D01*
G75*
G02*
X186263500Y-67630000I237500J0D01*
G01*
X186738500Y-67630000D01*
G75*
G02*
X186976000Y-67867500I0J-237500D01*
G01*
X186976000Y-68467500D01*
G75*
G02*
X186738500Y-68705000I-237500J0D01*
G01*
G37*
G36*
G01*
X186738500Y-66980000D02*
X186263500Y-66980000D01*
G75*
G02*
X186026000Y-66742500I0J237500D01*
G01*
X186026000Y-66142500D01*
G75*
G02*
X186263500Y-65905000I237500J0D01*
G01*
X186738500Y-65905000D01*
G75*
G02*
X186976000Y-66142500I0J-237500D01*
G01*
X186976000Y-66742500D01*
G75*
G02*
X186738500Y-66980000I-237500J0D01*
G01*
G37*
G36*
G01*
X177460500Y-56780500D02*
X177460500Y-57255500D01*
G75*
G02*
X177223000Y-57493000I-237500J0D01*
G01*
X176623000Y-57493000D01*
G75*
G02*
X176385500Y-57255500I0J237500D01*
G01*
X176385500Y-56780500D01*
G75*
G02*
X176623000Y-56543000I237500J0D01*
G01*
X177223000Y-56543000D01*
G75*
G02*
X177460500Y-56780500I0J-237500D01*
G01*
G37*
G36*
G01*
X175735500Y-56780500D02*
X175735500Y-57255500D01*
G75*
G02*
X175498000Y-57493000I-237500J0D01*
G01*
X174898000Y-57493000D01*
G75*
G02*
X174660500Y-57255500I0J237500D01*
G01*
X174660500Y-56780500D01*
G75*
G02*
X174898000Y-56543000I237500J0D01*
G01*
X175498000Y-56543000D01*
G75*
G02*
X175735500Y-56780500I0J-237500D01*
G01*
G37*
G36*
G01*
X191076000Y-60844500D02*
X191076000Y-61319500D01*
G75*
G02*
X190838500Y-61557000I-237500J0D01*
G01*
X190238500Y-61557000D01*
G75*
G02*
X190001000Y-61319500I0J237500D01*
G01*
X190001000Y-60844500D01*
G75*
G02*
X190238500Y-60607000I237500J0D01*
G01*
X190838500Y-60607000D01*
G75*
G02*
X191076000Y-60844500I0J-237500D01*
G01*
G37*
G36*
G01*
X189351000Y-60844500D02*
X189351000Y-61319500D01*
G75*
G02*
X189113500Y-61557000I-237500J0D01*
G01*
X188513500Y-61557000D01*
G75*
G02*
X188276000Y-61319500I0J237500D01*
G01*
X188276000Y-60844500D01*
G75*
G02*
X188513500Y-60607000I237500J0D01*
G01*
X189113500Y-60607000D01*
G75*
G02*
X189351000Y-60844500I0J-237500D01*
G01*
G37*
G36*
G01*
X145536000Y-84339500D02*
X145536000Y-84814500D01*
G75*
G02*
X145298500Y-85052000I-237500J0D01*
G01*
X144698500Y-85052000D01*
G75*
G02*
X144461000Y-84814500I0J237500D01*
G01*
X144461000Y-84339500D01*
G75*
G02*
X144698500Y-84102000I237500J0D01*
G01*
X145298500Y-84102000D01*
G75*
G02*
X145536000Y-84339500I0J-237500D01*
G01*
G37*
G36*
G01*
X147261000Y-84339500D02*
X147261000Y-84814500D01*
G75*
G02*
X147023500Y-85052000I-237500J0D01*
G01*
X146423500Y-85052000D01*
G75*
G02*
X146186000Y-84814500I0J237500D01*
G01*
X146186000Y-84339500D01*
G75*
G02*
X146423500Y-84102000I237500J0D01*
G01*
X147023500Y-84102000D01*
G75*
G02*
X147261000Y-84339500I0J-237500D01*
G01*
G37*
G36*
G01*
X157250000Y-75542000D02*
X157250000Y-75842000D01*
G75*
G02*
X157100000Y-75992000I-150000J0D01*
G01*
X155450000Y-75992000D01*
G75*
G02*
X155300000Y-75842000I0J150000D01*
G01*
X155300000Y-75542000D01*
G75*
G02*
X155450000Y-75392000I150000J0D01*
G01*
X157100000Y-75392000D01*
G75*
G02*
X157250000Y-75542000I0J-150000D01*
G01*
G37*
G36*
G01*
X157250000Y-74272000D02*
X157250000Y-74572000D01*
G75*
G02*
X157100000Y-74722000I-150000J0D01*
G01*
X155450000Y-74722000D01*
G75*
G02*
X155300000Y-74572000I0J150000D01*
G01*
X155300000Y-74272000D01*
G75*
G02*
X155450000Y-74122000I150000J0D01*
G01*
X157100000Y-74122000D01*
G75*
G02*
X157250000Y-74272000I0J-150000D01*
G01*
G37*
G36*
G01*
X157250000Y-73002000D02*
X157250000Y-73302000D01*
G75*
G02*
X157100000Y-73452000I-150000J0D01*
G01*
X155450000Y-73452000D01*
G75*
G02*
X155300000Y-73302000I0J150000D01*
G01*
X155300000Y-73002000D01*
G75*
G02*
X155450000Y-72852000I150000J0D01*
G01*
X157100000Y-72852000D01*
G75*
G02*
X157250000Y-73002000I0J-150000D01*
G01*
G37*
G36*
G01*
X157250000Y-71732000D02*
X157250000Y-72032000D01*
G75*
G02*
X157100000Y-72182000I-150000J0D01*
G01*
X155450000Y-72182000D01*
G75*
G02*
X155300000Y-72032000I0J150000D01*
G01*
X155300000Y-71732000D01*
G75*
G02*
X155450000Y-71582000I150000J0D01*
G01*
X157100000Y-71582000D01*
G75*
G02*
X157250000Y-71732000I0J-150000D01*
G01*
G37*
G36*
G01*
X162200000Y-71732000D02*
X162200000Y-72032000D01*
G75*
G02*
X162050000Y-72182000I-150000J0D01*
G01*
X160400000Y-72182000D01*
G75*
G02*
X160250000Y-72032000I0J150000D01*
G01*
X160250000Y-71732000D01*
G75*
G02*
X160400000Y-71582000I150000J0D01*
G01*
X162050000Y-71582000D01*
G75*
G02*
X162200000Y-71732000I0J-150000D01*
G01*
G37*
G36*
G01*
X162200000Y-73002000D02*
X162200000Y-73302000D01*
G75*
G02*
X162050000Y-73452000I-150000J0D01*
G01*
X160400000Y-73452000D01*
G75*
G02*
X160250000Y-73302000I0J150000D01*
G01*
X160250000Y-73002000D01*
G75*
G02*
X160400000Y-72852000I150000J0D01*
G01*
X162050000Y-72852000D01*
G75*
G02*
X162200000Y-73002000I0J-150000D01*
G01*
G37*
G36*
G01*
X162200000Y-74272000D02*
X162200000Y-74572000D01*
G75*
G02*
X162050000Y-74722000I-150000J0D01*
G01*
X160400000Y-74722000D01*
G75*
G02*
X160250000Y-74572000I0J150000D01*
G01*
X160250000Y-74272000D01*
G75*
G02*
X160400000Y-74122000I150000J0D01*
G01*
X162050000Y-74122000D01*
G75*
G02*
X162200000Y-74272000I0J-150000D01*
G01*
G37*
G36*
G01*
X162200000Y-75542000D02*
X162200000Y-75842000D01*
G75*
G02*
X162050000Y-75992000I-150000J0D01*
G01*
X160400000Y-75992000D01*
G75*
G02*
X160250000Y-75842000I0J150000D01*
G01*
X160250000Y-75542000D01*
G75*
G02*
X160400000Y-75392000I150000J0D01*
G01*
X162050000Y-75392000D01*
G75*
G02*
X162200000Y-75542000I0J-150000D01*
G01*
G37*
D14*
X153227000Y-68980000D03*
X154177000Y-71980000D03*
X152277000Y-71980000D03*
M02*
