G04 #@! TF.GenerationSoftware,KiCad,Pcbnew,5.1.9*
G04 #@! TF.CreationDate,2021-04-12T05:07:17-03:00*
G04 #@! TF.ProjectId,Controle,436f6e74-726f-46c6-952e-6b696361645f,rev?*
G04 #@! TF.SameCoordinates,Original*
G04 #@! TF.FileFunction,Legend,Bot*
G04 #@! TF.FilePolarity,Positive*
%FSLAX46Y46*%
G04 Gerber Fmt 4.6, Leading zero omitted, Abs format (unit mm)*
G04 Created by KiCad (PCBNEW 5.1.9) date 2021-04-12 05:07:17*
%MOMM*%
%LPD*%
G01*
G04 APERTURE LIST*
%ADD10C,0.150000*%
%ADD11C,0.120000*%
%ADD12C,3.200000*%
%ADD13R,2.540000X0.750000*%
%ADD14C,3.650000*%
%ADD15R,1.500000X1.500000*%
%ADD16C,1.500000*%
%ADD17C,2.500000*%
G04 APERTURE END LIST*
D10*
X181260642Y-64459500D02*
X181343785Y-64417928D01*
X181468500Y-64417928D01*
X181593214Y-64459500D01*
X181676357Y-64542642D01*
X181717928Y-64625785D01*
X181759500Y-64792071D01*
X181759500Y-64916785D01*
X181717928Y-65083071D01*
X181676357Y-65166214D01*
X181593214Y-65249357D01*
X181468500Y-65290928D01*
X181385357Y-65290928D01*
X181260642Y-65249357D01*
X181219071Y-65207785D01*
X181219071Y-64916785D01*
X181385357Y-64916785D01*
X180844928Y-65290928D02*
X180844928Y-64417928D01*
X180346071Y-65290928D01*
X180346071Y-64417928D01*
X179930357Y-65290928D02*
X179930357Y-64417928D01*
X179722500Y-64417928D01*
X179597785Y-64459500D01*
X179514642Y-64542642D01*
X179473071Y-64625785D01*
X179431500Y-64792071D01*
X179431500Y-64916785D01*
X179473071Y-65083071D01*
X179514642Y-65166214D01*
X179597785Y-65249357D01*
X179722500Y-65290928D01*
X179930357Y-65290928D01*
X181260642Y-65919000D02*
X181343785Y-65877428D01*
X181468500Y-65877428D01*
X181593214Y-65919000D01*
X181676357Y-66002142D01*
X181717928Y-66085285D01*
X181759500Y-66251571D01*
X181759500Y-66376285D01*
X181717928Y-66542571D01*
X181676357Y-66625714D01*
X181593214Y-66708857D01*
X181468500Y-66750428D01*
X181385357Y-66750428D01*
X181260642Y-66708857D01*
X181219071Y-66667285D01*
X181219071Y-66376285D01*
X181385357Y-66376285D01*
X180844928Y-66750428D02*
X180844928Y-65877428D01*
X180346071Y-66750428D01*
X180346071Y-65877428D01*
X179930357Y-66750428D02*
X179930357Y-65877428D01*
X179722500Y-65877428D01*
X179597785Y-65919000D01*
X179514642Y-66002142D01*
X179473071Y-66085285D01*
X179431500Y-66251571D01*
X179431500Y-66376285D01*
X179473071Y-66542571D01*
X179514642Y-66625714D01*
X179597785Y-66708857D01*
X179722500Y-66750428D01*
X179930357Y-66750428D01*
X181260642Y-67378500D02*
X181343785Y-67336928D01*
X181468500Y-67336928D01*
X181593214Y-67378500D01*
X181676357Y-67461642D01*
X181717928Y-67544785D01*
X181759500Y-67711071D01*
X181759500Y-67835785D01*
X181717928Y-68002071D01*
X181676357Y-68085214D01*
X181593214Y-68168357D01*
X181468500Y-68209928D01*
X181385357Y-68209928D01*
X181260642Y-68168357D01*
X181219071Y-68126785D01*
X181219071Y-67835785D01*
X181385357Y-67835785D01*
X180844928Y-68209928D02*
X180844928Y-67336928D01*
X180346071Y-68209928D01*
X180346071Y-67336928D01*
X179930357Y-68209928D02*
X179930357Y-67336928D01*
X179722500Y-67336928D01*
X179597785Y-67378500D01*
X179514642Y-67461642D01*
X179473071Y-67544785D01*
X179431500Y-67711071D01*
X179431500Y-67835785D01*
X179473071Y-68002071D01*
X179514642Y-68085214D01*
X179597785Y-68168357D01*
X179722500Y-68209928D01*
X179930357Y-68209928D01*
X181260642Y-68838000D02*
X181343785Y-68796428D01*
X181468500Y-68796428D01*
X181593214Y-68838000D01*
X181676357Y-68921142D01*
X181717928Y-69004285D01*
X181759500Y-69170571D01*
X181759500Y-69295285D01*
X181717928Y-69461571D01*
X181676357Y-69544714D01*
X181593214Y-69627857D01*
X181468500Y-69669428D01*
X181385357Y-69669428D01*
X181260642Y-69627857D01*
X181219071Y-69586285D01*
X181219071Y-69295285D01*
X181385357Y-69295285D01*
X180844928Y-69669428D02*
X180844928Y-68796428D01*
X180346071Y-69669428D01*
X180346071Y-68796428D01*
X179930357Y-69669428D02*
X179930357Y-68796428D01*
X179722500Y-68796428D01*
X179597785Y-68838000D01*
X179514642Y-68921142D01*
X179473071Y-69004285D01*
X179431500Y-69170571D01*
X179431500Y-69295285D01*
X179473071Y-69461571D01*
X179514642Y-69544714D01*
X179597785Y-69627857D01*
X179722500Y-69669428D01*
X179930357Y-69669428D01*
X183069000Y-71087357D02*
X182944285Y-71128928D01*
X182736428Y-71128928D01*
X182653285Y-71087357D01*
X182611714Y-71045785D01*
X182570142Y-70962642D01*
X182570142Y-70879500D01*
X182611714Y-70796357D01*
X182653285Y-70754785D01*
X182736428Y-70713214D01*
X182902714Y-70671642D01*
X182985857Y-70630071D01*
X183027428Y-70588500D01*
X183069000Y-70505357D01*
X183069000Y-70422214D01*
X183027428Y-70339071D01*
X182985857Y-70297500D01*
X182902714Y-70255928D01*
X182694857Y-70255928D01*
X182570142Y-70297500D01*
X181780285Y-71128928D02*
X182196000Y-71128928D01*
X182196000Y-70255928D01*
X181032000Y-71128928D02*
X181530857Y-71128928D01*
X181281428Y-71128928D02*
X181281428Y-70255928D01*
X181364571Y-70380642D01*
X181447714Y-70463785D01*
X181530857Y-70505357D01*
X180865714Y-71212071D02*
X180200571Y-71212071D01*
X180034285Y-71087357D02*
X179951142Y-71128928D01*
X179784857Y-71128928D01*
X179701714Y-71087357D01*
X179660142Y-71004214D01*
X179660142Y-70962642D01*
X179701714Y-70879500D01*
X179784857Y-70837928D01*
X179909571Y-70837928D01*
X179992714Y-70796357D01*
X180034285Y-70713214D01*
X180034285Y-70671642D01*
X179992714Y-70588500D01*
X179909571Y-70546928D01*
X179784857Y-70546928D01*
X179701714Y-70588500D01*
X178953428Y-71087357D02*
X179036571Y-71128928D01*
X179202857Y-71128928D01*
X179286000Y-71087357D01*
X179327571Y-71004214D01*
X179327571Y-70671642D01*
X179286000Y-70588500D01*
X179202857Y-70546928D01*
X179036571Y-70546928D01*
X178953428Y-70588500D01*
X178911857Y-70671642D01*
X178911857Y-70754785D01*
X179327571Y-70837928D01*
X178537714Y-70546928D02*
X178537714Y-71128928D01*
X178537714Y-70630071D02*
X178496142Y-70588500D01*
X178413000Y-70546928D01*
X178288285Y-70546928D01*
X178205142Y-70588500D01*
X178163571Y-70671642D01*
X178163571Y-71128928D01*
X183069000Y-72546857D02*
X182944285Y-72588428D01*
X182736428Y-72588428D01*
X182653285Y-72546857D01*
X182611714Y-72505285D01*
X182570142Y-72422142D01*
X182570142Y-72339000D01*
X182611714Y-72255857D01*
X182653285Y-72214285D01*
X182736428Y-72172714D01*
X182902714Y-72131142D01*
X182985857Y-72089571D01*
X183027428Y-72048000D01*
X183069000Y-71964857D01*
X183069000Y-71881714D01*
X183027428Y-71798571D01*
X182985857Y-71757000D01*
X182902714Y-71715428D01*
X182694857Y-71715428D01*
X182570142Y-71757000D01*
X181780285Y-72588428D02*
X182196000Y-72588428D01*
X182196000Y-71715428D01*
X181530857Y-71798571D02*
X181489285Y-71757000D01*
X181406142Y-71715428D01*
X181198285Y-71715428D01*
X181115142Y-71757000D01*
X181073571Y-71798571D01*
X181032000Y-71881714D01*
X181032000Y-71964857D01*
X181073571Y-72089571D01*
X181572428Y-72588428D01*
X181032000Y-72588428D01*
X180865714Y-72671571D02*
X180200571Y-72671571D01*
X180034285Y-72546857D02*
X179951142Y-72588428D01*
X179784857Y-72588428D01*
X179701714Y-72546857D01*
X179660142Y-72463714D01*
X179660142Y-72422142D01*
X179701714Y-72339000D01*
X179784857Y-72297428D01*
X179909571Y-72297428D01*
X179992714Y-72255857D01*
X180034285Y-72172714D01*
X180034285Y-72131142D01*
X179992714Y-72048000D01*
X179909571Y-72006428D01*
X179784857Y-72006428D01*
X179701714Y-72048000D01*
X178953428Y-72546857D02*
X179036571Y-72588428D01*
X179202857Y-72588428D01*
X179286000Y-72546857D01*
X179327571Y-72463714D01*
X179327571Y-72131142D01*
X179286000Y-72048000D01*
X179202857Y-72006428D01*
X179036571Y-72006428D01*
X178953428Y-72048000D01*
X178911857Y-72131142D01*
X178911857Y-72214285D01*
X179327571Y-72297428D01*
X178537714Y-72006428D02*
X178537714Y-72588428D01*
X178537714Y-72089571D02*
X178496142Y-72048000D01*
X178413000Y-72006428D01*
X178288285Y-72006428D01*
X178205142Y-72048000D01*
X178163571Y-72131142D01*
X178163571Y-72588428D01*
X182944285Y-73174928D02*
X182653285Y-74047928D01*
X182362285Y-73174928D01*
X182071285Y-74047928D02*
X182071285Y-73465928D01*
X182071285Y-73174928D02*
X182112857Y-73216500D01*
X182071285Y-73258071D01*
X182029714Y-73216500D01*
X182071285Y-73174928D01*
X182071285Y-73258071D01*
X181655571Y-73465928D02*
X181655571Y-74047928D01*
X181655571Y-73549071D02*
X181614000Y-73507500D01*
X181530857Y-73465928D01*
X181406142Y-73465928D01*
X181323000Y-73507500D01*
X181281428Y-73590642D01*
X181281428Y-74047928D01*
X181073571Y-74131071D02*
X180408428Y-74131071D01*
X180242142Y-74006357D02*
X180159000Y-74047928D01*
X179992714Y-74047928D01*
X179909571Y-74006357D01*
X179868000Y-73923214D01*
X179868000Y-73881642D01*
X179909571Y-73798500D01*
X179992714Y-73756928D01*
X180117428Y-73756928D01*
X180200571Y-73715357D01*
X180242142Y-73632214D01*
X180242142Y-73590642D01*
X180200571Y-73507500D01*
X180117428Y-73465928D01*
X179992714Y-73465928D01*
X179909571Y-73507500D01*
X179161285Y-74006357D02*
X179244428Y-74047928D01*
X179410714Y-74047928D01*
X179493857Y-74006357D01*
X179535428Y-73923214D01*
X179535428Y-73590642D01*
X179493857Y-73507500D01*
X179410714Y-73465928D01*
X179244428Y-73465928D01*
X179161285Y-73507500D01*
X179119714Y-73590642D01*
X179119714Y-73673785D01*
X179535428Y-73756928D01*
X178745571Y-73465928D02*
X178745571Y-74047928D01*
X178745571Y-73549071D02*
X178704000Y-73507500D01*
X178620857Y-73465928D01*
X178496142Y-73465928D01*
X178413000Y-73507500D01*
X178371428Y-73590642D01*
X178371428Y-74047928D01*
X182611714Y-74634428D02*
X182112857Y-74634428D01*
X182362285Y-75507428D02*
X182362285Y-74634428D01*
X181489285Y-75465857D02*
X181572428Y-75507428D01*
X181738714Y-75507428D01*
X181821857Y-75465857D01*
X181863428Y-75382714D01*
X181863428Y-75050142D01*
X181821857Y-74967000D01*
X181738714Y-74925428D01*
X181572428Y-74925428D01*
X181489285Y-74967000D01*
X181447714Y-75050142D01*
X181447714Y-75133285D01*
X181863428Y-75216428D01*
X181073571Y-75507428D02*
X181073571Y-74925428D01*
X181073571Y-75008571D02*
X181032000Y-74967000D01*
X180948857Y-74925428D01*
X180824142Y-74925428D01*
X180741000Y-74967000D01*
X180699428Y-75050142D01*
X180699428Y-75507428D01*
X180699428Y-75050142D02*
X180657857Y-74967000D01*
X180574714Y-74925428D01*
X180450000Y-74925428D01*
X180366857Y-74967000D01*
X180325285Y-75050142D01*
X180325285Y-75507428D01*
X179909571Y-74925428D02*
X179909571Y-75798428D01*
X179909571Y-74967000D02*
X179826428Y-74925428D01*
X179660142Y-74925428D01*
X179577000Y-74967000D01*
X179535428Y-75008571D01*
X179493857Y-75091714D01*
X179493857Y-75341142D01*
X179535428Y-75424285D01*
X179577000Y-75465857D01*
X179660142Y-75507428D01*
X179826428Y-75507428D01*
X179909571Y-75465857D01*
X178662428Y-75507428D02*
X179161285Y-75507428D01*
X178911857Y-75507428D02*
X178911857Y-74634428D01*
X178995000Y-74759142D01*
X179078142Y-74842285D01*
X179161285Y-74883857D01*
X181260642Y-76135500D02*
X181343785Y-76093928D01*
X181468500Y-76093928D01*
X181593214Y-76135500D01*
X181676357Y-76218642D01*
X181717928Y-76301785D01*
X181759500Y-76468071D01*
X181759500Y-76592785D01*
X181717928Y-76759071D01*
X181676357Y-76842214D01*
X181593214Y-76925357D01*
X181468500Y-76966928D01*
X181385357Y-76966928D01*
X181260642Y-76925357D01*
X181219071Y-76883785D01*
X181219071Y-76592785D01*
X181385357Y-76592785D01*
X180844928Y-76966928D02*
X180844928Y-76093928D01*
X180346071Y-76966928D01*
X180346071Y-76093928D01*
X179930357Y-76966928D02*
X179930357Y-76093928D01*
X179722500Y-76093928D01*
X179597785Y-76135500D01*
X179514642Y-76218642D01*
X179473071Y-76301785D01*
X179431500Y-76468071D01*
X179431500Y-76592785D01*
X179473071Y-76759071D01*
X179514642Y-76842214D01*
X179597785Y-76925357D01*
X179722500Y-76966928D01*
X179930357Y-76966928D01*
X169497142Y-65085357D02*
X168832000Y-65085357D01*
X169164571Y-65417928D02*
X169164571Y-64752785D01*
X167959000Y-65417928D02*
X168457857Y-65417928D01*
X168208428Y-65417928D02*
X168208428Y-64544928D01*
X168291571Y-64669642D01*
X168374714Y-64752785D01*
X168457857Y-64794357D01*
X167169142Y-64544928D02*
X167584857Y-64544928D01*
X167626428Y-64960642D01*
X167584857Y-64919071D01*
X167501714Y-64877500D01*
X167293857Y-64877500D01*
X167210714Y-64919071D01*
X167169142Y-64960642D01*
X167127571Y-65043785D01*
X167127571Y-65251642D01*
X167169142Y-65334785D01*
X167210714Y-65376357D01*
X167293857Y-65417928D01*
X167501714Y-65417928D01*
X167584857Y-65376357D01*
X167626428Y-65334785D01*
X166878142Y-64544928D02*
X166587142Y-65417928D01*
X166296142Y-64544928D01*
X169497142Y-66544857D02*
X168832000Y-66544857D01*
X169164571Y-66877428D02*
X169164571Y-66212285D01*
X167959000Y-66877428D02*
X168457857Y-66877428D01*
X168208428Y-66877428D02*
X168208428Y-66004428D01*
X168291571Y-66129142D01*
X168374714Y-66212285D01*
X168457857Y-66253857D01*
X167169142Y-66004428D02*
X167584857Y-66004428D01*
X167626428Y-66420142D01*
X167584857Y-66378571D01*
X167501714Y-66337000D01*
X167293857Y-66337000D01*
X167210714Y-66378571D01*
X167169142Y-66420142D01*
X167127571Y-66503285D01*
X167127571Y-66711142D01*
X167169142Y-66794285D01*
X167210714Y-66835857D01*
X167293857Y-66877428D01*
X167501714Y-66877428D01*
X167584857Y-66835857D01*
X167626428Y-66794285D01*
X166878142Y-66004428D02*
X166587142Y-66877428D01*
X166296142Y-66004428D01*
X169497142Y-68004357D02*
X168832000Y-68004357D01*
X169164571Y-68336928D02*
X169164571Y-67671785D01*
X167959000Y-68336928D02*
X168457857Y-68336928D01*
X168208428Y-68336928D02*
X168208428Y-67463928D01*
X168291571Y-67588642D01*
X168374714Y-67671785D01*
X168457857Y-67713357D01*
X167169142Y-67463928D02*
X167584857Y-67463928D01*
X167626428Y-67879642D01*
X167584857Y-67838071D01*
X167501714Y-67796500D01*
X167293857Y-67796500D01*
X167210714Y-67838071D01*
X167169142Y-67879642D01*
X167127571Y-67962785D01*
X167127571Y-68170642D01*
X167169142Y-68253785D01*
X167210714Y-68295357D01*
X167293857Y-68336928D01*
X167501714Y-68336928D01*
X167584857Y-68295357D01*
X167626428Y-68253785D01*
X166878142Y-67463928D02*
X166587142Y-68336928D01*
X166296142Y-67463928D01*
X169497142Y-69463857D02*
X168832000Y-69463857D01*
X169164571Y-69796428D02*
X169164571Y-69131285D01*
X167959000Y-69796428D02*
X168457857Y-69796428D01*
X168208428Y-69796428D02*
X168208428Y-68923428D01*
X168291571Y-69048142D01*
X168374714Y-69131285D01*
X168457857Y-69172857D01*
X167169142Y-68923428D02*
X167584857Y-68923428D01*
X167626428Y-69339142D01*
X167584857Y-69297571D01*
X167501714Y-69256000D01*
X167293857Y-69256000D01*
X167210714Y-69297571D01*
X167169142Y-69339142D01*
X167127571Y-69422285D01*
X167127571Y-69630142D01*
X167169142Y-69713285D01*
X167210714Y-69754857D01*
X167293857Y-69796428D01*
X167501714Y-69796428D01*
X167584857Y-69754857D01*
X167626428Y-69713285D01*
X166878142Y-68923428D02*
X166587142Y-69796428D01*
X166296142Y-68923428D01*
X170287000Y-71255928D02*
X170287000Y-70382928D01*
X169954428Y-70382928D01*
X169871285Y-70424500D01*
X169829714Y-70466071D01*
X169788142Y-70549214D01*
X169788142Y-70673928D01*
X169829714Y-70757071D01*
X169871285Y-70798642D01*
X169954428Y-70840214D01*
X170287000Y-70840214D01*
X169497142Y-70382928D02*
X169289285Y-71255928D01*
X169123000Y-70632357D01*
X168956714Y-71255928D01*
X168748857Y-70382928D01*
X168416285Y-71255928D02*
X168416285Y-70382928D01*
X168125285Y-71006500D01*
X167834285Y-70382928D01*
X167834285Y-71255928D01*
X167626428Y-71339071D02*
X166961285Y-71339071D01*
X166337714Y-71255928D02*
X166753428Y-71255928D01*
X166753428Y-70382928D01*
X165589428Y-71255928D02*
X166088285Y-71255928D01*
X165838857Y-71255928D02*
X165838857Y-70382928D01*
X165922000Y-70507642D01*
X166005142Y-70590785D01*
X166088285Y-70632357D01*
X170390928Y-72715428D02*
X170390928Y-71842428D01*
X170058357Y-71842428D01*
X169975214Y-71884000D01*
X169933642Y-71925571D01*
X169892071Y-72008714D01*
X169892071Y-72133428D01*
X169933642Y-72216571D01*
X169975214Y-72258142D01*
X170058357Y-72299714D01*
X170390928Y-72299714D01*
X169601071Y-71842428D02*
X169393214Y-72715428D01*
X169226928Y-72091857D01*
X169060642Y-72715428D01*
X168852785Y-71842428D01*
X168520214Y-72715428D02*
X168520214Y-71842428D01*
X168229214Y-72466000D01*
X167938214Y-71842428D01*
X167938214Y-72715428D01*
X167730357Y-72798571D02*
X167065214Y-72798571D01*
X166857357Y-72715428D02*
X166857357Y-71842428D01*
X166857357Y-72258142D02*
X166358500Y-72258142D01*
X166358500Y-72715428D02*
X166358500Y-71842428D01*
X165485500Y-72715428D02*
X165984357Y-72715428D01*
X165734928Y-72715428D02*
X165734928Y-71842428D01*
X165818071Y-71967142D01*
X165901214Y-72050285D01*
X165984357Y-72091857D01*
X170287000Y-74174928D02*
X170287000Y-73301928D01*
X169954428Y-73301928D01*
X169871285Y-73343500D01*
X169829714Y-73385071D01*
X169788142Y-73468214D01*
X169788142Y-73592928D01*
X169829714Y-73676071D01*
X169871285Y-73717642D01*
X169954428Y-73759214D01*
X170287000Y-73759214D01*
X169497142Y-73301928D02*
X169289285Y-74174928D01*
X169123000Y-73551357D01*
X168956714Y-74174928D01*
X168748857Y-73301928D01*
X168416285Y-74174928D02*
X168416285Y-73301928D01*
X168125285Y-73925500D01*
X167834285Y-73301928D01*
X167834285Y-74174928D01*
X167626428Y-74258071D02*
X166961285Y-74258071D01*
X166337714Y-74174928D02*
X166753428Y-74174928D01*
X166753428Y-73301928D01*
X166088285Y-73385071D02*
X166046714Y-73343500D01*
X165963571Y-73301928D01*
X165755714Y-73301928D01*
X165672571Y-73343500D01*
X165631000Y-73385071D01*
X165589428Y-73468214D01*
X165589428Y-73551357D01*
X165631000Y-73676071D01*
X166129857Y-74174928D01*
X165589428Y-74174928D01*
X170390928Y-75634428D02*
X170390928Y-74761428D01*
X170058357Y-74761428D01*
X169975214Y-74803000D01*
X169933642Y-74844571D01*
X169892071Y-74927714D01*
X169892071Y-75052428D01*
X169933642Y-75135571D01*
X169975214Y-75177142D01*
X170058357Y-75218714D01*
X170390928Y-75218714D01*
X169601071Y-74761428D02*
X169393214Y-75634428D01*
X169226928Y-75010857D01*
X169060642Y-75634428D01*
X168852785Y-74761428D01*
X168520214Y-75634428D02*
X168520214Y-74761428D01*
X168229214Y-75385000D01*
X167938214Y-74761428D01*
X167938214Y-75634428D01*
X167730357Y-75717571D02*
X167065214Y-75717571D01*
X166857357Y-75634428D02*
X166857357Y-74761428D01*
X166857357Y-75177142D02*
X166358500Y-75177142D01*
X166358500Y-75634428D02*
X166358500Y-74761428D01*
X165984357Y-74844571D02*
X165942785Y-74803000D01*
X165859642Y-74761428D01*
X165651785Y-74761428D01*
X165568642Y-74803000D01*
X165527071Y-74844571D01*
X165485500Y-74927714D01*
X165485500Y-75010857D01*
X165527071Y-75135571D01*
X166025928Y-75634428D01*
X165485500Y-75634428D01*
X169081428Y-76761357D02*
X168416285Y-76761357D01*
X168748857Y-77093928D02*
X168748857Y-76428785D01*
X167584857Y-76220928D02*
X168000571Y-76220928D01*
X168042142Y-76636642D01*
X168000571Y-76595071D01*
X167917428Y-76553500D01*
X167709571Y-76553500D01*
X167626428Y-76595071D01*
X167584857Y-76636642D01*
X167543285Y-76719785D01*
X167543285Y-76927642D01*
X167584857Y-77010785D01*
X167626428Y-77052357D01*
X167709571Y-77093928D01*
X167917428Y-77093928D01*
X168000571Y-77052357D01*
X168042142Y-77010785D01*
X167293857Y-76220928D02*
X167002857Y-77093928D01*
X166711857Y-76220928D01*
D11*
X172896280Y-64150320D02*
X171436280Y-64150320D01*
X175556280Y-76850320D02*
X175556280Y-76910320D01*
X175556280Y-64090320D02*
X175556280Y-64150320D01*
X175556280Y-76910320D02*
X172896280Y-76910320D01*
X172896280Y-76850320D02*
X172896280Y-76910320D01*
X172896280Y-64090320D02*
X172896280Y-64150320D01*
X175556280Y-64090320D02*
X172896280Y-64090320D01*
%LPC*%
D12*
X128436400Y-85794000D03*
X128423320Y-55143340D03*
X188012920Y-55119980D03*
X188025000Y-85769980D03*
D13*
X176026280Y-76215320D03*
X172426280Y-76215320D03*
X176026280Y-74945320D03*
X172426280Y-74945320D03*
X176026280Y-73675320D03*
X172426280Y-73675320D03*
X176026280Y-72405320D03*
X172426280Y-72405320D03*
X176026280Y-71135320D03*
X172426280Y-71135320D03*
X176026280Y-69865320D03*
X172426280Y-69865320D03*
X176026280Y-68595320D03*
X172426280Y-68595320D03*
X176026280Y-67325320D03*
X172426280Y-67325320D03*
X176026280Y-66055320D03*
X172426280Y-66055320D03*
X176026280Y-64785320D03*
X172426280Y-64785320D03*
D14*
X128401000Y-76840000D03*
X128401000Y-65410000D03*
D15*
X134751000Y-66680000D03*
D16*
X137291000Y-67950000D03*
X134751000Y-69220000D03*
X137291000Y-70490000D03*
X134751000Y-71760000D03*
X137291000Y-73030000D03*
X134751000Y-74300000D03*
X137291000Y-75570000D03*
D17*
X131451000Y-63375000D03*
X131451000Y-78875000D03*
M02*
