M48
; DRILL file {KiCad 5.1.9} date Mon Apr 12 02:05:22 2021
; FORMAT={-:-/ absolute / metric / decimal}
; #@! TF.CreationDate,2021-04-12T02:05:22-03:00
; #@! TF.GenerationSoftware,Kicad,Pcbnew,5.1.9
; #@! TF.FileFunction,Plated,1,2,PTH
FMAT,2
METRIC
T1C0.450
T2C0.900
T3C1.600
%
G90
G05
T1
X132.78Y-72.334
X133.009Y-73.833
X133.364Y-75.281
X133.821Y-70.15
X134.025Y-68.067
X134.634Y-75.992
X136.184Y-65.146
X136.26Y-76.576
X143.194Y-60.803
X143.702Y-81.199
X144.515Y-60.803
X145.836Y-78.278
X145.886Y-60.853
X145.937Y-82.901
X147.512Y-60.828
X149.239Y-60.828
X150.687Y-83.053
X151.068Y-60.828
X151.137Y-68.506
X151.195Y-77.617
X151.703Y-59.939
X153.684Y-76.119
X155.653Y-82.99
X156.783Y-85.72
X157.469Y-81.605
X158.764Y-70.556
X158.866Y-76.932
X159.358Y-68.067
X159.395Y-75.277
X160.491Y-62.581
X160.847Y-70.607
X160.974Y-80.259
X162.244Y-76.703
X163.641Y-60.93
X164.233Y-82.375
X164.911Y-75.214
X165.546Y-57.399
X165.571Y-84.094
X166.029Y-67.915
X166.562Y-71.623
X166.816Y-62.733
X166.816Y-63.876
X166.816Y-76.068
X166.98Y-80.714
X167.546Y-76.922
X167.705Y-70.48
X168.34Y-81.783
X168.467Y-77.592
X168.848Y-73.655
X169.813Y-74.9
X169.864Y-73.528
X170.118Y-84.704
X170.245Y-67.305
X170.556Y-70.115
X170.88Y-81.783
X171.007Y-77.212
X171.032Y-75.966
X171.388Y-78.862
X171.515Y-84.831
X171.896Y-55.748
X173.928Y-57.018
X174.871Y-63.549
X176.29Y-84.044
X176.928Y-64.095
X177.611Y-78.227
X178.144Y-57.958
X179.338Y-67.28
X179.389Y-60.574
X179.948Y-84.018
X181.192Y-75.839
X181.446Y-56.002
X181.548Y-80.259
X182.539Y-64.181
X182.945Y-60.574
X183.148Y-78.735
X184.317Y-58.39
X184.404Y-80.934
X184.901Y-67.965
X184.977Y-69.489
X185.18Y-79.065
X186.12Y-82.189
X186.755Y-64.13
X189.333Y-73.439
X189.508Y-80.167
X189.574Y-78.405
X189.675Y-76.816
X189.738Y-75.098
X190.692Y-63.495
X190.764Y-71.796
X191.835Y-61.158
X193.334Y-63.52
X193.486Y-64.74
X193.867Y-78.43
X193.994Y-70.886
T2
X134.751Y-66.68
X134.751Y-69.22
X134.751Y-71.76
X134.751Y-74.3
X137.291Y-67.95
X137.291Y-70.49
X137.291Y-73.03
X137.291Y-75.57
T3
X131.451Y-63.375
X131.451Y-78.875
T0
M30
