G04 #@! TF.GenerationSoftware,KiCad,Pcbnew,5.1.9*
G04 #@! TF.CreationDate,2021-04-12T08:19:53-03:00*
G04 #@! TF.ProjectId,Controle,436f6e74-726f-46c6-952e-6b696361645f,rev?*
G04 #@! TF.SameCoordinates,Original*
G04 #@! TF.FileFunction,Soldermask,Top*
G04 #@! TF.FilePolarity,Negative*
%FSLAX46Y46*%
G04 Gerber Fmt 4.6, Leading zero omitted, Abs format (unit mm)*
G04 Created by KiCad (PCBNEW 5.1.9) date 2021-04-12 08:19:53*
%MOMM*%
%LPD*%
G01*
G04 APERTURE LIST*
%ADD10C,3.200000*%
%ADD11R,2.510000X1.000000*%
%ADD12R,0.800000X1.900000*%
%ADD13C,0.150000*%
%ADD14R,0.900000X1.300000*%
%ADD15R,1.000000X2.510000*%
%ADD16R,1.100000X1.100000*%
%ADD17R,1.905000X4.000000*%
%ADD18R,3.800000X2.000000*%
%ADD19R,1.500000X2.000000*%
%ADD20C,3.650000*%
%ADD21R,1.500000X1.500000*%
%ADD22C,1.500000*%
%ADD23C,2.500000*%
G04 APERTURE END LIST*
D10*
X128436400Y-85794000D03*
X128423320Y-55143340D03*
G36*
G01*
X160609500Y-65778000D02*
X161084500Y-65778000D01*
G75*
G02*
X161322000Y-66015500I0J-237500D01*
G01*
X161322000Y-66515500D01*
G75*
G02*
X161084500Y-66753000I-237500J0D01*
G01*
X160609500Y-66753000D01*
G75*
G02*
X160372000Y-66515500I0J237500D01*
G01*
X160372000Y-66015500D01*
G75*
G02*
X160609500Y-65778000I237500J0D01*
G01*
G37*
G36*
G01*
X160609500Y-67603000D02*
X161084500Y-67603000D01*
G75*
G02*
X161322000Y-67840500I0J-237500D01*
G01*
X161322000Y-68340500D01*
G75*
G02*
X161084500Y-68578000I-237500J0D01*
G01*
X160609500Y-68578000D01*
G75*
G02*
X160372000Y-68340500I0J237500D01*
G01*
X160372000Y-67840500D01*
G75*
G02*
X160609500Y-67603000I237500J0D01*
G01*
G37*
D11*
X160470000Y-64003000D03*
X157160000Y-61463000D03*
G36*
G01*
X164105000Y-71766500D02*
X164105000Y-72241500D01*
G75*
G02*
X163867500Y-72479000I-237500J0D01*
G01*
X163367500Y-72479000D01*
G75*
G02*
X163130000Y-72241500I0J237500D01*
G01*
X163130000Y-71766500D01*
G75*
G02*
X163367500Y-71529000I237500J0D01*
G01*
X163867500Y-71529000D01*
G75*
G02*
X164105000Y-71766500I0J-237500D01*
G01*
G37*
G36*
G01*
X165930000Y-71766500D02*
X165930000Y-72241500D01*
G75*
G02*
X165692500Y-72479000I-237500J0D01*
G01*
X165192500Y-72479000D01*
G75*
G02*
X164955000Y-72241500I0J237500D01*
G01*
X164955000Y-71766500D01*
G75*
G02*
X165192500Y-71529000I237500J0D01*
G01*
X165692500Y-71529000D01*
G75*
G02*
X165930000Y-71766500I0J-237500D01*
G01*
G37*
G36*
G01*
X163216000Y-64527500D02*
X163216000Y-65002500D01*
G75*
G02*
X162978500Y-65240000I-237500J0D01*
G01*
X162478500Y-65240000D01*
G75*
G02*
X162241000Y-65002500I0J237500D01*
G01*
X162241000Y-64527500D01*
G75*
G02*
X162478500Y-64290000I237500J0D01*
G01*
X162978500Y-64290000D01*
G75*
G02*
X163216000Y-64527500I0J-237500D01*
G01*
G37*
G36*
G01*
X165041000Y-64527500D02*
X165041000Y-65002500D01*
G75*
G02*
X164803500Y-65240000I-237500J0D01*
G01*
X164303500Y-65240000D01*
G75*
G02*
X164066000Y-65002500I0J237500D01*
G01*
X164066000Y-64527500D01*
G75*
G02*
X164303500Y-64290000I237500J0D01*
G01*
X164803500Y-64290000D01*
G75*
G02*
X165041000Y-64527500I0J-237500D01*
G01*
G37*
D12*
X163514000Y-66821000D03*
X164464000Y-69821000D03*
X162564000Y-69821000D03*
D10*
X188012920Y-55119980D03*
G36*
G01*
X180521000Y-58399998D02*
X180521000Y-59700002D01*
G75*
G02*
X180271002Y-59950000I-249998J0D01*
G01*
X179445998Y-59950000D01*
G75*
G02*
X179196000Y-59700002I0J249998D01*
G01*
X179196000Y-58399998D01*
G75*
G02*
X179445998Y-58150000I249998J0D01*
G01*
X180271002Y-58150000D01*
G75*
G02*
X180521000Y-58399998I0J-249998D01*
G01*
G37*
G36*
G01*
X183646000Y-58399998D02*
X183646000Y-59700002D01*
G75*
G02*
X183396002Y-59950000I-249998J0D01*
G01*
X182570998Y-59950000D01*
G75*
G02*
X182321000Y-59700002I0J249998D01*
G01*
X182321000Y-58399998D01*
G75*
G02*
X182570998Y-58150000I249998J0D01*
G01*
X183396002Y-58150000D01*
G75*
G02*
X183646000Y-58399998I0J-249998D01*
G01*
G37*
G36*
G01*
X167212002Y-66532000D02*
X165911998Y-66532000D01*
G75*
G02*
X165662000Y-66282002I0J249998D01*
G01*
X165662000Y-65456998D01*
G75*
G02*
X165911998Y-65207000I249998J0D01*
G01*
X167212002Y-65207000D01*
G75*
G02*
X167462000Y-65456998I0J-249998D01*
G01*
X167462000Y-66282002D01*
G75*
G02*
X167212002Y-66532000I-249998J0D01*
G01*
G37*
G36*
G01*
X167212002Y-69657000D02*
X165911998Y-69657000D01*
G75*
G02*
X165662000Y-69407002I0J249998D01*
G01*
X165662000Y-68581998D01*
G75*
G02*
X165911998Y-68332000I249998J0D01*
G01*
X167212002Y-68332000D01*
G75*
G02*
X167462000Y-68581998I0J-249998D01*
G01*
X167462000Y-69407002D01*
G75*
G02*
X167212002Y-69657000I-249998J0D01*
G01*
G37*
G36*
G01*
X169625002Y-66532000D02*
X168324998Y-66532000D01*
G75*
G02*
X168075000Y-66282002I0J249998D01*
G01*
X168075000Y-65456998D01*
G75*
G02*
X168324998Y-65207000I249998J0D01*
G01*
X169625002Y-65207000D01*
G75*
G02*
X169875000Y-65456998I0J-249998D01*
G01*
X169875000Y-66282002D01*
G75*
G02*
X169625002Y-66532000I-249998J0D01*
G01*
G37*
G36*
G01*
X169625002Y-69657000D02*
X168324998Y-69657000D01*
G75*
G02*
X168075000Y-69407002I0J249998D01*
G01*
X168075000Y-68581998D01*
G75*
G02*
X168324998Y-68332000I249998J0D01*
G01*
X169625002Y-68332000D01*
G75*
G02*
X169875000Y-68581998I0J-249998D01*
G01*
X169875000Y-69407002D01*
G75*
G02*
X169625002Y-69657000I-249998J0D01*
G01*
G37*
G36*
G01*
X182502200Y-81361598D02*
X182502200Y-82661602D01*
G75*
G02*
X182252202Y-82911600I-249998J0D01*
G01*
X181427198Y-82911600D01*
G75*
G02*
X181177200Y-82661602I0J249998D01*
G01*
X181177200Y-81361598D01*
G75*
G02*
X181427198Y-81111600I249998J0D01*
G01*
X182252202Y-81111600D01*
G75*
G02*
X182502200Y-81361598I0J-249998D01*
G01*
G37*
G36*
G01*
X185627200Y-81361598D02*
X185627200Y-82661602D01*
G75*
G02*
X185377202Y-82911600I-249998J0D01*
G01*
X184552198Y-82911600D01*
G75*
G02*
X184302200Y-82661602I0J249998D01*
G01*
X184302200Y-81361598D01*
G75*
G02*
X184552198Y-81111600I249998J0D01*
G01*
X185377202Y-81111600D01*
G75*
G02*
X185627200Y-81361598I0J-249998D01*
G01*
G37*
G36*
G01*
X170864998Y-68459000D02*
X172165002Y-68459000D01*
G75*
G02*
X172415000Y-68708998I0J-249998D01*
G01*
X172415000Y-69534002D01*
G75*
G02*
X172165002Y-69784000I-249998J0D01*
G01*
X170864998Y-69784000D01*
G75*
G02*
X170615000Y-69534002I0J249998D01*
G01*
X170615000Y-68708998D01*
G75*
G02*
X170864998Y-68459000I249998J0D01*
G01*
G37*
G36*
G01*
X170864998Y-65334000D02*
X172165002Y-65334000D01*
G75*
G02*
X172415000Y-65583998I0J-249998D01*
G01*
X172415000Y-66409002D01*
G75*
G02*
X172165002Y-66659000I-249998J0D01*
G01*
X170864998Y-66659000D01*
G75*
G02*
X170615000Y-66409002I0J249998D01*
G01*
X170615000Y-65583998D01*
G75*
G02*
X170864998Y-65334000I249998J0D01*
G01*
G37*
G36*
G01*
X152703998Y-63760000D02*
X154004002Y-63760000D01*
G75*
G02*
X154254000Y-64009998I0J-249998D01*
G01*
X154254000Y-64835002D01*
G75*
G02*
X154004002Y-65085000I-249998J0D01*
G01*
X152703998Y-65085000D01*
G75*
G02*
X152454000Y-64835002I0J249998D01*
G01*
X152454000Y-64009998D01*
G75*
G02*
X152703998Y-63760000I249998J0D01*
G01*
G37*
G36*
G01*
X152703998Y-60635000D02*
X154004002Y-60635000D01*
G75*
G02*
X154254000Y-60884998I0J-249998D01*
G01*
X154254000Y-61710002D01*
G75*
G02*
X154004002Y-61960000I-249998J0D01*
G01*
X152703998Y-61960000D01*
G75*
G02*
X152454000Y-61710002I0J249998D01*
G01*
X152454000Y-60884998D01*
G75*
G02*
X152703998Y-60635000I249998J0D01*
G01*
G37*
G36*
G01*
X154004002Y-56753000D02*
X152703998Y-56753000D01*
G75*
G02*
X152454000Y-56503002I0J249998D01*
G01*
X152454000Y-55677998D01*
G75*
G02*
X152703998Y-55428000I249998J0D01*
G01*
X154004002Y-55428000D01*
G75*
G02*
X154254000Y-55677998I0J-249998D01*
G01*
X154254000Y-56503002D01*
G75*
G02*
X154004002Y-56753000I-249998J0D01*
G01*
G37*
G36*
G01*
X154004002Y-59878000D02*
X152703998Y-59878000D01*
G75*
G02*
X152454000Y-59628002I0J249998D01*
G01*
X152454000Y-58802998D01*
G75*
G02*
X152703998Y-58553000I249998J0D01*
G01*
X154004002Y-58553000D01*
G75*
G02*
X154254000Y-58802998I0J-249998D01*
G01*
X154254000Y-59628002D01*
G75*
G02*
X154004002Y-59878000I-249998J0D01*
G01*
G37*
G36*
G01*
X162614000Y-58780998D02*
X162614000Y-60081002D01*
G75*
G02*
X162364002Y-60331000I-249998J0D01*
G01*
X161538998Y-60331000D01*
G75*
G02*
X161289000Y-60081002I0J249998D01*
G01*
X161289000Y-58780998D01*
G75*
G02*
X161538998Y-58531000I249998J0D01*
G01*
X162364002Y-58531000D01*
G75*
G02*
X162614000Y-58780998I0J-249998D01*
G01*
G37*
G36*
G01*
X165739000Y-58780998D02*
X165739000Y-60081002D01*
G75*
G02*
X165489002Y-60331000I-249998J0D01*
G01*
X164663998Y-60331000D01*
G75*
G02*
X164414000Y-60081002I0J249998D01*
G01*
X164414000Y-58780998D01*
G75*
G02*
X164663998Y-58531000I249998J0D01*
G01*
X165489002Y-58531000D01*
G75*
G02*
X165739000Y-58780998I0J-249998D01*
G01*
G37*
G36*
G01*
X175187000Y-58399998D02*
X175187000Y-59700002D01*
G75*
G02*
X174937002Y-59950000I-249998J0D01*
G01*
X174111998Y-59950000D01*
G75*
G02*
X173862000Y-59700002I0J249998D01*
G01*
X173862000Y-58399998D01*
G75*
G02*
X174111998Y-58150000I249998J0D01*
G01*
X174937002Y-58150000D01*
G75*
G02*
X175187000Y-58399998I0J-249998D01*
G01*
G37*
G36*
G01*
X178312000Y-58399998D02*
X178312000Y-59700002D01*
G75*
G02*
X178062002Y-59950000I-249998J0D01*
G01*
X177236998Y-59950000D01*
G75*
G02*
X176987000Y-59700002I0J249998D01*
G01*
X176987000Y-58399998D01*
G75*
G02*
X177236998Y-58150000I249998J0D01*
G01*
X178062002Y-58150000D01*
G75*
G02*
X178312000Y-58399998I0J-249998D01*
G01*
G37*
G36*
G01*
X189538000Y-62590998D02*
X189538000Y-63891002D01*
G75*
G02*
X189288002Y-64141000I-249998J0D01*
G01*
X188462998Y-64141000D01*
G75*
G02*
X188213000Y-63891002I0J249998D01*
G01*
X188213000Y-62590998D01*
G75*
G02*
X188462998Y-62341000I249998J0D01*
G01*
X189288002Y-62341000D01*
G75*
G02*
X189538000Y-62590998I0J-249998D01*
G01*
G37*
G36*
G01*
X192663000Y-62590998D02*
X192663000Y-63891002D01*
G75*
G02*
X192413002Y-64141000I-249998J0D01*
G01*
X191587998Y-64141000D01*
G75*
G02*
X191338000Y-63891002I0J249998D01*
G01*
X191338000Y-62590998D01*
G75*
G02*
X191587998Y-62341000I249998J0D01*
G01*
X192413002Y-62341000D01*
G75*
G02*
X192663000Y-62590998I0J-249998D01*
G01*
G37*
G36*
G01*
X180521000Y-55859998D02*
X180521000Y-57160002D01*
G75*
G02*
X180271002Y-57410000I-249998J0D01*
G01*
X179445998Y-57410000D01*
G75*
G02*
X179196000Y-57160002I0J249998D01*
G01*
X179196000Y-55859998D01*
G75*
G02*
X179445998Y-55610000I249998J0D01*
G01*
X180271002Y-55610000D01*
G75*
G02*
X180521000Y-55859998I0J-249998D01*
G01*
G37*
G36*
G01*
X183646000Y-55859998D02*
X183646000Y-57160002D01*
G75*
G02*
X183396002Y-57410000I-249998J0D01*
G01*
X182570998Y-57410000D01*
G75*
G02*
X182321000Y-57160002I0J249998D01*
G01*
X182321000Y-55859998D01*
G75*
G02*
X182570998Y-55610000I249998J0D01*
G01*
X183396002Y-55610000D01*
G75*
G02*
X183646000Y-55859998I0J-249998D01*
G01*
G37*
D13*
G36*
X189063500Y-69478000D02*
G01*
X189063500Y-66353000D01*
X189480000Y-66353000D01*
X189480000Y-64878000D01*
X190380000Y-64878000D01*
X190380000Y-66353000D01*
X190796500Y-66353000D01*
X190796500Y-69478000D01*
X189063500Y-69478000D01*
G37*
D14*
X188430000Y-65528000D03*
X191430000Y-65528000D03*
D15*
X143321000Y-83819000D03*
X148401000Y-83819000D03*
X153481000Y-83819000D03*
X145861000Y-80509000D03*
X150941000Y-80509000D03*
D16*
X162114000Y-61971000D03*
X164914000Y-61971000D03*
G36*
G01*
X134761000Y-59250999D02*
X134761000Y-62151001D01*
G75*
G02*
X134511001Y-62401000I-249999J0D01*
G01*
X133710999Y-62401000D01*
G75*
G02*
X133461000Y-62151001I0J249999D01*
G01*
X133461000Y-59250999D01*
G75*
G02*
X133710999Y-59001000I249999J0D01*
G01*
X134511001Y-59001000D01*
G75*
G02*
X134761000Y-59250999I0J-249999D01*
G01*
G37*
G36*
G01*
X139211000Y-59250999D02*
X139211000Y-62151001D01*
G75*
G02*
X138961001Y-62401000I-249999J0D01*
G01*
X138160999Y-62401000D01*
G75*
G02*
X137911000Y-62151001I0J249999D01*
G01*
X137911000Y-59250999D01*
G75*
G02*
X138160999Y-59001000I249999J0D01*
G01*
X138961001Y-59001000D01*
G75*
G02*
X139211000Y-59250999I0J-249999D01*
G01*
G37*
D10*
X188025000Y-85769980D03*
G36*
G01*
X180429000Y-78204000D02*
X180429000Y-78504000D01*
G75*
G02*
X180279000Y-78654000I-150000J0D01*
G01*
X178629000Y-78654000D01*
G75*
G02*
X178479000Y-78504000I0J150000D01*
G01*
X178479000Y-78204000D01*
G75*
G02*
X178629000Y-78054000I150000J0D01*
G01*
X180279000Y-78054000D01*
G75*
G02*
X180429000Y-78204000I0J-150000D01*
G01*
G37*
G36*
G01*
X180429000Y-76934000D02*
X180429000Y-77234000D01*
G75*
G02*
X180279000Y-77384000I-150000J0D01*
G01*
X178629000Y-77384000D01*
G75*
G02*
X178479000Y-77234000I0J150000D01*
G01*
X178479000Y-76934000D01*
G75*
G02*
X178629000Y-76784000I150000J0D01*
G01*
X180279000Y-76784000D01*
G75*
G02*
X180429000Y-76934000I0J-150000D01*
G01*
G37*
G36*
G01*
X180429000Y-75664000D02*
X180429000Y-75964000D01*
G75*
G02*
X180279000Y-76114000I-150000J0D01*
G01*
X178629000Y-76114000D01*
G75*
G02*
X178479000Y-75964000I0J150000D01*
G01*
X178479000Y-75664000D01*
G75*
G02*
X178629000Y-75514000I150000J0D01*
G01*
X180279000Y-75514000D01*
G75*
G02*
X180429000Y-75664000I0J-150000D01*
G01*
G37*
G36*
G01*
X180429000Y-74394000D02*
X180429000Y-74694000D01*
G75*
G02*
X180279000Y-74844000I-150000J0D01*
G01*
X178629000Y-74844000D01*
G75*
G02*
X178479000Y-74694000I0J150000D01*
G01*
X178479000Y-74394000D01*
G75*
G02*
X178629000Y-74244000I150000J0D01*
G01*
X180279000Y-74244000D01*
G75*
G02*
X180429000Y-74394000I0J-150000D01*
G01*
G37*
G36*
G01*
X185379000Y-74394000D02*
X185379000Y-74694000D01*
G75*
G02*
X185229000Y-74844000I-150000J0D01*
G01*
X183579000Y-74844000D01*
G75*
G02*
X183429000Y-74694000I0J150000D01*
G01*
X183429000Y-74394000D01*
G75*
G02*
X183579000Y-74244000I150000J0D01*
G01*
X185229000Y-74244000D01*
G75*
G02*
X185379000Y-74394000I0J-150000D01*
G01*
G37*
G36*
G01*
X185379000Y-75664000D02*
X185379000Y-75964000D01*
G75*
G02*
X185229000Y-76114000I-150000J0D01*
G01*
X183579000Y-76114000D01*
G75*
G02*
X183429000Y-75964000I0J150000D01*
G01*
X183429000Y-75664000D01*
G75*
G02*
X183579000Y-75514000I150000J0D01*
G01*
X185229000Y-75514000D01*
G75*
G02*
X185379000Y-75664000I0J-150000D01*
G01*
G37*
G36*
G01*
X185379000Y-76934000D02*
X185379000Y-77234000D01*
G75*
G02*
X185229000Y-77384000I-150000J0D01*
G01*
X183579000Y-77384000D01*
G75*
G02*
X183429000Y-77234000I0J150000D01*
G01*
X183429000Y-76934000D01*
G75*
G02*
X183579000Y-76784000I150000J0D01*
G01*
X185229000Y-76784000D01*
G75*
G02*
X185379000Y-76934000I0J-150000D01*
G01*
G37*
G36*
G01*
X185379000Y-78204000D02*
X185379000Y-78504000D01*
G75*
G02*
X185229000Y-78654000I-150000J0D01*
G01*
X183579000Y-78654000D01*
G75*
G02*
X183429000Y-78504000I0J150000D01*
G01*
X183429000Y-78204000D01*
G75*
G02*
X183579000Y-78054000I150000J0D01*
G01*
X185229000Y-78054000D01*
G75*
G02*
X185379000Y-78204000I0J-150000D01*
G01*
G37*
G36*
G01*
X175097000Y-82623500D02*
X175097000Y-83098500D01*
G75*
G02*
X174859500Y-83336000I-237500J0D01*
G01*
X174284500Y-83336000D01*
G75*
G02*
X174047000Y-83098500I0J237500D01*
G01*
X174047000Y-82623500D01*
G75*
G02*
X174284500Y-82386000I237500J0D01*
G01*
X174859500Y-82386000D01*
G75*
G02*
X175097000Y-82623500I0J-237500D01*
G01*
G37*
G36*
G01*
X176847000Y-82623500D02*
X176847000Y-83098500D01*
G75*
G02*
X176609500Y-83336000I-237500J0D01*
G01*
X176034500Y-83336000D01*
G75*
G02*
X175797000Y-83098500I0J237500D01*
G01*
X175797000Y-82623500D01*
G75*
G02*
X176034500Y-82386000I237500J0D01*
G01*
X176609500Y-82386000D01*
G75*
G02*
X176847000Y-82623500I0J-237500D01*
G01*
G37*
G36*
G01*
X175872000Y-81588700D02*
X175872000Y-81113700D01*
G75*
G02*
X176109500Y-80876200I237500J0D01*
G01*
X176609500Y-80876200D01*
G75*
G02*
X176847000Y-81113700I0J-237500D01*
G01*
X176847000Y-81588700D01*
G75*
G02*
X176609500Y-81826200I-237500J0D01*
G01*
X176109500Y-81826200D01*
G75*
G02*
X175872000Y-81588700I0J237500D01*
G01*
G37*
G36*
G01*
X174047000Y-81588700D02*
X174047000Y-81113700D01*
G75*
G02*
X174284500Y-80876200I237500J0D01*
G01*
X174784500Y-80876200D01*
G75*
G02*
X175022000Y-81113700I0J-237500D01*
G01*
X175022000Y-81588700D01*
G75*
G02*
X174784500Y-81826200I-237500J0D01*
G01*
X174284500Y-81826200D01*
G75*
G02*
X174047000Y-81588700I0J237500D01*
G01*
G37*
G36*
G01*
X170074736Y-80466484D02*
X169137820Y-81403400D01*
G75*
G02*
X169031754Y-81403400I-53033J53033D01*
G01*
X168925688Y-81297334D01*
G75*
G02*
X168925688Y-81191268I53033J53033D01*
G01*
X169862604Y-80254352D01*
G75*
G02*
X169968670Y-80254352I53033J-53033D01*
G01*
X170074736Y-80360418D01*
G75*
G02*
X170074736Y-80466484I-53033J-53033D01*
G01*
G37*
G36*
G01*
X169721182Y-80112930D02*
X168784266Y-81049846D01*
G75*
G02*
X168678200Y-81049846I-53033J53033D01*
G01*
X168572134Y-80943780D01*
G75*
G02*
X168572134Y-80837714I53033J53033D01*
G01*
X169509050Y-79900798D01*
G75*
G02*
X169615116Y-79900798I53033J-53033D01*
G01*
X169721182Y-80006864D01*
G75*
G02*
X169721182Y-80112930I-53033J-53033D01*
G01*
G37*
G36*
G01*
X169367629Y-79759377D02*
X168430713Y-80696293D01*
G75*
G02*
X168324647Y-80696293I-53033J53033D01*
G01*
X168218581Y-80590227D01*
G75*
G02*
X168218581Y-80484161I53033J53033D01*
G01*
X169155497Y-79547245D01*
G75*
G02*
X169261563Y-79547245I53033J-53033D01*
G01*
X169367629Y-79653311D01*
G75*
G02*
X169367629Y-79759377I-53033J-53033D01*
G01*
G37*
G36*
G01*
X169014075Y-79405823D02*
X168077159Y-80342739D01*
G75*
G02*
X167971093Y-80342739I-53033J53033D01*
G01*
X167865027Y-80236673D01*
G75*
G02*
X167865027Y-80130607I53033J53033D01*
G01*
X168801943Y-79193691D01*
G75*
G02*
X168908009Y-79193691I53033J-53033D01*
G01*
X169014075Y-79299757D01*
G75*
G02*
X169014075Y-79405823I-53033J-53033D01*
G01*
G37*
G36*
G01*
X168660522Y-79052270D02*
X167723606Y-79989186D01*
G75*
G02*
X167617540Y-79989186I-53033J53033D01*
G01*
X167511474Y-79883120D01*
G75*
G02*
X167511474Y-79777054I53033J53033D01*
G01*
X168448390Y-78840138D01*
G75*
G02*
X168554456Y-78840138I53033J-53033D01*
G01*
X168660522Y-78946204D01*
G75*
G02*
X168660522Y-79052270I-53033J-53033D01*
G01*
G37*
G36*
G01*
X168306969Y-78698717D02*
X167370053Y-79635633D01*
G75*
G02*
X167263987Y-79635633I-53033J53033D01*
G01*
X167157921Y-79529567D01*
G75*
G02*
X167157921Y-79423501I53033J53033D01*
G01*
X168094837Y-78486585D01*
G75*
G02*
X168200903Y-78486585I53033J-53033D01*
G01*
X168306969Y-78592651D01*
G75*
G02*
X168306969Y-78698717I-53033J-53033D01*
G01*
G37*
G36*
G01*
X167953415Y-78345163D02*
X167016499Y-79282079D01*
G75*
G02*
X166910433Y-79282079I-53033J53033D01*
G01*
X166804367Y-79176013D01*
G75*
G02*
X166804367Y-79069947I53033J53033D01*
G01*
X167741283Y-78133031D01*
G75*
G02*
X167847349Y-78133031I53033J-53033D01*
G01*
X167953415Y-78239097D01*
G75*
G02*
X167953415Y-78345163I-53033J-53033D01*
G01*
G37*
G36*
G01*
X167599862Y-77991610D02*
X166662946Y-78928526D01*
G75*
G02*
X166556880Y-78928526I-53033J53033D01*
G01*
X166450814Y-78822460D01*
G75*
G02*
X166450814Y-78716394I53033J53033D01*
G01*
X167387730Y-77779478D01*
G75*
G02*
X167493796Y-77779478I53033J-53033D01*
G01*
X167599862Y-77885544D01*
G75*
G02*
X167599862Y-77991610I-53033J-53033D01*
G01*
G37*
G36*
G01*
X167246309Y-77638057D02*
X166309393Y-78574973D01*
G75*
G02*
X166203327Y-78574973I-53033J53033D01*
G01*
X166097261Y-78468907D01*
G75*
G02*
X166097261Y-78362841I53033J53033D01*
G01*
X167034177Y-77425925D01*
G75*
G02*
X167140243Y-77425925I53033J-53033D01*
G01*
X167246309Y-77531991D01*
G75*
G02*
X167246309Y-77638057I-53033J-53033D01*
G01*
G37*
G36*
G01*
X166892755Y-77284503D02*
X165955839Y-78221419D01*
G75*
G02*
X165849773Y-78221419I-53033J53033D01*
G01*
X165743707Y-78115353D01*
G75*
G02*
X165743707Y-78009287I53033J53033D01*
G01*
X166680623Y-77072371D01*
G75*
G02*
X166786689Y-77072371I53033J-53033D01*
G01*
X166892755Y-77178437D01*
G75*
G02*
X166892755Y-77284503I-53033J-53033D01*
G01*
G37*
G36*
G01*
X166539202Y-76930950D02*
X165602286Y-77867866D01*
G75*
G02*
X165496220Y-77867866I-53033J53033D01*
G01*
X165390154Y-77761800D01*
G75*
G02*
X165390154Y-77655734I53033J53033D01*
G01*
X166327070Y-76718818D01*
G75*
G02*
X166433136Y-76718818I53033J-53033D01*
G01*
X166539202Y-76824884D01*
G75*
G02*
X166539202Y-76930950I-53033J-53033D01*
G01*
G37*
G36*
G01*
X166185648Y-76577396D02*
X165248732Y-77514312D01*
G75*
G02*
X165142666Y-77514312I-53033J53033D01*
G01*
X165036600Y-77408246D01*
G75*
G02*
X165036600Y-77302180I53033J53033D01*
G01*
X165973516Y-76365264D01*
G75*
G02*
X166079582Y-76365264I53033J-53033D01*
G01*
X166185648Y-76471330D01*
G75*
G02*
X166185648Y-76577396I-53033J-53033D01*
G01*
G37*
G36*
G01*
X166185648Y-75410670D02*
X166079582Y-75516736D01*
G75*
G02*
X165973516Y-75516736I-53033J53033D01*
G01*
X165036600Y-74579820D01*
G75*
G02*
X165036600Y-74473754I53033J53033D01*
G01*
X165142666Y-74367688D01*
G75*
G02*
X165248732Y-74367688I53033J-53033D01*
G01*
X166185648Y-75304604D01*
G75*
G02*
X166185648Y-75410670I-53033J-53033D01*
G01*
G37*
G36*
G01*
X166539202Y-75057116D02*
X166433136Y-75163182D01*
G75*
G02*
X166327070Y-75163182I-53033J53033D01*
G01*
X165390154Y-74226266D01*
G75*
G02*
X165390154Y-74120200I53033J53033D01*
G01*
X165496220Y-74014134D01*
G75*
G02*
X165602286Y-74014134I53033J-53033D01*
G01*
X166539202Y-74951050D01*
G75*
G02*
X166539202Y-75057116I-53033J-53033D01*
G01*
G37*
G36*
G01*
X166892755Y-74703563D02*
X166786689Y-74809629D01*
G75*
G02*
X166680623Y-74809629I-53033J53033D01*
G01*
X165743707Y-73872713D01*
G75*
G02*
X165743707Y-73766647I53033J53033D01*
G01*
X165849773Y-73660581D01*
G75*
G02*
X165955839Y-73660581I53033J-53033D01*
G01*
X166892755Y-74597497D01*
G75*
G02*
X166892755Y-74703563I-53033J-53033D01*
G01*
G37*
G36*
G01*
X167246309Y-74350009D02*
X167140243Y-74456075D01*
G75*
G02*
X167034177Y-74456075I-53033J53033D01*
G01*
X166097261Y-73519159D01*
G75*
G02*
X166097261Y-73413093I53033J53033D01*
G01*
X166203327Y-73307027D01*
G75*
G02*
X166309393Y-73307027I53033J-53033D01*
G01*
X167246309Y-74243943D01*
G75*
G02*
X167246309Y-74350009I-53033J-53033D01*
G01*
G37*
G36*
G01*
X167599862Y-73996456D02*
X167493796Y-74102522D01*
G75*
G02*
X167387730Y-74102522I-53033J53033D01*
G01*
X166450814Y-73165606D01*
G75*
G02*
X166450814Y-73059540I53033J53033D01*
G01*
X166556880Y-72953474D01*
G75*
G02*
X166662946Y-72953474I53033J-53033D01*
G01*
X167599862Y-73890390D01*
G75*
G02*
X167599862Y-73996456I-53033J-53033D01*
G01*
G37*
G36*
G01*
X167953415Y-73642903D02*
X167847349Y-73748969D01*
G75*
G02*
X167741283Y-73748969I-53033J53033D01*
G01*
X166804367Y-72812053D01*
G75*
G02*
X166804367Y-72705987I53033J53033D01*
G01*
X166910433Y-72599921D01*
G75*
G02*
X167016499Y-72599921I53033J-53033D01*
G01*
X167953415Y-73536837D01*
G75*
G02*
X167953415Y-73642903I-53033J-53033D01*
G01*
G37*
G36*
G01*
X168306969Y-73289349D02*
X168200903Y-73395415D01*
G75*
G02*
X168094837Y-73395415I-53033J53033D01*
G01*
X167157921Y-72458499D01*
G75*
G02*
X167157921Y-72352433I53033J53033D01*
G01*
X167263987Y-72246367D01*
G75*
G02*
X167370053Y-72246367I53033J-53033D01*
G01*
X168306969Y-73183283D01*
G75*
G02*
X168306969Y-73289349I-53033J-53033D01*
G01*
G37*
G36*
G01*
X168660522Y-72935796D02*
X168554456Y-73041862D01*
G75*
G02*
X168448390Y-73041862I-53033J53033D01*
G01*
X167511474Y-72104946D01*
G75*
G02*
X167511474Y-71998880I53033J53033D01*
G01*
X167617540Y-71892814D01*
G75*
G02*
X167723606Y-71892814I53033J-53033D01*
G01*
X168660522Y-72829730D01*
G75*
G02*
X168660522Y-72935796I-53033J-53033D01*
G01*
G37*
G36*
G01*
X169014075Y-72582243D02*
X168908009Y-72688309D01*
G75*
G02*
X168801943Y-72688309I-53033J53033D01*
G01*
X167865027Y-71751393D01*
G75*
G02*
X167865027Y-71645327I53033J53033D01*
G01*
X167971093Y-71539261D01*
G75*
G02*
X168077159Y-71539261I53033J-53033D01*
G01*
X169014075Y-72476177D01*
G75*
G02*
X169014075Y-72582243I-53033J-53033D01*
G01*
G37*
G36*
G01*
X169367629Y-72228689D02*
X169261563Y-72334755D01*
G75*
G02*
X169155497Y-72334755I-53033J53033D01*
G01*
X168218581Y-71397839D01*
G75*
G02*
X168218581Y-71291773I53033J53033D01*
G01*
X168324647Y-71185707D01*
G75*
G02*
X168430713Y-71185707I53033J-53033D01*
G01*
X169367629Y-72122623D01*
G75*
G02*
X169367629Y-72228689I-53033J-53033D01*
G01*
G37*
G36*
G01*
X169721182Y-71875136D02*
X169615116Y-71981202D01*
G75*
G02*
X169509050Y-71981202I-53033J53033D01*
G01*
X168572134Y-71044286D01*
G75*
G02*
X168572134Y-70938220I53033J53033D01*
G01*
X168678200Y-70832154D01*
G75*
G02*
X168784266Y-70832154I53033J-53033D01*
G01*
X169721182Y-71769070D01*
G75*
G02*
X169721182Y-71875136I-53033J-53033D01*
G01*
G37*
G36*
G01*
X170074736Y-71521582D02*
X169968670Y-71627648D01*
G75*
G02*
X169862604Y-71627648I-53033J53033D01*
G01*
X168925688Y-70690732D01*
G75*
G02*
X168925688Y-70584666I53033J53033D01*
G01*
X169031754Y-70478600D01*
G75*
G02*
X169137820Y-70478600I53033J-53033D01*
G01*
X170074736Y-71415516D01*
G75*
G02*
X170074736Y-71521582I-53033J-53033D01*
G01*
G37*
G36*
G01*
X172072312Y-70690732D02*
X171135396Y-71627648D01*
G75*
G02*
X171029330Y-71627648I-53033J53033D01*
G01*
X170923264Y-71521582D01*
G75*
G02*
X170923264Y-71415516I53033J53033D01*
G01*
X171860180Y-70478600D01*
G75*
G02*
X171966246Y-70478600I53033J-53033D01*
G01*
X172072312Y-70584666D01*
G75*
G02*
X172072312Y-70690732I-53033J-53033D01*
G01*
G37*
G36*
G01*
X172425866Y-71044286D02*
X171488950Y-71981202D01*
G75*
G02*
X171382884Y-71981202I-53033J53033D01*
G01*
X171276818Y-71875136D01*
G75*
G02*
X171276818Y-71769070I53033J53033D01*
G01*
X172213734Y-70832154D01*
G75*
G02*
X172319800Y-70832154I53033J-53033D01*
G01*
X172425866Y-70938220D01*
G75*
G02*
X172425866Y-71044286I-53033J-53033D01*
G01*
G37*
G36*
G01*
X172779419Y-71397839D02*
X171842503Y-72334755D01*
G75*
G02*
X171736437Y-72334755I-53033J53033D01*
G01*
X171630371Y-72228689D01*
G75*
G02*
X171630371Y-72122623I53033J53033D01*
G01*
X172567287Y-71185707D01*
G75*
G02*
X172673353Y-71185707I53033J-53033D01*
G01*
X172779419Y-71291773D01*
G75*
G02*
X172779419Y-71397839I-53033J-53033D01*
G01*
G37*
G36*
G01*
X173132973Y-71751393D02*
X172196057Y-72688309D01*
G75*
G02*
X172089991Y-72688309I-53033J53033D01*
G01*
X171983925Y-72582243D01*
G75*
G02*
X171983925Y-72476177I53033J53033D01*
G01*
X172920841Y-71539261D01*
G75*
G02*
X173026907Y-71539261I53033J-53033D01*
G01*
X173132973Y-71645327D01*
G75*
G02*
X173132973Y-71751393I-53033J-53033D01*
G01*
G37*
G36*
G01*
X173486526Y-72104946D02*
X172549610Y-73041862D01*
G75*
G02*
X172443544Y-73041862I-53033J53033D01*
G01*
X172337478Y-72935796D01*
G75*
G02*
X172337478Y-72829730I53033J53033D01*
G01*
X173274394Y-71892814D01*
G75*
G02*
X173380460Y-71892814I53033J-53033D01*
G01*
X173486526Y-71998880D01*
G75*
G02*
X173486526Y-72104946I-53033J-53033D01*
G01*
G37*
G36*
G01*
X173840079Y-72458499D02*
X172903163Y-73395415D01*
G75*
G02*
X172797097Y-73395415I-53033J53033D01*
G01*
X172691031Y-73289349D01*
G75*
G02*
X172691031Y-73183283I53033J53033D01*
G01*
X173627947Y-72246367D01*
G75*
G02*
X173734013Y-72246367I53033J-53033D01*
G01*
X173840079Y-72352433D01*
G75*
G02*
X173840079Y-72458499I-53033J-53033D01*
G01*
G37*
G36*
G01*
X174193633Y-72812053D02*
X173256717Y-73748969D01*
G75*
G02*
X173150651Y-73748969I-53033J53033D01*
G01*
X173044585Y-73642903D01*
G75*
G02*
X173044585Y-73536837I53033J53033D01*
G01*
X173981501Y-72599921D01*
G75*
G02*
X174087567Y-72599921I53033J-53033D01*
G01*
X174193633Y-72705987D01*
G75*
G02*
X174193633Y-72812053I-53033J-53033D01*
G01*
G37*
G36*
G01*
X174547186Y-73165606D02*
X173610270Y-74102522D01*
G75*
G02*
X173504204Y-74102522I-53033J53033D01*
G01*
X173398138Y-73996456D01*
G75*
G02*
X173398138Y-73890390I53033J53033D01*
G01*
X174335054Y-72953474D01*
G75*
G02*
X174441120Y-72953474I53033J-53033D01*
G01*
X174547186Y-73059540D01*
G75*
G02*
X174547186Y-73165606I-53033J-53033D01*
G01*
G37*
G36*
G01*
X174900739Y-73519159D02*
X173963823Y-74456075D01*
G75*
G02*
X173857757Y-74456075I-53033J53033D01*
G01*
X173751691Y-74350009D01*
G75*
G02*
X173751691Y-74243943I53033J53033D01*
G01*
X174688607Y-73307027D01*
G75*
G02*
X174794673Y-73307027I53033J-53033D01*
G01*
X174900739Y-73413093D01*
G75*
G02*
X174900739Y-73519159I-53033J-53033D01*
G01*
G37*
G36*
G01*
X175254293Y-73872713D02*
X174317377Y-74809629D01*
G75*
G02*
X174211311Y-74809629I-53033J53033D01*
G01*
X174105245Y-74703563D01*
G75*
G02*
X174105245Y-74597497I53033J53033D01*
G01*
X175042161Y-73660581D01*
G75*
G02*
X175148227Y-73660581I53033J-53033D01*
G01*
X175254293Y-73766647D01*
G75*
G02*
X175254293Y-73872713I-53033J-53033D01*
G01*
G37*
G36*
G01*
X175607846Y-74226266D02*
X174670930Y-75163182D01*
G75*
G02*
X174564864Y-75163182I-53033J53033D01*
G01*
X174458798Y-75057116D01*
G75*
G02*
X174458798Y-74951050I53033J53033D01*
G01*
X175395714Y-74014134D01*
G75*
G02*
X175501780Y-74014134I53033J-53033D01*
G01*
X175607846Y-74120200D01*
G75*
G02*
X175607846Y-74226266I-53033J-53033D01*
G01*
G37*
G36*
G01*
X175961400Y-74579820D02*
X175024484Y-75516736D01*
G75*
G02*
X174918418Y-75516736I-53033J53033D01*
G01*
X174812352Y-75410670D01*
G75*
G02*
X174812352Y-75304604I53033J53033D01*
G01*
X175749268Y-74367688D01*
G75*
G02*
X175855334Y-74367688I53033J-53033D01*
G01*
X175961400Y-74473754D01*
G75*
G02*
X175961400Y-74579820I-53033J-53033D01*
G01*
G37*
G36*
G01*
X175961400Y-77408246D02*
X175855334Y-77514312D01*
G75*
G02*
X175749268Y-77514312I-53033J53033D01*
G01*
X174812352Y-76577396D01*
G75*
G02*
X174812352Y-76471330I53033J53033D01*
G01*
X174918418Y-76365264D01*
G75*
G02*
X175024484Y-76365264I53033J-53033D01*
G01*
X175961400Y-77302180D01*
G75*
G02*
X175961400Y-77408246I-53033J-53033D01*
G01*
G37*
G36*
G01*
X175607846Y-77761800D02*
X175501780Y-77867866D01*
G75*
G02*
X175395714Y-77867866I-53033J53033D01*
G01*
X174458798Y-76930950D01*
G75*
G02*
X174458798Y-76824884I53033J53033D01*
G01*
X174564864Y-76718818D01*
G75*
G02*
X174670930Y-76718818I53033J-53033D01*
G01*
X175607846Y-77655734D01*
G75*
G02*
X175607846Y-77761800I-53033J-53033D01*
G01*
G37*
G36*
G01*
X175254293Y-78115353D02*
X175148227Y-78221419D01*
G75*
G02*
X175042161Y-78221419I-53033J53033D01*
G01*
X174105245Y-77284503D01*
G75*
G02*
X174105245Y-77178437I53033J53033D01*
G01*
X174211311Y-77072371D01*
G75*
G02*
X174317377Y-77072371I53033J-53033D01*
G01*
X175254293Y-78009287D01*
G75*
G02*
X175254293Y-78115353I-53033J-53033D01*
G01*
G37*
G36*
G01*
X174900739Y-78468907D02*
X174794673Y-78574973D01*
G75*
G02*
X174688607Y-78574973I-53033J53033D01*
G01*
X173751691Y-77638057D01*
G75*
G02*
X173751691Y-77531991I53033J53033D01*
G01*
X173857757Y-77425925D01*
G75*
G02*
X173963823Y-77425925I53033J-53033D01*
G01*
X174900739Y-78362841D01*
G75*
G02*
X174900739Y-78468907I-53033J-53033D01*
G01*
G37*
G36*
G01*
X174547186Y-78822460D02*
X174441120Y-78928526D01*
G75*
G02*
X174335054Y-78928526I-53033J53033D01*
G01*
X173398138Y-77991610D01*
G75*
G02*
X173398138Y-77885544I53033J53033D01*
G01*
X173504204Y-77779478D01*
G75*
G02*
X173610270Y-77779478I53033J-53033D01*
G01*
X174547186Y-78716394D01*
G75*
G02*
X174547186Y-78822460I-53033J-53033D01*
G01*
G37*
G36*
G01*
X174193633Y-79176013D02*
X174087567Y-79282079D01*
G75*
G02*
X173981501Y-79282079I-53033J53033D01*
G01*
X173044585Y-78345163D01*
G75*
G02*
X173044585Y-78239097I53033J53033D01*
G01*
X173150651Y-78133031D01*
G75*
G02*
X173256717Y-78133031I53033J-53033D01*
G01*
X174193633Y-79069947D01*
G75*
G02*
X174193633Y-79176013I-53033J-53033D01*
G01*
G37*
G36*
G01*
X173840079Y-79529567D02*
X173734013Y-79635633D01*
G75*
G02*
X173627947Y-79635633I-53033J53033D01*
G01*
X172691031Y-78698717D01*
G75*
G02*
X172691031Y-78592651I53033J53033D01*
G01*
X172797097Y-78486585D01*
G75*
G02*
X172903163Y-78486585I53033J-53033D01*
G01*
X173840079Y-79423501D01*
G75*
G02*
X173840079Y-79529567I-53033J-53033D01*
G01*
G37*
G36*
G01*
X173486526Y-79883120D02*
X173380460Y-79989186D01*
G75*
G02*
X173274394Y-79989186I-53033J53033D01*
G01*
X172337478Y-79052270D01*
G75*
G02*
X172337478Y-78946204I53033J53033D01*
G01*
X172443544Y-78840138D01*
G75*
G02*
X172549610Y-78840138I53033J-53033D01*
G01*
X173486526Y-79777054D01*
G75*
G02*
X173486526Y-79883120I-53033J-53033D01*
G01*
G37*
G36*
G01*
X173132973Y-80236673D02*
X173026907Y-80342739D01*
G75*
G02*
X172920841Y-80342739I-53033J53033D01*
G01*
X171983925Y-79405823D01*
G75*
G02*
X171983925Y-79299757I53033J53033D01*
G01*
X172089991Y-79193691D01*
G75*
G02*
X172196057Y-79193691I53033J-53033D01*
G01*
X173132973Y-80130607D01*
G75*
G02*
X173132973Y-80236673I-53033J-53033D01*
G01*
G37*
G36*
G01*
X172779419Y-80590227D02*
X172673353Y-80696293D01*
G75*
G02*
X172567287Y-80696293I-53033J53033D01*
G01*
X171630371Y-79759377D01*
G75*
G02*
X171630371Y-79653311I53033J53033D01*
G01*
X171736437Y-79547245D01*
G75*
G02*
X171842503Y-79547245I53033J-53033D01*
G01*
X172779419Y-80484161D01*
G75*
G02*
X172779419Y-80590227I-53033J-53033D01*
G01*
G37*
G36*
G01*
X172425866Y-80943780D02*
X172319800Y-81049846D01*
G75*
G02*
X172213734Y-81049846I-53033J53033D01*
G01*
X171276818Y-80112930D01*
G75*
G02*
X171276818Y-80006864I53033J53033D01*
G01*
X171382884Y-79900798D01*
G75*
G02*
X171488950Y-79900798I53033J-53033D01*
G01*
X172425866Y-80837714D01*
G75*
G02*
X172425866Y-80943780I-53033J-53033D01*
G01*
G37*
G36*
G01*
X172072312Y-81297334D02*
X171966246Y-81403400D01*
G75*
G02*
X171860180Y-81403400I-53033J53033D01*
G01*
X170923264Y-80466484D01*
G75*
G02*
X170923264Y-80360418I53033J53033D01*
G01*
X171029330Y-80254352D01*
G75*
G02*
X171135396Y-80254352I53033J-53033D01*
G01*
X172072312Y-81191268D01*
G75*
G02*
X172072312Y-81297334I-53033J-53033D01*
G01*
G37*
G36*
G01*
X167434500Y-82755000D02*
X166959500Y-82755000D01*
G75*
G02*
X166722000Y-82517500I0J237500D01*
G01*
X166722000Y-82017500D01*
G75*
G02*
X166959500Y-81780000I237500J0D01*
G01*
X167434500Y-81780000D01*
G75*
G02*
X167672000Y-82017500I0J-237500D01*
G01*
X167672000Y-82517500D01*
G75*
G02*
X167434500Y-82755000I-237500J0D01*
G01*
G37*
G36*
G01*
X167434500Y-84580000D02*
X166959500Y-84580000D01*
G75*
G02*
X166722000Y-84342500I0J237500D01*
G01*
X166722000Y-83842500D01*
G75*
G02*
X166959500Y-83605000I237500J0D01*
G01*
X167434500Y-83605000D01*
G75*
G02*
X167672000Y-83842500I0J-237500D01*
G01*
X167672000Y-84342500D01*
G75*
G02*
X167434500Y-84580000I-237500J0D01*
G01*
G37*
G36*
G01*
X168735000Y-84138000D02*
X168735000Y-84508000D01*
G75*
G02*
X168600000Y-84643000I-135000J0D01*
G01*
X168330000Y-84643000D01*
G75*
G02*
X168195000Y-84508000I0J135000D01*
G01*
X168195000Y-84138000D01*
G75*
G02*
X168330000Y-84003000I135000J0D01*
G01*
X168600000Y-84003000D01*
G75*
G02*
X168735000Y-84138000I0J-135000D01*
G01*
G37*
G36*
G01*
X169755000Y-84138000D02*
X169755000Y-84508000D01*
G75*
G02*
X169620000Y-84643000I-135000J0D01*
G01*
X169350000Y-84643000D01*
G75*
G02*
X169215000Y-84508000I0J135000D01*
G01*
X169215000Y-84138000D01*
G75*
G02*
X169350000Y-84003000I135000J0D01*
G01*
X169620000Y-84003000D01*
G75*
G02*
X169755000Y-84138000I0J-135000D01*
G01*
G37*
D15*
X164784000Y-80509000D03*
X159704000Y-80509000D03*
X162244000Y-83819000D03*
X157164000Y-83819000D03*
G36*
G01*
X160256500Y-69833500D02*
X160256500Y-69358500D01*
G75*
G02*
X160494000Y-69121000I237500J0D01*
G01*
X161094000Y-69121000D01*
G75*
G02*
X161331500Y-69358500I0J-237500D01*
G01*
X161331500Y-69833500D01*
G75*
G02*
X161094000Y-70071000I-237500J0D01*
G01*
X160494000Y-70071000D01*
G75*
G02*
X160256500Y-69833500I0J237500D01*
G01*
G37*
G36*
G01*
X158531500Y-69833500D02*
X158531500Y-69358500D01*
G75*
G02*
X158769000Y-69121000I237500J0D01*
G01*
X159369000Y-69121000D01*
G75*
G02*
X159606500Y-69358500I0J-237500D01*
G01*
X159606500Y-69833500D01*
G75*
G02*
X159369000Y-70071000I-237500J0D01*
G01*
X158769000Y-70071000D01*
G75*
G02*
X158531500Y-69833500I0J237500D01*
G01*
G37*
G36*
G01*
X154922000Y-66653500D02*
X154922000Y-66178500D01*
G75*
G02*
X155159500Y-65941000I237500J0D01*
G01*
X155659500Y-65941000D01*
G75*
G02*
X155897000Y-66178500I0J-237500D01*
G01*
X155897000Y-66653500D01*
G75*
G02*
X155659500Y-66891000I-237500J0D01*
G01*
X155159500Y-66891000D01*
G75*
G02*
X154922000Y-66653500I0J237500D01*
G01*
G37*
G36*
G01*
X153097000Y-66653500D02*
X153097000Y-66178500D01*
G75*
G02*
X153334500Y-65941000I237500J0D01*
G01*
X153834500Y-65941000D01*
G75*
G02*
X154072000Y-66178500I0J-237500D01*
G01*
X154072000Y-66653500D01*
G75*
G02*
X153834500Y-66891000I-237500J0D01*
G01*
X153334500Y-66891000D01*
G75*
G02*
X153097000Y-66653500I0J237500D01*
G01*
G37*
G36*
G01*
X156926500Y-69381000D02*
X157401500Y-69381000D01*
G75*
G02*
X157639000Y-69618500I0J-237500D01*
G01*
X157639000Y-70118500D01*
G75*
G02*
X157401500Y-70356000I-237500J0D01*
G01*
X156926500Y-70356000D01*
G75*
G02*
X156689000Y-70118500I0J237500D01*
G01*
X156689000Y-69618500D01*
G75*
G02*
X156926500Y-69381000I237500J0D01*
G01*
G37*
G36*
G01*
X156926500Y-67556000D02*
X157401500Y-67556000D01*
G75*
G02*
X157639000Y-67793500I0J-237500D01*
G01*
X157639000Y-68293500D01*
G75*
G02*
X157401500Y-68531000I-237500J0D01*
G01*
X156926500Y-68531000D01*
G75*
G02*
X156689000Y-68293500I0J237500D01*
G01*
X156689000Y-67793500D01*
G75*
G02*
X156926500Y-67556000I237500J0D01*
G01*
G37*
G36*
G01*
X155275500Y-69381000D02*
X155750500Y-69381000D01*
G75*
G02*
X155988000Y-69618500I0J-237500D01*
G01*
X155988000Y-70118500D01*
G75*
G02*
X155750500Y-70356000I-237500J0D01*
G01*
X155275500Y-70356000D01*
G75*
G02*
X155038000Y-70118500I0J237500D01*
G01*
X155038000Y-69618500D01*
G75*
G02*
X155275500Y-69381000I237500J0D01*
G01*
G37*
G36*
G01*
X155275500Y-67556000D02*
X155750500Y-67556000D01*
G75*
G02*
X155988000Y-67793500I0J-237500D01*
G01*
X155988000Y-68293500D01*
G75*
G02*
X155750500Y-68531000I-237500J0D01*
G01*
X155275500Y-68531000D01*
G75*
G02*
X155038000Y-68293500I0J237500D01*
G01*
X155038000Y-67793500D01*
G75*
G02*
X155275500Y-67556000I237500J0D01*
G01*
G37*
G36*
G01*
X158378000Y-66653500D02*
X158378000Y-66178500D01*
G75*
G02*
X158615500Y-65941000I237500J0D01*
G01*
X159215500Y-65941000D01*
G75*
G02*
X159453000Y-66178500I0J-237500D01*
G01*
X159453000Y-66653500D01*
G75*
G02*
X159215500Y-66891000I-237500J0D01*
G01*
X158615500Y-66891000D01*
G75*
G02*
X158378000Y-66653500I0J237500D01*
G01*
G37*
G36*
G01*
X156653000Y-66653500D02*
X156653000Y-66178500D01*
G75*
G02*
X156890500Y-65941000I237500J0D01*
G01*
X157490500Y-65941000D01*
G75*
G02*
X157728000Y-66178500I0J-237500D01*
G01*
X157728000Y-66653500D01*
G75*
G02*
X157490500Y-66891000I-237500J0D01*
G01*
X156890500Y-66891000D01*
G75*
G02*
X156653000Y-66653500I0J237500D01*
G01*
G37*
D17*
X148782000Y-57399000D03*
X146242000Y-57399000D03*
X143702000Y-57399000D03*
D18*
X169864000Y-63216000D03*
D19*
X169864000Y-56916000D03*
X167564000Y-56916000D03*
X172164000Y-56916000D03*
D16*
X137482000Y-57272000D03*
X134682000Y-57272000D03*
G36*
G01*
X173149500Y-82982000D02*
X172674500Y-82982000D01*
G75*
G02*
X172437000Y-82744500I0J237500D01*
G01*
X172437000Y-82144500D01*
G75*
G02*
X172674500Y-81907000I237500J0D01*
G01*
X173149500Y-81907000D01*
G75*
G02*
X173387000Y-82144500I0J-237500D01*
G01*
X173387000Y-82744500D01*
G75*
G02*
X173149500Y-82982000I-237500J0D01*
G01*
G37*
G36*
G01*
X173149500Y-84707000D02*
X172674500Y-84707000D01*
G75*
G02*
X172437000Y-84469500I0J237500D01*
G01*
X172437000Y-83869500D01*
G75*
G02*
X172674500Y-83632000I237500J0D01*
G01*
X173149500Y-83632000D01*
G75*
G02*
X173387000Y-83869500I0J-237500D01*
G01*
X173387000Y-84469500D01*
G75*
G02*
X173149500Y-84707000I-237500J0D01*
G01*
G37*
G36*
G01*
X174111000Y-69226500D02*
X174111000Y-69701500D01*
G75*
G02*
X173873500Y-69939000I-237500J0D01*
G01*
X173273500Y-69939000D01*
G75*
G02*
X173036000Y-69701500I0J237500D01*
G01*
X173036000Y-69226500D01*
G75*
G02*
X173273500Y-68989000I237500J0D01*
G01*
X173873500Y-68989000D01*
G75*
G02*
X174111000Y-69226500I0J-237500D01*
G01*
G37*
G36*
G01*
X175836000Y-69226500D02*
X175836000Y-69701500D01*
G75*
G02*
X175598500Y-69939000I-237500J0D01*
G01*
X174998500Y-69939000D01*
G75*
G02*
X174761000Y-69701500I0J237500D01*
G01*
X174761000Y-69226500D01*
G75*
G02*
X174998500Y-68989000I237500J0D01*
G01*
X175598500Y-68989000D01*
G75*
G02*
X175836000Y-69226500I0J-237500D01*
G01*
G37*
G36*
G01*
X163530500Y-76266000D02*
X164005500Y-76266000D01*
G75*
G02*
X164243000Y-76503500I0J-237500D01*
G01*
X164243000Y-77103500D01*
G75*
G02*
X164005500Y-77341000I-237500J0D01*
G01*
X163530500Y-77341000D01*
G75*
G02*
X163293000Y-77103500I0J237500D01*
G01*
X163293000Y-76503500D01*
G75*
G02*
X163530500Y-76266000I237500J0D01*
G01*
G37*
G36*
G01*
X163530500Y-74541000D02*
X164005500Y-74541000D01*
G75*
G02*
X164243000Y-74778500I0J-237500D01*
G01*
X164243000Y-75378500D01*
G75*
G02*
X164005500Y-75616000I-237500J0D01*
G01*
X163530500Y-75616000D01*
G75*
G02*
X163293000Y-75378500I0J237500D01*
G01*
X163293000Y-74778500D01*
G75*
G02*
X163530500Y-74541000I237500J0D01*
G01*
G37*
D11*
X184727000Y-64765000D03*
X181417000Y-67305000D03*
X181417000Y-62225000D03*
X178758000Y-64765000D03*
X175448000Y-67305000D03*
X175448000Y-62225000D03*
G36*
G01*
X170062000Y-83163500D02*
X170062000Y-82688500D01*
G75*
G02*
X170299500Y-82451000I237500J0D01*
G01*
X170899500Y-82451000D01*
G75*
G02*
X171137000Y-82688500I0J-237500D01*
G01*
X171137000Y-83163500D01*
G75*
G02*
X170899500Y-83401000I-237500J0D01*
G01*
X170299500Y-83401000D01*
G75*
G02*
X170062000Y-83163500I0J237500D01*
G01*
G37*
G36*
G01*
X168337000Y-83163500D02*
X168337000Y-82688500D01*
G75*
G02*
X168574500Y-82451000I237500J0D01*
G01*
X169174500Y-82451000D01*
G75*
G02*
X169412000Y-82688500I0J-237500D01*
G01*
X169412000Y-83163500D01*
G75*
G02*
X169174500Y-83401000I-237500J0D01*
G01*
X168574500Y-83401000D01*
G75*
G02*
X168337000Y-83163500I0J237500D01*
G01*
G37*
D20*
X128401000Y-76840000D03*
X128401000Y-65410000D03*
D21*
X134751000Y-66680000D03*
D22*
X137291000Y-67950000D03*
X134751000Y-69220000D03*
X137291000Y-70490000D03*
X134751000Y-71760000D03*
X137291000Y-73030000D03*
X134751000Y-74300000D03*
X137291000Y-75570000D03*
D23*
X131451000Y-63375000D03*
X131451000Y-78875000D03*
G36*
G01*
X183636000Y-79767500D02*
X183636000Y-80242500D01*
G75*
G02*
X183398500Y-80480000I-237500J0D01*
G01*
X182798500Y-80480000D01*
G75*
G02*
X182561000Y-80242500I0J237500D01*
G01*
X182561000Y-79767500D01*
G75*
G02*
X182798500Y-79530000I237500J0D01*
G01*
X183398500Y-79530000D01*
G75*
G02*
X183636000Y-79767500I0J-237500D01*
G01*
G37*
G36*
G01*
X185361000Y-79767500D02*
X185361000Y-80242500D01*
G75*
G02*
X185123500Y-80480000I-237500J0D01*
G01*
X184523500Y-80480000D01*
G75*
G02*
X184286000Y-80242500I0J237500D01*
G01*
X184286000Y-79767500D01*
G75*
G02*
X184523500Y-79530000I237500J0D01*
G01*
X185123500Y-79530000D01*
G75*
G02*
X185361000Y-79767500I0J-237500D01*
G01*
G37*
G36*
G01*
X179117000Y-71474500D02*
X179117000Y-70999500D01*
G75*
G02*
X179354500Y-70762000I237500J0D01*
G01*
X179854500Y-70762000D01*
G75*
G02*
X180092000Y-70999500I0J-237500D01*
G01*
X180092000Y-71474500D01*
G75*
G02*
X179854500Y-71712000I-237500J0D01*
G01*
X179354500Y-71712000D01*
G75*
G02*
X179117000Y-71474500I0J237500D01*
G01*
G37*
G36*
G01*
X177292000Y-71474500D02*
X177292000Y-70999500D01*
G75*
G02*
X177529500Y-70762000I237500J0D01*
G01*
X178029500Y-70762000D01*
G75*
G02*
X178267000Y-70999500I0J-237500D01*
G01*
X178267000Y-71474500D01*
G75*
G02*
X178029500Y-71712000I-237500J0D01*
G01*
X177529500Y-71712000D01*
G75*
G02*
X177292000Y-71474500I0J237500D01*
G01*
G37*
G36*
G01*
X180975000Y-71347500D02*
X180975000Y-70872500D01*
G75*
G02*
X181212500Y-70635000I237500J0D01*
G01*
X181712500Y-70635000D01*
G75*
G02*
X181950000Y-70872500I0J-237500D01*
G01*
X181950000Y-71347500D01*
G75*
G02*
X181712500Y-71585000I-237500J0D01*
G01*
X181212500Y-71585000D01*
G75*
G02*
X180975000Y-71347500I0J237500D01*
G01*
G37*
G36*
G01*
X182800000Y-71347500D02*
X182800000Y-70872500D01*
G75*
G02*
X183037500Y-70635000I237500J0D01*
G01*
X183537500Y-70635000D01*
G75*
G02*
X183775000Y-70872500I0J-237500D01*
G01*
X183775000Y-71347500D01*
G75*
G02*
X183537500Y-71585000I-237500J0D01*
G01*
X183037500Y-71585000D01*
G75*
G02*
X182800000Y-71347500I0J237500D01*
G01*
G37*
G36*
G01*
X192198000Y-79475500D02*
X192198000Y-79000500D01*
G75*
G02*
X192435500Y-78763000I237500J0D01*
G01*
X192935500Y-78763000D01*
G75*
G02*
X193173000Y-79000500I0J-237500D01*
G01*
X193173000Y-79475500D01*
G75*
G02*
X192935500Y-79713000I-237500J0D01*
G01*
X192435500Y-79713000D01*
G75*
G02*
X192198000Y-79475500I0J237500D01*
G01*
G37*
G36*
G01*
X190373000Y-79475500D02*
X190373000Y-79000500D01*
G75*
G02*
X190610500Y-78763000I237500J0D01*
G01*
X191110500Y-78763000D01*
G75*
G02*
X191348000Y-79000500I0J-237500D01*
G01*
X191348000Y-79475500D01*
G75*
G02*
X191110500Y-79713000I-237500J0D01*
G01*
X190610500Y-79713000D01*
G75*
G02*
X190373000Y-79475500I0J237500D01*
G01*
G37*
G36*
G01*
X192198000Y-72744500D02*
X192198000Y-72269500D01*
G75*
G02*
X192435500Y-72032000I237500J0D01*
G01*
X192935500Y-72032000D01*
G75*
G02*
X193173000Y-72269500I0J-237500D01*
G01*
X193173000Y-72744500D01*
G75*
G02*
X192935500Y-72982000I-237500J0D01*
G01*
X192435500Y-72982000D01*
G75*
G02*
X192198000Y-72744500I0J237500D01*
G01*
G37*
G36*
G01*
X190373000Y-72744500D02*
X190373000Y-72269500D01*
G75*
G02*
X190610500Y-72032000I237500J0D01*
G01*
X191110500Y-72032000D01*
G75*
G02*
X191348000Y-72269500I0J-237500D01*
G01*
X191348000Y-72744500D01*
G75*
G02*
X191110500Y-72982000I-237500J0D01*
G01*
X190610500Y-72982000D01*
G75*
G02*
X190373000Y-72744500I0J237500D01*
G01*
G37*
G36*
G01*
X187027000Y-73930500D02*
X187027000Y-74405500D01*
G75*
G02*
X186789500Y-74643000I-237500J0D01*
G01*
X186289500Y-74643000D01*
G75*
G02*
X186052000Y-74405500I0J237500D01*
G01*
X186052000Y-73930500D01*
G75*
G02*
X186289500Y-73693000I237500J0D01*
G01*
X186789500Y-73693000D01*
G75*
G02*
X187027000Y-73930500I0J-237500D01*
G01*
G37*
G36*
G01*
X188852000Y-73930500D02*
X188852000Y-74405500D01*
G75*
G02*
X188614500Y-74643000I-237500J0D01*
G01*
X188114500Y-74643000D01*
G75*
G02*
X187877000Y-74405500I0J237500D01*
G01*
X187877000Y-73930500D01*
G75*
G02*
X188114500Y-73693000I237500J0D01*
G01*
X188614500Y-73693000D01*
G75*
G02*
X188852000Y-73930500I0J-237500D01*
G01*
G37*
G36*
G01*
X187027000Y-80534500D02*
X187027000Y-81009500D01*
G75*
G02*
X186789500Y-81247000I-237500J0D01*
G01*
X186289500Y-81247000D01*
G75*
G02*
X186052000Y-81009500I0J237500D01*
G01*
X186052000Y-80534500D01*
G75*
G02*
X186289500Y-80297000I237500J0D01*
G01*
X186789500Y-80297000D01*
G75*
G02*
X187027000Y-80534500I0J-237500D01*
G01*
G37*
G36*
G01*
X188852000Y-80534500D02*
X188852000Y-81009500D01*
G75*
G02*
X188614500Y-81247000I-237500J0D01*
G01*
X188114500Y-81247000D01*
G75*
G02*
X187877000Y-81009500I0J237500D01*
G01*
X187877000Y-80534500D01*
G75*
G02*
X188114500Y-80297000I237500J0D01*
G01*
X188614500Y-80297000D01*
G75*
G02*
X188852000Y-80534500I0J-237500D01*
G01*
G37*
G36*
G01*
X178267000Y-69353500D02*
X178267000Y-69828500D01*
G75*
G02*
X178029500Y-70066000I-237500J0D01*
G01*
X177529500Y-70066000D01*
G75*
G02*
X177292000Y-69828500I0J237500D01*
G01*
X177292000Y-69353500D01*
G75*
G02*
X177529500Y-69116000I237500J0D01*
G01*
X178029500Y-69116000D01*
G75*
G02*
X178267000Y-69353500I0J-237500D01*
G01*
G37*
G36*
G01*
X180092000Y-69353500D02*
X180092000Y-69828500D01*
G75*
G02*
X179854500Y-70066000I-237500J0D01*
G01*
X179354500Y-70066000D01*
G75*
G02*
X179117000Y-69828500I0J237500D01*
G01*
X179117000Y-69353500D01*
G75*
G02*
X179354500Y-69116000I237500J0D01*
G01*
X179854500Y-69116000D01*
G75*
G02*
X180092000Y-69353500I0J-237500D01*
G01*
G37*
G36*
G01*
X181950000Y-69353500D02*
X181950000Y-69828500D01*
G75*
G02*
X181712500Y-70066000I-237500J0D01*
G01*
X181212500Y-70066000D01*
G75*
G02*
X180975000Y-69828500I0J237500D01*
G01*
X180975000Y-69353500D01*
G75*
G02*
X181212500Y-69116000I237500J0D01*
G01*
X181712500Y-69116000D01*
G75*
G02*
X181950000Y-69353500I0J-237500D01*
G01*
G37*
G36*
G01*
X183775000Y-69353500D02*
X183775000Y-69828500D01*
G75*
G02*
X183537500Y-70066000I-237500J0D01*
G01*
X183037500Y-70066000D01*
G75*
G02*
X182800000Y-69828500I0J237500D01*
G01*
X182800000Y-69353500D01*
G75*
G02*
X183037500Y-69116000I237500J0D01*
G01*
X183537500Y-69116000D01*
G75*
G02*
X183775000Y-69353500I0J-237500D01*
G01*
G37*
G36*
G01*
X191348000Y-77349500D02*
X191348000Y-77824500D01*
G75*
G02*
X191110500Y-78062000I-237500J0D01*
G01*
X190610500Y-78062000D01*
G75*
G02*
X190373000Y-77824500I0J237500D01*
G01*
X190373000Y-77349500D01*
G75*
G02*
X190610500Y-77112000I237500J0D01*
G01*
X191110500Y-77112000D01*
G75*
G02*
X191348000Y-77349500I0J-237500D01*
G01*
G37*
G36*
G01*
X193173000Y-77349500D02*
X193173000Y-77824500D01*
G75*
G02*
X192935500Y-78062000I-237500J0D01*
G01*
X192435500Y-78062000D01*
G75*
G02*
X192198000Y-77824500I0J237500D01*
G01*
X192198000Y-77349500D01*
G75*
G02*
X192435500Y-77112000I237500J0D01*
G01*
X192935500Y-77112000D01*
G75*
G02*
X193173000Y-77349500I0J-237500D01*
G01*
G37*
G36*
G01*
X191348000Y-75576500D02*
X191348000Y-76051500D01*
G75*
G02*
X191110500Y-76289000I-237500J0D01*
G01*
X190610500Y-76289000D01*
G75*
G02*
X190373000Y-76051500I0J237500D01*
G01*
X190373000Y-75576500D01*
G75*
G02*
X190610500Y-75339000I237500J0D01*
G01*
X191110500Y-75339000D01*
G75*
G02*
X191348000Y-75576500I0J-237500D01*
G01*
G37*
G36*
G01*
X193173000Y-75576500D02*
X193173000Y-76051500D01*
G75*
G02*
X192935500Y-76289000I-237500J0D01*
G01*
X192435500Y-76289000D01*
G75*
G02*
X192198000Y-76051500I0J237500D01*
G01*
X192198000Y-75576500D01*
G75*
G02*
X192435500Y-75339000I237500J0D01*
G01*
X192935500Y-75339000D01*
G75*
G02*
X193173000Y-75576500I0J-237500D01*
G01*
G37*
G36*
G01*
X187877000Y-76056500D02*
X187877000Y-75581500D01*
G75*
G02*
X188114500Y-75344000I237500J0D01*
G01*
X188614500Y-75344000D01*
G75*
G02*
X188852000Y-75581500I0J-237500D01*
G01*
X188852000Y-76056500D01*
G75*
G02*
X188614500Y-76294000I-237500J0D01*
G01*
X188114500Y-76294000D01*
G75*
G02*
X187877000Y-76056500I0J237500D01*
G01*
G37*
G36*
G01*
X186052000Y-76056500D02*
X186052000Y-75581500D01*
G75*
G02*
X186289500Y-75344000I237500J0D01*
G01*
X186789500Y-75344000D01*
G75*
G02*
X187027000Y-75581500I0J-237500D01*
G01*
X187027000Y-76056500D01*
G75*
G02*
X186789500Y-76294000I-237500J0D01*
G01*
X186289500Y-76294000D01*
G75*
G02*
X186052000Y-76056500I0J237500D01*
G01*
G37*
G36*
G01*
X187877000Y-77702500D02*
X187877000Y-77227500D01*
G75*
G02*
X188114500Y-76990000I237500J0D01*
G01*
X188614500Y-76990000D01*
G75*
G02*
X188852000Y-77227500I0J-237500D01*
G01*
X188852000Y-77702500D01*
G75*
G02*
X188614500Y-77940000I-237500J0D01*
G01*
X188114500Y-77940000D01*
G75*
G02*
X187877000Y-77702500I0J237500D01*
G01*
G37*
G36*
G01*
X186052000Y-77702500D02*
X186052000Y-77227500D01*
G75*
G02*
X186289500Y-76990000I237500J0D01*
G01*
X186789500Y-76990000D01*
G75*
G02*
X187027000Y-77227500I0J-237500D01*
G01*
X187027000Y-77702500D01*
G75*
G02*
X186789500Y-77940000I-237500J0D01*
G01*
X186289500Y-77940000D01*
G75*
G02*
X186052000Y-77702500I0J237500D01*
G01*
G37*
G36*
G01*
X179280600Y-81588700D02*
X179280600Y-81113700D01*
G75*
G02*
X179518100Y-80876200I237500J0D01*
G01*
X180018100Y-80876200D01*
G75*
G02*
X180255600Y-81113700I0J-237500D01*
G01*
X180255600Y-81588700D01*
G75*
G02*
X180018100Y-81826200I-237500J0D01*
G01*
X179518100Y-81826200D01*
G75*
G02*
X179280600Y-81588700I0J237500D01*
G01*
G37*
G36*
G01*
X177455600Y-81588700D02*
X177455600Y-81113700D01*
G75*
G02*
X177693100Y-80876200I237500J0D01*
G01*
X178193100Y-80876200D01*
G75*
G02*
X178430600Y-81113700I0J-237500D01*
G01*
X178430600Y-81588700D01*
G75*
G02*
X178193100Y-81826200I-237500J0D01*
G01*
X177693100Y-81826200D01*
G75*
G02*
X177455600Y-81588700I0J237500D01*
G01*
G37*
G36*
G01*
X150643000Y-84847500D02*
X150643000Y-85322500D01*
G75*
G02*
X150405500Y-85560000I-237500J0D01*
G01*
X149905500Y-85560000D01*
G75*
G02*
X149668000Y-85322500I0J237500D01*
G01*
X149668000Y-84847500D01*
G75*
G02*
X149905500Y-84610000I237500J0D01*
G01*
X150405500Y-84610000D01*
G75*
G02*
X150643000Y-84847500I0J-237500D01*
G01*
G37*
G36*
G01*
X152468000Y-84847500D02*
X152468000Y-85322500D01*
G75*
G02*
X152230500Y-85560000I-237500J0D01*
G01*
X151730500Y-85560000D01*
G75*
G02*
X151493000Y-85322500I0J237500D01*
G01*
X151493000Y-84847500D01*
G75*
G02*
X151730500Y-84610000I237500J0D01*
G01*
X152230500Y-84610000D01*
G75*
G02*
X152468000Y-84847500I0J-237500D01*
G01*
G37*
G36*
G01*
X152802000Y-73798500D02*
X152802000Y-74273500D01*
G75*
G02*
X152564500Y-74511000I-237500J0D01*
G01*
X152064500Y-74511000D01*
G75*
G02*
X151827000Y-74273500I0J237500D01*
G01*
X151827000Y-73798500D01*
G75*
G02*
X152064500Y-73561000I237500J0D01*
G01*
X152564500Y-73561000D01*
G75*
G02*
X152802000Y-73798500I0J-237500D01*
G01*
G37*
G36*
G01*
X154627000Y-73798500D02*
X154627000Y-74273500D01*
G75*
G02*
X154389500Y-74511000I-237500J0D01*
G01*
X153889500Y-74511000D01*
G75*
G02*
X153652000Y-74273500I0J237500D01*
G01*
X153652000Y-73798500D01*
G75*
G02*
X153889500Y-73561000I237500J0D01*
G01*
X154389500Y-73561000D01*
G75*
G02*
X154627000Y-73798500I0J-237500D01*
G01*
G37*
G36*
G01*
X157081000Y-77707500D02*
X157081000Y-77232500D01*
G75*
G02*
X157318500Y-76995000I237500J0D01*
G01*
X157818500Y-76995000D01*
G75*
G02*
X158056000Y-77232500I0J-237500D01*
G01*
X158056000Y-77707500D01*
G75*
G02*
X157818500Y-77945000I-237500J0D01*
G01*
X157318500Y-77945000D01*
G75*
G02*
X157081000Y-77707500I0J237500D01*
G01*
G37*
G36*
G01*
X155256000Y-77707500D02*
X155256000Y-77232500D01*
G75*
G02*
X155493500Y-76995000I237500J0D01*
G01*
X155993500Y-76995000D01*
G75*
G02*
X156231000Y-77232500I0J-237500D01*
G01*
X156231000Y-77707500D01*
G75*
G02*
X155993500Y-77945000I-237500J0D01*
G01*
X155493500Y-77945000D01*
G75*
G02*
X155256000Y-77707500I0J237500D01*
G01*
G37*
G36*
G01*
X178526000Y-82623500D02*
X178526000Y-83098500D01*
G75*
G02*
X178288500Y-83336000I-237500J0D01*
G01*
X177713500Y-83336000D01*
G75*
G02*
X177476000Y-83098500I0J237500D01*
G01*
X177476000Y-82623500D01*
G75*
G02*
X177713500Y-82386000I237500J0D01*
G01*
X178288500Y-82386000D01*
G75*
G02*
X178526000Y-82623500I0J-237500D01*
G01*
G37*
G36*
G01*
X180276000Y-82623500D02*
X180276000Y-83098500D01*
G75*
G02*
X180038500Y-83336000I-237500J0D01*
G01*
X179463500Y-83336000D01*
G75*
G02*
X179226000Y-83098500I0J237500D01*
G01*
X179226000Y-82623500D01*
G75*
G02*
X179463500Y-82386000I237500J0D01*
G01*
X180038500Y-82386000D01*
G75*
G02*
X180276000Y-82623500I0J-237500D01*
G01*
G37*
G36*
G01*
X178367000Y-72650500D02*
X178367000Y-73125500D01*
G75*
G02*
X178129500Y-73363000I-237500J0D01*
G01*
X177529500Y-73363000D01*
G75*
G02*
X177292000Y-73125500I0J237500D01*
G01*
X177292000Y-72650500D01*
G75*
G02*
X177529500Y-72413000I237500J0D01*
G01*
X178129500Y-72413000D01*
G75*
G02*
X178367000Y-72650500I0J-237500D01*
G01*
G37*
G36*
G01*
X180092000Y-72650500D02*
X180092000Y-73125500D01*
G75*
G02*
X179854500Y-73363000I-237500J0D01*
G01*
X179254500Y-73363000D01*
G75*
G02*
X179017000Y-73125500I0J237500D01*
G01*
X179017000Y-72650500D01*
G75*
G02*
X179254500Y-72413000I237500J0D01*
G01*
X179854500Y-72413000D01*
G75*
G02*
X180092000Y-72650500I0J-237500D01*
G01*
G37*
G36*
G01*
X182050000Y-72523500D02*
X182050000Y-72998500D01*
G75*
G02*
X181812500Y-73236000I-237500J0D01*
G01*
X181212500Y-73236000D01*
G75*
G02*
X180975000Y-72998500I0J237500D01*
G01*
X180975000Y-72523500D01*
G75*
G02*
X181212500Y-72286000I237500J0D01*
G01*
X181812500Y-72286000D01*
G75*
G02*
X182050000Y-72523500I0J-237500D01*
G01*
G37*
G36*
G01*
X183775000Y-72523500D02*
X183775000Y-72998500D01*
G75*
G02*
X183537500Y-73236000I-237500J0D01*
G01*
X182937500Y-73236000D01*
G75*
G02*
X182700000Y-72998500I0J237500D01*
G01*
X182700000Y-72523500D01*
G75*
G02*
X182937500Y-72286000I237500J0D01*
G01*
X183537500Y-72286000D01*
G75*
G02*
X183775000Y-72523500I0J-237500D01*
G01*
G37*
G36*
G01*
X191448000Y-80651500D02*
X191448000Y-81126500D01*
G75*
G02*
X191210500Y-81364000I-237500J0D01*
G01*
X190610500Y-81364000D01*
G75*
G02*
X190373000Y-81126500I0J237500D01*
G01*
X190373000Y-80651500D01*
G75*
G02*
X190610500Y-80414000I237500J0D01*
G01*
X191210500Y-80414000D01*
G75*
G02*
X191448000Y-80651500I0J-237500D01*
G01*
G37*
G36*
G01*
X193173000Y-80651500D02*
X193173000Y-81126500D01*
G75*
G02*
X192935500Y-81364000I-237500J0D01*
G01*
X192335500Y-81364000D01*
G75*
G02*
X192098000Y-81126500I0J237500D01*
G01*
X192098000Y-80651500D01*
G75*
G02*
X192335500Y-80414000I237500J0D01*
G01*
X192935500Y-80414000D01*
G75*
G02*
X193173000Y-80651500I0J-237500D01*
G01*
G37*
G36*
G01*
X191448000Y-73920500D02*
X191448000Y-74395500D01*
G75*
G02*
X191210500Y-74633000I-237500J0D01*
G01*
X190610500Y-74633000D01*
G75*
G02*
X190373000Y-74395500I0J237500D01*
G01*
X190373000Y-73920500D01*
G75*
G02*
X190610500Y-73683000I237500J0D01*
G01*
X191210500Y-73683000D01*
G75*
G02*
X191448000Y-73920500I0J-237500D01*
G01*
G37*
G36*
G01*
X193173000Y-73920500D02*
X193173000Y-74395500D01*
G75*
G02*
X192935500Y-74633000I-237500J0D01*
G01*
X192335500Y-74633000D01*
G75*
G02*
X192098000Y-74395500I0J237500D01*
G01*
X192098000Y-73920500D01*
G75*
G02*
X192335500Y-73683000I237500J0D01*
G01*
X192935500Y-73683000D01*
G75*
G02*
X193173000Y-73920500I0J-237500D01*
G01*
G37*
G36*
G01*
X187777000Y-72754500D02*
X187777000Y-72279500D01*
G75*
G02*
X188014500Y-72042000I237500J0D01*
G01*
X188614500Y-72042000D01*
G75*
G02*
X188852000Y-72279500I0J-237500D01*
G01*
X188852000Y-72754500D01*
G75*
G02*
X188614500Y-72992000I-237500J0D01*
G01*
X188014500Y-72992000D01*
G75*
G02*
X187777000Y-72754500I0J237500D01*
G01*
G37*
G36*
G01*
X186052000Y-72754500D02*
X186052000Y-72279500D01*
G75*
G02*
X186289500Y-72042000I237500J0D01*
G01*
X186889500Y-72042000D01*
G75*
G02*
X187127000Y-72279500I0J-237500D01*
G01*
X187127000Y-72754500D01*
G75*
G02*
X186889500Y-72992000I-237500J0D01*
G01*
X186289500Y-72992000D01*
G75*
G02*
X186052000Y-72754500I0J237500D01*
G01*
G37*
G36*
G01*
X187777000Y-79358500D02*
X187777000Y-78883500D01*
G75*
G02*
X188014500Y-78646000I237500J0D01*
G01*
X188614500Y-78646000D01*
G75*
G02*
X188852000Y-78883500I0J-237500D01*
G01*
X188852000Y-79358500D01*
G75*
G02*
X188614500Y-79596000I-237500J0D01*
G01*
X188014500Y-79596000D01*
G75*
G02*
X187777000Y-79358500I0J237500D01*
G01*
G37*
G36*
G01*
X186052000Y-79358500D02*
X186052000Y-78883500D01*
G75*
G02*
X186289500Y-78646000I237500J0D01*
G01*
X186889500Y-78646000D01*
G75*
G02*
X187127000Y-78883500I0J-237500D01*
G01*
X187127000Y-79358500D01*
G75*
G02*
X186889500Y-79596000I-237500J0D01*
G01*
X186289500Y-79596000D01*
G75*
G02*
X186052000Y-79358500I0J237500D01*
G01*
G37*
G36*
G01*
X176482888Y-72826012D02*
X176147012Y-73161888D01*
G75*
G02*
X175811136Y-73161888I-167938J167938D01*
G01*
X175386872Y-72737624D01*
G75*
G02*
X175386872Y-72401748I167938J167938D01*
G01*
X175722748Y-72065872D01*
G75*
G02*
X176058624Y-72065872I167938J-167938D01*
G01*
X176482888Y-72490136D01*
G75*
G02*
X176482888Y-72826012I-167938J-167938D01*
G01*
G37*
G36*
G01*
X175263128Y-71606252D02*
X174927252Y-71942128D01*
G75*
G02*
X174591376Y-71942128I-167938J167938D01*
G01*
X174167112Y-71517864D01*
G75*
G02*
X174167112Y-71181988I167938J167938D01*
G01*
X174502988Y-70846112D01*
G75*
G02*
X174838864Y-70846112I167938J-167938D01*
G01*
X175263128Y-71270376D01*
G75*
G02*
X175263128Y-71606252I-167938J-167938D01*
G01*
G37*
G36*
G01*
X159379000Y-84593500D02*
X159379000Y-85068500D01*
G75*
G02*
X159141500Y-85306000I-237500J0D01*
G01*
X158541500Y-85306000D01*
G75*
G02*
X158304000Y-85068500I0J237500D01*
G01*
X158304000Y-84593500D01*
G75*
G02*
X158541500Y-84356000I237500J0D01*
G01*
X159141500Y-84356000D01*
G75*
G02*
X159379000Y-84593500I0J-237500D01*
G01*
G37*
G36*
G01*
X161104000Y-84593500D02*
X161104000Y-85068500D01*
G75*
G02*
X160866500Y-85306000I-237500J0D01*
G01*
X160266500Y-85306000D01*
G75*
G02*
X160029000Y-85068500I0J237500D01*
G01*
X160029000Y-84593500D01*
G75*
G02*
X160266500Y-84356000I237500J0D01*
G01*
X160866500Y-84356000D01*
G75*
G02*
X161104000Y-84593500I0J-237500D01*
G01*
G37*
G36*
G01*
X151051500Y-58291000D02*
X150576500Y-58291000D01*
G75*
G02*
X150339000Y-58053500I0J237500D01*
G01*
X150339000Y-57453500D01*
G75*
G02*
X150576500Y-57216000I237500J0D01*
G01*
X151051500Y-57216000D01*
G75*
G02*
X151289000Y-57453500I0J-237500D01*
G01*
X151289000Y-58053500D01*
G75*
G02*
X151051500Y-58291000I-237500J0D01*
G01*
G37*
G36*
G01*
X151051500Y-56566000D02*
X150576500Y-56566000D01*
G75*
G02*
X150339000Y-56328500I0J237500D01*
G01*
X150339000Y-55728500D01*
G75*
G02*
X150576500Y-55491000I237500J0D01*
G01*
X151051500Y-55491000D01*
G75*
G02*
X151289000Y-55728500I0J-237500D01*
G01*
X151289000Y-56328500D01*
G75*
G02*
X151051500Y-56566000I-237500J0D01*
G01*
G37*
G36*
G01*
X141653500Y-58672000D02*
X141178500Y-58672000D01*
G75*
G02*
X140941000Y-58434500I0J237500D01*
G01*
X140941000Y-57834500D01*
G75*
G02*
X141178500Y-57597000I237500J0D01*
G01*
X141653500Y-57597000D01*
G75*
G02*
X141891000Y-57834500I0J-237500D01*
G01*
X141891000Y-58434500D01*
G75*
G02*
X141653500Y-58672000I-237500J0D01*
G01*
G37*
G36*
G01*
X141653500Y-56947000D02*
X141178500Y-56947000D01*
G75*
G02*
X140941000Y-56709500I0J237500D01*
G01*
X140941000Y-56109500D01*
G75*
G02*
X141178500Y-55872000I237500J0D01*
G01*
X141653500Y-55872000D01*
G75*
G02*
X141891000Y-56109500I0J-237500D01*
G01*
X141891000Y-56709500D01*
G75*
G02*
X141653500Y-56947000I-237500J0D01*
G01*
G37*
G36*
G01*
X164914000Y-57161500D02*
X164914000Y-57636500D01*
G75*
G02*
X164676500Y-57874000I-237500J0D01*
G01*
X164076500Y-57874000D01*
G75*
G02*
X163839000Y-57636500I0J237500D01*
G01*
X163839000Y-57161500D01*
G75*
G02*
X164076500Y-56924000I237500J0D01*
G01*
X164676500Y-56924000D01*
G75*
G02*
X164914000Y-57161500I0J-237500D01*
G01*
G37*
G36*
G01*
X163189000Y-57161500D02*
X163189000Y-57636500D01*
G75*
G02*
X162951500Y-57874000I-237500J0D01*
G01*
X162351500Y-57874000D01*
G75*
G02*
X162114000Y-57636500I0J237500D01*
G01*
X162114000Y-57161500D01*
G75*
G02*
X162351500Y-56924000I237500J0D01*
G01*
X162951500Y-56924000D01*
G75*
G02*
X163189000Y-57161500I0J-237500D01*
G01*
G37*
G36*
G01*
X186738500Y-68705000D02*
X186263500Y-68705000D01*
G75*
G02*
X186026000Y-68467500I0J237500D01*
G01*
X186026000Y-67867500D01*
G75*
G02*
X186263500Y-67630000I237500J0D01*
G01*
X186738500Y-67630000D01*
G75*
G02*
X186976000Y-67867500I0J-237500D01*
G01*
X186976000Y-68467500D01*
G75*
G02*
X186738500Y-68705000I-237500J0D01*
G01*
G37*
G36*
G01*
X186738500Y-66980000D02*
X186263500Y-66980000D01*
G75*
G02*
X186026000Y-66742500I0J237500D01*
G01*
X186026000Y-66142500D01*
G75*
G02*
X186263500Y-65905000I237500J0D01*
G01*
X186738500Y-65905000D01*
G75*
G02*
X186976000Y-66142500I0J-237500D01*
G01*
X186976000Y-66742500D01*
G75*
G02*
X186738500Y-66980000I-237500J0D01*
G01*
G37*
G36*
G01*
X177460500Y-56780500D02*
X177460500Y-57255500D01*
G75*
G02*
X177223000Y-57493000I-237500J0D01*
G01*
X176623000Y-57493000D01*
G75*
G02*
X176385500Y-57255500I0J237500D01*
G01*
X176385500Y-56780500D01*
G75*
G02*
X176623000Y-56543000I237500J0D01*
G01*
X177223000Y-56543000D01*
G75*
G02*
X177460500Y-56780500I0J-237500D01*
G01*
G37*
G36*
G01*
X175735500Y-56780500D02*
X175735500Y-57255500D01*
G75*
G02*
X175498000Y-57493000I-237500J0D01*
G01*
X174898000Y-57493000D01*
G75*
G02*
X174660500Y-57255500I0J237500D01*
G01*
X174660500Y-56780500D01*
G75*
G02*
X174898000Y-56543000I237500J0D01*
G01*
X175498000Y-56543000D01*
G75*
G02*
X175735500Y-56780500I0J-237500D01*
G01*
G37*
G36*
G01*
X191076000Y-60844500D02*
X191076000Y-61319500D01*
G75*
G02*
X190838500Y-61557000I-237500J0D01*
G01*
X190238500Y-61557000D01*
G75*
G02*
X190001000Y-61319500I0J237500D01*
G01*
X190001000Y-60844500D01*
G75*
G02*
X190238500Y-60607000I237500J0D01*
G01*
X190838500Y-60607000D01*
G75*
G02*
X191076000Y-60844500I0J-237500D01*
G01*
G37*
G36*
G01*
X189351000Y-60844500D02*
X189351000Y-61319500D01*
G75*
G02*
X189113500Y-61557000I-237500J0D01*
G01*
X188513500Y-61557000D01*
G75*
G02*
X188276000Y-61319500I0J237500D01*
G01*
X188276000Y-60844500D01*
G75*
G02*
X188513500Y-60607000I237500J0D01*
G01*
X189113500Y-60607000D01*
G75*
G02*
X189351000Y-60844500I0J-237500D01*
G01*
G37*
G36*
G01*
X145536000Y-84339500D02*
X145536000Y-84814500D01*
G75*
G02*
X145298500Y-85052000I-237500J0D01*
G01*
X144698500Y-85052000D01*
G75*
G02*
X144461000Y-84814500I0J237500D01*
G01*
X144461000Y-84339500D01*
G75*
G02*
X144698500Y-84102000I237500J0D01*
G01*
X145298500Y-84102000D01*
G75*
G02*
X145536000Y-84339500I0J-237500D01*
G01*
G37*
G36*
G01*
X147261000Y-84339500D02*
X147261000Y-84814500D01*
G75*
G02*
X147023500Y-85052000I-237500J0D01*
G01*
X146423500Y-85052000D01*
G75*
G02*
X146186000Y-84814500I0J237500D01*
G01*
X146186000Y-84339500D01*
G75*
G02*
X146423500Y-84102000I237500J0D01*
G01*
X147023500Y-84102000D01*
G75*
G02*
X147261000Y-84339500I0J-237500D01*
G01*
G37*
G36*
G01*
X157250000Y-75542000D02*
X157250000Y-75842000D01*
G75*
G02*
X157100000Y-75992000I-150000J0D01*
G01*
X155450000Y-75992000D01*
G75*
G02*
X155300000Y-75842000I0J150000D01*
G01*
X155300000Y-75542000D01*
G75*
G02*
X155450000Y-75392000I150000J0D01*
G01*
X157100000Y-75392000D01*
G75*
G02*
X157250000Y-75542000I0J-150000D01*
G01*
G37*
G36*
G01*
X157250000Y-74272000D02*
X157250000Y-74572000D01*
G75*
G02*
X157100000Y-74722000I-150000J0D01*
G01*
X155450000Y-74722000D01*
G75*
G02*
X155300000Y-74572000I0J150000D01*
G01*
X155300000Y-74272000D01*
G75*
G02*
X155450000Y-74122000I150000J0D01*
G01*
X157100000Y-74122000D01*
G75*
G02*
X157250000Y-74272000I0J-150000D01*
G01*
G37*
G36*
G01*
X157250000Y-73002000D02*
X157250000Y-73302000D01*
G75*
G02*
X157100000Y-73452000I-150000J0D01*
G01*
X155450000Y-73452000D01*
G75*
G02*
X155300000Y-73302000I0J150000D01*
G01*
X155300000Y-73002000D01*
G75*
G02*
X155450000Y-72852000I150000J0D01*
G01*
X157100000Y-72852000D01*
G75*
G02*
X157250000Y-73002000I0J-150000D01*
G01*
G37*
G36*
G01*
X157250000Y-71732000D02*
X157250000Y-72032000D01*
G75*
G02*
X157100000Y-72182000I-150000J0D01*
G01*
X155450000Y-72182000D01*
G75*
G02*
X155300000Y-72032000I0J150000D01*
G01*
X155300000Y-71732000D01*
G75*
G02*
X155450000Y-71582000I150000J0D01*
G01*
X157100000Y-71582000D01*
G75*
G02*
X157250000Y-71732000I0J-150000D01*
G01*
G37*
G36*
G01*
X162200000Y-71732000D02*
X162200000Y-72032000D01*
G75*
G02*
X162050000Y-72182000I-150000J0D01*
G01*
X160400000Y-72182000D01*
G75*
G02*
X160250000Y-72032000I0J150000D01*
G01*
X160250000Y-71732000D01*
G75*
G02*
X160400000Y-71582000I150000J0D01*
G01*
X162050000Y-71582000D01*
G75*
G02*
X162200000Y-71732000I0J-150000D01*
G01*
G37*
G36*
G01*
X162200000Y-73002000D02*
X162200000Y-73302000D01*
G75*
G02*
X162050000Y-73452000I-150000J0D01*
G01*
X160400000Y-73452000D01*
G75*
G02*
X160250000Y-73302000I0J150000D01*
G01*
X160250000Y-73002000D01*
G75*
G02*
X160400000Y-72852000I150000J0D01*
G01*
X162050000Y-72852000D01*
G75*
G02*
X162200000Y-73002000I0J-150000D01*
G01*
G37*
G36*
G01*
X162200000Y-74272000D02*
X162200000Y-74572000D01*
G75*
G02*
X162050000Y-74722000I-150000J0D01*
G01*
X160400000Y-74722000D01*
G75*
G02*
X160250000Y-74572000I0J150000D01*
G01*
X160250000Y-74272000D01*
G75*
G02*
X160400000Y-74122000I150000J0D01*
G01*
X162050000Y-74122000D01*
G75*
G02*
X162200000Y-74272000I0J-150000D01*
G01*
G37*
G36*
G01*
X162200000Y-75542000D02*
X162200000Y-75842000D01*
G75*
G02*
X162050000Y-75992000I-150000J0D01*
G01*
X160400000Y-75992000D01*
G75*
G02*
X160250000Y-75842000I0J150000D01*
G01*
X160250000Y-75542000D01*
G75*
G02*
X160400000Y-75392000I150000J0D01*
G01*
X162050000Y-75392000D01*
G75*
G02*
X162200000Y-75542000I0J-150000D01*
G01*
G37*
D12*
X153227000Y-68980000D03*
X154177000Y-71980000D03*
X152277000Y-71980000D03*
M02*
